<?xml version="1.0" encoding="utf-8" standalone="no"?>
<!DOCTYPE svg PUBLIC "-//W3C//DTD SVG 1.1//EN"
  "http://www.w3.org/Graphics/SVG/1.1/DTD/svg11.dtd">
<!-- Created with matplotlib (https://matplotlib.org/) -->
<svg height="324.635938pt" version="1.1" viewBox="0 0 353.928693 324.635938" width="353.928693pt" xmlns="http://www.w3.org/2000/svg" xmlns:xlink="http://www.w3.org/1999/xlink">
 <defs>
  <style type="text/css">
*{stroke-linecap:butt;stroke-linejoin:round;}
  </style>
 </defs>
 <g id="figure_1">
  <g id="patch_1">
   <path d="M 0 324.635938 
L 353.928693 324.635938 
L 353.928693 0 
L 0 0 
z
" style="fill:#ffffff;"/>
  </g>
  <g id="axes_1">
   <g id="patch_2">
    <path d="M 65.283594 279 
L 344.283594 279 
L 344.283594 7.2 
L 65.283594 7.2 
z
" style="fill:#ffffff;"/>
   </g>
   <g id="matplotlib.axis_1">
    <g id="xtick_1">
     <g id="text_1">
      <!-- 0 -->
      <defs>
       <path d="M 4.15625 35.296875 
Q 4.15625 48 6.765625 55.734375 
Q 9.375 63.484375 14.515625 67.671875 
Q 19.671875 71.875 27.484375 71.875 
Q 33.25 71.875 37.59375 69.546875 
Q 41.9375 67.234375 44.765625 62.859375 
Q 47.609375 58.5 49.21875 52.21875 
Q 50.828125 45.953125 50.828125 35.296875 
Q 50.828125 22.703125 48.234375 14.96875 
Q 45.65625 7.234375 40.5 3 
Q 35.359375 -1.21875 27.484375 -1.21875 
Q 17.140625 -1.21875 11.234375 6.203125 
Q 4.15625 15.140625 4.15625 35.296875 
z
M 13.1875 35.296875 
Q 13.1875 17.671875 17.3125 11.828125 
Q 21.4375 6 27.484375 6 
Q 33.546875 6 37.671875 11.859375 
Q 41.796875 17.71875 41.796875 35.296875 
Q 41.796875 52.984375 37.671875 58.78125 
Q 33.546875 64.59375 27.390625 64.59375 
Q 21.34375 64.59375 17.71875 59.46875 
Q 13.1875 52.9375 13.1875 35.296875 
z
" id="ArialMT-48"/>
      </defs>
      <g style="fill:#262626;" transform="translate(68.565093 296.736719)scale(0.15 -0.15)">
       <use xlink:href="#ArialMT-48"/>
      </g>
     </g>
    </g>
    <g id="xtick_2">
     <g id="text_2">
      <!-- 20 -->
      <defs>
       <path d="M 50.34375 8.453125 
L 50.34375 0 
L 3.03125 0 
Q 2.9375 3.171875 4.046875 6.109375 
Q 5.859375 10.9375 9.828125 15.625 
Q 13.8125 20.3125 21.34375 26.46875 
Q 33.015625 36.03125 37.109375 41.625 
Q 41.21875 47.21875 41.21875 52.203125 
Q 41.21875 57.421875 37.46875 61 
Q 33.734375 64.59375 27.734375 64.59375 
Q 21.390625 64.59375 17.578125 60.78125 
Q 13.765625 56.984375 13.71875 50.25 
L 4.6875 51.171875 
Q 5.609375 61.28125 11.65625 66.578125 
Q 17.71875 71.875 27.9375 71.875 
Q 38.234375 71.875 44.234375 66.15625 
Q 50.25 60.453125 50.25 52 
Q 50.25 47.703125 48.484375 43.546875 
Q 46.734375 39.40625 42.65625 34.8125 
Q 38.578125 30.21875 29.109375 22.21875 
Q 21.1875 15.578125 18.9375 13.203125 
Q 16.703125 10.84375 15.234375 8.453125 
z
" id="ArialMT-50"/>
      </defs>
      <g style="fill:#262626;" transform="translate(116.690547 296.736719)scale(0.15 -0.15)">
       <use xlink:href="#ArialMT-50"/>
       <use x="55.615234" xlink:href="#ArialMT-48"/>
      </g>
     </g>
    </g>
    <g id="xtick_3">
     <g id="text_3">
      <!-- 40 -->
      <defs>
       <path d="M 32.328125 0 
L 32.328125 17.140625 
L 1.265625 17.140625 
L 1.265625 25.203125 
L 33.9375 71.578125 
L 41.109375 71.578125 
L 41.109375 25.203125 
L 50.78125 25.203125 
L 50.78125 17.140625 
L 41.109375 17.140625 
L 41.109375 0 
z
M 32.328125 25.203125 
L 32.328125 57.46875 
L 9.90625 25.203125 
z
" id="ArialMT-52"/>
      </defs>
      <g style="fill:#262626;" transform="translate(168.986705 296.736719)scale(0.15 -0.15)">
       <use xlink:href="#ArialMT-52"/>
       <use x="55.615234" xlink:href="#ArialMT-48"/>
      </g>
     </g>
    </g>
    <g id="xtick_4">
     <g id="text_4">
      <!-- 60 -->
      <defs>
       <path d="M 49.75 54.046875 
L 41.015625 53.375 
Q 39.84375 58.546875 37.703125 60.890625 
Q 34.125 64.65625 28.90625 64.65625 
Q 24.703125 64.65625 21.53125 62.3125 
Q 17.390625 59.28125 14.984375 53.46875 
Q 12.59375 47.65625 12.5 36.921875 
Q 15.671875 41.75 20.265625 44.09375 
Q 24.859375 46.4375 29.890625 46.4375 
Q 38.671875 46.4375 44.84375 39.96875 
Q 51.03125 33.5 51.03125 23.25 
Q 51.03125 16.5 48.125 10.71875 
Q 45.21875 4.9375 40.140625 1.859375 
Q 35.0625 -1.21875 28.609375 -1.21875 
Q 17.625 -1.21875 10.6875 6.859375 
Q 3.765625 14.9375 3.765625 33.5 
Q 3.765625 54.25 11.421875 63.671875 
Q 18.109375 71.875 29.4375 71.875 
Q 37.890625 71.875 43.28125 67.140625 
Q 48.6875 62.40625 49.75 54.046875 
z
M 13.875 23.1875 
Q 13.875 18.65625 15.796875 14.5 
Q 17.71875 10.359375 21.1875 8.171875 
Q 24.65625 6 28.46875 6 
Q 34.03125 6 38.03125 10.484375 
Q 42.046875 14.984375 42.046875 22.703125 
Q 42.046875 30.125 38.078125 34.390625 
Q 34.125 38.671875 28.125 38.671875 
Q 22.171875 38.671875 18.015625 34.390625 
Q 13.875 30.125 13.875 23.1875 
z
" id="ArialMT-54"/>
      </defs>
      <g style="fill:#262626;" transform="translate(221.282862 296.736719)scale(0.15 -0.15)">
       <use xlink:href="#ArialMT-54"/>
       <use x="55.615234" xlink:href="#ArialMT-48"/>
      </g>
     </g>
    </g>
    <g id="xtick_5">
     <g id="text_5">
      <!-- 80 -->
      <defs>
       <path d="M 17.671875 38.8125 
Q 12.203125 40.828125 9.5625 44.53125 
Q 6.9375 48.25 6.9375 53.421875 
Q 6.9375 61.234375 12.546875 66.546875 
Q 18.171875 71.875 27.484375 71.875 
Q 36.859375 71.875 42.578125 66.421875 
Q 48.296875 60.984375 48.296875 53.171875 
Q 48.296875 48.1875 45.671875 44.5 
Q 43.0625 40.828125 37.75 38.8125 
Q 44.34375 36.671875 47.78125 31.875 
Q 51.21875 27.09375 51.21875 20.453125 
Q 51.21875 11.28125 44.71875 5.03125 
Q 38.234375 -1.21875 27.640625 -1.21875 
Q 17.046875 -1.21875 10.546875 5.046875 
Q 4.046875 11.328125 4.046875 20.703125 
Q 4.046875 27.6875 7.59375 32.390625 
Q 11.140625 37.109375 17.671875 38.8125 
z
M 15.921875 53.71875 
Q 15.921875 48.640625 19.1875 45.40625 
Q 22.46875 42.1875 27.6875 42.1875 
Q 32.765625 42.1875 36.015625 45.375 
Q 39.265625 48.578125 39.265625 53.21875 
Q 39.265625 58.0625 35.90625 61.359375 
Q 32.5625 64.65625 27.59375 64.65625 
Q 22.5625 64.65625 19.234375 61.421875 
Q 15.921875 58.203125 15.921875 53.71875 
z
M 13.09375 20.65625 
Q 13.09375 16.890625 14.875 13.375 
Q 16.65625 9.859375 20.171875 7.921875 
Q 23.6875 6 27.734375 6 
Q 34.03125 6 38.125 10.046875 
Q 42.234375 14.109375 42.234375 20.359375 
Q 42.234375 26.703125 38.015625 30.859375 
Q 33.796875 35.015625 27.4375 35.015625 
Q 21.234375 35.015625 17.15625 30.90625 
Q 13.09375 26.8125 13.09375 20.65625 
z
" id="ArialMT-56"/>
      </defs>
      <g style="fill:#262626;" transform="translate(273.57902 296.736719)scale(0.15 -0.15)">
       <use xlink:href="#ArialMT-56"/>
       <use x="55.615234" xlink:href="#ArialMT-48"/>
      </g>
     </g>
    </g>
    <g id="xtick_6">
     <g id="text_6">
      <!-- 100 -->
      <defs>
       <path d="M 37.25 0 
L 28.46875 0 
L 28.46875 56 
Q 25.296875 52.984375 20.140625 49.953125 
Q 14.984375 46.921875 10.890625 45.40625 
L 10.890625 53.90625 
Q 18.265625 57.375 23.78125 62.296875 
Q 29.296875 67.234375 31.59375 71.875 
L 37.25 71.875 
z
" id="ArialMT-49"/>
      </defs>
      <g style="fill:#262626;" transform="translate(321.704474 296.736719)scale(0.15 -0.15)">
       <use xlink:href="#ArialMT-49"/>
       <use x="55.615234" xlink:href="#ArialMT-48"/>
       <use x="111.230469" xlink:href="#ArialMT-48"/>
      </g>
     </g>
    </g>
    <g id="text_7">
     <!-- k -->
     <defs>
      <path d="M 6.640625 0 
L 6.640625 71.578125 
L 15.4375 71.578125 
L 15.4375 30.765625 
L 36.234375 51.859375 
L 47.609375 51.859375 
L 27.78125 32.625 
L 49.609375 0 
L 38.765625 0 
L 21.625 26.515625 
L 15.4375 20.5625 
L 15.4375 0 
z
" id="ArialMT-107"/>
     </defs>
     <g style="fill:#262626;" transform="translate(201.033594 314.454688)scale(0.15 -0.15)">
      <use xlink:href="#ArialMT-107"/>
     </g>
    </g>
   </g>
   <g id="matplotlib.axis_2">
    <g id="ytick_1">
     <g id="line2d_1">
      <path clip-path="url(#pc915437d05)" d="M 65.283594 268.592311 
L 344.283594 268.592311 
" style="fill:none;stroke:#cccccc;stroke-linecap:round;stroke-width:0.8;"/>
     </g>
     <g id="text_8">
      <!-- 0 -->
      <g style="fill:#262626;" transform="translate(49.942188 273.96067)scale(0.15 -0.15)">
       <use xlink:href="#ArialMT-48"/>
      </g>
     </g>
    </g>
    <g id="ytick_2">
     <g id="line2d_2">
      <path clip-path="url(#pc915437d05)" d="M 65.283594 235.346941 
L 344.283594 235.346941 
" style="fill:none;stroke:#cccccc;stroke-linecap:round;stroke-width:0.8;"/>
     </g>
     <g id="text_9">
      <!-- 200 -->
      <g style="fill:#262626;" transform="translate(33.259375 240.715301)scale(0.15 -0.15)">
       <use xlink:href="#ArialMT-50"/>
       <use x="55.615234" xlink:href="#ArialMT-48"/>
       <use x="111.230469" xlink:href="#ArialMT-48"/>
      </g>
     </g>
    </g>
    <g id="ytick_3">
     <g id="line2d_3">
      <path clip-path="url(#pc915437d05)" d="M 65.283594 202.101572 
L 344.283594 202.101572 
" style="fill:none;stroke:#cccccc;stroke-linecap:round;stroke-width:0.8;"/>
     </g>
     <g id="text_10">
      <!-- 400 -->
      <g style="fill:#262626;" transform="translate(33.259375 207.469931)scale(0.15 -0.15)">
       <use xlink:href="#ArialMT-52"/>
       <use x="55.615234" xlink:href="#ArialMT-48"/>
       <use x="111.230469" xlink:href="#ArialMT-48"/>
      </g>
     </g>
    </g>
    <g id="ytick_4">
     <g id="line2d_4">
      <path clip-path="url(#pc915437d05)" d="M 65.283594 168.856202 
L 344.283594 168.856202 
" style="fill:none;stroke:#cccccc;stroke-linecap:round;stroke-width:0.8;"/>
     </g>
     <g id="text_11">
      <!-- 600 -->
      <g style="fill:#262626;" transform="translate(33.259375 174.224562)scale(0.15 -0.15)">
       <use xlink:href="#ArialMT-54"/>
       <use x="55.615234" xlink:href="#ArialMT-48"/>
       <use x="111.230469" xlink:href="#ArialMT-48"/>
      </g>
     </g>
    </g>
    <g id="ytick_5">
     <g id="line2d_5">
      <path clip-path="url(#pc915437d05)" d="M 65.283594 135.610833 
L 344.283594 135.610833 
" style="fill:none;stroke:#cccccc;stroke-linecap:round;stroke-width:0.8;"/>
     </g>
     <g id="text_12">
      <!-- 800 -->
      <g style="fill:#262626;" transform="translate(33.259375 140.979192)scale(0.15 -0.15)">
       <use xlink:href="#ArialMT-56"/>
       <use x="55.615234" xlink:href="#ArialMT-48"/>
       <use x="111.230469" xlink:href="#ArialMT-48"/>
      </g>
     </g>
    </g>
    <g id="ytick_6">
     <g id="line2d_6">
      <path clip-path="url(#pc915437d05)" d="M 65.283594 102.365463 
L 344.283594 102.365463 
" style="fill:none;stroke:#cccccc;stroke-linecap:round;stroke-width:0.8;"/>
     </g>
     <g id="text_13">
      <!-- 1000 -->
      <g style="fill:#262626;" transform="translate(24.917969 107.733823)scale(0.15 -0.15)">
       <use xlink:href="#ArialMT-49"/>
       <use x="55.615234" xlink:href="#ArialMT-48"/>
       <use x="111.230469" xlink:href="#ArialMT-48"/>
       <use x="166.845703" xlink:href="#ArialMT-48"/>
      </g>
     </g>
    </g>
    <g id="ytick_7">
     <g id="line2d_7">
      <path clip-path="url(#pc915437d05)" d="M 65.283594 69.120094 
L 344.283594 69.120094 
" style="fill:none;stroke:#cccccc;stroke-linecap:round;stroke-width:0.8;"/>
     </g>
     <g id="text_14">
      <!-- 1200 -->
      <g style="fill:#262626;" transform="translate(24.917969 74.488453)scale(0.15 -0.15)">
       <use xlink:href="#ArialMT-49"/>
       <use x="55.615234" xlink:href="#ArialMT-50"/>
       <use x="111.230469" xlink:href="#ArialMT-48"/>
       <use x="166.845703" xlink:href="#ArialMT-48"/>
      </g>
     </g>
    </g>
    <g id="ytick_8">
     <g id="line2d_8">
      <path clip-path="url(#pc915437d05)" d="M 65.283594 35.874724 
L 344.283594 35.874724 
" style="fill:none;stroke:#cccccc;stroke-linecap:round;stroke-width:0.8;"/>
     </g>
     <g id="text_15">
      <!-- 1400 -->
      <g style="fill:#262626;" transform="translate(24.917969 41.243083)scale(0.15 -0.15)">
       <use xlink:href="#ArialMT-49"/>
       <use x="55.615234" xlink:href="#ArialMT-52"/>
       <use x="111.230469" xlink:href="#ArialMT-48"/>
       <use x="166.845703" xlink:href="#ArialMT-48"/>
      </g>
     </g>
    </g>
    <g id="text_16">
     <!-- Between-Cluster Variation -->
     <defs>
      <path d="M 7.328125 0 
L 7.328125 71.578125 
L 34.1875 71.578125 
Q 42.390625 71.578125 47.34375 69.40625 
Q 52.296875 67.234375 55.09375 62.71875 
Q 57.90625 58.203125 57.90625 53.265625 
Q 57.90625 48.6875 55.421875 44.625 
Q 52.9375 40.578125 47.90625 38.09375 
Q 54.390625 36.1875 57.875 31.59375 
Q 61.375 27 61.375 20.75 
Q 61.375 15.71875 59.25 11.390625 
Q 57.125 7.078125 54 4.734375 
Q 50.875 2.390625 46.15625 1.1875 
Q 41.453125 0 34.625 0 
z
M 16.796875 41.5 
L 32.28125 41.5 
Q 38.578125 41.5 41.3125 42.328125 
Q 44.921875 43.40625 46.75 45.890625 
Q 48.578125 48.390625 48.578125 52.15625 
Q 48.578125 55.71875 46.875 58.421875 
Q 45.171875 61.140625 41.984375 62.140625 
Q 38.8125 63.140625 31.109375 63.140625 
L 16.796875 63.140625 
z
M 16.796875 8.453125 
L 34.625 8.453125 
Q 39.203125 8.453125 41.0625 8.796875 
Q 44.34375 9.375 46.53125 10.734375 
Q 48.734375 12.109375 50.140625 14.71875 
Q 51.5625 17.328125 51.5625 20.75 
Q 51.5625 24.75 49.515625 27.703125 
Q 47.46875 30.671875 43.828125 31.859375 
Q 40.1875 33.0625 33.34375 33.0625 
L 16.796875 33.0625 
z
" id="ArialMT-66"/>
      <path d="M 42.09375 16.703125 
L 51.171875 15.578125 
Q 49.03125 7.625 43.21875 3.21875 
Q 37.40625 -1.171875 28.375 -1.171875 
Q 17 -1.171875 10.328125 5.828125 
Q 3.65625 12.84375 3.65625 25.484375 
Q 3.65625 38.578125 10.390625 45.796875 
Q 17.140625 53.03125 27.875 53.03125 
Q 38.28125 53.03125 44.875 45.953125 
Q 51.46875 38.875 51.46875 26.03125 
Q 51.46875 25.25 51.421875 23.6875 
L 12.75 23.6875 
Q 13.234375 15.140625 17.578125 10.59375 
Q 21.921875 6.0625 28.421875 6.0625 
Q 33.25 6.0625 36.671875 8.59375 
Q 40.09375 11.140625 42.09375 16.703125 
z
M 13.234375 30.90625 
L 42.1875 30.90625 
Q 41.609375 37.453125 38.875 40.71875 
Q 34.671875 45.796875 27.984375 45.796875 
Q 21.921875 45.796875 17.796875 41.75 
Q 13.671875 37.703125 13.234375 30.90625 
z
" id="ArialMT-101"/>
      <path d="M 25.78125 7.859375 
L 27.046875 0.09375 
Q 23.34375 -0.6875 20.40625 -0.6875 
Q 15.625 -0.6875 12.984375 0.828125 
Q 10.359375 2.34375 9.28125 4.8125 
Q 8.203125 7.28125 8.203125 15.1875 
L 8.203125 45.015625 
L 1.765625 45.015625 
L 1.765625 51.859375 
L 8.203125 51.859375 
L 8.203125 64.703125 
L 16.9375 69.96875 
L 16.9375 51.859375 
L 25.78125 51.859375 
L 25.78125 45.015625 
L 16.9375 45.015625 
L 16.9375 14.703125 
Q 16.9375 10.9375 17.40625 9.859375 
Q 17.875 8.796875 18.921875 8.15625 
Q 19.96875 7.515625 21.921875 7.515625 
Q 23.390625 7.515625 25.78125 7.859375 
z
" id="ArialMT-116"/>
      <path d="M 16.15625 0 
L 0.296875 51.859375 
L 9.375 51.859375 
L 17.625 21.921875 
L 20.703125 10.796875 
Q 20.90625 11.625 23.390625 21.484375 
L 31.640625 51.859375 
L 40.671875 51.859375 
L 48.4375 21.78125 
L 51.03125 11.859375 
L 54 21.875 
L 62.890625 51.859375 
L 71.4375 51.859375 
L 55.21875 0 
L 46.09375 0 
L 37.84375 31.0625 
L 35.84375 39.890625 
L 25.34375 0 
z
" id="ArialMT-119"/>
      <path d="M 6.59375 0 
L 6.59375 51.859375 
L 14.5 51.859375 
L 14.5 44.484375 
Q 20.21875 53.03125 31 53.03125 
Q 35.6875 53.03125 39.625 51.34375 
Q 43.5625 49.65625 45.515625 46.921875 
Q 47.46875 44.1875 48.25 40.4375 
Q 48.734375 37.984375 48.734375 31.890625 
L 48.734375 0 
L 39.9375 0 
L 39.9375 31.546875 
Q 39.9375 36.921875 38.90625 39.578125 
Q 37.890625 42.234375 35.28125 43.8125 
Q 32.671875 45.40625 29.15625 45.40625 
Q 23.53125 45.40625 19.453125 41.84375 
Q 15.375 38.28125 15.375 28.328125 
L 15.375 0 
z
" id="ArialMT-110"/>
      <path d="M 3.171875 21.484375 
L 3.171875 30.328125 
L 30.171875 30.328125 
L 30.171875 21.484375 
z
" id="ArialMT-45"/>
      <path d="M 58.796875 25.09375 
L 68.265625 22.703125 
Q 65.28125 11.03125 57.546875 4.90625 
Q 49.8125 -1.21875 38.625 -1.21875 
Q 27.046875 -1.21875 19.796875 3.484375 
Q 12.546875 8.203125 8.765625 17.140625 
Q 4.984375 26.078125 4.984375 36.328125 
Q 4.984375 47.515625 9.25 55.828125 
Q 13.53125 64.15625 21.40625 68.46875 
Q 29.296875 72.796875 38.765625 72.796875 
Q 49.515625 72.796875 56.828125 67.328125 
Q 64.15625 61.859375 67.046875 51.953125 
L 57.71875 49.75 
Q 55.21875 57.5625 50.484375 61.125 
Q 45.75 64.703125 38.578125 64.703125 
Q 30.328125 64.703125 24.78125 60.734375 
Q 19.234375 56.78125 16.984375 50.109375 
Q 14.75 43.453125 14.75 36.375 
Q 14.75 27.25 17.40625 20.4375 
Q 20.0625 13.625 25.671875 10.25 
Q 31.296875 6.890625 37.84375 6.890625 
Q 45.796875 6.890625 51.3125 11.46875 
Q 56.84375 16.0625 58.796875 25.09375 
z
" id="ArialMT-67"/>
      <path d="M 6.390625 0 
L 6.390625 71.578125 
L 15.1875 71.578125 
L 15.1875 0 
z
" id="ArialMT-108"/>
      <path d="M 40.578125 0 
L 40.578125 7.625 
Q 34.515625 -1.171875 24.125 -1.171875 
Q 19.53125 -1.171875 15.546875 0.578125 
Q 11.578125 2.34375 9.640625 5 
Q 7.71875 7.671875 6.9375 11.53125 
Q 6.390625 14.109375 6.390625 19.734375 
L 6.390625 51.859375 
L 15.1875 51.859375 
L 15.1875 23.09375 
Q 15.1875 16.21875 15.71875 13.8125 
Q 16.546875 10.359375 19.234375 8.375 
Q 21.921875 6.390625 25.875 6.390625 
Q 29.828125 6.390625 33.296875 8.421875 
Q 36.765625 10.453125 38.203125 13.9375 
Q 39.65625 17.4375 39.65625 24.078125 
L 39.65625 51.859375 
L 48.4375 51.859375 
L 48.4375 0 
z
" id="ArialMT-117"/>
      <path d="M 3.078125 15.484375 
L 11.765625 16.84375 
Q 12.5 11.625 15.84375 8.84375 
Q 19.1875 6.0625 25.203125 6.0625 
Q 31.25 6.0625 34.171875 8.515625 
Q 37.109375 10.984375 37.109375 14.3125 
Q 37.109375 17.28125 34.515625 19 
Q 32.71875 20.171875 25.53125 21.96875 
Q 15.875 24.421875 12.140625 26.203125 
Q 8.40625 27.984375 6.46875 31.125 
Q 4.546875 34.28125 4.546875 38.09375 
Q 4.546875 41.546875 6.125 44.5 
Q 7.71875 47.46875 10.453125 49.421875 
Q 12.5 50.921875 16.03125 51.96875 
Q 19.578125 53.03125 23.640625 53.03125 
Q 29.734375 53.03125 34.34375 51.265625 
Q 38.96875 49.515625 41.15625 46.5 
Q 43.359375 43.5 44.1875 38.484375 
L 35.59375 37.3125 
Q 35.015625 41.3125 32.203125 43.546875 
Q 29.390625 45.796875 24.265625 45.796875 
Q 18.21875 45.796875 15.625 43.796875 
Q 13.03125 41.796875 13.03125 39.109375 
Q 13.03125 37.40625 14.109375 36.03125 
Q 15.1875 34.625 17.484375 33.6875 
Q 18.796875 33.203125 25.25 31.453125 
Q 34.578125 28.953125 38.25 27.359375 
Q 41.9375 25.78125 44.03125 22.75 
Q 46.140625 19.734375 46.140625 15.234375 
Q 46.140625 10.84375 43.578125 6.953125 
Q 41.015625 3.078125 36.171875 0.953125 
Q 31.34375 -1.171875 25.25 -1.171875 
Q 15.140625 -1.171875 9.84375 3.03125 
Q 4.546875 7.234375 3.078125 15.484375 
z
" id="ArialMT-115"/>
      <path d="M 6.5 0 
L 6.5 51.859375 
L 14.40625 51.859375 
L 14.40625 44 
Q 17.4375 49.515625 20 51.265625 
Q 22.5625 53.03125 25.640625 53.03125 
Q 30.078125 53.03125 34.671875 50.203125 
L 31.640625 42.046875 
Q 28.421875 43.953125 25.203125 43.953125 
Q 22.3125 43.953125 20.015625 42.21875 
Q 17.71875 40.484375 16.75 37.40625 
Q 15.28125 32.71875 15.28125 27.15625 
L 15.28125 0 
z
" id="ArialMT-114"/>
      <path id="ArialMT-32"/>
      <path d="M 28.171875 0 
L 0.4375 71.578125 
L 10.6875 71.578125 
L 29.296875 19.578125 
Q 31.546875 13.328125 33.0625 7.859375 
Q 34.71875 13.71875 36.921875 19.578125 
L 56.25 71.578125 
L 65.921875 71.578125 
L 37.890625 0 
z
" id="ArialMT-86"/>
      <path d="M 40.4375 6.390625 
Q 35.546875 2.25 31.03125 0.53125 
Q 26.515625 -1.171875 21.34375 -1.171875 
Q 12.796875 -1.171875 8.203125 3 
Q 3.609375 7.171875 3.609375 13.671875 
Q 3.609375 17.484375 5.34375 20.625 
Q 7.078125 23.78125 9.890625 25.6875 
Q 12.703125 27.59375 16.21875 28.5625 
Q 18.796875 29.25 24.03125 29.890625 
Q 34.671875 31.15625 39.703125 32.90625 
Q 39.75 34.71875 39.75 35.203125 
Q 39.75 40.578125 37.25 42.78125 
Q 33.890625 45.75 27.25 45.75 
Q 21.046875 45.75 18.09375 43.578125 
Q 15.140625 41.40625 13.71875 35.890625 
L 5.125 37.0625 
Q 6.296875 42.578125 8.984375 45.96875 
Q 11.671875 49.359375 16.75 51.1875 
Q 21.828125 53.03125 28.515625 53.03125 
Q 35.15625 53.03125 39.296875 51.46875 
Q 43.453125 49.90625 45.40625 47.53125 
Q 47.359375 45.171875 48.140625 41.546875 
Q 48.578125 39.3125 48.578125 33.453125 
L 48.578125 21.734375 
Q 48.578125 9.46875 49.140625 6.21875 
Q 49.703125 2.984375 51.375 0 
L 42.1875 0 
Q 40.828125 2.734375 40.4375 6.390625 
z
M 39.703125 26.03125 
Q 34.90625 24.078125 25.34375 22.703125 
Q 19.921875 21.921875 17.671875 20.9375 
Q 15.4375 19.96875 14.203125 18.09375 
Q 12.984375 16.21875 12.984375 13.921875 
Q 12.984375 10.40625 15.640625 8.0625 
Q 18.3125 5.71875 23.4375 5.71875 
Q 28.515625 5.71875 32.46875 7.9375 
Q 36.421875 10.15625 38.28125 14.015625 
Q 39.703125 17 39.703125 22.796875 
z
" id="ArialMT-97"/>
      <path d="M 6.640625 61.46875 
L 6.640625 71.578125 
L 15.4375 71.578125 
L 15.4375 61.46875 
z
M 6.640625 0 
L 6.640625 51.859375 
L 15.4375 51.859375 
L 15.4375 0 
z
" id="ArialMT-105"/>
      <path d="M 3.328125 25.921875 
Q 3.328125 40.328125 11.328125 47.265625 
Q 18.015625 53.03125 27.640625 53.03125 
Q 38.328125 53.03125 45.109375 46.015625 
Q 51.90625 39.015625 51.90625 26.65625 
Q 51.90625 16.65625 48.90625 10.90625 
Q 45.90625 5.171875 40.15625 2 
Q 34.421875 -1.171875 27.640625 -1.171875 
Q 16.75 -1.171875 10.03125 5.8125 
Q 3.328125 12.796875 3.328125 25.921875 
z
M 12.359375 25.921875 
Q 12.359375 15.96875 16.703125 11.015625 
Q 21.046875 6.0625 27.640625 6.0625 
Q 34.1875 6.0625 38.53125 11.03125 
Q 42.875 16.015625 42.875 26.21875 
Q 42.875 35.84375 38.5 40.796875 
Q 34.125 45.75 27.640625 45.75 
Q 21.046875 45.75 16.703125 40.8125 
Q 12.359375 35.890625 12.359375 25.921875 
z
" id="ArialMT-111"/>
     </defs>
     <g style="fill:#262626;" transform="translate(17.936719 230.2125)rotate(-90)scale(0.15 -0.15)">
      <use xlink:href="#ArialMT-66"/>
      <use x="66.699219" xlink:href="#ArialMT-101"/>
      <use x="122.314453" xlink:href="#ArialMT-116"/>
      <use x="150.097656" xlink:href="#ArialMT-119"/>
      <use x="222.314453" xlink:href="#ArialMT-101"/>
      <use x="277.929688" xlink:href="#ArialMT-101"/>
      <use x="333.544922" xlink:href="#ArialMT-110"/>
      <use x="389.160156" xlink:href="#ArialMT-45"/>
      <use x="422.460938" xlink:href="#ArialMT-67"/>
      <use x="494.677734" xlink:href="#ArialMT-108"/>
      <use x="516.894531" xlink:href="#ArialMT-117"/>
      <use x="572.509766" xlink:href="#ArialMT-115"/>
      <use x="622.509766" xlink:href="#ArialMT-116"/>
      <use x="650.292969" xlink:href="#ArialMT-101"/>
      <use x="705.908203" xlink:href="#ArialMT-114"/>
      <use x="739.208984" xlink:href="#ArialMT-32"/>
      <use x="766.992188" xlink:href="#ArialMT-86"/>
      <use x="833.582031" xlink:href="#ArialMT-97"/>
      <use x="889.197266" xlink:href="#ArialMT-114"/>
      <use x="922.498047" xlink:href="#ArialMT-105"/>
      <use x="944.714844" xlink:href="#ArialMT-97"/>
      <use x="1000.330078" xlink:href="#ArialMT-116"/>
      <use x="1028.113281" xlink:href="#ArialMT-105"/>
      <use x="1050.330078" xlink:href="#ArialMT-111"/>
      <use x="1105.945312" xlink:href="#ArialMT-110"/>
     </g>
    </g>
   </g>
   <g id="line2d_9">
    <path clip-path="url(#pc915437d05)" d="M 77.965412 266.645455 
L 80.58022 264.90709 
L 83.195028 263.322332 
L 85.809836 262.249394 
L 88.424643 260.671093 
L 91.039451 259.371879 
L 93.654259 257.671823 
L 96.269067 256.56 
L 98.883875 255.041301 
L 101.498683 253.452681 
L 104.113491 252.20658 
L 106.728299 250.659009 
L 109.343106 249.618811 
L 111.957914 248.706895 
L 114.572722 247.848775 
L 117.18753 246.71446 
L 119.802338 243.911636 
L 122.417146 242.801336 
L 125.031954 241.922509 
L 127.646762 240.698747 
L 130.261569 239.94869 
L 132.876377 238.840243 
L 135.491185 237.901175 
L 138.105993 236.695431 
L 140.720801 235.513195 
L 143.335609 234.537681 
L 145.950417 233.501982 
L 148.565224 232.579679 
L 151.180032 231.597084 
L 153.79484 230.741265 
L 156.409648 229.992057 
L 159.024456 229.062598 
L 161.639264 228.25233 
L 164.254072 227.225169 
L 166.86888 226.381716 
L 169.483687 225.707296 
L 172.098495 225.1112 
L 174.713303 224.252496 
L 177.328111 223.556865 
L 179.942919 222.718096 
L 182.557727 222.120931 
L 185.172535 221.038038 
L 187.787343 220.320548 
L 190.40215 219.290783 
L 193.016958 218.596455 
L 195.631766 217.676821 
L 198.246574 215.994554 
L 200.861382 213.73108 
L 203.47619 212.984874 
L 206.090998 212.155918 
L 208.705806 211.529857 
L 211.320613 210.889642 
L 213.935421 210.238925 
L 216.550229 209.553774 
L 219.165037 208.792954 
L 221.779845 207.305262 
L 224.394653 206.634619 
L 227.009461 204.24961 
L 229.624269 203.62019 
L 232.239076 203.26614 
L 234.853884 202.342021 
L 237.468692 201.41713 
L 240.0835 200.515478 
L 242.698308 199.630109 
L 245.313116 198.983883 
L 247.927924 198.770446 
L 250.542732 198.2111 
L 253.157539 197.382476 
L 255.772347 196.584018 
L 258.387155 195.96158 
L 261.001963 194.873041 
L 263.616771 193.709672 
L 266.231579 192.278791 
L 268.846387 191.648614 
L 271.461194 191.103097 
L 274.076002 190.547845 
L 276.69081 189.873283 
L 279.305618 188.947775 
L 281.920426 188.672555 
L 284.535234 188.255382 
L 287.150042 185.876042 
L 289.76485 184.468485 
L 292.379657 183.731391 
L 294.994465 183.164235 
L 297.609273 182.518265 
L 300.224081 181.592679 
L 302.838889 180.918933 
L 305.453697 180.548032 
L 308.068505 179.8923 
L 310.683313 179.159851 
L 313.29812 178.732564 
L 315.912928 178.127019 
L 318.527736 177.85102 
L 321.142544 177.491675 
L 323.757352 176.818125 
L 326.37216 175.397564 
L 328.986968 174.230899 
L 331.601776 173.497985 
" style="fill:none;stroke:#1f77b4;stroke-linecap:round;stroke-width:1.5;"/>
    <defs>
     <path d="M 0 3 
C 0.795609 3 1.55874 2.683901 2.12132 2.12132 
C 2.683901 1.55874 3 0.795609 3 0 
C 3 -0.795609 2.683901 -1.55874 2.12132 -2.12132 
C 1.55874 -2.683901 0.795609 -3 0 -3 
C -0.795609 -3 -1.55874 -2.683901 -2.12132 -2.12132 
C -2.683901 -1.55874 -3 -0.795609 -3 0 
C -3 0.795609 -2.683901 1.55874 -2.12132 2.12132 
C -1.55874 2.683901 -0.795609 3 0 3 
z
" id="m1da9bb818f" style="stroke:#ffffff;stroke-width:0.75;"/>
    </defs>
    <g clip-path="url(#pc915437d05)">
     <use style="fill:#1f77b4;stroke:#ffffff;stroke-width:0.75;" x="77.965412" xlink:href="#m1da9bb818f" y="266.645455"/>
     <use style="fill:#1f77b4;stroke:#ffffff;stroke-width:0.75;" x="80.58022" xlink:href="#m1da9bb818f" y="264.90709"/>
     <use style="fill:#1f77b4;stroke:#ffffff;stroke-width:0.75;" x="83.195028" xlink:href="#m1da9bb818f" y="263.322332"/>
     <use style="fill:#1f77b4;stroke:#ffffff;stroke-width:0.75;" x="85.809836" xlink:href="#m1da9bb818f" y="262.249394"/>
     <use style="fill:#1f77b4;stroke:#ffffff;stroke-width:0.75;" x="88.424643" xlink:href="#m1da9bb818f" y="260.671093"/>
     <use style="fill:#1f77b4;stroke:#ffffff;stroke-width:0.75;" x="91.039451" xlink:href="#m1da9bb818f" y="259.371879"/>
     <use style="fill:#1f77b4;stroke:#ffffff;stroke-width:0.75;" x="93.654259" xlink:href="#m1da9bb818f" y="257.671823"/>
     <use style="fill:#1f77b4;stroke:#ffffff;stroke-width:0.75;" x="96.269067" xlink:href="#m1da9bb818f" y="256.56"/>
     <use style="fill:#1f77b4;stroke:#ffffff;stroke-width:0.75;" x="98.883875" xlink:href="#m1da9bb818f" y="255.041301"/>
     <use style="fill:#1f77b4;stroke:#ffffff;stroke-width:0.75;" x="101.498683" xlink:href="#m1da9bb818f" y="253.452681"/>
     <use style="fill:#1f77b4;stroke:#ffffff;stroke-width:0.75;" x="104.113491" xlink:href="#m1da9bb818f" y="252.20658"/>
     <use style="fill:#1f77b4;stroke:#ffffff;stroke-width:0.75;" x="106.728299" xlink:href="#m1da9bb818f" y="250.659009"/>
     <use style="fill:#1f77b4;stroke:#ffffff;stroke-width:0.75;" x="109.343106" xlink:href="#m1da9bb818f" y="249.618811"/>
     <use style="fill:#1f77b4;stroke:#ffffff;stroke-width:0.75;" x="111.957914" xlink:href="#m1da9bb818f" y="248.706895"/>
     <use style="fill:#1f77b4;stroke:#ffffff;stroke-width:0.75;" x="114.572722" xlink:href="#m1da9bb818f" y="247.848775"/>
     <use style="fill:#1f77b4;stroke:#ffffff;stroke-width:0.75;" x="117.18753" xlink:href="#m1da9bb818f" y="246.71446"/>
     <use style="fill:#1f77b4;stroke:#ffffff;stroke-width:0.75;" x="119.802338" xlink:href="#m1da9bb818f" y="243.911636"/>
     <use style="fill:#1f77b4;stroke:#ffffff;stroke-width:0.75;" x="122.417146" xlink:href="#m1da9bb818f" y="242.801336"/>
     <use style="fill:#1f77b4;stroke:#ffffff;stroke-width:0.75;" x="125.031954" xlink:href="#m1da9bb818f" y="241.922509"/>
     <use style="fill:#1f77b4;stroke:#ffffff;stroke-width:0.75;" x="127.646762" xlink:href="#m1da9bb818f" y="240.698747"/>
     <use style="fill:#1f77b4;stroke:#ffffff;stroke-width:0.75;" x="130.261569" xlink:href="#m1da9bb818f" y="239.94869"/>
     <use style="fill:#1f77b4;stroke:#ffffff;stroke-width:0.75;" x="132.876377" xlink:href="#m1da9bb818f" y="238.840243"/>
     <use style="fill:#1f77b4;stroke:#ffffff;stroke-width:0.75;" x="135.491185" xlink:href="#m1da9bb818f" y="237.901175"/>
     <use style="fill:#1f77b4;stroke:#ffffff;stroke-width:0.75;" x="138.105993" xlink:href="#m1da9bb818f" y="236.695431"/>
     <use style="fill:#1f77b4;stroke:#ffffff;stroke-width:0.75;" x="140.720801" xlink:href="#m1da9bb818f" y="235.513195"/>
     <use style="fill:#1f77b4;stroke:#ffffff;stroke-width:0.75;" x="143.335609" xlink:href="#m1da9bb818f" y="234.537681"/>
     <use style="fill:#1f77b4;stroke:#ffffff;stroke-width:0.75;" x="145.950417" xlink:href="#m1da9bb818f" y="233.501982"/>
     <use style="fill:#1f77b4;stroke:#ffffff;stroke-width:0.75;" x="148.565224" xlink:href="#m1da9bb818f" y="232.579679"/>
     <use style="fill:#1f77b4;stroke:#ffffff;stroke-width:0.75;" x="151.180032" xlink:href="#m1da9bb818f" y="231.597084"/>
     <use style="fill:#1f77b4;stroke:#ffffff;stroke-width:0.75;" x="153.79484" xlink:href="#m1da9bb818f" y="230.741265"/>
     <use style="fill:#1f77b4;stroke:#ffffff;stroke-width:0.75;" x="156.409648" xlink:href="#m1da9bb818f" y="229.992057"/>
     <use style="fill:#1f77b4;stroke:#ffffff;stroke-width:0.75;" x="159.024456" xlink:href="#m1da9bb818f" y="229.062598"/>
     <use style="fill:#1f77b4;stroke:#ffffff;stroke-width:0.75;" x="161.639264" xlink:href="#m1da9bb818f" y="228.25233"/>
     <use style="fill:#1f77b4;stroke:#ffffff;stroke-width:0.75;" x="164.254072" xlink:href="#m1da9bb818f" y="227.225169"/>
     <use style="fill:#1f77b4;stroke:#ffffff;stroke-width:0.75;" x="166.86888" xlink:href="#m1da9bb818f" y="226.381716"/>
     <use style="fill:#1f77b4;stroke:#ffffff;stroke-width:0.75;" x="169.483687" xlink:href="#m1da9bb818f" y="225.707296"/>
     <use style="fill:#1f77b4;stroke:#ffffff;stroke-width:0.75;" x="172.098495" xlink:href="#m1da9bb818f" y="225.1112"/>
     <use style="fill:#1f77b4;stroke:#ffffff;stroke-width:0.75;" x="174.713303" xlink:href="#m1da9bb818f" y="224.252496"/>
     <use style="fill:#1f77b4;stroke:#ffffff;stroke-width:0.75;" x="177.328111" xlink:href="#m1da9bb818f" y="223.556865"/>
     <use style="fill:#1f77b4;stroke:#ffffff;stroke-width:0.75;" x="179.942919" xlink:href="#m1da9bb818f" y="222.718096"/>
     <use style="fill:#1f77b4;stroke:#ffffff;stroke-width:0.75;" x="182.557727" xlink:href="#m1da9bb818f" y="222.120931"/>
     <use style="fill:#1f77b4;stroke:#ffffff;stroke-width:0.75;" x="185.172535" xlink:href="#m1da9bb818f" y="221.038038"/>
     <use style="fill:#1f77b4;stroke:#ffffff;stroke-width:0.75;" x="187.787343" xlink:href="#m1da9bb818f" y="220.320548"/>
     <use style="fill:#1f77b4;stroke:#ffffff;stroke-width:0.75;" x="190.40215" xlink:href="#m1da9bb818f" y="219.290783"/>
     <use style="fill:#1f77b4;stroke:#ffffff;stroke-width:0.75;" x="193.016958" xlink:href="#m1da9bb818f" y="218.596455"/>
     <use style="fill:#1f77b4;stroke:#ffffff;stroke-width:0.75;" x="195.631766" xlink:href="#m1da9bb818f" y="217.676821"/>
     <use style="fill:#1f77b4;stroke:#ffffff;stroke-width:0.75;" x="198.246574" xlink:href="#m1da9bb818f" y="215.994554"/>
     <use style="fill:#1f77b4;stroke:#ffffff;stroke-width:0.75;" x="200.861382" xlink:href="#m1da9bb818f" y="213.73108"/>
     <use style="fill:#1f77b4;stroke:#ffffff;stroke-width:0.75;" x="203.47619" xlink:href="#m1da9bb818f" y="212.984874"/>
     <use style="fill:#1f77b4;stroke:#ffffff;stroke-width:0.75;" x="206.090998" xlink:href="#m1da9bb818f" y="212.155918"/>
     <use style="fill:#1f77b4;stroke:#ffffff;stroke-width:0.75;" x="208.705806" xlink:href="#m1da9bb818f" y="211.529857"/>
     <use style="fill:#1f77b4;stroke:#ffffff;stroke-width:0.75;" x="211.320613" xlink:href="#m1da9bb818f" y="210.889642"/>
     <use style="fill:#1f77b4;stroke:#ffffff;stroke-width:0.75;" x="213.935421" xlink:href="#m1da9bb818f" y="210.238925"/>
     <use style="fill:#1f77b4;stroke:#ffffff;stroke-width:0.75;" x="216.550229" xlink:href="#m1da9bb818f" y="209.553774"/>
     <use style="fill:#1f77b4;stroke:#ffffff;stroke-width:0.75;" x="219.165037" xlink:href="#m1da9bb818f" y="208.792954"/>
     <use style="fill:#1f77b4;stroke:#ffffff;stroke-width:0.75;" x="221.779845" xlink:href="#m1da9bb818f" y="207.305262"/>
     <use style="fill:#1f77b4;stroke:#ffffff;stroke-width:0.75;" x="224.394653" xlink:href="#m1da9bb818f" y="206.634619"/>
     <use style="fill:#1f77b4;stroke:#ffffff;stroke-width:0.75;" x="227.009461" xlink:href="#m1da9bb818f" y="204.24961"/>
     <use style="fill:#1f77b4;stroke:#ffffff;stroke-width:0.75;" x="229.624269" xlink:href="#m1da9bb818f" y="203.62019"/>
     <use style="fill:#1f77b4;stroke:#ffffff;stroke-width:0.75;" x="232.239076" xlink:href="#m1da9bb818f" y="203.26614"/>
     <use style="fill:#1f77b4;stroke:#ffffff;stroke-width:0.75;" x="234.853884" xlink:href="#m1da9bb818f" y="202.342021"/>
     <use style="fill:#1f77b4;stroke:#ffffff;stroke-width:0.75;" x="237.468692" xlink:href="#m1da9bb818f" y="201.41713"/>
     <use style="fill:#1f77b4;stroke:#ffffff;stroke-width:0.75;" x="240.0835" xlink:href="#m1da9bb818f" y="200.515478"/>
     <use style="fill:#1f77b4;stroke:#ffffff;stroke-width:0.75;" x="242.698308" xlink:href="#m1da9bb818f" y="199.630109"/>
     <use style="fill:#1f77b4;stroke:#ffffff;stroke-width:0.75;" x="245.313116" xlink:href="#m1da9bb818f" y="198.983883"/>
     <use style="fill:#1f77b4;stroke:#ffffff;stroke-width:0.75;" x="247.927924" xlink:href="#m1da9bb818f" y="198.770446"/>
     <use style="fill:#1f77b4;stroke:#ffffff;stroke-width:0.75;" x="250.542732" xlink:href="#m1da9bb818f" y="198.2111"/>
     <use style="fill:#1f77b4;stroke:#ffffff;stroke-width:0.75;" x="253.157539" xlink:href="#m1da9bb818f" y="197.382476"/>
     <use style="fill:#1f77b4;stroke:#ffffff;stroke-width:0.75;" x="255.772347" xlink:href="#m1da9bb818f" y="196.584018"/>
     <use style="fill:#1f77b4;stroke:#ffffff;stroke-width:0.75;" x="258.387155" xlink:href="#m1da9bb818f" y="195.96158"/>
     <use style="fill:#1f77b4;stroke:#ffffff;stroke-width:0.75;" x="261.001963" xlink:href="#m1da9bb818f" y="194.873041"/>
     <use style="fill:#1f77b4;stroke:#ffffff;stroke-width:0.75;" x="263.616771" xlink:href="#m1da9bb818f" y="193.709672"/>
     <use style="fill:#1f77b4;stroke:#ffffff;stroke-width:0.75;" x="266.231579" xlink:href="#m1da9bb818f" y="192.278791"/>
     <use style="fill:#1f77b4;stroke:#ffffff;stroke-width:0.75;" x="268.846387" xlink:href="#m1da9bb818f" y="191.648614"/>
     <use style="fill:#1f77b4;stroke:#ffffff;stroke-width:0.75;" x="271.461194" xlink:href="#m1da9bb818f" y="191.103097"/>
     <use style="fill:#1f77b4;stroke:#ffffff;stroke-width:0.75;" x="274.076002" xlink:href="#m1da9bb818f" y="190.547845"/>
     <use style="fill:#1f77b4;stroke:#ffffff;stroke-width:0.75;" x="276.69081" xlink:href="#m1da9bb818f" y="189.873283"/>
     <use style="fill:#1f77b4;stroke:#ffffff;stroke-width:0.75;" x="279.305618" xlink:href="#m1da9bb818f" y="188.947775"/>
     <use style="fill:#1f77b4;stroke:#ffffff;stroke-width:0.75;" x="281.920426" xlink:href="#m1da9bb818f" y="188.672555"/>
     <use style="fill:#1f77b4;stroke:#ffffff;stroke-width:0.75;" x="284.535234" xlink:href="#m1da9bb818f" y="188.255382"/>
     <use style="fill:#1f77b4;stroke:#ffffff;stroke-width:0.75;" x="287.150042" xlink:href="#m1da9bb818f" y="185.876042"/>
     <use style="fill:#1f77b4;stroke:#ffffff;stroke-width:0.75;" x="289.76485" xlink:href="#m1da9bb818f" y="184.468485"/>
     <use style="fill:#1f77b4;stroke:#ffffff;stroke-width:0.75;" x="292.379657" xlink:href="#m1da9bb818f" y="183.731391"/>
     <use style="fill:#1f77b4;stroke:#ffffff;stroke-width:0.75;" x="294.994465" xlink:href="#m1da9bb818f" y="183.164235"/>
     <use style="fill:#1f77b4;stroke:#ffffff;stroke-width:0.75;" x="297.609273" xlink:href="#m1da9bb818f" y="182.518265"/>
     <use style="fill:#1f77b4;stroke:#ffffff;stroke-width:0.75;" x="300.224081" xlink:href="#m1da9bb818f" y="181.592679"/>
     <use style="fill:#1f77b4;stroke:#ffffff;stroke-width:0.75;" x="302.838889" xlink:href="#m1da9bb818f" y="180.918933"/>
     <use style="fill:#1f77b4;stroke:#ffffff;stroke-width:0.75;" x="305.453697" xlink:href="#m1da9bb818f" y="180.548032"/>
     <use style="fill:#1f77b4;stroke:#ffffff;stroke-width:0.75;" x="308.068505" xlink:href="#m1da9bb818f" y="179.8923"/>
     <use style="fill:#1f77b4;stroke:#ffffff;stroke-width:0.75;" x="310.683313" xlink:href="#m1da9bb818f" y="179.159851"/>
     <use style="fill:#1f77b4;stroke:#ffffff;stroke-width:0.75;" x="313.29812" xlink:href="#m1da9bb818f" y="178.732564"/>
     <use style="fill:#1f77b4;stroke:#ffffff;stroke-width:0.75;" x="315.912928" xlink:href="#m1da9bb818f" y="178.127019"/>
     <use style="fill:#1f77b4;stroke:#ffffff;stroke-width:0.75;" x="318.527736" xlink:href="#m1da9bb818f" y="177.85102"/>
     <use style="fill:#1f77b4;stroke:#ffffff;stroke-width:0.75;" x="321.142544" xlink:href="#m1da9bb818f" y="177.491675"/>
     <use style="fill:#1f77b4;stroke:#ffffff;stroke-width:0.75;" x="323.757352" xlink:href="#m1da9bb818f" y="176.818125"/>
     <use style="fill:#1f77b4;stroke:#ffffff;stroke-width:0.75;" x="326.37216" xlink:href="#m1da9bb818f" y="175.397564"/>
     <use style="fill:#1f77b4;stroke:#ffffff;stroke-width:0.75;" x="328.986968" xlink:href="#m1da9bb818f" y="174.230899"/>
     <use style="fill:#1f77b4;stroke:#ffffff;stroke-width:0.75;" x="331.601776" xlink:href="#m1da9bb818f" y="173.497985"/>
    </g>
   </g>
   <g id="line2d_10">
    <path clip-path="url(#pc915437d05)" d="M 77.965412 263.625025 
L 80.58022 259.060044 
L 83.195028 229.631703 
L 85.809836 219.406218 
L 88.424643 205.757563 
L 91.039451 203.153735 
L 93.654259 188.17206 
L 96.269067 185.846996 
L 98.883875 179.980453 
L 101.498683 178.532264 
L 104.113491 172.386917 
L 106.728299 162.388554 
L 109.343106 160.813978 
L 111.957914 159.567846 
L 114.572722 148.717759 
L 117.18753 146.521731 
L 119.802338 143.748096 
L 122.417146 142.176432 
L 125.031954 140.347852 
L 127.646762 130.945762 
L 130.261569 129.199314 
L 132.876377 127.795884 
L 135.491185 125.103672 
L 138.105993 121.103779 
L 140.720801 119.335165 
L 143.335609 117.54239 
L 145.950417 116.224968 
L 148.565224 113.169415 
L 151.180032 112.240956 
L 153.79484 111.317268 
L 156.409648 108.429864 
L 159.024456 105.739821 
L 161.639264 103.836168 
L 164.254072 101.545669 
L 166.86888 100.823655 
L 169.483687 94.538735 
L 172.098495 93.16199 
L 174.713303 92.402556 
L 177.328111 91.617635 
L 179.942919 90.286209 
L 182.557727 89.263569 
L 185.172535 88.237711 
L 187.787343 87.401793 
L 190.40215 85.074225 
L 193.016958 84.382629 
L 195.631766 83.703248 
L 198.246574 82.828114 
L 200.861382 81.990392 
L 203.47619 81.221404 
L 206.090998 80.686744 
L 208.705806 79.33228 
L 211.320613 77.089331 
L 213.935421 75.017188 
L 216.550229 74.012097 
L 219.165037 71.646573 
L 221.779845 70.68467 
L 224.394653 69.908506 
L 227.009461 69.175895 
L 229.624269 64.513331 
L 232.239076 63.591464 
L 234.853884 62.891561 
L 237.468692 62.333653 
L 240.0835 59.439218 
L 242.698308 58.310794 
L 245.313116 55.649478 
L 247.927924 54.523945 
L 250.542732 53.156358 
L 253.157539 52.14867 
L 255.772347 50.31409 
L 258.387155 49.75081 
L 261.001963 48.380942 
L 263.616771 47.604233 
L 266.231579 45.590503 
L 268.846387 45.088158 
L 271.461194 44.333699 
L 274.076002 43.154541 
L 276.69081 42.367765 
L 279.305618 41.522954 
L 281.920426 40.311955 
L 284.535234 39.790234 
L 287.150042 38.841009 
L 289.76485 37.983834 
L 292.379657 37.365144 
L 294.994465 35.102916 
L 297.609273 32.967146 
L 300.224081 31.026902 
L 302.838889 30.225704 
L 305.453697 29.672165 
L 308.068505 28.709737 
L 310.683313 26.172628 
L 313.29812 25.500293 
L 315.912928 24.534417 
L 318.527736 23.616885 
L 321.142544 22.975977 
L 323.757352 21.831072 
L 326.37216 21.220037 
L 328.986968 20.616924 
L 331.601776 19.554545 
" style="fill:none;stroke:#ff7f0e;stroke-linecap:round;stroke-width:1.5;"/>
    <defs>
     <path d="M 0 3 
C 0.795609 3 1.55874 2.683901 2.12132 2.12132 
C 2.683901 1.55874 3 0.795609 3 0 
C 3 -0.795609 2.683901 -1.55874 2.12132 -2.12132 
C 1.55874 -2.683901 0.795609 -3 0 -3 
C -0.795609 -3 -1.55874 -2.683901 -2.12132 -2.12132 
C -2.683901 -1.55874 -3 -0.795609 -3 0 
C -3 0.795609 -2.683901 1.55874 -2.12132 2.12132 
C -1.55874 2.683901 -0.795609 3 0 3 
z
" id="m65e46ab2ea" style="stroke:#ffffff;stroke-width:0.75;"/>
    </defs>
    <g clip-path="url(#pc915437d05)">
     <use style="fill:#ff7f0e;stroke:#ffffff;stroke-width:0.75;" x="77.965412" xlink:href="#m65e46ab2ea" y="263.625025"/>
     <use style="fill:#ff7f0e;stroke:#ffffff;stroke-width:0.75;" x="80.58022" xlink:href="#m65e46ab2ea" y="259.060044"/>
     <use style="fill:#ff7f0e;stroke:#ffffff;stroke-width:0.75;" x="83.195028" xlink:href="#m65e46ab2ea" y="229.631703"/>
     <use style="fill:#ff7f0e;stroke:#ffffff;stroke-width:0.75;" x="85.809836" xlink:href="#m65e46ab2ea" y="219.406218"/>
     <use style="fill:#ff7f0e;stroke:#ffffff;stroke-width:0.75;" x="88.424643" xlink:href="#m65e46ab2ea" y="205.757563"/>
     <use style="fill:#ff7f0e;stroke:#ffffff;stroke-width:0.75;" x="91.039451" xlink:href="#m65e46ab2ea" y="203.153735"/>
     <use style="fill:#ff7f0e;stroke:#ffffff;stroke-width:0.75;" x="93.654259" xlink:href="#m65e46ab2ea" y="188.17206"/>
     <use style="fill:#ff7f0e;stroke:#ffffff;stroke-width:0.75;" x="96.269067" xlink:href="#m65e46ab2ea" y="185.846996"/>
     <use style="fill:#ff7f0e;stroke:#ffffff;stroke-width:0.75;" x="98.883875" xlink:href="#m65e46ab2ea" y="179.980453"/>
     <use style="fill:#ff7f0e;stroke:#ffffff;stroke-width:0.75;" x="101.498683" xlink:href="#m65e46ab2ea" y="178.532264"/>
     <use style="fill:#ff7f0e;stroke:#ffffff;stroke-width:0.75;" x="104.113491" xlink:href="#m65e46ab2ea" y="172.386917"/>
     <use style="fill:#ff7f0e;stroke:#ffffff;stroke-width:0.75;" x="106.728299" xlink:href="#m65e46ab2ea" y="162.388554"/>
     <use style="fill:#ff7f0e;stroke:#ffffff;stroke-width:0.75;" x="109.343106" xlink:href="#m65e46ab2ea" y="160.813978"/>
     <use style="fill:#ff7f0e;stroke:#ffffff;stroke-width:0.75;" x="111.957914" xlink:href="#m65e46ab2ea" y="159.567846"/>
     <use style="fill:#ff7f0e;stroke:#ffffff;stroke-width:0.75;" x="114.572722" xlink:href="#m65e46ab2ea" y="148.717759"/>
     <use style="fill:#ff7f0e;stroke:#ffffff;stroke-width:0.75;" x="117.18753" xlink:href="#m65e46ab2ea" y="146.521731"/>
     <use style="fill:#ff7f0e;stroke:#ffffff;stroke-width:0.75;" x="119.802338" xlink:href="#m65e46ab2ea" y="143.748096"/>
     <use style="fill:#ff7f0e;stroke:#ffffff;stroke-width:0.75;" x="122.417146" xlink:href="#m65e46ab2ea" y="142.176432"/>
     <use style="fill:#ff7f0e;stroke:#ffffff;stroke-width:0.75;" x="125.031954" xlink:href="#m65e46ab2ea" y="140.347852"/>
     <use style="fill:#ff7f0e;stroke:#ffffff;stroke-width:0.75;" x="127.646762" xlink:href="#m65e46ab2ea" y="130.945762"/>
     <use style="fill:#ff7f0e;stroke:#ffffff;stroke-width:0.75;" x="130.261569" xlink:href="#m65e46ab2ea" y="129.199314"/>
     <use style="fill:#ff7f0e;stroke:#ffffff;stroke-width:0.75;" x="132.876377" xlink:href="#m65e46ab2ea" y="127.795884"/>
     <use style="fill:#ff7f0e;stroke:#ffffff;stroke-width:0.75;" x="135.491185" xlink:href="#m65e46ab2ea" y="125.103672"/>
     <use style="fill:#ff7f0e;stroke:#ffffff;stroke-width:0.75;" x="138.105993" xlink:href="#m65e46ab2ea" y="121.103779"/>
     <use style="fill:#ff7f0e;stroke:#ffffff;stroke-width:0.75;" x="140.720801" xlink:href="#m65e46ab2ea" y="119.335165"/>
     <use style="fill:#ff7f0e;stroke:#ffffff;stroke-width:0.75;" x="143.335609" xlink:href="#m65e46ab2ea" y="117.54239"/>
     <use style="fill:#ff7f0e;stroke:#ffffff;stroke-width:0.75;" x="145.950417" xlink:href="#m65e46ab2ea" y="116.224968"/>
     <use style="fill:#ff7f0e;stroke:#ffffff;stroke-width:0.75;" x="148.565224" xlink:href="#m65e46ab2ea" y="113.169415"/>
     <use style="fill:#ff7f0e;stroke:#ffffff;stroke-width:0.75;" x="151.180032" xlink:href="#m65e46ab2ea" y="112.240956"/>
     <use style="fill:#ff7f0e;stroke:#ffffff;stroke-width:0.75;" x="153.79484" xlink:href="#m65e46ab2ea" y="111.317268"/>
     <use style="fill:#ff7f0e;stroke:#ffffff;stroke-width:0.75;" x="156.409648" xlink:href="#m65e46ab2ea" y="108.429864"/>
     <use style="fill:#ff7f0e;stroke:#ffffff;stroke-width:0.75;" x="159.024456" xlink:href="#m65e46ab2ea" y="105.739821"/>
     <use style="fill:#ff7f0e;stroke:#ffffff;stroke-width:0.75;" x="161.639264" xlink:href="#m65e46ab2ea" y="103.836168"/>
     <use style="fill:#ff7f0e;stroke:#ffffff;stroke-width:0.75;" x="164.254072" xlink:href="#m65e46ab2ea" y="101.545669"/>
     <use style="fill:#ff7f0e;stroke:#ffffff;stroke-width:0.75;" x="166.86888" xlink:href="#m65e46ab2ea" y="100.823655"/>
     <use style="fill:#ff7f0e;stroke:#ffffff;stroke-width:0.75;" x="169.483687" xlink:href="#m65e46ab2ea" y="94.538735"/>
     <use style="fill:#ff7f0e;stroke:#ffffff;stroke-width:0.75;" x="172.098495" xlink:href="#m65e46ab2ea" y="93.16199"/>
     <use style="fill:#ff7f0e;stroke:#ffffff;stroke-width:0.75;" x="174.713303" xlink:href="#m65e46ab2ea" y="92.402556"/>
     <use style="fill:#ff7f0e;stroke:#ffffff;stroke-width:0.75;" x="177.328111" xlink:href="#m65e46ab2ea" y="91.617635"/>
     <use style="fill:#ff7f0e;stroke:#ffffff;stroke-width:0.75;" x="179.942919" xlink:href="#m65e46ab2ea" y="90.286209"/>
     <use style="fill:#ff7f0e;stroke:#ffffff;stroke-width:0.75;" x="182.557727" xlink:href="#m65e46ab2ea" y="89.263569"/>
     <use style="fill:#ff7f0e;stroke:#ffffff;stroke-width:0.75;" x="185.172535" xlink:href="#m65e46ab2ea" y="88.237711"/>
     <use style="fill:#ff7f0e;stroke:#ffffff;stroke-width:0.75;" x="187.787343" xlink:href="#m65e46ab2ea" y="87.401793"/>
     <use style="fill:#ff7f0e;stroke:#ffffff;stroke-width:0.75;" x="190.40215" xlink:href="#m65e46ab2ea" y="85.074225"/>
     <use style="fill:#ff7f0e;stroke:#ffffff;stroke-width:0.75;" x="193.016958" xlink:href="#m65e46ab2ea" y="84.382629"/>
     <use style="fill:#ff7f0e;stroke:#ffffff;stroke-width:0.75;" x="195.631766" xlink:href="#m65e46ab2ea" y="83.703248"/>
     <use style="fill:#ff7f0e;stroke:#ffffff;stroke-width:0.75;" x="198.246574" xlink:href="#m65e46ab2ea" y="82.828114"/>
     <use style="fill:#ff7f0e;stroke:#ffffff;stroke-width:0.75;" x="200.861382" xlink:href="#m65e46ab2ea" y="81.990392"/>
     <use style="fill:#ff7f0e;stroke:#ffffff;stroke-width:0.75;" x="203.47619" xlink:href="#m65e46ab2ea" y="81.221404"/>
     <use style="fill:#ff7f0e;stroke:#ffffff;stroke-width:0.75;" x="206.090998" xlink:href="#m65e46ab2ea" y="80.686744"/>
     <use style="fill:#ff7f0e;stroke:#ffffff;stroke-width:0.75;" x="208.705806" xlink:href="#m65e46ab2ea" y="79.33228"/>
     <use style="fill:#ff7f0e;stroke:#ffffff;stroke-width:0.75;" x="211.320613" xlink:href="#m65e46ab2ea" y="77.089331"/>
     <use style="fill:#ff7f0e;stroke:#ffffff;stroke-width:0.75;" x="213.935421" xlink:href="#m65e46ab2ea" y="75.017188"/>
     <use style="fill:#ff7f0e;stroke:#ffffff;stroke-width:0.75;" x="216.550229" xlink:href="#m65e46ab2ea" y="74.012097"/>
     <use style="fill:#ff7f0e;stroke:#ffffff;stroke-width:0.75;" x="219.165037" xlink:href="#m65e46ab2ea" y="71.646573"/>
     <use style="fill:#ff7f0e;stroke:#ffffff;stroke-width:0.75;" x="221.779845" xlink:href="#m65e46ab2ea" y="70.68467"/>
     <use style="fill:#ff7f0e;stroke:#ffffff;stroke-width:0.75;" x="224.394653" xlink:href="#m65e46ab2ea" y="69.908506"/>
     <use style="fill:#ff7f0e;stroke:#ffffff;stroke-width:0.75;" x="227.009461" xlink:href="#m65e46ab2ea" y="69.175895"/>
     <use style="fill:#ff7f0e;stroke:#ffffff;stroke-width:0.75;" x="229.624269" xlink:href="#m65e46ab2ea" y="64.513331"/>
     <use style="fill:#ff7f0e;stroke:#ffffff;stroke-width:0.75;" x="232.239076" xlink:href="#m65e46ab2ea" y="63.591464"/>
     <use style="fill:#ff7f0e;stroke:#ffffff;stroke-width:0.75;" x="234.853884" xlink:href="#m65e46ab2ea" y="62.891561"/>
     <use style="fill:#ff7f0e;stroke:#ffffff;stroke-width:0.75;" x="237.468692" xlink:href="#m65e46ab2ea" y="62.333653"/>
     <use style="fill:#ff7f0e;stroke:#ffffff;stroke-width:0.75;" x="240.0835" xlink:href="#m65e46ab2ea" y="59.439218"/>
     <use style="fill:#ff7f0e;stroke:#ffffff;stroke-width:0.75;" x="242.698308" xlink:href="#m65e46ab2ea" y="58.310794"/>
     <use style="fill:#ff7f0e;stroke:#ffffff;stroke-width:0.75;" x="245.313116" xlink:href="#m65e46ab2ea" y="55.649478"/>
     <use style="fill:#ff7f0e;stroke:#ffffff;stroke-width:0.75;" x="247.927924" xlink:href="#m65e46ab2ea" y="54.523945"/>
     <use style="fill:#ff7f0e;stroke:#ffffff;stroke-width:0.75;" x="250.542732" xlink:href="#m65e46ab2ea" y="53.156358"/>
     <use style="fill:#ff7f0e;stroke:#ffffff;stroke-width:0.75;" x="253.157539" xlink:href="#m65e46ab2ea" y="52.14867"/>
     <use style="fill:#ff7f0e;stroke:#ffffff;stroke-width:0.75;" x="255.772347" xlink:href="#m65e46ab2ea" y="50.31409"/>
     <use style="fill:#ff7f0e;stroke:#ffffff;stroke-width:0.75;" x="258.387155" xlink:href="#m65e46ab2ea" y="49.75081"/>
     <use style="fill:#ff7f0e;stroke:#ffffff;stroke-width:0.75;" x="261.001963" xlink:href="#m65e46ab2ea" y="48.380942"/>
     <use style="fill:#ff7f0e;stroke:#ffffff;stroke-width:0.75;" x="263.616771" xlink:href="#m65e46ab2ea" y="47.604233"/>
     <use style="fill:#ff7f0e;stroke:#ffffff;stroke-width:0.75;" x="266.231579" xlink:href="#m65e46ab2ea" y="45.590503"/>
     <use style="fill:#ff7f0e;stroke:#ffffff;stroke-width:0.75;" x="268.846387" xlink:href="#m65e46ab2ea" y="45.088158"/>
     <use style="fill:#ff7f0e;stroke:#ffffff;stroke-width:0.75;" x="271.461194" xlink:href="#m65e46ab2ea" y="44.333699"/>
     <use style="fill:#ff7f0e;stroke:#ffffff;stroke-width:0.75;" x="274.076002" xlink:href="#m65e46ab2ea" y="43.154541"/>
     <use style="fill:#ff7f0e;stroke:#ffffff;stroke-width:0.75;" x="276.69081" xlink:href="#m65e46ab2ea" y="42.367765"/>
     <use style="fill:#ff7f0e;stroke:#ffffff;stroke-width:0.75;" x="279.305618" xlink:href="#m65e46ab2ea" y="41.522954"/>
     <use style="fill:#ff7f0e;stroke:#ffffff;stroke-width:0.75;" x="281.920426" xlink:href="#m65e46ab2ea" y="40.311955"/>
     <use style="fill:#ff7f0e;stroke:#ffffff;stroke-width:0.75;" x="284.535234" xlink:href="#m65e46ab2ea" y="39.790234"/>
     <use style="fill:#ff7f0e;stroke:#ffffff;stroke-width:0.75;" x="287.150042" xlink:href="#m65e46ab2ea" y="38.841009"/>
     <use style="fill:#ff7f0e;stroke:#ffffff;stroke-width:0.75;" x="289.76485" xlink:href="#m65e46ab2ea" y="37.983834"/>
     <use style="fill:#ff7f0e;stroke:#ffffff;stroke-width:0.75;" x="292.379657" xlink:href="#m65e46ab2ea" y="37.365144"/>
     <use style="fill:#ff7f0e;stroke:#ffffff;stroke-width:0.75;" x="294.994465" xlink:href="#m65e46ab2ea" y="35.102916"/>
     <use style="fill:#ff7f0e;stroke:#ffffff;stroke-width:0.75;" x="297.609273" xlink:href="#m65e46ab2ea" y="32.967146"/>
     <use style="fill:#ff7f0e;stroke:#ffffff;stroke-width:0.75;" x="300.224081" xlink:href="#m65e46ab2ea" y="31.026902"/>
     <use style="fill:#ff7f0e;stroke:#ffffff;stroke-width:0.75;" x="302.838889" xlink:href="#m65e46ab2ea" y="30.225704"/>
     <use style="fill:#ff7f0e;stroke:#ffffff;stroke-width:0.75;" x="305.453697" xlink:href="#m65e46ab2ea" y="29.672165"/>
     <use style="fill:#ff7f0e;stroke:#ffffff;stroke-width:0.75;" x="308.068505" xlink:href="#m65e46ab2ea" y="28.709737"/>
     <use style="fill:#ff7f0e;stroke:#ffffff;stroke-width:0.75;" x="310.683313" xlink:href="#m65e46ab2ea" y="26.172628"/>
     <use style="fill:#ff7f0e;stroke:#ffffff;stroke-width:0.75;" x="313.29812" xlink:href="#m65e46ab2ea" y="25.500293"/>
     <use style="fill:#ff7f0e;stroke:#ffffff;stroke-width:0.75;" x="315.912928" xlink:href="#m65e46ab2ea" y="24.534417"/>
     <use style="fill:#ff7f0e;stroke:#ffffff;stroke-width:0.75;" x="318.527736" xlink:href="#m65e46ab2ea" y="23.616885"/>
     <use style="fill:#ff7f0e;stroke:#ffffff;stroke-width:0.75;" x="321.142544" xlink:href="#m65e46ab2ea" y="22.975977"/>
     <use style="fill:#ff7f0e;stroke:#ffffff;stroke-width:0.75;" x="323.757352" xlink:href="#m65e46ab2ea" y="21.831072"/>
     <use style="fill:#ff7f0e;stroke:#ffffff;stroke-width:0.75;" x="326.37216" xlink:href="#m65e46ab2ea" y="21.220037"/>
     <use style="fill:#ff7f0e;stroke:#ffffff;stroke-width:0.75;" x="328.986968" xlink:href="#m65e46ab2ea" y="20.616924"/>
     <use style="fill:#ff7f0e;stroke:#ffffff;stroke-width:0.75;" x="331.601776" xlink:href="#m65e46ab2ea" y="19.554545"/>
    </g>
   </g>
   <g id="line2d_11">
    <path clip-path="url(#pc915437d05)" d="M 77.965412 252.890525 
L 80.58022 249.635988 
L 83.195028 246.234341 
L 85.809836 243.501998 
L 88.424643 241.91993 
L 91.039451 237.995441 
L 93.654259 236.746389 
L 96.269067 234.565008 
L 98.883875 231.13472 
L 101.498683 229.75333 
L 104.113491 227.632201 
L 106.728299 223.550945 
L 109.343106 222.709537 
L 111.957914 221.743573 
L 114.572722 220.686088 
L 117.18753 219.075968 
L 119.802338 218.191979 
L 122.417146 217.363829 
L 125.031954 216.52791 
L 127.646762 215.65889 
L 130.261569 202.723294 
L 132.876377 201.824097 
L 135.491185 194.555511 
L 138.105993 193.303928 
L 140.720801 192.436496 
L 143.335609 179.518883 
L 145.950417 178.899225 
L 148.565224 178.015466 
L 151.180032 169.416378 
L 153.79484 153.501348 
L 156.409648 147.022272 
L 159.024456 146.053221 
L 161.639264 145.353318 
L 164.254072 144.024437 
L 166.86888 143.447852 
L 169.483687 142.345956 
L 172.098495 141.256381 
L 174.713303 137.875012 
L 177.328111 128.564794 
L 179.942919 128.053926 
L 182.557727 127.279759 
L 185.172535 126.801846 
L 187.787343 126.108386 
L 190.40215 124.912451 
L 193.016958 118.576916 
L 195.631766 115.285923 
L 198.246574 113.471425 
L 200.861382 112.291988 
L 203.47619 111.681437 
L 206.090998 111.270262 
L 208.705806 109.999611 
L 211.320613 109.174009 
L 213.935421 108.744362 
L 216.550229 107.173341 
L 219.165037 106.620173 
L 221.779845 106.086138 
L 224.394653 105.663921 
L 227.009461 105.18957 
L 229.624269 104.164357 
L 232.239076 102.992997 
L 234.853884 86.813675 
L 237.468692 85.209163 
L 240.0835 84.725753 
L 242.698308 81.534558 
L 245.313116 80.881964 
L 247.927924 79.295183 
L 250.542732 78.23718 
L 253.157539 77.632917 
L 255.772347 75.711907 
L 258.387155 75.260294 
L 261.001963 74.32031 
L 263.616771 72.75798 
L 266.231579 71.584805 
L 268.846387 71.077279 
L 271.461194 70.478714 
L 274.076002 69.837604 
L 276.69081 62.682083 
L 279.305618 62.178386 
L 281.920426 58.577518 
L 284.535234 58.141029 
L 287.150042 57.751588 
L 289.76485 56.741617 
L 292.379657 55.067634 
L 294.994465 54.662082 
L 297.609273 54.096397 
L 300.224081 52.724556 
L 302.838889 51.619909 
L 305.453697 47.334567 
L 308.068505 46.937508 
L 310.683313 40.903741 
L 313.29812 40.604491 
L 315.912928 39.828909 
L 318.527736 38.90356 
L 321.142544 38.406372 
L 323.757352 38.058259 
L 326.37216 37.508737 
L 328.986968 36.983448 
L 331.601776 36.186709 
" style="fill:none;stroke:#2ca02c;stroke-linecap:round;stroke-width:1.5;"/>
    <defs>
     <path d="M 0 3 
C 0.795609 3 1.55874 2.683901 2.12132 2.12132 
C 2.683901 1.55874 3 0.795609 3 0 
C 3 -0.795609 2.683901 -1.55874 2.12132 -2.12132 
C 1.55874 -2.683901 0.795609 -3 0 -3 
C -0.795609 -3 -1.55874 -2.683901 -2.12132 -2.12132 
C -2.683901 -1.55874 -3 -0.795609 -3 0 
C -3 0.795609 -2.683901 1.55874 -2.12132 2.12132 
C -1.55874 2.683901 -0.795609 3 0 3 
z
" id="m2e27b24dbf" style="stroke:#ffffff;stroke-width:0.75;"/>
    </defs>
    <g clip-path="url(#pc915437d05)">
     <use style="fill:#2ca02c;stroke:#ffffff;stroke-width:0.75;" x="77.965412" xlink:href="#m2e27b24dbf" y="252.890525"/>
     <use style="fill:#2ca02c;stroke:#ffffff;stroke-width:0.75;" x="80.58022" xlink:href="#m2e27b24dbf" y="249.635988"/>
     <use style="fill:#2ca02c;stroke:#ffffff;stroke-width:0.75;" x="83.195028" xlink:href="#m2e27b24dbf" y="246.234341"/>
     <use style="fill:#2ca02c;stroke:#ffffff;stroke-width:0.75;" x="85.809836" xlink:href="#m2e27b24dbf" y="243.501998"/>
     <use style="fill:#2ca02c;stroke:#ffffff;stroke-width:0.75;" x="88.424643" xlink:href="#m2e27b24dbf" y="241.91993"/>
     <use style="fill:#2ca02c;stroke:#ffffff;stroke-width:0.75;" x="91.039451" xlink:href="#m2e27b24dbf" y="237.995441"/>
     <use style="fill:#2ca02c;stroke:#ffffff;stroke-width:0.75;" x="93.654259" xlink:href="#m2e27b24dbf" y="236.746389"/>
     <use style="fill:#2ca02c;stroke:#ffffff;stroke-width:0.75;" x="96.269067" xlink:href="#m2e27b24dbf" y="234.565008"/>
     <use style="fill:#2ca02c;stroke:#ffffff;stroke-width:0.75;" x="98.883875" xlink:href="#m2e27b24dbf" y="231.13472"/>
     <use style="fill:#2ca02c;stroke:#ffffff;stroke-width:0.75;" x="101.498683" xlink:href="#m2e27b24dbf" y="229.75333"/>
     <use style="fill:#2ca02c;stroke:#ffffff;stroke-width:0.75;" x="104.113491" xlink:href="#m2e27b24dbf" y="227.632201"/>
     <use style="fill:#2ca02c;stroke:#ffffff;stroke-width:0.75;" x="106.728299" xlink:href="#m2e27b24dbf" y="223.550945"/>
     <use style="fill:#2ca02c;stroke:#ffffff;stroke-width:0.75;" x="109.343106" xlink:href="#m2e27b24dbf" y="222.709537"/>
     <use style="fill:#2ca02c;stroke:#ffffff;stroke-width:0.75;" x="111.957914" xlink:href="#m2e27b24dbf" y="221.743573"/>
     <use style="fill:#2ca02c;stroke:#ffffff;stroke-width:0.75;" x="114.572722" xlink:href="#m2e27b24dbf" y="220.686088"/>
     <use style="fill:#2ca02c;stroke:#ffffff;stroke-width:0.75;" x="117.18753" xlink:href="#m2e27b24dbf" y="219.075968"/>
     <use style="fill:#2ca02c;stroke:#ffffff;stroke-width:0.75;" x="119.802338" xlink:href="#m2e27b24dbf" y="218.191979"/>
     <use style="fill:#2ca02c;stroke:#ffffff;stroke-width:0.75;" x="122.417146" xlink:href="#m2e27b24dbf" y="217.363829"/>
     <use style="fill:#2ca02c;stroke:#ffffff;stroke-width:0.75;" x="125.031954" xlink:href="#m2e27b24dbf" y="216.52791"/>
     <use style="fill:#2ca02c;stroke:#ffffff;stroke-width:0.75;" x="127.646762" xlink:href="#m2e27b24dbf" y="215.65889"/>
     <use style="fill:#2ca02c;stroke:#ffffff;stroke-width:0.75;" x="130.261569" xlink:href="#m2e27b24dbf" y="202.723294"/>
     <use style="fill:#2ca02c;stroke:#ffffff;stroke-width:0.75;" x="132.876377" xlink:href="#m2e27b24dbf" y="201.824097"/>
     <use style="fill:#2ca02c;stroke:#ffffff;stroke-width:0.75;" x="135.491185" xlink:href="#m2e27b24dbf" y="194.555511"/>
     <use style="fill:#2ca02c;stroke:#ffffff;stroke-width:0.75;" x="138.105993" xlink:href="#m2e27b24dbf" y="193.303928"/>
     <use style="fill:#2ca02c;stroke:#ffffff;stroke-width:0.75;" x="140.720801" xlink:href="#m2e27b24dbf" y="192.436496"/>
     <use style="fill:#2ca02c;stroke:#ffffff;stroke-width:0.75;" x="143.335609" xlink:href="#m2e27b24dbf" y="179.518883"/>
     <use style="fill:#2ca02c;stroke:#ffffff;stroke-width:0.75;" x="145.950417" xlink:href="#m2e27b24dbf" y="178.899225"/>
     <use style="fill:#2ca02c;stroke:#ffffff;stroke-width:0.75;" x="148.565224" xlink:href="#m2e27b24dbf" y="178.015466"/>
     <use style="fill:#2ca02c;stroke:#ffffff;stroke-width:0.75;" x="151.180032" xlink:href="#m2e27b24dbf" y="169.416378"/>
     <use style="fill:#2ca02c;stroke:#ffffff;stroke-width:0.75;" x="153.79484" xlink:href="#m2e27b24dbf" y="153.501348"/>
     <use style="fill:#2ca02c;stroke:#ffffff;stroke-width:0.75;" x="156.409648" xlink:href="#m2e27b24dbf" y="147.022272"/>
     <use style="fill:#2ca02c;stroke:#ffffff;stroke-width:0.75;" x="159.024456" xlink:href="#m2e27b24dbf" y="146.053221"/>
     <use style="fill:#2ca02c;stroke:#ffffff;stroke-width:0.75;" x="161.639264" xlink:href="#m2e27b24dbf" y="145.353318"/>
     <use style="fill:#2ca02c;stroke:#ffffff;stroke-width:0.75;" x="164.254072" xlink:href="#m2e27b24dbf" y="144.024437"/>
     <use style="fill:#2ca02c;stroke:#ffffff;stroke-width:0.75;" x="166.86888" xlink:href="#m2e27b24dbf" y="143.447852"/>
     <use style="fill:#2ca02c;stroke:#ffffff;stroke-width:0.75;" x="169.483687" xlink:href="#m2e27b24dbf" y="142.345956"/>
     <use style="fill:#2ca02c;stroke:#ffffff;stroke-width:0.75;" x="172.098495" xlink:href="#m2e27b24dbf" y="141.256381"/>
     <use style="fill:#2ca02c;stroke:#ffffff;stroke-width:0.75;" x="174.713303" xlink:href="#m2e27b24dbf" y="137.875012"/>
     <use style="fill:#2ca02c;stroke:#ffffff;stroke-width:0.75;" x="177.328111" xlink:href="#m2e27b24dbf" y="128.564794"/>
     <use style="fill:#2ca02c;stroke:#ffffff;stroke-width:0.75;" x="179.942919" xlink:href="#m2e27b24dbf" y="128.053926"/>
     <use style="fill:#2ca02c;stroke:#ffffff;stroke-width:0.75;" x="182.557727" xlink:href="#m2e27b24dbf" y="127.279759"/>
     <use style="fill:#2ca02c;stroke:#ffffff;stroke-width:0.75;" x="185.172535" xlink:href="#m2e27b24dbf" y="126.801846"/>
     <use style="fill:#2ca02c;stroke:#ffffff;stroke-width:0.75;" x="187.787343" xlink:href="#m2e27b24dbf" y="126.108386"/>
     <use style="fill:#2ca02c;stroke:#ffffff;stroke-width:0.75;" x="190.40215" xlink:href="#m2e27b24dbf" y="124.912451"/>
     <use style="fill:#2ca02c;stroke:#ffffff;stroke-width:0.75;" x="193.016958" xlink:href="#m2e27b24dbf" y="118.576916"/>
     <use style="fill:#2ca02c;stroke:#ffffff;stroke-width:0.75;" x="195.631766" xlink:href="#m2e27b24dbf" y="115.285923"/>
     <use style="fill:#2ca02c;stroke:#ffffff;stroke-width:0.75;" x="198.246574" xlink:href="#m2e27b24dbf" y="113.471425"/>
     <use style="fill:#2ca02c;stroke:#ffffff;stroke-width:0.75;" x="200.861382" xlink:href="#m2e27b24dbf" y="112.291988"/>
     <use style="fill:#2ca02c;stroke:#ffffff;stroke-width:0.75;" x="203.47619" xlink:href="#m2e27b24dbf" y="111.681437"/>
     <use style="fill:#2ca02c;stroke:#ffffff;stroke-width:0.75;" x="206.090998" xlink:href="#m2e27b24dbf" y="111.270262"/>
     <use style="fill:#2ca02c;stroke:#ffffff;stroke-width:0.75;" x="208.705806" xlink:href="#m2e27b24dbf" y="109.999611"/>
     <use style="fill:#2ca02c;stroke:#ffffff;stroke-width:0.75;" x="211.320613" xlink:href="#m2e27b24dbf" y="109.174009"/>
     <use style="fill:#2ca02c;stroke:#ffffff;stroke-width:0.75;" x="213.935421" xlink:href="#m2e27b24dbf" y="108.744362"/>
     <use style="fill:#2ca02c;stroke:#ffffff;stroke-width:0.75;" x="216.550229" xlink:href="#m2e27b24dbf" y="107.173341"/>
     <use style="fill:#2ca02c;stroke:#ffffff;stroke-width:0.75;" x="219.165037" xlink:href="#m2e27b24dbf" y="106.620173"/>
     <use style="fill:#2ca02c;stroke:#ffffff;stroke-width:0.75;" x="221.779845" xlink:href="#m2e27b24dbf" y="106.086138"/>
     <use style="fill:#2ca02c;stroke:#ffffff;stroke-width:0.75;" x="224.394653" xlink:href="#m2e27b24dbf" y="105.663921"/>
     <use style="fill:#2ca02c;stroke:#ffffff;stroke-width:0.75;" x="227.009461" xlink:href="#m2e27b24dbf" y="105.18957"/>
     <use style="fill:#2ca02c;stroke:#ffffff;stroke-width:0.75;" x="229.624269" xlink:href="#m2e27b24dbf" y="104.164357"/>
     <use style="fill:#2ca02c;stroke:#ffffff;stroke-width:0.75;" x="232.239076" xlink:href="#m2e27b24dbf" y="102.992997"/>
     <use style="fill:#2ca02c;stroke:#ffffff;stroke-width:0.75;" x="234.853884" xlink:href="#m2e27b24dbf" y="86.813675"/>
     <use style="fill:#2ca02c;stroke:#ffffff;stroke-width:0.75;" x="237.468692" xlink:href="#m2e27b24dbf" y="85.209163"/>
     <use style="fill:#2ca02c;stroke:#ffffff;stroke-width:0.75;" x="240.0835" xlink:href="#m2e27b24dbf" y="84.725753"/>
     <use style="fill:#2ca02c;stroke:#ffffff;stroke-width:0.75;" x="242.698308" xlink:href="#m2e27b24dbf" y="81.534558"/>
     <use style="fill:#2ca02c;stroke:#ffffff;stroke-width:0.75;" x="245.313116" xlink:href="#m2e27b24dbf" y="80.881964"/>
     <use style="fill:#2ca02c;stroke:#ffffff;stroke-width:0.75;" x="247.927924" xlink:href="#m2e27b24dbf" y="79.295183"/>
     <use style="fill:#2ca02c;stroke:#ffffff;stroke-width:0.75;" x="250.542732" xlink:href="#m2e27b24dbf" y="78.23718"/>
     <use style="fill:#2ca02c;stroke:#ffffff;stroke-width:0.75;" x="253.157539" xlink:href="#m2e27b24dbf" y="77.632917"/>
     <use style="fill:#2ca02c;stroke:#ffffff;stroke-width:0.75;" x="255.772347" xlink:href="#m2e27b24dbf" y="75.711907"/>
     <use style="fill:#2ca02c;stroke:#ffffff;stroke-width:0.75;" x="258.387155" xlink:href="#m2e27b24dbf" y="75.260294"/>
     <use style="fill:#2ca02c;stroke:#ffffff;stroke-width:0.75;" x="261.001963" xlink:href="#m2e27b24dbf" y="74.32031"/>
     <use style="fill:#2ca02c;stroke:#ffffff;stroke-width:0.75;" x="263.616771" xlink:href="#m2e27b24dbf" y="72.75798"/>
     <use style="fill:#2ca02c;stroke:#ffffff;stroke-width:0.75;" x="266.231579" xlink:href="#m2e27b24dbf" y="71.584805"/>
     <use style="fill:#2ca02c;stroke:#ffffff;stroke-width:0.75;" x="268.846387" xlink:href="#m2e27b24dbf" y="71.077279"/>
     <use style="fill:#2ca02c;stroke:#ffffff;stroke-width:0.75;" x="271.461194" xlink:href="#m2e27b24dbf" y="70.478714"/>
     <use style="fill:#2ca02c;stroke:#ffffff;stroke-width:0.75;" x="274.076002" xlink:href="#m2e27b24dbf" y="69.837604"/>
     <use style="fill:#2ca02c;stroke:#ffffff;stroke-width:0.75;" x="276.69081" xlink:href="#m2e27b24dbf" y="62.682083"/>
     <use style="fill:#2ca02c;stroke:#ffffff;stroke-width:0.75;" x="279.305618" xlink:href="#m2e27b24dbf" y="62.178386"/>
     <use style="fill:#2ca02c;stroke:#ffffff;stroke-width:0.75;" x="281.920426" xlink:href="#m2e27b24dbf" y="58.577518"/>
     <use style="fill:#2ca02c;stroke:#ffffff;stroke-width:0.75;" x="284.535234" xlink:href="#m2e27b24dbf" y="58.141029"/>
     <use style="fill:#2ca02c;stroke:#ffffff;stroke-width:0.75;" x="287.150042" xlink:href="#m2e27b24dbf" y="57.751588"/>
     <use style="fill:#2ca02c;stroke:#ffffff;stroke-width:0.75;" x="289.76485" xlink:href="#m2e27b24dbf" y="56.741617"/>
     <use style="fill:#2ca02c;stroke:#ffffff;stroke-width:0.75;" x="292.379657" xlink:href="#m2e27b24dbf" y="55.067634"/>
     <use style="fill:#2ca02c;stroke:#ffffff;stroke-width:0.75;" x="294.994465" xlink:href="#m2e27b24dbf" y="54.662082"/>
     <use style="fill:#2ca02c;stroke:#ffffff;stroke-width:0.75;" x="297.609273" xlink:href="#m2e27b24dbf" y="54.096397"/>
     <use style="fill:#2ca02c;stroke:#ffffff;stroke-width:0.75;" x="300.224081" xlink:href="#m2e27b24dbf" y="52.724556"/>
     <use style="fill:#2ca02c;stroke:#ffffff;stroke-width:0.75;" x="302.838889" xlink:href="#m2e27b24dbf" y="51.619909"/>
     <use style="fill:#2ca02c;stroke:#ffffff;stroke-width:0.75;" x="305.453697" xlink:href="#m2e27b24dbf" y="47.334567"/>
     <use style="fill:#2ca02c;stroke:#ffffff;stroke-width:0.75;" x="308.068505" xlink:href="#m2e27b24dbf" y="46.937508"/>
     <use style="fill:#2ca02c;stroke:#ffffff;stroke-width:0.75;" x="310.683313" xlink:href="#m2e27b24dbf" y="40.903741"/>
     <use style="fill:#2ca02c;stroke:#ffffff;stroke-width:0.75;" x="313.29812" xlink:href="#m2e27b24dbf" y="40.604491"/>
     <use style="fill:#2ca02c;stroke:#ffffff;stroke-width:0.75;" x="315.912928" xlink:href="#m2e27b24dbf" y="39.828909"/>
     <use style="fill:#2ca02c;stroke:#ffffff;stroke-width:0.75;" x="318.527736" xlink:href="#m2e27b24dbf" y="38.90356"/>
     <use style="fill:#2ca02c;stroke:#ffffff;stroke-width:0.75;" x="321.142544" xlink:href="#m2e27b24dbf" y="38.406372"/>
     <use style="fill:#2ca02c;stroke:#ffffff;stroke-width:0.75;" x="323.757352" xlink:href="#m2e27b24dbf" y="38.058259"/>
     <use style="fill:#2ca02c;stroke:#ffffff;stroke-width:0.75;" x="326.37216" xlink:href="#m2e27b24dbf" y="37.508737"/>
     <use style="fill:#2ca02c;stroke:#ffffff;stroke-width:0.75;" x="328.986968" xlink:href="#m2e27b24dbf" y="36.983448"/>
     <use style="fill:#2ca02c;stroke:#ffffff;stroke-width:0.75;" x="331.601776" xlink:href="#m2e27b24dbf" y="36.186709"/>
    </g>
   </g>
   <g id="line2d_12"/>
   <g id="line2d_13"/>
   <g id="line2d_14"/>
   <g id="line2d_15"/>
   <g id="patch_3">
    <path d="M 65.283594 279 
L 344.283594 279 
" style="fill:none;stroke:#cccccc;stroke-linecap:square;stroke-linejoin:miter;stroke-width:0.8;"/>
   </g>
   <g id="legend_1">
    <g id="patch_4">
     <path d="M 224.923438 104.423438 
L 333.783594 104.423438 
Q 336.783594 104.423438 336.783594 101.423438 
L 336.783594 17.7 
Q 336.783594 14.7 333.783594 14.7 
L 224.923438 14.7 
Q 221.923438 14.7 221.923438 17.7 
L 221.923438 101.423438 
Q 221.923438 104.423438 224.923438 104.423438 
z
" style="fill:#ffffff;opacity:0.8;stroke:#cccccc;stroke-linejoin:miter;"/>
    </g>
    <g id="text_17">
     <!-- Method -->
     <defs>
      <path d="M 7.421875 0 
L 7.421875 71.578125 
L 21.6875 71.578125 
L 38.625 20.90625 
Q 40.96875 13.8125 42.046875 10.296875 
Q 43.265625 14.203125 45.84375 21.78125 
L 62.984375 71.578125 
L 75.734375 71.578125 
L 75.734375 0 
L 66.609375 0 
L 66.609375 59.90625 
L 45.796875 0 
L 37.25 0 
L 16.546875 60.9375 
L 16.546875 0 
z
" id="ArialMT-77"/>
      <path d="M 6.59375 0 
L 6.59375 71.578125 
L 15.375 71.578125 
L 15.375 45.90625 
Q 21.53125 53.03125 30.90625 53.03125 
Q 36.671875 53.03125 40.921875 50.75 
Q 45.171875 48.484375 47 44.484375 
Q 48.828125 40.484375 48.828125 32.859375 
L 48.828125 0 
L 40.046875 0 
L 40.046875 32.859375 
Q 40.046875 39.453125 37.1875 42.453125 
Q 34.328125 45.453125 29.109375 45.453125 
Q 25.203125 45.453125 21.75 43.421875 
Q 18.3125 41.40625 16.84375 37.9375 
Q 15.375 34.46875 15.375 28.375 
L 15.375 0 
z
" id="ArialMT-104"/>
      <path d="M 40.234375 0 
L 40.234375 6.546875 
Q 35.296875 -1.171875 25.734375 -1.171875 
Q 19.53125 -1.171875 14.328125 2.25 
Q 9.125 5.671875 6.265625 11.796875 
Q 3.421875 17.921875 3.421875 25.875 
Q 3.421875 33.640625 6 39.96875 
Q 8.59375 46.296875 13.765625 49.65625 
Q 18.953125 53.03125 25.34375 53.03125 
Q 30.03125 53.03125 33.6875 51.046875 
Q 37.359375 49.078125 39.65625 45.90625 
L 39.65625 71.578125 
L 48.390625 71.578125 
L 48.390625 0 
z
M 12.453125 25.875 
Q 12.453125 15.921875 16.640625 10.984375 
Q 20.84375 6.0625 26.5625 6.0625 
Q 32.328125 6.0625 36.34375 10.765625 
Q 40.375 15.484375 40.375 25.140625 
Q 40.375 35.796875 36.265625 40.765625 
Q 32.171875 45.75 26.171875 45.75 
Q 20.3125 45.75 16.375 40.96875 
Q 12.453125 36.1875 12.453125 25.875 
z
" id="ArialMT-100"/>
     </defs>
     <g style="fill:#262626;" transform="translate(254.339844 31.436719)scale(0.15 -0.15)">
      <use xlink:href="#ArialMT-77"/>
      <use x="83.300781" xlink:href="#ArialMT-101"/>
      <use x="138.916016" xlink:href="#ArialMT-116"/>
      <use x="166.699219" xlink:href="#ArialMT-104"/>
      <use x="222.314453" xlink:href="#ArialMT-111"/>
      <use x="277.929688" xlink:href="#ArialMT-100"/>
     </g>
    </g>
    <g id="line2d_16">
     <path d="M 227.923438 47.404688 
L 257.923438 47.404688 
" style="fill:none;stroke:#1f77b4;stroke-linecap:round;stroke-width:1.5;"/>
    </g>
    <g id="line2d_17">
     <g>
      <use style="fill:#1f77b4;stroke:#ffffff;stroke-width:0.75;" x="242.923438" xlink:href="#m1da9bb818f" y="47.404688"/>
     </g>
    </g>
    <g id="text_18">
     <!-- single -->
     <defs>
      <path d="M 4.984375 -4.296875 
L 13.53125 -5.5625 
Q 14.0625 -9.515625 16.5 -11.328125 
Q 19.78125 -13.765625 25.4375 -13.765625 
Q 31.546875 -13.765625 34.859375 -11.328125 
Q 38.1875 -8.890625 39.359375 -4.5 
Q 40.046875 -1.8125 39.984375 6.78125 
Q 34.234375 0 25.640625 0 
Q 14.9375 0 9.078125 7.71875 
Q 3.21875 15.4375 3.21875 26.21875 
Q 3.21875 33.640625 5.90625 39.90625 
Q 8.59375 46.1875 13.6875 49.609375 
Q 18.796875 53.03125 25.6875 53.03125 
Q 34.859375 53.03125 40.828125 45.609375 
L 40.828125 51.859375 
L 48.921875 51.859375 
L 48.921875 7.03125 
Q 48.921875 -5.078125 46.453125 -10.125 
Q 44 -15.1875 38.640625 -18.109375 
Q 33.296875 -21.046875 25.484375 -21.046875 
Q 16.21875 -21.046875 10.5 -16.875 
Q 4.78125 -12.703125 4.984375 -4.296875 
z
M 12.25 26.859375 
Q 12.25 16.65625 16.296875 11.96875 
Q 20.359375 7.28125 26.46875 7.28125 
Q 32.515625 7.28125 36.609375 11.9375 
Q 40.71875 16.609375 40.71875 26.5625 
Q 40.71875 36.078125 36.5 40.90625 
Q 32.28125 45.75 26.3125 45.75 
Q 20.453125 45.75 16.34375 40.984375 
Q 12.25 36.234375 12.25 26.859375 
z
" id="ArialMT-103"/>
     </defs>
     <g style="fill:#262626;" transform="translate(269.923438 52.654688)scale(0.15 -0.15)">
      <use xlink:href="#ArialMT-115"/>
      <use x="50" xlink:href="#ArialMT-105"/>
      <use x="72.216797" xlink:href="#ArialMT-110"/>
      <use x="127.832031" xlink:href="#ArialMT-103"/>
      <use x="183.447266" xlink:href="#ArialMT-108"/>
      <use x="205.664062" xlink:href="#ArialMT-101"/>
     </g>
    </g>
    <g id="line2d_18">
     <path d="M 227.923438 68.798438 
L 257.923438 68.798438 
" style="fill:none;stroke:#ff7f0e;stroke-linecap:round;stroke-width:1.5;"/>
    </g>
    <g id="line2d_19">
     <g>
      <use style="fill:#ff7f0e;stroke:#ffffff;stroke-width:0.75;" x="242.923438" xlink:href="#m65e46ab2ea" y="68.798438"/>
     </g>
    </g>
    <g id="text_19">
     <!-- complete -->
     <defs>
      <path d="M 40.4375 19 
L 49.078125 17.875 
Q 47.65625 8.9375 41.8125 3.875 
Q 35.984375 -1.171875 27.484375 -1.171875 
Q 16.84375 -1.171875 10.375 5.78125 
Q 3.90625 12.75 3.90625 25.734375 
Q 3.90625 34.125 6.6875 40.421875 
Q 9.46875 46.734375 15.15625 49.875 
Q 20.84375 53.03125 27.546875 53.03125 
Q 35.984375 53.03125 41.359375 48.75 
Q 46.734375 44.484375 48.25 36.625 
L 39.703125 35.296875 
Q 38.484375 40.53125 35.375 43.15625 
Q 32.28125 45.796875 27.875 45.796875 
Q 21.234375 45.796875 17.078125 41.03125 
Q 12.9375 36.28125 12.9375 25.984375 
Q 12.9375 15.53125 16.9375 10.796875 
Q 20.953125 6.0625 27.390625 6.0625 
Q 32.5625 6.0625 36.03125 9.234375 
Q 39.5 12.40625 40.4375 19 
z
" id="ArialMT-99"/>
      <path d="M 6.59375 0 
L 6.59375 51.859375 
L 14.453125 51.859375 
L 14.453125 44.578125 
Q 16.890625 48.390625 20.9375 50.703125 
Q 25 53.03125 30.171875 53.03125 
Q 35.9375 53.03125 39.625 50.640625 
Q 43.3125 48.25 44.828125 43.953125 
Q 50.984375 53.03125 60.84375 53.03125 
Q 68.5625 53.03125 72.703125 48.75 
Q 76.859375 44.484375 76.859375 35.59375 
L 76.859375 0 
L 68.109375 0 
L 68.109375 32.671875 
Q 68.109375 37.9375 67.25 40.25 
Q 66.40625 42.578125 64.15625 43.984375 
Q 61.921875 45.40625 58.890625 45.40625 
Q 53.421875 45.40625 49.796875 41.765625 
Q 46.1875 38.140625 46.1875 30.125 
L 46.1875 0 
L 37.40625 0 
L 37.40625 33.6875 
Q 37.40625 39.546875 35.25 42.46875 
Q 33.109375 45.40625 28.21875 45.40625 
Q 24.515625 45.40625 21.359375 43.453125 
Q 18.21875 41.5 16.796875 37.734375 
Q 15.375 33.984375 15.375 26.90625 
L 15.375 0 
z
" id="ArialMT-109"/>
      <path d="M 6.59375 -19.875 
L 6.59375 51.859375 
L 14.59375 51.859375 
L 14.59375 45.125 
Q 17.4375 49.078125 21 51.046875 
Q 24.5625 53.03125 29.640625 53.03125 
Q 36.28125 53.03125 41.359375 49.609375 
Q 46.4375 46.1875 49.015625 39.953125 
Q 51.609375 33.734375 51.609375 26.3125 
Q 51.609375 18.359375 48.75 11.984375 
Q 45.90625 5.609375 40.453125 2.21875 
Q 35.015625 -1.171875 29 -1.171875 
Q 24.609375 -1.171875 21.109375 0.6875 
Q 17.625 2.546875 15.375 5.375 
L 15.375 -19.875 
z
M 14.546875 25.640625 
Q 14.546875 15.625 18.59375 10.84375 
Q 22.65625 6.0625 28.421875 6.0625 
Q 34.28125 6.0625 38.453125 11.015625 
Q 42.625 15.96875 42.625 26.375 
Q 42.625 36.28125 38.546875 41.203125 
Q 34.46875 46.140625 28.8125 46.140625 
Q 23.1875 46.140625 18.859375 40.890625 
Q 14.546875 35.640625 14.546875 25.640625 
z
" id="ArialMT-112"/>
     </defs>
     <g style="fill:#262626;" transform="translate(269.923438 74.048438)scale(0.15 -0.15)">
      <use xlink:href="#ArialMT-99"/>
      <use x="50" xlink:href="#ArialMT-111"/>
      <use x="105.615234" xlink:href="#ArialMT-109"/>
      <use x="188.916016" xlink:href="#ArialMT-112"/>
      <use x="244.53125" xlink:href="#ArialMT-108"/>
      <use x="266.748047" xlink:href="#ArialMT-101"/>
      <use x="322.363281" xlink:href="#ArialMT-116"/>
      <use x="350.146484" xlink:href="#ArialMT-101"/>
     </g>
    </g>
    <g id="line2d_20">
     <path d="M 227.923438 90.016406 
L 257.923438 90.016406 
" style="fill:none;stroke:#2ca02c;stroke-linecap:round;stroke-width:1.5;"/>
    </g>
    <g id="line2d_21">
     <g>
      <use style="fill:#2ca02c;stroke:#ffffff;stroke-width:0.75;" x="242.923438" xlink:href="#m2e27b24dbf" y="90.016406"/>
     </g>
    </g>
    <g id="text_20">
     <!-- weighted -->
     <g style="fill:#262626;" transform="translate(269.923438 95.266406)scale(0.15 -0.15)">
      <use xlink:href="#ArialMT-119"/>
      <use x="72.216797" xlink:href="#ArialMT-101"/>
      <use x="127.832031" xlink:href="#ArialMT-105"/>
      <use x="150.048828" xlink:href="#ArialMT-103"/>
      <use x="205.664062" xlink:href="#ArialMT-104"/>
      <use x="261.279297" xlink:href="#ArialMT-116"/>
      <use x="289.0625" xlink:href="#ArialMT-101"/>
      <use x="344.677734" xlink:href="#ArialMT-100"/>
     </g>
    </g>
   </g>
  </g>
 </g>
 <defs>
  <clipPath id="pc915437d05">
   <rect height="271.8" width="279" x="65.283594" y="7.2"/>
  </clipPath>
 </defs>
</svg>
