<?xml version="1.0" encoding="utf-8" standalone="no"?>
<!DOCTYPE svg PUBLIC "-//W3C//DTD SVG 1.1//EN"
  "http://www.w3.org/Graphics/SVG/1.1/DTD/svg11.dtd">
<!-- Created with matplotlib (https://matplotlib.org/) -->
<svg height="324.635938pt" version="1.1" viewBox="0 0 353.928693 324.635938" width="353.928693pt" xmlns="http://www.w3.org/2000/svg" xmlns:xlink="http://www.w3.org/1999/xlink">
 <defs>
  <style type="text/css">
*{stroke-linecap:butt;stroke-linejoin:round;}
  </style>
 </defs>
 <g id="figure_1">
  <g id="patch_1">
   <path d="M 0 324.635938 
L 353.928693 324.635938 
L 353.928693 0 
L 0 0 
z
" style="fill:#ffffff;"/>
  </g>
  <g id="axes_1">
   <g id="patch_2">
    <path d="M 65.283594 279 
L 344.283594 279 
L 344.283594 7.2 
L 65.283594 7.2 
z
" style="fill:#ffffff;"/>
   </g>
   <g id="matplotlib.axis_1">
    <g id="xtick_1">
     <g id="text_1">
      <!-- 0 -->
      <defs>
       <path d="M 4.15625 35.296875 
Q 4.15625 48 6.765625 55.734375 
Q 9.375 63.484375 14.515625 67.671875 
Q 19.671875 71.875 27.484375 71.875 
Q 33.25 71.875 37.59375 69.546875 
Q 41.9375 67.234375 44.765625 62.859375 
Q 47.609375 58.5 49.21875 52.21875 
Q 50.828125 45.953125 50.828125 35.296875 
Q 50.828125 22.703125 48.234375 14.96875 
Q 45.65625 7.234375 40.5 3 
Q 35.359375 -1.21875 27.484375 -1.21875 
Q 17.140625 -1.21875 11.234375 6.203125 
Q 4.15625 15.140625 4.15625 35.296875 
z
M 13.1875 35.296875 
Q 13.1875 17.671875 17.3125 11.828125 
Q 21.4375 6 27.484375 6 
Q 33.546875 6 37.671875 11.859375 
Q 41.796875 17.71875 41.796875 35.296875 
Q 41.796875 52.984375 37.671875 58.78125 
Q 33.546875 64.59375 27.390625 64.59375 
Q 21.34375 64.59375 17.71875 59.46875 
Q 13.1875 52.9375 13.1875 35.296875 
z
" id="ArialMT-48"/>
      </defs>
      <g style="fill:#262626;" transform="translate(68.565093 296.736719)scale(0.15 -0.15)">
       <use xlink:href="#ArialMT-48"/>
      </g>
     </g>
    </g>
    <g id="xtick_2">
     <g id="text_2">
      <!-- 20 -->
      <defs>
       <path d="M 50.34375 8.453125 
L 50.34375 0 
L 3.03125 0 
Q 2.9375 3.171875 4.046875 6.109375 
Q 5.859375 10.9375 9.828125 15.625 
Q 13.8125 20.3125 21.34375 26.46875 
Q 33.015625 36.03125 37.109375 41.625 
Q 41.21875 47.21875 41.21875 52.203125 
Q 41.21875 57.421875 37.46875 61 
Q 33.734375 64.59375 27.734375 64.59375 
Q 21.390625 64.59375 17.578125 60.78125 
Q 13.765625 56.984375 13.71875 50.25 
L 4.6875 51.171875 
Q 5.609375 61.28125 11.65625 66.578125 
Q 17.71875 71.875 27.9375 71.875 
Q 38.234375 71.875 44.234375 66.15625 
Q 50.25 60.453125 50.25 52 
Q 50.25 47.703125 48.484375 43.546875 
Q 46.734375 39.40625 42.65625 34.8125 
Q 38.578125 30.21875 29.109375 22.21875 
Q 21.1875 15.578125 18.9375 13.203125 
Q 16.703125 10.84375 15.234375 8.453125 
z
" id="ArialMT-50"/>
      </defs>
      <g style="fill:#262626;" transform="translate(116.690547 296.736719)scale(0.15 -0.15)">
       <use xlink:href="#ArialMT-50"/>
       <use x="55.615234" xlink:href="#ArialMT-48"/>
      </g>
     </g>
    </g>
    <g id="xtick_3">
     <g id="text_3">
      <!-- 40 -->
      <defs>
       <path d="M 32.328125 0 
L 32.328125 17.140625 
L 1.265625 17.140625 
L 1.265625 25.203125 
L 33.9375 71.578125 
L 41.109375 71.578125 
L 41.109375 25.203125 
L 50.78125 25.203125 
L 50.78125 17.140625 
L 41.109375 17.140625 
L 41.109375 0 
z
M 32.328125 25.203125 
L 32.328125 57.46875 
L 9.90625 25.203125 
z
" id="ArialMT-52"/>
      </defs>
      <g style="fill:#262626;" transform="translate(168.986705 296.736719)scale(0.15 -0.15)">
       <use xlink:href="#ArialMT-52"/>
       <use x="55.615234" xlink:href="#ArialMT-48"/>
      </g>
     </g>
    </g>
    <g id="xtick_4">
     <g id="text_4">
      <!-- 60 -->
      <defs>
       <path d="M 49.75 54.046875 
L 41.015625 53.375 
Q 39.84375 58.546875 37.703125 60.890625 
Q 34.125 64.65625 28.90625 64.65625 
Q 24.703125 64.65625 21.53125 62.3125 
Q 17.390625 59.28125 14.984375 53.46875 
Q 12.59375 47.65625 12.5 36.921875 
Q 15.671875 41.75 20.265625 44.09375 
Q 24.859375 46.4375 29.890625 46.4375 
Q 38.671875 46.4375 44.84375 39.96875 
Q 51.03125 33.5 51.03125 23.25 
Q 51.03125 16.5 48.125 10.71875 
Q 45.21875 4.9375 40.140625 1.859375 
Q 35.0625 -1.21875 28.609375 -1.21875 
Q 17.625 -1.21875 10.6875 6.859375 
Q 3.765625 14.9375 3.765625 33.5 
Q 3.765625 54.25 11.421875 63.671875 
Q 18.109375 71.875 29.4375 71.875 
Q 37.890625 71.875 43.28125 67.140625 
Q 48.6875 62.40625 49.75 54.046875 
z
M 13.875 23.1875 
Q 13.875 18.65625 15.796875 14.5 
Q 17.71875 10.359375 21.1875 8.171875 
Q 24.65625 6 28.46875 6 
Q 34.03125 6 38.03125 10.484375 
Q 42.046875 14.984375 42.046875 22.703125 
Q 42.046875 30.125 38.078125 34.390625 
Q 34.125 38.671875 28.125 38.671875 
Q 22.171875 38.671875 18.015625 34.390625 
Q 13.875 30.125 13.875 23.1875 
z
" id="ArialMT-54"/>
      </defs>
      <g style="fill:#262626;" transform="translate(221.282862 296.736719)scale(0.15 -0.15)">
       <use xlink:href="#ArialMT-54"/>
       <use x="55.615234" xlink:href="#ArialMT-48"/>
      </g>
     </g>
    </g>
    <g id="xtick_5">
     <g id="text_5">
      <!-- 80 -->
      <defs>
       <path d="M 17.671875 38.8125 
Q 12.203125 40.828125 9.5625 44.53125 
Q 6.9375 48.25 6.9375 53.421875 
Q 6.9375 61.234375 12.546875 66.546875 
Q 18.171875 71.875 27.484375 71.875 
Q 36.859375 71.875 42.578125 66.421875 
Q 48.296875 60.984375 48.296875 53.171875 
Q 48.296875 48.1875 45.671875 44.5 
Q 43.0625 40.828125 37.75 38.8125 
Q 44.34375 36.671875 47.78125 31.875 
Q 51.21875 27.09375 51.21875 20.453125 
Q 51.21875 11.28125 44.71875 5.03125 
Q 38.234375 -1.21875 27.640625 -1.21875 
Q 17.046875 -1.21875 10.546875 5.046875 
Q 4.046875 11.328125 4.046875 20.703125 
Q 4.046875 27.6875 7.59375 32.390625 
Q 11.140625 37.109375 17.671875 38.8125 
z
M 15.921875 53.71875 
Q 15.921875 48.640625 19.1875 45.40625 
Q 22.46875 42.1875 27.6875 42.1875 
Q 32.765625 42.1875 36.015625 45.375 
Q 39.265625 48.578125 39.265625 53.21875 
Q 39.265625 58.0625 35.90625 61.359375 
Q 32.5625 64.65625 27.59375 64.65625 
Q 22.5625 64.65625 19.234375 61.421875 
Q 15.921875 58.203125 15.921875 53.71875 
z
M 13.09375 20.65625 
Q 13.09375 16.890625 14.875 13.375 
Q 16.65625 9.859375 20.171875 7.921875 
Q 23.6875 6 27.734375 6 
Q 34.03125 6 38.125 10.046875 
Q 42.234375 14.109375 42.234375 20.359375 
Q 42.234375 26.703125 38.015625 30.859375 
Q 33.796875 35.015625 27.4375 35.015625 
Q 21.234375 35.015625 17.15625 30.90625 
Q 13.09375 26.8125 13.09375 20.65625 
z
" id="ArialMT-56"/>
      </defs>
      <g style="fill:#262626;" transform="translate(273.57902 296.736719)scale(0.15 -0.15)">
       <use xlink:href="#ArialMT-56"/>
       <use x="55.615234" xlink:href="#ArialMT-48"/>
      </g>
     </g>
    </g>
    <g id="xtick_6">
     <g id="text_6">
      <!-- 100 -->
      <defs>
       <path d="M 37.25 0 
L 28.46875 0 
L 28.46875 56 
Q 25.296875 52.984375 20.140625 49.953125 
Q 14.984375 46.921875 10.890625 45.40625 
L 10.890625 53.90625 
Q 18.265625 57.375 23.78125 62.296875 
Q 29.296875 67.234375 31.59375 71.875 
L 37.25 71.875 
z
" id="ArialMT-49"/>
      </defs>
      <g style="fill:#262626;" transform="translate(321.704474 296.736719)scale(0.15 -0.15)">
       <use xlink:href="#ArialMT-49"/>
       <use x="55.615234" xlink:href="#ArialMT-48"/>
       <use x="111.230469" xlink:href="#ArialMT-48"/>
      </g>
     </g>
    </g>
    <g id="text_7">
     <!-- k -->
     <defs>
      <path d="M 6.640625 0 
L 6.640625 71.578125 
L 15.4375 71.578125 
L 15.4375 30.765625 
L 36.234375 51.859375 
L 47.609375 51.859375 
L 27.78125 32.625 
L 49.609375 0 
L 38.765625 0 
L 21.625 26.515625 
L 15.4375 20.5625 
L 15.4375 0 
z
" id="ArialMT-107"/>
     </defs>
     <g style="fill:#262626;" transform="translate(201.033594 314.454688)scale(0.15 -0.15)">
      <use xlink:href="#ArialMT-107"/>
     </g>
    </g>
   </g>
   <g id="matplotlib.axis_2">
    <g id="ytick_1">
     <g id="line2d_1">
      <path clip-path="url(#pf58eba68b7)" d="M 65.283594 245.825094 
L 344.283594 245.825094 
" style="fill:none;stroke:#cccccc;stroke-linecap:round;stroke-width:0.8;"/>
     </g>
     <g id="text_8">
      <!-- 1600 -->
      <g style="fill:#262626;" transform="translate(24.917969 251.193453)scale(0.15 -0.15)">
       <use xlink:href="#ArialMT-49"/>
       <use x="55.615234" xlink:href="#ArialMT-54"/>
       <use x="111.230469" xlink:href="#ArialMT-48"/>
       <use x="166.845703" xlink:href="#ArialMT-48"/>
      </g>
     </g>
    </g>
    <g id="ytick_2">
     <g id="line2d_2">
      <path clip-path="url(#pf58eba68b7)" d="M 65.283594 212.579724 
L 344.283594 212.579724 
" style="fill:none;stroke:#cccccc;stroke-linecap:round;stroke-width:0.8;"/>
     </g>
     <g id="text_9">
      <!-- 1800 -->
      <g style="fill:#262626;" transform="translate(24.917969 217.948083)scale(0.15 -0.15)">
       <use xlink:href="#ArialMT-49"/>
       <use x="55.615234" xlink:href="#ArialMT-56"/>
       <use x="111.230469" xlink:href="#ArialMT-48"/>
       <use x="166.845703" xlink:href="#ArialMT-48"/>
      </g>
     </g>
    </g>
    <g id="ytick_3">
     <g id="line2d_3">
      <path clip-path="url(#pf58eba68b7)" d="M 65.283594 179.334354 
L 344.283594 179.334354 
" style="fill:none;stroke:#cccccc;stroke-linecap:round;stroke-width:0.8;"/>
     </g>
     <g id="text_10">
      <!-- 2000 -->
      <g style="fill:#262626;" transform="translate(24.917969 184.702714)scale(0.15 -0.15)">
       <use xlink:href="#ArialMT-50"/>
       <use x="55.615234" xlink:href="#ArialMT-48"/>
       <use x="111.230469" xlink:href="#ArialMT-48"/>
       <use x="166.845703" xlink:href="#ArialMT-48"/>
      </g>
     </g>
    </g>
    <g id="ytick_4">
     <g id="line2d_4">
      <path clip-path="url(#pf58eba68b7)" d="M 65.283594 146.088985 
L 344.283594 146.088985 
" style="fill:none;stroke:#cccccc;stroke-linecap:round;stroke-width:0.8;"/>
     </g>
     <g id="text_11">
      <!-- 2200 -->
      <g style="fill:#262626;" transform="translate(24.917969 151.457344)scale(0.15 -0.15)">
       <use xlink:href="#ArialMT-50"/>
       <use x="55.615234" xlink:href="#ArialMT-50"/>
       <use x="111.230469" xlink:href="#ArialMT-48"/>
       <use x="166.845703" xlink:href="#ArialMT-48"/>
      </g>
     </g>
    </g>
    <g id="ytick_5">
     <g id="line2d_5">
      <path clip-path="url(#pf58eba68b7)" d="M 65.283594 112.843615 
L 344.283594 112.843615 
" style="fill:none;stroke:#cccccc;stroke-linecap:round;stroke-width:0.8;"/>
     </g>
     <g id="text_12">
      <!-- 2400 -->
      <g style="fill:#262626;" transform="translate(24.917969 118.211975)scale(0.15 -0.15)">
       <use xlink:href="#ArialMT-50"/>
       <use x="55.615234" xlink:href="#ArialMT-52"/>
       <use x="111.230469" xlink:href="#ArialMT-48"/>
       <use x="166.845703" xlink:href="#ArialMT-48"/>
      </g>
     </g>
    </g>
    <g id="ytick_6">
     <g id="line2d_6">
      <path clip-path="url(#pf58eba68b7)" d="M 65.283594 79.598246 
L 344.283594 79.598246 
" style="fill:none;stroke:#cccccc;stroke-linecap:round;stroke-width:0.8;"/>
     </g>
     <g id="text_13">
      <!-- 2600 -->
      <g style="fill:#262626;" transform="translate(24.917969 84.966605)scale(0.15 -0.15)">
       <use xlink:href="#ArialMT-50"/>
       <use x="55.615234" xlink:href="#ArialMT-54"/>
       <use x="111.230469" xlink:href="#ArialMT-48"/>
       <use x="166.845703" xlink:href="#ArialMT-48"/>
      </g>
     </g>
    </g>
    <g id="ytick_7">
     <g id="line2d_7">
      <path clip-path="url(#pf58eba68b7)" d="M 65.283594 46.352876 
L 344.283594 46.352876 
" style="fill:none;stroke:#cccccc;stroke-linecap:round;stroke-width:0.8;"/>
     </g>
     <g id="text_14">
      <!-- 2800 -->
      <g style="fill:#262626;" transform="translate(24.917969 51.721236)scale(0.15 -0.15)">
       <use xlink:href="#ArialMT-50"/>
       <use x="55.615234" xlink:href="#ArialMT-56"/>
       <use x="111.230469" xlink:href="#ArialMT-48"/>
       <use x="166.845703" xlink:href="#ArialMT-48"/>
      </g>
     </g>
    </g>
    <g id="ytick_8">
     <g id="line2d_8">
      <path clip-path="url(#pf58eba68b7)" d="M 65.283594 13.107507 
L 344.283594 13.107507 
" style="fill:none;stroke:#cccccc;stroke-linecap:round;stroke-width:0.8;"/>
     </g>
     <g id="text_15">
      <!-- 3000 -->
      <defs>
       <path d="M 4.203125 18.890625 
L 12.984375 20.0625 
Q 14.5 12.59375 18.140625 9.296875 
Q 21.78125 6 27 6 
Q 33.203125 6 37.46875 10.296875 
Q 41.75 14.59375 41.75 20.953125 
Q 41.75 27 37.796875 30.921875 
Q 33.84375 34.859375 27.734375 34.859375 
Q 25.25 34.859375 21.53125 33.890625 
L 22.515625 41.609375 
Q 23.390625 41.5 23.921875 41.5 
Q 29.546875 41.5 34.03125 44.421875 
Q 38.53125 47.359375 38.53125 53.46875 
Q 38.53125 58.296875 35.25 61.46875 
Q 31.984375 64.65625 26.8125 64.65625 
Q 21.6875 64.65625 18.265625 61.421875 
Q 14.84375 58.203125 13.875 51.765625 
L 5.078125 53.328125 
Q 6.6875 62.15625 12.390625 67.015625 
Q 18.109375 71.875 26.609375 71.875 
Q 32.46875 71.875 37.390625 69.359375 
Q 42.328125 66.84375 44.9375 62.5 
Q 47.5625 58.15625 47.5625 53.265625 
Q 47.5625 48.640625 45.0625 44.828125 
Q 42.578125 41.015625 37.703125 38.765625 
Q 44.046875 37.3125 47.5625 32.6875 
Q 51.078125 28.078125 51.078125 21.140625 
Q 51.078125 11.765625 44.234375 5.25 
Q 37.40625 -1.265625 26.953125 -1.265625 
Q 17.53125 -1.265625 11.296875 4.34375 
Q 5.078125 9.96875 4.203125 18.890625 
z
" id="ArialMT-51"/>
      </defs>
      <g style="fill:#262626;" transform="translate(24.917969 18.475866)scale(0.15 -0.15)">
       <use xlink:href="#ArialMT-51"/>
       <use x="55.615234" xlink:href="#ArialMT-48"/>
       <use x="111.230469" xlink:href="#ArialMT-48"/>
       <use x="166.845703" xlink:href="#ArialMT-48"/>
      </g>
     </g>
    </g>
    <g id="text_16">
     <!-- Within-Cluster Variation -->
     <defs>
      <path d="M 20.21875 0 
L 1.21875 71.578125 
L 10.9375 71.578125 
L 21.828125 24.65625 
Q 23.578125 17.28125 24.859375 10.015625 
Q 27.59375 21.484375 28.078125 23.25 
L 41.703125 71.578125 
L 53.125 71.578125 
L 63.375 35.359375 
Q 67.234375 21.875 68.953125 10.015625 
Q 70.3125 16.796875 72.515625 25.59375 
L 83.734375 71.578125 
L 93.265625 71.578125 
L 73.640625 0 
L 64.5 0 
L 49.421875 54.546875 
Q 47.515625 61.375 47.171875 62.9375 
Q 46.046875 58.015625 45.0625 54.546875 
L 29.890625 0 
z
" id="ArialMT-87"/>
      <path d="M 6.640625 61.46875 
L 6.640625 71.578125 
L 15.4375 71.578125 
L 15.4375 61.46875 
z
M 6.640625 0 
L 6.640625 51.859375 
L 15.4375 51.859375 
L 15.4375 0 
z
" id="ArialMT-105"/>
      <path d="M 25.78125 7.859375 
L 27.046875 0.09375 
Q 23.34375 -0.6875 20.40625 -0.6875 
Q 15.625 -0.6875 12.984375 0.828125 
Q 10.359375 2.34375 9.28125 4.8125 
Q 8.203125 7.28125 8.203125 15.1875 
L 8.203125 45.015625 
L 1.765625 45.015625 
L 1.765625 51.859375 
L 8.203125 51.859375 
L 8.203125 64.703125 
L 16.9375 69.96875 
L 16.9375 51.859375 
L 25.78125 51.859375 
L 25.78125 45.015625 
L 16.9375 45.015625 
L 16.9375 14.703125 
Q 16.9375 10.9375 17.40625 9.859375 
Q 17.875 8.796875 18.921875 8.15625 
Q 19.96875 7.515625 21.921875 7.515625 
Q 23.390625 7.515625 25.78125 7.859375 
z
" id="ArialMT-116"/>
      <path d="M 6.59375 0 
L 6.59375 71.578125 
L 15.375 71.578125 
L 15.375 45.90625 
Q 21.53125 53.03125 30.90625 53.03125 
Q 36.671875 53.03125 40.921875 50.75 
Q 45.171875 48.484375 47 44.484375 
Q 48.828125 40.484375 48.828125 32.859375 
L 48.828125 0 
L 40.046875 0 
L 40.046875 32.859375 
Q 40.046875 39.453125 37.1875 42.453125 
Q 34.328125 45.453125 29.109375 45.453125 
Q 25.203125 45.453125 21.75 43.421875 
Q 18.3125 41.40625 16.84375 37.9375 
Q 15.375 34.46875 15.375 28.375 
L 15.375 0 
z
" id="ArialMT-104"/>
      <path d="M 6.59375 0 
L 6.59375 51.859375 
L 14.5 51.859375 
L 14.5 44.484375 
Q 20.21875 53.03125 31 53.03125 
Q 35.6875 53.03125 39.625 51.34375 
Q 43.5625 49.65625 45.515625 46.921875 
Q 47.46875 44.1875 48.25 40.4375 
Q 48.734375 37.984375 48.734375 31.890625 
L 48.734375 0 
L 39.9375 0 
L 39.9375 31.546875 
Q 39.9375 36.921875 38.90625 39.578125 
Q 37.890625 42.234375 35.28125 43.8125 
Q 32.671875 45.40625 29.15625 45.40625 
Q 23.53125 45.40625 19.453125 41.84375 
Q 15.375 38.28125 15.375 28.328125 
L 15.375 0 
z
" id="ArialMT-110"/>
      <path d="M 3.171875 21.484375 
L 3.171875 30.328125 
L 30.171875 30.328125 
L 30.171875 21.484375 
z
" id="ArialMT-45"/>
      <path d="M 58.796875 25.09375 
L 68.265625 22.703125 
Q 65.28125 11.03125 57.546875 4.90625 
Q 49.8125 -1.21875 38.625 -1.21875 
Q 27.046875 -1.21875 19.796875 3.484375 
Q 12.546875 8.203125 8.765625 17.140625 
Q 4.984375 26.078125 4.984375 36.328125 
Q 4.984375 47.515625 9.25 55.828125 
Q 13.53125 64.15625 21.40625 68.46875 
Q 29.296875 72.796875 38.765625 72.796875 
Q 49.515625 72.796875 56.828125 67.328125 
Q 64.15625 61.859375 67.046875 51.953125 
L 57.71875 49.75 
Q 55.21875 57.5625 50.484375 61.125 
Q 45.75 64.703125 38.578125 64.703125 
Q 30.328125 64.703125 24.78125 60.734375 
Q 19.234375 56.78125 16.984375 50.109375 
Q 14.75 43.453125 14.75 36.375 
Q 14.75 27.25 17.40625 20.4375 
Q 20.0625 13.625 25.671875 10.25 
Q 31.296875 6.890625 37.84375 6.890625 
Q 45.796875 6.890625 51.3125 11.46875 
Q 56.84375 16.0625 58.796875 25.09375 
z
" id="ArialMT-67"/>
      <path d="M 6.390625 0 
L 6.390625 71.578125 
L 15.1875 71.578125 
L 15.1875 0 
z
" id="ArialMT-108"/>
      <path d="M 40.578125 0 
L 40.578125 7.625 
Q 34.515625 -1.171875 24.125 -1.171875 
Q 19.53125 -1.171875 15.546875 0.578125 
Q 11.578125 2.34375 9.640625 5 
Q 7.71875 7.671875 6.9375 11.53125 
Q 6.390625 14.109375 6.390625 19.734375 
L 6.390625 51.859375 
L 15.1875 51.859375 
L 15.1875 23.09375 
Q 15.1875 16.21875 15.71875 13.8125 
Q 16.546875 10.359375 19.234375 8.375 
Q 21.921875 6.390625 25.875 6.390625 
Q 29.828125 6.390625 33.296875 8.421875 
Q 36.765625 10.453125 38.203125 13.9375 
Q 39.65625 17.4375 39.65625 24.078125 
L 39.65625 51.859375 
L 48.4375 51.859375 
L 48.4375 0 
z
" id="ArialMT-117"/>
      <path d="M 3.078125 15.484375 
L 11.765625 16.84375 
Q 12.5 11.625 15.84375 8.84375 
Q 19.1875 6.0625 25.203125 6.0625 
Q 31.25 6.0625 34.171875 8.515625 
Q 37.109375 10.984375 37.109375 14.3125 
Q 37.109375 17.28125 34.515625 19 
Q 32.71875 20.171875 25.53125 21.96875 
Q 15.875 24.421875 12.140625 26.203125 
Q 8.40625 27.984375 6.46875 31.125 
Q 4.546875 34.28125 4.546875 38.09375 
Q 4.546875 41.546875 6.125 44.5 
Q 7.71875 47.46875 10.453125 49.421875 
Q 12.5 50.921875 16.03125 51.96875 
Q 19.578125 53.03125 23.640625 53.03125 
Q 29.734375 53.03125 34.34375 51.265625 
Q 38.96875 49.515625 41.15625 46.5 
Q 43.359375 43.5 44.1875 38.484375 
L 35.59375 37.3125 
Q 35.015625 41.3125 32.203125 43.546875 
Q 29.390625 45.796875 24.265625 45.796875 
Q 18.21875 45.796875 15.625 43.796875 
Q 13.03125 41.796875 13.03125 39.109375 
Q 13.03125 37.40625 14.109375 36.03125 
Q 15.1875 34.625 17.484375 33.6875 
Q 18.796875 33.203125 25.25 31.453125 
Q 34.578125 28.953125 38.25 27.359375 
Q 41.9375 25.78125 44.03125 22.75 
Q 46.140625 19.734375 46.140625 15.234375 
Q 46.140625 10.84375 43.578125 6.953125 
Q 41.015625 3.078125 36.171875 0.953125 
Q 31.34375 -1.171875 25.25 -1.171875 
Q 15.140625 -1.171875 9.84375 3.03125 
Q 4.546875 7.234375 3.078125 15.484375 
z
" id="ArialMT-115"/>
      <path d="M 42.09375 16.703125 
L 51.171875 15.578125 
Q 49.03125 7.625 43.21875 3.21875 
Q 37.40625 -1.171875 28.375 -1.171875 
Q 17 -1.171875 10.328125 5.828125 
Q 3.65625 12.84375 3.65625 25.484375 
Q 3.65625 38.578125 10.390625 45.796875 
Q 17.140625 53.03125 27.875 53.03125 
Q 38.28125 53.03125 44.875 45.953125 
Q 51.46875 38.875 51.46875 26.03125 
Q 51.46875 25.25 51.421875 23.6875 
L 12.75 23.6875 
Q 13.234375 15.140625 17.578125 10.59375 
Q 21.921875 6.0625 28.421875 6.0625 
Q 33.25 6.0625 36.671875 8.59375 
Q 40.09375 11.140625 42.09375 16.703125 
z
M 13.234375 30.90625 
L 42.1875 30.90625 
Q 41.609375 37.453125 38.875 40.71875 
Q 34.671875 45.796875 27.984375 45.796875 
Q 21.921875 45.796875 17.796875 41.75 
Q 13.671875 37.703125 13.234375 30.90625 
z
" id="ArialMT-101"/>
      <path d="M 6.5 0 
L 6.5 51.859375 
L 14.40625 51.859375 
L 14.40625 44 
Q 17.4375 49.515625 20 51.265625 
Q 22.5625 53.03125 25.640625 53.03125 
Q 30.078125 53.03125 34.671875 50.203125 
L 31.640625 42.046875 
Q 28.421875 43.953125 25.203125 43.953125 
Q 22.3125 43.953125 20.015625 42.21875 
Q 17.71875 40.484375 16.75 37.40625 
Q 15.28125 32.71875 15.28125 27.15625 
L 15.28125 0 
z
" id="ArialMT-114"/>
      <path id="ArialMT-32"/>
      <path d="M 28.171875 0 
L 0.4375 71.578125 
L 10.6875 71.578125 
L 29.296875 19.578125 
Q 31.546875 13.328125 33.0625 7.859375 
Q 34.71875 13.71875 36.921875 19.578125 
L 56.25 71.578125 
L 65.921875 71.578125 
L 37.890625 0 
z
" id="ArialMT-86"/>
      <path d="M 40.4375 6.390625 
Q 35.546875 2.25 31.03125 0.53125 
Q 26.515625 -1.171875 21.34375 -1.171875 
Q 12.796875 -1.171875 8.203125 3 
Q 3.609375 7.171875 3.609375 13.671875 
Q 3.609375 17.484375 5.34375 20.625 
Q 7.078125 23.78125 9.890625 25.6875 
Q 12.703125 27.59375 16.21875 28.5625 
Q 18.796875 29.25 24.03125 29.890625 
Q 34.671875 31.15625 39.703125 32.90625 
Q 39.75 34.71875 39.75 35.203125 
Q 39.75 40.578125 37.25 42.78125 
Q 33.890625 45.75 27.25 45.75 
Q 21.046875 45.75 18.09375 43.578125 
Q 15.140625 41.40625 13.71875 35.890625 
L 5.125 37.0625 
Q 6.296875 42.578125 8.984375 45.96875 
Q 11.671875 49.359375 16.75 51.1875 
Q 21.828125 53.03125 28.515625 53.03125 
Q 35.15625 53.03125 39.296875 51.46875 
Q 43.453125 49.90625 45.40625 47.53125 
Q 47.359375 45.171875 48.140625 41.546875 
Q 48.578125 39.3125 48.578125 33.453125 
L 48.578125 21.734375 
Q 48.578125 9.46875 49.140625 6.21875 
Q 49.703125 2.984375 51.375 0 
L 42.1875 0 
Q 40.828125 2.734375 40.4375 6.390625 
z
M 39.703125 26.03125 
Q 34.90625 24.078125 25.34375 22.703125 
Q 19.921875 21.921875 17.671875 20.9375 
Q 15.4375 19.96875 14.203125 18.09375 
Q 12.984375 16.21875 12.984375 13.921875 
Q 12.984375 10.40625 15.640625 8.0625 
Q 18.3125 5.71875 23.4375 5.71875 
Q 28.515625 5.71875 32.46875 7.9375 
Q 36.421875 10.15625 38.28125 14.015625 
Q 39.703125 17 39.703125 22.796875 
z
" id="ArialMT-97"/>
      <path d="M 3.328125 25.921875 
Q 3.328125 40.328125 11.328125 47.265625 
Q 18.015625 53.03125 27.640625 53.03125 
Q 38.328125 53.03125 45.109375 46.015625 
Q 51.90625 39.015625 51.90625 26.65625 
Q 51.90625 16.65625 48.90625 10.90625 
Q 45.90625 5.171875 40.15625 2 
Q 34.421875 -1.171875 27.640625 -1.171875 
Q 16.75 -1.171875 10.03125 5.8125 
Q 3.328125 12.796875 3.328125 25.921875 
z
M 12.359375 25.921875 
Q 12.359375 15.96875 16.703125 11.015625 
Q 21.046875 6.0625 27.640625 6.0625 
Q 34.1875 6.0625 38.53125 11.03125 
Q 42.875 16.015625 42.875 26.21875 
Q 42.875 35.84375 38.5 40.796875 
Q 34.125 45.75 27.640625 45.75 
Q 21.046875 45.75 16.703125 40.8125 
Q 12.359375 35.890625 12.359375 25.921875 
z
" id="ArialMT-111"/>
     </defs>
     <g style="fill:#262626;" transform="translate(17.936719 221.864063)rotate(-90)scale(0.15 -0.15)">
      <use xlink:href="#ArialMT-87"/>
      <use x="94.384766" xlink:href="#ArialMT-105"/>
      <use x="116.601562" xlink:href="#ArialMT-116"/>
      <use x="144.384766" xlink:href="#ArialMT-104"/>
      <use x="200" xlink:href="#ArialMT-105"/>
      <use x="222.216797" xlink:href="#ArialMT-110"/>
      <use x="277.832031" xlink:href="#ArialMT-45"/>
      <use x="311.132812" xlink:href="#ArialMT-67"/>
      <use x="383.349609" xlink:href="#ArialMT-108"/>
      <use x="405.566406" xlink:href="#ArialMT-117"/>
      <use x="461.181641" xlink:href="#ArialMT-115"/>
      <use x="511.181641" xlink:href="#ArialMT-116"/>
      <use x="538.964844" xlink:href="#ArialMT-101"/>
      <use x="594.580078" xlink:href="#ArialMT-114"/>
      <use x="627.880859" xlink:href="#ArialMT-32"/>
      <use x="655.664062" xlink:href="#ArialMT-86"/>
      <use x="722.253906" xlink:href="#ArialMT-97"/>
      <use x="777.869141" xlink:href="#ArialMT-114"/>
      <use x="811.169922" xlink:href="#ArialMT-105"/>
      <use x="833.386719" xlink:href="#ArialMT-97"/>
      <use x="889.001953" xlink:href="#ArialMT-116"/>
      <use x="916.785156" xlink:href="#ArialMT-105"/>
      <use x="939.001953" xlink:href="#ArialMT-111"/>
      <use x="994.617188" xlink:href="#ArialMT-110"/>
     </g>
    </g>
   </g>
   <g id="line2d_9">
    <path clip-path="url(#pf58eba68b7)" d="M 77.965412 19.554545 
L 80.58022 21.29291 
L 83.195028 22.877668 
L 85.809836 23.950606 
L 88.424643 25.528907 
L 91.039451 26.828121 
L 93.654259 28.528177 
L 96.269067 29.64 
L 98.883875 31.158699 
L 101.498683 32.747319 
L 104.113491 33.99342 
L 106.728299 35.540991 
L 109.343106 36.581189 
L 111.957914 37.493105 
L 114.572722 38.351225 
L 117.18753 39.48554 
L 119.802338 42.288364 
L 122.417146 43.398664 
L 125.031954 44.277491 
L 127.646762 45.501253 
L 130.261569 46.25131 
L 132.876377 47.359757 
L 135.491185 48.298825 
L 138.105993 49.504569 
L 140.720801 50.686805 
L 143.335609 51.662319 
L 145.950417 52.698018 
L 148.565224 53.620321 
L 151.180032 54.602916 
L 153.79484 55.458735 
L 156.409648 56.207943 
L 159.024456 57.137402 
L 161.639264 57.94767 
L 164.254072 58.974831 
L 166.86888 59.818284 
L 169.483687 60.492704 
L 172.098495 61.0888 
L 174.713303 61.947504 
L 177.328111 62.643135 
L 179.942919 63.481904 
L 182.557727 64.079069 
L 185.172535 65.161962 
L 187.787343 65.879452 
L 190.40215 66.909217 
L 193.016958 67.603545 
L 195.631766 68.523179 
L 198.246574 70.205446 
L 200.861382 72.46892 
L 203.47619 73.215126 
L 206.090998 74.044082 
L 208.705806 74.670143 
L 211.320613 75.310358 
L 213.935421 75.961075 
L 216.550229 76.646226 
L 219.165037 77.407046 
L 221.779845 78.894738 
L 224.394653 79.565381 
L 227.009461 81.95039 
L 229.624269 82.57981 
L 232.239076 82.93386 
L 234.853884 83.857979 
L 237.468692 84.78287 
L 240.0835 85.684522 
L 242.698308 86.569891 
L 245.313116 87.216117 
L 247.927924 87.429554 
L 250.542732 87.9889 
L 253.157539 88.817524 
L 255.772347 89.615982 
L 258.387155 90.23842 
L 261.001963 91.326959 
L 263.616771 92.490328 
L 266.231579 93.921209 
L 268.846387 94.551386 
L 271.461194 95.096903 
L 274.076002 95.652155 
L 276.69081 96.326717 
L 279.305618 97.252225 
L 281.920426 97.527445 
L 284.535234 97.944618 
L 287.150042 100.323958 
L 289.76485 101.731515 
L 292.379657 102.468609 
L 294.994465 103.035765 
L 297.609273 103.681735 
L 300.224081 104.607321 
L 302.838889 105.281067 
L 305.453697 105.651968 
L 308.068505 106.3077 
L 310.683313 107.040149 
L 313.29812 107.467436 
L 315.912928 108.072981 
L 318.527736 108.34898 
L 321.142544 108.708325 
L 323.757352 109.381875 
L 326.37216 110.802436 
L 328.986968 111.969101 
L 331.601776 112.702015 
" style="fill:none;stroke:#1f77b4;stroke-linecap:round;stroke-width:1.5;"/>
    <defs>
     <path d="M 0 3 
C 0.795609 3 1.55874 2.683901 2.12132 2.12132 
C 2.683901 1.55874 3 0.795609 3 0 
C 3 -0.795609 2.683901 -1.55874 2.12132 -2.12132 
C 1.55874 -2.683901 0.795609 -3 0 -3 
C -0.795609 -3 -1.55874 -2.683901 -2.12132 -2.12132 
C -2.683901 -1.55874 -3 -0.795609 -3 0 
C -3 0.795609 -2.683901 1.55874 -2.12132 2.12132 
C -1.55874 2.683901 -0.795609 3 0 3 
z
" id="mdaac728deb" style="stroke:#ffffff;stroke-width:0.75;"/>
    </defs>
    <g clip-path="url(#pf58eba68b7)">
     <use style="fill:#1f77b4;stroke:#ffffff;stroke-width:0.75;" x="77.965412" xlink:href="#mdaac728deb" y="19.554545"/>
     <use style="fill:#1f77b4;stroke:#ffffff;stroke-width:0.75;" x="80.58022" xlink:href="#mdaac728deb" y="21.29291"/>
     <use style="fill:#1f77b4;stroke:#ffffff;stroke-width:0.75;" x="83.195028" xlink:href="#mdaac728deb" y="22.877668"/>
     <use style="fill:#1f77b4;stroke:#ffffff;stroke-width:0.75;" x="85.809836" xlink:href="#mdaac728deb" y="23.950606"/>
     <use style="fill:#1f77b4;stroke:#ffffff;stroke-width:0.75;" x="88.424643" xlink:href="#mdaac728deb" y="25.528907"/>
     <use style="fill:#1f77b4;stroke:#ffffff;stroke-width:0.75;" x="91.039451" xlink:href="#mdaac728deb" y="26.828121"/>
     <use style="fill:#1f77b4;stroke:#ffffff;stroke-width:0.75;" x="93.654259" xlink:href="#mdaac728deb" y="28.528177"/>
     <use style="fill:#1f77b4;stroke:#ffffff;stroke-width:0.75;" x="96.269067" xlink:href="#mdaac728deb" y="29.64"/>
     <use style="fill:#1f77b4;stroke:#ffffff;stroke-width:0.75;" x="98.883875" xlink:href="#mdaac728deb" y="31.158699"/>
     <use style="fill:#1f77b4;stroke:#ffffff;stroke-width:0.75;" x="101.498683" xlink:href="#mdaac728deb" y="32.747319"/>
     <use style="fill:#1f77b4;stroke:#ffffff;stroke-width:0.75;" x="104.113491" xlink:href="#mdaac728deb" y="33.99342"/>
     <use style="fill:#1f77b4;stroke:#ffffff;stroke-width:0.75;" x="106.728299" xlink:href="#mdaac728deb" y="35.540991"/>
     <use style="fill:#1f77b4;stroke:#ffffff;stroke-width:0.75;" x="109.343106" xlink:href="#mdaac728deb" y="36.581189"/>
     <use style="fill:#1f77b4;stroke:#ffffff;stroke-width:0.75;" x="111.957914" xlink:href="#mdaac728deb" y="37.493105"/>
     <use style="fill:#1f77b4;stroke:#ffffff;stroke-width:0.75;" x="114.572722" xlink:href="#mdaac728deb" y="38.351225"/>
     <use style="fill:#1f77b4;stroke:#ffffff;stroke-width:0.75;" x="117.18753" xlink:href="#mdaac728deb" y="39.48554"/>
     <use style="fill:#1f77b4;stroke:#ffffff;stroke-width:0.75;" x="119.802338" xlink:href="#mdaac728deb" y="42.288364"/>
     <use style="fill:#1f77b4;stroke:#ffffff;stroke-width:0.75;" x="122.417146" xlink:href="#mdaac728deb" y="43.398664"/>
     <use style="fill:#1f77b4;stroke:#ffffff;stroke-width:0.75;" x="125.031954" xlink:href="#mdaac728deb" y="44.277491"/>
     <use style="fill:#1f77b4;stroke:#ffffff;stroke-width:0.75;" x="127.646762" xlink:href="#mdaac728deb" y="45.501253"/>
     <use style="fill:#1f77b4;stroke:#ffffff;stroke-width:0.75;" x="130.261569" xlink:href="#mdaac728deb" y="46.25131"/>
     <use style="fill:#1f77b4;stroke:#ffffff;stroke-width:0.75;" x="132.876377" xlink:href="#mdaac728deb" y="47.359757"/>
     <use style="fill:#1f77b4;stroke:#ffffff;stroke-width:0.75;" x="135.491185" xlink:href="#mdaac728deb" y="48.298825"/>
     <use style="fill:#1f77b4;stroke:#ffffff;stroke-width:0.75;" x="138.105993" xlink:href="#mdaac728deb" y="49.504569"/>
     <use style="fill:#1f77b4;stroke:#ffffff;stroke-width:0.75;" x="140.720801" xlink:href="#mdaac728deb" y="50.686805"/>
     <use style="fill:#1f77b4;stroke:#ffffff;stroke-width:0.75;" x="143.335609" xlink:href="#mdaac728deb" y="51.662319"/>
     <use style="fill:#1f77b4;stroke:#ffffff;stroke-width:0.75;" x="145.950417" xlink:href="#mdaac728deb" y="52.698018"/>
     <use style="fill:#1f77b4;stroke:#ffffff;stroke-width:0.75;" x="148.565224" xlink:href="#mdaac728deb" y="53.620321"/>
     <use style="fill:#1f77b4;stroke:#ffffff;stroke-width:0.75;" x="151.180032" xlink:href="#mdaac728deb" y="54.602916"/>
     <use style="fill:#1f77b4;stroke:#ffffff;stroke-width:0.75;" x="153.79484" xlink:href="#mdaac728deb" y="55.458735"/>
     <use style="fill:#1f77b4;stroke:#ffffff;stroke-width:0.75;" x="156.409648" xlink:href="#mdaac728deb" y="56.207943"/>
     <use style="fill:#1f77b4;stroke:#ffffff;stroke-width:0.75;" x="159.024456" xlink:href="#mdaac728deb" y="57.137402"/>
     <use style="fill:#1f77b4;stroke:#ffffff;stroke-width:0.75;" x="161.639264" xlink:href="#mdaac728deb" y="57.94767"/>
     <use style="fill:#1f77b4;stroke:#ffffff;stroke-width:0.75;" x="164.254072" xlink:href="#mdaac728deb" y="58.974831"/>
     <use style="fill:#1f77b4;stroke:#ffffff;stroke-width:0.75;" x="166.86888" xlink:href="#mdaac728deb" y="59.818284"/>
     <use style="fill:#1f77b4;stroke:#ffffff;stroke-width:0.75;" x="169.483687" xlink:href="#mdaac728deb" y="60.492704"/>
     <use style="fill:#1f77b4;stroke:#ffffff;stroke-width:0.75;" x="172.098495" xlink:href="#mdaac728deb" y="61.0888"/>
     <use style="fill:#1f77b4;stroke:#ffffff;stroke-width:0.75;" x="174.713303" xlink:href="#mdaac728deb" y="61.947504"/>
     <use style="fill:#1f77b4;stroke:#ffffff;stroke-width:0.75;" x="177.328111" xlink:href="#mdaac728deb" y="62.643135"/>
     <use style="fill:#1f77b4;stroke:#ffffff;stroke-width:0.75;" x="179.942919" xlink:href="#mdaac728deb" y="63.481904"/>
     <use style="fill:#1f77b4;stroke:#ffffff;stroke-width:0.75;" x="182.557727" xlink:href="#mdaac728deb" y="64.079069"/>
     <use style="fill:#1f77b4;stroke:#ffffff;stroke-width:0.75;" x="185.172535" xlink:href="#mdaac728deb" y="65.161962"/>
     <use style="fill:#1f77b4;stroke:#ffffff;stroke-width:0.75;" x="187.787343" xlink:href="#mdaac728deb" y="65.879452"/>
     <use style="fill:#1f77b4;stroke:#ffffff;stroke-width:0.75;" x="190.40215" xlink:href="#mdaac728deb" y="66.909217"/>
     <use style="fill:#1f77b4;stroke:#ffffff;stroke-width:0.75;" x="193.016958" xlink:href="#mdaac728deb" y="67.603545"/>
     <use style="fill:#1f77b4;stroke:#ffffff;stroke-width:0.75;" x="195.631766" xlink:href="#mdaac728deb" y="68.523179"/>
     <use style="fill:#1f77b4;stroke:#ffffff;stroke-width:0.75;" x="198.246574" xlink:href="#mdaac728deb" y="70.205446"/>
     <use style="fill:#1f77b4;stroke:#ffffff;stroke-width:0.75;" x="200.861382" xlink:href="#mdaac728deb" y="72.46892"/>
     <use style="fill:#1f77b4;stroke:#ffffff;stroke-width:0.75;" x="203.47619" xlink:href="#mdaac728deb" y="73.215126"/>
     <use style="fill:#1f77b4;stroke:#ffffff;stroke-width:0.75;" x="206.090998" xlink:href="#mdaac728deb" y="74.044082"/>
     <use style="fill:#1f77b4;stroke:#ffffff;stroke-width:0.75;" x="208.705806" xlink:href="#mdaac728deb" y="74.670143"/>
     <use style="fill:#1f77b4;stroke:#ffffff;stroke-width:0.75;" x="211.320613" xlink:href="#mdaac728deb" y="75.310358"/>
     <use style="fill:#1f77b4;stroke:#ffffff;stroke-width:0.75;" x="213.935421" xlink:href="#mdaac728deb" y="75.961075"/>
     <use style="fill:#1f77b4;stroke:#ffffff;stroke-width:0.75;" x="216.550229" xlink:href="#mdaac728deb" y="76.646226"/>
     <use style="fill:#1f77b4;stroke:#ffffff;stroke-width:0.75;" x="219.165037" xlink:href="#mdaac728deb" y="77.407046"/>
     <use style="fill:#1f77b4;stroke:#ffffff;stroke-width:0.75;" x="221.779845" xlink:href="#mdaac728deb" y="78.894738"/>
     <use style="fill:#1f77b4;stroke:#ffffff;stroke-width:0.75;" x="224.394653" xlink:href="#mdaac728deb" y="79.565381"/>
     <use style="fill:#1f77b4;stroke:#ffffff;stroke-width:0.75;" x="227.009461" xlink:href="#mdaac728deb" y="81.95039"/>
     <use style="fill:#1f77b4;stroke:#ffffff;stroke-width:0.75;" x="229.624269" xlink:href="#mdaac728deb" y="82.57981"/>
     <use style="fill:#1f77b4;stroke:#ffffff;stroke-width:0.75;" x="232.239076" xlink:href="#mdaac728deb" y="82.93386"/>
     <use style="fill:#1f77b4;stroke:#ffffff;stroke-width:0.75;" x="234.853884" xlink:href="#mdaac728deb" y="83.857979"/>
     <use style="fill:#1f77b4;stroke:#ffffff;stroke-width:0.75;" x="237.468692" xlink:href="#mdaac728deb" y="84.78287"/>
     <use style="fill:#1f77b4;stroke:#ffffff;stroke-width:0.75;" x="240.0835" xlink:href="#mdaac728deb" y="85.684522"/>
     <use style="fill:#1f77b4;stroke:#ffffff;stroke-width:0.75;" x="242.698308" xlink:href="#mdaac728deb" y="86.569891"/>
     <use style="fill:#1f77b4;stroke:#ffffff;stroke-width:0.75;" x="245.313116" xlink:href="#mdaac728deb" y="87.216117"/>
     <use style="fill:#1f77b4;stroke:#ffffff;stroke-width:0.75;" x="247.927924" xlink:href="#mdaac728deb" y="87.429554"/>
     <use style="fill:#1f77b4;stroke:#ffffff;stroke-width:0.75;" x="250.542732" xlink:href="#mdaac728deb" y="87.9889"/>
     <use style="fill:#1f77b4;stroke:#ffffff;stroke-width:0.75;" x="253.157539" xlink:href="#mdaac728deb" y="88.817524"/>
     <use style="fill:#1f77b4;stroke:#ffffff;stroke-width:0.75;" x="255.772347" xlink:href="#mdaac728deb" y="89.615982"/>
     <use style="fill:#1f77b4;stroke:#ffffff;stroke-width:0.75;" x="258.387155" xlink:href="#mdaac728deb" y="90.23842"/>
     <use style="fill:#1f77b4;stroke:#ffffff;stroke-width:0.75;" x="261.001963" xlink:href="#mdaac728deb" y="91.326959"/>
     <use style="fill:#1f77b4;stroke:#ffffff;stroke-width:0.75;" x="263.616771" xlink:href="#mdaac728deb" y="92.490328"/>
     <use style="fill:#1f77b4;stroke:#ffffff;stroke-width:0.75;" x="266.231579" xlink:href="#mdaac728deb" y="93.921209"/>
     <use style="fill:#1f77b4;stroke:#ffffff;stroke-width:0.75;" x="268.846387" xlink:href="#mdaac728deb" y="94.551386"/>
     <use style="fill:#1f77b4;stroke:#ffffff;stroke-width:0.75;" x="271.461194" xlink:href="#mdaac728deb" y="95.096903"/>
     <use style="fill:#1f77b4;stroke:#ffffff;stroke-width:0.75;" x="274.076002" xlink:href="#mdaac728deb" y="95.652155"/>
     <use style="fill:#1f77b4;stroke:#ffffff;stroke-width:0.75;" x="276.69081" xlink:href="#mdaac728deb" y="96.326717"/>
     <use style="fill:#1f77b4;stroke:#ffffff;stroke-width:0.75;" x="279.305618" xlink:href="#mdaac728deb" y="97.252225"/>
     <use style="fill:#1f77b4;stroke:#ffffff;stroke-width:0.75;" x="281.920426" xlink:href="#mdaac728deb" y="97.527445"/>
     <use style="fill:#1f77b4;stroke:#ffffff;stroke-width:0.75;" x="284.535234" xlink:href="#mdaac728deb" y="97.944618"/>
     <use style="fill:#1f77b4;stroke:#ffffff;stroke-width:0.75;" x="287.150042" xlink:href="#mdaac728deb" y="100.323958"/>
     <use style="fill:#1f77b4;stroke:#ffffff;stroke-width:0.75;" x="289.76485" xlink:href="#mdaac728deb" y="101.731515"/>
     <use style="fill:#1f77b4;stroke:#ffffff;stroke-width:0.75;" x="292.379657" xlink:href="#mdaac728deb" y="102.468609"/>
     <use style="fill:#1f77b4;stroke:#ffffff;stroke-width:0.75;" x="294.994465" xlink:href="#mdaac728deb" y="103.035765"/>
     <use style="fill:#1f77b4;stroke:#ffffff;stroke-width:0.75;" x="297.609273" xlink:href="#mdaac728deb" y="103.681735"/>
     <use style="fill:#1f77b4;stroke:#ffffff;stroke-width:0.75;" x="300.224081" xlink:href="#mdaac728deb" y="104.607321"/>
     <use style="fill:#1f77b4;stroke:#ffffff;stroke-width:0.75;" x="302.838889" xlink:href="#mdaac728deb" y="105.281067"/>
     <use style="fill:#1f77b4;stroke:#ffffff;stroke-width:0.75;" x="305.453697" xlink:href="#mdaac728deb" y="105.651968"/>
     <use style="fill:#1f77b4;stroke:#ffffff;stroke-width:0.75;" x="308.068505" xlink:href="#mdaac728deb" y="106.3077"/>
     <use style="fill:#1f77b4;stroke:#ffffff;stroke-width:0.75;" x="310.683313" xlink:href="#mdaac728deb" y="107.040149"/>
     <use style="fill:#1f77b4;stroke:#ffffff;stroke-width:0.75;" x="313.29812" xlink:href="#mdaac728deb" y="107.467436"/>
     <use style="fill:#1f77b4;stroke:#ffffff;stroke-width:0.75;" x="315.912928" xlink:href="#mdaac728deb" y="108.072981"/>
     <use style="fill:#1f77b4;stroke:#ffffff;stroke-width:0.75;" x="318.527736" xlink:href="#mdaac728deb" y="108.34898"/>
     <use style="fill:#1f77b4;stroke:#ffffff;stroke-width:0.75;" x="321.142544" xlink:href="#mdaac728deb" y="108.708325"/>
     <use style="fill:#1f77b4;stroke:#ffffff;stroke-width:0.75;" x="323.757352" xlink:href="#mdaac728deb" y="109.381875"/>
     <use style="fill:#1f77b4;stroke:#ffffff;stroke-width:0.75;" x="326.37216" xlink:href="#mdaac728deb" y="110.802436"/>
     <use style="fill:#1f77b4;stroke:#ffffff;stroke-width:0.75;" x="328.986968" xlink:href="#mdaac728deb" y="111.969101"/>
     <use style="fill:#1f77b4;stroke:#ffffff;stroke-width:0.75;" x="331.601776" xlink:href="#mdaac728deb" y="112.702015"/>
    </g>
   </g>
   <g id="line2d_10">
    <path clip-path="url(#pf58eba68b7)" d="M 77.965412 22.574975 
L 80.58022 27.139956 
L 83.195028 56.568297 
L 85.809836 66.793782 
L 88.424643 80.442437 
L 91.039451 83.046265 
L 93.654259 98.02794 
L 96.269067 100.353004 
L 98.883875 106.219547 
L 101.498683 107.667736 
L 104.113491 113.813083 
L 106.728299 123.811446 
L 109.343106 125.386022 
L 111.957914 126.632154 
L 114.572722 137.482241 
L 117.18753 139.678269 
L 119.802338 142.451904 
L 122.417146 144.023568 
L 125.031954 145.852148 
L 127.646762 155.254238 
L 130.261569 157.000686 
L 132.876377 158.404116 
L 135.491185 161.096328 
L 138.105993 165.096221 
L 140.720801 166.864835 
L 143.335609 168.65761 
L 145.950417 169.975032 
L 148.565224 173.030585 
L 151.180032 173.959044 
L 153.79484 174.882732 
L 156.409648 177.770136 
L 159.024456 180.460179 
L 161.639264 182.363832 
L 164.254072 184.654331 
L 166.86888 185.376345 
L 169.483687 191.661265 
L 172.098495 193.03801 
L 174.713303 193.797444 
L 177.328111 194.582365 
L 179.942919 195.913791 
L 182.557727 196.936431 
L 185.172535 197.962289 
L 187.787343 198.798207 
L 190.40215 201.125775 
L 193.016958 201.817371 
L 195.631766 202.496752 
L 198.246574 203.371886 
L 200.861382 204.209608 
L 203.47619 204.978596 
L 206.090998 205.513256 
L 208.705806 206.86772 
L 211.320613 209.110669 
L 213.935421 211.182812 
L 216.550229 212.187903 
L 219.165037 214.553427 
L 221.779845 215.51533 
L 224.394653 216.291494 
L 227.009461 217.024105 
L 229.624269 221.686669 
L 232.239076 222.608536 
L 234.853884 223.308439 
L 237.468692 223.866347 
L 240.0835 226.760782 
L 242.698308 227.889206 
L 245.313116 230.550522 
L 247.927924 231.676055 
L 250.542732 233.043642 
L 253.157539 234.05133 
L 255.772347 235.88591 
L 258.387155 236.44919 
L 261.001963 237.819058 
L 263.616771 238.595767 
L 266.231579 240.609497 
L 268.846387 241.111842 
L 271.461194 241.866301 
L 274.076002 243.045459 
L 276.69081 243.832235 
L 279.305618 244.677046 
L 281.920426 245.888045 
L 284.535234 246.409766 
L 287.150042 247.358991 
L 289.76485 248.216166 
L 292.379657 248.834856 
L 294.994465 251.097084 
L 297.609273 253.232854 
L 300.224081 255.173098 
L 302.838889 255.974296 
L 305.453697 256.527835 
L 308.068505 257.490263 
L 310.683313 260.027372 
L 313.29812 260.699707 
L 315.912928 261.665583 
L 318.527736 262.583115 
L 321.142544 263.224023 
L 323.757352 264.368928 
L 326.37216 264.979963 
L 328.986968 265.583076 
L 331.601776 266.645455 
" style="fill:none;stroke:#ff7f0e;stroke-linecap:round;stroke-width:1.5;"/>
    <defs>
     <path d="M 0 3 
C 0.795609 3 1.55874 2.683901 2.12132 2.12132 
C 2.683901 1.55874 3 0.795609 3 0 
C 3 -0.795609 2.683901 -1.55874 2.12132 -2.12132 
C 1.55874 -2.683901 0.795609 -3 0 -3 
C -0.795609 -3 -1.55874 -2.683901 -2.12132 -2.12132 
C -2.683901 -1.55874 -3 -0.795609 -3 0 
C -3 0.795609 -2.683901 1.55874 -2.12132 2.12132 
C -1.55874 2.683901 -0.795609 3 0 3 
z
" id="mbab4f327ed" style="stroke:#ffffff;stroke-width:0.75;"/>
    </defs>
    <g clip-path="url(#pf58eba68b7)">
     <use style="fill:#ff7f0e;stroke:#ffffff;stroke-width:0.75;" x="77.965412" xlink:href="#mbab4f327ed" y="22.574975"/>
     <use style="fill:#ff7f0e;stroke:#ffffff;stroke-width:0.75;" x="80.58022" xlink:href="#mbab4f327ed" y="27.139956"/>
     <use style="fill:#ff7f0e;stroke:#ffffff;stroke-width:0.75;" x="83.195028" xlink:href="#mbab4f327ed" y="56.568297"/>
     <use style="fill:#ff7f0e;stroke:#ffffff;stroke-width:0.75;" x="85.809836" xlink:href="#mbab4f327ed" y="66.793782"/>
     <use style="fill:#ff7f0e;stroke:#ffffff;stroke-width:0.75;" x="88.424643" xlink:href="#mbab4f327ed" y="80.442437"/>
     <use style="fill:#ff7f0e;stroke:#ffffff;stroke-width:0.75;" x="91.039451" xlink:href="#mbab4f327ed" y="83.046265"/>
     <use style="fill:#ff7f0e;stroke:#ffffff;stroke-width:0.75;" x="93.654259" xlink:href="#mbab4f327ed" y="98.02794"/>
     <use style="fill:#ff7f0e;stroke:#ffffff;stroke-width:0.75;" x="96.269067" xlink:href="#mbab4f327ed" y="100.353004"/>
     <use style="fill:#ff7f0e;stroke:#ffffff;stroke-width:0.75;" x="98.883875" xlink:href="#mbab4f327ed" y="106.219547"/>
     <use style="fill:#ff7f0e;stroke:#ffffff;stroke-width:0.75;" x="101.498683" xlink:href="#mbab4f327ed" y="107.667736"/>
     <use style="fill:#ff7f0e;stroke:#ffffff;stroke-width:0.75;" x="104.113491" xlink:href="#mbab4f327ed" y="113.813083"/>
     <use style="fill:#ff7f0e;stroke:#ffffff;stroke-width:0.75;" x="106.728299" xlink:href="#mbab4f327ed" y="123.811446"/>
     <use style="fill:#ff7f0e;stroke:#ffffff;stroke-width:0.75;" x="109.343106" xlink:href="#mbab4f327ed" y="125.386022"/>
     <use style="fill:#ff7f0e;stroke:#ffffff;stroke-width:0.75;" x="111.957914" xlink:href="#mbab4f327ed" y="126.632154"/>
     <use style="fill:#ff7f0e;stroke:#ffffff;stroke-width:0.75;" x="114.572722" xlink:href="#mbab4f327ed" y="137.482241"/>
     <use style="fill:#ff7f0e;stroke:#ffffff;stroke-width:0.75;" x="117.18753" xlink:href="#mbab4f327ed" y="139.678269"/>
     <use style="fill:#ff7f0e;stroke:#ffffff;stroke-width:0.75;" x="119.802338" xlink:href="#mbab4f327ed" y="142.451904"/>
     <use style="fill:#ff7f0e;stroke:#ffffff;stroke-width:0.75;" x="122.417146" xlink:href="#mbab4f327ed" y="144.023568"/>
     <use style="fill:#ff7f0e;stroke:#ffffff;stroke-width:0.75;" x="125.031954" xlink:href="#mbab4f327ed" y="145.852148"/>
     <use style="fill:#ff7f0e;stroke:#ffffff;stroke-width:0.75;" x="127.646762" xlink:href="#mbab4f327ed" y="155.254238"/>
     <use style="fill:#ff7f0e;stroke:#ffffff;stroke-width:0.75;" x="130.261569" xlink:href="#mbab4f327ed" y="157.000686"/>
     <use style="fill:#ff7f0e;stroke:#ffffff;stroke-width:0.75;" x="132.876377" xlink:href="#mbab4f327ed" y="158.404116"/>
     <use style="fill:#ff7f0e;stroke:#ffffff;stroke-width:0.75;" x="135.491185" xlink:href="#mbab4f327ed" y="161.096328"/>
     <use style="fill:#ff7f0e;stroke:#ffffff;stroke-width:0.75;" x="138.105993" xlink:href="#mbab4f327ed" y="165.096221"/>
     <use style="fill:#ff7f0e;stroke:#ffffff;stroke-width:0.75;" x="140.720801" xlink:href="#mbab4f327ed" y="166.864835"/>
     <use style="fill:#ff7f0e;stroke:#ffffff;stroke-width:0.75;" x="143.335609" xlink:href="#mbab4f327ed" y="168.65761"/>
     <use style="fill:#ff7f0e;stroke:#ffffff;stroke-width:0.75;" x="145.950417" xlink:href="#mbab4f327ed" y="169.975032"/>
     <use style="fill:#ff7f0e;stroke:#ffffff;stroke-width:0.75;" x="148.565224" xlink:href="#mbab4f327ed" y="173.030585"/>
     <use style="fill:#ff7f0e;stroke:#ffffff;stroke-width:0.75;" x="151.180032" xlink:href="#mbab4f327ed" y="173.959044"/>
     <use style="fill:#ff7f0e;stroke:#ffffff;stroke-width:0.75;" x="153.79484" xlink:href="#mbab4f327ed" y="174.882732"/>
     <use style="fill:#ff7f0e;stroke:#ffffff;stroke-width:0.75;" x="156.409648" xlink:href="#mbab4f327ed" y="177.770136"/>
     <use style="fill:#ff7f0e;stroke:#ffffff;stroke-width:0.75;" x="159.024456" xlink:href="#mbab4f327ed" y="180.460179"/>
     <use style="fill:#ff7f0e;stroke:#ffffff;stroke-width:0.75;" x="161.639264" xlink:href="#mbab4f327ed" y="182.363832"/>
     <use style="fill:#ff7f0e;stroke:#ffffff;stroke-width:0.75;" x="164.254072" xlink:href="#mbab4f327ed" y="184.654331"/>
     <use style="fill:#ff7f0e;stroke:#ffffff;stroke-width:0.75;" x="166.86888" xlink:href="#mbab4f327ed" y="185.376345"/>
     <use style="fill:#ff7f0e;stroke:#ffffff;stroke-width:0.75;" x="169.483687" xlink:href="#mbab4f327ed" y="191.661265"/>
     <use style="fill:#ff7f0e;stroke:#ffffff;stroke-width:0.75;" x="172.098495" xlink:href="#mbab4f327ed" y="193.03801"/>
     <use style="fill:#ff7f0e;stroke:#ffffff;stroke-width:0.75;" x="174.713303" xlink:href="#mbab4f327ed" y="193.797444"/>
     <use style="fill:#ff7f0e;stroke:#ffffff;stroke-width:0.75;" x="177.328111" xlink:href="#mbab4f327ed" y="194.582365"/>
     <use style="fill:#ff7f0e;stroke:#ffffff;stroke-width:0.75;" x="179.942919" xlink:href="#mbab4f327ed" y="195.913791"/>
     <use style="fill:#ff7f0e;stroke:#ffffff;stroke-width:0.75;" x="182.557727" xlink:href="#mbab4f327ed" y="196.936431"/>
     <use style="fill:#ff7f0e;stroke:#ffffff;stroke-width:0.75;" x="185.172535" xlink:href="#mbab4f327ed" y="197.962289"/>
     <use style="fill:#ff7f0e;stroke:#ffffff;stroke-width:0.75;" x="187.787343" xlink:href="#mbab4f327ed" y="198.798207"/>
     <use style="fill:#ff7f0e;stroke:#ffffff;stroke-width:0.75;" x="190.40215" xlink:href="#mbab4f327ed" y="201.125775"/>
     <use style="fill:#ff7f0e;stroke:#ffffff;stroke-width:0.75;" x="193.016958" xlink:href="#mbab4f327ed" y="201.817371"/>
     <use style="fill:#ff7f0e;stroke:#ffffff;stroke-width:0.75;" x="195.631766" xlink:href="#mbab4f327ed" y="202.496752"/>
     <use style="fill:#ff7f0e;stroke:#ffffff;stroke-width:0.75;" x="198.246574" xlink:href="#mbab4f327ed" y="203.371886"/>
     <use style="fill:#ff7f0e;stroke:#ffffff;stroke-width:0.75;" x="200.861382" xlink:href="#mbab4f327ed" y="204.209608"/>
     <use style="fill:#ff7f0e;stroke:#ffffff;stroke-width:0.75;" x="203.47619" xlink:href="#mbab4f327ed" y="204.978596"/>
     <use style="fill:#ff7f0e;stroke:#ffffff;stroke-width:0.75;" x="206.090998" xlink:href="#mbab4f327ed" y="205.513256"/>
     <use style="fill:#ff7f0e;stroke:#ffffff;stroke-width:0.75;" x="208.705806" xlink:href="#mbab4f327ed" y="206.86772"/>
     <use style="fill:#ff7f0e;stroke:#ffffff;stroke-width:0.75;" x="211.320613" xlink:href="#mbab4f327ed" y="209.110669"/>
     <use style="fill:#ff7f0e;stroke:#ffffff;stroke-width:0.75;" x="213.935421" xlink:href="#mbab4f327ed" y="211.182812"/>
     <use style="fill:#ff7f0e;stroke:#ffffff;stroke-width:0.75;" x="216.550229" xlink:href="#mbab4f327ed" y="212.187903"/>
     <use style="fill:#ff7f0e;stroke:#ffffff;stroke-width:0.75;" x="219.165037" xlink:href="#mbab4f327ed" y="214.553427"/>
     <use style="fill:#ff7f0e;stroke:#ffffff;stroke-width:0.75;" x="221.779845" xlink:href="#mbab4f327ed" y="215.51533"/>
     <use style="fill:#ff7f0e;stroke:#ffffff;stroke-width:0.75;" x="224.394653" xlink:href="#mbab4f327ed" y="216.291494"/>
     <use style="fill:#ff7f0e;stroke:#ffffff;stroke-width:0.75;" x="227.009461" xlink:href="#mbab4f327ed" y="217.024105"/>
     <use style="fill:#ff7f0e;stroke:#ffffff;stroke-width:0.75;" x="229.624269" xlink:href="#mbab4f327ed" y="221.686669"/>
     <use style="fill:#ff7f0e;stroke:#ffffff;stroke-width:0.75;" x="232.239076" xlink:href="#mbab4f327ed" y="222.608536"/>
     <use style="fill:#ff7f0e;stroke:#ffffff;stroke-width:0.75;" x="234.853884" xlink:href="#mbab4f327ed" y="223.308439"/>
     <use style="fill:#ff7f0e;stroke:#ffffff;stroke-width:0.75;" x="237.468692" xlink:href="#mbab4f327ed" y="223.866347"/>
     <use style="fill:#ff7f0e;stroke:#ffffff;stroke-width:0.75;" x="240.0835" xlink:href="#mbab4f327ed" y="226.760782"/>
     <use style="fill:#ff7f0e;stroke:#ffffff;stroke-width:0.75;" x="242.698308" xlink:href="#mbab4f327ed" y="227.889206"/>
     <use style="fill:#ff7f0e;stroke:#ffffff;stroke-width:0.75;" x="245.313116" xlink:href="#mbab4f327ed" y="230.550522"/>
     <use style="fill:#ff7f0e;stroke:#ffffff;stroke-width:0.75;" x="247.927924" xlink:href="#mbab4f327ed" y="231.676055"/>
     <use style="fill:#ff7f0e;stroke:#ffffff;stroke-width:0.75;" x="250.542732" xlink:href="#mbab4f327ed" y="233.043642"/>
     <use style="fill:#ff7f0e;stroke:#ffffff;stroke-width:0.75;" x="253.157539" xlink:href="#mbab4f327ed" y="234.05133"/>
     <use style="fill:#ff7f0e;stroke:#ffffff;stroke-width:0.75;" x="255.772347" xlink:href="#mbab4f327ed" y="235.88591"/>
     <use style="fill:#ff7f0e;stroke:#ffffff;stroke-width:0.75;" x="258.387155" xlink:href="#mbab4f327ed" y="236.44919"/>
     <use style="fill:#ff7f0e;stroke:#ffffff;stroke-width:0.75;" x="261.001963" xlink:href="#mbab4f327ed" y="237.819058"/>
     <use style="fill:#ff7f0e;stroke:#ffffff;stroke-width:0.75;" x="263.616771" xlink:href="#mbab4f327ed" y="238.595767"/>
     <use style="fill:#ff7f0e;stroke:#ffffff;stroke-width:0.75;" x="266.231579" xlink:href="#mbab4f327ed" y="240.609497"/>
     <use style="fill:#ff7f0e;stroke:#ffffff;stroke-width:0.75;" x="268.846387" xlink:href="#mbab4f327ed" y="241.111842"/>
     <use style="fill:#ff7f0e;stroke:#ffffff;stroke-width:0.75;" x="271.461194" xlink:href="#mbab4f327ed" y="241.866301"/>
     <use style="fill:#ff7f0e;stroke:#ffffff;stroke-width:0.75;" x="274.076002" xlink:href="#mbab4f327ed" y="243.045459"/>
     <use style="fill:#ff7f0e;stroke:#ffffff;stroke-width:0.75;" x="276.69081" xlink:href="#mbab4f327ed" y="243.832235"/>
     <use style="fill:#ff7f0e;stroke:#ffffff;stroke-width:0.75;" x="279.305618" xlink:href="#mbab4f327ed" y="244.677046"/>
     <use style="fill:#ff7f0e;stroke:#ffffff;stroke-width:0.75;" x="281.920426" xlink:href="#mbab4f327ed" y="245.888045"/>
     <use style="fill:#ff7f0e;stroke:#ffffff;stroke-width:0.75;" x="284.535234" xlink:href="#mbab4f327ed" y="246.409766"/>
     <use style="fill:#ff7f0e;stroke:#ffffff;stroke-width:0.75;" x="287.150042" xlink:href="#mbab4f327ed" y="247.358991"/>
     <use style="fill:#ff7f0e;stroke:#ffffff;stroke-width:0.75;" x="289.76485" xlink:href="#mbab4f327ed" y="248.216166"/>
     <use style="fill:#ff7f0e;stroke:#ffffff;stroke-width:0.75;" x="292.379657" xlink:href="#mbab4f327ed" y="248.834856"/>
     <use style="fill:#ff7f0e;stroke:#ffffff;stroke-width:0.75;" x="294.994465" xlink:href="#mbab4f327ed" y="251.097084"/>
     <use style="fill:#ff7f0e;stroke:#ffffff;stroke-width:0.75;" x="297.609273" xlink:href="#mbab4f327ed" y="253.232854"/>
     <use style="fill:#ff7f0e;stroke:#ffffff;stroke-width:0.75;" x="300.224081" xlink:href="#mbab4f327ed" y="255.173098"/>
     <use style="fill:#ff7f0e;stroke:#ffffff;stroke-width:0.75;" x="302.838889" xlink:href="#mbab4f327ed" y="255.974296"/>
     <use style="fill:#ff7f0e;stroke:#ffffff;stroke-width:0.75;" x="305.453697" xlink:href="#mbab4f327ed" y="256.527835"/>
     <use style="fill:#ff7f0e;stroke:#ffffff;stroke-width:0.75;" x="308.068505" xlink:href="#mbab4f327ed" y="257.490263"/>
     <use style="fill:#ff7f0e;stroke:#ffffff;stroke-width:0.75;" x="310.683313" xlink:href="#mbab4f327ed" y="260.027372"/>
     <use style="fill:#ff7f0e;stroke:#ffffff;stroke-width:0.75;" x="313.29812" xlink:href="#mbab4f327ed" y="260.699707"/>
     <use style="fill:#ff7f0e;stroke:#ffffff;stroke-width:0.75;" x="315.912928" xlink:href="#mbab4f327ed" y="261.665583"/>
     <use style="fill:#ff7f0e;stroke:#ffffff;stroke-width:0.75;" x="318.527736" xlink:href="#mbab4f327ed" y="262.583115"/>
     <use style="fill:#ff7f0e;stroke:#ffffff;stroke-width:0.75;" x="321.142544" xlink:href="#mbab4f327ed" y="263.224023"/>
     <use style="fill:#ff7f0e;stroke:#ffffff;stroke-width:0.75;" x="323.757352" xlink:href="#mbab4f327ed" y="264.368928"/>
     <use style="fill:#ff7f0e;stroke:#ffffff;stroke-width:0.75;" x="326.37216" xlink:href="#mbab4f327ed" y="264.979963"/>
     <use style="fill:#ff7f0e;stroke:#ffffff;stroke-width:0.75;" x="328.986968" xlink:href="#mbab4f327ed" y="265.583076"/>
     <use style="fill:#ff7f0e;stroke:#ffffff;stroke-width:0.75;" x="331.601776" xlink:href="#mbab4f327ed" y="266.645455"/>
    </g>
   </g>
   <g id="line2d_11">
    <path clip-path="url(#pf58eba68b7)" d="M 77.965412 33.309475 
L 80.58022 36.564012 
L 83.195028 39.965659 
L 85.809836 42.698002 
L 88.424643 44.28007 
L 91.039451 48.204559 
L 93.654259 49.453611 
L 96.269067 51.634992 
L 98.883875 55.06528 
L 101.498683 56.44667 
L 104.113491 58.567799 
L 106.728299 62.649055 
L 109.343106 63.490463 
L 111.957914 64.456427 
L 114.572722 65.513912 
L 117.18753 67.124032 
L 119.802338 68.008021 
L 122.417146 68.836171 
L 125.031954 69.67209 
L 127.646762 70.54111 
L 130.261569 83.476706 
L 132.876377 84.375903 
L 135.491185 91.644489 
L 138.105993 92.896072 
L 140.720801 93.763504 
L 143.335609 106.681117 
L 145.950417 107.300775 
L 148.565224 108.184534 
L 151.180032 116.783622 
L 153.79484 132.698652 
L 156.409648 139.177728 
L 159.024456 140.146779 
L 161.639264 140.846682 
L 164.254072 142.175563 
L 166.86888 142.752148 
L 169.483687 143.854044 
L 172.098495 144.943619 
L 174.713303 148.324988 
L 177.328111 157.635206 
L 179.942919 158.146074 
L 182.557727 158.920241 
L 185.172535 159.398154 
L 187.787343 160.091614 
L 190.40215 161.287549 
L 193.016958 167.623084 
L 195.631766 170.914077 
L 198.246574 172.728575 
L 200.861382 173.908012 
L 203.47619 174.518563 
L 206.090998 174.929738 
L 208.705806 176.200389 
L 211.320613 177.025991 
L 213.935421 177.455638 
L 216.550229 179.026659 
L 219.165037 179.579827 
L 221.779845 180.113862 
L 224.394653 180.536079 
L 227.009461 181.01043 
L 229.624269 182.035643 
L 232.239076 183.207003 
L 234.853884 199.386325 
L 237.468692 200.990837 
L 240.0835 201.474247 
L 242.698308 204.665442 
L 245.313116 205.318036 
L 247.927924 206.904817 
L 250.542732 207.96282 
L 253.157539 208.567083 
L 255.772347 210.488093 
L 258.387155 210.939706 
L 261.001963 211.87969 
L 263.616771 213.44202 
L 266.231579 214.615195 
L 268.846387 215.122721 
L 271.461194 215.721286 
L 274.076002 216.362396 
L 276.69081 223.517917 
L 279.305618 224.021614 
L 281.920426 227.622482 
L 284.535234 228.058971 
L 287.150042 228.448412 
L 289.76485 229.458383 
L 292.379657 231.132366 
L 294.994465 231.537918 
L 297.609273 232.103603 
L 300.224081 233.475444 
L 302.838889 234.580091 
L 305.453697 238.865433 
L 308.068505 239.262492 
L 310.683313 245.296259 
L 313.29812 245.595509 
L 315.912928 246.371091 
L 318.527736 247.29644 
L 321.142544 247.793628 
L 323.757352 248.141741 
L 326.37216 248.691263 
L 328.986968 249.216552 
L 331.601776 250.013291 
" style="fill:none;stroke:#2ca02c;stroke-linecap:round;stroke-width:1.5;"/>
    <defs>
     <path d="M 0 3 
C 0.795609 3 1.55874 2.683901 2.12132 2.12132 
C 2.683901 1.55874 3 0.795609 3 0 
C 3 -0.795609 2.683901 -1.55874 2.12132 -2.12132 
C 1.55874 -2.683901 0.795609 -3 0 -3 
C -0.795609 -3 -1.55874 -2.683901 -2.12132 -2.12132 
C -2.683901 -1.55874 -3 -0.795609 -3 0 
C -3 0.795609 -2.683901 1.55874 -2.12132 2.12132 
C -1.55874 2.683901 -0.795609 3 0 3 
z
" id="m8ea4691e62" style="stroke:#ffffff;stroke-width:0.75;"/>
    </defs>
    <g clip-path="url(#pf58eba68b7)">
     <use style="fill:#2ca02c;stroke:#ffffff;stroke-width:0.75;" x="77.965412" xlink:href="#m8ea4691e62" y="33.309475"/>
     <use style="fill:#2ca02c;stroke:#ffffff;stroke-width:0.75;" x="80.58022" xlink:href="#m8ea4691e62" y="36.564012"/>
     <use style="fill:#2ca02c;stroke:#ffffff;stroke-width:0.75;" x="83.195028" xlink:href="#m8ea4691e62" y="39.965659"/>
     <use style="fill:#2ca02c;stroke:#ffffff;stroke-width:0.75;" x="85.809836" xlink:href="#m8ea4691e62" y="42.698002"/>
     <use style="fill:#2ca02c;stroke:#ffffff;stroke-width:0.75;" x="88.424643" xlink:href="#m8ea4691e62" y="44.28007"/>
     <use style="fill:#2ca02c;stroke:#ffffff;stroke-width:0.75;" x="91.039451" xlink:href="#m8ea4691e62" y="48.204559"/>
     <use style="fill:#2ca02c;stroke:#ffffff;stroke-width:0.75;" x="93.654259" xlink:href="#m8ea4691e62" y="49.453611"/>
     <use style="fill:#2ca02c;stroke:#ffffff;stroke-width:0.75;" x="96.269067" xlink:href="#m8ea4691e62" y="51.634992"/>
     <use style="fill:#2ca02c;stroke:#ffffff;stroke-width:0.75;" x="98.883875" xlink:href="#m8ea4691e62" y="55.06528"/>
     <use style="fill:#2ca02c;stroke:#ffffff;stroke-width:0.75;" x="101.498683" xlink:href="#m8ea4691e62" y="56.44667"/>
     <use style="fill:#2ca02c;stroke:#ffffff;stroke-width:0.75;" x="104.113491" xlink:href="#m8ea4691e62" y="58.567799"/>
     <use style="fill:#2ca02c;stroke:#ffffff;stroke-width:0.75;" x="106.728299" xlink:href="#m8ea4691e62" y="62.649055"/>
     <use style="fill:#2ca02c;stroke:#ffffff;stroke-width:0.75;" x="109.343106" xlink:href="#m8ea4691e62" y="63.490463"/>
     <use style="fill:#2ca02c;stroke:#ffffff;stroke-width:0.75;" x="111.957914" xlink:href="#m8ea4691e62" y="64.456427"/>
     <use style="fill:#2ca02c;stroke:#ffffff;stroke-width:0.75;" x="114.572722" xlink:href="#m8ea4691e62" y="65.513912"/>
     <use style="fill:#2ca02c;stroke:#ffffff;stroke-width:0.75;" x="117.18753" xlink:href="#m8ea4691e62" y="67.124032"/>
     <use style="fill:#2ca02c;stroke:#ffffff;stroke-width:0.75;" x="119.802338" xlink:href="#m8ea4691e62" y="68.008021"/>
     <use style="fill:#2ca02c;stroke:#ffffff;stroke-width:0.75;" x="122.417146" xlink:href="#m8ea4691e62" y="68.836171"/>
     <use style="fill:#2ca02c;stroke:#ffffff;stroke-width:0.75;" x="125.031954" xlink:href="#m8ea4691e62" y="69.67209"/>
     <use style="fill:#2ca02c;stroke:#ffffff;stroke-width:0.75;" x="127.646762" xlink:href="#m8ea4691e62" y="70.54111"/>
     <use style="fill:#2ca02c;stroke:#ffffff;stroke-width:0.75;" x="130.261569" xlink:href="#m8ea4691e62" y="83.476706"/>
     <use style="fill:#2ca02c;stroke:#ffffff;stroke-width:0.75;" x="132.876377" xlink:href="#m8ea4691e62" y="84.375903"/>
     <use style="fill:#2ca02c;stroke:#ffffff;stroke-width:0.75;" x="135.491185" xlink:href="#m8ea4691e62" y="91.644489"/>
     <use style="fill:#2ca02c;stroke:#ffffff;stroke-width:0.75;" x="138.105993" xlink:href="#m8ea4691e62" y="92.896072"/>
     <use style="fill:#2ca02c;stroke:#ffffff;stroke-width:0.75;" x="140.720801" xlink:href="#m8ea4691e62" y="93.763504"/>
     <use style="fill:#2ca02c;stroke:#ffffff;stroke-width:0.75;" x="143.335609" xlink:href="#m8ea4691e62" y="106.681117"/>
     <use style="fill:#2ca02c;stroke:#ffffff;stroke-width:0.75;" x="145.950417" xlink:href="#m8ea4691e62" y="107.300775"/>
     <use style="fill:#2ca02c;stroke:#ffffff;stroke-width:0.75;" x="148.565224" xlink:href="#m8ea4691e62" y="108.184534"/>
     <use style="fill:#2ca02c;stroke:#ffffff;stroke-width:0.75;" x="151.180032" xlink:href="#m8ea4691e62" y="116.783622"/>
     <use style="fill:#2ca02c;stroke:#ffffff;stroke-width:0.75;" x="153.79484" xlink:href="#m8ea4691e62" y="132.698652"/>
     <use style="fill:#2ca02c;stroke:#ffffff;stroke-width:0.75;" x="156.409648" xlink:href="#m8ea4691e62" y="139.177728"/>
     <use style="fill:#2ca02c;stroke:#ffffff;stroke-width:0.75;" x="159.024456" xlink:href="#m8ea4691e62" y="140.146779"/>
     <use style="fill:#2ca02c;stroke:#ffffff;stroke-width:0.75;" x="161.639264" xlink:href="#m8ea4691e62" y="140.846682"/>
     <use style="fill:#2ca02c;stroke:#ffffff;stroke-width:0.75;" x="164.254072" xlink:href="#m8ea4691e62" y="142.175563"/>
     <use style="fill:#2ca02c;stroke:#ffffff;stroke-width:0.75;" x="166.86888" xlink:href="#m8ea4691e62" y="142.752148"/>
     <use style="fill:#2ca02c;stroke:#ffffff;stroke-width:0.75;" x="169.483687" xlink:href="#m8ea4691e62" y="143.854044"/>
     <use style="fill:#2ca02c;stroke:#ffffff;stroke-width:0.75;" x="172.098495" xlink:href="#m8ea4691e62" y="144.943619"/>
     <use style="fill:#2ca02c;stroke:#ffffff;stroke-width:0.75;" x="174.713303" xlink:href="#m8ea4691e62" y="148.324988"/>
     <use style="fill:#2ca02c;stroke:#ffffff;stroke-width:0.75;" x="177.328111" xlink:href="#m8ea4691e62" y="157.635206"/>
     <use style="fill:#2ca02c;stroke:#ffffff;stroke-width:0.75;" x="179.942919" xlink:href="#m8ea4691e62" y="158.146074"/>
     <use style="fill:#2ca02c;stroke:#ffffff;stroke-width:0.75;" x="182.557727" xlink:href="#m8ea4691e62" y="158.920241"/>
     <use style="fill:#2ca02c;stroke:#ffffff;stroke-width:0.75;" x="185.172535" xlink:href="#m8ea4691e62" y="159.398154"/>
     <use style="fill:#2ca02c;stroke:#ffffff;stroke-width:0.75;" x="187.787343" xlink:href="#m8ea4691e62" y="160.091614"/>
     <use style="fill:#2ca02c;stroke:#ffffff;stroke-width:0.75;" x="190.40215" xlink:href="#m8ea4691e62" y="161.287549"/>
     <use style="fill:#2ca02c;stroke:#ffffff;stroke-width:0.75;" x="193.016958" xlink:href="#m8ea4691e62" y="167.623084"/>
     <use style="fill:#2ca02c;stroke:#ffffff;stroke-width:0.75;" x="195.631766" xlink:href="#m8ea4691e62" y="170.914077"/>
     <use style="fill:#2ca02c;stroke:#ffffff;stroke-width:0.75;" x="198.246574" xlink:href="#m8ea4691e62" y="172.728575"/>
     <use style="fill:#2ca02c;stroke:#ffffff;stroke-width:0.75;" x="200.861382" xlink:href="#m8ea4691e62" y="173.908012"/>
     <use style="fill:#2ca02c;stroke:#ffffff;stroke-width:0.75;" x="203.47619" xlink:href="#m8ea4691e62" y="174.518563"/>
     <use style="fill:#2ca02c;stroke:#ffffff;stroke-width:0.75;" x="206.090998" xlink:href="#m8ea4691e62" y="174.929738"/>
     <use style="fill:#2ca02c;stroke:#ffffff;stroke-width:0.75;" x="208.705806" xlink:href="#m8ea4691e62" y="176.200389"/>
     <use style="fill:#2ca02c;stroke:#ffffff;stroke-width:0.75;" x="211.320613" xlink:href="#m8ea4691e62" y="177.025991"/>
     <use style="fill:#2ca02c;stroke:#ffffff;stroke-width:0.75;" x="213.935421" xlink:href="#m8ea4691e62" y="177.455638"/>
     <use style="fill:#2ca02c;stroke:#ffffff;stroke-width:0.75;" x="216.550229" xlink:href="#m8ea4691e62" y="179.026659"/>
     <use style="fill:#2ca02c;stroke:#ffffff;stroke-width:0.75;" x="219.165037" xlink:href="#m8ea4691e62" y="179.579827"/>
     <use style="fill:#2ca02c;stroke:#ffffff;stroke-width:0.75;" x="221.779845" xlink:href="#m8ea4691e62" y="180.113862"/>
     <use style="fill:#2ca02c;stroke:#ffffff;stroke-width:0.75;" x="224.394653" xlink:href="#m8ea4691e62" y="180.536079"/>
     <use style="fill:#2ca02c;stroke:#ffffff;stroke-width:0.75;" x="227.009461" xlink:href="#m8ea4691e62" y="181.01043"/>
     <use style="fill:#2ca02c;stroke:#ffffff;stroke-width:0.75;" x="229.624269" xlink:href="#m8ea4691e62" y="182.035643"/>
     <use style="fill:#2ca02c;stroke:#ffffff;stroke-width:0.75;" x="232.239076" xlink:href="#m8ea4691e62" y="183.207003"/>
     <use style="fill:#2ca02c;stroke:#ffffff;stroke-width:0.75;" x="234.853884" xlink:href="#m8ea4691e62" y="199.386325"/>
     <use style="fill:#2ca02c;stroke:#ffffff;stroke-width:0.75;" x="237.468692" xlink:href="#m8ea4691e62" y="200.990837"/>
     <use style="fill:#2ca02c;stroke:#ffffff;stroke-width:0.75;" x="240.0835" xlink:href="#m8ea4691e62" y="201.474247"/>
     <use style="fill:#2ca02c;stroke:#ffffff;stroke-width:0.75;" x="242.698308" xlink:href="#m8ea4691e62" y="204.665442"/>
     <use style="fill:#2ca02c;stroke:#ffffff;stroke-width:0.75;" x="245.313116" xlink:href="#m8ea4691e62" y="205.318036"/>
     <use style="fill:#2ca02c;stroke:#ffffff;stroke-width:0.75;" x="247.927924" xlink:href="#m8ea4691e62" y="206.904817"/>
     <use style="fill:#2ca02c;stroke:#ffffff;stroke-width:0.75;" x="250.542732" xlink:href="#m8ea4691e62" y="207.96282"/>
     <use style="fill:#2ca02c;stroke:#ffffff;stroke-width:0.75;" x="253.157539" xlink:href="#m8ea4691e62" y="208.567083"/>
     <use style="fill:#2ca02c;stroke:#ffffff;stroke-width:0.75;" x="255.772347" xlink:href="#m8ea4691e62" y="210.488093"/>
     <use style="fill:#2ca02c;stroke:#ffffff;stroke-width:0.75;" x="258.387155" xlink:href="#m8ea4691e62" y="210.939706"/>
     <use style="fill:#2ca02c;stroke:#ffffff;stroke-width:0.75;" x="261.001963" xlink:href="#m8ea4691e62" y="211.87969"/>
     <use style="fill:#2ca02c;stroke:#ffffff;stroke-width:0.75;" x="263.616771" xlink:href="#m8ea4691e62" y="213.44202"/>
     <use style="fill:#2ca02c;stroke:#ffffff;stroke-width:0.75;" x="266.231579" xlink:href="#m8ea4691e62" y="214.615195"/>
     <use style="fill:#2ca02c;stroke:#ffffff;stroke-width:0.75;" x="268.846387" xlink:href="#m8ea4691e62" y="215.122721"/>
     <use style="fill:#2ca02c;stroke:#ffffff;stroke-width:0.75;" x="271.461194" xlink:href="#m8ea4691e62" y="215.721286"/>
     <use style="fill:#2ca02c;stroke:#ffffff;stroke-width:0.75;" x="274.076002" xlink:href="#m8ea4691e62" y="216.362396"/>
     <use style="fill:#2ca02c;stroke:#ffffff;stroke-width:0.75;" x="276.69081" xlink:href="#m8ea4691e62" y="223.517917"/>
     <use style="fill:#2ca02c;stroke:#ffffff;stroke-width:0.75;" x="279.305618" xlink:href="#m8ea4691e62" y="224.021614"/>
     <use style="fill:#2ca02c;stroke:#ffffff;stroke-width:0.75;" x="281.920426" xlink:href="#m8ea4691e62" y="227.622482"/>
     <use style="fill:#2ca02c;stroke:#ffffff;stroke-width:0.75;" x="284.535234" xlink:href="#m8ea4691e62" y="228.058971"/>
     <use style="fill:#2ca02c;stroke:#ffffff;stroke-width:0.75;" x="287.150042" xlink:href="#m8ea4691e62" y="228.448412"/>
     <use style="fill:#2ca02c;stroke:#ffffff;stroke-width:0.75;" x="289.76485" xlink:href="#m8ea4691e62" y="229.458383"/>
     <use style="fill:#2ca02c;stroke:#ffffff;stroke-width:0.75;" x="292.379657" xlink:href="#m8ea4691e62" y="231.132366"/>
     <use style="fill:#2ca02c;stroke:#ffffff;stroke-width:0.75;" x="294.994465" xlink:href="#m8ea4691e62" y="231.537918"/>
     <use style="fill:#2ca02c;stroke:#ffffff;stroke-width:0.75;" x="297.609273" xlink:href="#m8ea4691e62" y="232.103603"/>
     <use style="fill:#2ca02c;stroke:#ffffff;stroke-width:0.75;" x="300.224081" xlink:href="#m8ea4691e62" y="233.475444"/>
     <use style="fill:#2ca02c;stroke:#ffffff;stroke-width:0.75;" x="302.838889" xlink:href="#m8ea4691e62" y="234.580091"/>
     <use style="fill:#2ca02c;stroke:#ffffff;stroke-width:0.75;" x="305.453697" xlink:href="#m8ea4691e62" y="238.865433"/>
     <use style="fill:#2ca02c;stroke:#ffffff;stroke-width:0.75;" x="308.068505" xlink:href="#m8ea4691e62" y="239.262492"/>
     <use style="fill:#2ca02c;stroke:#ffffff;stroke-width:0.75;" x="310.683313" xlink:href="#m8ea4691e62" y="245.296259"/>
     <use style="fill:#2ca02c;stroke:#ffffff;stroke-width:0.75;" x="313.29812" xlink:href="#m8ea4691e62" y="245.595509"/>
     <use style="fill:#2ca02c;stroke:#ffffff;stroke-width:0.75;" x="315.912928" xlink:href="#m8ea4691e62" y="246.371091"/>
     <use style="fill:#2ca02c;stroke:#ffffff;stroke-width:0.75;" x="318.527736" xlink:href="#m8ea4691e62" y="247.29644"/>
     <use style="fill:#2ca02c;stroke:#ffffff;stroke-width:0.75;" x="321.142544" xlink:href="#m8ea4691e62" y="247.793628"/>
     <use style="fill:#2ca02c;stroke:#ffffff;stroke-width:0.75;" x="323.757352" xlink:href="#m8ea4691e62" y="248.141741"/>
     <use style="fill:#2ca02c;stroke:#ffffff;stroke-width:0.75;" x="326.37216" xlink:href="#m8ea4691e62" y="248.691263"/>
     <use style="fill:#2ca02c;stroke:#ffffff;stroke-width:0.75;" x="328.986968" xlink:href="#m8ea4691e62" y="249.216552"/>
     <use style="fill:#2ca02c;stroke:#ffffff;stroke-width:0.75;" x="331.601776" xlink:href="#m8ea4691e62" y="250.013291"/>
    </g>
   </g>
   <g id="line2d_12"/>
   <g id="line2d_13"/>
   <g id="line2d_14"/>
   <g id="line2d_15"/>
   <g id="patch_3">
    <path d="M 65.283594 279 
L 344.283594 279 
" style="fill:none;stroke:#cccccc;stroke-linecap:square;stroke-linejoin:miter;stroke-width:0.8;"/>
   </g>
   <g id="legend_1">
    <g id="patch_4">
     <path d="M 224.923438 104.423438 
L 333.783594 104.423438 
Q 336.783594 104.423438 336.783594 101.423438 
L 336.783594 17.7 
Q 336.783594 14.7 333.783594 14.7 
L 224.923438 14.7 
Q 221.923438 14.7 221.923438 17.7 
L 221.923438 101.423438 
Q 221.923438 104.423438 224.923438 104.423438 
z
" style="fill:#ffffff;opacity:0.8;stroke:#cccccc;stroke-linejoin:miter;"/>
    </g>
    <g id="text_17">
     <!-- Method -->
     <defs>
      <path d="M 7.421875 0 
L 7.421875 71.578125 
L 21.6875 71.578125 
L 38.625 20.90625 
Q 40.96875 13.8125 42.046875 10.296875 
Q 43.265625 14.203125 45.84375 21.78125 
L 62.984375 71.578125 
L 75.734375 71.578125 
L 75.734375 0 
L 66.609375 0 
L 66.609375 59.90625 
L 45.796875 0 
L 37.25 0 
L 16.546875 60.9375 
L 16.546875 0 
z
" id="ArialMT-77"/>
      <path d="M 40.234375 0 
L 40.234375 6.546875 
Q 35.296875 -1.171875 25.734375 -1.171875 
Q 19.53125 -1.171875 14.328125 2.25 
Q 9.125 5.671875 6.265625 11.796875 
Q 3.421875 17.921875 3.421875 25.875 
Q 3.421875 33.640625 6 39.96875 
Q 8.59375 46.296875 13.765625 49.65625 
Q 18.953125 53.03125 25.34375 53.03125 
Q 30.03125 53.03125 33.6875 51.046875 
Q 37.359375 49.078125 39.65625 45.90625 
L 39.65625 71.578125 
L 48.390625 71.578125 
L 48.390625 0 
z
M 12.453125 25.875 
Q 12.453125 15.921875 16.640625 10.984375 
Q 20.84375 6.0625 26.5625 6.0625 
Q 32.328125 6.0625 36.34375 10.765625 
Q 40.375 15.484375 40.375 25.140625 
Q 40.375 35.796875 36.265625 40.765625 
Q 32.171875 45.75 26.171875 45.75 
Q 20.3125 45.75 16.375 40.96875 
Q 12.453125 36.1875 12.453125 25.875 
z
" id="ArialMT-100"/>
     </defs>
     <g style="fill:#262626;" transform="translate(254.339844 31.436719)scale(0.15 -0.15)">
      <use xlink:href="#ArialMT-77"/>
      <use x="83.300781" xlink:href="#ArialMT-101"/>
      <use x="138.916016" xlink:href="#ArialMT-116"/>
      <use x="166.699219" xlink:href="#ArialMT-104"/>
      <use x="222.314453" xlink:href="#ArialMT-111"/>
      <use x="277.929688" xlink:href="#ArialMT-100"/>
     </g>
    </g>
    <g id="line2d_16">
     <path d="M 227.923438 47.404688 
L 257.923438 47.404688 
" style="fill:none;stroke:#1f77b4;stroke-linecap:round;stroke-width:1.5;"/>
    </g>
    <g id="line2d_17">
     <g>
      <use style="fill:#1f77b4;stroke:#ffffff;stroke-width:0.75;" x="242.923438" xlink:href="#mdaac728deb" y="47.404688"/>
     </g>
    </g>
    <g id="text_18">
     <!-- single -->
     <defs>
      <path d="M 4.984375 -4.296875 
L 13.53125 -5.5625 
Q 14.0625 -9.515625 16.5 -11.328125 
Q 19.78125 -13.765625 25.4375 -13.765625 
Q 31.546875 -13.765625 34.859375 -11.328125 
Q 38.1875 -8.890625 39.359375 -4.5 
Q 40.046875 -1.8125 39.984375 6.78125 
Q 34.234375 0 25.640625 0 
Q 14.9375 0 9.078125 7.71875 
Q 3.21875 15.4375 3.21875 26.21875 
Q 3.21875 33.640625 5.90625 39.90625 
Q 8.59375 46.1875 13.6875 49.609375 
Q 18.796875 53.03125 25.6875 53.03125 
Q 34.859375 53.03125 40.828125 45.609375 
L 40.828125 51.859375 
L 48.921875 51.859375 
L 48.921875 7.03125 
Q 48.921875 -5.078125 46.453125 -10.125 
Q 44 -15.1875 38.640625 -18.109375 
Q 33.296875 -21.046875 25.484375 -21.046875 
Q 16.21875 -21.046875 10.5 -16.875 
Q 4.78125 -12.703125 4.984375 -4.296875 
z
M 12.25 26.859375 
Q 12.25 16.65625 16.296875 11.96875 
Q 20.359375 7.28125 26.46875 7.28125 
Q 32.515625 7.28125 36.609375 11.9375 
Q 40.71875 16.609375 40.71875 26.5625 
Q 40.71875 36.078125 36.5 40.90625 
Q 32.28125 45.75 26.3125 45.75 
Q 20.453125 45.75 16.34375 40.984375 
Q 12.25 36.234375 12.25 26.859375 
z
" id="ArialMT-103"/>
     </defs>
     <g style="fill:#262626;" transform="translate(269.923438 52.654688)scale(0.15 -0.15)">
      <use xlink:href="#ArialMT-115"/>
      <use x="50" xlink:href="#ArialMT-105"/>
      <use x="72.216797" xlink:href="#ArialMT-110"/>
      <use x="127.832031" xlink:href="#ArialMT-103"/>
      <use x="183.447266" xlink:href="#ArialMT-108"/>
      <use x="205.664062" xlink:href="#ArialMT-101"/>
     </g>
    </g>
    <g id="line2d_18">
     <path d="M 227.923438 68.798438 
L 257.923438 68.798438 
" style="fill:none;stroke:#ff7f0e;stroke-linecap:round;stroke-width:1.5;"/>
    </g>
    <g id="line2d_19">
     <g>
      <use style="fill:#ff7f0e;stroke:#ffffff;stroke-width:0.75;" x="242.923438" xlink:href="#mbab4f327ed" y="68.798438"/>
     </g>
    </g>
    <g id="text_19">
     <!-- complete -->
     <defs>
      <path d="M 40.4375 19 
L 49.078125 17.875 
Q 47.65625 8.9375 41.8125 3.875 
Q 35.984375 -1.171875 27.484375 -1.171875 
Q 16.84375 -1.171875 10.375 5.78125 
Q 3.90625 12.75 3.90625 25.734375 
Q 3.90625 34.125 6.6875 40.421875 
Q 9.46875 46.734375 15.15625 49.875 
Q 20.84375 53.03125 27.546875 53.03125 
Q 35.984375 53.03125 41.359375 48.75 
Q 46.734375 44.484375 48.25 36.625 
L 39.703125 35.296875 
Q 38.484375 40.53125 35.375 43.15625 
Q 32.28125 45.796875 27.875 45.796875 
Q 21.234375 45.796875 17.078125 41.03125 
Q 12.9375 36.28125 12.9375 25.984375 
Q 12.9375 15.53125 16.9375 10.796875 
Q 20.953125 6.0625 27.390625 6.0625 
Q 32.5625 6.0625 36.03125 9.234375 
Q 39.5 12.40625 40.4375 19 
z
" id="ArialMT-99"/>
      <path d="M 6.59375 0 
L 6.59375 51.859375 
L 14.453125 51.859375 
L 14.453125 44.578125 
Q 16.890625 48.390625 20.9375 50.703125 
Q 25 53.03125 30.171875 53.03125 
Q 35.9375 53.03125 39.625 50.640625 
Q 43.3125 48.25 44.828125 43.953125 
Q 50.984375 53.03125 60.84375 53.03125 
Q 68.5625 53.03125 72.703125 48.75 
Q 76.859375 44.484375 76.859375 35.59375 
L 76.859375 0 
L 68.109375 0 
L 68.109375 32.671875 
Q 68.109375 37.9375 67.25 40.25 
Q 66.40625 42.578125 64.15625 43.984375 
Q 61.921875 45.40625 58.890625 45.40625 
Q 53.421875 45.40625 49.796875 41.765625 
Q 46.1875 38.140625 46.1875 30.125 
L 46.1875 0 
L 37.40625 0 
L 37.40625 33.6875 
Q 37.40625 39.546875 35.25 42.46875 
Q 33.109375 45.40625 28.21875 45.40625 
Q 24.515625 45.40625 21.359375 43.453125 
Q 18.21875 41.5 16.796875 37.734375 
Q 15.375 33.984375 15.375 26.90625 
L 15.375 0 
z
" id="ArialMT-109"/>
      <path d="M 6.59375 -19.875 
L 6.59375 51.859375 
L 14.59375 51.859375 
L 14.59375 45.125 
Q 17.4375 49.078125 21 51.046875 
Q 24.5625 53.03125 29.640625 53.03125 
Q 36.28125 53.03125 41.359375 49.609375 
Q 46.4375 46.1875 49.015625 39.953125 
Q 51.609375 33.734375 51.609375 26.3125 
Q 51.609375 18.359375 48.75 11.984375 
Q 45.90625 5.609375 40.453125 2.21875 
Q 35.015625 -1.171875 29 -1.171875 
Q 24.609375 -1.171875 21.109375 0.6875 
Q 17.625 2.546875 15.375 5.375 
L 15.375 -19.875 
z
M 14.546875 25.640625 
Q 14.546875 15.625 18.59375 10.84375 
Q 22.65625 6.0625 28.421875 6.0625 
Q 34.28125 6.0625 38.453125 11.015625 
Q 42.625 15.96875 42.625 26.375 
Q 42.625 36.28125 38.546875 41.203125 
Q 34.46875 46.140625 28.8125 46.140625 
Q 23.1875 46.140625 18.859375 40.890625 
Q 14.546875 35.640625 14.546875 25.640625 
z
" id="ArialMT-112"/>
     </defs>
     <g style="fill:#262626;" transform="translate(269.923438 74.048438)scale(0.15 -0.15)">
      <use xlink:href="#ArialMT-99"/>
      <use x="50" xlink:href="#ArialMT-111"/>
      <use x="105.615234" xlink:href="#ArialMT-109"/>
      <use x="188.916016" xlink:href="#ArialMT-112"/>
      <use x="244.53125" xlink:href="#ArialMT-108"/>
      <use x="266.748047" xlink:href="#ArialMT-101"/>
      <use x="322.363281" xlink:href="#ArialMT-116"/>
      <use x="350.146484" xlink:href="#ArialMT-101"/>
     </g>
    </g>
    <g id="line2d_20">
     <path d="M 227.923438 90.016406 
L 257.923438 90.016406 
" style="fill:none;stroke:#2ca02c;stroke-linecap:round;stroke-width:1.5;"/>
    </g>
    <g id="line2d_21">
     <g>
      <use style="fill:#2ca02c;stroke:#ffffff;stroke-width:0.75;" x="242.923438" xlink:href="#m8ea4691e62" y="90.016406"/>
     </g>
    </g>
    <g id="text_20">
     <!-- weighted -->
     <defs>
      <path d="M 16.15625 0 
L 0.296875 51.859375 
L 9.375 51.859375 
L 17.625 21.921875 
L 20.703125 10.796875 
Q 20.90625 11.625 23.390625 21.484375 
L 31.640625 51.859375 
L 40.671875 51.859375 
L 48.4375 21.78125 
L 51.03125 11.859375 
L 54 21.875 
L 62.890625 51.859375 
L 71.4375 51.859375 
L 55.21875 0 
L 46.09375 0 
L 37.84375 31.0625 
L 35.84375 39.890625 
L 25.34375 0 
z
" id="ArialMT-119"/>
     </defs>
     <g style="fill:#262626;" transform="translate(269.923438 95.266406)scale(0.15 -0.15)">
      <use xlink:href="#ArialMT-119"/>
      <use x="72.216797" xlink:href="#ArialMT-101"/>
      <use x="127.832031" xlink:href="#ArialMT-105"/>
      <use x="150.048828" xlink:href="#ArialMT-103"/>
      <use x="205.664062" xlink:href="#ArialMT-104"/>
      <use x="261.279297" xlink:href="#ArialMT-116"/>
      <use x="289.0625" xlink:href="#ArialMT-101"/>
      <use x="344.677734" xlink:href="#ArialMT-100"/>
     </g>
    </g>
   </g>
  </g>
 </g>
 <defs>
  <clipPath id="pf58eba68b7">
   <rect height="271.8" width="279" x="65.283594" y="7.2"/>
  </clipPath>
 </defs>
</svg>
