<?xml version="1.0" encoding="utf-8" standalone="no"?>
<!DOCTYPE svg PUBLIC "-//W3C//DTD SVG 1.1//EN"
  "http://www.w3.org/Graphics/SVG/1.1/DTD/svg11.dtd">
<!-- Created with matplotlib (https://matplotlib.org/) -->
<svg height="324.635938pt" version="1.1" viewBox="0 0 337.24588 324.635938" width="337.24588pt" xmlns="http://www.w3.org/2000/svg" xmlns:xlink="http://www.w3.org/1999/xlink">
 <defs>
  <style type="text/css">
*{stroke-linecap:butt;stroke-linejoin:round;}
  </style>
 </defs>
 <g id="figure_1">
  <g id="patch_1">
   <path d="M 0 324.635938 
L 337.24588 324.635938 
L 337.24588 0 
L 0 0 
z
" style="fill:#ffffff;"/>
  </g>
  <g id="axes_1">
   <g id="patch_2">
    <path d="M 48.600781 279 
L 327.600781 279 
L 327.600781 7.2 
L 48.600781 7.2 
z
" style="fill:#ffffff;"/>
   </g>
   <g id="matplotlib.axis_1">
    <g id="xtick_1">
     <g id="text_1">
      <!-- 0 -->
      <defs>
       <path d="M 4.15625 35.296875 
Q 4.15625 48 6.765625 55.734375 
Q 9.375 63.484375 14.515625 67.671875 
Q 19.671875 71.875 27.484375 71.875 
Q 33.25 71.875 37.59375 69.546875 
Q 41.9375 67.234375 44.765625 62.859375 
Q 47.609375 58.5 49.21875 52.21875 
Q 50.828125 45.953125 50.828125 35.296875 
Q 50.828125 22.703125 48.234375 14.96875 
Q 45.65625 7.234375 40.5 3 
Q 35.359375 -1.21875 27.484375 -1.21875 
Q 17.140625 -1.21875 11.234375 6.203125 
Q 4.15625 15.140625 4.15625 35.296875 
z
M 13.1875 35.296875 
Q 13.1875 17.671875 17.3125 11.828125 
Q 21.4375 6 27.484375 6 
Q 33.546875 6 37.671875 11.859375 
Q 41.796875 17.71875 41.796875 35.296875 
Q 41.796875 52.984375 37.671875 58.78125 
Q 33.546875 64.59375 27.390625 64.59375 
Q 21.34375 64.59375 17.71875 59.46875 
Q 13.1875 52.9375 13.1875 35.296875 
z
" id="ArialMT-48"/>
      </defs>
      <g style="fill:#262626;" transform="translate(51.882281 296.736719)scale(0.15 -0.15)">
       <use xlink:href="#ArialMT-48"/>
      </g>
     </g>
    </g>
    <g id="xtick_2">
     <g id="text_2">
      <!-- 20 -->
      <defs>
       <path d="M 50.34375 8.453125 
L 50.34375 0 
L 3.03125 0 
Q 2.9375 3.171875 4.046875 6.109375 
Q 5.859375 10.9375 9.828125 15.625 
Q 13.8125 20.3125 21.34375 26.46875 
Q 33.015625 36.03125 37.109375 41.625 
Q 41.21875 47.21875 41.21875 52.203125 
Q 41.21875 57.421875 37.46875 61 
Q 33.734375 64.59375 27.734375 64.59375 
Q 21.390625 64.59375 17.578125 60.78125 
Q 13.765625 56.984375 13.71875 50.25 
L 4.6875 51.171875 
Q 5.609375 61.28125 11.65625 66.578125 
Q 17.71875 71.875 27.9375 71.875 
Q 38.234375 71.875 44.234375 66.15625 
Q 50.25 60.453125 50.25 52 
Q 50.25 47.703125 48.484375 43.546875 
Q 46.734375 39.40625 42.65625 34.8125 
Q 38.578125 30.21875 29.109375 22.21875 
Q 21.1875 15.578125 18.9375 13.203125 
Q 16.703125 10.84375 15.234375 8.453125 
z
" id="ArialMT-50"/>
      </defs>
      <g style="fill:#262626;" transform="translate(100.007735 296.736719)scale(0.15 -0.15)">
       <use xlink:href="#ArialMT-50"/>
       <use x="55.615234" xlink:href="#ArialMT-48"/>
      </g>
     </g>
    </g>
    <g id="xtick_3">
     <g id="text_3">
      <!-- 40 -->
      <defs>
       <path d="M 32.328125 0 
L 32.328125 17.140625 
L 1.265625 17.140625 
L 1.265625 25.203125 
L 33.9375 71.578125 
L 41.109375 71.578125 
L 41.109375 25.203125 
L 50.78125 25.203125 
L 50.78125 17.140625 
L 41.109375 17.140625 
L 41.109375 0 
z
M 32.328125 25.203125 
L 32.328125 57.46875 
L 9.90625 25.203125 
z
" id="ArialMT-52"/>
      </defs>
      <g style="fill:#262626;" transform="translate(152.303892 296.736719)scale(0.15 -0.15)">
       <use xlink:href="#ArialMT-52"/>
       <use x="55.615234" xlink:href="#ArialMT-48"/>
      </g>
     </g>
    </g>
    <g id="xtick_4">
     <g id="text_4">
      <!-- 60 -->
      <defs>
       <path d="M 49.75 54.046875 
L 41.015625 53.375 
Q 39.84375 58.546875 37.703125 60.890625 
Q 34.125 64.65625 28.90625 64.65625 
Q 24.703125 64.65625 21.53125 62.3125 
Q 17.390625 59.28125 14.984375 53.46875 
Q 12.59375 47.65625 12.5 36.921875 
Q 15.671875 41.75 20.265625 44.09375 
Q 24.859375 46.4375 29.890625 46.4375 
Q 38.671875 46.4375 44.84375 39.96875 
Q 51.03125 33.5 51.03125 23.25 
Q 51.03125 16.5 48.125 10.71875 
Q 45.21875 4.9375 40.140625 1.859375 
Q 35.0625 -1.21875 28.609375 -1.21875 
Q 17.625 -1.21875 10.6875 6.859375 
Q 3.765625 14.9375 3.765625 33.5 
Q 3.765625 54.25 11.421875 63.671875 
Q 18.109375 71.875 29.4375 71.875 
Q 37.890625 71.875 43.28125 67.140625 
Q 48.6875 62.40625 49.75 54.046875 
z
M 13.875 23.1875 
Q 13.875 18.65625 15.796875 14.5 
Q 17.71875 10.359375 21.1875 8.171875 
Q 24.65625 6 28.46875 6 
Q 34.03125 6 38.03125 10.484375 
Q 42.046875 14.984375 42.046875 22.703125 
Q 42.046875 30.125 38.078125 34.390625 
Q 34.125 38.671875 28.125 38.671875 
Q 22.171875 38.671875 18.015625 34.390625 
Q 13.875 30.125 13.875 23.1875 
z
" id="ArialMT-54"/>
      </defs>
      <g style="fill:#262626;" transform="translate(204.60005 296.736719)scale(0.15 -0.15)">
       <use xlink:href="#ArialMT-54"/>
       <use x="55.615234" xlink:href="#ArialMT-48"/>
      </g>
     </g>
    </g>
    <g id="xtick_5">
     <g id="text_5">
      <!-- 80 -->
      <defs>
       <path d="M 17.671875 38.8125 
Q 12.203125 40.828125 9.5625 44.53125 
Q 6.9375 48.25 6.9375 53.421875 
Q 6.9375 61.234375 12.546875 66.546875 
Q 18.171875 71.875 27.484375 71.875 
Q 36.859375 71.875 42.578125 66.421875 
Q 48.296875 60.984375 48.296875 53.171875 
Q 48.296875 48.1875 45.671875 44.5 
Q 43.0625 40.828125 37.75 38.8125 
Q 44.34375 36.671875 47.78125 31.875 
Q 51.21875 27.09375 51.21875 20.453125 
Q 51.21875 11.28125 44.71875 5.03125 
Q 38.234375 -1.21875 27.640625 -1.21875 
Q 17.046875 -1.21875 10.546875 5.046875 
Q 4.046875 11.328125 4.046875 20.703125 
Q 4.046875 27.6875 7.59375 32.390625 
Q 11.140625 37.109375 17.671875 38.8125 
z
M 15.921875 53.71875 
Q 15.921875 48.640625 19.1875 45.40625 
Q 22.46875 42.1875 27.6875 42.1875 
Q 32.765625 42.1875 36.015625 45.375 
Q 39.265625 48.578125 39.265625 53.21875 
Q 39.265625 58.0625 35.90625 61.359375 
Q 32.5625 64.65625 27.59375 64.65625 
Q 22.5625 64.65625 19.234375 61.421875 
Q 15.921875 58.203125 15.921875 53.71875 
z
M 13.09375 20.65625 
Q 13.09375 16.890625 14.875 13.375 
Q 16.65625 9.859375 20.171875 7.921875 
Q 23.6875 6 27.734375 6 
Q 34.03125 6 38.125 10.046875 
Q 42.234375 14.109375 42.234375 20.359375 
Q 42.234375 26.703125 38.015625 30.859375 
Q 33.796875 35.015625 27.4375 35.015625 
Q 21.234375 35.015625 17.15625 30.90625 
Q 13.09375 26.8125 13.09375 20.65625 
z
" id="ArialMT-56"/>
      </defs>
      <g style="fill:#262626;" transform="translate(256.896207 296.736719)scale(0.15 -0.15)">
       <use xlink:href="#ArialMT-56"/>
       <use x="55.615234" xlink:href="#ArialMT-48"/>
      </g>
     </g>
    </g>
    <g id="xtick_6">
     <g id="text_6">
      <!-- 100 -->
      <defs>
       <path d="M 37.25 0 
L 28.46875 0 
L 28.46875 56 
Q 25.296875 52.984375 20.140625 49.953125 
Q 14.984375 46.921875 10.890625 45.40625 
L 10.890625 53.90625 
Q 18.265625 57.375 23.78125 62.296875 
Q 29.296875 67.234375 31.59375 71.875 
L 37.25 71.875 
z
" id="ArialMT-49"/>
      </defs>
      <g style="fill:#262626;" transform="translate(305.021662 296.736719)scale(0.15 -0.15)">
       <use xlink:href="#ArialMT-49"/>
       <use x="55.615234" xlink:href="#ArialMT-48"/>
       <use x="111.230469" xlink:href="#ArialMT-48"/>
      </g>
     </g>
    </g>
    <g id="text_7">
     <!-- k -->
     <defs>
      <path d="M 6.640625 0 
L 6.640625 71.578125 
L 15.4375 71.578125 
L 15.4375 30.765625 
L 36.234375 51.859375 
L 47.609375 51.859375 
L 27.78125 32.625 
L 49.609375 0 
L 38.765625 0 
L 21.625 26.515625 
L 15.4375 20.5625 
L 15.4375 0 
z
" id="ArialMT-107"/>
     </defs>
     <g style="fill:#262626;" transform="translate(184.350781 314.454688)scale(0.15 -0.15)">
      <use xlink:href="#ArialMT-107"/>
     </g>
    </g>
   </g>
   <g id="matplotlib.axis_2">
    <g id="ytick_1">
     <g id="line2d_1">
      <path clip-path="url(#p910f2f448e)" d="M 48.600781 252.458948 
L 327.600781 252.458948 
" style="fill:none;stroke:#cccccc;stroke-linecap:round;stroke-width:0.8;"/>
     </g>
     <g id="text_8">
      <!-- 5 -->
      <defs>
       <path d="M 4.15625 18.75 
L 13.375 19.53125 
Q 14.40625 12.796875 18.140625 9.390625 
Q 21.875 6 27.15625 6 
Q 33.5 6 37.890625 10.78125 
Q 42.28125 15.578125 42.28125 23.484375 
Q 42.28125 31 38.0625 35.34375 
Q 33.84375 39.703125 27 39.703125 
Q 22.75 39.703125 19.328125 37.765625 
Q 15.921875 35.84375 13.96875 32.765625 
L 5.71875 33.84375 
L 12.640625 70.609375 
L 48.25 70.609375 
L 48.25 62.203125 
L 19.671875 62.203125 
L 15.828125 42.96875 
Q 22.265625 47.46875 29.34375 47.46875 
Q 38.71875 47.46875 45.15625 40.96875 
Q 51.609375 34.46875 51.609375 24.265625 
Q 51.609375 14.546875 45.953125 7.46875 
Q 39.0625 -1.21875 27.15625 -1.21875 
Q 17.390625 -1.21875 11.203125 4.25 
Q 5.03125 9.71875 4.15625 18.75 
z
" id="ArialMT-53"/>
      </defs>
      <g style="fill:#262626;" transform="translate(33.259375 257.827308)scale(0.15 -0.15)">
       <use xlink:href="#ArialMT-53"/>
      </g>
     </g>
    </g>
    <g id="ytick_2">
     <g id="line2d_2">
      <path clip-path="url(#p910f2f448e)" d="M 48.600781 220.334025 
L 327.600781 220.334025 
" style="fill:none;stroke:#cccccc;stroke-linecap:round;stroke-width:0.8;"/>
     </g>
     <g id="text_9">
      <!-- 10 -->
      <g style="fill:#262626;" transform="translate(24.917969 225.702385)scale(0.15 -0.15)">
       <use xlink:href="#ArialMT-49"/>
       <use x="55.615234" xlink:href="#ArialMT-48"/>
      </g>
     </g>
    </g>
    <g id="ytick_3">
     <g id="line2d_3">
      <path clip-path="url(#p910f2f448e)" d="M 48.600781 188.209103 
L 327.600781 188.209103 
" style="fill:none;stroke:#cccccc;stroke-linecap:round;stroke-width:0.8;"/>
     </g>
     <g id="text_10">
      <!-- 15 -->
      <g style="fill:#262626;" transform="translate(24.917969 193.577462)scale(0.15 -0.15)">
       <use xlink:href="#ArialMT-49"/>
       <use x="55.615234" xlink:href="#ArialMT-53"/>
      </g>
     </g>
    </g>
    <g id="ytick_4">
     <g id="line2d_4">
      <path clip-path="url(#p910f2f448e)" d="M 48.600781 156.08418 
L 327.600781 156.08418 
" style="fill:none;stroke:#cccccc;stroke-linecap:round;stroke-width:0.8;"/>
     </g>
     <g id="text_11">
      <!-- 20 -->
      <g style="fill:#262626;" transform="translate(24.917969 161.452539)scale(0.15 -0.15)">
       <use xlink:href="#ArialMT-50"/>
       <use x="55.615234" xlink:href="#ArialMT-48"/>
      </g>
     </g>
    </g>
    <g id="ytick_5">
     <g id="line2d_5">
      <path clip-path="url(#p910f2f448e)" d="M 48.600781 123.959257 
L 327.600781 123.959257 
" style="fill:none;stroke:#cccccc;stroke-linecap:round;stroke-width:0.8;"/>
     </g>
     <g id="text_12">
      <!-- 25 -->
      <g style="fill:#262626;" transform="translate(24.917969 129.327616)scale(0.15 -0.15)">
       <use xlink:href="#ArialMT-50"/>
       <use x="55.615234" xlink:href="#ArialMT-53"/>
      </g>
     </g>
    </g>
    <g id="ytick_6">
     <g id="line2d_6">
      <path clip-path="url(#p910f2f448e)" d="M 48.600781 91.834334 
L 327.600781 91.834334 
" style="fill:none;stroke:#cccccc;stroke-linecap:round;stroke-width:0.8;"/>
     </g>
     <g id="text_13">
      <!-- 30 -->
      <defs>
       <path d="M 4.203125 18.890625 
L 12.984375 20.0625 
Q 14.5 12.59375 18.140625 9.296875 
Q 21.78125 6 27 6 
Q 33.203125 6 37.46875 10.296875 
Q 41.75 14.59375 41.75 20.953125 
Q 41.75 27 37.796875 30.921875 
Q 33.84375 34.859375 27.734375 34.859375 
Q 25.25 34.859375 21.53125 33.890625 
L 22.515625 41.609375 
Q 23.390625 41.5 23.921875 41.5 
Q 29.546875 41.5 34.03125 44.421875 
Q 38.53125 47.359375 38.53125 53.46875 
Q 38.53125 58.296875 35.25 61.46875 
Q 31.984375 64.65625 26.8125 64.65625 
Q 21.6875 64.65625 18.265625 61.421875 
Q 14.84375 58.203125 13.875 51.765625 
L 5.078125 53.328125 
Q 6.6875 62.15625 12.390625 67.015625 
Q 18.109375 71.875 26.609375 71.875 
Q 32.46875 71.875 37.390625 69.359375 
Q 42.328125 66.84375 44.9375 62.5 
Q 47.5625 58.15625 47.5625 53.265625 
Q 47.5625 48.640625 45.0625 44.828125 
Q 42.578125 41.015625 37.703125 38.765625 
Q 44.046875 37.3125 47.5625 32.6875 
Q 51.078125 28.078125 51.078125 21.140625 
Q 51.078125 11.765625 44.234375 5.25 
Q 37.40625 -1.265625 26.953125 -1.265625 
Q 17.53125 -1.265625 11.296875 4.34375 
Q 5.078125 9.96875 4.203125 18.890625 
z
" id="ArialMT-51"/>
      </defs>
      <g style="fill:#262626;" transform="translate(24.917969 97.202694)scale(0.15 -0.15)">
       <use xlink:href="#ArialMT-51"/>
       <use x="55.615234" xlink:href="#ArialMT-48"/>
      </g>
     </g>
    </g>
    <g id="ytick_7">
     <g id="line2d_7">
      <path clip-path="url(#p910f2f448e)" d="M 48.600781 59.709411 
L 327.600781 59.709411 
" style="fill:none;stroke:#cccccc;stroke-linecap:round;stroke-width:0.8;"/>
     </g>
     <g id="text_14">
      <!-- 35 -->
      <g style="fill:#262626;" transform="translate(24.917969 65.077771)scale(0.15 -0.15)">
       <use xlink:href="#ArialMT-51"/>
       <use x="55.615234" xlink:href="#ArialMT-53"/>
      </g>
     </g>
    </g>
    <g id="ytick_8">
     <g id="line2d_8">
      <path clip-path="url(#p910f2f448e)" d="M 48.600781 27.584489 
L 327.600781 27.584489 
" style="fill:none;stroke:#cccccc;stroke-linecap:round;stroke-width:0.8;"/>
     </g>
     <g id="text_15">
      <!-- 40 -->
      <g style="fill:#262626;" transform="translate(24.917969 32.952848)scale(0.15 -0.15)">
       <use xlink:href="#ArialMT-52"/>
       <use x="55.615234" xlink:href="#ArialMT-48"/>
      </g>
     </g>
    </g>
    <g id="text_16">
     <!-- CH Index -->
     <defs>
      <path d="M 58.796875 25.09375 
L 68.265625 22.703125 
Q 65.28125 11.03125 57.546875 4.90625 
Q 49.8125 -1.21875 38.625 -1.21875 
Q 27.046875 -1.21875 19.796875 3.484375 
Q 12.546875 8.203125 8.765625 17.140625 
Q 4.984375 26.078125 4.984375 36.328125 
Q 4.984375 47.515625 9.25 55.828125 
Q 13.53125 64.15625 21.40625 68.46875 
Q 29.296875 72.796875 38.765625 72.796875 
Q 49.515625 72.796875 56.828125 67.328125 
Q 64.15625 61.859375 67.046875 51.953125 
L 57.71875 49.75 
Q 55.21875 57.5625 50.484375 61.125 
Q 45.75 64.703125 38.578125 64.703125 
Q 30.328125 64.703125 24.78125 60.734375 
Q 19.234375 56.78125 16.984375 50.109375 
Q 14.75 43.453125 14.75 36.375 
Q 14.75 27.25 17.40625 20.4375 
Q 20.0625 13.625 25.671875 10.25 
Q 31.296875 6.890625 37.84375 6.890625 
Q 45.796875 6.890625 51.3125 11.46875 
Q 56.84375 16.0625 58.796875 25.09375 
z
" id="ArialMT-67"/>
      <path d="M 8.015625 0 
L 8.015625 71.578125 
L 17.484375 71.578125 
L 17.484375 42.1875 
L 54.6875 42.1875 
L 54.6875 71.578125 
L 64.15625 71.578125 
L 64.15625 0 
L 54.6875 0 
L 54.6875 33.734375 
L 17.484375 33.734375 
L 17.484375 0 
z
" id="ArialMT-72"/>
      <path id="ArialMT-32"/>
      <path d="M 9.328125 0 
L 9.328125 71.578125 
L 18.796875 71.578125 
L 18.796875 0 
z
" id="ArialMT-73"/>
      <path d="M 6.59375 0 
L 6.59375 51.859375 
L 14.5 51.859375 
L 14.5 44.484375 
Q 20.21875 53.03125 31 53.03125 
Q 35.6875 53.03125 39.625 51.34375 
Q 43.5625 49.65625 45.515625 46.921875 
Q 47.46875 44.1875 48.25 40.4375 
Q 48.734375 37.984375 48.734375 31.890625 
L 48.734375 0 
L 39.9375 0 
L 39.9375 31.546875 
Q 39.9375 36.921875 38.90625 39.578125 
Q 37.890625 42.234375 35.28125 43.8125 
Q 32.671875 45.40625 29.15625 45.40625 
Q 23.53125 45.40625 19.453125 41.84375 
Q 15.375 38.28125 15.375 28.328125 
L 15.375 0 
z
" id="ArialMT-110"/>
      <path d="M 40.234375 0 
L 40.234375 6.546875 
Q 35.296875 -1.171875 25.734375 -1.171875 
Q 19.53125 -1.171875 14.328125 2.25 
Q 9.125 5.671875 6.265625 11.796875 
Q 3.421875 17.921875 3.421875 25.875 
Q 3.421875 33.640625 6 39.96875 
Q 8.59375 46.296875 13.765625 49.65625 
Q 18.953125 53.03125 25.34375 53.03125 
Q 30.03125 53.03125 33.6875 51.046875 
Q 37.359375 49.078125 39.65625 45.90625 
L 39.65625 71.578125 
L 48.390625 71.578125 
L 48.390625 0 
z
M 12.453125 25.875 
Q 12.453125 15.921875 16.640625 10.984375 
Q 20.84375 6.0625 26.5625 6.0625 
Q 32.328125 6.0625 36.34375 10.765625 
Q 40.375 15.484375 40.375 25.140625 
Q 40.375 35.796875 36.265625 40.765625 
Q 32.171875 45.75 26.171875 45.75 
Q 20.3125 45.75 16.375 40.96875 
Q 12.453125 36.1875 12.453125 25.875 
z
" id="ArialMT-100"/>
      <path d="M 42.09375 16.703125 
L 51.171875 15.578125 
Q 49.03125 7.625 43.21875 3.21875 
Q 37.40625 -1.171875 28.375 -1.171875 
Q 17 -1.171875 10.328125 5.828125 
Q 3.65625 12.84375 3.65625 25.484375 
Q 3.65625 38.578125 10.390625 45.796875 
Q 17.140625 53.03125 27.875 53.03125 
Q 38.28125 53.03125 44.875 45.953125 
Q 51.46875 38.875 51.46875 26.03125 
Q 51.46875 25.25 51.421875 23.6875 
L 12.75 23.6875 
Q 13.234375 15.140625 17.578125 10.59375 
Q 21.921875 6.0625 28.421875 6.0625 
Q 33.25 6.0625 36.671875 8.59375 
Q 40.09375 11.140625 42.09375 16.703125 
z
M 13.234375 30.90625 
L 42.1875 30.90625 
Q 41.609375 37.453125 38.875 40.71875 
Q 34.671875 45.796875 27.984375 45.796875 
Q 21.921875 45.796875 17.796875 41.75 
Q 13.671875 37.703125 13.234375 30.90625 
z
" id="ArialMT-101"/>
      <path d="M 0.734375 0 
L 19.671875 26.953125 
L 2.15625 51.859375 
L 13.140625 51.859375 
L 21.09375 39.703125 
Q 23.34375 36.234375 24.703125 33.890625 
Q 26.859375 37.109375 28.65625 39.59375 
L 37.40625 51.859375 
L 47.90625 51.859375 
L 29.984375 27.4375 
L 49.265625 0 
L 38.484375 0 
L 27.828125 16.109375 
L 25 20.453125 
L 11.375 0 
z
" id="ArialMT-120"/>
     </defs>
     <g style="fill:#262626;" transform="translate(17.936719 174.362109)rotate(-90)scale(0.15 -0.15)">
      <use xlink:href="#ArialMT-67"/>
      <use x="72.216797" xlink:href="#ArialMT-72"/>
      <use x="144.433594" xlink:href="#ArialMT-32"/>
      <use x="172.216797" xlink:href="#ArialMT-73"/>
      <use x="200" xlink:href="#ArialMT-110"/>
      <use x="255.615234" xlink:href="#ArialMT-100"/>
      <use x="311.230469" xlink:href="#ArialMT-101"/>
      <use x="366.845703" xlink:href="#ArialMT-120"/>
     </g>
    </g>
   </g>
   <g id="line2d_9">
    <path clip-path="url(#p910f2f448e)" d="M 61.282599 252.641282 
L 63.897407 254.268666 
L 66.512215 255.612158 
L 69.127023 258.394594 
L 71.741831 258.355135 
L 74.356639 259.093828 
L 76.971447 258.636542 
L 79.586255 259.530813 
L 82.201062 259.444559 
L 84.81587 259.242536 
L 87.430678 259.605137 
L 90.045486 259.462875 
L 92.660294 260.016266 
L 95.275102 260.647923 
L 97.88991 261.256129 
L 100.504718 261.481418 
L 103.119525 259.928208 
L 105.734333 260.212387 
L 108.349141 260.682756 
L 110.963949 260.79282 
L 113.578757 261.297788 
L 116.193565 261.45969 
L 118.808373 261.73922 
L 121.423181 261.790118 
L 124.037988 261.85108 
L 126.652796 262.051386 
L 129.267604 262.193775 
L 131.882412 262.399377 
L 134.49722 262.55057 
L 137.112028 262.769197 
L 139.726836 263.03719 
L 142.341643 263.181671 
L 144.956451 263.384314 
L 147.571259 263.453311 
L 150.186067 263.616567 
L 152.800875 263.859302 
L 155.415683 264.128855 
L 158.030491 264.251707 
L 160.645299 264.447594 
L 163.260106 264.564366 
L 165.874914 264.788275 
L 168.489722 264.77764 
L 171.10453 264.930945 
L 173.719338 264.938658 
L 176.334146 265.090319 
L 178.948954 265.13907 
L 181.563762 264.865382 
L 184.178569 264.35826 
L 186.793377 264.483995 
L 189.408185 264.57106 
L 192.022993 264.733847 
L 194.637801 264.884611 
L 197.252609 265.025386 
L 199.867417 265.147751 
L 202.482225 265.237446 
L 205.097032 265.059531 
L 207.71184 265.178233 
L 210.326648 264.685379 
L 212.941456 264.818806 
L 215.556264 265.042492 
L 218.171072 265.065149 
L 220.78588 265.085996 
L 223.400688 265.113077 
L 226.015495 265.143893 
L 228.630303 265.250405 
L 231.245111 265.491364 
L 233.859919 265.616563 
L 236.474727 265.654333 
L 239.089535 265.699702 
L 241.704343 265.796665 
L 244.319151 265.750864 
L 246.933958 265.682952 
L 249.548766 265.53667 
L 252.163574 265.626302 
L 254.778382 265.737725 
L 257.39319 265.843296 
L 260.007998 265.912321 
L 262.622806 265.90918 
L 265.237613 266.085252 
L 267.852421 266.21821 
L 270.467229 265.815675 
L 273.082037 265.680431 
L 275.696845 265.72667 
L 278.311653 265.816591 
L 280.926461 265.883506 
L 283.541269 265.875695 
L 286.156076 265.932556 
L 288.770884 266.065412 
L 291.385692 266.123074 
L 294.0005 266.159911 
L 296.615308 266.271657 
L 299.230116 266.33694 
L 301.844924 266.481225 
L 304.459732 266.602298 
L 307.074539 266.645455 
L 309.689347 266.509232 
L 312.304155 266.434414 
L 314.918963 266.462457 
" style="fill:none;stroke:#1f77b4;stroke-linecap:round;stroke-width:1.5;"/>
    <defs>
     <path d="M 0 3 
C 0.795609 3 1.55874 2.683901 2.12132 2.12132 
C 2.683901 1.55874 3 0.795609 3 0 
C 3 -0.795609 2.683901 -1.55874 2.12132 -2.12132 
C 1.55874 -2.683901 0.795609 -3 0 -3 
C -0.795609 -3 -1.55874 -2.683901 -2.12132 -2.12132 
C -2.683901 -1.55874 -3 -0.795609 -3 0 
C -3 0.795609 -2.683901 1.55874 -2.12132 2.12132 
C -1.55874 2.683901 -0.795609 3 0 3 
z
" id="mf96c81a570" style="stroke:#ffffff;stroke-width:0.75;"/>
    </defs>
    <g clip-path="url(#p910f2f448e)">
     <use style="fill:#1f77b4;stroke:#ffffff;stroke-width:0.75;" x="61.282599" xlink:href="#mf96c81a570" y="252.641282"/>
     <use style="fill:#1f77b4;stroke:#ffffff;stroke-width:0.75;" x="63.897407" xlink:href="#mf96c81a570" y="254.268666"/>
     <use style="fill:#1f77b4;stroke:#ffffff;stroke-width:0.75;" x="66.512215" xlink:href="#mf96c81a570" y="255.612158"/>
     <use style="fill:#1f77b4;stroke:#ffffff;stroke-width:0.75;" x="69.127023" xlink:href="#mf96c81a570" y="258.394594"/>
     <use style="fill:#1f77b4;stroke:#ffffff;stroke-width:0.75;" x="71.741831" xlink:href="#mf96c81a570" y="258.355135"/>
     <use style="fill:#1f77b4;stroke:#ffffff;stroke-width:0.75;" x="74.356639" xlink:href="#mf96c81a570" y="259.093828"/>
     <use style="fill:#1f77b4;stroke:#ffffff;stroke-width:0.75;" x="76.971447" xlink:href="#mf96c81a570" y="258.636542"/>
     <use style="fill:#1f77b4;stroke:#ffffff;stroke-width:0.75;" x="79.586255" xlink:href="#mf96c81a570" y="259.530813"/>
     <use style="fill:#1f77b4;stroke:#ffffff;stroke-width:0.75;" x="82.201062" xlink:href="#mf96c81a570" y="259.444559"/>
     <use style="fill:#1f77b4;stroke:#ffffff;stroke-width:0.75;" x="84.81587" xlink:href="#mf96c81a570" y="259.242536"/>
     <use style="fill:#1f77b4;stroke:#ffffff;stroke-width:0.75;" x="87.430678" xlink:href="#mf96c81a570" y="259.605137"/>
     <use style="fill:#1f77b4;stroke:#ffffff;stroke-width:0.75;" x="90.045486" xlink:href="#mf96c81a570" y="259.462875"/>
     <use style="fill:#1f77b4;stroke:#ffffff;stroke-width:0.75;" x="92.660294" xlink:href="#mf96c81a570" y="260.016266"/>
     <use style="fill:#1f77b4;stroke:#ffffff;stroke-width:0.75;" x="95.275102" xlink:href="#mf96c81a570" y="260.647923"/>
     <use style="fill:#1f77b4;stroke:#ffffff;stroke-width:0.75;" x="97.88991" xlink:href="#mf96c81a570" y="261.256129"/>
     <use style="fill:#1f77b4;stroke:#ffffff;stroke-width:0.75;" x="100.504718" xlink:href="#mf96c81a570" y="261.481418"/>
     <use style="fill:#1f77b4;stroke:#ffffff;stroke-width:0.75;" x="103.119525" xlink:href="#mf96c81a570" y="259.928208"/>
     <use style="fill:#1f77b4;stroke:#ffffff;stroke-width:0.75;" x="105.734333" xlink:href="#mf96c81a570" y="260.212387"/>
     <use style="fill:#1f77b4;stroke:#ffffff;stroke-width:0.75;" x="108.349141" xlink:href="#mf96c81a570" y="260.682756"/>
     <use style="fill:#1f77b4;stroke:#ffffff;stroke-width:0.75;" x="110.963949" xlink:href="#mf96c81a570" y="260.79282"/>
     <use style="fill:#1f77b4;stroke:#ffffff;stroke-width:0.75;" x="113.578757" xlink:href="#mf96c81a570" y="261.297788"/>
     <use style="fill:#1f77b4;stroke:#ffffff;stroke-width:0.75;" x="116.193565" xlink:href="#mf96c81a570" y="261.45969"/>
     <use style="fill:#1f77b4;stroke:#ffffff;stroke-width:0.75;" x="118.808373" xlink:href="#mf96c81a570" y="261.73922"/>
     <use style="fill:#1f77b4;stroke:#ffffff;stroke-width:0.75;" x="121.423181" xlink:href="#mf96c81a570" y="261.790118"/>
     <use style="fill:#1f77b4;stroke:#ffffff;stroke-width:0.75;" x="124.037988" xlink:href="#mf96c81a570" y="261.85108"/>
     <use style="fill:#1f77b4;stroke:#ffffff;stroke-width:0.75;" x="126.652796" xlink:href="#mf96c81a570" y="262.051386"/>
     <use style="fill:#1f77b4;stroke:#ffffff;stroke-width:0.75;" x="129.267604" xlink:href="#mf96c81a570" y="262.193775"/>
     <use style="fill:#1f77b4;stroke:#ffffff;stroke-width:0.75;" x="131.882412" xlink:href="#mf96c81a570" y="262.399377"/>
     <use style="fill:#1f77b4;stroke:#ffffff;stroke-width:0.75;" x="134.49722" xlink:href="#mf96c81a570" y="262.55057"/>
     <use style="fill:#1f77b4;stroke:#ffffff;stroke-width:0.75;" x="137.112028" xlink:href="#mf96c81a570" y="262.769197"/>
     <use style="fill:#1f77b4;stroke:#ffffff;stroke-width:0.75;" x="139.726836" xlink:href="#mf96c81a570" y="263.03719"/>
     <use style="fill:#1f77b4;stroke:#ffffff;stroke-width:0.75;" x="142.341643" xlink:href="#mf96c81a570" y="263.181671"/>
     <use style="fill:#1f77b4;stroke:#ffffff;stroke-width:0.75;" x="144.956451" xlink:href="#mf96c81a570" y="263.384314"/>
     <use style="fill:#1f77b4;stroke:#ffffff;stroke-width:0.75;" x="147.571259" xlink:href="#mf96c81a570" y="263.453311"/>
     <use style="fill:#1f77b4;stroke:#ffffff;stroke-width:0.75;" x="150.186067" xlink:href="#mf96c81a570" y="263.616567"/>
     <use style="fill:#1f77b4;stroke:#ffffff;stroke-width:0.75;" x="152.800875" xlink:href="#mf96c81a570" y="263.859302"/>
     <use style="fill:#1f77b4;stroke:#ffffff;stroke-width:0.75;" x="155.415683" xlink:href="#mf96c81a570" y="264.128855"/>
     <use style="fill:#1f77b4;stroke:#ffffff;stroke-width:0.75;" x="158.030491" xlink:href="#mf96c81a570" y="264.251707"/>
     <use style="fill:#1f77b4;stroke:#ffffff;stroke-width:0.75;" x="160.645299" xlink:href="#mf96c81a570" y="264.447594"/>
     <use style="fill:#1f77b4;stroke:#ffffff;stroke-width:0.75;" x="163.260106" xlink:href="#mf96c81a570" y="264.564366"/>
     <use style="fill:#1f77b4;stroke:#ffffff;stroke-width:0.75;" x="165.874914" xlink:href="#mf96c81a570" y="264.788275"/>
     <use style="fill:#1f77b4;stroke:#ffffff;stroke-width:0.75;" x="168.489722" xlink:href="#mf96c81a570" y="264.77764"/>
     <use style="fill:#1f77b4;stroke:#ffffff;stroke-width:0.75;" x="171.10453" xlink:href="#mf96c81a570" y="264.930945"/>
     <use style="fill:#1f77b4;stroke:#ffffff;stroke-width:0.75;" x="173.719338" xlink:href="#mf96c81a570" y="264.938658"/>
     <use style="fill:#1f77b4;stroke:#ffffff;stroke-width:0.75;" x="176.334146" xlink:href="#mf96c81a570" y="265.090319"/>
     <use style="fill:#1f77b4;stroke:#ffffff;stroke-width:0.75;" x="178.948954" xlink:href="#mf96c81a570" y="265.13907"/>
     <use style="fill:#1f77b4;stroke:#ffffff;stroke-width:0.75;" x="181.563762" xlink:href="#mf96c81a570" y="264.865382"/>
     <use style="fill:#1f77b4;stroke:#ffffff;stroke-width:0.75;" x="184.178569" xlink:href="#mf96c81a570" y="264.35826"/>
     <use style="fill:#1f77b4;stroke:#ffffff;stroke-width:0.75;" x="186.793377" xlink:href="#mf96c81a570" y="264.483995"/>
     <use style="fill:#1f77b4;stroke:#ffffff;stroke-width:0.75;" x="189.408185" xlink:href="#mf96c81a570" y="264.57106"/>
     <use style="fill:#1f77b4;stroke:#ffffff;stroke-width:0.75;" x="192.022993" xlink:href="#mf96c81a570" y="264.733847"/>
     <use style="fill:#1f77b4;stroke:#ffffff;stroke-width:0.75;" x="194.637801" xlink:href="#mf96c81a570" y="264.884611"/>
     <use style="fill:#1f77b4;stroke:#ffffff;stroke-width:0.75;" x="197.252609" xlink:href="#mf96c81a570" y="265.025386"/>
     <use style="fill:#1f77b4;stroke:#ffffff;stroke-width:0.75;" x="199.867417" xlink:href="#mf96c81a570" y="265.147751"/>
     <use style="fill:#1f77b4;stroke:#ffffff;stroke-width:0.75;" x="202.482225" xlink:href="#mf96c81a570" y="265.237446"/>
     <use style="fill:#1f77b4;stroke:#ffffff;stroke-width:0.75;" x="205.097032" xlink:href="#mf96c81a570" y="265.059531"/>
     <use style="fill:#1f77b4;stroke:#ffffff;stroke-width:0.75;" x="207.71184" xlink:href="#mf96c81a570" y="265.178233"/>
     <use style="fill:#1f77b4;stroke:#ffffff;stroke-width:0.75;" x="210.326648" xlink:href="#mf96c81a570" y="264.685379"/>
     <use style="fill:#1f77b4;stroke:#ffffff;stroke-width:0.75;" x="212.941456" xlink:href="#mf96c81a570" y="264.818806"/>
     <use style="fill:#1f77b4;stroke:#ffffff;stroke-width:0.75;" x="215.556264" xlink:href="#mf96c81a570" y="265.042492"/>
     <use style="fill:#1f77b4;stroke:#ffffff;stroke-width:0.75;" x="218.171072" xlink:href="#mf96c81a570" y="265.065149"/>
     <use style="fill:#1f77b4;stroke:#ffffff;stroke-width:0.75;" x="220.78588" xlink:href="#mf96c81a570" y="265.085996"/>
     <use style="fill:#1f77b4;stroke:#ffffff;stroke-width:0.75;" x="223.400688" xlink:href="#mf96c81a570" y="265.113077"/>
     <use style="fill:#1f77b4;stroke:#ffffff;stroke-width:0.75;" x="226.015495" xlink:href="#mf96c81a570" y="265.143893"/>
     <use style="fill:#1f77b4;stroke:#ffffff;stroke-width:0.75;" x="228.630303" xlink:href="#mf96c81a570" y="265.250405"/>
     <use style="fill:#1f77b4;stroke:#ffffff;stroke-width:0.75;" x="231.245111" xlink:href="#mf96c81a570" y="265.491364"/>
     <use style="fill:#1f77b4;stroke:#ffffff;stroke-width:0.75;" x="233.859919" xlink:href="#mf96c81a570" y="265.616563"/>
     <use style="fill:#1f77b4;stroke:#ffffff;stroke-width:0.75;" x="236.474727" xlink:href="#mf96c81a570" y="265.654333"/>
     <use style="fill:#1f77b4;stroke:#ffffff;stroke-width:0.75;" x="239.089535" xlink:href="#mf96c81a570" y="265.699702"/>
     <use style="fill:#1f77b4;stroke:#ffffff;stroke-width:0.75;" x="241.704343" xlink:href="#mf96c81a570" y="265.796665"/>
     <use style="fill:#1f77b4;stroke:#ffffff;stroke-width:0.75;" x="244.319151" xlink:href="#mf96c81a570" y="265.750864"/>
     <use style="fill:#1f77b4;stroke:#ffffff;stroke-width:0.75;" x="246.933958" xlink:href="#mf96c81a570" y="265.682952"/>
     <use style="fill:#1f77b4;stroke:#ffffff;stroke-width:0.75;" x="249.548766" xlink:href="#mf96c81a570" y="265.53667"/>
     <use style="fill:#1f77b4;stroke:#ffffff;stroke-width:0.75;" x="252.163574" xlink:href="#mf96c81a570" y="265.626302"/>
     <use style="fill:#1f77b4;stroke:#ffffff;stroke-width:0.75;" x="254.778382" xlink:href="#mf96c81a570" y="265.737725"/>
     <use style="fill:#1f77b4;stroke:#ffffff;stroke-width:0.75;" x="257.39319" xlink:href="#mf96c81a570" y="265.843296"/>
     <use style="fill:#1f77b4;stroke:#ffffff;stroke-width:0.75;" x="260.007998" xlink:href="#mf96c81a570" y="265.912321"/>
     <use style="fill:#1f77b4;stroke:#ffffff;stroke-width:0.75;" x="262.622806" xlink:href="#mf96c81a570" y="265.90918"/>
     <use style="fill:#1f77b4;stroke:#ffffff;stroke-width:0.75;" x="265.237613" xlink:href="#mf96c81a570" y="266.085252"/>
     <use style="fill:#1f77b4;stroke:#ffffff;stroke-width:0.75;" x="267.852421" xlink:href="#mf96c81a570" y="266.21821"/>
     <use style="fill:#1f77b4;stroke:#ffffff;stroke-width:0.75;" x="270.467229" xlink:href="#mf96c81a570" y="265.815675"/>
     <use style="fill:#1f77b4;stroke:#ffffff;stroke-width:0.75;" x="273.082037" xlink:href="#mf96c81a570" y="265.680431"/>
     <use style="fill:#1f77b4;stroke:#ffffff;stroke-width:0.75;" x="275.696845" xlink:href="#mf96c81a570" y="265.72667"/>
     <use style="fill:#1f77b4;stroke:#ffffff;stroke-width:0.75;" x="278.311653" xlink:href="#mf96c81a570" y="265.816591"/>
     <use style="fill:#1f77b4;stroke:#ffffff;stroke-width:0.75;" x="280.926461" xlink:href="#mf96c81a570" y="265.883506"/>
     <use style="fill:#1f77b4;stroke:#ffffff;stroke-width:0.75;" x="283.541269" xlink:href="#mf96c81a570" y="265.875695"/>
     <use style="fill:#1f77b4;stroke:#ffffff;stroke-width:0.75;" x="286.156076" xlink:href="#mf96c81a570" y="265.932556"/>
     <use style="fill:#1f77b4;stroke:#ffffff;stroke-width:0.75;" x="288.770884" xlink:href="#mf96c81a570" y="266.065412"/>
     <use style="fill:#1f77b4;stroke:#ffffff;stroke-width:0.75;" x="291.385692" xlink:href="#mf96c81a570" y="266.123074"/>
     <use style="fill:#1f77b4;stroke:#ffffff;stroke-width:0.75;" x="294.0005" xlink:href="#mf96c81a570" y="266.159911"/>
     <use style="fill:#1f77b4;stroke:#ffffff;stroke-width:0.75;" x="296.615308" xlink:href="#mf96c81a570" y="266.271657"/>
     <use style="fill:#1f77b4;stroke:#ffffff;stroke-width:0.75;" x="299.230116" xlink:href="#mf96c81a570" y="266.33694"/>
     <use style="fill:#1f77b4;stroke:#ffffff;stroke-width:0.75;" x="301.844924" xlink:href="#mf96c81a570" y="266.481225"/>
     <use style="fill:#1f77b4;stroke:#ffffff;stroke-width:0.75;" x="304.459732" xlink:href="#mf96c81a570" y="266.602298"/>
     <use style="fill:#1f77b4;stroke:#ffffff;stroke-width:0.75;" x="307.074539" xlink:href="#mf96c81a570" y="266.645455"/>
     <use style="fill:#1f77b4;stroke:#ffffff;stroke-width:0.75;" x="309.689347" xlink:href="#mf96c81a570" y="266.509232"/>
     <use style="fill:#1f77b4;stroke:#ffffff;stroke-width:0.75;" x="312.304155" xlink:href="#mf96c81a570" y="266.434414"/>
     <use style="fill:#1f77b4;stroke:#ffffff;stroke-width:0.75;" x="314.918963" xlink:href="#mf96c81a570" y="266.462457"/>
    </g>
   </g>
   <g id="line2d_10">
    <path clip-path="url(#p910f2f448e)" d="M 61.282599 202.581118 
L 63.897407 205.223915 
L 66.512215 54.546078 
L 69.127023 61.94677 
L 71.741831 50.038077 
L 74.356639 79.956751 
L 76.971447 61.407526 
L 79.586255 82.684835 
L 82.201062 89.770106 
L 84.81587 105.890616 
L 87.430678 108.512184 
L 90.045486 101.966019 
L 92.660294 112.955076 
L 95.275102 122.979968 
L 97.88991 114.072877 
L 100.504718 120.972447 
L 103.119525 126.042884 
L 105.734333 132.440472 
L 108.349141 137.750969 
L 110.963949 131.041818 
L 113.578757 135.889234 
L 116.193565 140.766047 
L 118.808373 143.426614 
L 121.423181 144.046879 
L 124.037988 147.461642 
L 126.652796 150.563535 
L 129.267604 154.005973 
L 131.882412 155.091169 
L 134.49722 158.566421 
L 137.112028 161.811357 
L 139.726836 162.643955 
L 142.341643 163.594 
L 144.956451 165.300383 
L 147.571259 166.473773 
L 150.186067 169.191897 
L 152.800875 166.006524 
L 155.415683 167.892044 
L 158.030491 170.292174 
L 160.645299 172.541742 
L 163.260106 174.147696 
L 165.874914 175.960624 
L 168.489722 177.679613 
L 171.10453 179.488126 
L 173.719338 179.864156 
L 176.334146 181.660924 
L 178.948954 183.388558 
L 181.563762 184.872828 
L 184.178569 186.323944 
L 186.793377 187.770413 
L 189.408185 189.348691 
L 192.022993 190.203493 
L 194.637801 190.305597 
L 197.252609 190.517094 
L 199.867417 191.545634 
L 202.482225 191.46832 
L 205.097032 192.462705 
L 207.71184 193.561051 
L 210.326648 194.652361 
L 212.941456 192.732057 
L 215.556264 193.641601 
L 218.171072 194.684396 
L 220.78588 195.796875 
L 223.400688 195.155087 
L 226.015495 195.800032 
L 228.630303 195.296727 
L 231.245111 195.903971 
L 233.859919 196.312257 
L 236.474727 196.960155 
L 239.089535 196.992729 
L 241.704343 197.917091 
L 244.319151 198.245712 
L 246.933958 198.973832 
L 249.548766 198.816791 
L 252.163574 199.699529 
L 254.778382 200.384893 
L 257.39319 200.760301 
L 260.007998 201.386845 
L 262.622806 201.95606 
L 265.237613 202.263182 
L 267.852421 203.015466 
L 270.467229 203.466786 
L 273.082037 203.964066 
L 275.696845 204.601869 
L 278.311653 204.156833 
L 280.926461 203.782343 
L 283.541269 203.524637 
L 286.156076 204.00313 
L 288.770884 204.629001 
L 291.385692 204.976604 
L 294.0005 204.295545 
L 296.615308 204.812749 
L 299.230116 205.128554 
L 301.844924 205.464842 
L 304.459732 205.966923 
L 307.074539 206.137677 
L 309.689347 206.637012 
L 312.304155 207.129786 
L 314.918963 207.324631 
" style="fill:none;stroke:#ff7f0e;stroke-linecap:round;stroke-width:1.5;"/>
    <defs>
     <path d="M 0 3 
C 0.795609 3 1.55874 2.683901 2.12132 2.12132 
C 2.683901 1.55874 3 0.795609 3 0 
C 3 -0.795609 2.683901 -1.55874 2.12132 -2.12132 
C 1.55874 -2.683901 0.795609 -3 0 -3 
C -0.795609 -3 -1.55874 -2.683901 -2.12132 -2.12132 
C -2.683901 -1.55874 -3 -0.795609 -3 0 
C -3 0.795609 -2.683901 1.55874 -2.12132 2.12132 
C -1.55874 2.683901 -0.795609 3 0 3 
z
" id="m4370a17055" style="stroke:#ffffff;stroke-width:0.75;"/>
    </defs>
    <g clip-path="url(#p910f2f448e)">
     <use style="fill:#ff7f0e;stroke:#ffffff;stroke-width:0.75;" x="61.282599" xlink:href="#m4370a17055" y="202.581118"/>
     <use style="fill:#ff7f0e;stroke:#ffffff;stroke-width:0.75;" x="63.897407" xlink:href="#m4370a17055" y="205.223915"/>
     <use style="fill:#ff7f0e;stroke:#ffffff;stroke-width:0.75;" x="66.512215" xlink:href="#m4370a17055" y="54.546078"/>
     <use style="fill:#ff7f0e;stroke:#ffffff;stroke-width:0.75;" x="69.127023" xlink:href="#m4370a17055" y="61.94677"/>
     <use style="fill:#ff7f0e;stroke:#ffffff;stroke-width:0.75;" x="71.741831" xlink:href="#m4370a17055" y="50.038077"/>
     <use style="fill:#ff7f0e;stroke:#ffffff;stroke-width:0.75;" x="74.356639" xlink:href="#m4370a17055" y="79.956751"/>
     <use style="fill:#ff7f0e;stroke:#ffffff;stroke-width:0.75;" x="76.971447" xlink:href="#m4370a17055" y="61.407526"/>
     <use style="fill:#ff7f0e;stroke:#ffffff;stroke-width:0.75;" x="79.586255" xlink:href="#m4370a17055" y="82.684835"/>
     <use style="fill:#ff7f0e;stroke:#ffffff;stroke-width:0.75;" x="82.201062" xlink:href="#m4370a17055" y="89.770106"/>
     <use style="fill:#ff7f0e;stroke:#ffffff;stroke-width:0.75;" x="84.81587" xlink:href="#m4370a17055" y="105.890616"/>
     <use style="fill:#ff7f0e;stroke:#ffffff;stroke-width:0.75;" x="87.430678" xlink:href="#m4370a17055" y="108.512184"/>
     <use style="fill:#ff7f0e;stroke:#ffffff;stroke-width:0.75;" x="90.045486" xlink:href="#m4370a17055" y="101.966019"/>
     <use style="fill:#ff7f0e;stroke:#ffffff;stroke-width:0.75;" x="92.660294" xlink:href="#m4370a17055" y="112.955076"/>
     <use style="fill:#ff7f0e;stroke:#ffffff;stroke-width:0.75;" x="95.275102" xlink:href="#m4370a17055" y="122.979968"/>
     <use style="fill:#ff7f0e;stroke:#ffffff;stroke-width:0.75;" x="97.88991" xlink:href="#m4370a17055" y="114.072877"/>
     <use style="fill:#ff7f0e;stroke:#ffffff;stroke-width:0.75;" x="100.504718" xlink:href="#m4370a17055" y="120.972447"/>
     <use style="fill:#ff7f0e;stroke:#ffffff;stroke-width:0.75;" x="103.119525" xlink:href="#m4370a17055" y="126.042884"/>
     <use style="fill:#ff7f0e;stroke:#ffffff;stroke-width:0.75;" x="105.734333" xlink:href="#m4370a17055" y="132.440472"/>
     <use style="fill:#ff7f0e;stroke:#ffffff;stroke-width:0.75;" x="108.349141" xlink:href="#m4370a17055" y="137.750969"/>
     <use style="fill:#ff7f0e;stroke:#ffffff;stroke-width:0.75;" x="110.963949" xlink:href="#m4370a17055" y="131.041818"/>
     <use style="fill:#ff7f0e;stroke:#ffffff;stroke-width:0.75;" x="113.578757" xlink:href="#m4370a17055" y="135.889234"/>
     <use style="fill:#ff7f0e;stroke:#ffffff;stroke-width:0.75;" x="116.193565" xlink:href="#m4370a17055" y="140.766047"/>
     <use style="fill:#ff7f0e;stroke:#ffffff;stroke-width:0.75;" x="118.808373" xlink:href="#m4370a17055" y="143.426614"/>
     <use style="fill:#ff7f0e;stroke:#ffffff;stroke-width:0.75;" x="121.423181" xlink:href="#m4370a17055" y="144.046879"/>
     <use style="fill:#ff7f0e;stroke:#ffffff;stroke-width:0.75;" x="124.037988" xlink:href="#m4370a17055" y="147.461642"/>
     <use style="fill:#ff7f0e;stroke:#ffffff;stroke-width:0.75;" x="126.652796" xlink:href="#m4370a17055" y="150.563535"/>
     <use style="fill:#ff7f0e;stroke:#ffffff;stroke-width:0.75;" x="129.267604" xlink:href="#m4370a17055" y="154.005973"/>
     <use style="fill:#ff7f0e;stroke:#ffffff;stroke-width:0.75;" x="131.882412" xlink:href="#m4370a17055" y="155.091169"/>
     <use style="fill:#ff7f0e;stroke:#ffffff;stroke-width:0.75;" x="134.49722" xlink:href="#m4370a17055" y="158.566421"/>
     <use style="fill:#ff7f0e;stroke:#ffffff;stroke-width:0.75;" x="137.112028" xlink:href="#m4370a17055" y="161.811357"/>
     <use style="fill:#ff7f0e;stroke:#ffffff;stroke-width:0.75;" x="139.726836" xlink:href="#m4370a17055" y="162.643955"/>
     <use style="fill:#ff7f0e;stroke:#ffffff;stroke-width:0.75;" x="142.341643" xlink:href="#m4370a17055" y="163.594"/>
     <use style="fill:#ff7f0e;stroke:#ffffff;stroke-width:0.75;" x="144.956451" xlink:href="#m4370a17055" y="165.300383"/>
     <use style="fill:#ff7f0e;stroke:#ffffff;stroke-width:0.75;" x="147.571259" xlink:href="#m4370a17055" y="166.473773"/>
     <use style="fill:#ff7f0e;stroke:#ffffff;stroke-width:0.75;" x="150.186067" xlink:href="#m4370a17055" y="169.191897"/>
     <use style="fill:#ff7f0e;stroke:#ffffff;stroke-width:0.75;" x="152.800875" xlink:href="#m4370a17055" y="166.006524"/>
     <use style="fill:#ff7f0e;stroke:#ffffff;stroke-width:0.75;" x="155.415683" xlink:href="#m4370a17055" y="167.892044"/>
     <use style="fill:#ff7f0e;stroke:#ffffff;stroke-width:0.75;" x="158.030491" xlink:href="#m4370a17055" y="170.292174"/>
     <use style="fill:#ff7f0e;stroke:#ffffff;stroke-width:0.75;" x="160.645299" xlink:href="#m4370a17055" y="172.541742"/>
     <use style="fill:#ff7f0e;stroke:#ffffff;stroke-width:0.75;" x="163.260106" xlink:href="#m4370a17055" y="174.147696"/>
     <use style="fill:#ff7f0e;stroke:#ffffff;stroke-width:0.75;" x="165.874914" xlink:href="#m4370a17055" y="175.960624"/>
     <use style="fill:#ff7f0e;stroke:#ffffff;stroke-width:0.75;" x="168.489722" xlink:href="#m4370a17055" y="177.679613"/>
     <use style="fill:#ff7f0e;stroke:#ffffff;stroke-width:0.75;" x="171.10453" xlink:href="#m4370a17055" y="179.488126"/>
     <use style="fill:#ff7f0e;stroke:#ffffff;stroke-width:0.75;" x="173.719338" xlink:href="#m4370a17055" y="179.864156"/>
     <use style="fill:#ff7f0e;stroke:#ffffff;stroke-width:0.75;" x="176.334146" xlink:href="#m4370a17055" y="181.660924"/>
     <use style="fill:#ff7f0e;stroke:#ffffff;stroke-width:0.75;" x="178.948954" xlink:href="#m4370a17055" y="183.388558"/>
     <use style="fill:#ff7f0e;stroke:#ffffff;stroke-width:0.75;" x="181.563762" xlink:href="#m4370a17055" y="184.872828"/>
     <use style="fill:#ff7f0e;stroke:#ffffff;stroke-width:0.75;" x="184.178569" xlink:href="#m4370a17055" y="186.323944"/>
     <use style="fill:#ff7f0e;stroke:#ffffff;stroke-width:0.75;" x="186.793377" xlink:href="#m4370a17055" y="187.770413"/>
     <use style="fill:#ff7f0e;stroke:#ffffff;stroke-width:0.75;" x="189.408185" xlink:href="#m4370a17055" y="189.348691"/>
     <use style="fill:#ff7f0e;stroke:#ffffff;stroke-width:0.75;" x="192.022993" xlink:href="#m4370a17055" y="190.203493"/>
     <use style="fill:#ff7f0e;stroke:#ffffff;stroke-width:0.75;" x="194.637801" xlink:href="#m4370a17055" y="190.305597"/>
     <use style="fill:#ff7f0e;stroke:#ffffff;stroke-width:0.75;" x="197.252609" xlink:href="#m4370a17055" y="190.517094"/>
     <use style="fill:#ff7f0e;stroke:#ffffff;stroke-width:0.75;" x="199.867417" xlink:href="#m4370a17055" y="191.545634"/>
     <use style="fill:#ff7f0e;stroke:#ffffff;stroke-width:0.75;" x="202.482225" xlink:href="#m4370a17055" y="191.46832"/>
     <use style="fill:#ff7f0e;stroke:#ffffff;stroke-width:0.75;" x="205.097032" xlink:href="#m4370a17055" y="192.462705"/>
     <use style="fill:#ff7f0e;stroke:#ffffff;stroke-width:0.75;" x="207.71184" xlink:href="#m4370a17055" y="193.561051"/>
     <use style="fill:#ff7f0e;stroke:#ffffff;stroke-width:0.75;" x="210.326648" xlink:href="#m4370a17055" y="194.652361"/>
     <use style="fill:#ff7f0e;stroke:#ffffff;stroke-width:0.75;" x="212.941456" xlink:href="#m4370a17055" y="192.732057"/>
     <use style="fill:#ff7f0e;stroke:#ffffff;stroke-width:0.75;" x="215.556264" xlink:href="#m4370a17055" y="193.641601"/>
     <use style="fill:#ff7f0e;stroke:#ffffff;stroke-width:0.75;" x="218.171072" xlink:href="#m4370a17055" y="194.684396"/>
     <use style="fill:#ff7f0e;stroke:#ffffff;stroke-width:0.75;" x="220.78588" xlink:href="#m4370a17055" y="195.796875"/>
     <use style="fill:#ff7f0e;stroke:#ffffff;stroke-width:0.75;" x="223.400688" xlink:href="#m4370a17055" y="195.155087"/>
     <use style="fill:#ff7f0e;stroke:#ffffff;stroke-width:0.75;" x="226.015495" xlink:href="#m4370a17055" y="195.800032"/>
     <use style="fill:#ff7f0e;stroke:#ffffff;stroke-width:0.75;" x="228.630303" xlink:href="#m4370a17055" y="195.296727"/>
     <use style="fill:#ff7f0e;stroke:#ffffff;stroke-width:0.75;" x="231.245111" xlink:href="#m4370a17055" y="195.903971"/>
     <use style="fill:#ff7f0e;stroke:#ffffff;stroke-width:0.75;" x="233.859919" xlink:href="#m4370a17055" y="196.312257"/>
     <use style="fill:#ff7f0e;stroke:#ffffff;stroke-width:0.75;" x="236.474727" xlink:href="#m4370a17055" y="196.960155"/>
     <use style="fill:#ff7f0e;stroke:#ffffff;stroke-width:0.75;" x="239.089535" xlink:href="#m4370a17055" y="196.992729"/>
     <use style="fill:#ff7f0e;stroke:#ffffff;stroke-width:0.75;" x="241.704343" xlink:href="#m4370a17055" y="197.917091"/>
     <use style="fill:#ff7f0e;stroke:#ffffff;stroke-width:0.75;" x="244.319151" xlink:href="#m4370a17055" y="198.245712"/>
     <use style="fill:#ff7f0e;stroke:#ffffff;stroke-width:0.75;" x="246.933958" xlink:href="#m4370a17055" y="198.973832"/>
     <use style="fill:#ff7f0e;stroke:#ffffff;stroke-width:0.75;" x="249.548766" xlink:href="#m4370a17055" y="198.816791"/>
     <use style="fill:#ff7f0e;stroke:#ffffff;stroke-width:0.75;" x="252.163574" xlink:href="#m4370a17055" y="199.699529"/>
     <use style="fill:#ff7f0e;stroke:#ffffff;stroke-width:0.75;" x="254.778382" xlink:href="#m4370a17055" y="200.384893"/>
     <use style="fill:#ff7f0e;stroke:#ffffff;stroke-width:0.75;" x="257.39319" xlink:href="#m4370a17055" y="200.760301"/>
     <use style="fill:#ff7f0e;stroke:#ffffff;stroke-width:0.75;" x="260.007998" xlink:href="#m4370a17055" y="201.386845"/>
     <use style="fill:#ff7f0e;stroke:#ffffff;stroke-width:0.75;" x="262.622806" xlink:href="#m4370a17055" y="201.95606"/>
     <use style="fill:#ff7f0e;stroke:#ffffff;stroke-width:0.75;" x="265.237613" xlink:href="#m4370a17055" y="202.263182"/>
     <use style="fill:#ff7f0e;stroke:#ffffff;stroke-width:0.75;" x="267.852421" xlink:href="#m4370a17055" y="203.015466"/>
     <use style="fill:#ff7f0e;stroke:#ffffff;stroke-width:0.75;" x="270.467229" xlink:href="#m4370a17055" y="203.466786"/>
     <use style="fill:#ff7f0e;stroke:#ffffff;stroke-width:0.75;" x="273.082037" xlink:href="#m4370a17055" y="203.964066"/>
     <use style="fill:#ff7f0e;stroke:#ffffff;stroke-width:0.75;" x="275.696845" xlink:href="#m4370a17055" y="204.601869"/>
     <use style="fill:#ff7f0e;stroke:#ffffff;stroke-width:0.75;" x="278.311653" xlink:href="#m4370a17055" y="204.156833"/>
     <use style="fill:#ff7f0e;stroke:#ffffff;stroke-width:0.75;" x="280.926461" xlink:href="#m4370a17055" y="203.782343"/>
     <use style="fill:#ff7f0e;stroke:#ffffff;stroke-width:0.75;" x="283.541269" xlink:href="#m4370a17055" y="203.524637"/>
     <use style="fill:#ff7f0e;stroke:#ffffff;stroke-width:0.75;" x="286.156076" xlink:href="#m4370a17055" y="204.00313"/>
     <use style="fill:#ff7f0e;stroke:#ffffff;stroke-width:0.75;" x="288.770884" xlink:href="#m4370a17055" y="204.629001"/>
     <use style="fill:#ff7f0e;stroke:#ffffff;stroke-width:0.75;" x="291.385692" xlink:href="#m4370a17055" y="204.976604"/>
     <use style="fill:#ff7f0e;stroke:#ffffff;stroke-width:0.75;" x="294.0005" xlink:href="#m4370a17055" y="204.295545"/>
     <use style="fill:#ff7f0e;stroke:#ffffff;stroke-width:0.75;" x="296.615308" xlink:href="#m4370a17055" y="204.812749"/>
     <use style="fill:#ff7f0e;stroke:#ffffff;stroke-width:0.75;" x="299.230116" xlink:href="#m4370a17055" y="205.128554"/>
     <use style="fill:#ff7f0e;stroke:#ffffff;stroke-width:0.75;" x="301.844924" xlink:href="#m4370a17055" y="205.464842"/>
     <use style="fill:#ff7f0e;stroke:#ffffff;stroke-width:0.75;" x="304.459732" xlink:href="#m4370a17055" y="205.966923"/>
     <use style="fill:#ff7f0e;stroke:#ffffff;stroke-width:0.75;" x="307.074539" xlink:href="#m4370a17055" y="206.137677"/>
     <use style="fill:#ff7f0e;stroke:#ffffff;stroke-width:0.75;" x="309.689347" xlink:href="#m4370a17055" y="206.637012"/>
     <use style="fill:#ff7f0e;stroke:#ffffff;stroke-width:0.75;" x="312.304155" xlink:href="#m4370a17055" y="207.129786"/>
     <use style="fill:#ff7f0e;stroke:#ffffff;stroke-width:0.75;" x="314.918963" xlink:href="#m4370a17055" y="207.324631"/>
    </g>
   </g>
   <g id="line2d_11">
    <path clip-path="url(#p910f2f448e)" d="M 61.282599 19.554545 
L 63.897407 123.635186 
L 66.512215 157.219374 
L 69.127023 176.848209 
L 71.741831 192.723981 
L 74.356639 196.097945 
L 76.971447 205.49253 
L 79.586255 210.347399 
L 82.201062 211.456628 
L 84.81587 216.18997 
L 87.430678 218.757841 
L 90.045486 217.681782 
L 92.660294 221.60696 
L 95.275102 224.793296 
L 97.88991 227.430458 
L 100.504718 229.045866 
L 103.119525 231.316582 
L 105.734333 233.394923 
L 108.349141 235.244402 
L 110.963949 236.873697 
L 113.578757 226.381041 
L 116.193565 228.19534 
L 118.808373 223.789812 
L 121.423181 225.209102 
L 124.037988 226.854551 
L 126.652796 217.643527 
L 129.267604 219.627691 
L 131.882412 221.243381 
L 134.49722 216.219424 
L 137.112028 204.738676 
L 139.726836 201.612812 
L 142.341643 203.419898 
L 144.956451 205.345214 
L 147.571259 206.63066 
L 150.186067 208.450772 
L 152.800875 209.751464 
L 155.415683 210.987726 
L 158.030491 210.398016 
L 160.645299 205.181432 
L 163.260106 206.835636 
L 165.874914 208.209524 
L 168.489722 209.735914 
L 171.10453 211.034695 
L 173.719338 211.915512 
L 176.334146 209.09385 
L 178.948954 208.449058 
L 181.563762 208.846057 
L 184.178569 209.661146 
L 186.793377 210.831108 
L 189.408185 212.088322 
L 192.022993 212.724007 
L 194.637801 213.623153 
L 197.252609 214.742645 
L 199.867417 215.093208 
L 202.482225 216.065826 
L 205.097032 217.014991 
L 207.71184 217.998544 
L 210.326648 218.916661 
L 212.941456 219.476983 
L 215.556264 219.930127 
L 218.171072 211.222773 
L 220.78588 211.454155 
L 223.400688 212.373247 
L 226.015495 211.577566 
L 228.630303 212.3569 
L 231.245111 212.537039 
L 233.859919 213.027254 
L 236.474727 213.774305 
L 239.089535 213.708738 
L 241.704343 214.511527 
L 244.319151 215.003602 
L 246.933958 215.114583 
L 249.548766 215.441986 
L 252.163574 216.14144 
L 254.778382 216.769741 
L 257.39319 217.356645 
L 260.007998 214.194103 
L 262.622806 214.863716 
L 265.237613 213.717983 
L 267.852421 214.410051 
L 270.467229 215.111728 
L 273.082037 215.442349 
L 275.696845 215.383871 
L 278.311653 216.037064 
L 280.926461 216.584972 
L 283.541269 216.670366 
L 286.156076 216.896362 
L 288.770884 215.331567 
L 291.385692 215.945574 
L 294.0005 213.342903 
L 296.615308 214.014326 
L 299.230116 214.399455 
L 301.844924 214.689389 
L 304.459732 215.212344 
L 307.074539 215.807131 
L 309.689347 216.27761 
L 312.304155 216.751005 
L 314.918963 217.065364 
" style="fill:none;stroke:#2ca02c;stroke-linecap:round;stroke-width:1.5;"/>
    <defs>
     <path d="M 0 3 
C 0.795609 3 1.55874 2.683901 2.12132 2.12132 
C 2.683901 1.55874 3 0.795609 3 0 
C 3 -0.795609 2.683901 -1.55874 2.12132 -2.12132 
C 1.55874 -2.683901 0.795609 -3 0 -3 
C -0.795609 -3 -1.55874 -2.683901 -2.12132 -2.12132 
C -2.683901 -1.55874 -3 -0.795609 -3 0 
C -3 0.795609 -2.683901 1.55874 -2.12132 2.12132 
C -1.55874 2.683901 -0.795609 3 0 3 
z
" id="m48cc999ccb" style="stroke:#ffffff;stroke-width:0.75;"/>
    </defs>
    <g clip-path="url(#p910f2f448e)">
     <use style="fill:#2ca02c;stroke:#ffffff;stroke-width:0.75;" x="61.282599" xlink:href="#m48cc999ccb" y="19.554545"/>
     <use style="fill:#2ca02c;stroke:#ffffff;stroke-width:0.75;" x="63.897407" xlink:href="#m48cc999ccb" y="123.635186"/>
     <use style="fill:#2ca02c;stroke:#ffffff;stroke-width:0.75;" x="66.512215" xlink:href="#m48cc999ccb" y="157.219374"/>
     <use style="fill:#2ca02c;stroke:#ffffff;stroke-width:0.75;" x="69.127023" xlink:href="#m48cc999ccb" y="176.848209"/>
     <use style="fill:#2ca02c;stroke:#ffffff;stroke-width:0.75;" x="71.741831" xlink:href="#m48cc999ccb" y="192.723981"/>
     <use style="fill:#2ca02c;stroke:#ffffff;stroke-width:0.75;" x="74.356639" xlink:href="#m48cc999ccb" y="196.097945"/>
     <use style="fill:#2ca02c;stroke:#ffffff;stroke-width:0.75;" x="76.971447" xlink:href="#m48cc999ccb" y="205.49253"/>
     <use style="fill:#2ca02c;stroke:#ffffff;stroke-width:0.75;" x="79.586255" xlink:href="#m48cc999ccb" y="210.347399"/>
     <use style="fill:#2ca02c;stroke:#ffffff;stroke-width:0.75;" x="82.201062" xlink:href="#m48cc999ccb" y="211.456628"/>
     <use style="fill:#2ca02c;stroke:#ffffff;stroke-width:0.75;" x="84.81587" xlink:href="#m48cc999ccb" y="216.18997"/>
     <use style="fill:#2ca02c;stroke:#ffffff;stroke-width:0.75;" x="87.430678" xlink:href="#m48cc999ccb" y="218.757841"/>
     <use style="fill:#2ca02c;stroke:#ffffff;stroke-width:0.75;" x="90.045486" xlink:href="#m48cc999ccb" y="217.681782"/>
     <use style="fill:#2ca02c;stroke:#ffffff;stroke-width:0.75;" x="92.660294" xlink:href="#m48cc999ccb" y="221.60696"/>
     <use style="fill:#2ca02c;stroke:#ffffff;stroke-width:0.75;" x="95.275102" xlink:href="#m48cc999ccb" y="224.793296"/>
     <use style="fill:#2ca02c;stroke:#ffffff;stroke-width:0.75;" x="97.88991" xlink:href="#m48cc999ccb" y="227.430458"/>
     <use style="fill:#2ca02c;stroke:#ffffff;stroke-width:0.75;" x="100.504718" xlink:href="#m48cc999ccb" y="229.045866"/>
     <use style="fill:#2ca02c;stroke:#ffffff;stroke-width:0.75;" x="103.119525" xlink:href="#m48cc999ccb" y="231.316582"/>
     <use style="fill:#2ca02c;stroke:#ffffff;stroke-width:0.75;" x="105.734333" xlink:href="#m48cc999ccb" y="233.394923"/>
     <use style="fill:#2ca02c;stroke:#ffffff;stroke-width:0.75;" x="108.349141" xlink:href="#m48cc999ccb" y="235.244402"/>
     <use style="fill:#2ca02c;stroke:#ffffff;stroke-width:0.75;" x="110.963949" xlink:href="#m48cc999ccb" y="236.873697"/>
     <use style="fill:#2ca02c;stroke:#ffffff;stroke-width:0.75;" x="113.578757" xlink:href="#m48cc999ccb" y="226.381041"/>
     <use style="fill:#2ca02c;stroke:#ffffff;stroke-width:0.75;" x="116.193565" xlink:href="#m48cc999ccb" y="228.19534"/>
     <use style="fill:#2ca02c;stroke:#ffffff;stroke-width:0.75;" x="118.808373" xlink:href="#m48cc999ccb" y="223.789812"/>
     <use style="fill:#2ca02c;stroke:#ffffff;stroke-width:0.75;" x="121.423181" xlink:href="#m48cc999ccb" y="225.209102"/>
     <use style="fill:#2ca02c;stroke:#ffffff;stroke-width:0.75;" x="124.037988" xlink:href="#m48cc999ccb" y="226.854551"/>
     <use style="fill:#2ca02c;stroke:#ffffff;stroke-width:0.75;" x="126.652796" xlink:href="#m48cc999ccb" y="217.643527"/>
     <use style="fill:#2ca02c;stroke:#ffffff;stroke-width:0.75;" x="129.267604" xlink:href="#m48cc999ccb" y="219.627691"/>
     <use style="fill:#2ca02c;stroke:#ffffff;stroke-width:0.75;" x="131.882412" xlink:href="#m48cc999ccb" y="221.243381"/>
     <use style="fill:#2ca02c;stroke:#ffffff;stroke-width:0.75;" x="134.49722" xlink:href="#m48cc999ccb" y="216.219424"/>
     <use style="fill:#2ca02c;stroke:#ffffff;stroke-width:0.75;" x="137.112028" xlink:href="#m48cc999ccb" y="204.738676"/>
     <use style="fill:#2ca02c;stroke:#ffffff;stroke-width:0.75;" x="139.726836" xlink:href="#m48cc999ccb" y="201.612812"/>
     <use style="fill:#2ca02c;stroke:#ffffff;stroke-width:0.75;" x="142.341643" xlink:href="#m48cc999ccb" y="203.419898"/>
     <use style="fill:#2ca02c;stroke:#ffffff;stroke-width:0.75;" x="144.956451" xlink:href="#m48cc999ccb" y="205.345214"/>
     <use style="fill:#2ca02c;stroke:#ffffff;stroke-width:0.75;" x="147.571259" xlink:href="#m48cc999ccb" y="206.63066"/>
     <use style="fill:#2ca02c;stroke:#ffffff;stroke-width:0.75;" x="150.186067" xlink:href="#m48cc999ccb" y="208.450772"/>
     <use style="fill:#2ca02c;stroke:#ffffff;stroke-width:0.75;" x="152.800875" xlink:href="#m48cc999ccb" y="209.751464"/>
     <use style="fill:#2ca02c;stroke:#ffffff;stroke-width:0.75;" x="155.415683" xlink:href="#m48cc999ccb" y="210.987726"/>
     <use style="fill:#2ca02c;stroke:#ffffff;stroke-width:0.75;" x="158.030491" xlink:href="#m48cc999ccb" y="210.398016"/>
     <use style="fill:#2ca02c;stroke:#ffffff;stroke-width:0.75;" x="160.645299" xlink:href="#m48cc999ccb" y="205.181432"/>
     <use style="fill:#2ca02c;stroke:#ffffff;stroke-width:0.75;" x="163.260106" xlink:href="#m48cc999ccb" y="206.835636"/>
     <use style="fill:#2ca02c;stroke:#ffffff;stroke-width:0.75;" x="165.874914" xlink:href="#m48cc999ccb" y="208.209524"/>
     <use style="fill:#2ca02c;stroke:#ffffff;stroke-width:0.75;" x="168.489722" xlink:href="#m48cc999ccb" y="209.735914"/>
     <use style="fill:#2ca02c;stroke:#ffffff;stroke-width:0.75;" x="171.10453" xlink:href="#m48cc999ccb" y="211.034695"/>
     <use style="fill:#2ca02c;stroke:#ffffff;stroke-width:0.75;" x="173.719338" xlink:href="#m48cc999ccb" y="211.915512"/>
     <use style="fill:#2ca02c;stroke:#ffffff;stroke-width:0.75;" x="176.334146" xlink:href="#m48cc999ccb" y="209.09385"/>
     <use style="fill:#2ca02c;stroke:#ffffff;stroke-width:0.75;" x="178.948954" xlink:href="#m48cc999ccb" y="208.449058"/>
     <use style="fill:#2ca02c;stroke:#ffffff;stroke-width:0.75;" x="181.563762" xlink:href="#m48cc999ccb" y="208.846057"/>
     <use style="fill:#2ca02c;stroke:#ffffff;stroke-width:0.75;" x="184.178569" xlink:href="#m48cc999ccb" y="209.661146"/>
     <use style="fill:#2ca02c;stroke:#ffffff;stroke-width:0.75;" x="186.793377" xlink:href="#m48cc999ccb" y="210.831108"/>
     <use style="fill:#2ca02c;stroke:#ffffff;stroke-width:0.75;" x="189.408185" xlink:href="#m48cc999ccb" y="212.088322"/>
     <use style="fill:#2ca02c;stroke:#ffffff;stroke-width:0.75;" x="192.022993" xlink:href="#m48cc999ccb" y="212.724007"/>
     <use style="fill:#2ca02c;stroke:#ffffff;stroke-width:0.75;" x="194.637801" xlink:href="#m48cc999ccb" y="213.623153"/>
     <use style="fill:#2ca02c;stroke:#ffffff;stroke-width:0.75;" x="197.252609" xlink:href="#m48cc999ccb" y="214.742645"/>
     <use style="fill:#2ca02c;stroke:#ffffff;stroke-width:0.75;" x="199.867417" xlink:href="#m48cc999ccb" y="215.093208"/>
     <use style="fill:#2ca02c;stroke:#ffffff;stroke-width:0.75;" x="202.482225" xlink:href="#m48cc999ccb" y="216.065826"/>
     <use style="fill:#2ca02c;stroke:#ffffff;stroke-width:0.75;" x="205.097032" xlink:href="#m48cc999ccb" y="217.014991"/>
     <use style="fill:#2ca02c;stroke:#ffffff;stroke-width:0.75;" x="207.71184" xlink:href="#m48cc999ccb" y="217.998544"/>
     <use style="fill:#2ca02c;stroke:#ffffff;stroke-width:0.75;" x="210.326648" xlink:href="#m48cc999ccb" y="218.916661"/>
     <use style="fill:#2ca02c;stroke:#ffffff;stroke-width:0.75;" x="212.941456" xlink:href="#m48cc999ccb" y="219.476983"/>
     <use style="fill:#2ca02c;stroke:#ffffff;stroke-width:0.75;" x="215.556264" xlink:href="#m48cc999ccb" y="219.930127"/>
     <use style="fill:#2ca02c;stroke:#ffffff;stroke-width:0.75;" x="218.171072" xlink:href="#m48cc999ccb" y="211.222773"/>
     <use style="fill:#2ca02c;stroke:#ffffff;stroke-width:0.75;" x="220.78588" xlink:href="#m48cc999ccb" y="211.454155"/>
     <use style="fill:#2ca02c;stroke:#ffffff;stroke-width:0.75;" x="223.400688" xlink:href="#m48cc999ccb" y="212.373247"/>
     <use style="fill:#2ca02c;stroke:#ffffff;stroke-width:0.75;" x="226.015495" xlink:href="#m48cc999ccb" y="211.577566"/>
     <use style="fill:#2ca02c;stroke:#ffffff;stroke-width:0.75;" x="228.630303" xlink:href="#m48cc999ccb" y="212.3569"/>
     <use style="fill:#2ca02c;stroke:#ffffff;stroke-width:0.75;" x="231.245111" xlink:href="#m48cc999ccb" y="212.537039"/>
     <use style="fill:#2ca02c;stroke:#ffffff;stroke-width:0.75;" x="233.859919" xlink:href="#m48cc999ccb" y="213.027254"/>
     <use style="fill:#2ca02c;stroke:#ffffff;stroke-width:0.75;" x="236.474727" xlink:href="#m48cc999ccb" y="213.774305"/>
     <use style="fill:#2ca02c;stroke:#ffffff;stroke-width:0.75;" x="239.089535" xlink:href="#m48cc999ccb" y="213.708738"/>
     <use style="fill:#2ca02c;stroke:#ffffff;stroke-width:0.75;" x="241.704343" xlink:href="#m48cc999ccb" y="214.511527"/>
     <use style="fill:#2ca02c;stroke:#ffffff;stroke-width:0.75;" x="244.319151" xlink:href="#m48cc999ccb" y="215.003602"/>
     <use style="fill:#2ca02c;stroke:#ffffff;stroke-width:0.75;" x="246.933958" xlink:href="#m48cc999ccb" y="215.114583"/>
     <use style="fill:#2ca02c;stroke:#ffffff;stroke-width:0.75;" x="249.548766" xlink:href="#m48cc999ccb" y="215.441986"/>
     <use style="fill:#2ca02c;stroke:#ffffff;stroke-width:0.75;" x="252.163574" xlink:href="#m48cc999ccb" y="216.14144"/>
     <use style="fill:#2ca02c;stroke:#ffffff;stroke-width:0.75;" x="254.778382" xlink:href="#m48cc999ccb" y="216.769741"/>
     <use style="fill:#2ca02c;stroke:#ffffff;stroke-width:0.75;" x="257.39319" xlink:href="#m48cc999ccb" y="217.356645"/>
     <use style="fill:#2ca02c;stroke:#ffffff;stroke-width:0.75;" x="260.007998" xlink:href="#m48cc999ccb" y="214.194103"/>
     <use style="fill:#2ca02c;stroke:#ffffff;stroke-width:0.75;" x="262.622806" xlink:href="#m48cc999ccb" y="214.863716"/>
     <use style="fill:#2ca02c;stroke:#ffffff;stroke-width:0.75;" x="265.237613" xlink:href="#m48cc999ccb" y="213.717983"/>
     <use style="fill:#2ca02c;stroke:#ffffff;stroke-width:0.75;" x="267.852421" xlink:href="#m48cc999ccb" y="214.410051"/>
     <use style="fill:#2ca02c;stroke:#ffffff;stroke-width:0.75;" x="270.467229" xlink:href="#m48cc999ccb" y="215.111728"/>
     <use style="fill:#2ca02c;stroke:#ffffff;stroke-width:0.75;" x="273.082037" xlink:href="#m48cc999ccb" y="215.442349"/>
     <use style="fill:#2ca02c;stroke:#ffffff;stroke-width:0.75;" x="275.696845" xlink:href="#m48cc999ccb" y="215.383871"/>
     <use style="fill:#2ca02c;stroke:#ffffff;stroke-width:0.75;" x="278.311653" xlink:href="#m48cc999ccb" y="216.037064"/>
     <use style="fill:#2ca02c;stroke:#ffffff;stroke-width:0.75;" x="280.926461" xlink:href="#m48cc999ccb" y="216.584972"/>
     <use style="fill:#2ca02c;stroke:#ffffff;stroke-width:0.75;" x="283.541269" xlink:href="#m48cc999ccb" y="216.670366"/>
     <use style="fill:#2ca02c;stroke:#ffffff;stroke-width:0.75;" x="286.156076" xlink:href="#m48cc999ccb" y="216.896362"/>
     <use style="fill:#2ca02c;stroke:#ffffff;stroke-width:0.75;" x="288.770884" xlink:href="#m48cc999ccb" y="215.331567"/>
     <use style="fill:#2ca02c;stroke:#ffffff;stroke-width:0.75;" x="291.385692" xlink:href="#m48cc999ccb" y="215.945574"/>
     <use style="fill:#2ca02c;stroke:#ffffff;stroke-width:0.75;" x="294.0005" xlink:href="#m48cc999ccb" y="213.342903"/>
     <use style="fill:#2ca02c;stroke:#ffffff;stroke-width:0.75;" x="296.615308" xlink:href="#m48cc999ccb" y="214.014326"/>
     <use style="fill:#2ca02c;stroke:#ffffff;stroke-width:0.75;" x="299.230116" xlink:href="#m48cc999ccb" y="214.399455"/>
     <use style="fill:#2ca02c;stroke:#ffffff;stroke-width:0.75;" x="301.844924" xlink:href="#m48cc999ccb" y="214.689389"/>
     <use style="fill:#2ca02c;stroke:#ffffff;stroke-width:0.75;" x="304.459732" xlink:href="#m48cc999ccb" y="215.212344"/>
     <use style="fill:#2ca02c;stroke:#ffffff;stroke-width:0.75;" x="307.074539" xlink:href="#m48cc999ccb" y="215.807131"/>
     <use style="fill:#2ca02c;stroke:#ffffff;stroke-width:0.75;" x="309.689347" xlink:href="#m48cc999ccb" y="216.27761"/>
     <use style="fill:#2ca02c;stroke:#ffffff;stroke-width:0.75;" x="312.304155" xlink:href="#m48cc999ccb" y="216.751005"/>
     <use style="fill:#2ca02c;stroke:#ffffff;stroke-width:0.75;" x="314.918963" xlink:href="#m48cc999ccb" y="217.065364"/>
    </g>
   </g>
   <g id="line2d_12"/>
   <g id="line2d_13"/>
   <g id="line2d_14"/>
   <g id="line2d_15"/>
   <g id="patch_3">
    <path d="M 48.600781 279 
L 327.600781 279 
" style="fill:none;stroke:#cccccc;stroke-linecap:square;stroke-linejoin:miter;stroke-width:0.8;"/>
   </g>
   <g id="legend_1">
    <g id="patch_4">
     <path d="M 208.240625 104.423438 
L 317.100781 104.423438 
Q 320.100781 104.423438 320.100781 101.423438 
L 320.100781 17.7 
Q 320.100781 14.7 317.100781 14.7 
L 208.240625 14.7 
Q 205.240625 14.7 205.240625 17.7 
L 205.240625 101.423438 
Q 205.240625 104.423438 208.240625 104.423438 
z
" style="fill:#ffffff;opacity:0.8;stroke:#cccccc;stroke-linejoin:miter;"/>
    </g>
    <g id="text_17">
     <!-- Method -->
     <defs>
      <path d="M 7.421875 0 
L 7.421875 71.578125 
L 21.6875 71.578125 
L 38.625 20.90625 
Q 40.96875 13.8125 42.046875 10.296875 
Q 43.265625 14.203125 45.84375 21.78125 
L 62.984375 71.578125 
L 75.734375 71.578125 
L 75.734375 0 
L 66.609375 0 
L 66.609375 59.90625 
L 45.796875 0 
L 37.25 0 
L 16.546875 60.9375 
L 16.546875 0 
z
" id="ArialMT-77"/>
      <path d="M 25.78125 7.859375 
L 27.046875 0.09375 
Q 23.34375 -0.6875 20.40625 -0.6875 
Q 15.625 -0.6875 12.984375 0.828125 
Q 10.359375 2.34375 9.28125 4.8125 
Q 8.203125 7.28125 8.203125 15.1875 
L 8.203125 45.015625 
L 1.765625 45.015625 
L 1.765625 51.859375 
L 8.203125 51.859375 
L 8.203125 64.703125 
L 16.9375 69.96875 
L 16.9375 51.859375 
L 25.78125 51.859375 
L 25.78125 45.015625 
L 16.9375 45.015625 
L 16.9375 14.703125 
Q 16.9375 10.9375 17.40625 9.859375 
Q 17.875 8.796875 18.921875 8.15625 
Q 19.96875 7.515625 21.921875 7.515625 
Q 23.390625 7.515625 25.78125 7.859375 
z
" id="ArialMT-116"/>
      <path d="M 6.59375 0 
L 6.59375 71.578125 
L 15.375 71.578125 
L 15.375 45.90625 
Q 21.53125 53.03125 30.90625 53.03125 
Q 36.671875 53.03125 40.921875 50.75 
Q 45.171875 48.484375 47 44.484375 
Q 48.828125 40.484375 48.828125 32.859375 
L 48.828125 0 
L 40.046875 0 
L 40.046875 32.859375 
Q 40.046875 39.453125 37.1875 42.453125 
Q 34.328125 45.453125 29.109375 45.453125 
Q 25.203125 45.453125 21.75 43.421875 
Q 18.3125 41.40625 16.84375 37.9375 
Q 15.375 34.46875 15.375 28.375 
L 15.375 0 
z
" id="ArialMT-104"/>
      <path d="M 3.328125 25.921875 
Q 3.328125 40.328125 11.328125 47.265625 
Q 18.015625 53.03125 27.640625 53.03125 
Q 38.328125 53.03125 45.109375 46.015625 
Q 51.90625 39.015625 51.90625 26.65625 
Q 51.90625 16.65625 48.90625 10.90625 
Q 45.90625 5.171875 40.15625 2 
Q 34.421875 -1.171875 27.640625 -1.171875 
Q 16.75 -1.171875 10.03125 5.8125 
Q 3.328125 12.796875 3.328125 25.921875 
z
M 12.359375 25.921875 
Q 12.359375 15.96875 16.703125 11.015625 
Q 21.046875 6.0625 27.640625 6.0625 
Q 34.1875 6.0625 38.53125 11.03125 
Q 42.875 16.015625 42.875 26.21875 
Q 42.875 35.84375 38.5 40.796875 
Q 34.125 45.75 27.640625 45.75 
Q 21.046875 45.75 16.703125 40.8125 
Q 12.359375 35.890625 12.359375 25.921875 
z
" id="ArialMT-111"/>
     </defs>
     <g style="fill:#262626;" transform="translate(237.657031 31.436719)scale(0.15 -0.15)">
      <use xlink:href="#ArialMT-77"/>
      <use x="83.300781" xlink:href="#ArialMT-101"/>
      <use x="138.916016" xlink:href="#ArialMT-116"/>
      <use x="166.699219" xlink:href="#ArialMT-104"/>
      <use x="222.314453" xlink:href="#ArialMT-111"/>
      <use x="277.929688" xlink:href="#ArialMT-100"/>
     </g>
    </g>
    <g id="line2d_16">
     <path d="M 211.240625 47.404688 
L 241.240625 47.404688 
" style="fill:none;stroke:#1f77b4;stroke-linecap:round;stroke-width:1.5;"/>
    </g>
    <g id="line2d_17">
     <g>
      <use style="fill:#1f77b4;stroke:#ffffff;stroke-width:0.75;" x="226.240625" xlink:href="#mf96c81a570" y="47.404688"/>
     </g>
    </g>
    <g id="text_18">
     <!-- single -->
     <defs>
      <path d="M 3.078125 15.484375 
L 11.765625 16.84375 
Q 12.5 11.625 15.84375 8.84375 
Q 19.1875 6.0625 25.203125 6.0625 
Q 31.25 6.0625 34.171875 8.515625 
Q 37.109375 10.984375 37.109375 14.3125 
Q 37.109375 17.28125 34.515625 19 
Q 32.71875 20.171875 25.53125 21.96875 
Q 15.875 24.421875 12.140625 26.203125 
Q 8.40625 27.984375 6.46875 31.125 
Q 4.546875 34.28125 4.546875 38.09375 
Q 4.546875 41.546875 6.125 44.5 
Q 7.71875 47.46875 10.453125 49.421875 
Q 12.5 50.921875 16.03125 51.96875 
Q 19.578125 53.03125 23.640625 53.03125 
Q 29.734375 53.03125 34.34375 51.265625 
Q 38.96875 49.515625 41.15625 46.5 
Q 43.359375 43.5 44.1875 38.484375 
L 35.59375 37.3125 
Q 35.015625 41.3125 32.203125 43.546875 
Q 29.390625 45.796875 24.265625 45.796875 
Q 18.21875 45.796875 15.625 43.796875 
Q 13.03125 41.796875 13.03125 39.109375 
Q 13.03125 37.40625 14.109375 36.03125 
Q 15.1875 34.625 17.484375 33.6875 
Q 18.796875 33.203125 25.25 31.453125 
Q 34.578125 28.953125 38.25 27.359375 
Q 41.9375 25.78125 44.03125 22.75 
Q 46.140625 19.734375 46.140625 15.234375 
Q 46.140625 10.84375 43.578125 6.953125 
Q 41.015625 3.078125 36.171875 0.953125 
Q 31.34375 -1.171875 25.25 -1.171875 
Q 15.140625 -1.171875 9.84375 3.03125 
Q 4.546875 7.234375 3.078125 15.484375 
z
" id="ArialMT-115"/>
      <path d="M 6.640625 61.46875 
L 6.640625 71.578125 
L 15.4375 71.578125 
L 15.4375 61.46875 
z
M 6.640625 0 
L 6.640625 51.859375 
L 15.4375 51.859375 
L 15.4375 0 
z
" id="ArialMT-105"/>
      <path d="M 4.984375 -4.296875 
L 13.53125 -5.5625 
Q 14.0625 -9.515625 16.5 -11.328125 
Q 19.78125 -13.765625 25.4375 -13.765625 
Q 31.546875 -13.765625 34.859375 -11.328125 
Q 38.1875 -8.890625 39.359375 -4.5 
Q 40.046875 -1.8125 39.984375 6.78125 
Q 34.234375 0 25.640625 0 
Q 14.9375 0 9.078125 7.71875 
Q 3.21875 15.4375 3.21875 26.21875 
Q 3.21875 33.640625 5.90625 39.90625 
Q 8.59375 46.1875 13.6875 49.609375 
Q 18.796875 53.03125 25.6875 53.03125 
Q 34.859375 53.03125 40.828125 45.609375 
L 40.828125 51.859375 
L 48.921875 51.859375 
L 48.921875 7.03125 
Q 48.921875 -5.078125 46.453125 -10.125 
Q 44 -15.1875 38.640625 -18.109375 
Q 33.296875 -21.046875 25.484375 -21.046875 
Q 16.21875 -21.046875 10.5 -16.875 
Q 4.78125 -12.703125 4.984375 -4.296875 
z
M 12.25 26.859375 
Q 12.25 16.65625 16.296875 11.96875 
Q 20.359375 7.28125 26.46875 7.28125 
Q 32.515625 7.28125 36.609375 11.9375 
Q 40.71875 16.609375 40.71875 26.5625 
Q 40.71875 36.078125 36.5 40.90625 
Q 32.28125 45.75 26.3125 45.75 
Q 20.453125 45.75 16.34375 40.984375 
Q 12.25 36.234375 12.25 26.859375 
z
" id="ArialMT-103"/>
      <path d="M 6.390625 0 
L 6.390625 71.578125 
L 15.1875 71.578125 
L 15.1875 0 
z
" id="ArialMT-108"/>
     </defs>
     <g style="fill:#262626;" transform="translate(253.240625 52.654688)scale(0.15 -0.15)">
      <use xlink:href="#ArialMT-115"/>
      <use x="50" xlink:href="#ArialMT-105"/>
      <use x="72.216797" xlink:href="#ArialMT-110"/>
      <use x="127.832031" xlink:href="#ArialMT-103"/>
      <use x="183.447266" xlink:href="#ArialMT-108"/>
      <use x="205.664062" xlink:href="#ArialMT-101"/>
     </g>
    </g>
    <g id="line2d_18">
     <path d="M 211.240625 68.798438 
L 241.240625 68.798438 
" style="fill:none;stroke:#ff7f0e;stroke-linecap:round;stroke-width:1.5;"/>
    </g>
    <g id="line2d_19">
     <g>
      <use style="fill:#ff7f0e;stroke:#ffffff;stroke-width:0.75;" x="226.240625" xlink:href="#m4370a17055" y="68.798438"/>
     </g>
    </g>
    <g id="text_19">
     <!-- complete -->
     <defs>
      <path d="M 40.4375 19 
L 49.078125 17.875 
Q 47.65625 8.9375 41.8125 3.875 
Q 35.984375 -1.171875 27.484375 -1.171875 
Q 16.84375 -1.171875 10.375 5.78125 
Q 3.90625 12.75 3.90625 25.734375 
Q 3.90625 34.125 6.6875 40.421875 
Q 9.46875 46.734375 15.15625 49.875 
Q 20.84375 53.03125 27.546875 53.03125 
Q 35.984375 53.03125 41.359375 48.75 
Q 46.734375 44.484375 48.25 36.625 
L 39.703125 35.296875 
Q 38.484375 40.53125 35.375 43.15625 
Q 32.28125 45.796875 27.875 45.796875 
Q 21.234375 45.796875 17.078125 41.03125 
Q 12.9375 36.28125 12.9375 25.984375 
Q 12.9375 15.53125 16.9375 10.796875 
Q 20.953125 6.0625 27.390625 6.0625 
Q 32.5625 6.0625 36.03125 9.234375 
Q 39.5 12.40625 40.4375 19 
z
" id="ArialMT-99"/>
      <path d="M 6.59375 0 
L 6.59375 51.859375 
L 14.453125 51.859375 
L 14.453125 44.578125 
Q 16.890625 48.390625 20.9375 50.703125 
Q 25 53.03125 30.171875 53.03125 
Q 35.9375 53.03125 39.625 50.640625 
Q 43.3125 48.25 44.828125 43.953125 
Q 50.984375 53.03125 60.84375 53.03125 
Q 68.5625 53.03125 72.703125 48.75 
Q 76.859375 44.484375 76.859375 35.59375 
L 76.859375 0 
L 68.109375 0 
L 68.109375 32.671875 
Q 68.109375 37.9375 67.25 40.25 
Q 66.40625 42.578125 64.15625 43.984375 
Q 61.921875 45.40625 58.890625 45.40625 
Q 53.421875 45.40625 49.796875 41.765625 
Q 46.1875 38.140625 46.1875 30.125 
L 46.1875 0 
L 37.40625 0 
L 37.40625 33.6875 
Q 37.40625 39.546875 35.25 42.46875 
Q 33.109375 45.40625 28.21875 45.40625 
Q 24.515625 45.40625 21.359375 43.453125 
Q 18.21875 41.5 16.796875 37.734375 
Q 15.375 33.984375 15.375 26.90625 
L 15.375 0 
z
" id="ArialMT-109"/>
      <path d="M 6.59375 -19.875 
L 6.59375 51.859375 
L 14.59375 51.859375 
L 14.59375 45.125 
Q 17.4375 49.078125 21 51.046875 
Q 24.5625 53.03125 29.640625 53.03125 
Q 36.28125 53.03125 41.359375 49.609375 
Q 46.4375 46.1875 49.015625 39.953125 
Q 51.609375 33.734375 51.609375 26.3125 
Q 51.609375 18.359375 48.75 11.984375 
Q 45.90625 5.609375 40.453125 2.21875 
Q 35.015625 -1.171875 29 -1.171875 
Q 24.609375 -1.171875 21.109375 0.6875 
Q 17.625 2.546875 15.375 5.375 
L 15.375 -19.875 
z
M 14.546875 25.640625 
Q 14.546875 15.625 18.59375 10.84375 
Q 22.65625 6.0625 28.421875 6.0625 
Q 34.28125 6.0625 38.453125 11.015625 
Q 42.625 15.96875 42.625 26.375 
Q 42.625 36.28125 38.546875 41.203125 
Q 34.46875 46.140625 28.8125 46.140625 
Q 23.1875 46.140625 18.859375 40.890625 
Q 14.546875 35.640625 14.546875 25.640625 
z
" id="ArialMT-112"/>
     </defs>
     <g style="fill:#262626;" transform="translate(253.240625 74.048438)scale(0.15 -0.15)">
      <use xlink:href="#ArialMT-99"/>
      <use x="50" xlink:href="#ArialMT-111"/>
      <use x="105.615234" xlink:href="#ArialMT-109"/>
      <use x="188.916016" xlink:href="#ArialMT-112"/>
      <use x="244.53125" xlink:href="#ArialMT-108"/>
      <use x="266.748047" xlink:href="#ArialMT-101"/>
      <use x="322.363281" xlink:href="#ArialMT-116"/>
      <use x="350.146484" xlink:href="#ArialMT-101"/>
     </g>
    </g>
    <g id="line2d_20">
     <path d="M 211.240625 90.016406 
L 241.240625 90.016406 
" style="fill:none;stroke:#2ca02c;stroke-linecap:round;stroke-width:1.5;"/>
    </g>
    <g id="line2d_21">
     <g>
      <use style="fill:#2ca02c;stroke:#ffffff;stroke-width:0.75;" x="226.240625" xlink:href="#m48cc999ccb" y="90.016406"/>
     </g>
    </g>
    <g id="text_20">
     <!-- weighted -->
     <defs>
      <path d="M 16.15625 0 
L 0.296875 51.859375 
L 9.375 51.859375 
L 17.625 21.921875 
L 20.703125 10.796875 
Q 20.90625 11.625 23.390625 21.484375 
L 31.640625 51.859375 
L 40.671875 51.859375 
L 48.4375 21.78125 
L 51.03125 11.859375 
L 54 21.875 
L 62.890625 51.859375 
L 71.4375 51.859375 
L 55.21875 0 
L 46.09375 0 
L 37.84375 31.0625 
L 35.84375 39.890625 
L 25.34375 0 
z
" id="ArialMT-119"/>
     </defs>
     <g style="fill:#262626;" transform="translate(253.240625 95.266406)scale(0.15 -0.15)">
      <use xlink:href="#ArialMT-119"/>
      <use x="72.216797" xlink:href="#ArialMT-101"/>
      <use x="127.832031" xlink:href="#ArialMT-105"/>
      <use x="150.048828" xlink:href="#ArialMT-103"/>
      <use x="205.664062" xlink:href="#ArialMT-104"/>
      <use x="261.279297" xlink:href="#ArialMT-116"/>
      <use x="289.0625" xlink:href="#ArialMT-101"/>
      <use x="344.677734" xlink:href="#ArialMT-100"/>
     </g>
    </g>
   </g>
  </g>
 </g>
 <defs>
  <clipPath id="p910f2f448e">
   <rect height="271.8" width="279" x="48.600781" y="7.2"/>
  </clipPath>
 </defs>
</svg>
