<?xml version="1.0" encoding="utf-8" standalone="no"?>
<!DOCTYPE svg PUBLIC "-//W3C//DTD SVG 1.1//EN"
  "http://www.w3.org/Graphics/SVG/1.1/DTD/svg11.dtd">
<!-- Created with matplotlib (https://matplotlib.org/) -->
<svg height="324.635938pt" version="1.1" viewBox="0 0 353.928693 324.635938" width="353.928693pt" xmlns="http://www.w3.org/2000/svg" xmlns:xlink="http://www.w3.org/1999/xlink">
 <defs>
  <style type="text/css">
*{stroke-linecap:butt;stroke-linejoin:round;}
  </style>
 </defs>
 <g id="figure_1">
  <g id="patch_1">
   <path d="M 0 324.635938 
L 353.928693 324.635938 
L 353.928693 0 
L 0 0 
z
" style="fill:#ffffff;"/>
  </g>
  <g id="axes_1">
   <g id="patch_2">
    <path d="M 65.283594 279 
L 344.283594 279 
L 344.283594 7.2 
L 65.283594 7.2 
z
" style="fill:#ffffff;"/>
   </g>
   <g id="matplotlib.axis_1">
    <g id="xtick_1">
     <g id="text_1">
      <!-- 0 -->
      <defs>
       <path d="M 4.15625 35.296875 
Q 4.15625 48 6.765625 55.734375 
Q 9.375 63.484375 14.515625 67.671875 
Q 19.671875 71.875 27.484375 71.875 
Q 33.25 71.875 37.59375 69.546875 
Q 41.9375 67.234375 44.765625 62.859375 
Q 47.609375 58.5 49.21875 52.21875 
Q 50.828125 45.953125 50.828125 35.296875 
Q 50.828125 22.703125 48.234375 14.96875 
Q 45.65625 7.234375 40.5 3 
Q 35.359375 -1.21875 27.484375 -1.21875 
Q 17.140625 -1.21875 11.234375 6.203125 
Q 4.15625 15.140625 4.15625 35.296875 
z
M 13.1875 35.296875 
Q 13.1875 17.671875 17.3125 11.828125 
Q 21.4375 6 27.484375 6 
Q 33.546875 6 37.671875 11.859375 
Q 41.796875 17.71875 41.796875 35.296875 
Q 41.796875 52.984375 37.671875 58.78125 
Q 33.546875 64.59375 27.390625 64.59375 
Q 21.34375 64.59375 17.71875 59.46875 
Q 13.1875 52.9375 13.1875 35.296875 
z
" id="ArialMT-48"/>
      </defs>
      <g style="fill:#262626;" transform="translate(68.565093 296.736719)scale(0.15 -0.15)">
       <use xlink:href="#ArialMT-48"/>
      </g>
     </g>
    </g>
    <g id="xtick_2">
     <g id="text_2">
      <!-- 20 -->
      <defs>
       <path d="M 50.34375 8.453125 
L 50.34375 0 
L 3.03125 0 
Q 2.9375 3.171875 4.046875 6.109375 
Q 5.859375 10.9375 9.828125 15.625 
Q 13.8125 20.3125 21.34375 26.46875 
Q 33.015625 36.03125 37.109375 41.625 
Q 41.21875 47.21875 41.21875 52.203125 
Q 41.21875 57.421875 37.46875 61 
Q 33.734375 64.59375 27.734375 64.59375 
Q 21.390625 64.59375 17.578125 60.78125 
Q 13.765625 56.984375 13.71875 50.25 
L 4.6875 51.171875 
Q 5.609375 61.28125 11.65625 66.578125 
Q 17.71875 71.875 27.9375 71.875 
Q 38.234375 71.875 44.234375 66.15625 
Q 50.25 60.453125 50.25 52 
Q 50.25 47.703125 48.484375 43.546875 
Q 46.734375 39.40625 42.65625 34.8125 
Q 38.578125 30.21875 29.109375 22.21875 
Q 21.1875 15.578125 18.9375 13.203125 
Q 16.703125 10.84375 15.234375 8.453125 
z
" id="ArialMT-50"/>
      </defs>
      <g style="fill:#262626;" transform="translate(116.690547 296.736719)scale(0.15 -0.15)">
       <use xlink:href="#ArialMT-50"/>
       <use x="55.615234" xlink:href="#ArialMT-48"/>
      </g>
     </g>
    </g>
    <g id="xtick_3">
     <g id="text_3">
      <!-- 40 -->
      <defs>
       <path d="M 32.328125 0 
L 32.328125 17.140625 
L 1.265625 17.140625 
L 1.265625 25.203125 
L 33.9375 71.578125 
L 41.109375 71.578125 
L 41.109375 25.203125 
L 50.78125 25.203125 
L 50.78125 17.140625 
L 41.109375 17.140625 
L 41.109375 0 
z
M 32.328125 25.203125 
L 32.328125 57.46875 
L 9.90625 25.203125 
z
" id="ArialMT-52"/>
      </defs>
      <g style="fill:#262626;" transform="translate(168.986705 296.736719)scale(0.15 -0.15)">
       <use xlink:href="#ArialMT-52"/>
       <use x="55.615234" xlink:href="#ArialMT-48"/>
      </g>
     </g>
    </g>
    <g id="xtick_4">
     <g id="text_4">
      <!-- 60 -->
      <defs>
       <path d="M 49.75 54.046875 
L 41.015625 53.375 
Q 39.84375 58.546875 37.703125 60.890625 
Q 34.125 64.65625 28.90625 64.65625 
Q 24.703125 64.65625 21.53125 62.3125 
Q 17.390625 59.28125 14.984375 53.46875 
Q 12.59375 47.65625 12.5 36.921875 
Q 15.671875 41.75 20.265625 44.09375 
Q 24.859375 46.4375 29.890625 46.4375 
Q 38.671875 46.4375 44.84375 39.96875 
Q 51.03125 33.5 51.03125 23.25 
Q 51.03125 16.5 48.125 10.71875 
Q 45.21875 4.9375 40.140625 1.859375 
Q 35.0625 -1.21875 28.609375 -1.21875 
Q 17.625 -1.21875 10.6875 6.859375 
Q 3.765625 14.9375 3.765625 33.5 
Q 3.765625 54.25 11.421875 63.671875 
Q 18.109375 71.875 29.4375 71.875 
Q 37.890625 71.875 43.28125 67.140625 
Q 48.6875 62.40625 49.75 54.046875 
z
M 13.875 23.1875 
Q 13.875 18.65625 15.796875 14.5 
Q 17.71875 10.359375 21.1875 8.171875 
Q 24.65625 6 28.46875 6 
Q 34.03125 6 38.03125 10.484375 
Q 42.046875 14.984375 42.046875 22.703125 
Q 42.046875 30.125 38.078125 34.390625 
Q 34.125 38.671875 28.125 38.671875 
Q 22.171875 38.671875 18.015625 34.390625 
Q 13.875 30.125 13.875 23.1875 
z
" id="ArialMT-54"/>
      </defs>
      <g style="fill:#262626;" transform="translate(221.282862 296.736719)scale(0.15 -0.15)">
       <use xlink:href="#ArialMT-54"/>
       <use x="55.615234" xlink:href="#ArialMT-48"/>
      </g>
     </g>
    </g>
    <g id="xtick_5">
     <g id="text_5">
      <!-- 80 -->
      <defs>
       <path d="M 17.671875 38.8125 
Q 12.203125 40.828125 9.5625 44.53125 
Q 6.9375 48.25 6.9375 53.421875 
Q 6.9375 61.234375 12.546875 66.546875 
Q 18.171875 71.875 27.484375 71.875 
Q 36.859375 71.875 42.578125 66.421875 
Q 48.296875 60.984375 48.296875 53.171875 
Q 48.296875 48.1875 45.671875 44.5 
Q 43.0625 40.828125 37.75 38.8125 
Q 44.34375 36.671875 47.78125 31.875 
Q 51.21875 27.09375 51.21875 20.453125 
Q 51.21875 11.28125 44.71875 5.03125 
Q 38.234375 -1.21875 27.640625 -1.21875 
Q 17.046875 -1.21875 10.546875 5.046875 
Q 4.046875 11.328125 4.046875 20.703125 
Q 4.046875 27.6875 7.59375 32.390625 
Q 11.140625 37.109375 17.671875 38.8125 
z
M 15.921875 53.71875 
Q 15.921875 48.640625 19.1875 45.40625 
Q 22.46875 42.1875 27.6875 42.1875 
Q 32.765625 42.1875 36.015625 45.375 
Q 39.265625 48.578125 39.265625 53.21875 
Q 39.265625 58.0625 35.90625 61.359375 
Q 32.5625 64.65625 27.59375 64.65625 
Q 22.5625 64.65625 19.234375 61.421875 
Q 15.921875 58.203125 15.921875 53.71875 
z
M 13.09375 20.65625 
Q 13.09375 16.890625 14.875 13.375 
Q 16.65625 9.859375 20.171875 7.921875 
Q 23.6875 6 27.734375 6 
Q 34.03125 6 38.125 10.046875 
Q 42.234375 14.109375 42.234375 20.359375 
Q 42.234375 26.703125 38.015625 30.859375 
Q 33.796875 35.015625 27.4375 35.015625 
Q 21.234375 35.015625 17.15625 30.90625 
Q 13.09375 26.8125 13.09375 20.65625 
z
" id="ArialMT-56"/>
      </defs>
      <g style="fill:#262626;" transform="translate(273.57902 296.736719)scale(0.15 -0.15)">
       <use xlink:href="#ArialMT-56"/>
       <use x="55.615234" xlink:href="#ArialMT-48"/>
      </g>
     </g>
    </g>
    <g id="xtick_6">
     <g id="text_6">
      <!-- 100 -->
      <defs>
       <path d="M 37.25 0 
L 28.46875 0 
L 28.46875 56 
Q 25.296875 52.984375 20.140625 49.953125 
Q 14.984375 46.921875 10.890625 45.40625 
L 10.890625 53.90625 
Q 18.265625 57.375 23.78125 62.296875 
Q 29.296875 67.234375 31.59375 71.875 
L 37.25 71.875 
z
" id="ArialMT-49"/>
      </defs>
      <g style="fill:#262626;" transform="translate(321.704474 296.736719)scale(0.15 -0.15)">
       <use xlink:href="#ArialMT-49"/>
       <use x="55.615234" xlink:href="#ArialMT-48"/>
       <use x="111.230469" xlink:href="#ArialMT-48"/>
      </g>
     </g>
    </g>
    <g id="text_7">
     <!-- k -->
     <defs>
      <path d="M 6.640625 0 
L 6.640625 71.578125 
L 15.4375 71.578125 
L 15.4375 30.765625 
L 36.234375 51.859375 
L 47.609375 51.859375 
L 27.78125 32.625 
L 49.609375 0 
L 38.765625 0 
L 21.625 26.515625 
L 15.4375 20.5625 
L 15.4375 0 
z
" id="ArialMT-107"/>
     </defs>
     <g style="fill:#262626;" transform="translate(201.033594 314.454688)scale(0.15 -0.15)">
      <use xlink:href="#ArialMT-107"/>
     </g>
    </g>
   </g>
   <g id="matplotlib.axis_2">
    <g id="ytick_1">
     <g id="line2d_1">
      <path clip-path="url(#pa7efeb69d6)" d="M 65.283594 229.558583 
L 344.283594 229.558583 
" style="fill:none;stroke:#cccccc;stroke-linecap:round;stroke-width:0.8;"/>
     </g>
     <g id="text_8">
      <!-- 2500 -->
      <defs>
       <path d="M 4.15625 18.75 
L 13.375 19.53125 
Q 14.40625 12.796875 18.140625 9.390625 
Q 21.875 6 27.15625 6 
Q 33.5 6 37.890625 10.78125 
Q 42.28125 15.578125 42.28125 23.484375 
Q 42.28125 31 38.0625 35.34375 
Q 33.84375 39.703125 27 39.703125 
Q 22.75 39.703125 19.328125 37.765625 
Q 15.921875 35.84375 13.96875 32.765625 
L 5.71875 33.84375 
L 12.640625 70.609375 
L 48.25 70.609375 
L 48.25 62.203125 
L 19.671875 62.203125 
L 15.828125 42.96875 
Q 22.265625 47.46875 29.34375 47.46875 
Q 38.71875 47.46875 45.15625 40.96875 
Q 51.609375 34.46875 51.609375 24.265625 
Q 51.609375 14.546875 45.953125 7.46875 
Q 39.0625 -1.21875 27.15625 -1.21875 
Q 17.390625 -1.21875 11.203125 4.25 
Q 5.03125 9.71875 4.15625 18.75 
z
" id="ArialMT-53"/>
      </defs>
      <g style="fill:#262626;" transform="translate(24.917969 234.926942)scale(0.15 -0.15)">
       <use xlink:href="#ArialMT-50"/>
       <use x="55.615234" xlink:href="#ArialMT-53"/>
       <use x="111.230469" xlink:href="#ArialMT-48"/>
       <use x="166.845703" xlink:href="#ArialMT-48"/>
      </g>
     </g>
    </g>
    <g id="ytick_2">
     <g id="line2d_2">
      <path clip-path="url(#pa7efeb69d6)" d="M 65.283594 180.11173 
L 344.283594 180.11173 
" style="fill:none;stroke:#cccccc;stroke-linecap:round;stroke-width:0.8;"/>
     </g>
     <g id="text_9">
      <!-- 3000 -->
      <defs>
       <path d="M 4.203125 18.890625 
L 12.984375 20.0625 
Q 14.5 12.59375 18.140625 9.296875 
Q 21.78125 6 27 6 
Q 33.203125 6 37.46875 10.296875 
Q 41.75 14.59375 41.75 20.953125 
Q 41.75 27 37.796875 30.921875 
Q 33.84375 34.859375 27.734375 34.859375 
Q 25.25 34.859375 21.53125 33.890625 
L 22.515625 41.609375 
Q 23.390625 41.5 23.921875 41.5 
Q 29.546875 41.5 34.03125 44.421875 
Q 38.53125 47.359375 38.53125 53.46875 
Q 38.53125 58.296875 35.25 61.46875 
Q 31.984375 64.65625 26.8125 64.65625 
Q 21.6875 64.65625 18.265625 61.421875 
Q 14.84375 58.203125 13.875 51.765625 
L 5.078125 53.328125 
Q 6.6875 62.15625 12.390625 67.015625 
Q 18.109375 71.875 26.609375 71.875 
Q 32.46875 71.875 37.390625 69.359375 
Q 42.328125 66.84375 44.9375 62.5 
Q 47.5625 58.15625 47.5625 53.265625 
Q 47.5625 48.640625 45.0625 44.828125 
Q 42.578125 41.015625 37.703125 38.765625 
Q 44.046875 37.3125 47.5625 32.6875 
Q 51.078125 28.078125 51.078125 21.140625 
Q 51.078125 11.765625 44.234375 5.25 
Q 37.40625 -1.265625 26.953125 -1.265625 
Q 17.53125 -1.265625 11.296875 4.34375 
Q 5.078125 9.96875 4.203125 18.890625 
z
" id="ArialMT-51"/>
      </defs>
      <g style="fill:#262626;" transform="translate(24.917969 185.480089)scale(0.15 -0.15)">
       <use xlink:href="#ArialMT-51"/>
       <use x="55.615234" xlink:href="#ArialMT-48"/>
       <use x="111.230469" xlink:href="#ArialMT-48"/>
       <use x="166.845703" xlink:href="#ArialMT-48"/>
      </g>
     </g>
    </g>
    <g id="ytick_3">
     <g id="line2d_3">
      <path clip-path="url(#pa7efeb69d6)" d="M 65.283594 130.664877 
L 344.283594 130.664877 
" style="fill:none;stroke:#cccccc;stroke-linecap:round;stroke-width:0.8;"/>
     </g>
     <g id="text_10">
      <!-- 3500 -->
      <g style="fill:#262626;" transform="translate(24.917969 136.033236)scale(0.15 -0.15)">
       <use xlink:href="#ArialMT-51"/>
       <use x="55.615234" xlink:href="#ArialMT-53"/>
       <use x="111.230469" xlink:href="#ArialMT-48"/>
       <use x="166.845703" xlink:href="#ArialMT-48"/>
      </g>
     </g>
    </g>
    <g id="ytick_4">
     <g id="line2d_4">
      <path clip-path="url(#pa7efeb69d6)" d="M 65.283594 81.218024 
L 344.283594 81.218024 
" style="fill:none;stroke:#cccccc;stroke-linecap:round;stroke-width:0.8;"/>
     </g>
     <g id="text_11">
      <!-- 4000 -->
      <g style="fill:#262626;" transform="translate(24.917969 86.586383)scale(0.15 -0.15)">
       <use xlink:href="#ArialMT-52"/>
       <use x="55.615234" xlink:href="#ArialMT-48"/>
       <use x="111.230469" xlink:href="#ArialMT-48"/>
       <use x="166.845703" xlink:href="#ArialMT-48"/>
      </g>
     </g>
    </g>
    <g id="ytick_5">
     <g id="line2d_5">
      <path clip-path="url(#pa7efeb69d6)" d="M 65.283594 31.771171 
L 344.283594 31.771171 
" style="fill:none;stroke:#cccccc;stroke-linecap:round;stroke-width:0.8;"/>
     </g>
     <g id="text_12">
      <!-- 4500 -->
      <g style="fill:#262626;" transform="translate(24.917969 37.13953)scale(0.15 -0.15)">
       <use xlink:href="#ArialMT-52"/>
       <use x="55.615234" xlink:href="#ArialMT-53"/>
       <use x="111.230469" xlink:href="#ArialMT-48"/>
       <use x="166.845703" xlink:href="#ArialMT-48"/>
      </g>
     </g>
    </g>
    <g id="text_13">
     <!-- Within-Cluster Variation -->
     <defs>
      <path d="M 20.21875 0 
L 1.21875 71.578125 
L 10.9375 71.578125 
L 21.828125 24.65625 
Q 23.578125 17.28125 24.859375 10.015625 
Q 27.59375 21.484375 28.078125 23.25 
L 41.703125 71.578125 
L 53.125 71.578125 
L 63.375 35.359375 
Q 67.234375 21.875 68.953125 10.015625 
Q 70.3125 16.796875 72.515625 25.59375 
L 83.734375 71.578125 
L 93.265625 71.578125 
L 73.640625 0 
L 64.5 0 
L 49.421875 54.546875 
Q 47.515625 61.375 47.171875 62.9375 
Q 46.046875 58.015625 45.0625 54.546875 
L 29.890625 0 
z
" id="ArialMT-87"/>
      <path d="M 6.640625 61.46875 
L 6.640625 71.578125 
L 15.4375 71.578125 
L 15.4375 61.46875 
z
M 6.640625 0 
L 6.640625 51.859375 
L 15.4375 51.859375 
L 15.4375 0 
z
" id="ArialMT-105"/>
      <path d="M 25.78125 7.859375 
L 27.046875 0.09375 
Q 23.34375 -0.6875 20.40625 -0.6875 
Q 15.625 -0.6875 12.984375 0.828125 
Q 10.359375 2.34375 9.28125 4.8125 
Q 8.203125 7.28125 8.203125 15.1875 
L 8.203125 45.015625 
L 1.765625 45.015625 
L 1.765625 51.859375 
L 8.203125 51.859375 
L 8.203125 64.703125 
L 16.9375 69.96875 
L 16.9375 51.859375 
L 25.78125 51.859375 
L 25.78125 45.015625 
L 16.9375 45.015625 
L 16.9375 14.703125 
Q 16.9375 10.9375 17.40625 9.859375 
Q 17.875 8.796875 18.921875 8.15625 
Q 19.96875 7.515625 21.921875 7.515625 
Q 23.390625 7.515625 25.78125 7.859375 
z
" id="ArialMT-116"/>
      <path d="M 6.59375 0 
L 6.59375 71.578125 
L 15.375 71.578125 
L 15.375 45.90625 
Q 21.53125 53.03125 30.90625 53.03125 
Q 36.671875 53.03125 40.921875 50.75 
Q 45.171875 48.484375 47 44.484375 
Q 48.828125 40.484375 48.828125 32.859375 
L 48.828125 0 
L 40.046875 0 
L 40.046875 32.859375 
Q 40.046875 39.453125 37.1875 42.453125 
Q 34.328125 45.453125 29.109375 45.453125 
Q 25.203125 45.453125 21.75 43.421875 
Q 18.3125 41.40625 16.84375 37.9375 
Q 15.375 34.46875 15.375 28.375 
L 15.375 0 
z
" id="ArialMT-104"/>
      <path d="M 6.59375 0 
L 6.59375 51.859375 
L 14.5 51.859375 
L 14.5 44.484375 
Q 20.21875 53.03125 31 53.03125 
Q 35.6875 53.03125 39.625 51.34375 
Q 43.5625 49.65625 45.515625 46.921875 
Q 47.46875 44.1875 48.25 40.4375 
Q 48.734375 37.984375 48.734375 31.890625 
L 48.734375 0 
L 39.9375 0 
L 39.9375 31.546875 
Q 39.9375 36.921875 38.90625 39.578125 
Q 37.890625 42.234375 35.28125 43.8125 
Q 32.671875 45.40625 29.15625 45.40625 
Q 23.53125 45.40625 19.453125 41.84375 
Q 15.375 38.28125 15.375 28.328125 
L 15.375 0 
z
" id="ArialMT-110"/>
      <path d="M 3.171875 21.484375 
L 3.171875 30.328125 
L 30.171875 30.328125 
L 30.171875 21.484375 
z
" id="ArialMT-45"/>
      <path d="M 58.796875 25.09375 
L 68.265625 22.703125 
Q 65.28125 11.03125 57.546875 4.90625 
Q 49.8125 -1.21875 38.625 -1.21875 
Q 27.046875 -1.21875 19.796875 3.484375 
Q 12.546875 8.203125 8.765625 17.140625 
Q 4.984375 26.078125 4.984375 36.328125 
Q 4.984375 47.515625 9.25 55.828125 
Q 13.53125 64.15625 21.40625 68.46875 
Q 29.296875 72.796875 38.765625 72.796875 
Q 49.515625 72.796875 56.828125 67.328125 
Q 64.15625 61.859375 67.046875 51.953125 
L 57.71875 49.75 
Q 55.21875 57.5625 50.484375 61.125 
Q 45.75 64.703125 38.578125 64.703125 
Q 30.328125 64.703125 24.78125 60.734375 
Q 19.234375 56.78125 16.984375 50.109375 
Q 14.75 43.453125 14.75 36.375 
Q 14.75 27.25 17.40625 20.4375 
Q 20.0625 13.625 25.671875 10.25 
Q 31.296875 6.890625 37.84375 6.890625 
Q 45.796875 6.890625 51.3125 11.46875 
Q 56.84375 16.0625 58.796875 25.09375 
z
" id="ArialMT-67"/>
      <path d="M 6.390625 0 
L 6.390625 71.578125 
L 15.1875 71.578125 
L 15.1875 0 
z
" id="ArialMT-108"/>
      <path d="M 40.578125 0 
L 40.578125 7.625 
Q 34.515625 -1.171875 24.125 -1.171875 
Q 19.53125 -1.171875 15.546875 0.578125 
Q 11.578125 2.34375 9.640625 5 
Q 7.71875 7.671875 6.9375 11.53125 
Q 6.390625 14.109375 6.390625 19.734375 
L 6.390625 51.859375 
L 15.1875 51.859375 
L 15.1875 23.09375 
Q 15.1875 16.21875 15.71875 13.8125 
Q 16.546875 10.359375 19.234375 8.375 
Q 21.921875 6.390625 25.875 6.390625 
Q 29.828125 6.390625 33.296875 8.421875 
Q 36.765625 10.453125 38.203125 13.9375 
Q 39.65625 17.4375 39.65625 24.078125 
L 39.65625 51.859375 
L 48.4375 51.859375 
L 48.4375 0 
z
" id="ArialMT-117"/>
      <path d="M 3.078125 15.484375 
L 11.765625 16.84375 
Q 12.5 11.625 15.84375 8.84375 
Q 19.1875 6.0625 25.203125 6.0625 
Q 31.25 6.0625 34.171875 8.515625 
Q 37.109375 10.984375 37.109375 14.3125 
Q 37.109375 17.28125 34.515625 19 
Q 32.71875 20.171875 25.53125 21.96875 
Q 15.875 24.421875 12.140625 26.203125 
Q 8.40625 27.984375 6.46875 31.125 
Q 4.546875 34.28125 4.546875 38.09375 
Q 4.546875 41.546875 6.125 44.5 
Q 7.71875 47.46875 10.453125 49.421875 
Q 12.5 50.921875 16.03125 51.96875 
Q 19.578125 53.03125 23.640625 53.03125 
Q 29.734375 53.03125 34.34375 51.265625 
Q 38.96875 49.515625 41.15625 46.5 
Q 43.359375 43.5 44.1875 38.484375 
L 35.59375 37.3125 
Q 35.015625 41.3125 32.203125 43.546875 
Q 29.390625 45.796875 24.265625 45.796875 
Q 18.21875 45.796875 15.625 43.796875 
Q 13.03125 41.796875 13.03125 39.109375 
Q 13.03125 37.40625 14.109375 36.03125 
Q 15.1875 34.625 17.484375 33.6875 
Q 18.796875 33.203125 25.25 31.453125 
Q 34.578125 28.953125 38.25 27.359375 
Q 41.9375 25.78125 44.03125 22.75 
Q 46.140625 19.734375 46.140625 15.234375 
Q 46.140625 10.84375 43.578125 6.953125 
Q 41.015625 3.078125 36.171875 0.953125 
Q 31.34375 -1.171875 25.25 -1.171875 
Q 15.140625 -1.171875 9.84375 3.03125 
Q 4.546875 7.234375 3.078125 15.484375 
z
" id="ArialMT-115"/>
      <path d="M 42.09375 16.703125 
L 51.171875 15.578125 
Q 49.03125 7.625 43.21875 3.21875 
Q 37.40625 -1.171875 28.375 -1.171875 
Q 17 -1.171875 10.328125 5.828125 
Q 3.65625 12.84375 3.65625 25.484375 
Q 3.65625 38.578125 10.390625 45.796875 
Q 17.140625 53.03125 27.875 53.03125 
Q 38.28125 53.03125 44.875 45.953125 
Q 51.46875 38.875 51.46875 26.03125 
Q 51.46875 25.25 51.421875 23.6875 
L 12.75 23.6875 
Q 13.234375 15.140625 17.578125 10.59375 
Q 21.921875 6.0625 28.421875 6.0625 
Q 33.25 6.0625 36.671875 8.59375 
Q 40.09375 11.140625 42.09375 16.703125 
z
M 13.234375 30.90625 
L 42.1875 30.90625 
Q 41.609375 37.453125 38.875 40.71875 
Q 34.671875 45.796875 27.984375 45.796875 
Q 21.921875 45.796875 17.796875 41.75 
Q 13.671875 37.703125 13.234375 30.90625 
z
" id="ArialMT-101"/>
      <path d="M 6.5 0 
L 6.5 51.859375 
L 14.40625 51.859375 
L 14.40625 44 
Q 17.4375 49.515625 20 51.265625 
Q 22.5625 53.03125 25.640625 53.03125 
Q 30.078125 53.03125 34.671875 50.203125 
L 31.640625 42.046875 
Q 28.421875 43.953125 25.203125 43.953125 
Q 22.3125 43.953125 20.015625 42.21875 
Q 17.71875 40.484375 16.75 37.40625 
Q 15.28125 32.71875 15.28125 27.15625 
L 15.28125 0 
z
" id="ArialMT-114"/>
      <path id="ArialMT-32"/>
      <path d="M 28.171875 0 
L 0.4375 71.578125 
L 10.6875 71.578125 
L 29.296875 19.578125 
Q 31.546875 13.328125 33.0625 7.859375 
Q 34.71875 13.71875 36.921875 19.578125 
L 56.25 71.578125 
L 65.921875 71.578125 
L 37.890625 0 
z
" id="ArialMT-86"/>
      <path d="M 40.4375 6.390625 
Q 35.546875 2.25 31.03125 0.53125 
Q 26.515625 -1.171875 21.34375 -1.171875 
Q 12.796875 -1.171875 8.203125 3 
Q 3.609375 7.171875 3.609375 13.671875 
Q 3.609375 17.484375 5.34375 20.625 
Q 7.078125 23.78125 9.890625 25.6875 
Q 12.703125 27.59375 16.21875 28.5625 
Q 18.796875 29.25 24.03125 29.890625 
Q 34.671875 31.15625 39.703125 32.90625 
Q 39.75 34.71875 39.75 35.203125 
Q 39.75 40.578125 37.25 42.78125 
Q 33.890625 45.75 27.25 45.75 
Q 21.046875 45.75 18.09375 43.578125 
Q 15.140625 41.40625 13.71875 35.890625 
L 5.125 37.0625 
Q 6.296875 42.578125 8.984375 45.96875 
Q 11.671875 49.359375 16.75 51.1875 
Q 21.828125 53.03125 28.515625 53.03125 
Q 35.15625 53.03125 39.296875 51.46875 
Q 43.453125 49.90625 45.40625 47.53125 
Q 47.359375 45.171875 48.140625 41.546875 
Q 48.578125 39.3125 48.578125 33.453125 
L 48.578125 21.734375 
Q 48.578125 9.46875 49.140625 6.21875 
Q 49.703125 2.984375 51.375 0 
L 42.1875 0 
Q 40.828125 2.734375 40.4375 6.390625 
z
M 39.703125 26.03125 
Q 34.90625 24.078125 25.34375 22.703125 
Q 19.921875 21.921875 17.671875 20.9375 
Q 15.4375 19.96875 14.203125 18.09375 
Q 12.984375 16.21875 12.984375 13.921875 
Q 12.984375 10.40625 15.640625 8.0625 
Q 18.3125 5.71875 23.4375 5.71875 
Q 28.515625 5.71875 32.46875 7.9375 
Q 36.421875 10.15625 38.28125 14.015625 
Q 39.703125 17 39.703125 22.796875 
z
" id="ArialMT-97"/>
      <path d="M 3.328125 25.921875 
Q 3.328125 40.328125 11.328125 47.265625 
Q 18.015625 53.03125 27.640625 53.03125 
Q 38.328125 53.03125 45.109375 46.015625 
Q 51.90625 39.015625 51.90625 26.65625 
Q 51.90625 16.65625 48.90625 10.90625 
Q 45.90625 5.171875 40.15625 2 
Q 34.421875 -1.171875 27.640625 -1.171875 
Q 16.75 -1.171875 10.03125 5.8125 
Q 3.328125 12.796875 3.328125 25.921875 
z
M 12.359375 25.921875 
Q 12.359375 15.96875 16.703125 11.015625 
Q 21.046875 6.0625 27.640625 6.0625 
Q 34.1875 6.0625 38.53125 11.03125 
Q 42.875 16.015625 42.875 26.21875 
Q 42.875 35.84375 38.5 40.796875 
Q 34.125 45.75 27.640625 45.75 
Q 21.046875 45.75 16.703125 40.8125 
Q 12.359375 35.890625 12.359375 25.921875 
z
" id="ArialMT-111"/>
     </defs>
     <g style="fill:#262626;" transform="translate(17.936719 221.864063)rotate(-90)scale(0.15 -0.15)">
      <use xlink:href="#ArialMT-87"/>
      <use x="94.384766" xlink:href="#ArialMT-105"/>
      <use x="116.601562" xlink:href="#ArialMT-116"/>
      <use x="144.384766" xlink:href="#ArialMT-104"/>
      <use x="200" xlink:href="#ArialMT-105"/>
      <use x="222.216797" xlink:href="#ArialMT-110"/>
      <use x="277.832031" xlink:href="#ArialMT-45"/>
      <use x="311.132812" xlink:href="#ArialMT-67"/>
      <use x="383.349609" xlink:href="#ArialMT-108"/>
      <use x="405.566406" xlink:href="#ArialMT-117"/>
      <use x="461.181641" xlink:href="#ArialMT-115"/>
      <use x="511.181641" xlink:href="#ArialMT-116"/>
      <use x="538.964844" xlink:href="#ArialMT-101"/>
      <use x="594.580078" xlink:href="#ArialMT-114"/>
      <use x="627.880859" xlink:href="#ArialMT-32"/>
      <use x="655.664062" xlink:href="#ArialMT-86"/>
      <use x="722.253906" xlink:href="#ArialMT-97"/>
      <use x="777.869141" xlink:href="#ArialMT-114"/>
      <use x="811.169922" xlink:href="#ArialMT-105"/>
      <use x="833.386719" xlink:href="#ArialMT-97"/>
      <use x="889.001953" xlink:href="#ArialMT-116"/>
      <use x="916.785156" xlink:href="#ArialMT-105"/>
      <use x="939.001953" xlink:href="#ArialMT-111"/>
      <use x="994.617188" xlink:href="#ArialMT-110"/>
     </g>
    </g>
   </g>
   <g id="line2d_6">
    <path clip-path="url(#pa7efeb69d6)" d="M 77.965412 19.554545 
L 80.58022 21.005294 
L 83.195028 22.311315 
L 85.809836 23.829226 
L 88.424643 24.924274 
L 91.039451 26.318451 
L 93.654259 27.744379 
L 96.269067 29.235634 
L 98.883875 30.2115 
L 101.498683 31.393233 
L 104.113491 32.620494 
L 106.728299 33.407704 
L 109.343106 34.731405 
L 111.957914 35.461875 
L 114.572722 36.373449 
L 117.18753 37.589175 
L 119.802338 38.641577 
L 122.417146 39.702403 
L 125.031954 40.355321 
L 127.646762 41.431806 
L 130.261569 42.189705 
L 132.876377 43.189923 
L 135.491185 44.486766 
L 138.105993 45.427635 
L 140.720801 46.61282 
L 143.335609 47.511594 
L 145.950417 48.690123 
L 148.565224 49.499406 
L 151.180032 50.475993 
L 153.79484 51.30131 
L 156.409648 52.028924 
L 159.024456 53.0797 
L 161.639264 53.893803 
L 164.254072 54.612158 
L 166.86888 55.414906 
L 169.483687 55.995405 
L 172.098495 57.875245 
L 174.713303 58.724994 
L 177.328111 59.476091 
L 179.942919 60.12213 
L 182.557727 61.471628 
L 185.172535 62.529732 
L 187.787343 63.104269 
L 190.40215 63.821794 
L 193.016958 64.557638 
L 195.631766 65.066949 
L 198.246574 65.286067 
L 200.861382 65.975168 
L 203.47619 66.552112 
L 206.090998 67.350377 
L 208.705806 68.031427 
L 211.320613 69.217859 
L 213.935421 70.242825 
L 216.550229 70.906419 
L 219.165037 72.376276 
L 221.779845 73.135783 
L 224.394653 73.729606 
L 227.009461 74.750204 
L 229.624269 78.304203 
L 232.239076 78.738884 
L 234.853884 80.559035 
L 237.468692 81.015816 
L 240.0835 81.827364 
L 242.698308 82.840346 
L 245.313116 85.060529 
L 247.927924 85.255209 
L 250.542732 85.841603 
L 253.157539 86.175332 
L 255.772347 86.945382 
L 258.387155 87.559452 
L 261.001963 88.443467 
L 263.616771 89.221668 
L 266.231579 89.824792 
L 268.846387 91.1394 
L 271.461194 91.823926 
L 274.076002 92.189173 
L 276.69081 92.629179 
L 279.305618 93.968228 
L 281.920426 94.313676 
L 284.535234 94.909845 
L 287.150042 95.543 
L 289.76485 96.08485 
L 292.379657 96.831005 
L 294.994465 97.735226 
L 297.609273 98.142899 
L 300.224081 98.819163 
L 302.838889 100.484247 
L 305.453697 100.648516 
L 308.068505 101.279956 
L 310.683313 102.064161 
L 313.29812 102.531097 
L 315.912928 102.967816 
L 318.527736 103.651863 
L 321.142544 104.17147 
L 323.757352 105.201246 
L 326.37216 105.614194 
L 328.986968 106.04713 
L 331.601776 106.647527 
" style="fill:none;stroke:#1f77b4;stroke-linecap:round;stroke-width:1.5;"/>
    <defs>
     <path d="M 0 3 
C 0.795609 3 1.55874 2.683901 2.12132 2.12132 
C 2.683901 1.55874 3 0.795609 3 0 
C 3 -0.795609 2.683901 -1.55874 2.12132 -2.12132 
C 1.55874 -2.683901 0.795609 -3 0 -3 
C -0.795609 -3 -1.55874 -2.683901 -2.12132 -2.12132 
C -2.683901 -1.55874 -3 -0.795609 -3 0 
C -3 0.795609 -2.683901 1.55874 -2.12132 2.12132 
C -1.55874 2.683901 -0.795609 3 0 3 
z
" id="mf5ded9a932" style="stroke:#ffffff;stroke-width:0.75;"/>
    </defs>
    <g clip-path="url(#pa7efeb69d6)">
     <use style="fill:#1f77b4;stroke:#ffffff;stroke-width:0.75;" x="77.965412" xlink:href="#mf5ded9a932" y="19.554545"/>
     <use style="fill:#1f77b4;stroke:#ffffff;stroke-width:0.75;" x="80.58022" xlink:href="#mf5ded9a932" y="21.005294"/>
     <use style="fill:#1f77b4;stroke:#ffffff;stroke-width:0.75;" x="83.195028" xlink:href="#mf5ded9a932" y="22.311315"/>
     <use style="fill:#1f77b4;stroke:#ffffff;stroke-width:0.75;" x="85.809836" xlink:href="#mf5ded9a932" y="23.829226"/>
     <use style="fill:#1f77b4;stroke:#ffffff;stroke-width:0.75;" x="88.424643" xlink:href="#mf5ded9a932" y="24.924274"/>
     <use style="fill:#1f77b4;stroke:#ffffff;stroke-width:0.75;" x="91.039451" xlink:href="#mf5ded9a932" y="26.318451"/>
     <use style="fill:#1f77b4;stroke:#ffffff;stroke-width:0.75;" x="93.654259" xlink:href="#mf5ded9a932" y="27.744379"/>
     <use style="fill:#1f77b4;stroke:#ffffff;stroke-width:0.75;" x="96.269067" xlink:href="#mf5ded9a932" y="29.235634"/>
     <use style="fill:#1f77b4;stroke:#ffffff;stroke-width:0.75;" x="98.883875" xlink:href="#mf5ded9a932" y="30.2115"/>
     <use style="fill:#1f77b4;stroke:#ffffff;stroke-width:0.75;" x="101.498683" xlink:href="#mf5ded9a932" y="31.393233"/>
     <use style="fill:#1f77b4;stroke:#ffffff;stroke-width:0.75;" x="104.113491" xlink:href="#mf5ded9a932" y="32.620494"/>
     <use style="fill:#1f77b4;stroke:#ffffff;stroke-width:0.75;" x="106.728299" xlink:href="#mf5ded9a932" y="33.407704"/>
     <use style="fill:#1f77b4;stroke:#ffffff;stroke-width:0.75;" x="109.343106" xlink:href="#mf5ded9a932" y="34.731405"/>
     <use style="fill:#1f77b4;stroke:#ffffff;stroke-width:0.75;" x="111.957914" xlink:href="#mf5ded9a932" y="35.461875"/>
     <use style="fill:#1f77b4;stroke:#ffffff;stroke-width:0.75;" x="114.572722" xlink:href="#mf5ded9a932" y="36.373449"/>
     <use style="fill:#1f77b4;stroke:#ffffff;stroke-width:0.75;" x="117.18753" xlink:href="#mf5ded9a932" y="37.589175"/>
     <use style="fill:#1f77b4;stroke:#ffffff;stroke-width:0.75;" x="119.802338" xlink:href="#mf5ded9a932" y="38.641577"/>
     <use style="fill:#1f77b4;stroke:#ffffff;stroke-width:0.75;" x="122.417146" xlink:href="#mf5ded9a932" y="39.702403"/>
     <use style="fill:#1f77b4;stroke:#ffffff;stroke-width:0.75;" x="125.031954" xlink:href="#mf5ded9a932" y="40.355321"/>
     <use style="fill:#1f77b4;stroke:#ffffff;stroke-width:0.75;" x="127.646762" xlink:href="#mf5ded9a932" y="41.431806"/>
     <use style="fill:#1f77b4;stroke:#ffffff;stroke-width:0.75;" x="130.261569" xlink:href="#mf5ded9a932" y="42.189705"/>
     <use style="fill:#1f77b4;stroke:#ffffff;stroke-width:0.75;" x="132.876377" xlink:href="#mf5ded9a932" y="43.189923"/>
     <use style="fill:#1f77b4;stroke:#ffffff;stroke-width:0.75;" x="135.491185" xlink:href="#mf5ded9a932" y="44.486766"/>
     <use style="fill:#1f77b4;stroke:#ffffff;stroke-width:0.75;" x="138.105993" xlink:href="#mf5ded9a932" y="45.427635"/>
     <use style="fill:#1f77b4;stroke:#ffffff;stroke-width:0.75;" x="140.720801" xlink:href="#mf5ded9a932" y="46.61282"/>
     <use style="fill:#1f77b4;stroke:#ffffff;stroke-width:0.75;" x="143.335609" xlink:href="#mf5ded9a932" y="47.511594"/>
     <use style="fill:#1f77b4;stroke:#ffffff;stroke-width:0.75;" x="145.950417" xlink:href="#mf5ded9a932" y="48.690123"/>
     <use style="fill:#1f77b4;stroke:#ffffff;stroke-width:0.75;" x="148.565224" xlink:href="#mf5ded9a932" y="49.499406"/>
     <use style="fill:#1f77b4;stroke:#ffffff;stroke-width:0.75;" x="151.180032" xlink:href="#mf5ded9a932" y="50.475993"/>
     <use style="fill:#1f77b4;stroke:#ffffff;stroke-width:0.75;" x="153.79484" xlink:href="#mf5ded9a932" y="51.30131"/>
     <use style="fill:#1f77b4;stroke:#ffffff;stroke-width:0.75;" x="156.409648" xlink:href="#mf5ded9a932" y="52.028924"/>
     <use style="fill:#1f77b4;stroke:#ffffff;stroke-width:0.75;" x="159.024456" xlink:href="#mf5ded9a932" y="53.0797"/>
     <use style="fill:#1f77b4;stroke:#ffffff;stroke-width:0.75;" x="161.639264" xlink:href="#mf5ded9a932" y="53.893803"/>
     <use style="fill:#1f77b4;stroke:#ffffff;stroke-width:0.75;" x="164.254072" xlink:href="#mf5ded9a932" y="54.612158"/>
     <use style="fill:#1f77b4;stroke:#ffffff;stroke-width:0.75;" x="166.86888" xlink:href="#mf5ded9a932" y="55.414906"/>
     <use style="fill:#1f77b4;stroke:#ffffff;stroke-width:0.75;" x="169.483687" xlink:href="#mf5ded9a932" y="55.995405"/>
     <use style="fill:#1f77b4;stroke:#ffffff;stroke-width:0.75;" x="172.098495" xlink:href="#mf5ded9a932" y="57.875245"/>
     <use style="fill:#1f77b4;stroke:#ffffff;stroke-width:0.75;" x="174.713303" xlink:href="#mf5ded9a932" y="58.724994"/>
     <use style="fill:#1f77b4;stroke:#ffffff;stroke-width:0.75;" x="177.328111" xlink:href="#mf5ded9a932" y="59.476091"/>
     <use style="fill:#1f77b4;stroke:#ffffff;stroke-width:0.75;" x="179.942919" xlink:href="#mf5ded9a932" y="60.12213"/>
     <use style="fill:#1f77b4;stroke:#ffffff;stroke-width:0.75;" x="182.557727" xlink:href="#mf5ded9a932" y="61.471628"/>
     <use style="fill:#1f77b4;stroke:#ffffff;stroke-width:0.75;" x="185.172535" xlink:href="#mf5ded9a932" y="62.529732"/>
     <use style="fill:#1f77b4;stroke:#ffffff;stroke-width:0.75;" x="187.787343" xlink:href="#mf5ded9a932" y="63.104269"/>
     <use style="fill:#1f77b4;stroke:#ffffff;stroke-width:0.75;" x="190.40215" xlink:href="#mf5ded9a932" y="63.821794"/>
     <use style="fill:#1f77b4;stroke:#ffffff;stroke-width:0.75;" x="193.016958" xlink:href="#mf5ded9a932" y="64.557638"/>
     <use style="fill:#1f77b4;stroke:#ffffff;stroke-width:0.75;" x="195.631766" xlink:href="#mf5ded9a932" y="65.066949"/>
     <use style="fill:#1f77b4;stroke:#ffffff;stroke-width:0.75;" x="198.246574" xlink:href="#mf5ded9a932" y="65.286067"/>
     <use style="fill:#1f77b4;stroke:#ffffff;stroke-width:0.75;" x="200.861382" xlink:href="#mf5ded9a932" y="65.975168"/>
     <use style="fill:#1f77b4;stroke:#ffffff;stroke-width:0.75;" x="203.47619" xlink:href="#mf5ded9a932" y="66.552112"/>
     <use style="fill:#1f77b4;stroke:#ffffff;stroke-width:0.75;" x="206.090998" xlink:href="#mf5ded9a932" y="67.350377"/>
     <use style="fill:#1f77b4;stroke:#ffffff;stroke-width:0.75;" x="208.705806" xlink:href="#mf5ded9a932" y="68.031427"/>
     <use style="fill:#1f77b4;stroke:#ffffff;stroke-width:0.75;" x="211.320613" xlink:href="#mf5ded9a932" y="69.217859"/>
     <use style="fill:#1f77b4;stroke:#ffffff;stroke-width:0.75;" x="213.935421" xlink:href="#mf5ded9a932" y="70.242825"/>
     <use style="fill:#1f77b4;stroke:#ffffff;stroke-width:0.75;" x="216.550229" xlink:href="#mf5ded9a932" y="70.906419"/>
     <use style="fill:#1f77b4;stroke:#ffffff;stroke-width:0.75;" x="219.165037" xlink:href="#mf5ded9a932" y="72.376276"/>
     <use style="fill:#1f77b4;stroke:#ffffff;stroke-width:0.75;" x="221.779845" xlink:href="#mf5ded9a932" y="73.135783"/>
     <use style="fill:#1f77b4;stroke:#ffffff;stroke-width:0.75;" x="224.394653" xlink:href="#mf5ded9a932" y="73.729606"/>
     <use style="fill:#1f77b4;stroke:#ffffff;stroke-width:0.75;" x="227.009461" xlink:href="#mf5ded9a932" y="74.750204"/>
     <use style="fill:#1f77b4;stroke:#ffffff;stroke-width:0.75;" x="229.624269" xlink:href="#mf5ded9a932" y="78.304203"/>
     <use style="fill:#1f77b4;stroke:#ffffff;stroke-width:0.75;" x="232.239076" xlink:href="#mf5ded9a932" y="78.738884"/>
     <use style="fill:#1f77b4;stroke:#ffffff;stroke-width:0.75;" x="234.853884" xlink:href="#mf5ded9a932" y="80.559035"/>
     <use style="fill:#1f77b4;stroke:#ffffff;stroke-width:0.75;" x="237.468692" xlink:href="#mf5ded9a932" y="81.015816"/>
     <use style="fill:#1f77b4;stroke:#ffffff;stroke-width:0.75;" x="240.0835" xlink:href="#mf5ded9a932" y="81.827364"/>
     <use style="fill:#1f77b4;stroke:#ffffff;stroke-width:0.75;" x="242.698308" xlink:href="#mf5ded9a932" y="82.840346"/>
     <use style="fill:#1f77b4;stroke:#ffffff;stroke-width:0.75;" x="245.313116" xlink:href="#mf5ded9a932" y="85.060529"/>
     <use style="fill:#1f77b4;stroke:#ffffff;stroke-width:0.75;" x="247.927924" xlink:href="#mf5ded9a932" y="85.255209"/>
     <use style="fill:#1f77b4;stroke:#ffffff;stroke-width:0.75;" x="250.542732" xlink:href="#mf5ded9a932" y="85.841603"/>
     <use style="fill:#1f77b4;stroke:#ffffff;stroke-width:0.75;" x="253.157539" xlink:href="#mf5ded9a932" y="86.175332"/>
     <use style="fill:#1f77b4;stroke:#ffffff;stroke-width:0.75;" x="255.772347" xlink:href="#mf5ded9a932" y="86.945382"/>
     <use style="fill:#1f77b4;stroke:#ffffff;stroke-width:0.75;" x="258.387155" xlink:href="#mf5ded9a932" y="87.559452"/>
     <use style="fill:#1f77b4;stroke:#ffffff;stroke-width:0.75;" x="261.001963" xlink:href="#mf5ded9a932" y="88.443467"/>
     <use style="fill:#1f77b4;stroke:#ffffff;stroke-width:0.75;" x="263.616771" xlink:href="#mf5ded9a932" y="89.221668"/>
     <use style="fill:#1f77b4;stroke:#ffffff;stroke-width:0.75;" x="266.231579" xlink:href="#mf5ded9a932" y="89.824792"/>
     <use style="fill:#1f77b4;stroke:#ffffff;stroke-width:0.75;" x="268.846387" xlink:href="#mf5ded9a932" y="91.1394"/>
     <use style="fill:#1f77b4;stroke:#ffffff;stroke-width:0.75;" x="271.461194" xlink:href="#mf5ded9a932" y="91.823926"/>
     <use style="fill:#1f77b4;stroke:#ffffff;stroke-width:0.75;" x="274.076002" xlink:href="#mf5ded9a932" y="92.189173"/>
     <use style="fill:#1f77b4;stroke:#ffffff;stroke-width:0.75;" x="276.69081" xlink:href="#mf5ded9a932" y="92.629179"/>
     <use style="fill:#1f77b4;stroke:#ffffff;stroke-width:0.75;" x="279.305618" xlink:href="#mf5ded9a932" y="93.968228"/>
     <use style="fill:#1f77b4;stroke:#ffffff;stroke-width:0.75;" x="281.920426" xlink:href="#mf5ded9a932" y="94.313676"/>
     <use style="fill:#1f77b4;stroke:#ffffff;stroke-width:0.75;" x="284.535234" xlink:href="#mf5ded9a932" y="94.909845"/>
     <use style="fill:#1f77b4;stroke:#ffffff;stroke-width:0.75;" x="287.150042" xlink:href="#mf5ded9a932" y="95.543"/>
     <use style="fill:#1f77b4;stroke:#ffffff;stroke-width:0.75;" x="289.76485" xlink:href="#mf5ded9a932" y="96.08485"/>
     <use style="fill:#1f77b4;stroke:#ffffff;stroke-width:0.75;" x="292.379657" xlink:href="#mf5ded9a932" y="96.831005"/>
     <use style="fill:#1f77b4;stroke:#ffffff;stroke-width:0.75;" x="294.994465" xlink:href="#mf5ded9a932" y="97.735226"/>
     <use style="fill:#1f77b4;stroke:#ffffff;stroke-width:0.75;" x="297.609273" xlink:href="#mf5ded9a932" y="98.142899"/>
     <use style="fill:#1f77b4;stroke:#ffffff;stroke-width:0.75;" x="300.224081" xlink:href="#mf5ded9a932" y="98.819163"/>
     <use style="fill:#1f77b4;stroke:#ffffff;stroke-width:0.75;" x="302.838889" xlink:href="#mf5ded9a932" y="100.484247"/>
     <use style="fill:#1f77b4;stroke:#ffffff;stroke-width:0.75;" x="305.453697" xlink:href="#mf5ded9a932" y="100.648516"/>
     <use style="fill:#1f77b4;stroke:#ffffff;stroke-width:0.75;" x="308.068505" xlink:href="#mf5ded9a932" y="101.279956"/>
     <use style="fill:#1f77b4;stroke:#ffffff;stroke-width:0.75;" x="310.683313" xlink:href="#mf5ded9a932" y="102.064161"/>
     <use style="fill:#1f77b4;stroke:#ffffff;stroke-width:0.75;" x="313.29812" xlink:href="#mf5ded9a932" y="102.531097"/>
     <use style="fill:#1f77b4;stroke:#ffffff;stroke-width:0.75;" x="315.912928" xlink:href="#mf5ded9a932" y="102.967816"/>
     <use style="fill:#1f77b4;stroke:#ffffff;stroke-width:0.75;" x="318.527736" xlink:href="#mf5ded9a932" y="103.651863"/>
     <use style="fill:#1f77b4;stroke:#ffffff;stroke-width:0.75;" x="321.142544" xlink:href="#mf5ded9a932" y="104.17147"/>
     <use style="fill:#1f77b4;stroke:#ffffff;stroke-width:0.75;" x="323.757352" xlink:href="#mf5ded9a932" y="105.201246"/>
     <use style="fill:#1f77b4;stroke:#ffffff;stroke-width:0.75;" x="326.37216" xlink:href="#mf5ded9a932" y="105.614194"/>
     <use style="fill:#1f77b4;stroke:#ffffff;stroke-width:0.75;" x="328.986968" xlink:href="#mf5ded9a932" y="106.04713"/>
     <use style="fill:#1f77b4;stroke:#ffffff;stroke-width:0.75;" x="331.601776" xlink:href="#mf5ded9a932" y="106.647527"/>
    </g>
   </g>
   <g id="line2d_7">
    <path clip-path="url(#pa7efeb69d6)" d="M 77.965412 70.836129 
L 80.58022 94.575839 
L 83.195028 105.567416 
L 85.809836 108.156742 
L 88.424643 111.244009 
L 91.039451 113.582351 
L 93.654259 116.057647 
L 96.269067 117.259456 
L 98.883875 119.793747 
L 101.498683 120.686074 
L 104.113491 131.955881 
L 106.728299 134.128156 
L 109.343106 143.485619 
L 111.957914 144.762258 
L 114.572722 146.03474 
L 117.18753 148.033414 
L 119.802338 149.815536 
L 122.417146 154.805903 
L 125.031954 158.166749 
L 127.646762 170.322868 
L 130.261569 171.082274 
L 132.876377 172.284971 
L 135.491185 173.884197 
L 138.105993 175.891849 
L 140.720801 176.726867 
L 143.335609 180.686611 
L 145.950417 181.565602 
L 148.565224 182.378391 
L 151.180032 183.055221 
L 153.79484 184.430604 
L 156.409648 185.040873 
L 159.024456 185.822058 
L 161.639264 186.891658 
L 164.254072 187.739111 
L 166.86888 188.815556 
L 169.483687 190.345365 
L 172.098495 191.116151 
L 174.713303 197.938092 
L 177.328111 198.581298 
L 179.942919 200.113722 
L 182.557727 205.383511 
L 185.172535 206.155053 
L 187.787343 208.951836 
L 190.40215 210.071352 
L 193.016958 212.684046 
L 195.631766 213.780829 
L 198.246574 215.075337 
L 200.861382 216.014949 
L 203.47619 216.657883 
L 206.090998 217.383259 
L 208.705806 218.694752 
L 211.320613 221.117691 
L 213.935421 222.66557 
L 216.550229 224.109073 
L 219.165037 224.816593 
L 221.779845 225.972022 
L 224.394653 229.376949 
L 227.009461 230.83364 
L 229.624269 232.837541 
L 232.239076 233.637898 
L 234.853884 236.800171 
L 237.468692 237.223843 
L 240.0835 237.776807 
L 242.698308 238.46971 
L 245.313116 238.975778 
L 247.927924 240.328218 
L 250.542732 240.971248 
L 253.157539 241.363333 
L 255.772347 241.986495 
L 258.387155 244.486453 
L 261.001963 245.502438 
L 263.616771 246.860799 
L 266.231579 248.197597 
L 268.846387 248.672964 
L 271.461194 249.93872 
L 274.076002 250.60575 
L 276.69081 251.070524 
L 279.305618 253.1495 
L 281.920426 253.970532 
L 284.535234 254.688819 
L 287.150042 255.243065 
L 289.76485 256.74518 
L 292.379657 257.147374 
L 294.994465 257.904188 
L 297.609273 258.953007 
L 300.224081 259.75525 
L 302.838889 260.330827 
L 305.453697 261.132326 
L 308.068505 261.648971 
L 310.683313 262.063179 
L 313.29812 262.482428 
L 315.912928 263.080166 
L 318.527736 263.698201 
L 321.142544 264.2962 
L 323.757352 264.752809 
L 326.37216 265.710438 
L 328.986968 266.20583 
L 331.601776 266.645455 
" style="fill:none;stroke:#ff7f0e;stroke-linecap:round;stroke-width:1.5;"/>
    <defs>
     <path d="M 0 3 
C 0.795609 3 1.55874 2.683901 2.12132 2.12132 
C 2.683901 1.55874 3 0.795609 3 0 
C 3 -0.795609 2.683901 -1.55874 2.12132 -2.12132 
C 1.55874 -2.683901 0.795609 -3 0 -3 
C -0.795609 -3 -1.55874 -2.683901 -2.12132 -2.12132 
C -2.683901 -1.55874 -3 -0.795609 -3 0 
C -3 0.795609 -2.683901 1.55874 -2.12132 2.12132 
C -1.55874 2.683901 -0.795609 3 0 3 
z
" id="m12fa5cf7f7" style="stroke:#ffffff;stroke-width:0.75;"/>
    </defs>
    <g clip-path="url(#pa7efeb69d6)">
     <use style="fill:#ff7f0e;stroke:#ffffff;stroke-width:0.75;" x="77.965412" xlink:href="#m12fa5cf7f7" y="70.836129"/>
     <use style="fill:#ff7f0e;stroke:#ffffff;stroke-width:0.75;" x="80.58022" xlink:href="#m12fa5cf7f7" y="94.575839"/>
     <use style="fill:#ff7f0e;stroke:#ffffff;stroke-width:0.75;" x="83.195028" xlink:href="#m12fa5cf7f7" y="105.567416"/>
     <use style="fill:#ff7f0e;stroke:#ffffff;stroke-width:0.75;" x="85.809836" xlink:href="#m12fa5cf7f7" y="108.156742"/>
     <use style="fill:#ff7f0e;stroke:#ffffff;stroke-width:0.75;" x="88.424643" xlink:href="#m12fa5cf7f7" y="111.244009"/>
     <use style="fill:#ff7f0e;stroke:#ffffff;stroke-width:0.75;" x="91.039451" xlink:href="#m12fa5cf7f7" y="113.582351"/>
     <use style="fill:#ff7f0e;stroke:#ffffff;stroke-width:0.75;" x="93.654259" xlink:href="#m12fa5cf7f7" y="116.057647"/>
     <use style="fill:#ff7f0e;stroke:#ffffff;stroke-width:0.75;" x="96.269067" xlink:href="#m12fa5cf7f7" y="117.259456"/>
     <use style="fill:#ff7f0e;stroke:#ffffff;stroke-width:0.75;" x="98.883875" xlink:href="#m12fa5cf7f7" y="119.793747"/>
     <use style="fill:#ff7f0e;stroke:#ffffff;stroke-width:0.75;" x="101.498683" xlink:href="#m12fa5cf7f7" y="120.686074"/>
     <use style="fill:#ff7f0e;stroke:#ffffff;stroke-width:0.75;" x="104.113491" xlink:href="#m12fa5cf7f7" y="131.955881"/>
     <use style="fill:#ff7f0e;stroke:#ffffff;stroke-width:0.75;" x="106.728299" xlink:href="#m12fa5cf7f7" y="134.128156"/>
     <use style="fill:#ff7f0e;stroke:#ffffff;stroke-width:0.75;" x="109.343106" xlink:href="#m12fa5cf7f7" y="143.485619"/>
     <use style="fill:#ff7f0e;stroke:#ffffff;stroke-width:0.75;" x="111.957914" xlink:href="#m12fa5cf7f7" y="144.762258"/>
     <use style="fill:#ff7f0e;stroke:#ffffff;stroke-width:0.75;" x="114.572722" xlink:href="#m12fa5cf7f7" y="146.03474"/>
     <use style="fill:#ff7f0e;stroke:#ffffff;stroke-width:0.75;" x="117.18753" xlink:href="#m12fa5cf7f7" y="148.033414"/>
     <use style="fill:#ff7f0e;stroke:#ffffff;stroke-width:0.75;" x="119.802338" xlink:href="#m12fa5cf7f7" y="149.815536"/>
     <use style="fill:#ff7f0e;stroke:#ffffff;stroke-width:0.75;" x="122.417146" xlink:href="#m12fa5cf7f7" y="154.805903"/>
     <use style="fill:#ff7f0e;stroke:#ffffff;stroke-width:0.75;" x="125.031954" xlink:href="#m12fa5cf7f7" y="158.166749"/>
     <use style="fill:#ff7f0e;stroke:#ffffff;stroke-width:0.75;" x="127.646762" xlink:href="#m12fa5cf7f7" y="170.322868"/>
     <use style="fill:#ff7f0e;stroke:#ffffff;stroke-width:0.75;" x="130.261569" xlink:href="#m12fa5cf7f7" y="171.082274"/>
     <use style="fill:#ff7f0e;stroke:#ffffff;stroke-width:0.75;" x="132.876377" xlink:href="#m12fa5cf7f7" y="172.284971"/>
     <use style="fill:#ff7f0e;stroke:#ffffff;stroke-width:0.75;" x="135.491185" xlink:href="#m12fa5cf7f7" y="173.884197"/>
     <use style="fill:#ff7f0e;stroke:#ffffff;stroke-width:0.75;" x="138.105993" xlink:href="#m12fa5cf7f7" y="175.891849"/>
     <use style="fill:#ff7f0e;stroke:#ffffff;stroke-width:0.75;" x="140.720801" xlink:href="#m12fa5cf7f7" y="176.726867"/>
     <use style="fill:#ff7f0e;stroke:#ffffff;stroke-width:0.75;" x="143.335609" xlink:href="#m12fa5cf7f7" y="180.686611"/>
     <use style="fill:#ff7f0e;stroke:#ffffff;stroke-width:0.75;" x="145.950417" xlink:href="#m12fa5cf7f7" y="181.565602"/>
     <use style="fill:#ff7f0e;stroke:#ffffff;stroke-width:0.75;" x="148.565224" xlink:href="#m12fa5cf7f7" y="182.378391"/>
     <use style="fill:#ff7f0e;stroke:#ffffff;stroke-width:0.75;" x="151.180032" xlink:href="#m12fa5cf7f7" y="183.055221"/>
     <use style="fill:#ff7f0e;stroke:#ffffff;stroke-width:0.75;" x="153.79484" xlink:href="#m12fa5cf7f7" y="184.430604"/>
     <use style="fill:#ff7f0e;stroke:#ffffff;stroke-width:0.75;" x="156.409648" xlink:href="#m12fa5cf7f7" y="185.040873"/>
     <use style="fill:#ff7f0e;stroke:#ffffff;stroke-width:0.75;" x="159.024456" xlink:href="#m12fa5cf7f7" y="185.822058"/>
     <use style="fill:#ff7f0e;stroke:#ffffff;stroke-width:0.75;" x="161.639264" xlink:href="#m12fa5cf7f7" y="186.891658"/>
     <use style="fill:#ff7f0e;stroke:#ffffff;stroke-width:0.75;" x="164.254072" xlink:href="#m12fa5cf7f7" y="187.739111"/>
     <use style="fill:#ff7f0e;stroke:#ffffff;stroke-width:0.75;" x="166.86888" xlink:href="#m12fa5cf7f7" y="188.815556"/>
     <use style="fill:#ff7f0e;stroke:#ffffff;stroke-width:0.75;" x="169.483687" xlink:href="#m12fa5cf7f7" y="190.345365"/>
     <use style="fill:#ff7f0e;stroke:#ffffff;stroke-width:0.75;" x="172.098495" xlink:href="#m12fa5cf7f7" y="191.116151"/>
     <use style="fill:#ff7f0e;stroke:#ffffff;stroke-width:0.75;" x="174.713303" xlink:href="#m12fa5cf7f7" y="197.938092"/>
     <use style="fill:#ff7f0e;stroke:#ffffff;stroke-width:0.75;" x="177.328111" xlink:href="#m12fa5cf7f7" y="198.581298"/>
     <use style="fill:#ff7f0e;stroke:#ffffff;stroke-width:0.75;" x="179.942919" xlink:href="#m12fa5cf7f7" y="200.113722"/>
     <use style="fill:#ff7f0e;stroke:#ffffff;stroke-width:0.75;" x="182.557727" xlink:href="#m12fa5cf7f7" y="205.383511"/>
     <use style="fill:#ff7f0e;stroke:#ffffff;stroke-width:0.75;" x="185.172535" xlink:href="#m12fa5cf7f7" y="206.155053"/>
     <use style="fill:#ff7f0e;stroke:#ffffff;stroke-width:0.75;" x="187.787343" xlink:href="#m12fa5cf7f7" y="208.951836"/>
     <use style="fill:#ff7f0e;stroke:#ffffff;stroke-width:0.75;" x="190.40215" xlink:href="#m12fa5cf7f7" y="210.071352"/>
     <use style="fill:#ff7f0e;stroke:#ffffff;stroke-width:0.75;" x="193.016958" xlink:href="#m12fa5cf7f7" y="212.684046"/>
     <use style="fill:#ff7f0e;stroke:#ffffff;stroke-width:0.75;" x="195.631766" xlink:href="#m12fa5cf7f7" y="213.780829"/>
     <use style="fill:#ff7f0e;stroke:#ffffff;stroke-width:0.75;" x="198.246574" xlink:href="#m12fa5cf7f7" y="215.075337"/>
     <use style="fill:#ff7f0e;stroke:#ffffff;stroke-width:0.75;" x="200.861382" xlink:href="#m12fa5cf7f7" y="216.014949"/>
     <use style="fill:#ff7f0e;stroke:#ffffff;stroke-width:0.75;" x="203.47619" xlink:href="#m12fa5cf7f7" y="216.657883"/>
     <use style="fill:#ff7f0e;stroke:#ffffff;stroke-width:0.75;" x="206.090998" xlink:href="#m12fa5cf7f7" y="217.383259"/>
     <use style="fill:#ff7f0e;stroke:#ffffff;stroke-width:0.75;" x="208.705806" xlink:href="#m12fa5cf7f7" y="218.694752"/>
     <use style="fill:#ff7f0e;stroke:#ffffff;stroke-width:0.75;" x="211.320613" xlink:href="#m12fa5cf7f7" y="221.117691"/>
     <use style="fill:#ff7f0e;stroke:#ffffff;stroke-width:0.75;" x="213.935421" xlink:href="#m12fa5cf7f7" y="222.66557"/>
     <use style="fill:#ff7f0e;stroke:#ffffff;stroke-width:0.75;" x="216.550229" xlink:href="#m12fa5cf7f7" y="224.109073"/>
     <use style="fill:#ff7f0e;stroke:#ffffff;stroke-width:0.75;" x="219.165037" xlink:href="#m12fa5cf7f7" y="224.816593"/>
     <use style="fill:#ff7f0e;stroke:#ffffff;stroke-width:0.75;" x="221.779845" xlink:href="#m12fa5cf7f7" y="225.972022"/>
     <use style="fill:#ff7f0e;stroke:#ffffff;stroke-width:0.75;" x="224.394653" xlink:href="#m12fa5cf7f7" y="229.376949"/>
     <use style="fill:#ff7f0e;stroke:#ffffff;stroke-width:0.75;" x="227.009461" xlink:href="#m12fa5cf7f7" y="230.83364"/>
     <use style="fill:#ff7f0e;stroke:#ffffff;stroke-width:0.75;" x="229.624269" xlink:href="#m12fa5cf7f7" y="232.837541"/>
     <use style="fill:#ff7f0e;stroke:#ffffff;stroke-width:0.75;" x="232.239076" xlink:href="#m12fa5cf7f7" y="233.637898"/>
     <use style="fill:#ff7f0e;stroke:#ffffff;stroke-width:0.75;" x="234.853884" xlink:href="#m12fa5cf7f7" y="236.800171"/>
     <use style="fill:#ff7f0e;stroke:#ffffff;stroke-width:0.75;" x="237.468692" xlink:href="#m12fa5cf7f7" y="237.223843"/>
     <use style="fill:#ff7f0e;stroke:#ffffff;stroke-width:0.75;" x="240.0835" xlink:href="#m12fa5cf7f7" y="237.776807"/>
     <use style="fill:#ff7f0e;stroke:#ffffff;stroke-width:0.75;" x="242.698308" xlink:href="#m12fa5cf7f7" y="238.46971"/>
     <use style="fill:#ff7f0e;stroke:#ffffff;stroke-width:0.75;" x="245.313116" xlink:href="#m12fa5cf7f7" y="238.975778"/>
     <use style="fill:#ff7f0e;stroke:#ffffff;stroke-width:0.75;" x="247.927924" xlink:href="#m12fa5cf7f7" y="240.328218"/>
     <use style="fill:#ff7f0e;stroke:#ffffff;stroke-width:0.75;" x="250.542732" xlink:href="#m12fa5cf7f7" y="240.971248"/>
     <use style="fill:#ff7f0e;stroke:#ffffff;stroke-width:0.75;" x="253.157539" xlink:href="#m12fa5cf7f7" y="241.363333"/>
     <use style="fill:#ff7f0e;stroke:#ffffff;stroke-width:0.75;" x="255.772347" xlink:href="#m12fa5cf7f7" y="241.986495"/>
     <use style="fill:#ff7f0e;stroke:#ffffff;stroke-width:0.75;" x="258.387155" xlink:href="#m12fa5cf7f7" y="244.486453"/>
     <use style="fill:#ff7f0e;stroke:#ffffff;stroke-width:0.75;" x="261.001963" xlink:href="#m12fa5cf7f7" y="245.502438"/>
     <use style="fill:#ff7f0e;stroke:#ffffff;stroke-width:0.75;" x="263.616771" xlink:href="#m12fa5cf7f7" y="246.860799"/>
     <use style="fill:#ff7f0e;stroke:#ffffff;stroke-width:0.75;" x="266.231579" xlink:href="#m12fa5cf7f7" y="248.197597"/>
     <use style="fill:#ff7f0e;stroke:#ffffff;stroke-width:0.75;" x="268.846387" xlink:href="#m12fa5cf7f7" y="248.672964"/>
     <use style="fill:#ff7f0e;stroke:#ffffff;stroke-width:0.75;" x="271.461194" xlink:href="#m12fa5cf7f7" y="249.93872"/>
     <use style="fill:#ff7f0e;stroke:#ffffff;stroke-width:0.75;" x="274.076002" xlink:href="#m12fa5cf7f7" y="250.60575"/>
     <use style="fill:#ff7f0e;stroke:#ffffff;stroke-width:0.75;" x="276.69081" xlink:href="#m12fa5cf7f7" y="251.070524"/>
     <use style="fill:#ff7f0e;stroke:#ffffff;stroke-width:0.75;" x="279.305618" xlink:href="#m12fa5cf7f7" y="253.1495"/>
     <use style="fill:#ff7f0e;stroke:#ffffff;stroke-width:0.75;" x="281.920426" xlink:href="#m12fa5cf7f7" y="253.970532"/>
     <use style="fill:#ff7f0e;stroke:#ffffff;stroke-width:0.75;" x="284.535234" xlink:href="#m12fa5cf7f7" y="254.688819"/>
     <use style="fill:#ff7f0e;stroke:#ffffff;stroke-width:0.75;" x="287.150042" xlink:href="#m12fa5cf7f7" y="255.243065"/>
     <use style="fill:#ff7f0e;stroke:#ffffff;stroke-width:0.75;" x="289.76485" xlink:href="#m12fa5cf7f7" y="256.74518"/>
     <use style="fill:#ff7f0e;stroke:#ffffff;stroke-width:0.75;" x="292.379657" xlink:href="#m12fa5cf7f7" y="257.147374"/>
     <use style="fill:#ff7f0e;stroke:#ffffff;stroke-width:0.75;" x="294.994465" xlink:href="#m12fa5cf7f7" y="257.904188"/>
     <use style="fill:#ff7f0e;stroke:#ffffff;stroke-width:0.75;" x="297.609273" xlink:href="#m12fa5cf7f7" y="258.953007"/>
     <use style="fill:#ff7f0e;stroke:#ffffff;stroke-width:0.75;" x="300.224081" xlink:href="#m12fa5cf7f7" y="259.75525"/>
     <use style="fill:#ff7f0e;stroke:#ffffff;stroke-width:0.75;" x="302.838889" xlink:href="#m12fa5cf7f7" y="260.330827"/>
     <use style="fill:#ff7f0e;stroke:#ffffff;stroke-width:0.75;" x="305.453697" xlink:href="#m12fa5cf7f7" y="261.132326"/>
     <use style="fill:#ff7f0e;stroke:#ffffff;stroke-width:0.75;" x="308.068505" xlink:href="#m12fa5cf7f7" y="261.648971"/>
     <use style="fill:#ff7f0e;stroke:#ffffff;stroke-width:0.75;" x="310.683313" xlink:href="#m12fa5cf7f7" y="262.063179"/>
     <use style="fill:#ff7f0e;stroke:#ffffff;stroke-width:0.75;" x="313.29812" xlink:href="#m12fa5cf7f7" y="262.482428"/>
     <use style="fill:#ff7f0e;stroke:#ffffff;stroke-width:0.75;" x="315.912928" xlink:href="#m12fa5cf7f7" y="263.080166"/>
     <use style="fill:#ff7f0e;stroke:#ffffff;stroke-width:0.75;" x="318.527736" xlink:href="#m12fa5cf7f7" y="263.698201"/>
     <use style="fill:#ff7f0e;stroke:#ffffff;stroke-width:0.75;" x="321.142544" xlink:href="#m12fa5cf7f7" y="264.2962"/>
     <use style="fill:#ff7f0e;stroke:#ffffff;stroke-width:0.75;" x="323.757352" xlink:href="#m12fa5cf7f7" y="264.752809"/>
     <use style="fill:#ff7f0e;stroke:#ffffff;stroke-width:0.75;" x="326.37216" xlink:href="#m12fa5cf7f7" y="265.710438"/>
     <use style="fill:#ff7f0e;stroke:#ffffff;stroke-width:0.75;" x="328.986968" xlink:href="#m12fa5cf7f7" y="266.20583"/>
     <use style="fill:#ff7f0e;stroke:#ffffff;stroke-width:0.75;" x="331.601776" xlink:href="#m12fa5cf7f7" y="266.645455"/>
    </g>
   </g>
   <g id="line2d_8">
    <path clip-path="url(#pa7efeb69d6)" d="M 77.965412 20.638499 
L 80.58022 21.943827 
L 83.195028 26.893358 
L 85.809836 27.961831 
L 88.424643 61.26415 
L 91.039451 62.905248 
L 93.654259 65.119661 
L 96.269067 68.016899 
L 98.883875 70.261209 
L 101.498683 71.275815 
L 104.113491 90.236398 
L 106.728299 93.644172 
L 109.343106 94.701785 
L 111.957914 106.677448 
L 114.572722 107.368665 
L 117.18753 108.027183 
L 119.802338 109.199279 
L 122.417146 109.791412 
L 125.031954 118.066525 
L 127.646762 118.893824 
L 130.261569 119.697035 
L 132.876377 120.404555 
L 135.491185 123.899468 
L 138.105993 124.407869 
L 140.720801 125.660004 
L 143.335609 126.403496 
L 145.950417 128.526352 
L 148.565224 129.260659 
L 151.180032 130.295415 
L 153.79484 130.917685 
L 156.409648 131.856539 
L 159.024456 137.806121 
L 161.639264 138.270895 
L 164.254072 138.883961 
L 166.86888 145.842133 
L 169.483687 152.565037 
L 172.098495 153.245709 
L 174.713303 154.767056 
L 177.328111 156.697138 
L 179.942919 157.203206 
L 182.557727 157.715375 
L 185.172535 158.134624 
L 187.787343 158.591234 
L 190.40215 159.286186 
L 193.016958 160.514504 
L 195.631766 161.682436 
L 198.246574 162.22037 
L 200.861382 163.253033 
L 203.47619 165.107433 
L 206.090998 166.813687 
L 208.705806 178.503005 
L 211.320613 178.973335 
L 213.935421 179.489981 
L 216.550229 180.129594 
L 219.165037 180.95594 
L 221.779845 181.401218 
L 224.394653 182.024136 
L 227.009461 182.709029 
L 229.624269 184.269757 
L 232.239076 184.654789 
L 234.853884 185.075889 
L 237.468692 191.774218 
L 240.0835 192.551052 
L 242.698308 193.049152 
L 245.313116 193.742487 
L 247.927924 194.700363 
L 250.542732 196.046408 
L 253.157539 196.488641 
L 255.772347 196.840598 
L 258.387155 197.323995 
L 261.001963 198.032638 
L 263.616771 198.379009 
L 266.231579 209.826618 
L 268.846387 212.756268 
L 271.461194 213.15449 
L 274.076002 213.641127 
L 276.69081 214.165312 
L 279.305618 214.47813 
L 281.920426 223.231624 
L 284.535234 223.711327 
L 287.150042 224.62269 
L 289.76485 227.715222 
L 292.379657 228.312654 
L 294.994465 229.052973 
L 297.609273 229.380981 
L 300.224081 230.332228 
L 302.838889 230.903564 
L 305.453697 231.892485 
L 308.068505 232.201282 
L 310.683313 233.585923 
L 313.29812 234.302223 
L 315.912928 234.694732 
L 318.527736 234.968611 
L 321.142544 237.030491 
L 323.757352 238.426337 
L 326.37216 239.559589 
L 328.986968 240.415811 
L 331.601776 240.912399 
" style="fill:none;stroke:#2ca02c;stroke-linecap:round;stroke-width:1.5;"/>
    <defs>
     <path d="M 0 3 
C 0.795609 3 1.55874 2.683901 2.12132 2.12132 
C 2.683901 1.55874 3 0.795609 3 0 
C 3 -0.795609 2.683901 -1.55874 2.12132 -2.12132 
C 1.55874 -2.683901 0.795609 -3 0 -3 
C -0.795609 -3 -1.55874 -2.683901 -2.12132 -2.12132 
C -2.683901 -1.55874 -3 -0.795609 -3 0 
C -3 0.795609 -2.683901 1.55874 -2.12132 2.12132 
C -1.55874 2.683901 -0.795609 3 0 3 
z
" id="m25c4115e2a" style="stroke:#ffffff;stroke-width:0.75;"/>
    </defs>
    <g clip-path="url(#pa7efeb69d6)">
     <use style="fill:#2ca02c;stroke:#ffffff;stroke-width:0.75;" x="77.965412" xlink:href="#m25c4115e2a" y="20.638499"/>
     <use style="fill:#2ca02c;stroke:#ffffff;stroke-width:0.75;" x="80.58022" xlink:href="#m25c4115e2a" y="21.943827"/>
     <use style="fill:#2ca02c;stroke:#ffffff;stroke-width:0.75;" x="83.195028" xlink:href="#m25c4115e2a" y="26.893358"/>
     <use style="fill:#2ca02c;stroke:#ffffff;stroke-width:0.75;" x="85.809836" xlink:href="#m25c4115e2a" y="27.961831"/>
     <use style="fill:#2ca02c;stroke:#ffffff;stroke-width:0.75;" x="88.424643" xlink:href="#m25c4115e2a" y="61.26415"/>
     <use style="fill:#2ca02c;stroke:#ffffff;stroke-width:0.75;" x="91.039451" xlink:href="#m25c4115e2a" y="62.905248"/>
     <use style="fill:#2ca02c;stroke:#ffffff;stroke-width:0.75;" x="93.654259" xlink:href="#m25c4115e2a" y="65.119661"/>
     <use style="fill:#2ca02c;stroke:#ffffff;stroke-width:0.75;" x="96.269067" xlink:href="#m25c4115e2a" y="68.016899"/>
     <use style="fill:#2ca02c;stroke:#ffffff;stroke-width:0.75;" x="98.883875" xlink:href="#m25c4115e2a" y="70.261209"/>
     <use style="fill:#2ca02c;stroke:#ffffff;stroke-width:0.75;" x="101.498683" xlink:href="#m25c4115e2a" y="71.275815"/>
     <use style="fill:#2ca02c;stroke:#ffffff;stroke-width:0.75;" x="104.113491" xlink:href="#m25c4115e2a" y="90.236398"/>
     <use style="fill:#2ca02c;stroke:#ffffff;stroke-width:0.75;" x="106.728299" xlink:href="#m25c4115e2a" y="93.644172"/>
     <use style="fill:#2ca02c;stroke:#ffffff;stroke-width:0.75;" x="109.343106" xlink:href="#m25c4115e2a" y="94.701785"/>
     <use style="fill:#2ca02c;stroke:#ffffff;stroke-width:0.75;" x="111.957914" xlink:href="#m25c4115e2a" y="106.677448"/>
     <use style="fill:#2ca02c;stroke:#ffffff;stroke-width:0.75;" x="114.572722" xlink:href="#m25c4115e2a" y="107.368665"/>
     <use style="fill:#2ca02c;stroke:#ffffff;stroke-width:0.75;" x="117.18753" xlink:href="#m25c4115e2a" y="108.027183"/>
     <use style="fill:#2ca02c;stroke:#ffffff;stroke-width:0.75;" x="119.802338" xlink:href="#m25c4115e2a" y="109.199279"/>
     <use style="fill:#2ca02c;stroke:#ffffff;stroke-width:0.75;" x="122.417146" xlink:href="#m25c4115e2a" y="109.791412"/>
     <use style="fill:#2ca02c;stroke:#ffffff;stroke-width:0.75;" x="125.031954" xlink:href="#m25c4115e2a" y="118.066525"/>
     <use style="fill:#2ca02c;stroke:#ffffff;stroke-width:0.75;" x="127.646762" xlink:href="#m25c4115e2a" y="118.893824"/>
     <use style="fill:#2ca02c;stroke:#ffffff;stroke-width:0.75;" x="130.261569" xlink:href="#m25c4115e2a" y="119.697035"/>
     <use style="fill:#2ca02c;stroke:#ffffff;stroke-width:0.75;" x="132.876377" xlink:href="#m25c4115e2a" y="120.404555"/>
     <use style="fill:#2ca02c;stroke:#ffffff;stroke-width:0.75;" x="135.491185" xlink:href="#m25c4115e2a" y="123.899468"/>
     <use style="fill:#2ca02c;stroke:#ffffff;stroke-width:0.75;" x="138.105993" xlink:href="#m25c4115e2a" y="124.407869"/>
     <use style="fill:#2ca02c;stroke:#ffffff;stroke-width:0.75;" x="140.720801" xlink:href="#m25c4115e2a" y="125.660004"/>
     <use style="fill:#2ca02c;stroke:#ffffff;stroke-width:0.75;" x="143.335609" xlink:href="#m25c4115e2a" y="126.403496"/>
     <use style="fill:#2ca02c;stroke:#ffffff;stroke-width:0.75;" x="145.950417" xlink:href="#m25c4115e2a" y="128.526352"/>
     <use style="fill:#2ca02c;stroke:#ffffff;stroke-width:0.75;" x="148.565224" xlink:href="#m25c4115e2a" y="129.260659"/>
     <use style="fill:#2ca02c;stroke:#ffffff;stroke-width:0.75;" x="151.180032" xlink:href="#m25c4115e2a" y="130.295415"/>
     <use style="fill:#2ca02c;stroke:#ffffff;stroke-width:0.75;" x="153.79484" xlink:href="#m25c4115e2a" y="130.917685"/>
     <use style="fill:#2ca02c;stroke:#ffffff;stroke-width:0.75;" x="156.409648" xlink:href="#m25c4115e2a" y="131.856539"/>
     <use style="fill:#2ca02c;stroke:#ffffff;stroke-width:0.75;" x="159.024456" xlink:href="#m25c4115e2a" y="137.806121"/>
     <use style="fill:#2ca02c;stroke:#ffffff;stroke-width:0.75;" x="161.639264" xlink:href="#m25c4115e2a" y="138.270895"/>
     <use style="fill:#2ca02c;stroke:#ffffff;stroke-width:0.75;" x="164.254072" xlink:href="#m25c4115e2a" y="138.883961"/>
     <use style="fill:#2ca02c;stroke:#ffffff;stroke-width:0.75;" x="166.86888" xlink:href="#m25c4115e2a" y="145.842133"/>
     <use style="fill:#2ca02c;stroke:#ffffff;stroke-width:0.75;" x="169.483687" xlink:href="#m25c4115e2a" y="152.565037"/>
     <use style="fill:#2ca02c;stroke:#ffffff;stroke-width:0.75;" x="172.098495" xlink:href="#m25c4115e2a" y="153.245709"/>
     <use style="fill:#2ca02c;stroke:#ffffff;stroke-width:0.75;" x="174.713303" xlink:href="#m25c4115e2a" y="154.767056"/>
     <use style="fill:#2ca02c;stroke:#ffffff;stroke-width:0.75;" x="177.328111" xlink:href="#m25c4115e2a" y="156.697138"/>
     <use style="fill:#2ca02c;stroke:#ffffff;stroke-width:0.75;" x="179.942919" xlink:href="#m25c4115e2a" y="157.203206"/>
     <use style="fill:#2ca02c;stroke:#ffffff;stroke-width:0.75;" x="182.557727" xlink:href="#m25c4115e2a" y="157.715375"/>
     <use style="fill:#2ca02c;stroke:#ffffff;stroke-width:0.75;" x="185.172535" xlink:href="#m25c4115e2a" y="158.134624"/>
     <use style="fill:#2ca02c;stroke:#ffffff;stroke-width:0.75;" x="187.787343" xlink:href="#m25c4115e2a" y="158.591234"/>
     <use style="fill:#2ca02c;stroke:#ffffff;stroke-width:0.75;" x="190.40215" xlink:href="#m25c4115e2a" y="159.286186"/>
     <use style="fill:#2ca02c;stroke:#ffffff;stroke-width:0.75;" x="193.016958" xlink:href="#m25c4115e2a" y="160.514504"/>
     <use style="fill:#2ca02c;stroke:#ffffff;stroke-width:0.75;" x="195.631766" xlink:href="#m25c4115e2a" y="161.682436"/>
     <use style="fill:#2ca02c;stroke:#ffffff;stroke-width:0.75;" x="198.246574" xlink:href="#m25c4115e2a" y="162.22037"/>
     <use style="fill:#2ca02c;stroke:#ffffff;stroke-width:0.75;" x="200.861382" xlink:href="#m25c4115e2a" y="163.253033"/>
     <use style="fill:#2ca02c;stroke:#ffffff;stroke-width:0.75;" x="203.47619" xlink:href="#m25c4115e2a" y="165.107433"/>
     <use style="fill:#2ca02c;stroke:#ffffff;stroke-width:0.75;" x="206.090998" xlink:href="#m25c4115e2a" y="166.813687"/>
     <use style="fill:#2ca02c;stroke:#ffffff;stroke-width:0.75;" x="208.705806" xlink:href="#m25c4115e2a" y="178.503005"/>
     <use style="fill:#2ca02c;stroke:#ffffff;stroke-width:0.75;" x="211.320613" xlink:href="#m25c4115e2a" y="178.973335"/>
     <use style="fill:#2ca02c;stroke:#ffffff;stroke-width:0.75;" x="213.935421" xlink:href="#m25c4115e2a" y="179.489981"/>
     <use style="fill:#2ca02c;stroke:#ffffff;stroke-width:0.75;" x="216.550229" xlink:href="#m25c4115e2a" y="180.129594"/>
     <use style="fill:#2ca02c;stroke:#ffffff;stroke-width:0.75;" x="219.165037" xlink:href="#m25c4115e2a" y="180.95594"/>
     <use style="fill:#2ca02c;stroke:#ffffff;stroke-width:0.75;" x="221.779845" xlink:href="#m25c4115e2a" y="181.401218"/>
     <use style="fill:#2ca02c;stroke:#ffffff;stroke-width:0.75;" x="224.394653" xlink:href="#m25c4115e2a" y="182.024136"/>
     <use style="fill:#2ca02c;stroke:#ffffff;stroke-width:0.75;" x="227.009461" xlink:href="#m25c4115e2a" y="182.709029"/>
     <use style="fill:#2ca02c;stroke:#ffffff;stroke-width:0.75;" x="229.624269" xlink:href="#m25c4115e2a" y="184.269757"/>
     <use style="fill:#2ca02c;stroke:#ffffff;stroke-width:0.75;" x="232.239076" xlink:href="#m25c4115e2a" y="184.654789"/>
     <use style="fill:#2ca02c;stroke:#ffffff;stroke-width:0.75;" x="234.853884" xlink:href="#m25c4115e2a" y="185.075889"/>
     <use style="fill:#2ca02c;stroke:#ffffff;stroke-width:0.75;" x="237.468692" xlink:href="#m25c4115e2a" y="191.774218"/>
     <use style="fill:#2ca02c;stroke:#ffffff;stroke-width:0.75;" x="240.0835" xlink:href="#m25c4115e2a" y="192.551052"/>
     <use style="fill:#2ca02c;stroke:#ffffff;stroke-width:0.75;" x="242.698308" xlink:href="#m25c4115e2a" y="193.049152"/>
     <use style="fill:#2ca02c;stroke:#ffffff;stroke-width:0.75;" x="245.313116" xlink:href="#m25c4115e2a" y="193.742487"/>
     <use style="fill:#2ca02c;stroke:#ffffff;stroke-width:0.75;" x="247.927924" xlink:href="#m25c4115e2a" y="194.700363"/>
     <use style="fill:#2ca02c;stroke:#ffffff;stroke-width:0.75;" x="250.542732" xlink:href="#m25c4115e2a" y="196.046408"/>
     <use style="fill:#2ca02c;stroke:#ffffff;stroke-width:0.75;" x="253.157539" xlink:href="#m25c4115e2a" y="196.488641"/>
     <use style="fill:#2ca02c;stroke:#ffffff;stroke-width:0.75;" x="255.772347" xlink:href="#m25c4115e2a" y="196.840598"/>
     <use style="fill:#2ca02c;stroke:#ffffff;stroke-width:0.75;" x="258.387155" xlink:href="#m25c4115e2a" y="197.323995"/>
     <use style="fill:#2ca02c;stroke:#ffffff;stroke-width:0.75;" x="261.001963" xlink:href="#m25c4115e2a" y="198.032638"/>
     <use style="fill:#2ca02c;stroke:#ffffff;stroke-width:0.75;" x="263.616771" xlink:href="#m25c4115e2a" y="198.379009"/>
     <use style="fill:#2ca02c;stroke:#ffffff;stroke-width:0.75;" x="266.231579" xlink:href="#m25c4115e2a" y="209.826618"/>
     <use style="fill:#2ca02c;stroke:#ffffff;stroke-width:0.75;" x="268.846387" xlink:href="#m25c4115e2a" y="212.756268"/>
     <use style="fill:#2ca02c;stroke:#ffffff;stroke-width:0.75;" x="271.461194" xlink:href="#m25c4115e2a" y="213.15449"/>
     <use style="fill:#2ca02c;stroke:#ffffff;stroke-width:0.75;" x="274.076002" xlink:href="#m25c4115e2a" y="213.641127"/>
     <use style="fill:#2ca02c;stroke:#ffffff;stroke-width:0.75;" x="276.69081" xlink:href="#m25c4115e2a" y="214.165312"/>
     <use style="fill:#2ca02c;stroke:#ffffff;stroke-width:0.75;" x="279.305618" xlink:href="#m25c4115e2a" y="214.47813"/>
     <use style="fill:#2ca02c;stroke:#ffffff;stroke-width:0.75;" x="281.920426" xlink:href="#m25c4115e2a" y="223.231624"/>
     <use style="fill:#2ca02c;stroke:#ffffff;stroke-width:0.75;" x="284.535234" xlink:href="#m25c4115e2a" y="223.711327"/>
     <use style="fill:#2ca02c;stroke:#ffffff;stroke-width:0.75;" x="287.150042" xlink:href="#m25c4115e2a" y="224.62269"/>
     <use style="fill:#2ca02c;stroke:#ffffff;stroke-width:0.75;" x="289.76485" xlink:href="#m25c4115e2a" y="227.715222"/>
     <use style="fill:#2ca02c;stroke:#ffffff;stroke-width:0.75;" x="292.379657" xlink:href="#m25c4115e2a" y="228.312654"/>
     <use style="fill:#2ca02c;stroke:#ffffff;stroke-width:0.75;" x="294.994465" xlink:href="#m25c4115e2a" y="229.052973"/>
     <use style="fill:#2ca02c;stroke:#ffffff;stroke-width:0.75;" x="297.609273" xlink:href="#m25c4115e2a" y="229.380981"/>
     <use style="fill:#2ca02c;stroke:#ffffff;stroke-width:0.75;" x="300.224081" xlink:href="#m25c4115e2a" y="230.332228"/>
     <use style="fill:#2ca02c;stroke:#ffffff;stroke-width:0.75;" x="302.838889" xlink:href="#m25c4115e2a" y="230.903564"/>
     <use style="fill:#2ca02c;stroke:#ffffff;stroke-width:0.75;" x="305.453697" xlink:href="#m25c4115e2a" y="231.892485"/>
     <use style="fill:#2ca02c;stroke:#ffffff;stroke-width:0.75;" x="308.068505" xlink:href="#m25c4115e2a" y="232.201282"/>
     <use style="fill:#2ca02c;stroke:#ffffff;stroke-width:0.75;" x="310.683313" xlink:href="#m25c4115e2a" y="233.585923"/>
     <use style="fill:#2ca02c;stroke:#ffffff;stroke-width:0.75;" x="313.29812" xlink:href="#m25c4115e2a" y="234.302223"/>
     <use style="fill:#2ca02c;stroke:#ffffff;stroke-width:0.75;" x="315.912928" xlink:href="#m25c4115e2a" y="234.694732"/>
     <use style="fill:#2ca02c;stroke:#ffffff;stroke-width:0.75;" x="318.527736" xlink:href="#m25c4115e2a" y="234.968611"/>
     <use style="fill:#2ca02c;stroke:#ffffff;stroke-width:0.75;" x="321.142544" xlink:href="#m25c4115e2a" y="237.030491"/>
     <use style="fill:#2ca02c;stroke:#ffffff;stroke-width:0.75;" x="323.757352" xlink:href="#m25c4115e2a" y="238.426337"/>
     <use style="fill:#2ca02c;stroke:#ffffff;stroke-width:0.75;" x="326.37216" xlink:href="#m25c4115e2a" y="239.559589"/>
     <use style="fill:#2ca02c;stroke:#ffffff;stroke-width:0.75;" x="328.986968" xlink:href="#m25c4115e2a" y="240.415811"/>
     <use style="fill:#2ca02c;stroke:#ffffff;stroke-width:0.75;" x="331.601776" xlink:href="#m25c4115e2a" y="240.912399"/>
    </g>
   </g>
   <g id="line2d_9"/>
   <g id="line2d_10"/>
   <g id="line2d_11"/>
   <g id="line2d_12"/>
   <g id="patch_3">
    <path d="M 65.283594 279 
L 344.283594 279 
" style="fill:none;stroke:#cccccc;stroke-linecap:square;stroke-linejoin:miter;stroke-width:0.8;"/>
   </g>
   <g id="legend_1">
    <g id="patch_4">
     <path d="M 224.923438 104.423438 
L 333.783594 104.423438 
Q 336.783594 104.423438 336.783594 101.423438 
L 336.783594 17.7 
Q 336.783594 14.7 333.783594 14.7 
L 224.923438 14.7 
Q 221.923438 14.7 221.923438 17.7 
L 221.923438 101.423438 
Q 221.923438 104.423438 224.923438 104.423438 
z
" style="fill:#ffffff;opacity:0.8;stroke:#cccccc;stroke-linejoin:miter;"/>
    </g>
    <g id="text_14">
     <!-- Method -->
     <defs>
      <path d="M 7.421875 0 
L 7.421875 71.578125 
L 21.6875 71.578125 
L 38.625 20.90625 
Q 40.96875 13.8125 42.046875 10.296875 
Q 43.265625 14.203125 45.84375 21.78125 
L 62.984375 71.578125 
L 75.734375 71.578125 
L 75.734375 0 
L 66.609375 0 
L 66.609375 59.90625 
L 45.796875 0 
L 37.25 0 
L 16.546875 60.9375 
L 16.546875 0 
z
" id="ArialMT-77"/>
      <path d="M 40.234375 0 
L 40.234375 6.546875 
Q 35.296875 -1.171875 25.734375 -1.171875 
Q 19.53125 -1.171875 14.328125 2.25 
Q 9.125 5.671875 6.265625 11.796875 
Q 3.421875 17.921875 3.421875 25.875 
Q 3.421875 33.640625 6 39.96875 
Q 8.59375 46.296875 13.765625 49.65625 
Q 18.953125 53.03125 25.34375 53.03125 
Q 30.03125 53.03125 33.6875 51.046875 
Q 37.359375 49.078125 39.65625 45.90625 
L 39.65625 71.578125 
L 48.390625 71.578125 
L 48.390625 0 
z
M 12.453125 25.875 
Q 12.453125 15.921875 16.640625 10.984375 
Q 20.84375 6.0625 26.5625 6.0625 
Q 32.328125 6.0625 36.34375 10.765625 
Q 40.375 15.484375 40.375 25.140625 
Q 40.375 35.796875 36.265625 40.765625 
Q 32.171875 45.75 26.171875 45.75 
Q 20.3125 45.75 16.375 40.96875 
Q 12.453125 36.1875 12.453125 25.875 
z
" id="ArialMT-100"/>
     </defs>
     <g style="fill:#262626;" transform="translate(254.339844 31.436719)scale(0.15 -0.15)">
      <use xlink:href="#ArialMT-77"/>
      <use x="83.300781" xlink:href="#ArialMT-101"/>
      <use x="138.916016" xlink:href="#ArialMT-116"/>
      <use x="166.699219" xlink:href="#ArialMT-104"/>
      <use x="222.314453" xlink:href="#ArialMT-111"/>
      <use x="277.929688" xlink:href="#ArialMT-100"/>
     </g>
    </g>
    <g id="line2d_13">
     <path d="M 227.923438 47.404688 
L 257.923438 47.404688 
" style="fill:none;stroke:#1f77b4;stroke-linecap:round;stroke-width:1.5;"/>
    </g>
    <g id="line2d_14">
     <g>
      <use style="fill:#1f77b4;stroke:#ffffff;stroke-width:0.75;" x="242.923438" xlink:href="#mf5ded9a932" y="47.404688"/>
     </g>
    </g>
    <g id="text_15">
     <!-- single -->
     <defs>
      <path d="M 4.984375 -4.296875 
L 13.53125 -5.5625 
Q 14.0625 -9.515625 16.5 -11.328125 
Q 19.78125 -13.765625 25.4375 -13.765625 
Q 31.546875 -13.765625 34.859375 -11.328125 
Q 38.1875 -8.890625 39.359375 -4.5 
Q 40.046875 -1.8125 39.984375 6.78125 
Q 34.234375 0 25.640625 0 
Q 14.9375 0 9.078125 7.71875 
Q 3.21875 15.4375 3.21875 26.21875 
Q 3.21875 33.640625 5.90625 39.90625 
Q 8.59375 46.1875 13.6875 49.609375 
Q 18.796875 53.03125 25.6875 53.03125 
Q 34.859375 53.03125 40.828125 45.609375 
L 40.828125 51.859375 
L 48.921875 51.859375 
L 48.921875 7.03125 
Q 48.921875 -5.078125 46.453125 -10.125 
Q 44 -15.1875 38.640625 -18.109375 
Q 33.296875 -21.046875 25.484375 -21.046875 
Q 16.21875 -21.046875 10.5 -16.875 
Q 4.78125 -12.703125 4.984375 -4.296875 
z
M 12.25 26.859375 
Q 12.25 16.65625 16.296875 11.96875 
Q 20.359375 7.28125 26.46875 7.28125 
Q 32.515625 7.28125 36.609375 11.9375 
Q 40.71875 16.609375 40.71875 26.5625 
Q 40.71875 36.078125 36.5 40.90625 
Q 32.28125 45.75 26.3125 45.75 
Q 20.453125 45.75 16.34375 40.984375 
Q 12.25 36.234375 12.25 26.859375 
z
" id="ArialMT-103"/>
     </defs>
     <g style="fill:#262626;" transform="translate(269.923438 52.654688)scale(0.15 -0.15)">
      <use xlink:href="#ArialMT-115"/>
      <use x="50" xlink:href="#ArialMT-105"/>
      <use x="72.216797" xlink:href="#ArialMT-110"/>
      <use x="127.832031" xlink:href="#ArialMT-103"/>
      <use x="183.447266" xlink:href="#ArialMT-108"/>
      <use x="205.664062" xlink:href="#ArialMT-101"/>
     </g>
    </g>
    <g id="line2d_15">
     <path d="M 227.923438 68.798438 
L 257.923438 68.798438 
" style="fill:none;stroke:#ff7f0e;stroke-linecap:round;stroke-width:1.5;"/>
    </g>
    <g id="line2d_16">
     <g>
      <use style="fill:#ff7f0e;stroke:#ffffff;stroke-width:0.75;" x="242.923438" xlink:href="#m12fa5cf7f7" y="68.798438"/>
     </g>
    </g>
    <g id="text_16">
     <!-- complete -->
     <defs>
      <path d="M 40.4375 19 
L 49.078125 17.875 
Q 47.65625 8.9375 41.8125 3.875 
Q 35.984375 -1.171875 27.484375 -1.171875 
Q 16.84375 -1.171875 10.375 5.78125 
Q 3.90625 12.75 3.90625 25.734375 
Q 3.90625 34.125 6.6875 40.421875 
Q 9.46875 46.734375 15.15625 49.875 
Q 20.84375 53.03125 27.546875 53.03125 
Q 35.984375 53.03125 41.359375 48.75 
Q 46.734375 44.484375 48.25 36.625 
L 39.703125 35.296875 
Q 38.484375 40.53125 35.375 43.15625 
Q 32.28125 45.796875 27.875 45.796875 
Q 21.234375 45.796875 17.078125 41.03125 
Q 12.9375 36.28125 12.9375 25.984375 
Q 12.9375 15.53125 16.9375 10.796875 
Q 20.953125 6.0625 27.390625 6.0625 
Q 32.5625 6.0625 36.03125 9.234375 
Q 39.5 12.40625 40.4375 19 
z
" id="ArialMT-99"/>
      <path d="M 6.59375 0 
L 6.59375 51.859375 
L 14.453125 51.859375 
L 14.453125 44.578125 
Q 16.890625 48.390625 20.9375 50.703125 
Q 25 53.03125 30.171875 53.03125 
Q 35.9375 53.03125 39.625 50.640625 
Q 43.3125 48.25 44.828125 43.953125 
Q 50.984375 53.03125 60.84375 53.03125 
Q 68.5625 53.03125 72.703125 48.75 
Q 76.859375 44.484375 76.859375 35.59375 
L 76.859375 0 
L 68.109375 0 
L 68.109375 32.671875 
Q 68.109375 37.9375 67.25 40.25 
Q 66.40625 42.578125 64.15625 43.984375 
Q 61.921875 45.40625 58.890625 45.40625 
Q 53.421875 45.40625 49.796875 41.765625 
Q 46.1875 38.140625 46.1875 30.125 
L 46.1875 0 
L 37.40625 0 
L 37.40625 33.6875 
Q 37.40625 39.546875 35.25 42.46875 
Q 33.109375 45.40625 28.21875 45.40625 
Q 24.515625 45.40625 21.359375 43.453125 
Q 18.21875 41.5 16.796875 37.734375 
Q 15.375 33.984375 15.375 26.90625 
L 15.375 0 
z
" id="ArialMT-109"/>
      <path d="M 6.59375 -19.875 
L 6.59375 51.859375 
L 14.59375 51.859375 
L 14.59375 45.125 
Q 17.4375 49.078125 21 51.046875 
Q 24.5625 53.03125 29.640625 53.03125 
Q 36.28125 53.03125 41.359375 49.609375 
Q 46.4375 46.1875 49.015625 39.953125 
Q 51.609375 33.734375 51.609375 26.3125 
Q 51.609375 18.359375 48.75 11.984375 
Q 45.90625 5.609375 40.453125 2.21875 
Q 35.015625 -1.171875 29 -1.171875 
Q 24.609375 -1.171875 21.109375 0.6875 
Q 17.625 2.546875 15.375 5.375 
L 15.375 -19.875 
z
M 14.546875 25.640625 
Q 14.546875 15.625 18.59375 10.84375 
Q 22.65625 6.0625 28.421875 6.0625 
Q 34.28125 6.0625 38.453125 11.015625 
Q 42.625 15.96875 42.625 26.375 
Q 42.625 36.28125 38.546875 41.203125 
Q 34.46875 46.140625 28.8125 46.140625 
Q 23.1875 46.140625 18.859375 40.890625 
Q 14.546875 35.640625 14.546875 25.640625 
z
" id="ArialMT-112"/>
     </defs>
     <g style="fill:#262626;" transform="translate(269.923438 74.048438)scale(0.15 -0.15)">
      <use xlink:href="#ArialMT-99"/>
      <use x="50" xlink:href="#ArialMT-111"/>
      <use x="105.615234" xlink:href="#ArialMT-109"/>
      <use x="188.916016" xlink:href="#ArialMT-112"/>
      <use x="244.53125" xlink:href="#ArialMT-108"/>
      <use x="266.748047" xlink:href="#ArialMT-101"/>
      <use x="322.363281" xlink:href="#ArialMT-116"/>
      <use x="350.146484" xlink:href="#ArialMT-101"/>
     </g>
    </g>
    <g id="line2d_17">
     <path d="M 227.923438 90.016406 
L 257.923438 90.016406 
" style="fill:none;stroke:#2ca02c;stroke-linecap:round;stroke-width:1.5;"/>
    </g>
    <g id="line2d_18">
     <g>
      <use style="fill:#2ca02c;stroke:#ffffff;stroke-width:0.75;" x="242.923438" xlink:href="#m25c4115e2a" y="90.016406"/>
     </g>
    </g>
    <g id="text_17">
     <!-- weighted -->
     <defs>
      <path d="M 16.15625 0 
L 0.296875 51.859375 
L 9.375 51.859375 
L 17.625 21.921875 
L 20.703125 10.796875 
Q 20.90625 11.625 23.390625 21.484375 
L 31.640625 51.859375 
L 40.671875 51.859375 
L 48.4375 21.78125 
L 51.03125 11.859375 
L 54 21.875 
L 62.890625 51.859375 
L 71.4375 51.859375 
L 55.21875 0 
L 46.09375 0 
L 37.84375 31.0625 
L 35.84375 39.890625 
L 25.34375 0 
z
" id="ArialMT-119"/>
     </defs>
     <g style="fill:#262626;" transform="translate(269.923438 95.266406)scale(0.15 -0.15)">
      <use xlink:href="#ArialMT-119"/>
      <use x="72.216797" xlink:href="#ArialMT-101"/>
      <use x="127.832031" xlink:href="#ArialMT-105"/>
      <use x="150.048828" xlink:href="#ArialMT-103"/>
      <use x="205.664062" xlink:href="#ArialMT-104"/>
      <use x="261.279297" xlink:href="#ArialMT-116"/>
      <use x="289.0625" xlink:href="#ArialMT-101"/>
      <use x="344.677734" xlink:href="#ArialMT-100"/>
     </g>
    </g>
   </g>
  </g>
 </g>
 <defs>
  <clipPath id="pa7efeb69d6">
   <rect height="271.8" width="279" x="65.283594" y="7.2"/>
  </clipPath>
 </defs>
</svg>
