<?xml version="1.0" encoding="utf-8" standalone="no"?>
<!DOCTYPE svg PUBLIC "-//W3C//DTD SVG 1.1//EN"
  "http://www.w3.org/Graphics/SVG/1.1/DTD/svg11.dtd">
<!-- Created with matplotlib (https://matplotlib.org/) -->
<svg height="329.170225pt" version="1.1" viewBox="0 0 353.928693 329.170225" width="353.928693pt" xmlns="http://www.w3.org/2000/svg" xmlns:xlink="http://www.w3.org/1999/xlink">
 <defs>
  <style type="text/css">
*{stroke-linecap:butt;stroke-linejoin:round;}
  </style>
 </defs>
 <g id="figure_1">
  <g id="patch_1">
   <path d="M 0 329.170225 
L 353.928693 329.170225 
L 353.928693 0 
L 0 0 
z
" style="fill:#ffffff;"/>
  </g>
  <g id="axes_1">
   <g id="patch_2">
    <path d="M 65.283594 283.534288 
L 344.283594 283.534288 
L 344.283594 11.734288 
L 65.283594 11.734288 
z
" style="fill:#ffffff;"/>
   </g>
   <g id="matplotlib.axis_1">
    <g id="xtick_1">
     <g id="text_1">
      <!-- 0 -->
      <defs>
       <path d="M 4.15625 35.296875 
Q 4.15625 48 6.765625 55.734375 
Q 9.375 63.484375 14.515625 67.671875 
Q 19.671875 71.875 27.484375 71.875 
Q 33.25 71.875 37.59375 69.546875 
Q 41.9375 67.234375 44.765625 62.859375 
Q 47.609375 58.5 49.21875 52.21875 
Q 50.828125 45.953125 50.828125 35.296875 
Q 50.828125 22.703125 48.234375 14.96875 
Q 45.65625 7.234375 40.5 3 
Q 35.359375 -1.21875 27.484375 -1.21875 
Q 17.140625 -1.21875 11.234375 6.203125 
Q 4.15625 15.140625 4.15625 35.296875 
z
M 13.1875 35.296875 
Q 13.1875 17.671875 17.3125 11.828125 
Q 21.4375 6 27.484375 6 
Q 33.546875 6 37.671875 11.859375 
Q 41.796875 17.71875 41.796875 35.296875 
Q 41.796875 52.984375 37.671875 58.78125 
Q 33.546875 64.59375 27.390625 64.59375 
Q 21.34375 64.59375 17.71875 59.46875 
Q 13.1875 52.9375 13.1875 35.296875 
z
" id="ArialMT-48"/>
      </defs>
      <g style="fill:#262626;" transform="translate(68.565093 301.271006)scale(0.15 -0.15)">
       <use xlink:href="#ArialMT-48"/>
      </g>
     </g>
    </g>
    <g id="xtick_2">
     <g id="text_2">
      <!-- 20 -->
      <defs>
       <path d="M 50.34375 8.453125 
L 50.34375 0 
L 3.03125 0 
Q 2.9375 3.171875 4.046875 6.109375 
Q 5.859375 10.9375 9.828125 15.625 
Q 13.8125 20.3125 21.34375 26.46875 
Q 33.015625 36.03125 37.109375 41.625 
Q 41.21875 47.21875 41.21875 52.203125 
Q 41.21875 57.421875 37.46875 61 
Q 33.734375 64.59375 27.734375 64.59375 
Q 21.390625 64.59375 17.578125 60.78125 
Q 13.765625 56.984375 13.71875 50.25 
L 4.6875 51.171875 
Q 5.609375 61.28125 11.65625 66.578125 
Q 17.71875 71.875 27.9375 71.875 
Q 38.234375 71.875 44.234375 66.15625 
Q 50.25 60.453125 50.25 52 
Q 50.25 47.703125 48.484375 43.546875 
Q 46.734375 39.40625 42.65625 34.8125 
Q 38.578125 30.21875 29.109375 22.21875 
Q 21.1875 15.578125 18.9375 13.203125 
Q 16.703125 10.84375 15.234375 8.453125 
z
" id="ArialMT-50"/>
      </defs>
      <g style="fill:#262626;" transform="translate(116.690547 301.271006)scale(0.15 -0.15)">
       <use xlink:href="#ArialMT-50"/>
       <use x="55.615234" xlink:href="#ArialMT-48"/>
      </g>
     </g>
    </g>
    <g id="xtick_3">
     <g id="text_3">
      <!-- 40 -->
      <defs>
       <path d="M 32.328125 0 
L 32.328125 17.140625 
L 1.265625 17.140625 
L 1.265625 25.203125 
L 33.9375 71.578125 
L 41.109375 71.578125 
L 41.109375 25.203125 
L 50.78125 25.203125 
L 50.78125 17.140625 
L 41.109375 17.140625 
L 41.109375 0 
z
M 32.328125 25.203125 
L 32.328125 57.46875 
L 9.90625 25.203125 
z
" id="ArialMT-52"/>
      </defs>
      <g style="fill:#262626;" transform="translate(168.986705 301.271006)scale(0.15 -0.15)">
       <use xlink:href="#ArialMT-52"/>
       <use x="55.615234" xlink:href="#ArialMT-48"/>
      </g>
     </g>
    </g>
    <g id="xtick_4">
     <g id="text_4">
      <!-- 60 -->
      <defs>
       <path d="M 49.75 54.046875 
L 41.015625 53.375 
Q 39.84375 58.546875 37.703125 60.890625 
Q 34.125 64.65625 28.90625 64.65625 
Q 24.703125 64.65625 21.53125 62.3125 
Q 17.390625 59.28125 14.984375 53.46875 
Q 12.59375 47.65625 12.5 36.921875 
Q 15.671875 41.75 20.265625 44.09375 
Q 24.859375 46.4375 29.890625 46.4375 
Q 38.671875 46.4375 44.84375 39.96875 
Q 51.03125 33.5 51.03125 23.25 
Q 51.03125 16.5 48.125 10.71875 
Q 45.21875 4.9375 40.140625 1.859375 
Q 35.0625 -1.21875 28.609375 -1.21875 
Q 17.625 -1.21875 10.6875 6.859375 
Q 3.765625 14.9375 3.765625 33.5 
Q 3.765625 54.25 11.421875 63.671875 
Q 18.109375 71.875 29.4375 71.875 
Q 37.890625 71.875 43.28125 67.140625 
Q 48.6875 62.40625 49.75 54.046875 
z
M 13.875 23.1875 
Q 13.875 18.65625 15.796875 14.5 
Q 17.71875 10.359375 21.1875 8.171875 
Q 24.65625 6 28.46875 6 
Q 34.03125 6 38.03125 10.484375 
Q 42.046875 14.984375 42.046875 22.703125 
Q 42.046875 30.125 38.078125 34.390625 
Q 34.125 38.671875 28.125 38.671875 
Q 22.171875 38.671875 18.015625 34.390625 
Q 13.875 30.125 13.875 23.1875 
z
" id="ArialMT-54"/>
      </defs>
      <g style="fill:#262626;" transform="translate(221.282862 301.271006)scale(0.15 -0.15)">
       <use xlink:href="#ArialMT-54"/>
       <use x="55.615234" xlink:href="#ArialMT-48"/>
      </g>
     </g>
    </g>
    <g id="xtick_5">
     <g id="text_5">
      <!-- 80 -->
      <defs>
       <path d="M 17.671875 38.8125 
Q 12.203125 40.828125 9.5625 44.53125 
Q 6.9375 48.25 6.9375 53.421875 
Q 6.9375 61.234375 12.546875 66.546875 
Q 18.171875 71.875 27.484375 71.875 
Q 36.859375 71.875 42.578125 66.421875 
Q 48.296875 60.984375 48.296875 53.171875 
Q 48.296875 48.1875 45.671875 44.5 
Q 43.0625 40.828125 37.75 38.8125 
Q 44.34375 36.671875 47.78125 31.875 
Q 51.21875 27.09375 51.21875 20.453125 
Q 51.21875 11.28125 44.71875 5.03125 
Q 38.234375 -1.21875 27.640625 -1.21875 
Q 17.046875 -1.21875 10.546875 5.046875 
Q 4.046875 11.328125 4.046875 20.703125 
Q 4.046875 27.6875 7.59375 32.390625 
Q 11.140625 37.109375 17.671875 38.8125 
z
M 15.921875 53.71875 
Q 15.921875 48.640625 19.1875 45.40625 
Q 22.46875 42.1875 27.6875 42.1875 
Q 32.765625 42.1875 36.015625 45.375 
Q 39.265625 48.578125 39.265625 53.21875 
Q 39.265625 58.0625 35.90625 61.359375 
Q 32.5625 64.65625 27.59375 64.65625 
Q 22.5625 64.65625 19.234375 61.421875 
Q 15.921875 58.203125 15.921875 53.71875 
z
M 13.09375 20.65625 
Q 13.09375 16.890625 14.875 13.375 
Q 16.65625 9.859375 20.171875 7.921875 
Q 23.6875 6 27.734375 6 
Q 34.03125 6 38.125 10.046875 
Q 42.234375 14.109375 42.234375 20.359375 
Q 42.234375 26.703125 38.015625 30.859375 
Q 33.796875 35.015625 27.4375 35.015625 
Q 21.234375 35.015625 17.15625 30.90625 
Q 13.09375 26.8125 13.09375 20.65625 
z
" id="ArialMT-56"/>
      </defs>
      <g style="fill:#262626;" transform="translate(273.57902 301.271006)scale(0.15 -0.15)">
       <use xlink:href="#ArialMT-56"/>
       <use x="55.615234" xlink:href="#ArialMT-48"/>
      </g>
     </g>
    </g>
    <g id="xtick_6">
     <g id="text_6">
      <!-- 100 -->
      <defs>
       <path d="M 37.25 0 
L 28.46875 0 
L 28.46875 56 
Q 25.296875 52.984375 20.140625 49.953125 
Q 14.984375 46.921875 10.890625 45.40625 
L 10.890625 53.90625 
Q 18.265625 57.375 23.78125 62.296875 
Q 29.296875 67.234375 31.59375 71.875 
L 37.25 71.875 
z
" id="ArialMT-49"/>
      </defs>
      <g style="fill:#262626;" transform="translate(321.704474 301.271006)scale(0.15 -0.15)">
       <use xlink:href="#ArialMT-49"/>
       <use x="55.615234" xlink:href="#ArialMT-48"/>
       <use x="111.230469" xlink:href="#ArialMT-48"/>
      </g>
     </g>
    </g>
    <g id="text_7">
     <!-- k -->
     <defs>
      <path d="M 6.640625 0 
L 6.640625 71.578125 
L 15.4375 71.578125 
L 15.4375 30.765625 
L 36.234375 51.859375 
L 47.609375 51.859375 
L 27.78125 32.625 
L 49.609375 0 
L 38.765625 0 
L 21.625 26.515625 
L 15.4375 20.5625 
L 15.4375 0 
z
" id="ArialMT-107"/>
     </defs>
     <g style="fill:#262626;" transform="translate(201.033594 318.988975)scale(0.15 -0.15)">
      <use xlink:href="#ArialMT-107"/>
     </g>
    </g>
   </g>
   <g id="matplotlib.axis_2">
    <g id="ytick_1">
     <g id="line2d_1">
      <path clip-path="url(#pb93a61c0e4)" d="M 65.283594 261.372089 
L 344.283594 261.372089 
" style="fill:none;stroke:#cccccc;stroke-linecap:round;stroke-width:0.8;"/>
     </g>
     <g id="text_8">
      <!-- 2000 -->
      <g style="fill:#262626;" transform="translate(24.917969 266.740449)scale(0.15 -0.15)">
       <use xlink:href="#ArialMT-50"/>
       <use x="55.615234" xlink:href="#ArialMT-48"/>
       <use x="111.230469" xlink:href="#ArialMT-48"/>
       <use x="166.845703" xlink:href="#ArialMT-48"/>
      </g>
     </g>
    </g>
    <g id="ytick_2">
     <g id="line2d_2">
      <path clip-path="url(#pb93a61c0e4)" d="M 65.283594 230.271623 
L 344.283594 230.271623 
" style="fill:none;stroke:#cccccc;stroke-linecap:round;stroke-width:0.8;"/>
     </g>
     <g id="text_9">
      <!-- 2250 -->
      <defs>
       <path d="M 4.15625 18.75 
L 13.375 19.53125 
Q 14.40625 12.796875 18.140625 9.390625 
Q 21.875 6 27.15625 6 
Q 33.5 6 37.890625 10.78125 
Q 42.28125 15.578125 42.28125 23.484375 
Q 42.28125 31 38.0625 35.34375 
Q 33.84375 39.703125 27 39.703125 
Q 22.75 39.703125 19.328125 37.765625 
Q 15.921875 35.84375 13.96875 32.765625 
L 5.71875 33.84375 
L 12.640625 70.609375 
L 48.25 70.609375 
L 48.25 62.203125 
L 19.671875 62.203125 
L 15.828125 42.96875 
Q 22.265625 47.46875 29.34375 47.46875 
Q 38.71875 47.46875 45.15625 40.96875 
Q 51.609375 34.46875 51.609375 24.265625 
Q 51.609375 14.546875 45.953125 7.46875 
Q 39.0625 -1.21875 27.15625 -1.21875 
Q 17.390625 -1.21875 11.203125 4.25 
Q 5.03125 9.71875 4.15625 18.75 
z
" id="ArialMT-53"/>
      </defs>
      <g style="fill:#262626;" transform="translate(24.917969 235.639983)scale(0.15 -0.15)">
       <use xlink:href="#ArialMT-50"/>
       <use x="55.615234" xlink:href="#ArialMT-50"/>
       <use x="111.230469" xlink:href="#ArialMT-53"/>
       <use x="166.845703" xlink:href="#ArialMT-48"/>
      </g>
     </g>
    </g>
    <g id="ytick_3">
     <g id="line2d_3">
      <path clip-path="url(#pb93a61c0e4)" d="M 65.283594 199.171157 
L 344.283594 199.171157 
" style="fill:none;stroke:#cccccc;stroke-linecap:round;stroke-width:0.8;"/>
     </g>
     <g id="text_10">
      <!-- 2500 -->
      <g style="fill:#262626;" transform="translate(24.917969 204.539516)scale(0.15 -0.15)">
       <use xlink:href="#ArialMT-50"/>
       <use x="55.615234" xlink:href="#ArialMT-53"/>
       <use x="111.230469" xlink:href="#ArialMT-48"/>
       <use x="166.845703" xlink:href="#ArialMT-48"/>
      </g>
     </g>
    </g>
    <g id="ytick_4">
     <g id="line2d_4">
      <path clip-path="url(#pb93a61c0e4)" d="M 65.283594 168.070691 
L 344.283594 168.070691 
" style="fill:none;stroke:#cccccc;stroke-linecap:round;stroke-width:0.8;"/>
     </g>
     <g id="text_11">
      <!-- 2750 -->
      <defs>
       <path d="M 4.734375 62.203125 
L 4.734375 70.65625 
L 51.078125 70.65625 
L 51.078125 63.8125 
Q 44.234375 56.546875 37.515625 44.484375 
Q 30.8125 32.421875 27.15625 19.671875 
Q 24.515625 10.6875 23.78125 0 
L 14.75 0 
Q 14.890625 8.453125 18.0625 20.40625 
Q 21.234375 32.375 27.171875 43.484375 
Q 33.109375 54.59375 39.796875 62.203125 
z
" id="ArialMT-55"/>
      </defs>
      <g style="fill:#262626;" transform="translate(24.917969 173.43905)scale(0.15 -0.15)">
       <use xlink:href="#ArialMT-50"/>
       <use x="55.615234" xlink:href="#ArialMT-55"/>
       <use x="111.230469" xlink:href="#ArialMT-53"/>
       <use x="166.845703" xlink:href="#ArialMT-48"/>
      </g>
     </g>
    </g>
    <g id="ytick_5">
     <g id="line2d_5">
      <path clip-path="url(#pb93a61c0e4)" d="M 65.283594 136.970224 
L 344.283594 136.970224 
" style="fill:none;stroke:#cccccc;stroke-linecap:round;stroke-width:0.8;"/>
     </g>
     <g id="text_12">
      <!-- 3000 -->
      <defs>
       <path d="M 4.203125 18.890625 
L 12.984375 20.0625 
Q 14.5 12.59375 18.140625 9.296875 
Q 21.78125 6 27 6 
Q 33.203125 6 37.46875 10.296875 
Q 41.75 14.59375 41.75 20.953125 
Q 41.75 27 37.796875 30.921875 
Q 33.84375 34.859375 27.734375 34.859375 
Q 25.25 34.859375 21.53125 33.890625 
L 22.515625 41.609375 
Q 23.390625 41.5 23.921875 41.5 
Q 29.546875 41.5 34.03125 44.421875 
Q 38.53125 47.359375 38.53125 53.46875 
Q 38.53125 58.296875 35.25 61.46875 
Q 31.984375 64.65625 26.8125 64.65625 
Q 21.6875 64.65625 18.265625 61.421875 
Q 14.84375 58.203125 13.875 51.765625 
L 5.078125 53.328125 
Q 6.6875 62.15625 12.390625 67.015625 
Q 18.109375 71.875 26.609375 71.875 
Q 32.46875 71.875 37.390625 69.359375 
Q 42.328125 66.84375 44.9375 62.5 
Q 47.5625 58.15625 47.5625 53.265625 
Q 47.5625 48.640625 45.0625 44.828125 
Q 42.578125 41.015625 37.703125 38.765625 
Q 44.046875 37.3125 47.5625 32.6875 
Q 51.078125 28.078125 51.078125 21.140625 
Q 51.078125 11.765625 44.234375 5.25 
Q 37.40625 -1.265625 26.953125 -1.265625 
Q 17.53125 -1.265625 11.296875 4.34375 
Q 5.078125 9.96875 4.203125 18.890625 
z
" id="ArialMT-51"/>
      </defs>
      <g style="fill:#262626;" transform="translate(24.917969 142.338584)scale(0.15 -0.15)">
       <use xlink:href="#ArialMT-51"/>
       <use x="55.615234" xlink:href="#ArialMT-48"/>
       <use x="111.230469" xlink:href="#ArialMT-48"/>
       <use x="166.845703" xlink:href="#ArialMT-48"/>
      </g>
     </g>
    </g>
    <g id="ytick_6">
     <g id="line2d_6">
      <path clip-path="url(#pb93a61c0e4)" d="M 65.283594 105.869758 
L 344.283594 105.869758 
" style="fill:none;stroke:#cccccc;stroke-linecap:round;stroke-width:0.8;"/>
     </g>
     <g id="text_13">
      <!-- 3250 -->
      <g style="fill:#262626;" transform="translate(24.917969 111.238118)scale(0.15 -0.15)">
       <use xlink:href="#ArialMT-51"/>
       <use x="55.615234" xlink:href="#ArialMT-50"/>
       <use x="111.230469" xlink:href="#ArialMT-53"/>
       <use x="166.845703" xlink:href="#ArialMT-48"/>
      </g>
     </g>
    </g>
    <g id="ytick_7">
     <g id="line2d_7">
      <path clip-path="url(#pb93a61c0e4)" d="M 65.283594 74.769292 
L 344.283594 74.769292 
" style="fill:none;stroke:#cccccc;stroke-linecap:round;stroke-width:0.8;"/>
     </g>
     <g id="text_14">
      <!-- 3500 -->
      <g style="fill:#262626;" transform="translate(24.917969 80.137651)scale(0.15 -0.15)">
       <use xlink:href="#ArialMT-51"/>
       <use x="55.615234" xlink:href="#ArialMT-53"/>
       <use x="111.230469" xlink:href="#ArialMT-48"/>
       <use x="166.845703" xlink:href="#ArialMT-48"/>
      </g>
     </g>
    </g>
    <g id="ytick_8">
     <g id="line2d_8">
      <path clip-path="url(#pb93a61c0e4)" d="M 65.283594 43.668826 
L 344.283594 43.668826 
" style="fill:none;stroke:#cccccc;stroke-linecap:round;stroke-width:0.8;"/>
     </g>
     <g id="text_15">
      <!-- 3750 -->
      <g style="fill:#262626;" transform="translate(24.917969 49.037185)scale(0.15 -0.15)">
       <use xlink:href="#ArialMT-51"/>
       <use x="55.615234" xlink:href="#ArialMT-55"/>
       <use x="111.230469" xlink:href="#ArialMT-53"/>
       <use x="166.845703" xlink:href="#ArialMT-48"/>
      </g>
     </g>
    </g>
    <g id="ytick_9">
     <g id="line2d_9">
      <path clip-path="url(#pb93a61c0e4)" d="M 65.283594 12.568359 
L 344.283594 12.568359 
" style="fill:none;stroke:#cccccc;stroke-linecap:round;stroke-width:0.8;"/>
     </g>
     <g id="text_16">
      <!-- 4000 -->
      <g style="fill:#262626;" transform="translate(24.917969 17.936719)scale(0.15 -0.15)">
       <use xlink:href="#ArialMT-52"/>
       <use x="55.615234" xlink:href="#ArialMT-48"/>
       <use x="111.230469" xlink:href="#ArialMT-48"/>
       <use x="166.845703" xlink:href="#ArialMT-48"/>
      </g>
     </g>
    </g>
    <g id="text_17">
     <!-- Within-Cluster Variation -->
     <defs>
      <path d="M 20.21875 0 
L 1.21875 71.578125 
L 10.9375 71.578125 
L 21.828125 24.65625 
Q 23.578125 17.28125 24.859375 10.015625 
Q 27.59375 21.484375 28.078125 23.25 
L 41.703125 71.578125 
L 53.125 71.578125 
L 63.375 35.359375 
Q 67.234375 21.875 68.953125 10.015625 
Q 70.3125 16.796875 72.515625 25.59375 
L 83.734375 71.578125 
L 93.265625 71.578125 
L 73.640625 0 
L 64.5 0 
L 49.421875 54.546875 
Q 47.515625 61.375 47.171875 62.9375 
Q 46.046875 58.015625 45.0625 54.546875 
L 29.890625 0 
z
" id="ArialMT-87"/>
      <path d="M 6.640625 61.46875 
L 6.640625 71.578125 
L 15.4375 71.578125 
L 15.4375 61.46875 
z
M 6.640625 0 
L 6.640625 51.859375 
L 15.4375 51.859375 
L 15.4375 0 
z
" id="ArialMT-105"/>
      <path d="M 25.78125 7.859375 
L 27.046875 0.09375 
Q 23.34375 -0.6875 20.40625 -0.6875 
Q 15.625 -0.6875 12.984375 0.828125 
Q 10.359375 2.34375 9.28125 4.8125 
Q 8.203125 7.28125 8.203125 15.1875 
L 8.203125 45.015625 
L 1.765625 45.015625 
L 1.765625 51.859375 
L 8.203125 51.859375 
L 8.203125 64.703125 
L 16.9375 69.96875 
L 16.9375 51.859375 
L 25.78125 51.859375 
L 25.78125 45.015625 
L 16.9375 45.015625 
L 16.9375 14.703125 
Q 16.9375 10.9375 17.40625 9.859375 
Q 17.875 8.796875 18.921875 8.15625 
Q 19.96875 7.515625 21.921875 7.515625 
Q 23.390625 7.515625 25.78125 7.859375 
z
" id="ArialMT-116"/>
      <path d="M 6.59375 0 
L 6.59375 71.578125 
L 15.375 71.578125 
L 15.375 45.90625 
Q 21.53125 53.03125 30.90625 53.03125 
Q 36.671875 53.03125 40.921875 50.75 
Q 45.171875 48.484375 47 44.484375 
Q 48.828125 40.484375 48.828125 32.859375 
L 48.828125 0 
L 40.046875 0 
L 40.046875 32.859375 
Q 40.046875 39.453125 37.1875 42.453125 
Q 34.328125 45.453125 29.109375 45.453125 
Q 25.203125 45.453125 21.75 43.421875 
Q 18.3125 41.40625 16.84375 37.9375 
Q 15.375 34.46875 15.375 28.375 
L 15.375 0 
z
" id="ArialMT-104"/>
      <path d="M 6.59375 0 
L 6.59375 51.859375 
L 14.5 51.859375 
L 14.5 44.484375 
Q 20.21875 53.03125 31 53.03125 
Q 35.6875 53.03125 39.625 51.34375 
Q 43.5625 49.65625 45.515625 46.921875 
Q 47.46875 44.1875 48.25 40.4375 
Q 48.734375 37.984375 48.734375 31.890625 
L 48.734375 0 
L 39.9375 0 
L 39.9375 31.546875 
Q 39.9375 36.921875 38.90625 39.578125 
Q 37.890625 42.234375 35.28125 43.8125 
Q 32.671875 45.40625 29.15625 45.40625 
Q 23.53125 45.40625 19.453125 41.84375 
Q 15.375 38.28125 15.375 28.328125 
L 15.375 0 
z
" id="ArialMT-110"/>
      <path d="M 3.171875 21.484375 
L 3.171875 30.328125 
L 30.171875 30.328125 
L 30.171875 21.484375 
z
" id="ArialMT-45"/>
      <path d="M 58.796875 25.09375 
L 68.265625 22.703125 
Q 65.28125 11.03125 57.546875 4.90625 
Q 49.8125 -1.21875 38.625 -1.21875 
Q 27.046875 -1.21875 19.796875 3.484375 
Q 12.546875 8.203125 8.765625 17.140625 
Q 4.984375 26.078125 4.984375 36.328125 
Q 4.984375 47.515625 9.25 55.828125 
Q 13.53125 64.15625 21.40625 68.46875 
Q 29.296875 72.796875 38.765625 72.796875 
Q 49.515625 72.796875 56.828125 67.328125 
Q 64.15625 61.859375 67.046875 51.953125 
L 57.71875 49.75 
Q 55.21875 57.5625 50.484375 61.125 
Q 45.75 64.703125 38.578125 64.703125 
Q 30.328125 64.703125 24.78125 60.734375 
Q 19.234375 56.78125 16.984375 50.109375 
Q 14.75 43.453125 14.75 36.375 
Q 14.75 27.25 17.40625 20.4375 
Q 20.0625 13.625 25.671875 10.25 
Q 31.296875 6.890625 37.84375 6.890625 
Q 45.796875 6.890625 51.3125 11.46875 
Q 56.84375 16.0625 58.796875 25.09375 
z
" id="ArialMT-67"/>
      <path d="M 6.390625 0 
L 6.390625 71.578125 
L 15.1875 71.578125 
L 15.1875 0 
z
" id="ArialMT-108"/>
      <path d="M 40.578125 0 
L 40.578125 7.625 
Q 34.515625 -1.171875 24.125 -1.171875 
Q 19.53125 -1.171875 15.546875 0.578125 
Q 11.578125 2.34375 9.640625 5 
Q 7.71875 7.671875 6.9375 11.53125 
Q 6.390625 14.109375 6.390625 19.734375 
L 6.390625 51.859375 
L 15.1875 51.859375 
L 15.1875 23.09375 
Q 15.1875 16.21875 15.71875 13.8125 
Q 16.546875 10.359375 19.234375 8.375 
Q 21.921875 6.390625 25.875 6.390625 
Q 29.828125 6.390625 33.296875 8.421875 
Q 36.765625 10.453125 38.203125 13.9375 
Q 39.65625 17.4375 39.65625 24.078125 
L 39.65625 51.859375 
L 48.4375 51.859375 
L 48.4375 0 
z
" id="ArialMT-117"/>
      <path d="M 3.078125 15.484375 
L 11.765625 16.84375 
Q 12.5 11.625 15.84375 8.84375 
Q 19.1875 6.0625 25.203125 6.0625 
Q 31.25 6.0625 34.171875 8.515625 
Q 37.109375 10.984375 37.109375 14.3125 
Q 37.109375 17.28125 34.515625 19 
Q 32.71875 20.171875 25.53125 21.96875 
Q 15.875 24.421875 12.140625 26.203125 
Q 8.40625 27.984375 6.46875 31.125 
Q 4.546875 34.28125 4.546875 38.09375 
Q 4.546875 41.546875 6.125 44.5 
Q 7.71875 47.46875 10.453125 49.421875 
Q 12.5 50.921875 16.03125 51.96875 
Q 19.578125 53.03125 23.640625 53.03125 
Q 29.734375 53.03125 34.34375 51.265625 
Q 38.96875 49.515625 41.15625 46.5 
Q 43.359375 43.5 44.1875 38.484375 
L 35.59375 37.3125 
Q 35.015625 41.3125 32.203125 43.546875 
Q 29.390625 45.796875 24.265625 45.796875 
Q 18.21875 45.796875 15.625 43.796875 
Q 13.03125 41.796875 13.03125 39.109375 
Q 13.03125 37.40625 14.109375 36.03125 
Q 15.1875 34.625 17.484375 33.6875 
Q 18.796875 33.203125 25.25 31.453125 
Q 34.578125 28.953125 38.25 27.359375 
Q 41.9375 25.78125 44.03125 22.75 
Q 46.140625 19.734375 46.140625 15.234375 
Q 46.140625 10.84375 43.578125 6.953125 
Q 41.015625 3.078125 36.171875 0.953125 
Q 31.34375 -1.171875 25.25 -1.171875 
Q 15.140625 -1.171875 9.84375 3.03125 
Q 4.546875 7.234375 3.078125 15.484375 
z
" id="ArialMT-115"/>
      <path d="M 42.09375 16.703125 
L 51.171875 15.578125 
Q 49.03125 7.625 43.21875 3.21875 
Q 37.40625 -1.171875 28.375 -1.171875 
Q 17 -1.171875 10.328125 5.828125 
Q 3.65625 12.84375 3.65625 25.484375 
Q 3.65625 38.578125 10.390625 45.796875 
Q 17.140625 53.03125 27.875 53.03125 
Q 38.28125 53.03125 44.875 45.953125 
Q 51.46875 38.875 51.46875 26.03125 
Q 51.46875 25.25 51.421875 23.6875 
L 12.75 23.6875 
Q 13.234375 15.140625 17.578125 10.59375 
Q 21.921875 6.0625 28.421875 6.0625 
Q 33.25 6.0625 36.671875 8.59375 
Q 40.09375 11.140625 42.09375 16.703125 
z
M 13.234375 30.90625 
L 42.1875 30.90625 
Q 41.609375 37.453125 38.875 40.71875 
Q 34.671875 45.796875 27.984375 45.796875 
Q 21.921875 45.796875 17.796875 41.75 
Q 13.671875 37.703125 13.234375 30.90625 
z
" id="ArialMT-101"/>
      <path d="M 6.5 0 
L 6.5 51.859375 
L 14.40625 51.859375 
L 14.40625 44 
Q 17.4375 49.515625 20 51.265625 
Q 22.5625 53.03125 25.640625 53.03125 
Q 30.078125 53.03125 34.671875 50.203125 
L 31.640625 42.046875 
Q 28.421875 43.953125 25.203125 43.953125 
Q 22.3125 43.953125 20.015625 42.21875 
Q 17.71875 40.484375 16.75 37.40625 
Q 15.28125 32.71875 15.28125 27.15625 
L 15.28125 0 
z
" id="ArialMT-114"/>
      <path id="ArialMT-32"/>
      <path d="M 28.171875 0 
L 0.4375 71.578125 
L 10.6875 71.578125 
L 29.296875 19.578125 
Q 31.546875 13.328125 33.0625 7.859375 
Q 34.71875 13.71875 36.921875 19.578125 
L 56.25 71.578125 
L 65.921875 71.578125 
L 37.890625 0 
z
" id="ArialMT-86"/>
      <path d="M 40.4375 6.390625 
Q 35.546875 2.25 31.03125 0.53125 
Q 26.515625 -1.171875 21.34375 -1.171875 
Q 12.796875 -1.171875 8.203125 3 
Q 3.609375 7.171875 3.609375 13.671875 
Q 3.609375 17.484375 5.34375 20.625 
Q 7.078125 23.78125 9.890625 25.6875 
Q 12.703125 27.59375 16.21875 28.5625 
Q 18.796875 29.25 24.03125 29.890625 
Q 34.671875 31.15625 39.703125 32.90625 
Q 39.75 34.71875 39.75 35.203125 
Q 39.75 40.578125 37.25 42.78125 
Q 33.890625 45.75 27.25 45.75 
Q 21.046875 45.75 18.09375 43.578125 
Q 15.140625 41.40625 13.71875 35.890625 
L 5.125 37.0625 
Q 6.296875 42.578125 8.984375 45.96875 
Q 11.671875 49.359375 16.75 51.1875 
Q 21.828125 53.03125 28.515625 53.03125 
Q 35.15625 53.03125 39.296875 51.46875 
Q 43.453125 49.90625 45.40625 47.53125 
Q 47.359375 45.171875 48.140625 41.546875 
Q 48.578125 39.3125 48.578125 33.453125 
L 48.578125 21.734375 
Q 48.578125 9.46875 49.140625 6.21875 
Q 49.703125 2.984375 51.375 0 
L 42.1875 0 
Q 40.828125 2.734375 40.4375 6.390625 
z
M 39.703125 26.03125 
Q 34.90625 24.078125 25.34375 22.703125 
Q 19.921875 21.921875 17.671875 20.9375 
Q 15.4375 19.96875 14.203125 18.09375 
Q 12.984375 16.21875 12.984375 13.921875 
Q 12.984375 10.40625 15.640625 8.0625 
Q 18.3125 5.71875 23.4375 5.71875 
Q 28.515625 5.71875 32.46875 7.9375 
Q 36.421875 10.15625 38.28125 14.015625 
Q 39.703125 17 39.703125 22.796875 
z
" id="ArialMT-97"/>
      <path d="M 3.328125 25.921875 
Q 3.328125 40.328125 11.328125 47.265625 
Q 18.015625 53.03125 27.640625 53.03125 
Q 38.328125 53.03125 45.109375 46.015625 
Q 51.90625 39.015625 51.90625 26.65625 
Q 51.90625 16.65625 48.90625 10.90625 
Q 45.90625 5.171875 40.15625 2 
Q 34.421875 -1.171875 27.640625 -1.171875 
Q 16.75 -1.171875 10.03125 5.8125 
Q 3.328125 12.796875 3.328125 25.921875 
z
M 12.359375 25.921875 
Q 12.359375 15.96875 16.703125 11.015625 
Q 21.046875 6.0625 27.640625 6.0625 
Q 34.1875 6.0625 38.53125 11.03125 
Q 42.875 16.015625 42.875 26.21875 
Q 42.875 35.84375 38.5 40.796875 
Q 34.125 45.75 27.640625 45.75 
Q 21.046875 45.75 16.703125 40.8125 
Q 12.359375 35.890625 12.359375 25.921875 
z
" id="ArialMT-111"/>
     </defs>
     <g style="fill:#262626;" transform="translate(17.936719 226.39835)rotate(-90)scale(0.15 -0.15)">
      <use xlink:href="#ArialMT-87"/>
      <use x="94.384766" xlink:href="#ArialMT-105"/>
      <use x="116.601562" xlink:href="#ArialMT-116"/>
      <use x="144.384766" xlink:href="#ArialMT-104"/>
      <use x="200" xlink:href="#ArialMT-105"/>
      <use x="222.216797" xlink:href="#ArialMT-110"/>
      <use x="277.832031" xlink:href="#ArialMT-45"/>
      <use x="311.132812" xlink:href="#ArialMT-67"/>
      <use x="383.349609" xlink:href="#ArialMT-108"/>
      <use x="405.566406" xlink:href="#ArialMT-117"/>
      <use x="461.181641" xlink:href="#ArialMT-115"/>
      <use x="511.181641" xlink:href="#ArialMT-116"/>
      <use x="538.964844" xlink:href="#ArialMT-101"/>
      <use x="594.580078" xlink:href="#ArialMT-114"/>
      <use x="627.880859" xlink:href="#ArialMT-32"/>
      <use x="655.664062" xlink:href="#ArialMT-86"/>
      <use x="722.253906" xlink:href="#ArialMT-97"/>
      <use x="777.869141" xlink:href="#ArialMT-114"/>
      <use x="811.169922" xlink:href="#ArialMT-105"/>
      <use x="833.386719" xlink:href="#ArialMT-97"/>
      <use x="889.001953" xlink:href="#ArialMT-116"/>
      <use x="916.785156" xlink:href="#ArialMT-105"/>
      <use x="939.001953" xlink:href="#ArialMT-111"/>
      <use x="994.617188" xlink:href="#ArialMT-110"/>
     </g>
    </g>
   </g>
   <g id="line2d_10">
    <path clip-path="url(#pb93a61c0e4)" d="M 77.965412 24.088833 
L 80.58022 66.335757 
L 83.195028 86.73331 
L 85.809836 100.40129 
L 88.424643 111.127467 
L 91.039451 120.775723 
L 93.654259 128.471924 
L 96.269067 135.821734 
L 98.883875 141.822819 
L 101.498683 147.695711 
L 104.113491 151.776485 
L 106.728299 156.276489 
L 109.343106 159.820475 
L 111.957914 163.367823 
L 114.572722 166.742487 
L 117.18753 170.083774 
L 119.802338 173.267967 
L 122.417146 175.816867 
L 125.031954 178.627187 
L 127.646762 180.674341 
L 130.261569 183.35765 
L 132.876377 186.464637 
L 135.491185 188.200898 
L 138.105993 190.47207 
L 140.720801 191.95507 
L 143.335609 193.972315 
L 145.950417 195.429782 
L 148.565224 197.62524 
L 151.180032 199.393856 
L 153.79484 200.979777 
L 156.409648 202.668528 
L 159.024456 204.477757 
L 161.639264 205.776188 
L 164.254072 208.208971 
L 166.86888 208.85692 
L 169.483687 210.834462 
L 172.098495 212.30015 
L 174.713303 213.505298 
L 177.328111 214.866798 
L 179.942919 216.369115 
L 182.557727 217.945212 
L 185.172535 219.319648 
L 187.787343 220.58843 
L 190.40215 222.042644 
L 193.016958 223.426441 
L 195.631766 224.874806 
L 198.246574 227.193666 
L 200.861382 228.080552 
L 203.47619 228.313363 
L 206.090998 229.972543 
L 208.705806 229.726721 
L 211.320613 230.962818 
L 213.935421 231.649503 
L 216.550229 234.310058 
L 219.165037 236.00858 
L 221.779845 236.171382 
L 224.394653 237.607767 
L 227.009461 238.785155 
L 229.624269 238.901224 
L 232.239076 240.573448 
L 234.853884 241.191282 
L 237.468692 242.584962 
L 240.0835 243.271882 
L 242.698308 244.652247 
L 245.313116 245.020182 
L 247.927924 245.7538 
L 250.542732 246.560377 
L 253.157539 247.293845 
L 255.772347 248.297657 
L 258.387155 248.871881 
L 261.001963 249.586209 
L 263.616771 250.899894 
L 266.231579 251.850794 
L 268.846387 252.897703 
L 271.461194 254.024038 
L 274.076002 254.086683 
L 276.69081 255.226535 
L 279.305618 256.651021 
L 281.920426 257.751807 
L 284.535234 258.027327 
L 287.150042 258.785904 
L 289.76485 260.04988 
L 292.379657 260.942982 
L 294.994465 261.376574 
L 297.609273 262.220449 
L 300.224081 263.182723 
L 302.838889 263.231197 
L 305.453697 264.619915 
L 308.068505 265.385067 
L 310.683313 266.081762 
L 313.29812 266.694723 
L 315.912928 266.819046 
L 318.527736 267.365846 
L 321.142544 268.227847 
L 323.757352 268.756939 
L 326.37216 269.62045 
L 328.986968 270.154549 
L 331.601776 271.179742 
" style="fill:none;stroke:#4e79a7;stroke-linecap:round;stroke-width:1.5;"/>
    <defs>
     <path d="M 0 3 
C 0.795609 3 1.55874 2.683901 2.12132 2.12132 
C 2.683901 1.55874 3 0.795609 3 0 
C 3 -0.795609 2.683901 -1.55874 2.12132 -2.12132 
C 1.55874 -2.683901 0.795609 -3 0 -3 
C -0.795609 -3 -1.55874 -2.683901 -2.12132 -2.12132 
C -2.683901 -1.55874 -3 -0.795609 -3 0 
C -3 0.795609 -2.683901 1.55874 -2.12132 2.12132 
C -1.55874 2.683901 -0.795609 3 0 3 
z
" id="mff2b8896c3" style="stroke:#ffffff;stroke-width:0.75;"/>
    </defs>
    <g clip-path="url(#pb93a61c0e4)">
     <use style="fill:#4e79a7;stroke:#ffffff;stroke-width:0.75;" x="77.965412" xlink:href="#mff2b8896c3" y="24.088833"/>
     <use style="fill:#4e79a7;stroke:#ffffff;stroke-width:0.75;" x="80.58022" xlink:href="#mff2b8896c3" y="66.335757"/>
     <use style="fill:#4e79a7;stroke:#ffffff;stroke-width:0.75;" x="83.195028" xlink:href="#mff2b8896c3" y="86.73331"/>
     <use style="fill:#4e79a7;stroke:#ffffff;stroke-width:0.75;" x="85.809836" xlink:href="#mff2b8896c3" y="100.40129"/>
     <use style="fill:#4e79a7;stroke:#ffffff;stroke-width:0.75;" x="88.424643" xlink:href="#mff2b8896c3" y="111.127467"/>
     <use style="fill:#4e79a7;stroke:#ffffff;stroke-width:0.75;" x="91.039451" xlink:href="#mff2b8896c3" y="120.775723"/>
     <use style="fill:#4e79a7;stroke:#ffffff;stroke-width:0.75;" x="93.654259" xlink:href="#mff2b8896c3" y="128.471924"/>
     <use style="fill:#4e79a7;stroke:#ffffff;stroke-width:0.75;" x="96.269067" xlink:href="#mff2b8896c3" y="135.821734"/>
     <use style="fill:#4e79a7;stroke:#ffffff;stroke-width:0.75;" x="98.883875" xlink:href="#mff2b8896c3" y="141.822819"/>
     <use style="fill:#4e79a7;stroke:#ffffff;stroke-width:0.75;" x="101.498683" xlink:href="#mff2b8896c3" y="147.695711"/>
     <use style="fill:#4e79a7;stroke:#ffffff;stroke-width:0.75;" x="104.113491" xlink:href="#mff2b8896c3" y="151.776485"/>
     <use style="fill:#4e79a7;stroke:#ffffff;stroke-width:0.75;" x="106.728299" xlink:href="#mff2b8896c3" y="156.276489"/>
     <use style="fill:#4e79a7;stroke:#ffffff;stroke-width:0.75;" x="109.343106" xlink:href="#mff2b8896c3" y="159.820475"/>
     <use style="fill:#4e79a7;stroke:#ffffff;stroke-width:0.75;" x="111.957914" xlink:href="#mff2b8896c3" y="163.367823"/>
     <use style="fill:#4e79a7;stroke:#ffffff;stroke-width:0.75;" x="114.572722" xlink:href="#mff2b8896c3" y="166.742487"/>
     <use style="fill:#4e79a7;stroke:#ffffff;stroke-width:0.75;" x="117.18753" xlink:href="#mff2b8896c3" y="170.083774"/>
     <use style="fill:#4e79a7;stroke:#ffffff;stroke-width:0.75;" x="119.802338" xlink:href="#mff2b8896c3" y="173.267967"/>
     <use style="fill:#4e79a7;stroke:#ffffff;stroke-width:0.75;" x="122.417146" xlink:href="#mff2b8896c3" y="175.816867"/>
     <use style="fill:#4e79a7;stroke:#ffffff;stroke-width:0.75;" x="125.031954" xlink:href="#mff2b8896c3" y="178.627187"/>
     <use style="fill:#4e79a7;stroke:#ffffff;stroke-width:0.75;" x="127.646762" xlink:href="#mff2b8896c3" y="180.674341"/>
     <use style="fill:#4e79a7;stroke:#ffffff;stroke-width:0.75;" x="130.261569" xlink:href="#mff2b8896c3" y="183.35765"/>
     <use style="fill:#4e79a7;stroke:#ffffff;stroke-width:0.75;" x="132.876377" xlink:href="#mff2b8896c3" y="186.464637"/>
     <use style="fill:#4e79a7;stroke:#ffffff;stroke-width:0.75;" x="135.491185" xlink:href="#mff2b8896c3" y="188.200898"/>
     <use style="fill:#4e79a7;stroke:#ffffff;stroke-width:0.75;" x="138.105993" xlink:href="#mff2b8896c3" y="190.47207"/>
     <use style="fill:#4e79a7;stroke:#ffffff;stroke-width:0.75;" x="140.720801" xlink:href="#mff2b8896c3" y="191.95507"/>
     <use style="fill:#4e79a7;stroke:#ffffff;stroke-width:0.75;" x="143.335609" xlink:href="#mff2b8896c3" y="193.972315"/>
     <use style="fill:#4e79a7;stroke:#ffffff;stroke-width:0.75;" x="145.950417" xlink:href="#mff2b8896c3" y="195.429782"/>
     <use style="fill:#4e79a7;stroke:#ffffff;stroke-width:0.75;" x="148.565224" xlink:href="#mff2b8896c3" y="197.62524"/>
     <use style="fill:#4e79a7;stroke:#ffffff;stroke-width:0.75;" x="151.180032" xlink:href="#mff2b8896c3" y="199.393856"/>
     <use style="fill:#4e79a7;stroke:#ffffff;stroke-width:0.75;" x="153.79484" xlink:href="#mff2b8896c3" y="200.979777"/>
     <use style="fill:#4e79a7;stroke:#ffffff;stroke-width:0.75;" x="156.409648" xlink:href="#mff2b8896c3" y="202.668528"/>
     <use style="fill:#4e79a7;stroke:#ffffff;stroke-width:0.75;" x="159.024456" xlink:href="#mff2b8896c3" y="204.477757"/>
     <use style="fill:#4e79a7;stroke:#ffffff;stroke-width:0.75;" x="161.639264" xlink:href="#mff2b8896c3" y="205.776188"/>
     <use style="fill:#4e79a7;stroke:#ffffff;stroke-width:0.75;" x="164.254072" xlink:href="#mff2b8896c3" y="208.208971"/>
     <use style="fill:#4e79a7;stroke:#ffffff;stroke-width:0.75;" x="166.86888" xlink:href="#mff2b8896c3" y="208.85692"/>
     <use style="fill:#4e79a7;stroke:#ffffff;stroke-width:0.75;" x="169.483687" xlink:href="#mff2b8896c3" y="210.834462"/>
     <use style="fill:#4e79a7;stroke:#ffffff;stroke-width:0.75;" x="172.098495" xlink:href="#mff2b8896c3" y="212.30015"/>
     <use style="fill:#4e79a7;stroke:#ffffff;stroke-width:0.75;" x="174.713303" xlink:href="#mff2b8896c3" y="213.505298"/>
     <use style="fill:#4e79a7;stroke:#ffffff;stroke-width:0.75;" x="177.328111" xlink:href="#mff2b8896c3" y="214.866798"/>
     <use style="fill:#4e79a7;stroke:#ffffff;stroke-width:0.75;" x="179.942919" xlink:href="#mff2b8896c3" y="216.369115"/>
     <use style="fill:#4e79a7;stroke:#ffffff;stroke-width:0.75;" x="182.557727" xlink:href="#mff2b8896c3" y="217.945212"/>
     <use style="fill:#4e79a7;stroke:#ffffff;stroke-width:0.75;" x="185.172535" xlink:href="#mff2b8896c3" y="219.319648"/>
     <use style="fill:#4e79a7;stroke:#ffffff;stroke-width:0.75;" x="187.787343" xlink:href="#mff2b8896c3" y="220.58843"/>
     <use style="fill:#4e79a7;stroke:#ffffff;stroke-width:0.75;" x="190.40215" xlink:href="#mff2b8896c3" y="222.042644"/>
     <use style="fill:#4e79a7;stroke:#ffffff;stroke-width:0.75;" x="193.016958" xlink:href="#mff2b8896c3" y="223.426441"/>
     <use style="fill:#4e79a7;stroke:#ffffff;stroke-width:0.75;" x="195.631766" xlink:href="#mff2b8896c3" y="224.874806"/>
     <use style="fill:#4e79a7;stroke:#ffffff;stroke-width:0.75;" x="198.246574" xlink:href="#mff2b8896c3" y="227.193666"/>
     <use style="fill:#4e79a7;stroke:#ffffff;stroke-width:0.75;" x="200.861382" xlink:href="#mff2b8896c3" y="228.080552"/>
     <use style="fill:#4e79a7;stroke:#ffffff;stroke-width:0.75;" x="203.47619" xlink:href="#mff2b8896c3" y="228.313363"/>
     <use style="fill:#4e79a7;stroke:#ffffff;stroke-width:0.75;" x="206.090998" xlink:href="#mff2b8896c3" y="229.972543"/>
     <use style="fill:#4e79a7;stroke:#ffffff;stroke-width:0.75;" x="208.705806" xlink:href="#mff2b8896c3" y="229.726721"/>
     <use style="fill:#4e79a7;stroke:#ffffff;stroke-width:0.75;" x="211.320613" xlink:href="#mff2b8896c3" y="230.962818"/>
     <use style="fill:#4e79a7;stroke:#ffffff;stroke-width:0.75;" x="213.935421" xlink:href="#mff2b8896c3" y="231.649503"/>
     <use style="fill:#4e79a7;stroke:#ffffff;stroke-width:0.75;" x="216.550229" xlink:href="#mff2b8896c3" y="234.310058"/>
     <use style="fill:#4e79a7;stroke:#ffffff;stroke-width:0.75;" x="219.165037" xlink:href="#mff2b8896c3" y="236.00858"/>
     <use style="fill:#4e79a7;stroke:#ffffff;stroke-width:0.75;" x="221.779845" xlink:href="#mff2b8896c3" y="236.171382"/>
     <use style="fill:#4e79a7;stroke:#ffffff;stroke-width:0.75;" x="224.394653" xlink:href="#mff2b8896c3" y="237.607767"/>
     <use style="fill:#4e79a7;stroke:#ffffff;stroke-width:0.75;" x="227.009461" xlink:href="#mff2b8896c3" y="238.785155"/>
     <use style="fill:#4e79a7;stroke:#ffffff;stroke-width:0.75;" x="229.624269" xlink:href="#mff2b8896c3" y="238.901224"/>
     <use style="fill:#4e79a7;stroke:#ffffff;stroke-width:0.75;" x="232.239076" xlink:href="#mff2b8896c3" y="240.573448"/>
     <use style="fill:#4e79a7;stroke:#ffffff;stroke-width:0.75;" x="234.853884" xlink:href="#mff2b8896c3" y="241.191282"/>
     <use style="fill:#4e79a7;stroke:#ffffff;stroke-width:0.75;" x="237.468692" xlink:href="#mff2b8896c3" y="242.584962"/>
     <use style="fill:#4e79a7;stroke:#ffffff;stroke-width:0.75;" x="240.0835" xlink:href="#mff2b8896c3" y="243.271882"/>
     <use style="fill:#4e79a7;stroke:#ffffff;stroke-width:0.75;" x="242.698308" xlink:href="#mff2b8896c3" y="244.652247"/>
     <use style="fill:#4e79a7;stroke:#ffffff;stroke-width:0.75;" x="245.313116" xlink:href="#mff2b8896c3" y="245.020182"/>
     <use style="fill:#4e79a7;stroke:#ffffff;stroke-width:0.75;" x="247.927924" xlink:href="#mff2b8896c3" y="245.7538"/>
     <use style="fill:#4e79a7;stroke:#ffffff;stroke-width:0.75;" x="250.542732" xlink:href="#mff2b8896c3" y="246.560377"/>
     <use style="fill:#4e79a7;stroke:#ffffff;stroke-width:0.75;" x="253.157539" xlink:href="#mff2b8896c3" y="247.293845"/>
     <use style="fill:#4e79a7;stroke:#ffffff;stroke-width:0.75;" x="255.772347" xlink:href="#mff2b8896c3" y="248.297657"/>
     <use style="fill:#4e79a7;stroke:#ffffff;stroke-width:0.75;" x="258.387155" xlink:href="#mff2b8896c3" y="248.871881"/>
     <use style="fill:#4e79a7;stroke:#ffffff;stroke-width:0.75;" x="261.001963" xlink:href="#mff2b8896c3" y="249.586209"/>
     <use style="fill:#4e79a7;stroke:#ffffff;stroke-width:0.75;" x="263.616771" xlink:href="#mff2b8896c3" y="250.899894"/>
     <use style="fill:#4e79a7;stroke:#ffffff;stroke-width:0.75;" x="266.231579" xlink:href="#mff2b8896c3" y="251.850794"/>
     <use style="fill:#4e79a7;stroke:#ffffff;stroke-width:0.75;" x="268.846387" xlink:href="#mff2b8896c3" y="252.897703"/>
     <use style="fill:#4e79a7;stroke:#ffffff;stroke-width:0.75;" x="271.461194" xlink:href="#mff2b8896c3" y="254.024038"/>
     <use style="fill:#4e79a7;stroke:#ffffff;stroke-width:0.75;" x="274.076002" xlink:href="#mff2b8896c3" y="254.086683"/>
     <use style="fill:#4e79a7;stroke:#ffffff;stroke-width:0.75;" x="276.69081" xlink:href="#mff2b8896c3" y="255.226535"/>
     <use style="fill:#4e79a7;stroke:#ffffff;stroke-width:0.75;" x="279.305618" xlink:href="#mff2b8896c3" y="256.651021"/>
     <use style="fill:#4e79a7;stroke:#ffffff;stroke-width:0.75;" x="281.920426" xlink:href="#mff2b8896c3" y="257.751807"/>
     <use style="fill:#4e79a7;stroke:#ffffff;stroke-width:0.75;" x="284.535234" xlink:href="#mff2b8896c3" y="258.027327"/>
     <use style="fill:#4e79a7;stroke:#ffffff;stroke-width:0.75;" x="287.150042" xlink:href="#mff2b8896c3" y="258.785904"/>
     <use style="fill:#4e79a7;stroke:#ffffff;stroke-width:0.75;" x="289.76485" xlink:href="#mff2b8896c3" y="260.04988"/>
     <use style="fill:#4e79a7;stroke:#ffffff;stroke-width:0.75;" x="292.379657" xlink:href="#mff2b8896c3" y="260.942982"/>
     <use style="fill:#4e79a7;stroke:#ffffff;stroke-width:0.75;" x="294.994465" xlink:href="#mff2b8896c3" y="261.376574"/>
     <use style="fill:#4e79a7;stroke:#ffffff;stroke-width:0.75;" x="297.609273" xlink:href="#mff2b8896c3" y="262.220449"/>
     <use style="fill:#4e79a7;stroke:#ffffff;stroke-width:0.75;" x="300.224081" xlink:href="#mff2b8896c3" y="263.182723"/>
     <use style="fill:#4e79a7;stroke:#ffffff;stroke-width:0.75;" x="302.838889" xlink:href="#mff2b8896c3" y="263.231197"/>
     <use style="fill:#4e79a7;stroke:#ffffff;stroke-width:0.75;" x="305.453697" xlink:href="#mff2b8896c3" y="264.619915"/>
     <use style="fill:#4e79a7;stroke:#ffffff;stroke-width:0.75;" x="308.068505" xlink:href="#mff2b8896c3" y="265.385067"/>
     <use style="fill:#4e79a7;stroke:#ffffff;stroke-width:0.75;" x="310.683313" xlink:href="#mff2b8896c3" y="266.081762"/>
     <use style="fill:#4e79a7;stroke:#ffffff;stroke-width:0.75;" x="313.29812" xlink:href="#mff2b8896c3" y="266.694723"/>
     <use style="fill:#4e79a7;stroke:#ffffff;stroke-width:0.75;" x="315.912928" xlink:href="#mff2b8896c3" y="266.819046"/>
     <use style="fill:#4e79a7;stroke:#ffffff;stroke-width:0.75;" x="318.527736" xlink:href="#mff2b8896c3" y="267.365846"/>
     <use style="fill:#4e79a7;stroke:#ffffff;stroke-width:0.75;" x="321.142544" xlink:href="#mff2b8896c3" y="268.227847"/>
     <use style="fill:#4e79a7;stroke:#ffffff;stroke-width:0.75;" x="323.757352" xlink:href="#mff2b8896c3" y="268.756939"/>
     <use style="fill:#4e79a7;stroke:#ffffff;stroke-width:0.75;" x="326.37216" xlink:href="#mff2b8896c3" y="269.62045"/>
     <use style="fill:#4e79a7;stroke:#ffffff;stroke-width:0.75;" x="328.986968" xlink:href="#mff2b8896c3" y="270.154549"/>
     <use style="fill:#4e79a7;stroke:#ffffff;stroke-width:0.75;" x="331.601776" xlink:href="#mff2b8896c3" y="271.179742"/>
    </g>
   </g>
   <g id="patch_3">
    <path d="M 65.283594 283.534288 
L 344.283594 283.534288 
" style="fill:none;stroke:#cccccc;stroke-linecap:square;stroke-linejoin:miter;stroke-width:0.8;"/>
   </g>
  </g>
 </g>
 <defs>
  <clipPath id="pb93a61c0e4">
   <rect height="271.8" width="279" x="65.283594" y="11.734288"/>
  </clipPath>
 </defs>
</svg>
