<?xml version="1.0" encoding="utf-8" standalone="no"?>
<!DOCTYPE svg PUBLIC "-//W3C//DTD SVG 1.1//EN"
  "http://www.w3.org/Graphics/SVG/1.1/DTD/svg11.dtd">
<!-- Created with matplotlib (https://matplotlib.org/) -->
<svg height="324.635938pt" version="1.1" viewBox="0 0 345.587287 324.635938" width="345.587287pt" xmlns="http://www.w3.org/2000/svg" xmlns:xlink="http://www.w3.org/1999/xlink">
 <defs>
  <style type="text/css">
*{stroke-linecap:butt;stroke-linejoin:round;}
  </style>
 </defs>
 <g id="figure_1">
  <g id="patch_1">
   <path d="M 0 324.635938 
L 345.587287 324.635938 
L 345.587287 0 
L 0 0 
z
" style="fill:#ffffff;"/>
  </g>
  <g id="axes_1">
   <g id="patch_2">
    <path d="M 56.942188 279 
L 335.942187 279 
L 335.942187 7.2 
L 56.942188 7.2 
z
" style="fill:#ffffff;"/>
   </g>
   <g id="matplotlib.axis_1">
    <g id="xtick_1">
     <g id="text_1">
      <!-- 0 -->
      <defs>
       <path d="M 4.15625 35.296875 
Q 4.15625 48 6.765625 55.734375 
Q 9.375 63.484375 14.515625 67.671875 
Q 19.671875 71.875 27.484375 71.875 
Q 33.25 71.875 37.59375 69.546875 
Q 41.9375 67.234375 44.765625 62.859375 
Q 47.609375 58.5 49.21875 52.21875 
Q 50.828125 45.953125 50.828125 35.296875 
Q 50.828125 22.703125 48.234375 14.96875 
Q 45.65625 7.234375 40.5 3 
Q 35.359375 -1.21875 27.484375 -1.21875 
Q 17.140625 -1.21875 11.234375 6.203125 
Q 4.15625 15.140625 4.15625 35.296875 
z
M 13.1875 35.296875 
Q 13.1875 17.671875 17.3125 11.828125 
Q 21.4375 6 27.484375 6 
Q 33.546875 6 37.671875 11.859375 
Q 41.796875 17.71875 41.796875 35.296875 
Q 41.796875 52.984375 37.671875 58.78125 
Q 33.546875 64.59375 27.390625 64.59375 
Q 21.34375 64.59375 17.71875 59.46875 
Q 13.1875 52.9375 13.1875 35.296875 
z
" id="ArialMT-48"/>
      </defs>
      <g style="fill:#262626;" transform="translate(60.223687 296.736719)scale(0.15 -0.15)">
       <use xlink:href="#ArialMT-48"/>
      </g>
     </g>
    </g>
    <g id="xtick_2">
     <g id="text_2">
      <!-- 20 -->
      <defs>
       <path d="M 50.34375 8.453125 
L 50.34375 0 
L 3.03125 0 
Q 2.9375 3.171875 4.046875 6.109375 
Q 5.859375 10.9375 9.828125 15.625 
Q 13.8125 20.3125 21.34375 26.46875 
Q 33.015625 36.03125 37.109375 41.625 
Q 41.21875 47.21875 41.21875 52.203125 
Q 41.21875 57.421875 37.46875 61 
Q 33.734375 64.59375 27.734375 64.59375 
Q 21.390625 64.59375 17.578125 60.78125 
Q 13.765625 56.984375 13.71875 50.25 
L 4.6875 51.171875 
Q 5.609375 61.28125 11.65625 66.578125 
Q 17.71875 71.875 27.9375 71.875 
Q 38.234375 71.875 44.234375 66.15625 
Q 50.25 60.453125 50.25 52 
Q 50.25 47.703125 48.484375 43.546875 
Q 46.734375 39.40625 42.65625 34.8125 
Q 38.578125 30.21875 29.109375 22.21875 
Q 21.1875 15.578125 18.9375 13.203125 
Q 16.703125 10.84375 15.234375 8.453125 
z
" id="ArialMT-50"/>
      </defs>
      <g style="fill:#262626;" transform="translate(108.349141 296.736719)scale(0.15 -0.15)">
       <use xlink:href="#ArialMT-50"/>
       <use x="55.615234" xlink:href="#ArialMT-48"/>
      </g>
     </g>
    </g>
    <g id="xtick_3">
     <g id="text_3">
      <!-- 40 -->
      <defs>
       <path d="M 32.328125 0 
L 32.328125 17.140625 
L 1.265625 17.140625 
L 1.265625 25.203125 
L 33.9375 71.578125 
L 41.109375 71.578125 
L 41.109375 25.203125 
L 50.78125 25.203125 
L 50.78125 17.140625 
L 41.109375 17.140625 
L 41.109375 0 
z
M 32.328125 25.203125 
L 32.328125 57.46875 
L 9.90625 25.203125 
z
" id="ArialMT-52"/>
      </defs>
      <g style="fill:#262626;" transform="translate(160.645299 296.736719)scale(0.15 -0.15)">
       <use xlink:href="#ArialMT-52"/>
       <use x="55.615234" xlink:href="#ArialMT-48"/>
      </g>
     </g>
    </g>
    <g id="xtick_4">
     <g id="text_4">
      <!-- 60 -->
      <defs>
       <path d="M 49.75 54.046875 
L 41.015625 53.375 
Q 39.84375 58.546875 37.703125 60.890625 
Q 34.125 64.65625 28.90625 64.65625 
Q 24.703125 64.65625 21.53125 62.3125 
Q 17.390625 59.28125 14.984375 53.46875 
Q 12.59375 47.65625 12.5 36.921875 
Q 15.671875 41.75 20.265625 44.09375 
Q 24.859375 46.4375 29.890625 46.4375 
Q 38.671875 46.4375 44.84375 39.96875 
Q 51.03125 33.5 51.03125 23.25 
Q 51.03125 16.5 48.125 10.71875 
Q 45.21875 4.9375 40.140625 1.859375 
Q 35.0625 -1.21875 28.609375 -1.21875 
Q 17.625 -1.21875 10.6875 6.859375 
Q 3.765625 14.9375 3.765625 33.5 
Q 3.765625 54.25 11.421875 63.671875 
Q 18.109375 71.875 29.4375 71.875 
Q 37.890625 71.875 43.28125 67.140625 
Q 48.6875 62.40625 49.75 54.046875 
z
M 13.875 23.1875 
Q 13.875 18.65625 15.796875 14.5 
Q 17.71875 10.359375 21.1875 8.171875 
Q 24.65625 6 28.46875 6 
Q 34.03125 6 38.03125 10.484375 
Q 42.046875 14.984375 42.046875 22.703125 
Q 42.046875 30.125 38.078125 34.390625 
Q 34.125 38.671875 28.125 38.671875 
Q 22.171875 38.671875 18.015625 34.390625 
Q 13.875 30.125 13.875 23.1875 
z
" id="ArialMT-54"/>
      </defs>
      <g style="fill:#262626;" transform="translate(212.941456 296.736719)scale(0.15 -0.15)">
       <use xlink:href="#ArialMT-54"/>
       <use x="55.615234" xlink:href="#ArialMT-48"/>
      </g>
     </g>
    </g>
    <g id="xtick_5">
     <g id="text_5">
      <!-- 80 -->
      <defs>
       <path d="M 17.671875 38.8125 
Q 12.203125 40.828125 9.5625 44.53125 
Q 6.9375 48.25 6.9375 53.421875 
Q 6.9375 61.234375 12.546875 66.546875 
Q 18.171875 71.875 27.484375 71.875 
Q 36.859375 71.875 42.578125 66.421875 
Q 48.296875 60.984375 48.296875 53.171875 
Q 48.296875 48.1875 45.671875 44.5 
Q 43.0625 40.828125 37.75 38.8125 
Q 44.34375 36.671875 47.78125 31.875 
Q 51.21875 27.09375 51.21875 20.453125 
Q 51.21875 11.28125 44.71875 5.03125 
Q 38.234375 -1.21875 27.640625 -1.21875 
Q 17.046875 -1.21875 10.546875 5.046875 
Q 4.046875 11.328125 4.046875 20.703125 
Q 4.046875 27.6875 7.59375 32.390625 
Q 11.140625 37.109375 17.671875 38.8125 
z
M 15.921875 53.71875 
Q 15.921875 48.640625 19.1875 45.40625 
Q 22.46875 42.1875 27.6875 42.1875 
Q 32.765625 42.1875 36.015625 45.375 
Q 39.265625 48.578125 39.265625 53.21875 
Q 39.265625 58.0625 35.90625 61.359375 
Q 32.5625 64.65625 27.59375 64.65625 
Q 22.5625 64.65625 19.234375 61.421875 
Q 15.921875 58.203125 15.921875 53.71875 
z
M 13.09375 20.65625 
Q 13.09375 16.890625 14.875 13.375 
Q 16.65625 9.859375 20.171875 7.921875 
Q 23.6875 6 27.734375 6 
Q 34.03125 6 38.125 10.046875 
Q 42.234375 14.109375 42.234375 20.359375 
Q 42.234375 26.703125 38.015625 30.859375 
Q 33.796875 35.015625 27.4375 35.015625 
Q 21.234375 35.015625 17.15625 30.90625 
Q 13.09375 26.8125 13.09375 20.65625 
z
" id="ArialMT-56"/>
      </defs>
      <g style="fill:#262626;" transform="translate(265.237613 296.736719)scale(0.15 -0.15)">
       <use xlink:href="#ArialMT-56"/>
       <use x="55.615234" xlink:href="#ArialMT-48"/>
      </g>
     </g>
    </g>
    <g id="xtick_6">
     <g id="text_6">
      <!-- 100 -->
      <defs>
       <path d="M 37.25 0 
L 28.46875 0 
L 28.46875 56 
Q 25.296875 52.984375 20.140625 49.953125 
Q 14.984375 46.921875 10.890625 45.40625 
L 10.890625 53.90625 
Q 18.265625 57.375 23.78125 62.296875 
Q 29.296875 67.234375 31.59375 71.875 
L 37.25 71.875 
z
" id="ArialMT-49"/>
      </defs>
      <g style="fill:#262626;" transform="translate(313.363068 296.736719)scale(0.15 -0.15)">
       <use xlink:href="#ArialMT-49"/>
       <use x="55.615234" xlink:href="#ArialMT-48"/>
       <use x="111.230469" xlink:href="#ArialMT-48"/>
      </g>
     </g>
    </g>
    <g id="text_7">
     <!-- k -->
     <defs>
      <path d="M 6.640625 0 
L 6.640625 71.578125 
L 15.4375 71.578125 
L 15.4375 30.765625 
L 36.234375 51.859375 
L 47.609375 51.859375 
L 27.78125 32.625 
L 49.609375 0 
L 38.765625 0 
L 21.625 26.515625 
L 15.4375 20.5625 
L 15.4375 0 
z
" id="ArialMT-107"/>
     </defs>
     <g style="fill:#262626;" transform="translate(192.692187 314.454688)scale(0.15 -0.15)">
      <use xlink:href="#ArialMT-107"/>
     </g>
    </g>
   </g>
   <g id="matplotlib.axis_2">
    <g id="ytick_1">
     <g id="line2d_1">
      <path clip-path="url(#p167597e275)" d="M 56.942188 270.999649 
L 335.942187 270.999649 
" style="fill:none;stroke:#cccccc;stroke-linecap:round;stroke-width:0.8;"/>
     </g>
     <g id="text_8">
      <!-- 0 -->
      <g style="fill:#262626;" transform="translate(41.600781 276.368008)scale(0.15 -0.15)">
       <use xlink:href="#ArialMT-48"/>
      </g>
     </g>
    </g>
    <g id="ytick_2">
     <g id="line2d_2">
      <path clip-path="url(#p167597e275)" d="M 56.942188 240.309055 
L 335.942187 240.309055 
" style="fill:none;stroke:#cccccc;stroke-linecap:round;stroke-width:0.8;"/>
     </g>
     <g id="text_9">
      <!-- 20 -->
      <g style="fill:#262626;" transform="translate(33.259375 245.677414)scale(0.15 -0.15)">
       <use xlink:href="#ArialMT-50"/>
       <use x="55.615234" xlink:href="#ArialMT-48"/>
      </g>
     </g>
    </g>
    <g id="ytick_3">
     <g id="line2d_3">
      <path clip-path="url(#p167597e275)" d="M 56.942188 209.618461 
L 335.942187 209.618461 
" style="fill:none;stroke:#cccccc;stroke-linecap:round;stroke-width:0.8;"/>
     </g>
     <g id="text_10">
      <!-- 40 -->
      <g style="fill:#262626;" transform="translate(33.259375 214.986821)scale(0.15 -0.15)">
       <use xlink:href="#ArialMT-52"/>
       <use x="55.615234" xlink:href="#ArialMT-48"/>
      </g>
     </g>
    </g>
    <g id="ytick_4">
     <g id="line2d_4">
      <path clip-path="url(#p167597e275)" d="M 56.942188 178.927868 
L 335.942187 178.927868 
" style="fill:none;stroke:#cccccc;stroke-linecap:round;stroke-width:0.8;"/>
     </g>
     <g id="text_11">
      <!-- 60 -->
      <g style="fill:#262626;" transform="translate(33.259375 184.296227)scale(0.15 -0.15)">
       <use xlink:href="#ArialMT-54"/>
       <use x="55.615234" xlink:href="#ArialMT-48"/>
      </g>
     </g>
    </g>
    <g id="ytick_5">
     <g id="line2d_5">
      <path clip-path="url(#p167597e275)" d="M 56.942188 148.237274 
L 335.942187 148.237274 
" style="fill:none;stroke:#cccccc;stroke-linecap:round;stroke-width:0.8;"/>
     </g>
     <g id="text_12">
      <!-- 80 -->
      <g style="fill:#262626;" transform="translate(33.259375 153.605633)scale(0.15 -0.15)">
       <use xlink:href="#ArialMT-56"/>
       <use x="55.615234" xlink:href="#ArialMT-48"/>
      </g>
     </g>
    </g>
    <g id="ytick_6">
     <g id="line2d_6">
      <path clip-path="url(#p167597e275)" d="M 56.942188 117.54668 
L 335.942187 117.54668 
" style="fill:none;stroke:#cccccc;stroke-linecap:round;stroke-width:0.8;"/>
     </g>
     <g id="text_13">
      <!-- 100 -->
      <g style="fill:#262626;" transform="translate(24.917969 122.91504)scale(0.15 -0.15)">
       <use xlink:href="#ArialMT-49"/>
       <use x="55.615234" xlink:href="#ArialMT-48"/>
       <use x="111.230469" xlink:href="#ArialMT-48"/>
      </g>
     </g>
    </g>
    <g id="ytick_7">
     <g id="line2d_7">
      <path clip-path="url(#p167597e275)" d="M 56.942188 86.856087 
L 335.942187 86.856087 
" style="fill:none;stroke:#cccccc;stroke-linecap:round;stroke-width:0.8;"/>
     </g>
     <g id="text_14">
      <!-- 120 -->
      <g style="fill:#262626;" transform="translate(24.917969 92.224446)scale(0.15 -0.15)">
       <use xlink:href="#ArialMT-49"/>
       <use x="55.615234" xlink:href="#ArialMT-50"/>
       <use x="111.230469" xlink:href="#ArialMT-48"/>
      </g>
     </g>
    </g>
    <g id="ytick_8">
     <g id="line2d_8">
      <path clip-path="url(#p167597e275)" d="M 56.942188 56.165493 
L 335.942187 56.165493 
" style="fill:none;stroke:#cccccc;stroke-linecap:round;stroke-width:0.8;"/>
     </g>
     <g id="text_15">
      <!-- 140 -->
      <g style="fill:#262626;" transform="translate(24.917969 61.533852)scale(0.15 -0.15)">
       <use xlink:href="#ArialMT-49"/>
       <use x="55.615234" xlink:href="#ArialMT-52"/>
       <use x="111.230469" xlink:href="#ArialMT-48"/>
      </g>
     </g>
    </g>
    <g id="ytick_9">
     <g id="line2d_9">
      <path clip-path="url(#p167597e275)" d="M 56.942188 25.474899 
L 335.942187 25.474899 
" style="fill:none;stroke:#cccccc;stroke-linecap:round;stroke-width:0.8;"/>
     </g>
     <g id="text_16">
      <!-- 160 -->
      <g style="fill:#262626;" transform="translate(24.917969 30.843259)scale(0.15 -0.15)">
       <use xlink:href="#ArialMT-49"/>
       <use x="55.615234" xlink:href="#ArialMT-54"/>
       <use x="111.230469" xlink:href="#ArialMT-48"/>
      </g>
     </g>
    </g>
    <g id="text_17">
     <!-- CH Index -->
     <defs>
      <path d="M 58.796875 25.09375 
L 68.265625 22.703125 
Q 65.28125 11.03125 57.546875 4.90625 
Q 49.8125 -1.21875 38.625 -1.21875 
Q 27.046875 -1.21875 19.796875 3.484375 
Q 12.546875 8.203125 8.765625 17.140625 
Q 4.984375 26.078125 4.984375 36.328125 
Q 4.984375 47.515625 9.25 55.828125 
Q 13.53125 64.15625 21.40625 68.46875 
Q 29.296875 72.796875 38.765625 72.796875 
Q 49.515625 72.796875 56.828125 67.328125 
Q 64.15625 61.859375 67.046875 51.953125 
L 57.71875 49.75 
Q 55.21875 57.5625 50.484375 61.125 
Q 45.75 64.703125 38.578125 64.703125 
Q 30.328125 64.703125 24.78125 60.734375 
Q 19.234375 56.78125 16.984375 50.109375 
Q 14.75 43.453125 14.75 36.375 
Q 14.75 27.25 17.40625 20.4375 
Q 20.0625 13.625 25.671875 10.25 
Q 31.296875 6.890625 37.84375 6.890625 
Q 45.796875 6.890625 51.3125 11.46875 
Q 56.84375 16.0625 58.796875 25.09375 
z
" id="ArialMT-67"/>
      <path d="M 8.015625 0 
L 8.015625 71.578125 
L 17.484375 71.578125 
L 17.484375 42.1875 
L 54.6875 42.1875 
L 54.6875 71.578125 
L 64.15625 71.578125 
L 64.15625 0 
L 54.6875 0 
L 54.6875 33.734375 
L 17.484375 33.734375 
L 17.484375 0 
z
" id="ArialMT-72"/>
      <path id="ArialMT-32"/>
      <path d="M 9.328125 0 
L 9.328125 71.578125 
L 18.796875 71.578125 
L 18.796875 0 
z
" id="ArialMT-73"/>
      <path d="M 6.59375 0 
L 6.59375 51.859375 
L 14.5 51.859375 
L 14.5 44.484375 
Q 20.21875 53.03125 31 53.03125 
Q 35.6875 53.03125 39.625 51.34375 
Q 43.5625 49.65625 45.515625 46.921875 
Q 47.46875 44.1875 48.25 40.4375 
Q 48.734375 37.984375 48.734375 31.890625 
L 48.734375 0 
L 39.9375 0 
L 39.9375 31.546875 
Q 39.9375 36.921875 38.90625 39.578125 
Q 37.890625 42.234375 35.28125 43.8125 
Q 32.671875 45.40625 29.15625 45.40625 
Q 23.53125 45.40625 19.453125 41.84375 
Q 15.375 38.28125 15.375 28.328125 
L 15.375 0 
z
" id="ArialMT-110"/>
      <path d="M 40.234375 0 
L 40.234375 6.546875 
Q 35.296875 -1.171875 25.734375 -1.171875 
Q 19.53125 -1.171875 14.328125 2.25 
Q 9.125 5.671875 6.265625 11.796875 
Q 3.421875 17.921875 3.421875 25.875 
Q 3.421875 33.640625 6 39.96875 
Q 8.59375 46.296875 13.765625 49.65625 
Q 18.953125 53.03125 25.34375 53.03125 
Q 30.03125 53.03125 33.6875 51.046875 
Q 37.359375 49.078125 39.65625 45.90625 
L 39.65625 71.578125 
L 48.390625 71.578125 
L 48.390625 0 
z
M 12.453125 25.875 
Q 12.453125 15.921875 16.640625 10.984375 
Q 20.84375 6.0625 26.5625 6.0625 
Q 32.328125 6.0625 36.34375 10.765625 
Q 40.375 15.484375 40.375 25.140625 
Q 40.375 35.796875 36.265625 40.765625 
Q 32.171875 45.75 26.171875 45.75 
Q 20.3125 45.75 16.375 40.96875 
Q 12.453125 36.1875 12.453125 25.875 
z
" id="ArialMT-100"/>
      <path d="M 42.09375 16.703125 
L 51.171875 15.578125 
Q 49.03125 7.625 43.21875 3.21875 
Q 37.40625 -1.171875 28.375 -1.171875 
Q 17 -1.171875 10.328125 5.828125 
Q 3.65625 12.84375 3.65625 25.484375 
Q 3.65625 38.578125 10.390625 45.796875 
Q 17.140625 53.03125 27.875 53.03125 
Q 38.28125 53.03125 44.875 45.953125 
Q 51.46875 38.875 51.46875 26.03125 
Q 51.46875 25.25 51.421875 23.6875 
L 12.75 23.6875 
Q 13.234375 15.140625 17.578125 10.59375 
Q 21.921875 6.0625 28.421875 6.0625 
Q 33.25 6.0625 36.671875 8.59375 
Q 40.09375 11.140625 42.09375 16.703125 
z
M 13.234375 30.90625 
L 42.1875 30.90625 
Q 41.609375 37.453125 38.875 40.71875 
Q 34.671875 45.796875 27.984375 45.796875 
Q 21.921875 45.796875 17.796875 41.75 
Q 13.671875 37.703125 13.234375 30.90625 
z
" id="ArialMT-101"/>
      <path d="M 0.734375 0 
L 19.671875 26.953125 
L 2.15625 51.859375 
L 13.140625 51.859375 
L 21.09375 39.703125 
Q 23.34375 36.234375 24.703125 33.890625 
Q 26.859375 37.109375 28.65625 39.59375 
L 37.40625 51.859375 
L 47.90625 51.859375 
L 29.984375 27.4375 
L 49.265625 0 
L 38.484375 0 
L 27.828125 16.109375 
L 25 20.453125 
L 11.375 0 
z
" id="ArialMT-120"/>
     </defs>
     <g style="fill:#262626;" transform="translate(17.936719 174.362109)rotate(-90)scale(0.15 -0.15)">
      <use xlink:href="#ArialMT-67"/>
      <use x="72.216797" xlink:href="#ArialMT-72"/>
      <use x="144.433594" xlink:href="#ArialMT-32"/>
      <use x="172.216797" xlink:href="#ArialMT-73"/>
      <use x="200" xlink:href="#ArialMT-110"/>
      <use x="255.615234" xlink:href="#ArialMT-100"/>
      <use x="311.230469" xlink:href="#ArialMT-101"/>
      <use x="366.845703" xlink:href="#ArialMT-120"/>
     </g>
    </g>
   </g>
   <g id="line2d_10">
    <path clip-path="url(#p167597e275)" d="M 69.624006 264.091682 
L 72.238814 264.470069 
L 74.853621 264.792836 
L 77.468429 264.720547 
L 80.083237 265.036293 
L 82.698045 265.027778 
L 85.312853 264.997909 
L 87.927661 264.935928 
L 90.542469 265.136863 
L 93.157277 265.205266 
L 95.772084 265.24105 
L 98.386892 265.432909 
L 101.0017 265.409813 
L 103.616508 265.578985 
L 106.231316 265.670769 
L 108.846124 265.664305 
L 111.460932 265.701076 
L 114.07574 265.730773 
L 116.690547 265.854944 
L 119.305355 265.869181 
L 121.920163 265.951289 
L 124.534971 265.974677 
L 127.149779 265.935457 
L 129.764587 265.967725 
L 132.379395 265.951105 
L 134.994202 265.986824 
L 137.60901 265.970522 
L 140.223818 266.017224 
L 142.838626 266.032959 
L 145.453434 266.071278 
L 148.068242 266.121936 
L 150.68305 266.120708 
L 153.297858 266.153656 
L 155.912665 266.19803 
L 158.527473 266.228 
L 161.142281 266.286087 
L 163.757089 266.169432 
L 166.371897 266.190707 
L 168.986705 266.2231 
L 171.601513 266.266671 
L 174.216321 266.222907 
L 176.831128 266.215092 
L 179.445936 266.263501 
L 182.060744 266.293352 
L 184.675552 266.319684 
L 187.29036 266.369524 
L 189.905168 266.448311 
L 192.519976 266.474455 
L 195.134784 266.510993 
L 197.749591 266.523554 
L 200.364399 266.547139 
L 202.979207 266.520082 
L 205.594015 266.509216 
L 208.208823 266.532892 
L 210.823631 266.479832 
L 213.438439 266.493913 
L 216.053247 266.522493 
L 218.668054 266.511593 
L 221.282862 266.273895 
L 223.89767 266.318004 
L 226.512478 266.239137 
L 229.127286 266.280267 
L 231.742094 266.289718 
L 234.356902 266.281665 
L 236.97171 266.172209 
L 239.586517 266.233195 
L 242.201325 266.260324 
L 244.816133 266.307011 
L 247.430941 266.317548 
L 250.045749 266.339955 
L 252.660557 266.340604 
L 255.275365 266.349212 
L 257.890173 266.370817 
L 260.50498 266.337976 
L 263.119788 266.352806 
L 265.734596 266.390809 
L 268.349404 266.422349 
L 270.964212 266.387866 
L 273.57902 266.425309 
L 276.193828 266.443998 
L 278.808635 266.459563 
L 281.423443 266.48104 
L 284.038251 266.487858 
L 286.653059 266.483578 
L 289.267867 266.512909 
L 291.882675 266.523518 
L 294.497483 266.46779 
L 297.112291 266.512249 
L 299.727098 266.525115 
L 302.341906 266.527688 
L 304.956714 266.550552 
L 307.571522 266.574826 
L 310.18633 266.582901 
L 312.801138 266.601053 
L 315.415946 266.586982 
L 318.030754 266.611183 
L 320.645561 266.633648 
L 323.260369 266.645455 
" style="fill:none;stroke:#1f77b4;stroke-linecap:round;stroke-width:1.5;"/>
    <defs>
     <path d="M 0 3 
C 0.795609 3 1.55874 2.683901 2.12132 2.12132 
C 2.683901 1.55874 3 0.795609 3 0 
C 3 -0.795609 2.683901 -1.55874 2.12132 -2.12132 
C 1.55874 -2.683901 0.795609 -3 0 -3 
C -0.795609 -3 -1.55874 -2.683901 -2.12132 -2.12132 
C -2.683901 -1.55874 -3 -0.795609 -3 0 
C -3 0.795609 -2.683901 1.55874 -2.12132 2.12132 
C -1.55874 2.683901 -0.795609 3 0 3 
z
" id="m5c2cc7317f" style="stroke:#ffffff;stroke-width:0.75;"/>
    </defs>
    <g clip-path="url(#p167597e275)">
     <use style="fill:#1f77b4;stroke:#ffffff;stroke-width:0.75;" x="69.624006" xlink:href="#m5c2cc7317f" y="264.091682"/>
     <use style="fill:#1f77b4;stroke:#ffffff;stroke-width:0.75;" x="72.238814" xlink:href="#m5c2cc7317f" y="264.470069"/>
     <use style="fill:#1f77b4;stroke:#ffffff;stroke-width:0.75;" x="74.853621" xlink:href="#m5c2cc7317f" y="264.792836"/>
     <use style="fill:#1f77b4;stroke:#ffffff;stroke-width:0.75;" x="77.468429" xlink:href="#m5c2cc7317f" y="264.720547"/>
     <use style="fill:#1f77b4;stroke:#ffffff;stroke-width:0.75;" x="80.083237" xlink:href="#m5c2cc7317f" y="265.036293"/>
     <use style="fill:#1f77b4;stroke:#ffffff;stroke-width:0.75;" x="82.698045" xlink:href="#m5c2cc7317f" y="265.027778"/>
     <use style="fill:#1f77b4;stroke:#ffffff;stroke-width:0.75;" x="85.312853" xlink:href="#m5c2cc7317f" y="264.997909"/>
     <use style="fill:#1f77b4;stroke:#ffffff;stroke-width:0.75;" x="87.927661" xlink:href="#m5c2cc7317f" y="264.935928"/>
     <use style="fill:#1f77b4;stroke:#ffffff;stroke-width:0.75;" x="90.542469" xlink:href="#m5c2cc7317f" y="265.136863"/>
     <use style="fill:#1f77b4;stroke:#ffffff;stroke-width:0.75;" x="93.157277" xlink:href="#m5c2cc7317f" y="265.205266"/>
     <use style="fill:#1f77b4;stroke:#ffffff;stroke-width:0.75;" x="95.772084" xlink:href="#m5c2cc7317f" y="265.24105"/>
     <use style="fill:#1f77b4;stroke:#ffffff;stroke-width:0.75;" x="98.386892" xlink:href="#m5c2cc7317f" y="265.432909"/>
     <use style="fill:#1f77b4;stroke:#ffffff;stroke-width:0.75;" x="101.0017" xlink:href="#m5c2cc7317f" y="265.409813"/>
     <use style="fill:#1f77b4;stroke:#ffffff;stroke-width:0.75;" x="103.616508" xlink:href="#m5c2cc7317f" y="265.578985"/>
     <use style="fill:#1f77b4;stroke:#ffffff;stroke-width:0.75;" x="106.231316" xlink:href="#m5c2cc7317f" y="265.670769"/>
     <use style="fill:#1f77b4;stroke:#ffffff;stroke-width:0.75;" x="108.846124" xlink:href="#m5c2cc7317f" y="265.664305"/>
     <use style="fill:#1f77b4;stroke:#ffffff;stroke-width:0.75;" x="111.460932" xlink:href="#m5c2cc7317f" y="265.701076"/>
     <use style="fill:#1f77b4;stroke:#ffffff;stroke-width:0.75;" x="114.07574" xlink:href="#m5c2cc7317f" y="265.730773"/>
     <use style="fill:#1f77b4;stroke:#ffffff;stroke-width:0.75;" x="116.690547" xlink:href="#m5c2cc7317f" y="265.854944"/>
     <use style="fill:#1f77b4;stroke:#ffffff;stroke-width:0.75;" x="119.305355" xlink:href="#m5c2cc7317f" y="265.869181"/>
     <use style="fill:#1f77b4;stroke:#ffffff;stroke-width:0.75;" x="121.920163" xlink:href="#m5c2cc7317f" y="265.951289"/>
     <use style="fill:#1f77b4;stroke:#ffffff;stroke-width:0.75;" x="124.534971" xlink:href="#m5c2cc7317f" y="265.974677"/>
     <use style="fill:#1f77b4;stroke:#ffffff;stroke-width:0.75;" x="127.149779" xlink:href="#m5c2cc7317f" y="265.935457"/>
     <use style="fill:#1f77b4;stroke:#ffffff;stroke-width:0.75;" x="129.764587" xlink:href="#m5c2cc7317f" y="265.967725"/>
     <use style="fill:#1f77b4;stroke:#ffffff;stroke-width:0.75;" x="132.379395" xlink:href="#m5c2cc7317f" y="265.951105"/>
     <use style="fill:#1f77b4;stroke:#ffffff;stroke-width:0.75;" x="134.994202" xlink:href="#m5c2cc7317f" y="265.986824"/>
     <use style="fill:#1f77b4;stroke:#ffffff;stroke-width:0.75;" x="137.60901" xlink:href="#m5c2cc7317f" y="265.970522"/>
     <use style="fill:#1f77b4;stroke:#ffffff;stroke-width:0.75;" x="140.223818" xlink:href="#m5c2cc7317f" y="266.017224"/>
     <use style="fill:#1f77b4;stroke:#ffffff;stroke-width:0.75;" x="142.838626" xlink:href="#m5c2cc7317f" y="266.032959"/>
     <use style="fill:#1f77b4;stroke:#ffffff;stroke-width:0.75;" x="145.453434" xlink:href="#m5c2cc7317f" y="266.071278"/>
     <use style="fill:#1f77b4;stroke:#ffffff;stroke-width:0.75;" x="148.068242" xlink:href="#m5c2cc7317f" y="266.121936"/>
     <use style="fill:#1f77b4;stroke:#ffffff;stroke-width:0.75;" x="150.68305" xlink:href="#m5c2cc7317f" y="266.120708"/>
     <use style="fill:#1f77b4;stroke:#ffffff;stroke-width:0.75;" x="153.297858" xlink:href="#m5c2cc7317f" y="266.153656"/>
     <use style="fill:#1f77b4;stroke:#ffffff;stroke-width:0.75;" x="155.912665" xlink:href="#m5c2cc7317f" y="266.19803"/>
     <use style="fill:#1f77b4;stroke:#ffffff;stroke-width:0.75;" x="158.527473" xlink:href="#m5c2cc7317f" y="266.228"/>
     <use style="fill:#1f77b4;stroke:#ffffff;stroke-width:0.75;" x="161.142281" xlink:href="#m5c2cc7317f" y="266.286087"/>
     <use style="fill:#1f77b4;stroke:#ffffff;stroke-width:0.75;" x="163.757089" xlink:href="#m5c2cc7317f" y="266.169432"/>
     <use style="fill:#1f77b4;stroke:#ffffff;stroke-width:0.75;" x="166.371897" xlink:href="#m5c2cc7317f" y="266.190707"/>
     <use style="fill:#1f77b4;stroke:#ffffff;stroke-width:0.75;" x="168.986705" xlink:href="#m5c2cc7317f" y="266.2231"/>
     <use style="fill:#1f77b4;stroke:#ffffff;stroke-width:0.75;" x="171.601513" xlink:href="#m5c2cc7317f" y="266.266671"/>
     <use style="fill:#1f77b4;stroke:#ffffff;stroke-width:0.75;" x="174.216321" xlink:href="#m5c2cc7317f" y="266.222907"/>
     <use style="fill:#1f77b4;stroke:#ffffff;stroke-width:0.75;" x="176.831128" xlink:href="#m5c2cc7317f" y="266.215092"/>
     <use style="fill:#1f77b4;stroke:#ffffff;stroke-width:0.75;" x="179.445936" xlink:href="#m5c2cc7317f" y="266.263501"/>
     <use style="fill:#1f77b4;stroke:#ffffff;stroke-width:0.75;" x="182.060744" xlink:href="#m5c2cc7317f" y="266.293352"/>
     <use style="fill:#1f77b4;stroke:#ffffff;stroke-width:0.75;" x="184.675552" xlink:href="#m5c2cc7317f" y="266.319684"/>
     <use style="fill:#1f77b4;stroke:#ffffff;stroke-width:0.75;" x="187.29036" xlink:href="#m5c2cc7317f" y="266.369524"/>
     <use style="fill:#1f77b4;stroke:#ffffff;stroke-width:0.75;" x="189.905168" xlink:href="#m5c2cc7317f" y="266.448311"/>
     <use style="fill:#1f77b4;stroke:#ffffff;stroke-width:0.75;" x="192.519976" xlink:href="#m5c2cc7317f" y="266.474455"/>
     <use style="fill:#1f77b4;stroke:#ffffff;stroke-width:0.75;" x="195.134784" xlink:href="#m5c2cc7317f" y="266.510993"/>
     <use style="fill:#1f77b4;stroke:#ffffff;stroke-width:0.75;" x="197.749591" xlink:href="#m5c2cc7317f" y="266.523554"/>
     <use style="fill:#1f77b4;stroke:#ffffff;stroke-width:0.75;" x="200.364399" xlink:href="#m5c2cc7317f" y="266.547139"/>
     <use style="fill:#1f77b4;stroke:#ffffff;stroke-width:0.75;" x="202.979207" xlink:href="#m5c2cc7317f" y="266.520082"/>
     <use style="fill:#1f77b4;stroke:#ffffff;stroke-width:0.75;" x="205.594015" xlink:href="#m5c2cc7317f" y="266.509216"/>
     <use style="fill:#1f77b4;stroke:#ffffff;stroke-width:0.75;" x="208.208823" xlink:href="#m5c2cc7317f" y="266.532892"/>
     <use style="fill:#1f77b4;stroke:#ffffff;stroke-width:0.75;" x="210.823631" xlink:href="#m5c2cc7317f" y="266.479832"/>
     <use style="fill:#1f77b4;stroke:#ffffff;stroke-width:0.75;" x="213.438439" xlink:href="#m5c2cc7317f" y="266.493913"/>
     <use style="fill:#1f77b4;stroke:#ffffff;stroke-width:0.75;" x="216.053247" xlink:href="#m5c2cc7317f" y="266.522493"/>
     <use style="fill:#1f77b4;stroke:#ffffff;stroke-width:0.75;" x="218.668054" xlink:href="#m5c2cc7317f" y="266.511593"/>
     <use style="fill:#1f77b4;stroke:#ffffff;stroke-width:0.75;" x="221.282862" xlink:href="#m5c2cc7317f" y="266.273895"/>
     <use style="fill:#1f77b4;stroke:#ffffff;stroke-width:0.75;" x="223.89767" xlink:href="#m5c2cc7317f" y="266.318004"/>
     <use style="fill:#1f77b4;stroke:#ffffff;stroke-width:0.75;" x="226.512478" xlink:href="#m5c2cc7317f" y="266.239137"/>
     <use style="fill:#1f77b4;stroke:#ffffff;stroke-width:0.75;" x="229.127286" xlink:href="#m5c2cc7317f" y="266.280267"/>
     <use style="fill:#1f77b4;stroke:#ffffff;stroke-width:0.75;" x="231.742094" xlink:href="#m5c2cc7317f" y="266.289718"/>
     <use style="fill:#1f77b4;stroke:#ffffff;stroke-width:0.75;" x="234.356902" xlink:href="#m5c2cc7317f" y="266.281665"/>
     <use style="fill:#1f77b4;stroke:#ffffff;stroke-width:0.75;" x="236.97171" xlink:href="#m5c2cc7317f" y="266.172209"/>
     <use style="fill:#1f77b4;stroke:#ffffff;stroke-width:0.75;" x="239.586517" xlink:href="#m5c2cc7317f" y="266.233195"/>
     <use style="fill:#1f77b4;stroke:#ffffff;stroke-width:0.75;" x="242.201325" xlink:href="#m5c2cc7317f" y="266.260324"/>
     <use style="fill:#1f77b4;stroke:#ffffff;stroke-width:0.75;" x="244.816133" xlink:href="#m5c2cc7317f" y="266.307011"/>
     <use style="fill:#1f77b4;stroke:#ffffff;stroke-width:0.75;" x="247.430941" xlink:href="#m5c2cc7317f" y="266.317548"/>
     <use style="fill:#1f77b4;stroke:#ffffff;stroke-width:0.75;" x="250.045749" xlink:href="#m5c2cc7317f" y="266.339955"/>
     <use style="fill:#1f77b4;stroke:#ffffff;stroke-width:0.75;" x="252.660557" xlink:href="#m5c2cc7317f" y="266.340604"/>
     <use style="fill:#1f77b4;stroke:#ffffff;stroke-width:0.75;" x="255.275365" xlink:href="#m5c2cc7317f" y="266.349212"/>
     <use style="fill:#1f77b4;stroke:#ffffff;stroke-width:0.75;" x="257.890173" xlink:href="#m5c2cc7317f" y="266.370817"/>
     <use style="fill:#1f77b4;stroke:#ffffff;stroke-width:0.75;" x="260.50498" xlink:href="#m5c2cc7317f" y="266.337976"/>
     <use style="fill:#1f77b4;stroke:#ffffff;stroke-width:0.75;" x="263.119788" xlink:href="#m5c2cc7317f" y="266.352806"/>
     <use style="fill:#1f77b4;stroke:#ffffff;stroke-width:0.75;" x="265.734596" xlink:href="#m5c2cc7317f" y="266.390809"/>
     <use style="fill:#1f77b4;stroke:#ffffff;stroke-width:0.75;" x="268.349404" xlink:href="#m5c2cc7317f" y="266.422349"/>
     <use style="fill:#1f77b4;stroke:#ffffff;stroke-width:0.75;" x="270.964212" xlink:href="#m5c2cc7317f" y="266.387866"/>
     <use style="fill:#1f77b4;stroke:#ffffff;stroke-width:0.75;" x="273.57902" xlink:href="#m5c2cc7317f" y="266.425309"/>
     <use style="fill:#1f77b4;stroke:#ffffff;stroke-width:0.75;" x="276.193828" xlink:href="#m5c2cc7317f" y="266.443998"/>
     <use style="fill:#1f77b4;stroke:#ffffff;stroke-width:0.75;" x="278.808635" xlink:href="#m5c2cc7317f" y="266.459563"/>
     <use style="fill:#1f77b4;stroke:#ffffff;stroke-width:0.75;" x="281.423443" xlink:href="#m5c2cc7317f" y="266.48104"/>
     <use style="fill:#1f77b4;stroke:#ffffff;stroke-width:0.75;" x="284.038251" xlink:href="#m5c2cc7317f" y="266.487858"/>
     <use style="fill:#1f77b4;stroke:#ffffff;stroke-width:0.75;" x="286.653059" xlink:href="#m5c2cc7317f" y="266.483578"/>
     <use style="fill:#1f77b4;stroke:#ffffff;stroke-width:0.75;" x="289.267867" xlink:href="#m5c2cc7317f" y="266.512909"/>
     <use style="fill:#1f77b4;stroke:#ffffff;stroke-width:0.75;" x="291.882675" xlink:href="#m5c2cc7317f" y="266.523518"/>
     <use style="fill:#1f77b4;stroke:#ffffff;stroke-width:0.75;" x="294.497483" xlink:href="#m5c2cc7317f" y="266.46779"/>
     <use style="fill:#1f77b4;stroke:#ffffff;stroke-width:0.75;" x="297.112291" xlink:href="#m5c2cc7317f" y="266.512249"/>
     <use style="fill:#1f77b4;stroke:#ffffff;stroke-width:0.75;" x="299.727098" xlink:href="#m5c2cc7317f" y="266.525115"/>
     <use style="fill:#1f77b4;stroke:#ffffff;stroke-width:0.75;" x="302.341906" xlink:href="#m5c2cc7317f" y="266.527688"/>
     <use style="fill:#1f77b4;stroke:#ffffff;stroke-width:0.75;" x="304.956714" xlink:href="#m5c2cc7317f" y="266.550552"/>
     <use style="fill:#1f77b4;stroke:#ffffff;stroke-width:0.75;" x="307.571522" xlink:href="#m5c2cc7317f" y="266.574826"/>
     <use style="fill:#1f77b4;stroke:#ffffff;stroke-width:0.75;" x="310.18633" xlink:href="#m5c2cc7317f" y="266.582901"/>
     <use style="fill:#1f77b4;stroke:#ffffff;stroke-width:0.75;" x="312.801138" xlink:href="#m5c2cc7317f" y="266.601053"/>
     <use style="fill:#1f77b4;stroke:#ffffff;stroke-width:0.75;" x="315.415946" xlink:href="#m5c2cc7317f" y="266.586982"/>
     <use style="fill:#1f77b4;stroke:#ffffff;stroke-width:0.75;" x="318.030754" xlink:href="#m5c2cc7317f" y="266.611183"/>
     <use style="fill:#1f77b4;stroke:#ffffff;stroke-width:0.75;" x="320.645561" xlink:href="#m5c2cc7317f" y="266.633648"/>
     <use style="fill:#1f77b4;stroke:#ffffff;stroke-width:0.75;" x="323.260369" xlink:href="#m5c2cc7317f" y="266.645455"/>
    </g>
   </g>
   <g id="line2d_11">
    <path clip-path="url(#p167597e275)" d="M 69.624006 19.554545 
L 72.238814 77.719644 
L 74.853621 119.429451 
L 77.468429 153.235631 
L 80.083237 172.820762 
L 82.698045 186.661423 
L 85.312853 196.390038 
L 87.927661 204.748899 
L 90.542469 210.227724 
L 93.157277 215.731883 
L 95.772084 213.470488 
L 98.386892 216.962752 
L 101.0017 215.634364 
L 103.616508 218.908536 
L 106.231316 221.744255 
L 108.846124 223.855193 
L 111.460932 225.811935 
L 114.07574 226.05745 
L 116.690547 226.952925 
L 119.305355 223.762946 
L 121.920163 225.712453 
L 124.534971 227.294799 
L 127.149779 228.573278 
L 129.764587 229.576471 
L 132.379395 230.944443 
L 134.994202 231.029265 
L 137.60901 232.218083 
L 140.223818 233.344264 
L 142.838626 234.438731 
L 145.453434 235.224559 
L 148.068242 236.207381 
L 150.68305 237.073851 
L 153.297858 237.797292 
L 155.912665 238.543773 
L 158.527473 239.178654 
L 161.142281 239.644592 
L 163.757089 240.298115 
L 166.371897 239.194549 
L 168.986705 239.852989 
L 171.601513 240.229708 
L 174.216321 239.538047 
L 176.831128 240.098227 
L 179.445936 240.074022 
L 182.060744 240.497291 
L 184.675552 240.495698 
L 187.29036 240.890489 
L 189.905168 241.21422 
L 192.519976 241.614457 
L 195.134784 242.073281 
L 197.749591 242.492384 
L 200.364399 242.748046 
L 202.979207 242.714673 
L 205.594015 242.889964 
L 208.208823 243.080476 
L 210.823631 243.439715 
L 213.438439 243.678041 
L 216.053247 243.365641 
L 218.668054 243.515963 
L 221.282862 243.526399 
L 223.89767 243.817118 
L 226.512478 243.536274 
L 229.127286 243.90171 
L 231.742094 244.225149 
L 234.356902 244.505757 
L 236.97171 244.819806 
L 239.586517 244.93223 
L 242.201325 245.198497 
L 244.816133 245.512246 
L 247.430941 245.765953 
L 250.045749 245.599644 
L 252.660557 245.755866 
L 255.275365 245.831181 
L 257.890173 245.906171 
L 260.50498 246.163458 
L 263.119788 246.243639 
L 265.734596 246.447661 
L 268.349404 246.688703 
L 270.964212 246.581993 
L 273.57902 246.738366 
L 276.193828 246.911463 
L 278.808635 247.113795 
L 281.423443 247.113975 
L 284.038251 247.338869 
L 286.653059 247.485524 
L 289.267867 247.568212 
L 291.882675 247.697584 
L 294.497483 247.868961 
L 297.112291 247.990598 
L 299.727098 248.165584 
L 302.341906 248.356677 
L 304.956714 248.542405 
L 307.571522 248.689068 
L 310.18633 248.828187 
L 312.801138 248.967731 
L 315.415946 249.131017 
L 318.030754 249.195061 
L 320.645561 249.344494 
L 323.260369 249.501127 
" style="fill:none;stroke:#ff7f0e;stroke-linecap:round;stroke-width:1.5;"/>
    <defs>
     <path d="M 0 3 
C 0.795609 3 1.55874 2.683901 2.12132 2.12132 
C 2.683901 1.55874 3 0.795609 3 0 
C 3 -0.795609 2.683901 -1.55874 2.12132 -2.12132 
C 1.55874 -2.683901 0.795609 -3 0 -3 
C -0.795609 -3 -1.55874 -2.683901 -2.12132 -2.12132 
C -2.683901 -1.55874 -3 -0.795609 -3 0 
C -3 0.795609 -2.683901 1.55874 -2.12132 2.12132 
C -1.55874 2.683901 -0.795609 3 0 3 
z
" id="m7dcf365672" style="stroke:#ffffff;stroke-width:0.75;"/>
    </defs>
    <g clip-path="url(#p167597e275)">
     <use style="fill:#ff7f0e;stroke:#ffffff;stroke-width:0.75;" x="69.624006" xlink:href="#m7dcf365672" y="19.554545"/>
     <use style="fill:#ff7f0e;stroke:#ffffff;stroke-width:0.75;" x="72.238814" xlink:href="#m7dcf365672" y="77.719644"/>
     <use style="fill:#ff7f0e;stroke:#ffffff;stroke-width:0.75;" x="74.853621" xlink:href="#m7dcf365672" y="119.429451"/>
     <use style="fill:#ff7f0e;stroke:#ffffff;stroke-width:0.75;" x="77.468429" xlink:href="#m7dcf365672" y="153.235631"/>
     <use style="fill:#ff7f0e;stroke:#ffffff;stroke-width:0.75;" x="80.083237" xlink:href="#m7dcf365672" y="172.820762"/>
     <use style="fill:#ff7f0e;stroke:#ffffff;stroke-width:0.75;" x="82.698045" xlink:href="#m7dcf365672" y="186.661423"/>
     <use style="fill:#ff7f0e;stroke:#ffffff;stroke-width:0.75;" x="85.312853" xlink:href="#m7dcf365672" y="196.390038"/>
     <use style="fill:#ff7f0e;stroke:#ffffff;stroke-width:0.75;" x="87.927661" xlink:href="#m7dcf365672" y="204.748899"/>
     <use style="fill:#ff7f0e;stroke:#ffffff;stroke-width:0.75;" x="90.542469" xlink:href="#m7dcf365672" y="210.227724"/>
     <use style="fill:#ff7f0e;stroke:#ffffff;stroke-width:0.75;" x="93.157277" xlink:href="#m7dcf365672" y="215.731883"/>
     <use style="fill:#ff7f0e;stroke:#ffffff;stroke-width:0.75;" x="95.772084" xlink:href="#m7dcf365672" y="213.470488"/>
     <use style="fill:#ff7f0e;stroke:#ffffff;stroke-width:0.75;" x="98.386892" xlink:href="#m7dcf365672" y="216.962752"/>
     <use style="fill:#ff7f0e;stroke:#ffffff;stroke-width:0.75;" x="101.0017" xlink:href="#m7dcf365672" y="215.634364"/>
     <use style="fill:#ff7f0e;stroke:#ffffff;stroke-width:0.75;" x="103.616508" xlink:href="#m7dcf365672" y="218.908536"/>
     <use style="fill:#ff7f0e;stroke:#ffffff;stroke-width:0.75;" x="106.231316" xlink:href="#m7dcf365672" y="221.744255"/>
     <use style="fill:#ff7f0e;stroke:#ffffff;stroke-width:0.75;" x="108.846124" xlink:href="#m7dcf365672" y="223.855193"/>
     <use style="fill:#ff7f0e;stroke:#ffffff;stroke-width:0.75;" x="111.460932" xlink:href="#m7dcf365672" y="225.811935"/>
     <use style="fill:#ff7f0e;stroke:#ffffff;stroke-width:0.75;" x="114.07574" xlink:href="#m7dcf365672" y="226.05745"/>
     <use style="fill:#ff7f0e;stroke:#ffffff;stroke-width:0.75;" x="116.690547" xlink:href="#m7dcf365672" y="226.952925"/>
     <use style="fill:#ff7f0e;stroke:#ffffff;stroke-width:0.75;" x="119.305355" xlink:href="#m7dcf365672" y="223.762946"/>
     <use style="fill:#ff7f0e;stroke:#ffffff;stroke-width:0.75;" x="121.920163" xlink:href="#m7dcf365672" y="225.712453"/>
     <use style="fill:#ff7f0e;stroke:#ffffff;stroke-width:0.75;" x="124.534971" xlink:href="#m7dcf365672" y="227.294799"/>
     <use style="fill:#ff7f0e;stroke:#ffffff;stroke-width:0.75;" x="127.149779" xlink:href="#m7dcf365672" y="228.573278"/>
     <use style="fill:#ff7f0e;stroke:#ffffff;stroke-width:0.75;" x="129.764587" xlink:href="#m7dcf365672" y="229.576471"/>
     <use style="fill:#ff7f0e;stroke:#ffffff;stroke-width:0.75;" x="132.379395" xlink:href="#m7dcf365672" y="230.944443"/>
     <use style="fill:#ff7f0e;stroke:#ffffff;stroke-width:0.75;" x="134.994202" xlink:href="#m7dcf365672" y="231.029265"/>
     <use style="fill:#ff7f0e;stroke:#ffffff;stroke-width:0.75;" x="137.60901" xlink:href="#m7dcf365672" y="232.218083"/>
     <use style="fill:#ff7f0e;stroke:#ffffff;stroke-width:0.75;" x="140.223818" xlink:href="#m7dcf365672" y="233.344264"/>
     <use style="fill:#ff7f0e;stroke:#ffffff;stroke-width:0.75;" x="142.838626" xlink:href="#m7dcf365672" y="234.438731"/>
     <use style="fill:#ff7f0e;stroke:#ffffff;stroke-width:0.75;" x="145.453434" xlink:href="#m7dcf365672" y="235.224559"/>
     <use style="fill:#ff7f0e;stroke:#ffffff;stroke-width:0.75;" x="148.068242" xlink:href="#m7dcf365672" y="236.207381"/>
     <use style="fill:#ff7f0e;stroke:#ffffff;stroke-width:0.75;" x="150.68305" xlink:href="#m7dcf365672" y="237.073851"/>
     <use style="fill:#ff7f0e;stroke:#ffffff;stroke-width:0.75;" x="153.297858" xlink:href="#m7dcf365672" y="237.797292"/>
     <use style="fill:#ff7f0e;stroke:#ffffff;stroke-width:0.75;" x="155.912665" xlink:href="#m7dcf365672" y="238.543773"/>
     <use style="fill:#ff7f0e;stroke:#ffffff;stroke-width:0.75;" x="158.527473" xlink:href="#m7dcf365672" y="239.178654"/>
     <use style="fill:#ff7f0e;stroke:#ffffff;stroke-width:0.75;" x="161.142281" xlink:href="#m7dcf365672" y="239.644592"/>
     <use style="fill:#ff7f0e;stroke:#ffffff;stroke-width:0.75;" x="163.757089" xlink:href="#m7dcf365672" y="240.298115"/>
     <use style="fill:#ff7f0e;stroke:#ffffff;stroke-width:0.75;" x="166.371897" xlink:href="#m7dcf365672" y="239.194549"/>
     <use style="fill:#ff7f0e;stroke:#ffffff;stroke-width:0.75;" x="168.986705" xlink:href="#m7dcf365672" y="239.852989"/>
     <use style="fill:#ff7f0e;stroke:#ffffff;stroke-width:0.75;" x="171.601513" xlink:href="#m7dcf365672" y="240.229708"/>
     <use style="fill:#ff7f0e;stroke:#ffffff;stroke-width:0.75;" x="174.216321" xlink:href="#m7dcf365672" y="239.538047"/>
     <use style="fill:#ff7f0e;stroke:#ffffff;stroke-width:0.75;" x="176.831128" xlink:href="#m7dcf365672" y="240.098227"/>
     <use style="fill:#ff7f0e;stroke:#ffffff;stroke-width:0.75;" x="179.445936" xlink:href="#m7dcf365672" y="240.074022"/>
     <use style="fill:#ff7f0e;stroke:#ffffff;stroke-width:0.75;" x="182.060744" xlink:href="#m7dcf365672" y="240.497291"/>
     <use style="fill:#ff7f0e;stroke:#ffffff;stroke-width:0.75;" x="184.675552" xlink:href="#m7dcf365672" y="240.495698"/>
     <use style="fill:#ff7f0e;stroke:#ffffff;stroke-width:0.75;" x="187.29036" xlink:href="#m7dcf365672" y="240.890489"/>
     <use style="fill:#ff7f0e;stroke:#ffffff;stroke-width:0.75;" x="189.905168" xlink:href="#m7dcf365672" y="241.21422"/>
     <use style="fill:#ff7f0e;stroke:#ffffff;stroke-width:0.75;" x="192.519976" xlink:href="#m7dcf365672" y="241.614457"/>
     <use style="fill:#ff7f0e;stroke:#ffffff;stroke-width:0.75;" x="195.134784" xlink:href="#m7dcf365672" y="242.073281"/>
     <use style="fill:#ff7f0e;stroke:#ffffff;stroke-width:0.75;" x="197.749591" xlink:href="#m7dcf365672" y="242.492384"/>
     <use style="fill:#ff7f0e;stroke:#ffffff;stroke-width:0.75;" x="200.364399" xlink:href="#m7dcf365672" y="242.748046"/>
     <use style="fill:#ff7f0e;stroke:#ffffff;stroke-width:0.75;" x="202.979207" xlink:href="#m7dcf365672" y="242.714673"/>
     <use style="fill:#ff7f0e;stroke:#ffffff;stroke-width:0.75;" x="205.594015" xlink:href="#m7dcf365672" y="242.889964"/>
     <use style="fill:#ff7f0e;stroke:#ffffff;stroke-width:0.75;" x="208.208823" xlink:href="#m7dcf365672" y="243.080476"/>
     <use style="fill:#ff7f0e;stroke:#ffffff;stroke-width:0.75;" x="210.823631" xlink:href="#m7dcf365672" y="243.439715"/>
     <use style="fill:#ff7f0e;stroke:#ffffff;stroke-width:0.75;" x="213.438439" xlink:href="#m7dcf365672" y="243.678041"/>
     <use style="fill:#ff7f0e;stroke:#ffffff;stroke-width:0.75;" x="216.053247" xlink:href="#m7dcf365672" y="243.365641"/>
     <use style="fill:#ff7f0e;stroke:#ffffff;stroke-width:0.75;" x="218.668054" xlink:href="#m7dcf365672" y="243.515963"/>
     <use style="fill:#ff7f0e;stroke:#ffffff;stroke-width:0.75;" x="221.282862" xlink:href="#m7dcf365672" y="243.526399"/>
     <use style="fill:#ff7f0e;stroke:#ffffff;stroke-width:0.75;" x="223.89767" xlink:href="#m7dcf365672" y="243.817118"/>
     <use style="fill:#ff7f0e;stroke:#ffffff;stroke-width:0.75;" x="226.512478" xlink:href="#m7dcf365672" y="243.536274"/>
     <use style="fill:#ff7f0e;stroke:#ffffff;stroke-width:0.75;" x="229.127286" xlink:href="#m7dcf365672" y="243.90171"/>
     <use style="fill:#ff7f0e;stroke:#ffffff;stroke-width:0.75;" x="231.742094" xlink:href="#m7dcf365672" y="244.225149"/>
     <use style="fill:#ff7f0e;stroke:#ffffff;stroke-width:0.75;" x="234.356902" xlink:href="#m7dcf365672" y="244.505757"/>
     <use style="fill:#ff7f0e;stroke:#ffffff;stroke-width:0.75;" x="236.97171" xlink:href="#m7dcf365672" y="244.819806"/>
     <use style="fill:#ff7f0e;stroke:#ffffff;stroke-width:0.75;" x="239.586517" xlink:href="#m7dcf365672" y="244.93223"/>
     <use style="fill:#ff7f0e;stroke:#ffffff;stroke-width:0.75;" x="242.201325" xlink:href="#m7dcf365672" y="245.198497"/>
     <use style="fill:#ff7f0e;stroke:#ffffff;stroke-width:0.75;" x="244.816133" xlink:href="#m7dcf365672" y="245.512246"/>
     <use style="fill:#ff7f0e;stroke:#ffffff;stroke-width:0.75;" x="247.430941" xlink:href="#m7dcf365672" y="245.765953"/>
     <use style="fill:#ff7f0e;stroke:#ffffff;stroke-width:0.75;" x="250.045749" xlink:href="#m7dcf365672" y="245.599644"/>
     <use style="fill:#ff7f0e;stroke:#ffffff;stroke-width:0.75;" x="252.660557" xlink:href="#m7dcf365672" y="245.755866"/>
     <use style="fill:#ff7f0e;stroke:#ffffff;stroke-width:0.75;" x="255.275365" xlink:href="#m7dcf365672" y="245.831181"/>
     <use style="fill:#ff7f0e;stroke:#ffffff;stroke-width:0.75;" x="257.890173" xlink:href="#m7dcf365672" y="245.906171"/>
     <use style="fill:#ff7f0e;stroke:#ffffff;stroke-width:0.75;" x="260.50498" xlink:href="#m7dcf365672" y="246.163458"/>
     <use style="fill:#ff7f0e;stroke:#ffffff;stroke-width:0.75;" x="263.119788" xlink:href="#m7dcf365672" y="246.243639"/>
     <use style="fill:#ff7f0e;stroke:#ffffff;stroke-width:0.75;" x="265.734596" xlink:href="#m7dcf365672" y="246.447661"/>
     <use style="fill:#ff7f0e;stroke:#ffffff;stroke-width:0.75;" x="268.349404" xlink:href="#m7dcf365672" y="246.688703"/>
     <use style="fill:#ff7f0e;stroke:#ffffff;stroke-width:0.75;" x="270.964212" xlink:href="#m7dcf365672" y="246.581993"/>
     <use style="fill:#ff7f0e;stroke:#ffffff;stroke-width:0.75;" x="273.57902" xlink:href="#m7dcf365672" y="246.738366"/>
     <use style="fill:#ff7f0e;stroke:#ffffff;stroke-width:0.75;" x="276.193828" xlink:href="#m7dcf365672" y="246.911463"/>
     <use style="fill:#ff7f0e;stroke:#ffffff;stroke-width:0.75;" x="278.808635" xlink:href="#m7dcf365672" y="247.113795"/>
     <use style="fill:#ff7f0e;stroke:#ffffff;stroke-width:0.75;" x="281.423443" xlink:href="#m7dcf365672" y="247.113975"/>
     <use style="fill:#ff7f0e;stroke:#ffffff;stroke-width:0.75;" x="284.038251" xlink:href="#m7dcf365672" y="247.338869"/>
     <use style="fill:#ff7f0e;stroke:#ffffff;stroke-width:0.75;" x="286.653059" xlink:href="#m7dcf365672" y="247.485524"/>
     <use style="fill:#ff7f0e;stroke:#ffffff;stroke-width:0.75;" x="289.267867" xlink:href="#m7dcf365672" y="247.568212"/>
     <use style="fill:#ff7f0e;stroke:#ffffff;stroke-width:0.75;" x="291.882675" xlink:href="#m7dcf365672" y="247.697584"/>
     <use style="fill:#ff7f0e;stroke:#ffffff;stroke-width:0.75;" x="294.497483" xlink:href="#m7dcf365672" y="247.868961"/>
     <use style="fill:#ff7f0e;stroke:#ffffff;stroke-width:0.75;" x="297.112291" xlink:href="#m7dcf365672" y="247.990598"/>
     <use style="fill:#ff7f0e;stroke:#ffffff;stroke-width:0.75;" x="299.727098" xlink:href="#m7dcf365672" y="248.165584"/>
     <use style="fill:#ff7f0e;stroke:#ffffff;stroke-width:0.75;" x="302.341906" xlink:href="#m7dcf365672" y="248.356677"/>
     <use style="fill:#ff7f0e;stroke:#ffffff;stroke-width:0.75;" x="304.956714" xlink:href="#m7dcf365672" y="248.542405"/>
     <use style="fill:#ff7f0e;stroke:#ffffff;stroke-width:0.75;" x="307.571522" xlink:href="#m7dcf365672" y="248.689068"/>
     <use style="fill:#ff7f0e;stroke:#ffffff;stroke-width:0.75;" x="310.18633" xlink:href="#m7dcf365672" y="248.828187"/>
     <use style="fill:#ff7f0e;stroke:#ffffff;stroke-width:0.75;" x="312.801138" xlink:href="#m7dcf365672" y="248.967731"/>
     <use style="fill:#ff7f0e;stroke:#ffffff;stroke-width:0.75;" x="315.415946" xlink:href="#m7dcf365672" y="249.131017"/>
     <use style="fill:#ff7f0e;stroke:#ffffff;stroke-width:0.75;" x="318.030754" xlink:href="#m7dcf365672" y="249.195061"/>
     <use style="fill:#ff7f0e;stroke:#ffffff;stroke-width:0.75;" x="320.645561" xlink:href="#m7dcf365672" y="249.344494"/>
     <use style="fill:#ff7f0e;stroke:#ffffff;stroke-width:0.75;" x="323.260369" xlink:href="#m7dcf365672" y="249.501127"/>
    </g>
   </g>
   <g id="line2d_12">
    <path clip-path="url(#p167597e275)" d="M 69.624006 259.491638 
L 72.238814 262.468135 
L 74.853621 258.191675 
L 77.468429 260.233241 
L 80.083237 230.883848 
L 82.698045 236.194409 
L 85.312853 239.554904 
L 87.927661 241.613243 
L 90.542469 243.57954 
L 93.157277 245.800457 
L 95.772084 238.454168 
L 98.386892 239.507938 
L 101.0017 241.466528 
L 103.616508 238.299497 
L 106.231316 240.209055 
L 108.846124 241.892471 
L 111.460932 243.182249 
L 114.07574 244.535917 
L 116.690547 243.062732 
L 119.305355 244.200133 
L 121.920163 245.236238 
L 124.534971 246.207247 
L 127.149779 246.253663 
L 129.764587 247.155928 
L 132.379395 247.776783 
L 134.994202 248.486447 
L 137.60901 248.779366 
L 140.223818 249.402687 
L 142.838626 249.907933 
L 145.453434 250.47792 
L 148.068242 250.936756 
L 150.68305 250.206861 
L 153.297858 250.747524 
L 155.912665 251.22336 
L 158.527473 250.273142 
L 161.142281 249.367801 
L 163.757089 249.818892 
L 166.371897 250.06307 
L 168.986705 250.204515 
L 171.601513 250.634956 
L 174.216321 251.042988 
L 176.831128 251.450092 
L 179.445936 251.830838 
L 182.060744 252.148271 
L 184.675552 252.350203 
L 187.29036 252.553246 
L 189.905168 252.862158 
L 192.519976 253.068839 
L 195.134784 253.119608 
L 197.749591 253.19126 
L 200.364399 251.448085 
L 202.979207 251.753501 
L 205.594015 252.038878 
L 208.208823 252.29159 
L 210.823631 252.501975 
L 213.438439 252.770379 
L 216.053247 252.998948 
L 218.668054 253.208929 
L 221.282862 253.265424 
L 223.89767 253.512192 
L 226.512478 253.744953 
L 229.127286 252.943124 
L 231.742094 253.116519 
L 234.356902 253.329541 
L 236.97171 253.504389 
L 239.586517 253.631346 
L 242.201325 253.692182 
L 244.816133 253.891772 
L 247.430941 254.099458 
L 250.045749 254.281062 
L 252.660557 254.423326 
L 255.275365 254.615558 
L 257.890173 253.093132 
L 260.50498 252.881761 
L 263.119788 253.074891 
L 265.734596 253.248877 
L 268.349404 253.412313 
L 270.964212 253.604122 
L 273.57902 252.455839 
L 276.193828 252.625659 
L 278.808635 252.721787 
L 281.423443 252.462806 
L 284.038251 252.605488 
L 286.653059 252.721579 
L 289.267867 252.899999 
L 291.882675 252.97601 
L 294.497483 253.109026 
L 297.112291 253.173686 
L 299.727098 253.341363 
L 302.341906 253.339792 
L 304.956714 253.439131 
L 307.571522 253.585222 
L 310.18633 253.745983 
L 312.801138 253.634102 
L 315.415946 253.621118 
L 318.030754 253.646122 
L 320.645561 253.711117 
L 323.260369 253.828036 
" style="fill:none;stroke:#2ca02c;stroke-linecap:round;stroke-width:1.5;"/>
    <defs>
     <path d="M 0 3 
C 0.795609 3 1.55874 2.683901 2.12132 2.12132 
C 2.683901 1.55874 3 0.795609 3 0 
C 3 -0.795609 2.683901 -1.55874 2.12132 -2.12132 
C 1.55874 -2.683901 0.795609 -3 0 -3 
C -0.795609 -3 -1.55874 -2.683901 -2.12132 -2.12132 
C -2.683901 -1.55874 -3 -0.795609 -3 0 
C -3 0.795609 -2.683901 1.55874 -2.12132 2.12132 
C -1.55874 2.683901 -0.795609 3 0 3 
z
" id="ma18fe414fd" style="stroke:#ffffff;stroke-width:0.75;"/>
    </defs>
    <g clip-path="url(#p167597e275)">
     <use style="fill:#2ca02c;stroke:#ffffff;stroke-width:0.75;" x="69.624006" xlink:href="#ma18fe414fd" y="259.491638"/>
     <use style="fill:#2ca02c;stroke:#ffffff;stroke-width:0.75;" x="72.238814" xlink:href="#ma18fe414fd" y="262.468135"/>
     <use style="fill:#2ca02c;stroke:#ffffff;stroke-width:0.75;" x="74.853621" xlink:href="#ma18fe414fd" y="258.191675"/>
     <use style="fill:#2ca02c;stroke:#ffffff;stroke-width:0.75;" x="77.468429" xlink:href="#ma18fe414fd" y="260.233241"/>
     <use style="fill:#2ca02c;stroke:#ffffff;stroke-width:0.75;" x="80.083237" xlink:href="#ma18fe414fd" y="230.883848"/>
     <use style="fill:#2ca02c;stroke:#ffffff;stroke-width:0.75;" x="82.698045" xlink:href="#ma18fe414fd" y="236.194409"/>
     <use style="fill:#2ca02c;stroke:#ffffff;stroke-width:0.75;" x="85.312853" xlink:href="#ma18fe414fd" y="239.554904"/>
     <use style="fill:#2ca02c;stroke:#ffffff;stroke-width:0.75;" x="87.927661" xlink:href="#ma18fe414fd" y="241.613243"/>
     <use style="fill:#2ca02c;stroke:#ffffff;stroke-width:0.75;" x="90.542469" xlink:href="#ma18fe414fd" y="243.57954"/>
     <use style="fill:#2ca02c;stroke:#ffffff;stroke-width:0.75;" x="93.157277" xlink:href="#ma18fe414fd" y="245.800457"/>
     <use style="fill:#2ca02c;stroke:#ffffff;stroke-width:0.75;" x="95.772084" xlink:href="#ma18fe414fd" y="238.454168"/>
     <use style="fill:#2ca02c;stroke:#ffffff;stroke-width:0.75;" x="98.386892" xlink:href="#ma18fe414fd" y="239.507938"/>
     <use style="fill:#2ca02c;stroke:#ffffff;stroke-width:0.75;" x="101.0017" xlink:href="#ma18fe414fd" y="241.466528"/>
     <use style="fill:#2ca02c;stroke:#ffffff;stroke-width:0.75;" x="103.616508" xlink:href="#ma18fe414fd" y="238.299497"/>
     <use style="fill:#2ca02c;stroke:#ffffff;stroke-width:0.75;" x="106.231316" xlink:href="#ma18fe414fd" y="240.209055"/>
     <use style="fill:#2ca02c;stroke:#ffffff;stroke-width:0.75;" x="108.846124" xlink:href="#ma18fe414fd" y="241.892471"/>
     <use style="fill:#2ca02c;stroke:#ffffff;stroke-width:0.75;" x="111.460932" xlink:href="#ma18fe414fd" y="243.182249"/>
     <use style="fill:#2ca02c;stroke:#ffffff;stroke-width:0.75;" x="114.07574" xlink:href="#ma18fe414fd" y="244.535917"/>
     <use style="fill:#2ca02c;stroke:#ffffff;stroke-width:0.75;" x="116.690547" xlink:href="#ma18fe414fd" y="243.062732"/>
     <use style="fill:#2ca02c;stroke:#ffffff;stroke-width:0.75;" x="119.305355" xlink:href="#ma18fe414fd" y="244.200133"/>
     <use style="fill:#2ca02c;stroke:#ffffff;stroke-width:0.75;" x="121.920163" xlink:href="#ma18fe414fd" y="245.236238"/>
     <use style="fill:#2ca02c;stroke:#ffffff;stroke-width:0.75;" x="124.534971" xlink:href="#ma18fe414fd" y="246.207247"/>
     <use style="fill:#2ca02c;stroke:#ffffff;stroke-width:0.75;" x="127.149779" xlink:href="#ma18fe414fd" y="246.253663"/>
     <use style="fill:#2ca02c;stroke:#ffffff;stroke-width:0.75;" x="129.764587" xlink:href="#ma18fe414fd" y="247.155928"/>
     <use style="fill:#2ca02c;stroke:#ffffff;stroke-width:0.75;" x="132.379395" xlink:href="#ma18fe414fd" y="247.776783"/>
     <use style="fill:#2ca02c;stroke:#ffffff;stroke-width:0.75;" x="134.994202" xlink:href="#ma18fe414fd" y="248.486447"/>
     <use style="fill:#2ca02c;stroke:#ffffff;stroke-width:0.75;" x="137.60901" xlink:href="#ma18fe414fd" y="248.779366"/>
     <use style="fill:#2ca02c;stroke:#ffffff;stroke-width:0.75;" x="140.223818" xlink:href="#ma18fe414fd" y="249.402687"/>
     <use style="fill:#2ca02c;stroke:#ffffff;stroke-width:0.75;" x="142.838626" xlink:href="#ma18fe414fd" y="249.907933"/>
     <use style="fill:#2ca02c;stroke:#ffffff;stroke-width:0.75;" x="145.453434" xlink:href="#ma18fe414fd" y="250.47792"/>
     <use style="fill:#2ca02c;stroke:#ffffff;stroke-width:0.75;" x="148.068242" xlink:href="#ma18fe414fd" y="250.936756"/>
     <use style="fill:#2ca02c;stroke:#ffffff;stroke-width:0.75;" x="150.68305" xlink:href="#ma18fe414fd" y="250.206861"/>
     <use style="fill:#2ca02c;stroke:#ffffff;stroke-width:0.75;" x="153.297858" xlink:href="#ma18fe414fd" y="250.747524"/>
     <use style="fill:#2ca02c;stroke:#ffffff;stroke-width:0.75;" x="155.912665" xlink:href="#ma18fe414fd" y="251.22336"/>
     <use style="fill:#2ca02c;stroke:#ffffff;stroke-width:0.75;" x="158.527473" xlink:href="#ma18fe414fd" y="250.273142"/>
     <use style="fill:#2ca02c;stroke:#ffffff;stroke-width:0.75;" x="161.142281" xlink:href="#ma18fe414fd" y="249.367801"/>
     <use style="fill:#2ca02c;stroke:#ffffff;stroke-width:0.75;" x="163.757089" xlink:href="#ma18fe414fd" y="249.818892"/>
     <use style="fill:#2ca02c;stroke:#ffffff;stroke-width:0.75;" x="166.371897" xlink:href="#ma18fe414fd" y="250.06307"/>
     <use style="fill:#2ca02c;stroke:#ffffff;stroke-width:0.75;" x="168.986705" xlink:href="#ma18fe414fd" y="250.204515"/>
     <use style="fill:#2ca02c;stroke:#ffffff;stroke-width:0.75;" x="171.601513" xlink:href="#ma18fe414fd" y="250.634956"/>
     <use style="fill:#2ca02c;stroke:#ffffff;stroke-width:0.75;" x="174.216321" xlink:href="#ma18fe414fd" y="251.042988"/>
     <use style="fill:#2ca02c;stroke:#ffffff;stroke-width:0.75;" x="176.831128" xlink:href="#ma18fe414fd" y="251.450092"/>
     <use style="fill:#2ca02c;stroke:#ffffff;stroke-width:0.75;" x="179.445936" xlink:href="#ma18fe414fd" y="251.830838"/>
     <use style="fill:#2ca02c;stroke:#ffffff;stroke-width:0.75;" x="182.060744" xlink:href="#ma18fe414fd" y="252.148271"/>
     <use style="fill:#2ca02c;stroke:#ffffff;stroke-width:0.75;" x="184.675552" xlink:href="#ma18fe414fd" y="252.350203"/>
     <use style="fill:#2ca02c;stroke:#ffffff;stroke-width:0.75;" x="187.29036" xlink:href="#ma18fe414fd" y="252.553246"/>
     <use style="fill:#2ca02c;stroke:#ffffff;stroke-width:0.75;" x="189.905168" xlink:href="#ma18fe414fd" y="252.862158"/>
     <use style="fill:#2ca02c;stroke:#ffffff;stroke-width:0.75;" x="192.519976" xlink:href="#ma18fe414fd" y="253.068839"/>
     <use style="fill:#2ca02c;stroke:#ffffff;stroke-width:0.75;" x="195.134784" xlink:href="#ma18fe414fd" y="253.119608"/>
     <use style="fill:#2ca02c;stroke:#ffffff;stroke-width:0.75;" x="197.749591" xlink:href="#ma18fe414fd" y="253.19126"/>
     <use style="fill:#2ca02c;stroke:#ffffff;stroke-width:0.75;" x="200.364399" xlink:href="#ma18fe414fd" y="251.448085"/>
     <use style="fill:#2ca02c;stroke:#ffffff;stroke-width:0.75;" x="202.979207" xlink:href="#ma18fe414fd" y="251.753501"/>
     <use style="fill:#2ca02c;stroke:#ffffff;stroke-width:0.75;" x="205.594015" xlink:href="#ma18fe414fd" y="252.038878"/>
     <use style="fill:#2ca02c;stroke:#ffffff;stroke-width:0.75;" x="208.208823" xlink:href="#ma18fe414fd" y="252.29159"/>
     <use style="fill:#2ca02c;stroke:#ffffff;stroke-width:0.75;" x="210.823631" xlink:href="#ma18fe414fd" y="252.501975"/>
     <use style="fill:#2ca02c;stroke:#ffffff;stroke-width:0.75;" x="213.438439" xlink:href="#ma18fe414fd" y="252.770379"/>
     <use style="fill:#2ca02c;stroke:#ffffff;stroke-width:0.75;" x="216.053247" xlink:href="#ma18fe414fd" y="252.998948"/>
     <use style="fill:#2ca02c;stroke:#ffffff;stroke-width:0.75;" x="218.668054" xlink:href="#ma18fe414fd" y="253.208929"/>
     <use style="fill:#2ca02c;stroke:#ffffff;stroke-width:0.75;" x="221.282862" xlink:href="#ma18fe414fd" y="253.265424"/>
     <use style="fill:#2ca02c;stroke:#ffffff;stroke-width:0.75;" x="223.89767" xlink:href="#ma18fe414fd" y="253.512192"/>
     <use style="fill:#2ca02c;stroke:#ffffff;stroke-width:0.75;" x="226.512478" xlink:href="#ma18fe414fd" y="253.744953"/>
     <use style="fill:#2ca02c;stroke:#ffffff;stroke-width:0.75;" x="229.127286" xlink:href="#ma18fe414fd" y="252.943124"/>
     <use style="fill:#2ca02c;stroke:#ffffff;stroke-width:0.75;" x="231.742094" xlink:href="#ma18fe414fd" y="253.116519"/>
     <use style="fill:#2ca02c;stroke:#ffffff;stroke-width:0.75;" x="234.356902" xlink:href="#ma18fe414fd" y="253.329541"/>
     <use style="fill:#2ca02c;stroke:#ffffff;stroke-width:0.75;" x="236.97171" xlink:href="#ma18fe414fd" y="253.504389"/>
     <use style="fill:#2ca02c;stroke:#ffffff;stroke-width:0.75;" x="239.586517" xlink:href="#ma18fe414fd" y="253.631346"/>
     <use style="fill:#2ca02c;stroke:#ffffff;stroke-width:0.75;" x="242.201325" xlink:href="#ma18fe414fd" y="253.692182"/>
     <use style="fill:#2ca02c;stroke:#ffffff;stroke-width:0.75;" x="244.816133" xlink:href="#ma18fe414fd" y="253.891772"/>
     <use style="fill:#2ca02c;stroke:#ffffff;stroke-width:0.75;" x="247.430941" xlink:href="#ma18fe414fd" y="254.099458"/>
     <use style="fill:#2ca02c;stroke:#ffffff;stroke-width:0.75;" x="250.045749" xlink:href="#ma18fe414fd" y="254.281062"/>
     <use style="fill:#2ca02c;stroke:#ffffff;stroke-width:0.75;" x="252.660557" xlink:href="#ma18fe414fd" y="254.423326"/>
     <use style="fill:#2ca02c;stroke:#ffffff;stroke-width:0.75;" x="255.275365" xlink:href="#ma18fe414fd" y="254.615558"/>
     <use style="fill:#2ca02c;stroke:#ffffff;stroke-width:0.75;" x="257.890173" xlink:href="#ma18fe414fd" y="253.093132"/>
     <use style="fill:#2ca02c;stroke:#ffffff;stroke-width:0.75;" x="260.50498" xlink:href="#ma18fe414fd" y="252.881761"/>
     <use style="fill:#2ca02c;stroke:#ffffff;stroke-width:0.75;" x="263.119788" xlink:href="#ma18fe414fd" y="253.074891"/>
     <use style="fill:#2ca02c;stroke:#ffffff;stroke-width:0.75;" x="265.734596" xlink:href="#ma18fe414fd" y="253.248877"/>
     <use style="fill:#2ca02c;stroke:#ffffff;stroke-width:0.75;" x="268.349404" xlink:href="#ma18fe414fd" y="253.412313"/>
     <use style="fill:#2ca02c;stroke:#ffffff;stroke-width:0.75;" x="270.964212" xlink:href="#ma18fe414fd" y="253.604122"/>
     <use style="fill:#2ca02c;stroke:#ffffff;stroke-width:0.75;" x="273.57902" xlink:href="#ma18fe414fd" y="252.455839"/>
     <use style="fill:#2ca02c;stroke:#ffffff;stroke-width:0.75;" x="276.193828" xlink:href="#ma18fe414fd" y="252.625659"/>
     <use style="fill:#2ca02c;stroke:#ffffff;stroke-width:0.75;" x="278.808635" xlink:href="#ma18fe414fd" y="252.721787"/>
     <use style="fill:#2ca02c;stroke:#ffffff;stroke-width:0.75;" x="281.423443" xlink:href="#ma18fe414fd" y="252.462806"/>
     <use style="fill:#2ca02c;stroke:#ffffff;stroke-width:0.75;" x="284.038251" xlink:href="#ma18fe414fd" y="252.605488"/>
     <use style="fill:#2ca02c;stroke:#ffffff;stroke-width:0.75;" x="286.653059" xlink:href="#ma18fe414fd" y="252.721579"/>
     <use style="fill:#2ca02c;stroke:#ffffff;stroke-width:0.75;" x="289.267867" xlink:href="#ma18fe414fd" y="252.899999"/>
     <use style="fill:#2ca02c;stroke:#ffffff;stroke-width:0.75;" x="291.882675" xlink:href="#ma18fe414fd" y="252.97601"/>
     <use style="fill:#2ca02c;stroke:#ffffff;stroke-width:0.75;" x="294.497483" xlink:href="#ma18fe414fd" y="253.109026"/>
     <use style="fill:#2ca02c;stroke:#ffffff;stroke-width:0.75;" x="297.112291" xlink:href="#ma18fe414fd" y="253.173686"/>
     <use style="fill:#2ca02c;stroke:#ffffff;stroke-width:0.75;" x="299.727098" xlink:href="#ma18fe414fd" y="253.341363"/>
     <use style="fill:#2ca02c;stroke:#ffffff;stroke-width:0.75;" x="302.341906" xlink:href="#ma18fe414fd" y="253.339792"/>
     <use style="fill:#2ca02c;stroke:#ffffff;stroke-width:0.75;" x="304.956714" xlink:href="#ma18fe414fd" y="253.439131"/>
     <use style="fill:#2ca02c;stroke:#ffffff;stroke-width:0.75;" x="307.571522" xlink:href="#ma18fe414fd" y="253.585222"/>
     <use style="fill:#2ca02c;stroke:#ffffff;stroke-width:0.75;" x="310.18633" xlink:href="#ma18fe414fd" y="253.745983"/>
     <use style="fill:#2ca02c;stroke:#ffffff;stroke-width:0.75;" x="312.801138" xlink:href="#ma18fe414fd" y="253.634102"/>
     <use style="fill:#2ca02c;stroke:#ffffff;stroke-width:0.75;" x="315.415946" xlink:href="#ma18fe414fd" y="253.621118"/>
     <use style="fill:#2ca02c;stroke:#ffffff;stroke-width:0.75;" x="318.030754" xlink:href="#ma18fe414fd" y="253.646122"/>
     <use style="fill:#2ca02c;stroke:#ffffff;stroke-width:0.75;" x="320.645561" xlink:href="#ma18fe414fd" y="253.711117"/>
     <use style="fill:#2ca02c;stroke:#ffffff;stroke-width:0.75;" x="323.260369" xlink:href="#ma18fe414fd" y="253.828036"/>
    </g>
   </g>
   <g id="line2d_13"/>
   <g id="line2d_14"/>
   <g id="line2d_15"/>
   <g id="line2d_16"/>
   <g id="patch_3">
    <path d="M 56.942187 279 
L 335.942188 279 
" style="fill:none;stroke:#cccccc;stroke-linecap:square;stroke-linejoin:miter;stroke-width:0.8;"/>
   </g>
   <g id="legend_1">
    <g id="patch_4">
     <path d="M 216.582031 104.423438 
L 325.442187 104.423438 
Q 328.442187 104.423438 328.442187 101.423438 
L 328.442187 17.7 
Q 328.442187 14.7 325.442187 14.7 
L 216.582031 14.7 
Q 213.582031 14.7 213.582031 17.7 
L 213.582031 101.423438 
Q 213.582031 104.423438 216.582031 104.423438 
z
" style="fill:#ffffff;opacity:0.8;stroke:#cccccc;stroke-linejoin:miter;"/>
    </g>
    <g id="text_18">
     <!-- Method -->
     <defs>
      <path d="M 7.421875 0 
L 7.421875 71.578125 
L 21.6875 71.578125 
L 38.625 20.90625 
Q 40.96875 13.8125 42.046875 10.296875 
Q 43.265625 14.203125 45.84375 21.78125 
L 62.984375 71.578125 
L 75.734375 71.578125 
L 75.734375 0 
L 66.609375 0 
L 66.609375 59.90625 
L 45.796875 0 
L 37.25 0 
L 16.546875 60.9375 
L 16.546875 0 
z
" id="ArialMT-77"/>
      <path d="M 25.78125 7.859375 
L 27.046875 0.09375 
Q 23.34375 -0.6875 20.40625 -0.6875 
Q 15.625 -0.6875 12.984375 0.828125 
Q 10.359375 2.34375 9.28125 4.8125 
Q 8.203125 7.28125 8.203125 15.1875 
L 8.203125 45.015625 
L 1.765625 45.015625 
L 1.765625 51.859375 
L 8.203125 51.859375 
L 8.203125 64.703125 
L 16.9375 69.96875 
L 16.9375 51.859375 
L 25.78125 51.859375 
L 25.78125 45.015625 
L 16.9375 45.015625 
L 16.9375 14.703125 
Q 16.9375 10.9375 17.40625 9.859375 
Q 17.875 8.796875 18.921875 8.15625 
Q 19.96875 7.515625 21.921875 7.515625 
Q 23.390625 7.515625 25.78125 7.859375 
z
" id="ArialMT-116"/>
      <path d="M 6.59375 0 
L 6.59375 71.578125 
L 15.375 71.578125 
L 15.375 45.90625 
Q 21.53125 53.03125 30.90625 53.03125 
Q 36.671875 53.03125 40.921875 50.75 
Q 45.171875 48.484375 47 44.484375 
Q 48.828125 40.484375 48.828125 32.859375 
L 48.828125 0 
L 40.046875 0 
L 40.046875 32.859375 
Q 40.046875 39.453125 37.1875 42.453125 
Q 34.328125 45.453125 29.109375 45.453125 
Q 25.203125 45.453125 21.75 43.421875 
Q 18.3125 41.40625 16.84375 37.9375 
Q 15.375 34.46875 15.375 28.375 
L 15.375 0 
z
" id="ArialMT-104"/>
      <path d="M 3.328125 25.921875 
Q 3.328125 40.328125 11.328125 47.265625 
Q 18.015625 53.03125 27.640625 53.03125 
Q 38.328125 53.03125 45.109375 46.015625 
Q 51.90625 39.015625 51.90625 26.65625 
Q 51.90625 16.65625 48.90625 10.90625 
Q 45.90625 5.171875 40.15625 2 
Q 34.421875 -1.171875 27.640625 -1.171875 
Q 16.75 -1.171875 10.03125 5.8125 
Q 3.328125 12.796875 3.328125 25.921875 
z
M 12.359375 25.921875 
Q 12.359375 15.96875 16.703125 11.015625 
Q 21.046875 6.0625 27.640625 6.0625 
Q 34.1875 6.0625 38.53125 11.03125 
Q 42.875 16.015625 42.875 26.21875 
Q 42.875 35.84375 38.5 40.796875 
Q 34.125 45.75 27.640625 45.75 
Q 21.046875 45.75 16.703125 40.8125 
Q 12.359375 35.890625 12.359375 25.921875 
z
" id="ArialMT-111"/>
     </defs>
     <g style="fill:#262626;" transform="translate(245.998437 31.436719)scale(0.15 -0.15)">
      <use xlink:href="#ArialMT-77"/>
      <use x="83.300781" xlink:href="#ArialMT-101"/>
      <use x="138.916016" xlink:href="#ArialMT-116"/>
      <use x="166.699219" xlink:href="#ArialMT-104"/>
      <use x="222.314453" xlink:href="#ArialMT-111"/>
      <use x="277.929688" xlink:href="#ArialMT-100"/>
     </g>
    </g>
    <g id="line2d_17">
     <path d="M 219.582031 47.404688 
L 249.582031 47.404688 
" style="fill:none;stroke:#1f77b4;stroke-linecap:round;stroke-width:1.5;"/>
    </g>
    <g id="line2d_18">
     <g>
      <use style="fill:#1f77b4;stroke:#ffffff;stroke-width:0.75;" x="234.582031" xlink:href="#m5c2cc7317f" y="47.404688"/>
     </g>
    </g>
    <g id="text_19">
     <!-- single -->
     <defs>
      <path d="M 3.078125 15.484375 
L 11.765625 16.84375 
Q 12.5 11.625 15.84375 8.84375 
Q 19.1875 6.0625 25.203125 6.0625 
Q 31.25 6.0625 34.171875 8.515625 
Q 37.109375 10.984375 37.109375 14.3125 
Q 37.109375 17.28125 34.515625 19 
Q 32.71875 20.171875 25.53125 21.96875 
Q 15.875 24.421875 12.140625 26.203125 
Q 8.40625 27.984375 6.46875 31.125 
Q 4.546875 34.28125 4.546875 38.09375 
Q 4.546875 41.546875 6.125 44.5 
Q 7.71875 47.46875 10.453125 49.421875 
Q 12.5 50.921875 16.03125 51.96875 
Q 19.578125 53.03125 23.640625 53.03125 
Q 29.734375 53.03125 34.34375 51.265625 
Q 38.96875 49.515625 41.15625 46.5 
Q 43.359375 43.5 44.1875 38.484375 
L 35.59375 37.3125 
Q 35.015625 41.3125 32.203125 43.546875 
Q 29.390625 45.796875 24.265625 45.796875 
Q 18.21875 45.796875 15.625 43.796875 
Q 13.03125 41.796875 13.03125 39.109375 
Q 13.03125 37.40625 14.109375 36.03125 
Q 15.1875 34.625 17.484375 33.6875 
Q 18.796875 33.203125 25.25 31.453125 
Q 34.578125 28.953125 38.25 27.359375 
Q 41.9375 25.78125 44.03125 22.75 
Q 46.140625 19.734375 46.140625 15.234375 
Q 46.140625 10.84375 43.578125 6.953125 
Q 41.015625 3.078125 36.171875 0.953125 
Q 31.34375 -1.171875 25.25 -1.171875 
Q 15.140625 -1.171875 9.84375 3.03125 
Q 4.546875 7.234375 3.078125 15.484375 
z
" id="ArialMT-115"/>
      <path d="M 6.640625 61.46875 
L 6.640625 71.578125 
L 15.4375 71.578125 
L 15.4375 61.46875 
z
M 6.640625 0 
L 6.640625 51.859375 
L 15.4375 51.859375 
L 15.4375 0 
z
" id="ArialMT-105"/>
      <path d="M 4.984375 -4.296875 
L 13.53125 -5.5625 
Q 14.0625 -9.515625 16.5 -11.328125 
Q 19.78125 -13.765625 25.4375 -13.765625 
Q 31.546875 -13.765625 34.859375 -11.328125 
Q 38.1875 -8.890625 39.359375 -4.5 
Q 40.046875 -1.8125 39.984375 6.78125 
Q 34.234375 0 25.640625 0 
Q 14.9375 0 9.078125 7.71875 
Q 3.21875 15.4375 3.21875 26.21875 
Q 3.21875 33.640625 5.90625 39.90625 
Q 8.59375 46.1875 13.6875 49.609375 
Q 18.796875 53.03125 25.6875 53.03125 
Q 34.859375 53.03125 40.828125 45.609375 
L 40.828125 51.859375 
L 48.921875 51.859375 
L 48.921875 7.03125 
Q 48.921875 -5.078125 46.453125 -10.125 
Q 44 -15.1875 38.640625 -18.109375 
Q 33.296875 -21.046875 25.484375 -21.046875 
Q 16.21875 -21.046875 10.5 -16.875 
Q 4.78125 -12.703125 4.984375 -4.296875 
z
M 12.25 26.859375 
Q 12.25 16.65625 16.296875 11.96875 
Q 20.359375 7.28125 26.46875 7.28125 
Q 32.515625 7.28125 36.609375 11.9375 
Q 40.71875 16.609375 40.71875 26.5625 
Q 40.71875 36.078125 36.5 40.90625 
Q 32.28125 45.75 26.3125 45.75 
Q 20.453125 45.75 16.34375 40.984375 
Q 12.25 36.234375 12.25 26.859375 
z
" id="ArialMT-103"/>
      <path d="M 6.390625 0 
L 6.390625 71.578125 
L 15.1875 71.578125 
L 15.1875 0 
z
" id="ArialMT-108"/>
     </defs>
     <g style="fill:#262626;" transform="translate(261.582031 52.654688)scale(0.15 -0.15)">
      <use xlink:href="#ArialMT-115"/>
      <use x="50" xlink:href="#ArialMT-105"/>
      <use x="72.216797" xlink:href="#ArialMT-110"/>
      <use x="127.832031" xlink:href="#ArialMT-103"/>
      <use x="183.447266" xlink:href="#ArialMT-108"/>
      <use x="205.664062" xlink:href="#ArialMT-101"/>
     </g>
    </g>
    <g id="line2d_19">
     <path d="M 219.582031 68.798438 
L 249.582031 68.798438 
" style="fill:none;stroke:#ff7f0e;stroke-linecap:round;stroke-width:1.5;"/>
    </g>
    <g id="line2d_20">
     <g>
      <use style="fill:#ff7f0e;stroke:#ffffff;stroke-width:0.75;" x="234.582031" xlink:href="#m7dcf365672" y="68.798438"/>
     </g>
    </g>
    <g id="text_20">
     <!-- complete -->
     <defs>
      <path d="M 40.4375 19 
L 49.078125 17.875 
Q 47.65625 8.9375 41.8125 3.875 
Q 35.984375 -1.171875 27.484375 -1.171875 
Q 16.84375 -1.171875 10.375 5.78125 
Q 3.90625 12.75 3.90625 25.734375 
Q 3.90625 34.125 6.6875 40.421875 
Q 9.46875 46.734375 15.15625 49.875 
Q 20.84375 53.03125 27.546875 53.03125 
Q 35.984375 53.03125 41.359375 48.75 
Q 46.734375 44.484375 48.25 36.625 
L 39.703125 35.296875 
Q 38.484375 40.53125 35.375 43.15625 
Q 32.28125 45.796875 27.875 45.796875 
Q 21.234375 45.796875 17.078125 41.03125 
Q 12.9375 36.28125 12.9375 25.984375 
Q 12.9375 15.53125 16.9375 10.796875 
Q 20.953125 6.0625 27.390625 6.0625 
Q 32.5625 6.0625 36.03125 9.234375 
Q 39.5 12.40625 40.4375 19 
z
" id="ArialMT-99"/>
      <path d="M 6.59375 0 
L 6.59375 51.859375 
L 14.453125 51.859375 
L 14.453125 44.578125 
Q 16.890625 48.390625 20.9375 50.703125 
Q 25 53.03125 30.171875 53.03125 
Q 35.9375 53.03125 39.625 50.640625 
Q 43.3125 48.25 44.828125 43.953125 
Q 50.984375 53.03125 60.84375 53.03125 
Q 68.5625 53.03125 72.703125 48.75 
Q 76.859375 44.484375 76.859375 35.59375 
L 76.859375 0 
L 68.109375 0 
L 68.109375 32.671875 
Q 68.109375 37.9375 67.25 40.25 
Q 66.40625 42.578125 64.15625 43.984375 
Q 61.921875 45.40625 58.890625 45.40625 
Q 53.421875 45.40625 49.796875 41.765625 
Q 46.1875 38.140625 46.1875 30.125 
L 46.1875 0 
L 37.40625 0 
L 37.40625 33.6875 
Q 37.40625 39.546875 35.25 42.46875 
Q 33.109375 45.40625 28.21875 45.40625 
Q 24.515625 45.40625 21.359375 43.453125 
Q 18.21875 41.5 16.796875 37.734375 
Q 15.375 33.984375 15.375 26.90625 
L 15.375 0 
z
" id="ArialMT-109"/>
      <path d="M 6.59375 -19.875 
L 6.59375 51.859375 
L 14.59375 51.859375 
L 14.59375 45.125 
Q 17.4375 49.078125 21 51.046875 
Q 24.5625 53.03125 29.640625 53.03125 
Q 36.28125 53.03125 41.359375 49.609375 
Q 46.4375 46.1875 49.015625 39.953125 
Q 51.609375 33.734375 51.609375 26.3125 
Q 51.609375 18.359375 48.75 11.984375 
Q 45.90625 5.609375 40.453125 2.21875 
Q 35.015625 -1.171875 29 -1.171875 
Q 24.609375 -1.171875 21.109375 0.6875 
Q 17.625 2.546875 15.375 5.375 
L 15.375 -19.875 
z
M 14.546875 25.640625 
Q 14.546875 15.625 18.59375 10.84375 
Q 22.65625 6.0625 28.421875 6.0625 
Q 34.28125 6.0625 38.453125 11.015625 
Q 42.625 15.96875 42.625 26.375 
Q 42.625 36.28125 38.546875 41.203125 
Q 34.46875 46.140625 28.8125 46.140625 
Q 23.1875 46.140625 18.859375 40.890625 
Q 14.546875 35.640625 14.546875 25.640625 
z
" id="ArialMT-112"/>
     </defs>
     <g style="fill:#262626;" transform="translate(261.582031 74.048438)scale(0.15 -0.15)">
      <use xlink:href="#ArialMT-99"/>
      <use x="50" xlink:href="#ArialMT-111"/>
      <use x="105.615234" xlink:href="#ArialMT-109"/>
      <use x="188.916016" xlink:href="#ArialMT-112"/>
      <use x="244.53125" xlink:href="#ArialMT-108"/>
      <use x="266.748047" xlink:href="#ArialMT-101"/>
      <use x="322.363281" xlink:href="#ArialMT-116"/>
      <use x="350.146484" xlink:href="#ArialMT-101"/>
     </g>
    </g>
    <g id="line2d_21">
     <path d="M 219.582031 90.016406 
L 249.582031 90.016406 
" style="fill:none;stroke:#2ca02c;stroke-linecap:round;stroke-width:1.5;"/>
    </g>
    <g id="line2d_22">
     <g>
      <use style="fill:#2ca02c;stroke:#ffffff;stroke-width:0.75;" x="234.582031" xlink:href="#ma18fe414fd" y="90.016406"/>
     </g>
    </g>
    <g id="text_21">
     <!-- weighted -->
     <defs>
      <path d="M 16.15625 0 
L 0.296875 51.859375 
L 9.375 51.859375 
L 17.625 21.921875 
L 20.703125 10.796875 
Q 20.90625 11.625 23.390625 21.484375 
L 31.640625 51.859375 
L 40.671875 51.859375 
L 48.4375 21.78125 
L 51.03125 11.859375 
L 54 21.875 
L 62.890625 51.859375 
L 71.4375 51.859375 
L 55.21875 0 
L 46.09375 0 
L 37.84375 31.0625 
L 35.84375 39.890625 
L 25.34375 0 
z
" id="ArialMT-119"/>
     </defs>
     <g style="fill:#262626;" transform="translate(261.582031 95.266406)scale(0.15 -0.15)">
      <use xlink:href="#ArialMT-119"/>
      <use x="72.216797" xlink:href="#ArialMT-101"/>
      <use x="127.832031" xlink:href="#ArialMT-105"/>
      <use x="150.048828" xlink:href="#ArialMT-103"/>
      <use x="205.664062" xlink:href="#ArialMT-104"/>
      <use x="261.279297" xlink:href="#ArialMT-116"/>
      <use x="289.0625" xlink:href="#ArialMT-101"/>
      <use x="344.677734" xlink:href="#ArialMT-100"/>
     </g>
    </g>
   </g>
  </g>
 </g>
 <defs>
  <clipPath id="p167597e275">
   <rect height="271.8" width="279" x="56.942188" y="7.2"/>
  </clipPath>
 </defs>
</svg>
