<?xml version="1.0" encoding="utf-8" standalone="no"?>
<!DOCTYPE svg PUBLIC "-//W3C//DTD SVG 1.1//EN"
  "http://www.w3.org/Graphics/SVG/1.1/DTD/svg11.dtd">
<!-- Created with matplotlib (https://matplotlib.org/) -->
<svg height="324.635938pt" version="1.1" viewBox="0 0 353.928693 324.635938" width="353.928693pt" xmlns="http://www.w3.org/2000/svg" xmlns:xlink="http://www.w3.org/1999/xlink">
 <defs>
  <style type="text/css">
*{stroke-linecap:butt;stroke-linejoin:round;}
  </style>
 </defs>
 <g id="figure_1">
  <g id="patch_1">
   <path d="M 0 324.635938 
L 353.928693 324.635938 
L 353.928693 0 
L 0 0 
z
" style="fill:#ffffff;"/>
  </g>
  <g id="axes_1">
   <g id="patch_2">
    <path d="M 65.283594 279 
L 344.283594 279 
L 344.283594 7.2 
L 65.283594 7.2 
z
" style="fill:#ffffff;"/>
   </g>
   <g id="matplotlib.axis_1">
    <g id="xtick_1">
     <g id="text_1">
      <!-- 0 -->
      <defs>
       <path d="M 4.15625 35.296875 
Q 4.15625 48 6.765625 55.734375 
Q 9.375 63.484375 14.515625 67.671875 
Q 19.671875 71.875 27.484375 71.875 
Q 33.25 71.875 37.59375 69.546875 
Q 41.9375 67.234375 44.765625 62.859375 
Q 47.609375 58.5 49.21875 52.21875 
Q 50.828125 45.953125 50.828125 35.296875 
Q 50.828125 22.703125 48.234375 14.96875 
Q 45.65625 7.234375 40.5 3 
Q 35.359375 -1.21875 27.484375 -1.21875 
Q 17.140625 -1.21875 11.234375 6.203125 
Q 4.15625 15.140625 4.15625 35.296875 
z
M 13.1875 35.296875 
Q 13.1875 17.671875 17.3125 11.828125 
Q 21.4375 6 27.484375 6 
Q 33.546875 6 37.671875 11.859375 
Q 41.796875 17.71875 41.796875 35.296875 
Q 41.796875 52.984375 37.671875 58.78125 
Q 33.546875 64.59375 27.390625 64.59375 
Q 21.34375 64.59375 17.71875 59.46875 
Q 13.1875 52.9375 13.1875 35.296875 
z
" id="ArialMT-48"/>
      </defs>
      <g style="fill:#262626;" transform="translate(68.565093 296.736719)scale(0.15 -0.15)">
       <use xlink:href="#ArialMT-48"/>
      </g>
     </g>
    </g>
    <g id="xtick_2">
     <g id="text_2">
      <!-- 20 -->
      <defs>
       <path d="M 50.34375 8.453125 
L 50.34375 0 
L 3.03125 0 
Q 2.9375 3.171875 4.046875 6.109375 
Q 5.859375 10.9375 9.828125 15.625 
Q 13.8125 20.3125 21.34375 26.46875 
Q 33.015625 36.03125 37.109375 41.625 
Q 41.21875 47.21875 41.21875 52.203125 
Q 41.21875 57.421875 37.46875 61 
Q 33.734375 64.59375 27.734375 64.59375 
Q 21.390625 64.59375 17.578125 60.78125 
Q 13.765625 56.984375 13.71875 50.25 
L 4.6875 51.171875 
Q 5.609375 61.28125 11.65625 66.578125 
Q 17.71875 71.875 27.9375 71.875 
Q 38.234375 71.875 44.234375 66.15625 
Q 50.25 60.453125 50.25 52 
Q 50.25 47.703125 48.484375 43.546875 
Q 46.734375 39.40625 42.65625 34.8125 
Q 38.578125 30.21875 29.109375 22.21875 
Q 21.1875 15.578125 18.9375 13.203125 
Q 16.703125 10.84375 15.234375 8.453125 
z
" id="ArialMT-50"/>
      </defs>
      <g style="fill:#262626;" transform="translate(116.690547 296.736719)scale(0.15 -0.15)">
       <use xlink:href="#ArialMT-50"/>
       <use x="55.615234" xlink:href="#ArialMT-48"/>
      </g>
     </g>
    </g>
    <g id="xtick_3">
     <g id="text_3">
      <!-- 40 -->
      <defs>
       <path d="M 32.328125 0 
L 32.328125 17.140625 
L 1.265625 17.140625 
L 1.265625 25.203125 
L 33.9375 71.578125 
L 41.109375 71.578125 
L 41.109375 25.203125 
L 50.78125 25.203125 
L 50.78125 17.140625 
L 41.109375 17.140625 
L 41.109375 0 
z
M 32.328125 25.203125 
L 32.328125 57.46875 
L 9.90625 25.203125 
z
" id="ArialMT-52"/>
      </defs>
      <g style="fill:#262626;" transform="translate(168.986705 296.736719)scale(0.15 -0.15)">
       <use xlink:href="#ArialMT-52"/>
       <use x="55.615234" xlink:href="#ArialMT-48"/>
      </g>
     </g>
    </g>
    <g id="xtick_4">
     <g id="text_4">
      <!-- 60 -->
      <defs>
       <path d="M 49.75 54.046875 
L 41.015625 53.375 
Q 39.84375 58.546875 37.703125 60.890625 
Q 34.125 64.65625 28.90625 64.65625 
Q 24.703125 64.65625 21.53125 62.3125 
Q 17.390625 59.28125 14.984375 53.46875 
Q 12.59375 47.65625 12.5 36.921875 
Q 15.671875 41.75 20.265625 44.09375 
Q 24.859375 46.4375 29.890625 46.4375 
Q 38.671875 46.4375 44.84375 39.96875 
Q 51.03125 33.5 51.03125 23.25 
Q 51.03125 16.5 48.125 10.71875 
Q 45.21875 4.9375 40.140625 1.859375 
Q 35.0625 -1.21875 28.609375 -1.21875 
Q 17.625 -1.21875 10.6875 6.859375 
Q 3.765625 14.9375 3.765625 33.5 
Q 3.765625 54.25 11.421875 63.671875 
Q 18.109375 71.875 29.4375 71.875 
Q 37.890625 71.875 43.28125 67.140625 
Q 48.6875 62.40625 49.75 54.046875 
z
M 13.875 23.1875 
Q 13.875 18.65625 15.796875 14.5 
Q 17.71875 10.359375 21.1875 8.171875 
Q 24.65625 6 28.46875 6 
Q 34.03125 6 38.03125 10.484375 
Q 42.046875 14.984375 42.046875 22.703125 
Q 42.046875 30.125 38.078125 34.390625 
Q 34.125 38.671875 28.125 38.671875 
Q 22.171875 38.671875 18.015625 34.390625 
Q 13.875 30.125 13.875 23.1875 
z
" id="ArialMT-54"/>
      </defs>
      <g style="fill:#262626;" transform="translate(221.282862 296.736719)scale(0.15 -0.15)">
       <use xlink:href="#ArialMT-54"/>
       <use x="55.615234" xlink:href="#ArialMT-48"/>
      </g>
     </g>
    </g>
    <g id="xtick_5">
     <g id="text_5">
      <!-- 80 -->
      <defs>
       <path d="M 17.671875 38.8125 
Q 12.203125 40.828125 9.5625 44.53125 
Q 6.9375 48.25 6.9375 53.421875 
Q 6.9375 61.234375 12.546875 66.546875 
Q 18.171875 71.875 27.484375 71.875 
Q 36.859375 71.875 42.578125 66.421875 
Q 48.296875 60.984375 48.296875 53.171875 
Q 48.296875 48.1875 45.671875 44.5 
Q 43.0625 40.828125 37.75 38.8125 
Q 44.34375 36.671875 47.78125 31.875 
Q 51.21875 27.09375 51.21875 20.453125 
Q 51.21875 11.28125 44.71875 5.03125 
Q 38.234375 -1.21875 27.640625 -1.21875 
Q 17.046875 -1.21875 10.546875 5.046875 
Q 4.046875 11.328125 4.046875 20.703125 
Q 4.046875 27.6875 7.59375 32.390625 
Q 11.140625 37.109375 17.671875 38.8125 
z
M 15.921875 53.71875 
Q 15.921875 48.640625 19.1875 45.40625 
Q 22.46875 42.1875 27.6875 42.1875 
Q 32.765625 42.1875 36.015625 45.375 
Q 39.265625 48.578125 39.265625 53.21875 
Q 39.265625 58.0625 35.90625 61.359375 
Q 32.5625 64.65625 27.59375 64.65625 
Q 22.5625 64.65625 19.234375 61.421875 
Q 15.921875 58.203125 15.921875 53.71875 
z
M 13.09375 20.65625 
Q 13.09375 16.890625 14.875 13.375 
Q 16.65625 9.859375 20.171875 7.921875 
Q 23.6875 6 27.734375 6 
Q 34.03125 6 38.125 10.046875 
Q 42.234375 14.109375 42.234375 20.359375 
Q 42.234375 26.703125 38.015625 30.859375 
Q 33.796875 35.015625 27.4375 35.015625 
Q 21.234375 35.015625 17.15625 30.90625 
Q 13.09375 26.8125 13.09375 20.65625 
z
" id="ArialMT-56"/>
      </defs>
      <g style="fill:#262626;" transform="translate(273.57902 296.736719)scale(0.15 -0.15)">
       <use xlink:href="#ArialMT-56"/>
       <use x="55.615234" xlink:href="#ArialMT-48"/>
      </g>
     </g>
    </g>
    <g id="xtick_6">
     <g id="text_6">
      <!-- 100 -->
      <defs>
       <path d="M 37.25 0 
L 28.46875 0 
L 28.46875 56 
Q 25.296875 52.984375 20.140625 49.953125 
Q 14.984375 46.921875 10.890625 45.40625 
L 10.890625 53.90625 
Q 18.265625 57.375 23.78125 62.296875 
Q 29.296875 67.234375 31.59375 71.875 
L 37.25 71.875 
z
" id="ArialMT-49"/>
      </defs>
      <g style="fill:#262626;" transform="translate(321.704474 296.736719)scale(0.15 -0.15)">
       <use xlink:href="#ArialMT-49"/>
       <use x="55.615234" xlink:href="#ArialMT-48"/>
       <use x="111.230469" xlink:href="#ArialMT-48"/>
      </g>
     </g>
    </g>
    <g id="text_7">
     <!-- k -->
     <defs>
      <path d="M 6.640625 0 
L 6.640625 71.578125 
L 15.4375 71.578125 
L 15.4375 30.765625 
L 36.234375 51.859375 
L 47.609375 51.859375 
L 27.78125 32.625 
L 49.609375 0 
L 38.765625 0 
L 21.625 26.515625 
L 15.4375 20.5625 
L 15.4375 0 
z
" id="ArialMT-107"/>
     </defs>
     <g style="fill:#262626;" transform="translate(201.033594 314.454688)scale(0.15 -0.15)">
      <use xlink:href="#ArialMT-107"/>
     </g>
    </g>
   </g>
   <g id="matplotlib.axis_2">
    <g id="ytick_1">
     <g id="line2d_1">
      <path clip-path="url(#pd6d60e42d0)" d="M 65.283594 251.291457 
L 344.283594 251.291457 
" style="fill:none;stroke:#cccccc;stroke-linecap:round;stroke-width:0.8;"/>
     </g>
     <g id="text_8">
      <!-- 400 -->
      <g style="fill:#262626;" transform="translate(33.259375 256.659816)scale(0.15 -0.15)">
       <use xlink:href="#ArialMT-52"/>
       <use x="55.615234" xlink:href="#ArialMT-48"/>
       <use x="111.230469" xlink:href="#ArialMT-48"/>
      </g>
     </g>
    </g>
    <g id="ytick_2">
     <g id="line2d_2">
      <path clip-path="url(#pd6d60e42d0)" d="M 65.283594 212.545861 
L 344.283594 212.545861 
" style="fill:none;stroke:#cccccc;stroke-linecap:round;stroke-width:0.8;"/>
     </g>
     <g id="text_9">
      <!-- 600 -->
      <g style="fill:#262626;" transform="translate(33.259375 217.91422)scale(0.15 -0.15)">
       <use xlink:href="#ArialMT-54"/>
       <use x="55.615234" xlink:href="#ArialMT-48"/>
       <use x="111.230469" xlink:href="#ArialMT-48"/>
      </g>
     </g>
    </g>
    <g id="ytick_3">
     <g id="line2d_3">
      <path clip-path="url(#pd6d60e42d0)" d="M 65.283594 173.800265 
L 344.283594 173.800265 
" style="fill:none;stroke:#cccccc;stroke-linecap:round;stroke-width:0.8;"/>
     </g>
     <g id="text_10">
      <!-- 800 -->
      <g style="fill:#262626;" transform="translate(33.259375 179.168624)scale(0.15 -0.15)">
       <use xlink:href="#ArialMT-56"/>
       <use x="55.615234" xlink:href="#ArialMT-48"/>
       <use x="111.230469" xlink:href="#ArialMT-48"/>
      </g>
     </g>
    </g>
    <g id="ytick_4">
     <g id="line2d_4">
      <path clip-path="url(#pd6d60e42d0)" d="M 65.283594 135.054669 
L 344.283594 135.054669 
" style="fill:none;stroke:#cccccc;stroke-linecap:round;stroke-width:0.8;"/>
     </g>
     <g id="text_11">
      <!-- 1000 -->
      <g style="fill:#262626;" transform="translate(24.917969 140.423029)scale(0.15 -0.15)">
       <use xlink:href="#ArialMT-49"/>
       <use x="55.615234" xlink:href="#ArialMT-48"/>
       <use x="111.230469" xlink:href="#ArialMT-48"/>
       <use x="166.845703" xlink:href="#ArialMT-48"/>
      </g>
     </g>
    </g>
    <g id="ytick_5">
     <g id="line2d_5">
      <path clip-path="url(#pd6d60e42d0)" d="M 65.283594 96.309073 
L 344.283594 96.309073 
" style="fill:none;stroke:#cccccc;stroke-linecap:round;stroke-width:0.8;"/>
     </g>
     <g id="text_12">
      <!-- 1200 -->
      <g style="fill:#262626;" transform="translate(24.917969 101.677433)scale(0.15 -0.15)">
       <use xlink:href="#ArialMT-49"/>
       <use x="55.615234" xlink:href="#ArialMT-50"/>
       <use x="111.230469" xlink:href="#ArialMT-48"/>
       <use x="166.845703" xlink:href="#ArialMT-48"/>
      </g>
     </g>
    </g>
    <g id="ytick_6">
     <g id="line2d_6">
      <path clip-path="url(#pd6d60e42d0)" d="M 65.283594 57.563478 
L 344.283594 57.563478 
" style="fill:none;stroke:#cccccc;stroke-linecap:round;stroke-width:0.8;"/>
     </g>
     <g id="text_13">
      <!-- 1400 -->
      <g style="fill:#262626;" transform="translate(24.917969 62.931837)scale(0.15 -0.15)">
       <use xlink:href="#ArialMT-49"/>
       <use x="55.615234" xlink:href="#ArialMT-52"/>
       <use x="111.230469" xlink:href="#ArialMT-48"/>
       <use x="166.845703" xlink:href="#ArialMT-48"/>
      </g>
     </g>
    </g>
    <g id="ytick_7">
     <g id="line2d_7">
      <path clip-path="url(#pd6d60e42d0)" d="M 65.283594 18.817882 
L 344.283594 18.817882 
" style="fill:none;stroke:#cccccc;stroke-linecap:round;stroke-width:0.8;"/>
     </g>
     <g id="text_14">
      <!-- 1600 -->
      <g style="fill:#262626;" transform="translate(24.917969 24.186241)scale(0.15 -0.15)">
       <use xlink:href="#ArialMT-49"/>
       <use x="55.615234" xlink:href="#ArialMT-54"/>
       <use x="111.230469" xlink:href="#ArialMT-48"/>
       <use x="166.845703" xlink:href="#ArialMT-48"/>
      </g>
     </g>
    </g>
    <g id="text_15">
     <!-- Between-Cluster Variation -->
     <defs>
      <path d="M 7.328125 0 
L 7.328125 71.578125 
L 34.1875 71.578125 
Q 42.390625 71.578125 47.34375 69.40625 
Q 52.296875 67.234375 55.09375 62.71875 
Q 57.90625 58.203125 57.90625 53.265625 
Q 57.90625 48.6875 55.421875 44.625 
Q 52.9375 40.578125 47.90625 38.09375 
Q 54.390625 36.1875 57.875 31.59375 
Q 61.375 27 61.375 20.75 
Q 61.375 15.71875 59.25 11.390625 
Q 57.125 7.078125 54 4.734375 
Q 50.875 2.390625 46.15625 1.1875 
Q 41.453125 0 34.625 0 
z
M 16.796875 41.5 
L 32.28125 41.5 
Q 38.578125 41.5 41.3125 42.328125 
Q 44.921875 43.40625 46.75 45.890625 
Q 48.578125 48.390625 48.578125 52.15625 
Q 48.578125 55.71875 46.875 58.421875 
Q 45.171875 61.140625 41.984375 62.140625 
Q 38.8125 63.140625 31.109375 63.140625 
L 16.796875 63.140625 
z
M 16.796875 8.453125 
L 34.625 8.453125 
Q 39.203125 8.453125 41.0625 8.796875 
Q 44.34375 9.375 46.53125 10.734375 
Q 48.734375 12.109375 50.140625 14.71875 
Q 51.5625 17.328125 51.5625 20.75 
Q 51.5625 24.75 49.515625 27.703125 
Q 47.46875 30.671875 43.828125 31.859375 
Q 40.1875 33.0625 33.34375 33.0625 
L 16.796875 33.0625 
z
" id="ArialMT-66"/>
      <path d="M 42.09375 16.703125 
L 51.171875 15.578125 
Q 49.03125 7.625 43.21875 3.21875 
Q 37.40625 -1.171875 28.375 -1.171875 
Q 17 -1.171875 10.328125 5.828125 
Q 3.65625 12.84375 3.65625 25.484375 
Q 3.65625 38.578125 10.390625 45.796875 
Q 17.140625 53.03125 27.875 53.03125 
Q 38.28125 53.03125 44.875 45.953125 
Q 51.46875 38.875 51.46875 26.03125 
Q 51.46875 25.25 51.421875 23.6875 
L 12.75 23.6875 
Q 13.234375 15.140625 17.578125 10.59375 
Q 21.921875 6.0625 28.421875 6.0625 
Q 33.25 6.0625 36.671875 8.59375 
Q 40.09375 11.140625 42.09375 16.703125 
z
M 13.234375 30.90625 
L 42.1875 30.90625 
Q 41.609375 37.453125 38.875 40.71875 
Q 34.671875 45.796875 27.984375 45.796875 
Q 21.921875 45.796875 17.796875 41.75 
Q 13.671875 37.703125 13.234375 30.90625 
z
" id="ArialMT-101"/>
      <path d="M 25.78125 7.859375 
L 27.046875 0.09375 
Q 23.34375 -0.6875 20.40625 -0.6875 
Q 15.625 -0.6875 12.984375 0.828125 
Q 10.359375 2.34375 9.28125 4.8125 
Q 8.203125 7.28125 8.203125 15.1875 
L 8.203125 45.015625 
L 1.765625 45.015625 
L 1.765625 51.859375 
L 8.203125 51.859375 
L 8.203125 64.703125 
L 16.9375 69.96875 
L 16.9375 51.859375 
L 25.78125 51.859375 
L 25.78125 45.015625 
L 16.9375 45.015625 
L 16.9375 14.703125 
Q 16.9375 10.9375 17.40625 9.859375 
Q 17.875 8.796875 18.921875 8.15625 
Q 19.96875 7.515625 21.921875 7.515625 
Q 23.390625 7.515625 25.78125 7.859375 
z
" id="ArialMT-116"/>
      <path d="M 16.15625 0 
L 0.296875 51.859375 
L 9.375 51.859375 
L 17.625 21.921875 
L 20.703125 10.796875 
Q 20.90625 11.625 23.390625 21.484375 
L 31.640625 51.859375 
L 40.671875 51.859375 
L 48.4375 21.78125 
L 51.03125 11.859375 
L 54 21.875 
L 62.890625 51.859375 
L 71.4375 51.859375 
L 55.21875 0 
L 46.09375 0 
L 37.84375 31.0625 
L 35.84375 39.890625 
L 25.34375 0 
z
" id="ArialMT-119"/>
      <path d="M 6.59375 0 
L 6.59375 51.859375 
L 14.5 51.859375 
L 14.5 44.484375 
Q 20.21875 53.03125 31 53.03125 
Q 35.6875 53.03125 39.625 51.34375 
Q 43.5625 49.65625 45.515625 46.921875 
Q 47.46875 44.1875 48.25 40.4375 
Q 48.734375 37.984375 48.734375 31.890625 
L 48.734375 0 
L 39.9375 0 
L 39.9375 31.546875 
Q 39.9375 36.921875 38.90625 39.578125 
Q 37.890625 42.234375 35.28125 43.8125 
Q 32.671875 45.40625 29.15625 45.40625 
Q 23.53125 45.40625 19.453125 41.84375 
Q 15.375 38.28125 15.375 28.328125 
L 15.375 0 
z
" id="ArialMT-110"/>
      <path d="M 3.171875 21.484375 
L 3.171875 30.328125 
L 30.171875 30.328125 
L 30.171875 21.484375 
z
" id="ArialMT-45"/>
      <path d="M 58.796875 25.09375 
L 68.265625 22.703125 
Q 65.28125 11.03125 57.546875 4.90625 
Q 49.8125 -1.21875 38.625 -1.21875 
Q 27.046875 -1.21875 19.796875 3.484375 
Q 12.546875 8.203125 8.765625 17.140625 
Q 4.984375 26.078125 4.984375 36.328125 
Q 4.984375 47.515625 9.25 55.828125 
Q 13.53125 64.15625 21.40625 68.46875 
Q 29.296875 72.796875 38.765625 72.796875 
Q 49.515625 72.796875 56.828125 67.328125 
Q 64.15625 61.859375 67.046875 51.953125 
L 57.71875 49.75 
Q 55.21875 57.5625 50.484375 61.125 
Q 45.75 64.703125 38.578125 64.703125 
Q 30.328125 64.703125 24.78125 60.734375 
Q 19.234375 56.78125 16.984375 50.109375 
Q 14.75 43.453125 14.75 36.375 
Q 14.75 27.25 17.40625 20.4375 
Q 20.0625 13.625 25.671875 10.25 
Q 31.296875 6.890625 37.84375 6.890625 
Q 45.796875 6.890625 51.3125 11.46875 
Q 56.84375 16.0625 58.796875 25.09375 
z
" id="ArialMT-67"/>
      <path d="M 6.390625 0 
L 6.390625 71.578125 
L 15.1875 71.578125 
L 15.1875 0 
z
" id="ArialMT-108"/>
      <path d="M 40.578125 0 
L 40.578125 7.625 
Q 34.515625 -1.171875 24.125 -1.171875 
Q 19.53125 -1.171875 15.546875 0.578125 
Q 11.578125 2.34375 9.640625 5 
Q 7.71875 7.671875 6.9375 11.53125 
Q 6.390625 14.109375 6.390625 19.734375 
L 6.390625 51.859375 
L 15.1875 51.859375 
L 15.1875 23.09375 
Q 15.1875 16.21875 15.71875 13.8125 
Q 16.546875 10.359375 19.234375 8.375 
Q 21.921875 6.390625 25.875 6.390625 
Q 29.828125 6.390625 33.296875 8.421875 
Q 36.765625 10.453125 38.203125 13.9375 
Q 39.65625 17.4375 39.65625 24.078125 
L 39.65625 51.859375 
L 48.4375 51.859375 
L 48.4375 0 
z
" id="ArialMT-117"/>
      <path d="M 3.078125 15.484375 
L 11.765625 16.84375 
Q 12.5 11.625 15.84375 8.84375 
Q 19.1875 6.0625 25.203125 6.0625 
Q 31.25 6.0625 34.171875 8.515625 
Q 37.109375 10.984375 37.109375 14.3125 
Q 37.109375 17.28125 34.515625 19 
Q 32.71875 20.171875 25.53125 21.96875 
Q 15.875 24.421875 12.140625 26.203125 
Q 8.40625 27.984375 6.46875 31.125 
Q 4.546875 34.28125 4.546875 38.09375 
Q 4.546875 41.546875 6.125 44.5 
Q 7.71875 47.46875 10.453125 49.421875 
Q 12.5 50.921875 16.03125 51.96875 
Q 19.578125 53.03125 23.640625 53.03125 
Q 29.734375 53.03125 34.34375 51.265625 
Q 38.96875 49.515625 41.15625 46.5 
Q 43.359375 43.5 44.1875 38.484375 
L 35.59375 37.3125 
Q 35.015625 41.3125 32.203125 43.546875 
Q 29.390625 45.796875 24.265625 45.796875 
Q 18.21875 45.796875 15.625 43.796875 
Q 13.03125 41.796875 13.03125 39.109375 
Q 13.03125 37.40625 14.109375 36.03125 
Q 15.1875 34.625 17.484375 33.6875 
Q 18.796875 33.203125 25.25 31.453125 
Q 34.578125 28.953125 38.25 27.359375 
Q 41.9375 25.78125 44.03125 22.75 
Q 46.140625 19.734375 46.140625 15.234375 
Q 46.140625 10.84375 43.578125 6.953125 
Q 41.015625 3.078125 36.171875 0.953125 
Q 31.34375 -1.171875 25.25 -1.171875 
Q 15.140625 -1.171875 9.84375 3.03125 
Q 4.546875 7.234375 3.078125 15.484375 
z
" id="ArialMT-115"/>
      <path d="M 6.5 0 
L 6.5 51.859375 
L 14.40625 51.859375 
L 14.40625 44 
Q 17.4375 49.515625 20 51.265625 
Q 22.5625 53.03125 25.640625 53.03125 
Q 30.078125 53.03125 34.671875 50.203125 
L 31.640625 42.046875 
Q 28.421875 43.953125 25.203125 43.953125 
Q 22.3125 43.953125 20.015625 42.21875 
Q 17.71875 40.484375 16.75 37.40625 
Q 15.28125 32.71875 15.28125 27.15625 
L 15.28125 0 
z
" id="ArialMT-114"/>
      <path id="ArialMT-32"/>
      <path d="M 28.171875 0 
L 0.4375 71.578125 
L 10.6875 71.578125 
L 29.296875 19.578125 
Q 31.546875 13.328125 33.0625 7.859375 
Q 34.71875 13.71875 36.921875 19.578125 
L 56.25 71.578125 
L 65.921875 71.578125 
L 37.890625 0 
z
" id="ArialMT-86"/>
      <path d="M 40.4375 6.390625 
Q 35.546875 2.25 31.03125 0.53125 
Q 26.515625 -1.171875 21.34375 -1.171875 
Q 12.796875 -1.171875 8.203125 3 
Q 3.609375 7.171875 3.609375 13.671875 
Q 3.609375 17.484375 5.34375 20.625 
Q 7.078125 23.78125 9.890625 25.6875 
Q 12.703125 27.59375 16.21875 28.5625 
Q 18.796875 29.25 24.03125 29.890625 
Q 34.671875 31.15625 39.703125 32.90625 
Q 39.75 34.71875 39.75 35.203125 
Q 39.75 40.578125 37.25 42.78125 
Q 33.890625 45.75 27.25 45.75 
Q 21.046875 45.75 18.09375 43.578125 
Q 15.140625 41.40625 13.71875 35.890625 
L 5.125 37.0625 
Q 6.296875 42.578125 8.984375 45.96875 
Q 11.671875 49.359375 16.75 51.1875 
Q 21.828125 53.03125 28.515625 53.03125 
Q 35.15625 53.03125 39.296875 51.46875 
Q 43.453125 49.90625 45.40625 47.53125 
Q 47.359375 45.171875 48.140625 41.546875 
Q 48.578125 39.3125 48.578125 33.453125 
L 48.578125 21.734375 
Q 48.578125 9.46875 49.140625 6.21875 
Q 49.703125 2.984375 51.375 0 
L 42.1875 0 
Q 40.828125 2.734375 40.4375 6.390625 
z
M 39.703125 26.03125 
Q 34.90625 24.078125 25.34375 22.703125 
Q 19.921875 21.921875 17.671875 20.9375 
Q 15.4375 19.96875 14.203125 18.09375 
Q 12.984375 16.21875 12.984375 13.921875 
Q 12.984375 10.40625 15.640625 8.0625 
Q 18.3125 5.71875 23.4375 5.71875 
Q 28.515625 5.71875 32.46875 7.9375 
Q 36.421875 10.15625 38.28125 14.015625 
Q 39.703125 17 39.703125 22.796875 
z
" id="ArialMT-97"/>
      <path d="M 6.640625 61.46875 
L 6.640625 71.578125 
L 15.4375 71.578125 
L 15.4375 61.46875 
z
M 6.640625 0 
L 6.640625 51.859375 
L 15.4375 51.859375 
L 15.4375 0 
z
" id="ArialMT-105"/>
      <path d="M 3.328125 25.921875 
Q 3.328125 40.328125 11.328125 47.265625 
Q 18.015625 53.03125 27.640625 53.03125 
Q 38.328125 53.03125 45.109375 46.015625 
Q 51.90625 39.015625 51.90625 26.65625 
Q 51.90625 16.65625 48.90625 10.90625 
Q 45.90625 5.171875 40.15625 2 
Q 34.421875 -1.171875 27.640625 -1.171875 
Q 16.75 -1.171875 10.03125 5.8125 
Q 3.328125 12.796875 3.328125 25.921875 
z
M 12.359375 25.921875 
Q 12.359375 15.96875 16.703125 11.015625 
Q 21.046875 6.0625 27.640625 6.0625 
Q 34.1875 6.0625 38.53125 11.03125 
Q 42.875 16.015625 42.875 26.21875 
Q 42.875 35.84375 38.5 40.796875 
Q 34.125 45.75 27.640625 45.75 
Q 21.046875 45.75 16.703125 40.8125 
Q 12.359375 35.890625 12.359375 25.921875 
z
" id="ArialMT-111"/>
     </defs>
     <g style="fill:#262626;" transform="translate(17.936719 230.2125)rotate(-90)scale(0.15 -0.15)">
      <use xlink:href="#ArialMT-66"/>
      <use x="66.699219" xlink:href="#ArialMT-101"/>
      <use x="122.314453" xlink:href="#ArialMT-116"/>
      <use x="150.097656" xlink:href="#ArialMT-119"/>
      <use x="222.314453" xlink:href="#ArialMT-101"/>
      <use x="277.929688" xlink:href="#ArialMT-101"/>
      <use x="333.544922" xlink:href="#ArialMT-110"/>
      <use x="389.160156" xlink:href="#ArialMT-45"/>
      <use x="422.460938" xlink:href="#ArialMT-67"/>
      <use x="494.677734" xlink:href="#ArialMT-108"/>
      <use x="516.894531" xlink:href="#ArialMT-117"/>
      <use x="572.509766" xlink:href="#ArialMT-115"/>
      <use x="622.509766" xlink:href="#ArialMT-116"/>
      <use x="650.292969" xlink:href="#ArialMT-101"/>
      <use x="705.908203" xlink:href="#ArialMT-114"/>
      <use x="739.208984" xlink:href="#ArialMT-32"/>
      <use x="766.992188" xlink:href="#ArialMT-86"/>
      <use x="833.582031" xlink:href="#ArialMT-97"/>
      <use x="889.197266" xlink:href="#ArialMT-114"/>
      <use x="922.498047" xlink:href="#ArialMT-105"/>
      <use x="944.714844" xlink:href="#ArialMT-97"/>
      <use x="1000.330078" xlink:href="#ArialMT-116"/>
      <use x="1028.113281" xlink:href="#ArialMT-105"/>
      <use x="1050.330078" xlink:href="#ArialMT-111"/>
      <use x="1105.945312" xlink:href="#ArialMT-110"/>
     </g>
    </g>
   </g>
   <g id="line2d_8">
    <path clip-path="url(#pd6d60e42d0)" d="M 77.965412 266.645455 
L 80.58022 233.004843 
L 83.195028 213.029086 
L 85.809836 197.911992 
L 88.424643 184.592937 
L 91.039451 175.606283 
L 93.654259 168.247564 
L 96.269067 161.137269 
L 98.883875 155.509388 
L 101.498683 150.211538 
L 104.113491 145.936986 
L 106.728299 140.799567 
L 109.343106 135.865458 
L 111.957914 131.960748 
L 114.572722 128.060792 
L 117.18753 124.177565 
L 119.802338 121.266009 
L 122.417146 118.311151 
L 125.031954 116.255117 
L 127.646762 112.88784 
L 130.261569 111.381546 
L 132.876377 107.724237 
L 135.491185 105.536701 
L 138.105993 104.335931 
L 140.720801 102.578404 
L 143.335609 100.3095 
L 145.950417 98.115453 
L 148.565224 95.428848 
L 151.180032 93.879096 
L 153.79484 92.452732 
L 156.409648 90.338355 
L 159.024456 87.936011 
L 161.639264 86.137015 
L 164.254072 84.287269 
L 166.86888 82.437898 
L 169.483687 80.271801 
L 172.098495 79.940313 
L 174.713303 78.266992 
L 177.328111 77.248493 
L 179.942919 75.789143 
L 182.557727 74.83757 
L 185.172535 73.402279 
L 187.787343 72.011723 
L 190.40215 70.292136 
L 193.016958 68.565129 
L 195.631766 67.748282 
L 198.246574 66.672922 
L 200.861382 65.121219 
L 203.47619 63.966828 
L 206.090998 62.84107 
L 208.705806 61.815561 
L 211.320613 61.190645 
L 213.935421 59.150061 
L 216.550229 58.098587 
L 219.165037 57.428376 
L 221.779845 55.787691 
L 224.394653 55.807709 
L 227.009461 53.664286 
L 229.624269 53.606417 
L 232.239076 52.731328 
L 234.853884 51.001044 
L 237.468692 49.677758 
L 240.0835 49.162488 
L 242.698308 48.452133 
L 245.313116 47.540526 
L 247.927924 46.374002 
L 250.542732 45.051037 
L 253.157539 44.028901 
L 255.772347 42.770198 
L 258.387155 42.371401 
L 261.001963 42.440354 
L 263.616771 40.98196 
L 266.231579 40.154417 
L 268.846387 38.882775 
L 271.461194 37.750265 
L 274.076002 37.019733 
L 276.69081 35.526445 
L 279.305618 34.879311 
L 281.920426 34.046625 
L 284.535234 33.276151 
L 287.150042 32.266313 
L 289.76485 31.54605 
L 292.379657 31.007828 
L 294.994465 30.206387 
L 297.609273 29.36598 
L 300.224081 28.531286 
L 302.838889 28.079892 
L 305.453697 27.169148 
L 308.068505 26.317922 
L 310.683313 25.61906 
L 313.29812 24.666042 
L 315.912928 23.879636 
L 318.527736 22.6592 
L 321.142544 22.506141 
L 323.757352 21.825572 
L 326.37216 21.287509 
L 328.986968 20.346547 
L 331.601776 19.554545 
" style="fill:none;stroke:#4e79a7;stroke-linecap:round;stroke-width:1.5;"/>
    <defs>
     <path d="M 0 3 
C 0.795609 3 1.55874 2.683901 2.12132 2.12132 
C 2.683901 1.55874 3 0.795609 3 0 
C 3 -0.795609 2.683901 -1.55874 2.12132 -2.12132 
C 1.55874 -2.683901 0.795609 -3 0 -3 
C -0.795609 -3 -1.55874 -2.683901 -2.12132 -2.12132 
C -2.683901 -1.55874 -3 -0.795609 -3 0 
C -3 0.795609 -2.683901 1.55874 -2.12132 2.12132 
C -1.55874 2.683901 -0.795609 3 0 3 
z
" id="mf0cf912653" style="stroke:#ffffff;stroke-width:0.75;"/>
    </defs>
    <g clip-path="url(#pd6d60e42d0)">
     <use style="fill:#4e79a7;stroke:#ffffff;stroke-width:0.75;" x="77.965412" xlink:href="#mf0cf912653" y="266.645455"/>
     <use style="fill:#4e79a7;stroke:#ffffff;stroke-width:0.75;" x="80.58022" xlink:href="#mf0cf912653" y="233.004843"/>
     <use style="fill:#4e79a7;stroke:#ffffff;stroke-width:0.75;" x="83.195028" xlink:href="#mf0cf912653" y="213.029086"/>
     <use style="fill:#4e79a7;stroke:#ffffff;stroke-width:0.75;" x="85.809836" xlink:href="#mf0cf912653" y="197.911992"/>
     <use style="fill:#4e79a7;stroke:#ffffff;stroke-width:0.75;" x="88.424643" xlink:href="#mf0cf912653" y="184.592937"/>
     <use style="fill:#4e79a7;stroke:#ffffff;stroke-width:0.75;" x="91.039451" xlink:href="#mf0cf912653" y="175.606283"/>
     <use style="fill:#4e79a7;stroke:#ffffff;stroke-width:0.75;" x="93.654259" xlink:href="#mf0cf912653" y="168.247564"/>
     <use style="fill:#4e79a7;stroke:#ffffff;stroke-width:0.75;" x="96.269067" xlink:href="#mf0cf912653" y="161.137269"/>
     <use style="fill:#4e79a7;stroke:#ffffff;stroke-width:0.75;" x="98.883875" xlink:href="#mf0cf912653" y="155.509388"/>
     <use style="fill:#4e79a7;stroke:#ffffff;stroke-width:0.75;" x="101.498683" xlink:href="#mf0cf912653" y="150.211538"/>
     <use style="fill:#4e79a7;stroke:#ffffff;stroke-width:0.75;" x="104.113491" xlink:href="#mf0cf912653" y="145.936986"/>
     <use style="fill:#4e79a7;stroke:#ffffff;stroke-width:0.75;" x="106.728299" xlink:href="#mf0cf912653" y="140.799567"/>
     <use style="fill:#4e79a7;stroke:#ffffff;stroke-width:0.75;" x="109.343106" xlink:href="#mf0cf912653" y="135.865458"/>
     <use style="fill:#4e79a7;stroke:#ffffff;stroke-width:0.75;" x="111.957914" xlink:href="#mf0cf912653" y="131.960748"/>
     <use style="fill:#4e79a7;stroke:#ffffff;stroke-width:0.75;" x="114.572722" xlink:href="#mf0cf912653" y="128.060792"/>
     <use style="fill:#4e79a7;stroke:#ffffff;stroke-width:0.75;" x="117.18753" xlink:href="#mf0cf912653" y="124.177565"/>
     <use style="fill:#4e79a7;stroke:#ffffff;stroke-width:0.75;" x="119.802338" xlink:href="#mf0cf912653" y="121.266009"/>
     <use style="fill:#4e79a7;stroke:#ffffff;stroke-width:0.75;" x="122.417146" xlink:href="#mf0cf912653" y="118.311151"/>
     <use style="fill:#4e79a7;stroke:#ffffff;stroke-width:0.75;" x="125.031954" xlink:href="#mf0cf912653" y="116.255117"/>
     <use style="fill:#4e79a7;stroke:#ffffff;stroke-width:0.75;" x="127.646762" xlink:href="#mf0cf912653" y="112.88784"/>
     <use style="fill:#4e79a7;stroke:#ffffff;stroke-width:0.75;" x="130.261569" xlink:href="#mf0cf912653" y="111.381546"/>
     <use style="fill:#4e79a7;stroke:#ffffff;stroke-width:0.75;" x="132.876377" xlink:href="#mf0cf912653" y="107.724237"/>
     <use style="fill:#4e79a7;stroke:#ffffff;stroke-width:0.75;" x="135.491185" xlink:href="#mf0cf912653" y="105.536701"/>
     <use style="fill:#4e79a7;stroke:#ffffff;stroke-width:0.75;" x="138.105993" xlink:href="#mf0cf912653" y="104.335931"/>
     <use style="fill:#4e79a7;stroke:#ffffff;stroke-width:0.75;" x="140.720801" xlink:href="#mf0cf912653" y="102.578404"/>
     <use style="fill:#4e79a7;stroke:#ffffff;stroke-width:0.75;" x="143.335609" xlink:href="#mf0cf912653" y="100.3095"/>
     <use style="fill:#4e79a7;stroke:#ffffff;stroke-width:0.75;" x="145.950417" xlink:href="#mf0cf912653" y="98.115453"/>
     <use style="fill:#4e79a7;stroke:#ffffff;stroke-width:0.75;" x="148.565224" xlink:href="#mf0cf912653" y="95.428848"/>
     <use style="fill:#4e79a7;stroke:#ffffff;stroke-width:0.75;" x="151.180032" xlink:href="#mf0cf912653" y="93.879096"/>
     <use style="fill:#4e79a7;stroke:#ffffff;stroke-width:0.75;" x="153.79484" xlink:href="#mf0cf912653" y="92.452732"/>
     <use style="fill:#4e79a7;stroke:#ffffff;stroke-width:0.75;" x="156.409648" xlink:href="#mf0cf912653" y="90.338355"/>
     <use style="fill:#4e79a7;stroke:#ffffff;stroke-width:0.75;" x="159.024456" xlink:href="#mf0cf912653" y="87.936011"/>
     <use style="fill:#4e79a7;stroke:#ffffff;stroke-width:0.75;" x="161.639264" xlink:href="#mf0cf912653" y="86.137015"/>
     <use style="fill:#4e79a7;stroke:#ffffff;stroke-width:0.75;" x="164.254072" xlink:href="#mf0cf912653" y="84.287269"/>
     <use style="fill:#4e79a7;stroke:#ffffff;stroke-width:0.75;" x="166.86888" xlink:href="#mf0cf912653" y="82.437898"/>
     <use style="fill:#4e79a7;stroke:#ffffff;stroke-width:0.75;" x="169.483687" xlink:href="#mf0cf912653" y="80.271801"/>
     <use style="fill:#4e79a7;stroke:#ffffff;stroke-width:0.75;" x="172.098495" xlink:href="#mf0cf912653" y="79.940313"/>
     <use style="fill:#4e79a7;stroke:#ffffff;stroke-width:0.75;" x="174.713303" xlink:href="#mf0cf912653" y="78.266992"/>
     <use style="fill:#4e79a7;stroke:#ffffff;stroke-width:0.75;" x="177.328111" xlink:href="#mf0cf912653" y="77.248493"/>
     <use style="fill:#4e79a7;stroke:#ffffff;stroke-width:0.75;" x="179.942919" xlink:href="#mf0cf912653" y="75.789143"/>
     <use style="fill:#4e79a7;stroke:#ffffff;stroke-width:0.75;" x="182.557727" xlink:href="#mf0cf912653" y="74.83757"/>
     <use style="fill:#4e79a7;stroke:#ffffff;stroke-width:0.75;" x="185.172535" xlink:href="#mf0cf912653" y="73.402279"/>
     <use style="fill:#4e79a7;stroke:#ffffff;stroke-width:0.75;" x="187.787343" xlink:href="#mf0cf912653" y="72.011723"/>
     <use style="fill:#4e79a7;stroke:#ffffff;stroke-width:0.75;" x="190.40215" xlink:href="#mf0cf912653" y="70.292136"/>
     <use style="fill:#4e79a7;stroke:#ffffff;stroke-width:0.75;" x="193.016958" xlink:href="#mf0cf912653" y="68.565129"/>
     <use style="fill:#4e79a7;stroke:#ffffff;stroke-width:0.75;" x="195.631766" xlink:href="#mf0cf912653" y="67.748282"/>
     <use style="fill:#4e79a7;stroke:#ffffff;stroke-width:0.75;" x="198.246574" xlink:href="#mf0cf912653" y="66.672922"/>
     <use style="fill:#4e79a7;stroke:#ffffff;stroke-width:0.75;" x="200.861382" xlink:href="#mf0cf912653" y="65.121219"/>
     <use style="fill:#4e79a7;stroke:#ffffff;stroke-width:0.75;" x="203.47619" xlink:href="#mf0cf912653" y="63.966828"/>
     <use style="fill:#4e79a7;stroke:#ffffff;stroke-width:0.75;" x="206.090998" xlink:href="#mf0cf912653" y="62.84107"/>
     <use style="fill:#4e79a7;stroke:#ffffff;stroke-width:0.75;" x="208.705806" xlink:href="#mf0cf912653" y="61.815561"/>
     <use style="fill:#4e79a7;stroke:#ffffff;stroke-width:0.75;" x="211.320613" xlink:href="#mf0cf912653" y="61.190645"/>
     <use style="fill:#4e79a7;stroke:#ffffff;stroke-width:0.75;" x="213.935421" xlink:href="#mf0cf912653" y="59.150061"/>
     <use style="fill:#4e79a7;stroke:#ffffff;stroke-width:0.75;" x="216.550229" xlink:href="#mf0cf912653" y="58.098587"/>
     <use style="fill:#4e79a7;stroke:#ffffff;stroke-width:0.75;" x="219.165037" xlink:href="#mf0cf912653" y="57.428376"/>
     <use style="fill:#4e79a7;stroke:#ffffff;stroke-width:0.75;" x="221.779845" xlink:href="#mf0cf912653" y="55.787691"/>
     <use style="fill:#4e79a7;stroke:#ffffff;stroke-width:0.75;" x="224.394653" xlink:href="#mf0cf912653" y="55.807709"/>
     <use style="fill:#4e79a7;stroke:#ffffff;stroke-width:0.75;" x="227.009461" xlink:href="#mf0cf912653" y="53.664286"/>
     <use style="fill:#4e79a7;stroke:#ffffff;stroke-width:0.75;" x="229.624269" xlink:href="#mf0cf912653" y="53.606417"/>
     <use style="fill:#4e79a7;stroke:#ffffff;stroke-width:0.75;" x="232.239076" xlink:href="#mf0cf912653" y="52.731328"/>
     <use style="fill:#4e79a7;stroke:#ffffff;stroke-width:0.75;" x="234.853884" xlink:href="#mf0cf912653" y="51.001044"/>
     <use style="fill:#4e79a7;stroke:#ffffff;stroke-width:0.75;" x="237.468692" xlink:href="#mf0cf912653" y="49.677758"/>
     <use style="fill:#4e79a7;stroke:#ffffff;stroke-width:0.75;" x="240.0835" xlink:href="#mf0cf912653" y="49.162488"/>
     <use style="fill:#4e79a7;stroke:#ffffff;stroke-width:0.75;" x="242.698308" xlink:href="#mf0cf912653" y="48.452133"/>
     <use style="fill:#4e79a7;stroke:#ffffff;stroke-width:0.75;" x="245.313116" xlink:href="#mf0cf912653" y="47.540526"/>
     <use style="fill:#4e79a7;stroke:#ffffff;stroke-width:0.75;" x="247.927924" xlink:href="#mf0cf912653" y="46.374002"/>
     <use style="fill:#4e79a7;stroke:#ffffff;stroke-width:0.75;" x="250.542732" xlink:href="#mf0cf912653" y="45.051037"/>
     <use style="fill:#4e79a7;stroke:#ffffff;stroke-width:0.75;" x="253.157539" xlink:href="#mf0cf912653" y="44.028901"/>
     <use style="fill:#4e79a7;stroke:#ffffff;stroke-width:0.75;" x="255.772347" xlink:href="#mf0cf912653" y="42.770198"/>
     <use style="fill:#4e79a7;stroke:#ffffff;stroke-width:0.75;" x="258.387155" xlink:href="#mf0cf912653" y="42.371401"/>
     <use style="fill:#4e79a7;stroke:#ffffff;stroke-width:0.75;" x="261.001963" xlink:href="#mf0cf912653" y="42.440354"/>
     <use style="fill:#4e79a7;stroke:#ffffff;stroke-width:0.75;" x="263.616771" xlink:href="#mf0cf912653" y="40.98196"/>
     <use style="fill:#4e79a7;stroke:#ffffff;stroke-width:0.75;" x="266.231579" xlink:href="#mf0cf912653" y="40.154417"/>
     <use style="fill:#4e79a7;stroke:#ffffff;stroke-width:0.75;" x="268.846387" xlink:href="#mf0cf912653" y="38.882775"/>
     <use style="fill:#4e79a7;stroke:#ffffff;stroke-width:0.75;" x="271.461194" xlink:href="#mf0cf912653" y="37.750265"/>
     <use style="fill:#4e79a7;stroke:#ffffff;stroke-width:0.75;" x="274.076002" xlink:href="#mf0cf912653" y="37.019733"/>
     <use style="fill:#4e79a7;stroke:#ffffff;stroke-width:0.75;" x="276.69081" xlink:href="#mf0cf912653" y="35.526445"/>
     <use style="fill:#4e79a7;stroke:#ffffff;stroke-width:0.75;" x="279.305618" xlink:href="#mf0cf912653" y="34.879311"/>
     <use style="fill:#4e79a7;stroke:#ffffff;stroke-width:0.75;" x="281.920426" xlink:href="#mf0cf912653" y="34.046625"/>
     <use style="fill:#4e79a7;stroke:#ffffff;stroke-width:0.75;" x="284.535234" xlink:href="#mf0cf912653" y="33.276151"/>
     <use style="fill:#4e79a7;stroke:#ffffff;stroke-width:0.75;" x="287.150042" xlink:href="#mf0cf912653" y="32.266313"/>
     <use style="fill:#4e79a7;stroke:#ffffff;stroke-width:0.75;" x="289.76485" xlink:href="#mf0cf912653" y="31.54605"/>
     <use style="fill:#4e79a7;stroke:#ffffff;stroke-width:0.75;" x="292.379657" xlink:href="#mf0cf912653" y="31.007828"/>
     <use style="fill:#4e79a7;stroke:#ffffff;stroke-width:0.75;" x="294.994465" xlink:href="#mf0cf912653" y="30.206387"/>
     <use style="fill:#4e79a7;stroke:#ffffff;stroke-width:0.75;" x="297.609273" xlink:href="#mf0cf912653" y="29.36598"/>
     <use style="fill:#4e79a7;stroke:#ffffff;stroke-width:0.75;" x="300.224081" xlink:href="#mf0cf912653" y="28.531286"/>
     <use style="fill:#4e79a7;stroke:#ffffff;stroke-width:0.75;" x="302.838889" xlink:href="#mf0cf912653" y="28.079892"/>
     <use style="fill:#4e79a7;stroke:#ffffff;stroke-width:0.75;" x="305.453697" xlink:href="#mf0cf912653" y="27.169148"/>
     <use style="fill:#4e79a7;stroke:#ffffff;stroke-width:0.75;" x="308.068505" xlink:href="#mf0cf912653" y="26.317922"/>
     <use style="fill:#4e79a7;stroke:#ffffff;stroke-width:0.75;" x="310.683313" xlink:href="#mf0cf912653" y="25.61906"/>
     <use style="fill:#4e79a7;stroke:#ffffff;stroke-width:0.75;" x="313.29812" xlink:href="#mf0cf912653" y="24.666042"/>
     <use style="fill:#4e79a7;stroke:#ffffff;stroke-width:0.75;" x="315.912928" xlink:href="#mf0cf912653" y="23.879636"/>
     <use style="fill:#4e79a7;stroke:#ffffff;stroke-width:0.75;" x="318.527736" xlink:href="#mf0cf912653" y="22.6592"/>
     <use style="fill:#4e79a7;stroke:#ffffff;stroke-width:0.75;" x="321.142544" xlink:href="#mf0cf912653" y="22.506141"/>
     <use style="fill:#4e79a7;stroke:#ffffff;stroke-width:0.75;" x="323.757352" xlink:href="#mf0cf912653" y="21.825572"/>
     <use style="fill:#4e79a7;stroke:#ffffff;stroke-width:0.75;" x="326.37216" xlink:href="#mf0cf912653" y="21.287509"/>
     <use style="fill:#4e79a7;stroke:#ffffff;stroke-width:0.75;" x="328.986968" xlink:href="#mf0cf912653" y="20.346547"/>
     <use style="fill:#4e79a7;stroke:#ffffff;stroke-width:0.75;" x="331.601776" xlink:href="#mf0cf912653" y="19.554545"/>
    </g>
   </g>
   <g id="patch_3">
    <path d="M 65.283594 279 
L 344.283594 279 
" style="fill:none;stroke:#cccccc;stroke-linecap:square;stroke-linejoin:miter;stroke-width:0.8;"/>
   </g>
  </g>
 </g>
 <defs>
  <clipPath id="pd6d60e42d0">
   <rect height="271.8" width="279" x="65.283594" y="7.2"/>
  </clipPath>
 </defs>
</svg>
