<?xml version="1.0" encoding="utf-8" standalone="no"?>
<!DOCTYPE svg PUBLIC "-//W3C//DTD SVG 1.1//EN"
  "http://www.w3.org/Graphics/SVG/1.1/DTD/svg11.dtd">
<!-- Created with matplotlib (https://matplotlib.org/) -->
<svg height="324.635938pt" version="1.1" viewBox="0 0 341.413068 324.635938" width="341.413068pt" xmlns="http://www.w3.org/2000/svg" xmlns:xlink="http://www.w3.org/1999/xlink">
 <defs>
  <style type="text/css">
*{stroke-linecap:butt;stroke-linejoin:round;}
  </style>
 </defs>
 <g id="figure_1">
  <g id="patch_1">
   <path d="M 0 324.635938 
L 341.413068 324.635938 
L 341.413068 0 
L 0 0 
z
" style="fill:#ffffff;"/>
  </g>
  <g id="axes_1">
   <g id="patch_2">
    <path d="M 52.767969 279 
L 331.767969 279 
L 331.767969 7.2 
L 52.767969 7.2 
z
" style="fill:#ffffff;"/>
   </g>
   <g id="matplotlib.axis_1">
    <g id="xtick_1">
     <g id="text_1">
      <!-- 0 -->
      <defs>
       <path d="M 4.15625 35.296875 
Q 4.15625 48 6.765625 55.734375 
Q 9.375 63.484375 14.515625 67.671875 
Q 19.671875 71.875 27.484375 71.875 
Q 33.25 71.875 37.59375 69.546875 
Q 41.9375 67.234375 44.765625 62.859375 
Q 47.609375 58.5 49.21875 52.21875 
Q 50.828125 45.953125 50.828125 35.296875 
Q 50.828125 22.703125 48.234375 14.96875 
Q 45.65625 7.234375 40.5 3 
Q 35.359375 -1.21875 27.484375 -1.21875 
Q 17.140625 -1.21875 11.234375 6.203125 
Q 4.15625 15.140625 4.15625 35.296875 
z
M 13.1875 35.296875 
Q 13.1875 17.671875 17.3125 11.828125 
Q 21.4375 6 27.484375 6 
Q 33.546875 6 37.671875 11.859375 
Q 41.796875 17.71875 41.796875 35.296875 
Q 41.796875 52.984375 37.671875 58.78125 
Q 33.546875 64.59375 27.390625 64.59375 
Q 21.34375 64.59375 17.71875 59.46875 
Q 13.1875 52.9375 13.1875 35.296875 
z
" id="ArialMT-48"/>
      </defs>
      <g style="fill:#262626;" transform="translate(56.049468 296.736719)scale(0.15 -0.15)">
       <use xlink:href="#ArialMT-48"/>
      </g>
     </g>
    </g>
    <g id="xtick_2">
     <g id="text_2">
      <!-- 20 -->
      <defs>
       <path d="M 50.34375 8.453125 
L 50.34375 0 
L 3.03125 0 
Q 2.9375 3.171875 4.046875 6.109375 
Q 5.859375 10.9375 9.828125 15.625 
Q 13.8125 20.3125 21.34375 26.46875 
Q 33.015625 36.03125 37.109375 41.625 
Q 41.21875 47.21875 41.21875 52.203125 
Q 41.21875 57.421875 37.46875 61 
Q 33.734375 64.59375 27.734375 64.59375 
Q 21.390625 64.59375 17.578125 60.78125 
Q 13.765625 56.984375 13.71875 50.25 
L 4.6875 51.171875 
Q 5.609375 61.28125 11.65625 66.578125 
Q 17.71875 71.875 27.9375 71.875 
Q 38.234375 71.875 44.234375 66.15625 
Q 50.25 60.453125 50.25 52 
Q 50.25 47.703125 48.484375 43.546875 
Q 46.734375 39.40625 42.65625 34.8125 
Q 38.578125 30.21875 29.109375 22.21875 
Q 21.1875 15.578125 18.9375 13.203125 
Q 16.703125 10.84375 15.234375 8.453125 
z
" id="ArialMT-50"/>
      </defs>
      <g style="fill:#262626;" transform="translate(104.174922 296.736719)scale(0.15 -0.15)">
       <use xlink:href="#ArialMT-50"/>
       <use x="55.615234" xlink:href="#ArialMT-48"/>
      </g>
     </g>
    </g>
    <g id="xtick_3">
     <g id="text_3">
      <!-- 40 -->
      <defs>
       <path d="M 32.328125 0 
L 32.328125 17.140625 
L 1.265625 17.140625 
L 1.265625 25.203125 
L 33.9375 71.578125 
L 41.109375 71.578125 
L 41.109375 25.203125 
L 50.78125 25.203125 
L 50.78125 17.140625 
L 41.109375 17.140625 
L 41.109375 0 
z
M 32.328125 25.203125 
L 32.328125 57.46875 
L 9.90625 25.203125 
z
" id="ArialMT-52"/>
      </defs>
      <g style="fill:#262626;" transform="translate(156.47108 296.736719)scale(0.15 -0.15)">
       <use xlink:href="#ArialMT-52"/>
       <use x="55.615234" xlink:href="#ArialMT-48"/>
      </g>
     </g>
    </g>
    <g id="xtick_4">
     <g id="text_4">
      <!-- 60 -->
      <defs>
       <path d="M 49.75 54.046875 
L 41.015625 53.375 
Q 39.84375 58.546875 37.703125 60.890625 
Q 34.125 64.65625 28.90625 64.65625 
Q 24.703125 64.65625 21.53125 62.3125 
Q 17.390625 59.28125 14.984375 53.46875 
Q 12.59375 47.65625 12.5 36.921875 
Q 15.671875 41.75 20.265625 44.09375 
Q 24.859375 46.4375 29.890625 46.4375 
Q 38.671875 46.4375 44.84375 39.96875 
Q 51.03125 33.5 51.03125 23.25 
Q 51.03125 16.5 48.125 10.71875 
Q 45.21875 4.9375 40.140625 1.859375 
Q 35.0625 -1.21875 28.609375 -1.21875 
Q 17.625 -1.21875 10.6875 6.859375 
Q 3.765625 14.9375 3.765625 33.5 
Q 3.765625 54.25 11.421875 63.671875 
Q 18.109375 71.875 29.4375 71.875 
Q 37.890625 71.875 43.28125 67.140625 
Q 48.6875 62.40625 49.75 54.046875 
z
M 13.875 23.1875 
Q 13.875 18.65625 15.796875 14.5 
Q 17.71875 10.359375 21.1875 8.171875 
Q 24.65625 6 28.46875 6 
Q 34.03125 6 38.03125 10.484375 
Q 42.046875 14.984375 42.046875 22.703125 
Q 42.046875 30.125 38.078125 34.390625 
Q 34.125 38.671875 28.125 38.671875 
Q 22.171875 38.671875 18.015625 34.390625 
Q 13.875 30.125 13.875 23.1875 
z
" id="ArialMT-54"/>
      </defs>
      <g style="fill:#262626;" transform="translate(208.767237 296.736719)scale(0.15 -0.15)">
       <use xlink:href="#ArialMT-54"/>
       <use x="55.615234" xlink:href="#ArialMT-48"/>
      </g>
     </g>
    </g>
    <g id="xtick_5">
     <g id="text_5">
      <!-- 80 -->
      <defs>
       <path d="M 17.671875 38.8125 
Q 12.203125 40.828125 9.5625 44.53125 
Q 6.9375 48.25 6.9375 53.421875 
Q 6.9375 61.234375 12.546875 66.546875 
Q 18.171875 71.875 27.484375 71.875 
Q 36.859375 71.875 42.578125 66.421875 
Q 48.296875 60.984375 48.296875 53.171875 
Q 48.296875 48.1875 45.671875 44.5 
Q 43.0625 40.828125 37.75 38.8125 
Q 44.34375 36.671875 47.78125 31.875 
Q 51.21875 27.09375 51.21875 20.453125 
Q 51.21875 11.28125 44.71875 5.03125 
Q 38.234375 -1.21875 27.640625 -1.21875 
Q 17.046875 -1.21875 10.546875 5.046875 
Q 4.046875 11.328125 4.046875 20.703125 
Q 4.046875 27.6875 7.59375 32.390625 
Q 11.140625 37.109375 17.671875 38.8125 
z
M 15.921875 53.71875 
Q 15.921875 48.640625 19.1875 45.40625 
Q 22.46875 42.1875 27.6875 42.1875 
Q 32.765625 42.1875 36.015625 45.375 
Q 39.265625 48.578125 39.265625 53.21875 
Q 39.265625 58.0625 35.90625 61.359375 
Q 32.5625 64.65625 27.59375 64.65625 
Q 22.5625 64.65625 19.234375 61.421875 
Q 15.921875 58.203125 15.921875 53.71875 
z
M 13.09375 20.65625 
Q 13.09375 16.890625 14.875 13.375 
Q 16.65625 9.859375 20.171875 7.921875 
Q 23.6875 6 27.734375 6 
Q 34.03125 6 38.125 10.046875 
Q 42.234375 14.109375 42.234375 20.359375 
Q 42.234375 26.703125 38.015625 30.859375 
Q 33.796875 35.015625 27.4375 35.015625 
Q 21.234375 35.015625 17.15625 30.90625 
Q 13.09375 26.8125 13.09375 20.65625 
z
" id="ArialMT-56"/>
      </defs>
      <g style="fill:#262626;" transform="translate(261.063395 296.736719)scale(0.15 -0.15)">
       <use xlink:href="#ArialMT-56"/>
       <use x="55.615234" xlink:href="#ArialMT-48"/>
      </g>
     </g>
    </g>
    <g id="xtick_6">
     <g id="text_6">
      <!-- 100 -->
      <defs>
       <path d="M 37.25 0 
L 28.46875 0 
L 28.46875 56 
Q 25.296875 52.984375 20.140625 49.953125 
Q 14.984375 46.921875 10.890625 45.40625 
L 10.890625 53.90625 
Q 18.265625 57.375 23.78125 62.296875 
Q 29.296875 67.234375 31.59375 71.875 
L 37.25 71.875 
z
" id="ArialMT-49"/>
      </defs>
      <g style="fill:#262626;" transform="translate(309.188849 296.736719)scale(0.15 -0.15)">
       <use xlink:href="#ArialMT-49"/>
       <use x="55.615234" xlink:href="#ArialMT-48"/>
       <use x="111.230469" xlink:href="#ArialMT-48"/>
      </g>
     </g>
    </g>
    <g id="text_7">
     <!-- k -->
     <defs>
      <path d="M 6.640625 0 
L 6.640625 71.578125 
L 15.4375 71.578125 
L 15.4375 30.765625 
L 36.234375 51.859375 
L 47.609375 51.859375 
L 27.78125 32.625 
L 49.609375 0 
L 38.765625 0 
L 21.625 26.515625 
L 15.4375 20.5625 
L 15.4375 0 
z
" id="ArialMT-107"/>
     </defs>
     <g style="fill:#262626;" transform="translate(188.517969 314.454688)scale(0.15 -0.15)">
      <use xlink:href="#ArialMT-107"/>
     </g>
    </g>
   </g>
   <g id="matplotlib.axis_2">
    <g id="ytick_1">
     <g id="line2d_1">
      <path clip-path="url(#p013573458c)" d="M 52.767969 241.714462 
L 331.767969 241.714462 
" style="fill:none;stroke:#cccccc;stroke-linecap:round;stroke-width:0.8;"/>
     </g>
     <g id="text_8">
      <!-- 0.0 -->
      <defs>
       <path d="M 9.078125 0 
L 9.078125 10.015625 
L 19.09375 10.015625 
L 19.09375 0 
z
" id="ArialMT-46"/>
      </defs>
      <g style="fill:#262626;" transform="translate(24.917969 247.082822)scale(0.15 -0.15)">
       <use xlink:href="#ArialMT-48"/>
       <use x="55.615234" xlink:href="#ArialMT-46"/>
       <use x="83.398438" xlink:href="#ArialMT-48"/>
      </g>
     </g>
    </g>
    <g id="ytick_2">
     <g id="line2d_2">
      <path clip-path="url(#p013573458c)" d="M 52.767969 194.173546 
L 331.767969 194.173546 
" style="fill:none;stroke:#cccccc;stroke-linecap:round;stroke-width:0.8;"/>
     </g>
     <g id="text_9">
      <!-- 0.1 -->
      <g style="fill:#262626;" transform="translate(24.917969 199.541905)scale(0.15 -0.15)">
       <use xlink:href="#ArialMT-48"/>
       <use x="55.615234" xlink:href="#ArialMT-46"/>
       <use x="83.398438" xlink:href="#ArialMT-49"/>
      </g>
     </g>
    </g>
    <g id="ytick_3">
     <g id="line2d_3">
      <path clip-path="url(#p013573458c)" d="M 52.767969 146.632629 
L 331.767969 146.632629 
" style="fill:none;stroke:#cccccc;stroke-linecap:round;stroke-width:0.8;"/>
     </g>
     <g id="text_10">
      <!-- 0.2 -->
      <g style="fill:#262626;" transform="translate(24.917969 152.000989)scale(0.15 -0.15)">
       <use xlink:href="#ArialMT-48"/>
       <use x="55.615234" xlink:href="#ArialMT-46"/>
       <use x="83.398438" xlink:href="#ArialMT-50"/>
      </g>
     </g>
    </g>
    <g id="ytick_4">
     <g id="line2d_4">
      <path clip-path="url(#p013573458c)" d="M 52.767969 99.091713 
L 331.767969 99.091713 
" style="fill:none;stroke:#cccccc;stroke-linecap:round;stroke-width:0.8;"/>
     </g>
     <g id="text_11">
      <!-- 0.3 -->
      <defs>
       <path d="M 4.203125 18.890625 
L 12.984375 20.0625 
Q 14.5 12.59375 18.140625 9.296875 
Q 21.78125 6 27 6 
Q 33.203125 6 37.46875 10.296875 
Q 41.75 14.59375 41.75 20.953125 
Q 41.75 27 37.796875 30.921875 
Q 33.84375 34.859375 27.734375 34.859375 
Q 25.25 34.859375 21.53125 33.890625 
L 22.515625 41.609375 
Q 23.390625 41.5 23.921875 41.5 
Q 29.546875 41.5 34.03125 44.421875 
Q 38.53125 47.359375 38.53125 53.46875 
Q 38.53125 58.296875 35.25 61.46875 
Q 31.984375 64.65625 26.8125 64.65625 
Q 21.6875 64.65625 18.265625 61.421875 
Q 14.84375 58.203125 13.875 51.765625 
L 5.078125 53.328125 
Q 6.6875 62.15625 12.390625 67.015625 
Q 18.109375 71.875 26.609375 71.875 
Q 32.46875 71.875 37.390625 69.359375 
Q 42.328125 66.84375 44.9375 62.5 
Q 47.5625 58.15625 47.5625 53.265625 
Q 47.5625 48.640625 45.0625 44.828125 
Q 42.578125 41.015625 37.703125 38.765625 
Q 44.046875 37.3125 47.5625 32.6875 
Q 51.078125 28.078125 51.078125 21.140625 
Q 51.078125 11.765625 44.234375 5.25 
Q 37.40625 -1.265625 26.953125 -1.265625 
Q 17.53125 -1.265625 11.296875 4.34375 
Q 5.078125 9.96875 4.203125 18.890625 
z
" id="ArialMT-51"/>
      </defs>
      <g style="fill:#262626;" transform="translate(24.917969 104.460072)scale(0.15 -0.15)">
       <use xlink:href="#ArialMT-48"/>
       <use x="55.615234" xlink:href="#ArialMT-46"/>
       <use x="83.398438" xlink:href="#ArialMT-51"/>
      </g>
     </g>
    </g>
    <g id="ytick_5">
     <g id="line2d_5">
      <path clip-path="url(#p013573458c)" d="M 52.767969 51.550796 
L 331.767969 51.550796 
" style="fill:none;stroke:#cccccc;stroke-linecap:round;stroke-width:0.8;"/>
     </g>
     <g id="text_12">
      <!-- 0.4 -->
      <g style="fill:#262626;" transform="translate(24.917969 56.919156)scale(0.15 -0.15)">
       <use xlink:href="#ArialMT-48"/>
       <use x="55.615234" xlink:href="#ArialMT-46"/>
       <use x="83.398438" xlink:href="#ArialMT-52"/>
      </g>
     </g>
    </g>
    <g id="text_13">
     <!-- Silhouette Score -->
     <defs>
      <path d="M 4.5 23 
L 13.421875 23.78125 
Q 14.0625 18.40625 16.375 14.96875 
Q 18.703125 11.53125 23.578125 9.40625 
Q 28.46875 7.28125 34.578125 7.28125 
Q 39.984375 7.28125 44.140625 8.890625 
Q 48.296875 10.5 50.3125 13.296875 
Q 52.34375 16.109375 52.34375 19.4375 
Q 52.34375 22.796875 50.390625 25.3125 
Q 48.4375 27.828125 43.953125 29.546875 
Q 41.0625 30.671875 31.203125 33.03125 
Q 21.34375 35.40625 17.390625 37.5 
Q 12.25 40.1875 9.734375 44.15625 
Q 7.234375 48.140625 7.234375 53.078125 
Q 7.234375 58.5 10.296875 63.203125 
Q 13.375 67.921875 19.28125 70.359375 
Q 25.203125 72.796875 32.421875 72.796875 
Q 40.375 72.796875 46.453125 70.234375 
Q 52.546875 67.671875 55.8125 62.6875 
Q 59.078125 57.71875 59.328125 51.421875 
L 50.25 50.734375 
Q 49.515625 57.515625 45.28125 60.984375 
Q 41.0625 64.453125 32.8125 64.453125 
Q 24.21875 64.453125 20.28125 61.296875 
Q 16.359375 58.15625 16.359375 53.71875 
Q 16.359375 49.859375 19.140625 47.359375 
Q 21.875 44.875 33.421875 42.265625 
Q 44.96875 39.65625 49.265625 37.703125 
Q 55.515625 34.8125 58.484375 30.390625 
Q 61.46875 25.984375 61.46875 20.21875 
Q 61.46875 14.5 58.203125 9.4375 
Q 54.9375 4.390625 48.796875 1.578125 
Q 42.671875 -1.21875 35.015625 -1.21875 
Q 25.296875 -1.21875 18.71875 1.609375 
Q 12.15625 4.4375 8.421875 10.125 
Q 4.6875 15.828125 4.5 23 
z
" id="ArialMT-83"/>
      <path d="M 6.640625 61.46875 
L 6.640625 71.578125 
L 15.4375 71.578125 
L 15.4375 61.46875 
z
M 6.640625 0 
L 6.640625 51.859375 
L 15.4375 51.859375 
L 15.4375 0 
z
" id="ArialMT-105"/>
      <path d="M 6.390625 0 
L 6.390625 71.578125 
L 15.1875 71.578125 
L 15.1875 0 
z
" id="ArialMT-108"/>
      <path d="M 6.59375 0 
L 6.59375 71.578125 
L 15.375 71.578125 
L 15.375 45.90625 
Q 21.53125 53.03125 30.90625 53.03125 
Q 36.671875 53.03125 40.921875 50.75 
Q 45.171875 48.484375 47 44.484375 
Q 48.828125 40.484375 48.828125 32.859375 
L 48.828125 0 
L 40.046875 0 
L 40.046875 32.859375 
Q 40.046875 39.453125 37.1875 42.453125 
Q 34.328125 45.453125 29.109375 45.453125 
Q 25.203125 45.453125 21.75 43.421875 
Q 18.3125 41.40625 16.84375 37.9375 
Q 15.375 34.46875 15.375 28.375 
L 15.375 0 
z
" id="ArialMT-104"/>
      <path d="M 3.328125 25.921875 
Q 3.328125 40.328125 11.328125 47.265625 
Q 18.015625 53.03125 27.640625 53.03125 
Q 38.328125 53.03125 45.109375 46.015625 
Q 51.90625 39.015625 51.90625 26.65625 
Q 51.90625 16.65625 48.90625 10.90625 
Q 45.90625 5.171875 40.15625 2 
Q 34.421875 -1.171875 27.640625 -1.171875 
Q 16.75 -1.171875 10.03125 5.8125 
Q 3.328125 12.796875 3.328125 25.921875 
z
M 12.359375 25.921875 
Q 12.359375 15.96875 16.703125 11.015625 
Q 21.046875 6.0625 27.640625 6.0625 
Q 34.1875 6.0625 38.53125 11.03125 
Q 42.875 16.015625 42.875 26.21875 
Q 42.875 35.84375 38.5 40.796875 
Q 34.125 45.75 27.640625 45.75 
Q 21.046875 45.75 16.703125 40.8125 
Q 12.359375 35.890625 12.359375 25.921875 
z
" id="ArialMT-111"/>
      <path d="M 40.578125 0 
L 40.578125 7.625 
Q 34.515625 -1.171875 24.125 -1.171875 
Q 19.53125 -1.171875 15.546875 0.578125 
Q 11.578125 2.34375 9.640625 5 
Q 7.71875 7.671875 6.9375 11.53125 
Q 6.390625 14.109375 6.390625 19.734375 
L 6.390625 51.859375 
L 15.1875 51.859375 
L 15.1875 23.09375 
Q 15.1875 16.21875 15.71875 13.8125 
Q 16.546875 10.359375 19.234375 8.375 
Q 21.921875 6.390625 25.875 6.390625 
Q 29.828125 6.390625 33.296875 8.421875 
Q 36.765625 10.453125 38.203125 13.9375 
Q 39.65625 17.4375 39.65625 24.078125 
L 39.65625 51.859375 
L 48.4375 51.859375 
L 48.4375 0 
z
" id="ArialMT-117"/>
      <path d="M 42.09375 16.703125 
L 51.171875 15.578125 
Q 49.03125 7.625 43.21875 3.21875 
Q 37.40625 -1.171875 28.375 -1.171875 
Q 17 -1.171875 10.328125 5.828125 
Q 3.65625 12.84375 3.65625 25.484375 
Q 3.65625 38.578125 10.390625 45.796875 
Q 17.140625 53.03125 27.875 53.03125 
Q 38.28125 53.03125 44.875 45.953125 
Q 51.46875 38.875 51.46875 26.03125 
Q 51.46875 25.25 51.421875 23.6875 
L 12.75 23.6875 
Q 13.234375 15.140625 17.578125 10.59375 
Q 21.921875 6.0625 28.421875 6.0625 
Q 33.25 6.0625 36.671875 8.59375 
Q 40.09375 11.140625 42.09375 16.703125 
z
M 13.234375 30.90625 
L 42.1875 30.90625 
Q 41.609375 37.453125 38.875 40.71875 
Q 34.671875 45.796875 27.984375 45.796875 
Q 21.921875 45.796875 17.796875 41.75 
Q 13.671875 37.703125 13.234375 30.90625 
z
" id="ArialMT-101"/>
      <path d="M 25.78125 7.859375 
L 27.046875 0.09375 
Q 23.34375 -0.6875 20.40625 -0.6875 
Q 15.625 -0.6875 12.984375 0.828125 
Q 10.359375 2.34375 9.28125 4.8125 
Q 8.203125 7.28125 8.203125 15.1875 
L 8.203125 45.015625 
L 1.765625 45.015625 
L 1.765625 51.859375 
L 8.203125 51.859375 
L 8.203125 64.703125 
L 16.9375 69.96875 
L 16.9375 51.859375 
L 25.78125 51.859375 
L 25.78125 45.015625 
L 16.9375 45.015625 
L 16.9375 14.703125 
Q 16.9375 10.9375 17.40625 9.859375 
Q 17.875 8.796875 18.921875 8.15625 
Q 19.96875 7.515625 21.921875 7.515625 
Q 23.390625 7.515625 25.78125 7.859375 
z
" id="ArialMT-116"/>
      <path id="ArialMT-32"/>
      <path d="M 40.4375 19 
L 49.078125 17.875 
Q 47.65625 8.9375 41.8125 3.875 
Q 35.984375 -1.171875 27.484375 -1.171875 
Q 16.84375 -1.171875 10.375 5.78125 
Q 3.90625 12.75 3.90625 25.734375 
Q 3.90625 34.125 6.6875 40.421875 
Q 9.46875 46.734375 15.15625 49.875 
Q 20.84375 53.03125 27.546875 53.03125 
Q 35.984375 53.03125 41.359375 48.75 
Q 46.734375 44.484375 48.25 36.625 
L 39.703125 35.296875 
Q 38.484375 40.53125 35.375 43.15625 
Q 32.28125 45.796875 27.875 45.796875 
Q 21.234375 45.796875 17.078125 41.03125 
Q 12.9375 36.28125 12.9375 25.984375 
Q 12.9375 15.53125 16.9375 10.796875 
Q 20.953125 6.0625 27.390625 6.0625 
Q 32.5625 6.0625 36.03125 9.234375 
Q 39.5 12.40625 40.4375 19 
z
" id="ArialMT-99"/>
      <path d="M 6.5 0 
L 6.5 51.859375 
L 14.40625 51.859375 
L 14.40625 44 
Q 17.4375 49.515625 20 51.265625 
Q 22.5625 53.03125 25.640625 53.03125 
Q 30.078125 53.03125 34.671875 50.203125 
L 31.640625 42.046875 
Q 28.421875 43.953125 25.203125 43.953125 
Q 22.3125 43.953125 20.015625 42.21875 
Q 17.71875 40.484375 16.75 37.40625 
Q 15.28125 32.71875 15.28125 27.15625 
L 15.28125 0 
z
" id="ArialMT-114"/>
     </defs>
     <g style="fill:#262626;" transform="translate(17.936719 198.13125)rotate(-90)scale(0.15 -0.15)">
      <use xlink:href="#ArialMT-83"/>
      <use x="66.699219" xlink:href="#ArialMT-105"/>
      <use x="88.916016" xlink:href="#ArialMT-108"/>
      <use x="111.132812" xlink:href="#ArialMT-104"/>
      <use x="166.748047" xlink:href="#ArialMT-111"/>
      <use x="222.363281" xlink:href="#ArialMT-117"/>
      <use x="277.978516" xlink:href="#ArialMT-101"/>
      <use x="333.59375" xlink:href="#ArialMT-116"/>
      <use x="361.376953" xlink:href="#ArialMT-116"/>
      <use x="389.160156" xlink:href="#ArialMT-101"/>
      <use x="444.775391" xlink:href="#ArialMT-32"/>
      <use x="472.558594" xlink:href="#ArialMT-83"/>
      <use x="539.257812" xlink:href="#ArialMT-99"/>
      <use x="589.257812" xlink:href="#ArialMT-111"/>
      <use x="644.873047" xlink:href="#ArialMT-114"/>
      <use x="678.173828" xlink:href="#ArialMT-101"/>
     </g>
    </g>
   </g>
   <g id="line2d_6">
    <path clip-path="url(#p013573458c)" d="M 65.449787 19.554545 
L 68.064595 42.952395 
L 70.679403 83.033053 
L 73.294211 106.666784 
L 75.909018 109.876057 
L 78.523826 113.872131 
L 81.138634 116.085734 
L 83.753442 123.099745 
L 86.36825 125.691629 
L 88.983058 126.152171 
L 91.597866 127.652626 
L 94.212674 129.487779 
L 96.827481 143.633595 
L 99.442289 147.805606 
L 102.057097 149.674299 
L 104.671905 152.652058 
L 107.286713 154.531291 
L 109.901521 158.316728 
L 112.516329 165.416517 
L 115.131137 166.007622 
L 117.745944 173.100089 
L 120.360752 175.792523 
L 122.97556 179.537305 
L 125.590368 182.563596 
L 128.205176 183.042885 
L 130.819984 186.510146 
L 133.434792 188.409829 
L 136.049599 190.175217 
L 138.664407 190.912738 
L 141.279215 194.204239 
L 143.894023 195.548748 
L 146.508831 197.095926 
L 149.123639 197.955512 
L 151.738447 198.123106 
L 154.353255 200.148631 
L 156.968062 212.720226 
L 159.58287 214.899956 
L 162.197678 218.442904 
L 164.812486 221.631264 
L 167.427294 221.663471 
L 170.042102 224.744761 
L 172.65691 224.635413 
L 175.271718 226.220432 
L 177.886525 226.240225 
L 180.501333 231.855668 
L 183.116141 231.888257 
L 185.730949 231.25243 
L 188.345757 230.430934 
L 190.960565 231.220336 
L 193.575373 232.042986 
L 196.190181 232.647362 
L 198.804988 238.288306 
L 201.419796 238.773999 
L 204.034604 242.051177 
L 206.649412 242.239589 
L 209.26422 241.800875 
L 211.879028 242.277502 
L 214.493836 241.525514 
L 217.108644 243.710441 
L 219.723451 243.998885 
L 222.338259 243.989702 
L 224.953067 243.850444 
L 227.567875 243.848038 
L 230.182683 246.912727 
L 232.797491 247.464621 
L 235.412299 247.605197 
L 238.027107 248.538897 
L 240.641914 248.675032 
L 243.256722 248.756878 
L 245.87153 250.118628 
L 248.486338 249.8585 
L 251.101146 249.691656 
L 253.715954 249.627061 
L 256.330762 249.735144 
L 258.945569 253.592474 
L 261.560377 253.725947 
L 264.175185 254.091294 
L 266.789993 254.0685 
L 269.404801 254.380655 
L 272.019609 256.215978 
L 274.634417 255.183669 
L 277.249225 254.929811 
L 279.864032 254.930578 
L 282.47884 255.66813 
L 285.093648 255.753184 
L 287.708456 257.400804 
L 290.323264 257.392388 
L 292.938072 257.694926 
L 295.55288 259.528815 
L 298.167688 259.43966 
L 300.782495 263.064195 
L 303.397303 263.29481 
L 306.012111 263.499051 
L 308.626919 263.325906 
L 311.241727 264.511673 
L 313.856535 264.963627 
L 316.471343 264.637781 
L 319.086151 266.645455 
" style="fill:none;stroke:#1f77b4;stroke-linecap:round;stroke-width:1.5;"/>
    <defs>
     <path d="M 0 3 
C 0.795609 3 1.55874 2.683901 2.12132 2.12132 
C 2.683901 1.55874 3 0.795609 3 0 
C 3 -0.795609 2.683901 -1.55874 2.12132 -2.12132 
C 1.55874 -2.683901 0.795609 -3 0 -3 
C -0.795609 -3 -1.55874 -2.683901 -2.12132 -2.12132 
C -2.683901 -1.55874 -3 -0.795609 -3 0 
C -3 0.795609 -2.683901 1.55874 -2.12132 2.12132 
C -1.55874 2.683901 -0.795609 3 0 3 
z
" id="mc65ec0c07c" style="stroke:#ffffff;stroke-width:0.75;"/>
    </defs>
    <g clip-path="url(#p013573458c)">
     <use style="fill:#1f77b4;stroke:#ffffff;stroke-width:0.75;" x="65.449787" xlink:href="#mc65ec0c07c" y="19.554545"/>
     <use style="fill:#1f77b4;stroke:#ffffff;stroke-width:0.75;" x="68.064595" xlink:href="#mc65ec0c07c" y="42.952395"/>
     <use style="fill:#1f77b4;stroke:#ffffff;stroke-width:0.75;" x="70.679403" xlink:href="#mc65ec0c07c" y="83.033053"/>
     <use style="fill:#1f77b4;stroke:#ffffff;stroke-width:0.75;" x="73.294211" xlink:href="#mc65ec0c07c" y="106.666784"/>
     <use style="fill:#1f77b4;stroke:#ffffff;stroke-width:0.75;" x="75.909018" xlink:href="#mc65ec0c07c" y="109.876057"/>
     <use style="fill:#1f77b4;stroke:#ffffff;stroke-width:0.75;" x="78.523826" xlink:href="#mc65ec0c07c" y="113.872131"/>
     <use style="fill:#1f77b4;stroke:#ffffff;stroke-width:0.75;" x="81.138634" xlink:href="#mc65ec0c07c" y="116.085734"/>
     <use style="fill:#1f77b4;stroke:#ffffff;stroke-width:0.75;" x="83.753442" xlink:href="#mc65ec0c07c" y="123.099745"/>
     <use style="fill:#1f77b4;stroke:#ffffff;stroke-width:0.75;" x="86.36825" xlink:href="#mc65ec0c07c" y="125.691629"/>
     <use style="fill:#1f77b4;stroke:#ffffff;stroke-width:0.75;" x="88.983058" xlink:href="#mc65ec0c07c" y="126.152171"/>
     <use style="fill:#1f77b4;stroke:#ffffff;stroke-width:0.75;" x="91.597866" xlink:href="#mc65ec0c07c" y="127.652626"/>
     <use style="fill:#1f77b4;stroke:#ffffff;stroke-width:0.75;" x="94.212674" xlink:href="#mc65ec0c07c" y="129.487779"/>
     <use style="fill:#1f77b4;stroke:#ffffff;stroke-width:0.75;" x="96.827481" xlink:href="#mc65ec0c07c" y="143.633595"/>
     <use style="fill:#1f77b4;stroke:#ffffff;stroke-width:0.75;" x="99.442289" xlink:href="#mc65ec0c07c" y="147.805606"/>
     <use style="fill:#1f77b4;stroke:#ffffff;stroke-width:0.75;" x="102.057097" xlink:href="#mc65ec0c07c" y="149.674299"/>
     <use style="fill:#1f77b4;stroke:#ffffff;stroke-width:0.75;" x="104.671905" xlink:href="#mc65ec0c07c" y="152.652058"/>
     <use style="fill:#1f77b4;stroke:#ffffff;stroke-width:0.75;" x="107.286713" xlink:href="#mc65ec0c07c" y="154.531291"/>
     <use style="fill:#1f77b4;stroke:#ffffff;stroke-width:0.75;" x="109.901521" xlink:href="#mc65ec0c07c" y="158.316728"/>
     <use style="fill:#1f77b4;stroke:#ffffff;stroke-width:0.75;" x="112.516329" xlink:href="#mc65ec0c07c" y="165.416517"/>
     <use style="fill:#1f77b4;stroke:#ffffff;stroke-width:0.75;" x="115.131137" xlink:href="#mc65ec0c07c" y="166.007622"/>
     <use style="fill:#1f77b4;stroke:#ffffff;stroke-width:0.75;" x="117.745944" xlink:href="#mc65ec0c07c" y="173.100089"/>
     <use style="fill:#1f77b4;stroke:#ffffff;stroke-width:0.75;" x="120.360752" xlink:href="#mc65ec0c07c" y="175.792523"/>
     <use style="fill:#1f77b4;stroke:#ffffff;stroke-width:0.75;" x="122.97556" xlink:href="#mc65ec0c07c" y="179.537305"/>
     <use style="fill:#1f77b4;stroke:#ffffff;stroke-width:0.75;" x="125.590368" xlink:href="#mc65ec0c07c" y="182.563596"/>
     <use style="fill:#1f77b4;stroke:#ffffff;stroke-width:0.75;" x="128.205176" xlink:href="#mc65ec0c07c" y="183.042885"/>
     <use style="fill:#1f77b4;stroke:#ffffff;stroke-width:0.75;" x="130.819984" xlink:href="#mc65ec0c07c" y="186.510146"/>
     <use style="fill:#1f77b4;stroke:#ffffff;stroke-width:0.75;" x="133.434792" xlink:href="#mc65ec0c07c" y="188.409829"/>
     <use style="fill:#1f77b4;stroke:#ffffff;stroke-width:0.75;" x="136.049599" xlink:href="#mc65ec0c07c" y="190.175217"/>
     <use style="fill:#1f77b4;stroke:#ffffff;stroke-width:0.75;" x="138.664407" xlink:href="#mc65ec0c07c" y="190.912738"/>
     <use style="fill:#1f77b4;stroke:#ffffff;stroke-width:0.75;" x="141.279215" xlink:href="#mc65ec0c07c" y="194.204239"/>
     <use style="fill:#1f77b4;stroke:#ffffff;stroke-width:0.75;" x="143.894023" xlink:href="#mc65ec0c07c" y="195.548748"/>
     <use style="fill:#1f77b4;stroke:#ffffff;stroke-width:0.75;" x="146.508831" xlink:href="#mc65ec0c07c" y="197.095926"/>
     <use style="fill:#1f77b4;stroke:#ffffff;stroke-width:0.75;" x="149.123639" xlink:href="#mc65ec0c07c" y="197.955512"/>
     <use style="fill:#1f77b4;stroke:#ffffff;stroke-width:0.75;" x="151.738447" xlink:href="#mc65ec0c07c" y="198.123106"/>
     <use style="fill:#1f77b4;stroke:#ffffff;stroke-width:0.75;" x="154.353255" xlink:href="#mc65ec0c07c" y="200.148631"/>
     <use style="fill:#1f77b4;stroke:#ffffff;stroke-width:0.75;" x="156.968062" xlink:href="#mc65ec0c07c" y="212.720226"/>
     <use style="fill:#1f77b4;stroke:#ffffff;stroke-width:0.75;" x="159.58287" xlink:href="#mc65ec0c07c" y="214.899956"/>
     <use style="fill:#1f77b4;stroke:#ffffff;stroke-width:0.75;" x="162.197678" xlink:href="#mc65ec0c07c" y="218.442904"/>
     <use style="fill:#1f77b4;stroke:#ffffff;stroke-width:0.75;" x="164.812486" xlink:href="#mc65ec0c07c" y="221.631264"/>
     <use style="fill:#1f77b4;stroke:#ffffff;stroke-width:0.75;" x="167.427294" xlink:href="#mc65ec0c07c" y="221.663471"/>
     <use style="fill:#1f77b4;stroke:#ffffff;stroke-width:0.75;" x="170.042102" xlink:href="#mc65ec0c07c" y="224.744761"/>
     <use style="fill:#1f77b4;stroke:#ffffff;stroke-width:0.75;" x="172.65691" xlink:href="#mc65ec0c07c" y="224.635413"/>
     <use style="fill:#1f77b4;stroke:#ffffff;stroke-width:0.75;" x="175.271718" xlink:href="#mc65ec0c07c" y="226.220432"/>
     <use style="fill:#1f77b4;stroke:#ffffff;stroke-width:0.75;" x="177.886525" xlink:href="#mc65ec0c07c" y="226.240225"/>
     <use style="fill:#1f77b4;stroke:#ffffff;stroke-width:0.75;" x="180.501333" xlink:href="#mc65ec0c07c" y="231.855668"/>
     <use style="fill:#1f77b4;stroke:#ffffff;stroke-width:0.75;" x="183.116141" xlink:href="#mc65ec0c07c" y="231.888257"/>
     <use style="fill:#1f77b4;stroke:#ffffff;stroke-width:0.75;" x="185.730949" xlink:href="#mc65ec0c07c" y="231.25243"/>
     <use style="fill:#1f77b4;stroke:#ffffff;stroke-width:0.75;" x="188.345757" xlink:href="#mc65ec0c07c" y="230.430934"/>
     <use style="fill:#1f77b4;stroke:#ffffff;stroke-width:0.75;" x="190.960565" xlink:href="#mc65ec0c07c" y="231.220336"/>
     <use style="fill:#1f77b4;stroke:#ffffff;stroke-width:0.75;" x="193.575373" xlink:href="#mc65ec0c07c" y="232.042986"/>
     <use style="fill:#1f77b4;stroke:#ffffff;stroke-width:0.75;" x="196.190181" xlink:href="#mc65ec0c07c" y="232.647362"/>
     <use style="fill:#1f77b4;stroke:#ffffff;stroke-width:0.75;" x="198.804988" xlink:href="#mc65ec0c07c" y="238.288306"/>
     <use style="fill:#1f77b4;stroke:#ffffff;stroke-width:0.75;" x="201.419796" xlink:href="#mc65ec0c07c" y="238.773999"/>
     <use style="fill:#1f77b4;stroke:#ffffff;stroke-width:0.75;" x="204.034604" xlink:href="#mc65ec0c07c" y="242.051177"/>
     <use style="fill:#1f77b4;stroke:#ffffff;stroke-width:0.75;" x="206.649412" xlink:href="#mc65ec0c07c" y="242.239589"/>
     <use style="fill:#1f77b4;stroke:#ffffff;stroke-width:0.75;" x="209.26422" xlink:href="#mc65ec0c07c" y="241.800875"/>
     <use style="fill:#1f77b4;stroke:#ffffff;stroke-width:0.75;" x="211.879028" xlink:href="#mc65ec0c07c" y="242.277502"/>
     <use style="fill:#1f77b4;stroke:#ffffff;stroke-width:0.75;" x="214.493836" xlink:href="#mc65ec0c07c" y="241.525514"/>
     <use style="fill:#1f77b4;stroke:#ffffff;stroke-width:0.75;" x="217.108644" xlink:href="#mc65ec0c07c" y="243.710441"/>
     <use style="fill:#1f77b4;stroke:#ffffff;stroke-width:0.75;" x="219.723451" xlink:href="#mc65ec0c07c" y="243.998885"/>
     <use style="fill:#1f77b4;stroke:#ffffff;stroke-width:0.75;" x="222.338259" xlink:href="#mc65ec0c07c" y="243.989702"/>
     <use style="fill:#1f77b4;stroke:#ffffff;stroke-width:0.75;" x="224.953067" xlink:href="#mc65ec0c07c" y="243.850444"/>
     <use style="fill:#1f77b4;stroke:#ffffff;stroke-width:0.75;" x="227.567875" xlink:href="#mc65ec0c07c" y="243.848038"/>
     <use style="fill:#1f77b4;stroke:#ffffff;stroke-width:0.75;" x="230.182683" xlink:href="#mc65ec0c07c" y="246.912727"/>
     <use style="fill:#1f77b4;stroke:#ffffff;stroke-width:0.75;" x="232.797491" xlink:href="#mc65ec0c07c" y="247.464621"/>
     <use style="fill:#1f77b4;stroke:#ffffff;stroke-width:0.75;" x="235.412299" xlink:href="#mc65ec0c07c" y="247.605197"/>
     <use style="fill:#1f77b4;stroke:#ffffff;stroke-width:0.75;" x="238.027107" xlink:href="#mc65ec0c07c" y="248.538897"/>
     <use style="fill:#1f77b4;stroke:#ffffff;stroke-width:0.75;" x="240.641914" xlink:href="#mc65ec0c07c" y="248.675032"/>
     <use style="fill:#1f77b4;stroke:#ffffff;stroke-width:0.75;" x="243.256722" xlink:href="#mc65ec0c07c" y="248.756878"/>
     <use style="fill:#1f77b4;stroke:#ffffff;stroke-width:0.75;" x="245.87153" xlink:href="#mc65ec0c07c" y="250.118628"/>
     <use style="fill:#1f77b4;stroke:#ffffff;stroke-width:0.75;" x="248.486338" xlink:href="#mc65ec0c07c" y="249.8585"/>
     <use style="fill:#1f77b4;stroke:#ffffff;stroke-width:0.75;" x="251.101146" xlink:href="#mc65ec0c07c" y="249.691656"/>
     <use style="fill:#1f77b4;stroke:#ffffff;stroke-width:0.75;" x="253.715954" xlink:href="#mc65ec0c07c" y="249.627061"/>
     <use style="fill:#1f77b4;stroke:#ffffff;stroke-width:0.75;" x="256.330762" xlink:href="#mc65ec0c07c" y="249.735144"/>
     <use style="fill:#1f77b4;stroke:#ffffff;stroke-width:0.75;" x="258.945569" xlink:href="#mc65ec0c07c" y="253.592474"/>
     <use style="fill:#1f77b4;stroke:#ffffff;stroke-width:0.75;" x="261.560377" xlink:href="#mc65ec0c07c" y="253.725947"/>
     <use style="fill:#1f77b4;stroke:#ffffff;stroke-width:0.75;" x="264.175185" xlink:href="#mc65ec0c07c" y="254.091294"/>
     <use style="fill:#1f77b4;stroke:#ffffff;stroke-width:0.75;" x="266.789993" xlink:href="#mc65ec0c07c" y="254.0685"/>
     <use style="fill:#1f77b4;stroke:#ffffff;stroke-width:0.75;" x="269.404801" xlink:href="#mc65ec0c07c" y="254.380655"/>
     <use style="fill:#1f77b4;stroke:#ffffff;stroke-width:0.75;" x="272.019609" xlink:href="#mc65ec0c07c" y="256.215978"/>
     <use style="fill:#1f77b4;stroke:#ffffff;stroke-width:0.75;" x="274.634417" xlink:href="#mc65ec0c07c" y="255.183669"/>
     <use style="fill:#1f77b4;stroke:#ffffff;stroke-width:0.75;" x="277.249225" xlink:href="#mc65ec0c07c" y="254.929811"/>
     <use style="fill:#1f77b4;stroke:#ffffff;stroke-width:0.75;" x="279.864032" xlink:href="#mc65ec0c07c" y="254.930578"/>
     <use style="fill:#1f77b4;stroke:#ffffff;stroke-width:0.75;" x="282.47884" xlink:href="#mc65ec0c07c" y="255.66813"/>
     <use style="fill:#1f77b4;stroke:#ffffff;stroke-width:0.75;" x="285.093648" xlink:href="#mc65ec0c07c" y="255.753184"/>
     <use style="fill:#1f77b4;stroke:#ffffff;stroke-width:0.75;" x="287.708456" xlink:href="#mc65ec0c07c" y="257.400804"/>
     <use style="fill:#1f77b4;stroke:#ffffff;stroke-width:0.75;" x="290.323264" xlink:href="#mc65ec0c07c" y="257.392388"/>
     <use style="fill:#1f77b4;stroke:#ffffff;stroke-width:0.75;" x="292.938072" xlink:href="#mc65ec0c07c" y="257.694926"/>
     <use style="fill:#1f77b4;stroke:#ffffff;stroke-width:0.75;" x="295.55288" xlink:href="#mc65ec0c07c" y="259.528815"/>
     <use style="fill:#1f77b4;stroke:#ffffff;stroke-width:0.75;" x="298.167688" xlink:href="#mc65ec0c07c" y="259.43966"/>
     <use style="fill:#1f77b4;stroke:#ffffff;stroke-width:0.75;" x="300.782495" xlink:href="#mc65ec0c07c" y="263.064195"/>
     <use style="fill:#1f77b4;stroke:#ffffff;stroke-width:0.75;" x="303.397303" xlink:href="#mc65ec0c07c" y="263.29481"/>
     <use style="fill:#1f77b4;stroke:#ffffff;stroke-width:0.75;" x="306.012111" xlink:href="#mc65ec0c07c" y="263.499051"/>
     <use style="fill:#1f77b4;stroke:#ffffff;stroke-width:0.75;" x="308.626919" xlink:href="#mc65ec0c07c" y="263.325906"/>
     <use style="fill:#1f77b4;stroke:#ffffff;stroke-width:0.75;" x="311.241727" xlink:href="#mc65ec0c07c" y="264.511673"/>
     <use style="fill:#1f77b4;stroke:#ffffff;stroke-width:0.75;" x="313.856535" xlink:href="#mc65ec0c07c" y="264.963627"/>
     <use style="fill:#1f77b4;stroke:#ffffff;stroke-width:0.75;" x="316.471343" xlink:href="#mc65ec0c07c" y="264.637781"/>
     <use style="fill:#1f77b4;stroke:#ffffff;stroke-width:0.75;" x="319.086151" xlink:href="#mc65ec0c07c" y="266.645455"/>
    </g>
   </g>
   <g id="line2d_7">
    <path clip-path="url(#p013573458c)" d="M 65.449787 92.540989 
L 68.064595 106.287807 
L 70.679403 218.106207 
L 73.294211 226.931825 
L 75.909018 223.352476 
L 78.523826 222.958887 
L 81.138634 228.030651 
L 83.753442 228.4729 
L 86.36825 240.799595 
L 88.983058 240.721739 
L 91.597866 238.598054 
L 94.212674 237.555885 
L 96.827481 237.246495 
L 99.442289 237.024115 
L 102.057097 232.196371 
L 104.671905 231.901803 
L 107.286713 231.581288 
L 109.901521 232.102355 
L 112.516329 232.373851 
L 115.131137 229.716774 
L 117.745944 230.649867 
L 120.360752 230.431945 
L 122.97556 229.686085 
L 125.590368 228.93605 
L 128.205176 228.806844 
L 130.819984 229.137354 
L 133.434792 228.871797 
L 136.049599 229.335433 
L 138.664407 229.396254 
L 141.279215 229.34845 
L 143.894023 228.527904 
L 146.508831 227.780702 
L 149.123639 227.727229 
L 151.738447 227.316261 
L 154.353255 227.336188 
L 156.968062 224.818964 
L 159.58287 224.836152 
L 162.197678 224.767302 
L 164.812486 225.210518 
L 167.427294 225.010376 
L 170.042102 225.384619 
L 172.65691 225.84274 
L 175.271718 225.693899 
L 177.886525 225.460553 
L 180.501333 225.593422 
L 183.116141 225.552331 
L 185.730949 225.428269 
L 188.345757 225.332042 
L 190.960565 225.257922 
L 193.575373 225.305765 
L 196.190181 225.087311 
L 198.804988 224.92417 
L 201.419796 225.50317 
L 204.034604 225.564904 
L 206.649412 224.707857 
L 209.26422 224.817779 
L 211.879028 224.642106 
L 214.493836 224.560566 
L 217.108644 224.214915 
L 219.723451 224.377815 
L 222.338259 224.386792 
L 224.953067 224.428755 
L 227.567875 223.300985 
L 230.182683 222.992123 
L 232.797491 222.41273 
L 235.412299 221.974665 
L 238.027107 222.109234 
L 240.641914 222.387573 
L 243.256722 221.979777 
L 245.87153 222.007552 
L 248.486338 221.546355 
L 251.101146 221.311057 
L 253.715954 220.902303 
L 256.330762 220.775346 
L 258.945569 220.723009 
L 261.560377 220.552842 
L 264.175185 220.815837 
L 266.789993 220.618386 
L 269.404801 220.638294 
L 272.019609 220.65324 
L 274.634417 220.751012 
L 277.249225 220.801629 
L 279.864032 220.6363 
L 282.47884 220.443562 
L 285.093648 220.19453 
L 287.708456 219.903362 
L 290.323264 220.184265 
L 292.938072 220.091859 
L 295.55288 220.034546 
L 298.167688 220.204778 
L 300.782495 220.05659 
L 303.397303 219.947921 
L 306.012111 219.654966 
L 308.626919 219.811393 
L 311.241727 220.167531 
L 313.856535 220.013163 
L 316.471343 219.868056 
L 319.086151 219.937982 
" style="fill:none;stroke:#ff7f0e;stroke-linecap:round;stroke-width:1.5;"/>
    <defs>
     <path d="M 0 3 
C 0.795609 3 1.55874 2.683901 2.12132 2.12132 
C 2.683901 1.55874 3 0.795609 3 0 
C 3 -0.795609 2.683901 -1.55874 2.12132 -2.12132 
C 1.55874 -2.683901 0.795609 -3 0 -3 
C -0.795609 -3 -1.55874 -2.683901 -2.12132 -2.12132 
C -2.683901 -1.55874 -3 -0.795609 -3 0 
C -3 0.795609 -2.683901 1.55874 -2.12132 2.12132 
C -1.55874 2.683901 -0.795609 3 0 3 
z
" id="m02798faf1b" style="stroke:#ffffff;stroke-width:0.75;"/>
    </defs>
    <g clip-path="url(#p013573458c)">
     <use style="fill:#ff7f0e;stroke:#ffffff;stroke-width:0.75;" x="65.449787" xlink:href="#m02798faf1b" y="92.540989"/>
     <use style="fill:#ff7f0e;stroke:#ffffff;stroke-width:0.75;" x="68.064595" xlink:href="#m02798faf1b" y="106.287807"/>
     <use style="fill:#ff7f0e;stroke:#ffffff;stroke-width:0.75;" x="70.679403" xlink:href="#m02798faf1b" y="218.106207"/>
     <use style="fill:#ff7f0e;stroke:#ffffff;stroke-width:0.75;" x="73.294211" xlink:href="#m02798faf1b" y="226.931825"/>
     <use style="fill:#ff7f0e;stroke:#ffffff;stroke-width:0.75;" x="75.909018" xlink:href="#m02798faf1b" y="223.352476"/>
     <use style="fill:#ff7f0e;stroke:#ffffff;stroke-width:0.75;" x="78.523826" xlink:href="#m02798faf1b" y="222.958887"/>
     <use style="fill:#ff7f0e;stroke:#ffffff;stroke-width:0.75;" x="81.138634" xlink:href="#m02798faf1b" y="228.030651"/>
     <use style="fill:#ff7f0e;stroke:#ffffff;stroke-width:0.75;" x="83.753442" xlink:href="#m02798faf1b" y="228.4729"/>
     <use style="fill:#ff7f0e;stroke:#ffffff;stroke-width:0.75;" x="86.36825" xlink:href="#m02798faf1b" y="240.799595"/>
     <use style="fill:#ff7f0e;stroke:#ffffff;stroke-width:0.75;" x="88.983058" xlink:href="#m02798faf1b" y="240.721739"/>
     <use style="fill:#ff7f0e;stroke:#ffffff;stroke-width:0.75;" x="91.597866" xlink:href="#m02798faf1b" y="238.598054"/>
     <use style="fill:#ff7f0e;stroke:#ffffff;stroke-width:0.75;" x="94.212674" xlink:href="#m02798faf1b" y="237.555885"/>
     <use style="fill:#ff7f0e;stroke:#ffffff;stroke-width:0.75;" x="96.827481" xlink:href="#m02798faf1b" y="237.246495"/>
     <use style="fill:#ff7f0e;stroke:#ffffff;stroke-width:0.75;" x="99.442289" xlink:href="#m02798faf1b" y="237.024115"/>
     <use style="fill:#ff7f0e;stroke:#ffffff;stroke-width:0.75;" x="102.057097" xlink:href="#m02798faf1b" y="232.196371"/>
     <use style="fill:#ff7f0e;stroke:#ffffff;stroke-width:0.75;" x="104.671905" xlink:href="#m02798faf1b" y="231.901803"/>
     <use style="fill:#ff7f0e;stroke:#ffffff;stroke-width:0.75;" x="107.286713" xlink:href="#m02798faf1b" y="231.581288"/>
     <use style="fill:#ff7f0e;stroke:#ffffff;stroke-width:0.75;" x="109.901521" xlink:href="#m02798faf1b" y="232.102355"/>
     <use style="fill:#ff7f0e;stroke:#ffffff;stroke-width:0.75;" x="112.516329" xlink:href="#m02798faf1b" y="232.373851"/>
     <use style="fill:#ff7f0e;stroke:#ffffff;stroke-width:0.75;" x="115.131137" xlink:href="#m02798faf1b" y="229.716774"/>
     <use style="fill:#ff7f0e;stroke:#ffffff;stroke-width:0.75;" x="117.745944" xlink:href="#m02798faf1b" y="230.649867"/>
     <use style="fill:#ff7f0e;stroke:#ffffff;stroke-width:0.75;" x="120.360752" xlink:href="#m02798faf1b" y="230.431945"/>
     <use style="fill:#ff7f0e;stroke:#ffffff;stroke-width:0.75;" x="122.97556" xlink:href="#m02798faf1b" y="229.686085"/>
     <use style="fill:#ff7f0e;stroke:#ffffff;stroke-width:0.75;" x="125.590368" xlink:href="#m02798faf1b" y="228.93605"/>
     <use style="fill:#ff7f0e;stroke:#ffffff;stroke-width:0.75;" x="128.205176" xlink:href="#m02798faf1b" y="228.806844"/>
     <use style="fill:#ff7f0e;stroke:#ffffff;stroke-width:0.75;" x="130.819984" xlink:href="#m02798faf1b" y="229.137354"/>
     <use style="fill:#ff7f0e;stroke:#ffffff;stroke-width:0.75;" x="133.434792" xlink:href="#m02798faf1b" y="228.871797"/>
     <use style="fill:#ff7f0e;stroke:#ffffff;stroke-width:0.75;" x="136.049599" xlink:href="#m02798faf1b" y="229.335433"/>
     <use style="fill:#ff7f0e;stroke:#ffffff;stroke-width:0.75;" x="138.664407" xlink:href="#m02798faf1b" y="229.396254"/>
     <use style="fill:#ff7f0e;stroke:#ffffff;stroke-width:0.75;" x="141.279215" xlink:href="#m02798faf1b" y="229.34845"/>
     <use style="fill:#ff7f0e;stroke:#ffffff;stroke-width:0.75;" x="143.894023" xlink:href="#m02798faf1b" y="228.527904"/>
     <use style="fill:#ff7f0e;stroke:#ffffff;stroke-width:0.75;" x="146.508831" xlink:href="#m02798faf1b" y="227.780702"/>
     <use style="fill:#ff7f0e;stroke:#ffffff;stroke-width:0.75;" x="149.123639" xlink:href="#m02798faf1b" y="227.727229"/>
     <use style="fill:#ff7f0e;stroke:#ffffff;stroke-width:0.75;" x="151.738447" xlink:href="#m02798faf1b" y="227.316261"/>
     <use style="fill:#ff7f0e;stroke:#ffffff;stroke-width:0.75;" x="154.353255" xlink:href="#m02798faf1b" y="227.336188"/>
     <use style="fill:#ff7f0e;stroke:#ffffff;stroke-width:0.75;" x="156.968062" xlink:href="#m02798faf1b" y="224.818964"/>
     <use style="fill:#ff7f0e;stroke:#ffffff;stroke-width:0.75;" x="159.58287" xlink:href="#m02798faf1b" y="224.836152"/>
     <use style="fill:#ff7f0e;stroke:#ffffff;stroke-width:0.75;" x="162.197678" xlink:href="#m02798faf1b" y="224.767302"/>
     <use style="fill:#ff7f0e;stroke:#ffffff;stroke-width:0.75;" x="164.812486" xlink:href="#m02798faf1b" y="225.210518"/>
     <use style="fill:#ff7f0e;stroke:#ffffff;stroke-width:0.75;" x="167.427294" xlink:href="#m02798faf1b" y="225.010376"/>
     <use style="fill:#ff7f0e;stroke:#ffffff;stroke-width:0.75;" x="170.042102" xlink:href="#m02798faf1b" y="225.384619"/>
     <use style="fill:#ff7f0e;stroke:#ffffff;stroke-width:0.75;" x="172.65691" xlink:href="#m02798faf1b" y="225.84274"/>
     <use style="fill:#ff7f0e;stroke:#ffffff;stroke-width:0.75;" x="175.271718" xlink:href="#m02798faf1b" y="225.693899"/>
     <use style="fill:#ff7f0e;stroke:#ffffff;stroke-width:0.75;" x="177.886525" xlink:href="#m02798faf1b" y="225.460553"/>
     <use style="fill:#ff7f0e;stroke:#ffffff;stroke-width:0.75;" x="180.501333" xlink:href="#m02798faf1b" y="225.593422"/>
     <use style="fill:#ff7f0e;stroke:#ffffff;stroke-width:0.75;" x="183.116141" xlink:href="#m02798faf1b" y="225.552331"/>
     <use style="fill:#ff7f0e;stroke:#ffffff;stroke-width:0.75;" x="185.730949" xlink:href="#m02798faf1b" y="225.428269"/>
     <use style="fill:#ff7f0e;stroke:#ffffff;stroke-width:0.75;" x="188.345757" xlink:href="#m02798faf1b" y="225.332042"/>
     <use style="fill:#ff7f0e;stroke:#ffffff;stroke-width:0.75;" x="190.960565" xlink:href="#m02798faf1b" y="225.257922"/>
     <use style="fill:#ff7f0e;stroke:#ffffff;stroke-width:0.75;" x="193.575373" xlink:href="#m02798faf1b" y="225.305765"/>
     <use style="fill:#ff7f0e;stroke:#ffffff;stroke-width:0.75;" x="196.190181" xlink:href="#m02798faf1b" y="225.087311"/>
     <use style="fill:#ff7f0e;stroke:#ffffff;stroke-width:0.75;" x="198.804988" xlink:href="#m02798faf1b" y="224.92417"/>
     <use style="fill:#ff7f0e;stroke:#ffffff;stroke-width:0.75;" x="201.419796" xlink:href="#m02798faf1b" y="225.50317"/>
     <use style="fill:#ff7f0e;stroke:#ffffff;stroke-width:0.75;" x="204.034604" xlink:href="#m02798faf1b" y="225.564904"/>
     <use style="fill:#ff7f0e;stroke:#ffffff;stroke-width:0.75;" x="206.649412" xlink:href="#m02798faf1b" y="224.707857"/>
     <use style="fill:#ff7f0e;stroke:#ffffff;stroke-width:0.75;" x="209.26422" xlink:href="#m02798faf1b" y="224.817779"/>
     <use style="fill:#ff7f0e;stroke:#ffffff;stroke-width:0.75;" x="211.879028" xlink:href="#m02798faf1b" y="224.642106"/>
     <use style="fill:#ff7f0e;stroke:#ffffff;stroke-width:0.75;" x="214.493836" xlink:href="#m02798faf1b" y="224.560566"/>
     <use style="fill:#ff7f0e;stroke:#ffffff;stroke-width:0.75;" x="217.108644" xlink:href="#m02798faf1b" y="224.214915"/>
     <use style="fill:#ff7f0e;stroke:#ffffff;stroke-width:0.75;" x="219.723451" xlink:href="#m02798faf1b" y="224.377815"/>
     <use style="fill:#ff7f0e;stroke:#ffffff;stroke-width:0.75;" x="222.338259" xlink:href="#m02798faf1b" y="224.386792"/>
     <use style="fill:#ff7f0e;stroke:#ffffff;stroke-width:0.75;" x="224.953067" xlink:href="#m02798faf1b" y="224.428755"/>
     <use style="fill:#ff7f0e;stroke:#ffffff;stroke-width:0.75;" x="227.567875" xlink:href="#m02798faf1b" y="223.300985"/>
     <use style="fill:#ff7f0e;stroke:#ffffff;stroke-width:0.75;" x="230.182683" xlink:href="#m02798faf1b" y="222.992123"/>
     <use style="fill:#ff7f0e;stroke:#ffffff;stroke-width:0.75;" x="232.797491" xlink:href="#m02798faf1b" y="222.41273"/>
     <use style="fill:#ff7f0e;stroke:#ffffff;stroke-width:0.75;" x="235.412299" xlink:href="#m02798faf1b" y="221.974665"/>
     <use style="fill:#ff7f0e;stroke:#ffffff;stroke-width:0.75;" x="238.027107" xlink:href="#m02798faf1b" y="222.109234"/>
     <use style="fill:#ff7f0e;stroke:#ffffff;stroke-width:0.75;" x="240.641914" xlink:href="#m02798faf1b" y="222.387573"/>
     <use style="fill:#ff7f0e;stroke:#ffffff;stroke-width:0.75;" x="243.256722" xlink:href="#m02798faf1b" y="221.979777"/>
     <use style="fill:#ff7f0e;stroke:#ffffff;stroke-width:0.75;" x="245.87153" xlink:href="#m02798faf1b" y="222.007552"/>
     <use style="fill:#ff7f0e;stroke:#ffffff;stroke-width:0.75;" x="248.486338" xlink:href="#m02798faf1b" y="221.546355"/>
     <use style="fill:#ff7f0e;stroke:#ffffff;stroke-width:0.75;" x="251.101146" xlink:href="#m02798faf1b" y="221.311057"/>
     <use style="fill:#ff7f0e;stroke:#ffffff;stroke-width:0.75;" x="253.715954" xlink:href="#m02798faf1b" y="220.902303"/>
     <use style="fill:#ff7f0e;stroke:#ffffff;stroke-width:0.75;" x="256.330762" xlink:href="#m02798faf1b" y="220.775346"/>
     <use style="fill:#ff7f0e;stroke:#ffffff;stroke-width:0.75;" x="258.945569" xlink:href="#m02798faf1b" y="220.723009"/>
     <use style="fill:#ff7f0e;stroke:#ffffff;stroke-width:0.75;" x="261.560377" xlink:href="#m02798faf1b" y="220.552842"/>
     <use style="fill:#ff7f0e;stroke:#ffffff;stroke-width:0.75;" x="264.175185" xlink:href="#m02798faf1b" y="220.815837"/>
     <use style="fill:#ff7f0e;stroke:#ffffff;stroke-width:0.75;" x="266.789993" xlink:href="#m02798faf1b" y="220.618386"/>
     <use style="fill:#ff7f0e;stroke:#ffffff;stroke-width:0.75;" x="269.404801" xlink:href="#m02798faf1b" y="220.638294"/>
     <use style="fill:#ff7f0e;stroke:#ffffff;stroke-width:0.75;" x="272.019609" xlink:href="#m02798faf1b" y="220.65324"/>
     <use style="fill:#ff7f0e;stroke:#ffffff;stroke-width:0.75;" x="274.634417" xlink:href="#m02798faf1b" y="220.751012"/>
     <use style="fill:#ff7f0e;stroke:#ffffff;stroke-width:0.75;" x="277.249225" xlink:href="#m02798faf1b" y="220.801629"/>
     <use style="fill:#ff7f0e;stroke:#ffffff;stroke-width:0.75;" x="279.864032" xlink:href="#m02798faf1b" y="220.6363"/>
     <use style="fill:#ff7f0e;stroke:#ffffff;stroke-width:0.75;" x="282.47884" xlink:href="#m02798faf1b" y="220.443562"/>
     <use style="fill:#ff7f0e;stroke:#ffffff;stroke-width:0.75;" x="285.093648" xlink:href="#m02798faf1b" y="220.19453"/>
     <use style="fill:#ff7f0e;stroke:#ffffff;stroke-width:0.75;" x="287.708456" xlink:href="#m02798faf1b" y="219.903362"/>
     <use style="fill:#ff7f0e;stroke:#ffffff;stroke-width:0.75;" x="290.323264" xlink:href="#m02798faf1b" y="220.184265"/>
     <use style="fill:#ff7f0e;stroke:#ffffff;stroke-width:0.75;" x="292.938072" xlink:href="#m02798faf1b" y="220.091859"/>
     <use style="fill:#ff7f0e;stroke:#ffffff;stroke-width:0.75;" x="295.55288" xlink:href="#m02798faf1b" y="220.034546"/>
     <use style="fill:#ff7f0e;stroke:#ffffff;stroke-width:0.75;" x="298.167688" xlink:href="#m02798faf1b" y="220.204778"/>
     <use style="fill:#ff7f0e;stroke:#ffffff;stroke-width:0.75;" x="300.782495" xlink:href="#m02798faf1b" y="220.05659"/>
     <use style="fill:#ff7f0e;stroke:#ffffff;stroke-width:0.75;" x="303.397303" xlink:href="#m02798faf1b" y="219.947921"/>
     <use style="fill:#ff7f0e;stroke:#ffffff;stroke-width:0.75;" x="306.012111" xlink:href="#m02798faf1b" y="219.654966"/>
     <use style="fill:#ff7f0e;stroke:#ffffff;stroke-width:0.75;" x="308.626919" xlink:href="#m02798faf1b" y="219.811393"/>
     <use style="fill:#ff7f0e;stroke:#ffffff;stroke-width:0.75;" x="311.241727" xlink:href="#m02798faf1b" y="220.167531"/>
     <use style="fill:#ff7f0e;stroke:#ffffff;stroke-width:0.75;" x="313.856535" xlink:href="#m02798faf1b" y="220.013163"/>
     <use style="fill:#ff7f0e;stroke:#ffffff;stroke-width:0.75;" x="316.471343" xlink:href="#m02798faf1b" y="219.868056"/>
     <use style="fill:#ff7f0e;stroke:#ffffff;stroke-width:0.75;" x="319.086151" xlink:href="#m02798faf1b" y="219.937982"/>
    </g>
   </g>
   <g id="line2d_8">
    <path clip-path="url(#p013573458c)" d="M 65.449787 220.577748 
L 68.064595 220.909523 
L 70.679403 221.471032 
L 73.294211 221.740339 
L 75.909018 221.613775 
L 78.523826 221.195605 
L 81.138634 221.257661 
L 83.753442 221.324809 
L 86.36825 221.38742 
L 88.983058 221.39382 
L 91.597866 221.159715 
L 94.212674 222.348747 
L 96.827481 222.538817 
L 99.442289 222.696098 
L 102.057097 222.804746 
L 104.671905 223.272036 
L 107.286713 224.14593 
L 109.901521 224.24103 
L 112.516329 224.298267 
L 115.131137 224.886867 
L 117.745944 227.826765 
L 120.360752 227.934883 
L 122.97556 228.09345 
L 125.590368 228.962363 
L 128.205176 229.118112 
L 130.819984 236.081194 
L 133.434792 236.202468 
L 136.049599 236.268158 
L 138.664407 239.579732 
L 141.279215 233.999821 
L 143.894023 231.875254 
L 146.508831 231.928826 
L 149.123639 232.081405 
L 151.738447 232.284252 
L 154.353255 232.68393 
L 156.968062 232.845005 
L 159.58287 233.120893 
L 162.197678 235.695038 
L 164.812486 231.732152 
L 167.427294 232.236385 
L 170.042102 232.242172 
L 172.65691 232.389371 
L 175.271718 232.667412 
L 177.886525 232.472818 
L 180.501333 237.169733 
L 183.116141 238.215436 
L 185.730949 237.796651 
L 188.345757 237.859697 
L 190.960565 237.940042 
L 193.575373 238.360793 
L 196.190181 238.11847 
L 198.804988 238.268143 
L 201.419796 238.312554 
L 204.034604 237.852365 
L 206.649412 238.000398 
L 209.26422 238.161173 
L 211.879028 238.541398 
L 214.493836 238.677487 
L 217.108644 239.358379 
L 219.723451 238.997385 
L 222.338259 230.014683 
L 224.953067 230.088869 
L 227.567875 230.251192 
L 230.182683 229.187537 
L 232.797491 229.452057 
L 235.412299 229.160738 
L 238.027107 228.993528 
L 240.641914 229.085007 
L 243.256722 228.935795 
L 245.87153 229.051212 
L 248.486338 229.033125 
L 251.101146 231.430879 
L 253.715954 231.227645 
L 256.330762 231.227331 
L 258.945569 232.018222 
L 261.560377 232.113584 
L 264.175185 228.003308 
L 266.789993 228.133465 
L 269.404801 225.765476 
L 272.019609 225.888597 
L 274.634417 226.097802 
L 277.249225 225.973556 
L 279.864032 225.129513 
L 282.47884 225.260421 
L 285.093648 225.152168 
L 287.708456 224.986091 
L 290.323264 224.553991 
L 292.938072 223.670369 
L 295.55288 223.738077 
L 298.167688 222.145177 
L 300.782495 222.357973 
L 303.397303 223.038331 
L 306.012111 222.675125 
L 308.626919 222.658035 
L 311.241727 223.07599 
L 313.856535 223.103619 
L 316.471343 223.21469 
L 319.086151 223.340241 
" style="fill:none;stroke:#2ca02c;stroke-linecap:round;stroke-width:1.5;"/>
    <defs>
     <path d="M 0 3 
C 0.795609 3 1.55874 2.683901 2.12132 2.12132 
C 2.683901 1.55874 3 0.795609 3 0 
C 3 -0.795609 2.683901 -1.55874 2.12132 -2.12132 
C 1.55874 -2.683901 0.795609 -3 0 -3 
C -0.795609 -3 -1.55874 -2.683901 -2.12132 -2.12132 
C -2.683901 -1.55874 -3 -0.795609 -3 0 
C -3 0.795609 -2.683901 1.55874 -2.12132 2.12132 
C -1.55874 2.683901 -0.795609 3 0 3 
z
" id="mf852cad45c" style="stroke:#ffffff;stroke-width:0.75;"/>
    </defs>
    <g clip-path="url(#p013573458c)">
     <use style="fill:#2ca02c;stroke:#ffffff;stroke-width:0.75;" x="65.449787" xlink:href="#mf852cad45c" y="220.577748"/>
     <use style="fill:#2ca02c;stroke:#ffffff;stroke-width:0.75;" x="68.064595" xlink:href="#mf852cad45c" y="220.909523"/>
     <use style="fill:#2ca02c;stroke:#ffffff;stroke-width:0.75;" x="70.679403" xlink:href="#mf852cad45c" y="221.471032"/>
     <use style="fill:#2ca02c;stroke:#ffffff;stroke-width:0.75;" x="73.294211" xlink:href="#mf852cad45c" y="221.740339"/>
     <use style="fill:#2ca02c;stroke:#ffffff;stroke-width:0.75;" x="75.909018" xlink:href="#mf852cad45c" y="221.613775"/>
     <use style="fill:#2ca02c;stroke:#ffffff;stroke-width:0.75;" x="78.523826" xlink:href="#mf852cad45c" y="221.195605"/>
     <use style="fill:#2ca02c;stroke:#ffffff;stroke-width:0.75;" x="81.138634" xlink:href="#mf852cad45c" y="221.257661"/>
     <use style="fill:#2ca02c;stroke:#ffffff;stroke-width:0.75;" x="83.753442" xlink:href="#mf852cad45c" y="221.324809"/>
     <use style="fill:#2ca02c;stroke:#ffffff;stroke-width:0.75;" x="86.36825" xlink:href="#mf852cad45c" y="221.38742"/>
     <use style="fill:#2ca02c;stroke:#ffffff;stroke-width:0.75;" x="88.983058" xlink:href="#mf852cad45c" y="221.39382"/>
     <use style="fill:#2ca02c;stroke:#ffffff;stroke-width:0.75;" x="91.597866" xlink:href="#mf852cad45c" y="221.159715"/>
     <use style="fill:#2ca02c;stroke:#ffffff;stroke-width:0.75;" x="94.212674" xlink:href="#mf852cad45c" y="222.348747"/>
     <use style="fill:#2ca02c;stroke:#ffffff;stroke-width:0.75;" x="96.827481" xlink:href="#mf852cad45c" y="222.538817"/>
     <use style="fill:#2ca02c;stroke:#ffffff;stroke-width:0.75;" x="99.442289" xlink:href="#mf852cad45c" y="222.696098"/>
     <use style="fill:#2ca02c;stroke:#ffffff;stroke-width:0.75;" x="102.057097" xlink:href="#mf852cad45c" y="222.804746"/>
     <use style="fill:#2ca02c;stroke:#ffffff;stroke-width:0.75;" x="104.671905" xlink:href="#mf852cad45c" y="223.272036"/>
     <use style="fill:#2ca02c;stroke:#ffffff;stroke-width:0.75;" x="107.286713" xlink:href="#mf852cad45c" y="224.14593"/>
     <use style="fill:#2ca02c;stroke:#ffffff;stroke-width:0.75;" x="109.901521" xlink:href="#mf852cad45c" y="224.24103"/>
     <use style="fill:#2ca02c;stroke:#ffffff;stroke-width:0.75;" x="112.516329" xlink:href="#mf852cad45c" y="224.298267"/>
     <use style="fill:#2ca02c;stroke:#ffffff;stroke-width:0.75;" x="115.131137" xlink:href="#mf852cad45c" y="224.886867"/>
     <use style="fill:#2ca02c;stroke:#ffffff;stroke-width:0.75;" x="117.745944" xlink:href="#mf852cad45c" y="227.826765"/>
     <use style="fill:#2ca02c;stroke:#ffffff;stroke-width:0.75;" x="120.360752" xlink:href="#mf852cad45c" y="227.934883"/>
     <use style="fill:#2ca02c;stroke:#ffffff;stroke-width:0.75;" x="122.97556" xlink:href="#mf852cad45c" y="228.09345"/>
     <use style="fill:#2ca02c;stroke:#ffffff;stroke-width:0.75;" x="125.590368" xlink:href="#mf852cad45c" y="228.962363"/>
     <use style="fill:#2ca02c;stroke:#ffffff;stroke-width:0.75;" x="128.205176" xlink:href="#mf852cad45c" y="229.118112"/>
     <use style="fill:#2ca02c;stroke:#ffffff;stroke-width:0.75;" x="130.819984" xlink:href="#mf852cad45c" y="236.081194"/>
     <use style="fill:#2ca02c;stroke:#ffffff;stroke-width:0.75;" x="133.434792" xlink:href="#mf852cad45c" y="236.202468"/>
     <use style="fill:#2ca02c;stroke:#ffffff;stroke-width:0.75;" x="136.049599" xlink:href="#mf852cad45c" y="236.268158"/>
     <use style="fill:#2ca02c;stroke:#ffffff;stroke-width:0.75;" x="138.664407" xlink:href="#mf852cad45c" y="239.579732"/>
     <use style="fill:#2ca02c;stroke:#ffffff;stroke-width:0.75;" x="141.279215" xlink:href="#mf852cad45c" y="233.999821"/>
     <use style="fill:#2ca02c;stroke:#ffffff;stroke-width:0.75;" x="143.894023" xlink:href="#mf852cad45c" y="231.875254"/>
     <use style="fill:#2ca02c;stroke:#ffffff;stroke-width:0.75;" x="146.508831" xlink:href="#mf852cad45c" y="231.928826"/>
     <use style="fill:#2ca02c;stroke:#ffffff;stroke-width:0.75;" x="149.123639" xlink:href="#mf852cad45c" y="232.081405"/>
     <use style="fill:#2ca02c;stroke:#ffffff;stroke-width:0.75;" x="151.738447" xlink:href="#mf852cad45c" y="232.284252"/>
     <use style="fill:#2ca02c;stroke:#ffffff;stroke-width:0.75;" x="154.353255" xlink:href="#mf852cad45c" y="232.68393"/>
     <use style="fill:#2ca02c;stroke:#ffffff;stroke-width:0.75;" x="156.968062" xlink:href="#mf852cad45c" y="232.845005"/>
     <use style="fill:#2ca02c;stroke:#ffffff;stroke-width:0.75;" x="159.58287" xlink:href="#mf852cad45c" y="233.120893"/>
     <use style="fill:#2ca02c;stroke:#ffffff;stroke-width:0.75;" x="162.197678" xlink:href="#mf852cad45c" y="235.695038"/>
     <use style="fill:#2ca02c;stroke:#ffffff;stroke-width:0.75;" x="164.812486" xlink:href="#mf852cad45c" y="231.732152"/>
     <use style="fill:#2ca02c;stroke:#ffffff;stroke-width:0.75;" x="167.427294" xlink:href="#mf852cad45c" y="232.236385"/>
     <use style="fill:#2ca02c;stroke:#ffffff;stroke-width:0.75;" x="170.042102" xlink:href="#mf852cad45c" y="232.242172"/>
     <use style="fill:#2ca02c;stroke:#ffffff;stroke-width:0.75;" x="172.65691" xlink:href="#mf852cad45c" y="232.389371"/>
     <use style="fill:#2ca02c;stroke:#ffffff;stroke-width:0.75;" x="175.271718" xlink:href="#mf852cad45c" y="232.667412"/>
     <use style="fill:#2ca02c;stroke:#ffffff;stroke-width:0.75;" x="177.886525" xlink:href="#mf852cad45c" y="232.472818"/>
     <use style="fill:#2ca02c;stroke:#ffffff;stroke-width:0.75;" x="180.501333" xlink:href="#mf852cad45c" y="237.169733"/>
     <use style="fill:#2ca02c;stroke:#ffffff;stroke-width:0.75;" x="183.116141" xlink:href="#mf852cad45c" y="238.215436"/>
     <use style="fill:#2ca02c;stroke:#ffffff;stroke-width:0.75;" x="185.730949" xlink:href="#mf852cad45c" y="237.796651"/>
     <use style="fill:#2ca02c;stroke:#ffffff;stroke-width:0.75;" x="188.345757" xlink:href="#mf852cad45c" y="237.859697"/>
     <use style="fill:#2ca02c;stroke:#ffffff;stroke-width:0.75;" x="190.960565" xlink:href="#mf852cad45c" y="237.940042"/>
     <use style="fill:#2ca02c;stroke:#ffffff;stroke-width:0.75;" x="193.575373" xlink:href="#mf852cad45c" y="238.360793"/>
     <use style="fill:#2ca02c;stroke:#ffffff;stroke-width:0.75;" x="196.190181" xlink:href="#mf852cad45c" y="238.11847"/>
     <use style="fill:#2ca02c;stroke:#ffffff;stroke-width:0.75;" x="198.804988" xlink:href="#mf852cad45c" y="238.268143"/>
     <use style="fill:#2ca02c;stroke:#ffffff;stroke-width:0.75;" x="201.419796" xlink:href="#mf852cad45c" y="238.312554"/>
     <use style="fill:#2ca02c;stroke:#ffffff;stroke-width:0.75;" x="204.034604" xlink:href="#mf852cad45c" y="237.852365"/>
     <use style="fill:#2ca02c;stroke:#ffffff;stroke-width:0.75;" x="206.649412" xlink:href="#mf852cad45c" y="238.000398"/>
     <use style="fill:#2ca02c;stroke:#ffffff;stroke-width:0.75;" x="209.26422" xlink:href="#mf852cad45c" y="238.161173"/>
     <use style="fill:#2ca02c;stroke:#ffffff;stroke-width:0.75;" x="211.879028" xlink:href="#mf852cad45c" y="238.541398"/>
     <use style="fill:#2ca02c;stroke:#ffffff;stroke-width:0.75;" x="214.493836" xlink:href="#mf852cad45c" y="238.677487"/>
     <use style="fill:#2ca02c;stroke:#ffffff;stroke-width:0.75;" x="217.108644" xlink:href="#mf852cad45c" y="239.358379"/>
     <use style="fill:#2ca02c;stroke:#ffffff;stroke-width:0.75;" x="219.723451" xlink:href="#mf852cad45c" y="238.997385"/>
     <use style="fill:#2ca02c;stroke:#ffffff;stroke-width:0.75;" x="222.338259" xlink:href="#mf852cad45c" y="230.014683"/>
     <use style="fill:#2ca02c;stroke:#ffffff;stroke-width:0.75;" x="224.953067" xlink:href="#mf852cad45c" y="230.088869"/>
     <use style="fill:#2ca02c;stroke:#ffffff;stroke-width:0.75;" x="227.567875" xlink:href="#mf852cad45c" y="230.251192"/>
     <use style="fill:#2ca02c;stroke:#ffffff;stroke-width:0.75;" x="230.182683" xlink:href="#mf852cad45c" y="229.187537"/>
     <use style="fill:#2ca02c;stroke:#ffffff;stroke-width:0.75;" x="232.797491" xlink:href="#mf852cad45c" y="229.452057"/>
     <use style="fill:#2ca02c;stroke:#ffffff;stroke-width:0.75;" x="235.412299" xlink:href="#mf852cad45c" y="229.160738"/>
     <use style="fill:#2ca02c;stroke:#ffffff;stroke-width:0.75;" x="238.027107" xlink:href="#mf852cad45c" y="228.993528"/>
     <use style="fill:#2ca02c;stroke:#ffffff;stroke-width:0.75;" x="240.641914" xlink:href="#mf852cad45c" y="229.085007"/>
     <use style="fill:#2ca02c;stroke:#ffffff;stroke-width:0.75;" x="243.256722" xlink:href="#mf852cad45c" y="228.935795"/>
     <use style="fill:#2ca02c;stroke:#ffffff;stroke-width:0.75;" x="245.87153" xlink:href="#mf852cad45c" y="229.051212"/>
     <use style="fill:#2ca02c;stroke:#ffffff;stroke-width:0.75;" x="248.486338" xlink:href="#mf852cad45c" y="229.033125"/>
     <use style="fill:#2ca02c;stroke:#ffffff;stroke-width:0.75;" x="251.101146" xlink:href="#mf852cad45c" y="231.430879"/>
     <use style="fill:#2ca02c;stroke:#ffffff;stroke-width:0.75;" x="253.715954" xlink:href="#mf852cad45c" y="231.227645"/>
     <use style="fill:#2ca02c;stroke:#ffffff;stroke-width:0.75;" x="256.330762" xlink:href="#mf852cad45c" y="231.227331"/>
     <use style="fill:#2ca02c;stroke:#ffffff;stroke-width:0.75;" x="258.945569" xlink:href="#mf852cad45c" y="232.018222"/>
     <use style="fill:#2ca02c;stroke:#ffffff;stroke-width:0.75;" x="261.560377" xlink:href="#mf852cad45c" y="232.113584"/>
     <use style="fill:#2ca02c;stroke:#ffffff;stroke-width:0.75;" x="264.175185" xlink:href="#mf852cad45c" y="228.003308"/>
     <use style="fill:#2ca02c;stroke:#ffffff;stroke-width:0.75;" x="266.789993" xlink:href="#mf852cad45c" y="228.133465"/>
     <use style="fill:#2ca02c;stroke:#ffffff;stroke-width:0.75;" x="269.404801" xlink:href="#mf852cad45c" y="225.765476"/>
     <use style="fill:#2ca02c;stroke:#ffffff;stroke-width:0.75;" x="272.019609" xlink:href="#mf852cad45c" y="225.888597"/>
     <use style="fill:#2ca02c;stroke:#ffffff;stroke-width:0.75;" x="274.634417" xlink:href="#mf852cad45c" y="226.097802"/>
     <use style="fill:#2ca02c;stroke:#ffffff;stroke-width:0.75;" x="277.249225" xlink:href="#mf852cad45c" y="225.973556"/>
     <use style="fill:#2ca02c;stroke:#ffffff;stroke-width:0.75;" x="279.864032" xlink:href="#mf852cad45c" y="225.129513"/>
     <use style="fill:#2ca02c;stroke:#ffffff;stroke-width:0.75;" x="282.47884" xlink:href="#mf852cad45c" y="225.260421"/>
     <use style="fill:#2ca02c;stroke:#ffffff;stroke-width:0.75;" x="285.093648" xlink:href="#mf852cad45c" y="225.152168"/>
     <use style="fill:#2ca02c;stroke:#ffffff;stroke-width:0.75;" x="287.708456" xlink:href="#mf852cad45c" y="224.986091"/>
     <use style="fill:#2ca02c;stroke:#ffffff;stroke-width:0.75;" x="290.323264" xlink:href="#mf852cad45c" y="224.553991"/>
     <use style="fill:#2ca02c;stroke:#ffffff;stroke-width:0.75;" x="292.938072" xlink:href="#mf852cad45c" y="223.670369"/>
     <use style="fill:#2ca02c;stroke:#ffffff;stroke-width:0.75;" x="295.55288" xlink:href="#mf852cad45c" y="223.738077"/>
     <use style="fill:#2ca02c;stroke:#ffffff;stroke-width:0.75;" x="298.167688" xlink:href="#mf852cad45c" y="222.145177"/>
     <use style="fill:#2ca02c;stroke:#ffffff;stroke-width:0.75;" x="300.782495" xlink:href="#mf852cad45c" y="222.357973"/>
     <use style="fill:#2ca02c;stroke:#ffffff;stroke-width:0.75;" x="303.397303" xlink:href="#mf852cad45c" y="223.038331"/>
     <use style="fill:#2ca02c;stroke:#ffffff;stroke-width:0.75;" x="306.012111" xlink:href="#mf852cad45c" y="222.675125"/>
     <use style="fill:#2ca02c;stroke:#ffffff;stroke-width:0.75;" x="308.626919" xlink:href="#mf852cad45c" y="222.658035"/>
     <use style="fill:#2ca02c;stroke:#ffffff;stroke-width:0.75;" x="311.241727" xlink:href="#mf852cad45c" y="223.07599"/>
     <use style="fill:#2ca02c;stroke:#ffffff;stroke-width:0.75;" x="313.856535" xlink:href="#mf852cad45c" y="223.103619"/>
     <use style="fill:#2ca02c;stroke:#ffffff;stroke-width:0.75;" x="316.471343" xlink:href="#mf852cad45c" y="223.21469"/>
     <use style="fill:#2ca02c;stroke:#ffffff;stroke-width:0.75;" x="319.086151" xlink:href="#mf852cad45c" y="223.340241"/>
    </g>
   </g>
   <g id="line2d_9"/>
   <g id="line2d_10"/>
   <g id="line2d_11"/>
   <g id="line2d_12"/>
   <g id="patch_3">
    <path d="M 52.767969 279 
L 331.767969 279 
" style="fill:none;stroke:#cccccc;stroke-linecap:square;stroke-linejoin:miter;stroke-width:0.8;"/>
   </g>
   <g id="legend_1">
    <g id="patch_4">
     <path d="M 212.407813 104.423438 
L 321.267969 104.423438 
Q 324.267969 104.423438 324.267969 101.423438 
L 324.267969 17.7 
Q 324.267969 14.7 321.267969 14.7 
L 212.407813 14.7 
Q 209.407813 14.7 209.407813 17.7 
L 209.407813 101.423438 
Q 209.407813 104.423438 212.407813 104.423438 
z
" style="fill:#ffffff;opacity:0.8;stroke:#cccccc;stroke-linejoin:miter;"/>
    </g>
    <g id="text_14">
     <!-- Method -->
     <defs>
      <path d="M 7.421875 0 
L 7.421875 71.578125 
L 21.6875 71.578125 
L 38.625 20.90625 
Q 40.96875 13.8125 42.046875 10.296875 
Q 43.265625 14.203125 45.84375 21.78125 
L 62.984375 71.578125 
L 75.734375 71.578125 
L 75.734375 0 
L 66.609375 0 
L 66.609375 59.90625 
L 45.796875 0 
L 37.25 0 
L 16.546875 60.9375 
L 16.546875 0 
z
" id="ArialMT-77"/>
      <path d="M 40.234375 0 
L 40.234375 6.546875 
Q 35.296875 -1.171875 25.734375 -1.171875 
Q 19.53125 -1.171875 14.328125 2.25 
Q 9.125 5.671875 6.265625 11.796875 
Q 3.421875 17.921875 3.421875 25.875 
Q 3.421875 33.640625 6 39.96875 
Q 8.59375 46.296875 13.765625 49.65625 
Q 18.953125 53.03125 25.34375 53.03125 
Q 30.03125 53.03125 33.6875 51.046875 
Q 37.359375 49.078125 39.65625 45.90625 
L 39.65625 71.578125 
L 48.390625 71.578125 
L 48.390625 0 
z
M 12.453125 25.875 
Q 12.453125 15.921875 16.640625 10.984375 
Q 20.84375 6.0625 26.5625 6.0625 
Q 32.328125 6.0625 36.34375 10.765625 
Q 40.375 15.484375 40.375 25.140625 
Q 40.375 35.796875 36.265625 40.765625 
Q 32.171875 45.75 26.171875 45.75 
Q 20.3125 45.75 16.375 40.96875 
Q 12.453125 36.1875 12.453125 25.875 
z
" id="ArialMT-100"/>
     </defs>
     <g style="fill:#262626;" transform="translate(241.824219 31.436719)scale(0.15 -0.15)">
      <use xlink:href="#ArialMT-77"/>
      <use x="83.300781" xlink:href="#ArialMT-101"/>
      <use x="138.916016" xlink:href="#ArialMT-116"/>
      <use x="166.699219" xlink:href="#ArialMT-104"/>
      <use x="222.314453" xlink:href="#ArialMT-111"/>
      <use x="277.929688" xlink:href="#ArialMT-100"/>
     </g>
    </g>
    <g id="line2d_13">
     <path d="M 215.407813 47.404688 
L 245.407813 47.404688 
" style="fill:none;stroke:#1f77b4;stroke-linecap:round;stroke-width:1.5;"/>
    </g>
    <g id="line2d_14">
     <g>
      <use style="fill:#1f77b4;stroke:#ffffff;stroke-width:0.75;" x="230.407813" xlink:href="#mc65ec0c07c" y="47.404688"/>
     </g>
    </g>
    <g id="text_15">
     <!-- single -->
     <defs>
      <path d="M 3.078125 15.484375 
L 11.765625 16.84375 
Q 12.5 11.625 15.84375 8.84375 
Q 19.1875 6.0625 25.203125 6.0625 
Q 31.25 6.0625 34.171875 8.515625 
Q 37.109375 10.984375 37.109375 14.3125 
Q 37.109375 17.28125 34.515625 19 
Q 32.71875 20.171875 25.53125 21.96875 
Q 15.875 24.421875 12.140625 26.203125 
Q 8.40625 27.984375 6.46875 31.125 
Q 4.546875 34.28125 4.546875 38.09375 
Q 4.546875 41.546875 6.125 44.5 
Q 7.71875 47.46875 10.453125 49.421875 
Q 12.5 50.921875 16.03125 51.96875 
Q 19.578125 53.03125 23.640625 53.03125 
Q 29.734375 53.03125 34.34375 51.265625 
Q 38.96875 49.515625 41.15625 46.5 
Q 43.359375 43.5 44.1875 38.484375 
L 35.59375 37.3125 
Q 35.015625 41.3125 32.203125 43.546875 
Q 29.390625 45.796875 24.265625 45.796875 
Q 18.21875 45.796875 15.625 43.796875 
Q 13.03125 41.796875 13.03125 39.109375 
Q 13.03125 37.40625 14.109375 36.03125 
Q 15.1875 34.625 17.484375 33.6875 
Q 18.796875 33.203125 25.25 31.453125 
Q 34.578125 28.953125 38.25 27.359375 
Q 41.9375 25.78125 44.03125 22.75 
Q 46.140625 19.734375 46.140625 15.234375 
Q 46.140625 10.84375 43.578125 6.953125 
Q 41.015625 3.078125 36.171875 0.953125 
Q 31.34375 -1.171875 25.25 -1.171875 
Q 15.140625 -1.171875 9.84375 3.03125 
Q 4.546875 7.234375 3.078125 15.484375 
z
" id="ArialMT-115"/>
      <path d="M 6.59375 0 
L 6.59375 51.859375 
L 14.5 51.859375 
L 14.5 44.484375 
Q 20.21875 53.03125 31 53.03125 
Q 35.6875 53.03125 39.625 51.34375 
Q 43.5625 49.65625 45.515625 46.921875 
Q 47.46875 44.1875 48.25 40.4375 
Q 48.734375 37.984375 48.734375 31.890625 
L 48.734375 0 
L 39.9375 0 
L 39.9375 31.546875 
Q 39.9375 36.921875 38.90625 39.578125 
Q 37.890625 42.234375 35.28125 43.8125 
Q 32.671875 45.40625 29.15625 45.40625 
Q 23.53125 45.40625 19.453125 41.84375 
Q 15.375 38.28125 15.375 28.328125 
L 15.375 0 
z
" id="ArialMT-110"/>
      <path d="M 4.984375 -4.296875 
L 13.53125 -5.5625 
Q 14.0625 -9.515625 16.5 -11.328125 
Q 19.78125 -13.765625 25.4375 -13.765625 
Q 31.546875 -13.765625 34.859375 -11.328125 
Q 38.1875 -8.890625 39.359375 -4.5 
Q 40.046875 -1.8125 39.984375 6.78125 
Q 34.234375 0 25.640625 0 
Q 14.9375 0 9.078125 7.71875 
Q 3.21875 15.4375 3.21875 26.21875 
Q 3.21875 33.640625 5.90625 39.90625 
Q 8.59375 46.1875 13.6875 49.609375 
Q 18.796875 53.03125 25.6875 53.03125 
Q 34.859375 53.03125 40.828125 45.609375 
L 40.828125 51.859375 
L 48.921875 51.859375 
L 48.921875 7.03125 
Q 48.921875 -5.078125 46.453125 -10.125 
Q 44 -15.1875 38.640625 -18.109375 
Q 33.296875 -21.046875 25.484375 -21.046875 
Q 16.21875 -21.046875 10.5 -16.875 
Q 4.78125 -12.703125 4.984375 -4.296875 
z
M 12.25 26.859375 
Q 12.25 16.65625 16.296875 11.96875 
Q 20.359375 7.28125 26.46875 7.28125 
Q 32.515625 7.28125 36.609375 11.9375 
Q 40.71875 16.609375 40.71875 26.5625 
Q 40.71875 36.078125 36.5 40.90625 
Q 32.28125 45.75 26.3125 45.75 
Q 20.453125 45.75 16.34375 40.984375 
Q 12.25 36.234375 12.25 26.859375 
z
" id="ArialMT-103"/>
     </defs>
     <g style="fill:#262626;" transform="translate(257.407812 52.654688)scale(0.15 -0.15)">
      <use xlink:href="#ArialMT-115"/>
      <use x="50" xlink:href="#ArialMT-105"/>
      <use x="72.216797" xlink:href="#ArialMT-110"/>
      <use x="127.832031" xlink:href="#ArialMT-103"/>
      <use x="183.447266" xlink:href="#ArialMT-108"/>
      <use x="205.664062" xlink:href="#ArialMT-101"/>
     </g>
    </g>
    <g id="line2d_15">
     <path d="M 215.407813 68.798438 
L 245.407813 68.798438 
" style="fill:none;stroke:#ff7f0e;stroke-linecap:round;stroke-width:1.5;"/>
    </g>
    <g id="line2d_16">
     <g>
      <use style="fill:#ff7f0e;stroke:#ffffff;stroke-width:0.75;" x="230.407813" xlink:href="#m02798faf1b" y="68.798438"/>
     </g>
    </g>
    <g id="text_16">
     <!-- complete -->
     <defs>
      <path d="M 6.59375 0 
L 6.59375 51.859375 
L 14.453125 51.859375 
L 14.453125 44.578125 
Q 16.890625 48.390625 20.9375 50.703125 
Q 25 53.03125 30.171875 53.03125 
Q 35.9375 53.03125 39.625 50.640625 
Q 43.3125 48.25 44.828125 43.953125 
Q 50.984375 53.03125 60.84375 53.03125 
Q 68.5625 53.03125 72.703125 48.75 
Q 76.859375 44.484375 76.859375 35.59375 
L 76.859375 0 
L 68.109375 0 
L 68.109375 32.671875 
Q 68.109375 37.9375 67.25 40.25 
Q 66.40625 42.578125 64.15625 43.984375 
Q 61.921875 45.40625 58.890625 45.40625 
Q 53.421875 45.40625 49.796875 41.765625 
Q 46.1875 38.140625 46.1875 30.125 
L 46.1875 0 
L 37.40625 0 
L 37.40625 33.6875 
Q 37.40625 39.546875 35.25 42.46875 
Q 33.109375 45.40625 28.21875 45.40625 
Q 24.515625 45.40625 21.359375 43.453125 
Q 18.21875 41.5 16.796875 37.734375 
Q 15.375 33.984375 15.375 26.90625 
L 15.375 0 
z
" id="ArialMT-109"/>
      <path d="M 6.59375 -19.875 
L 6.59375 51.859375 
L 14.59375 51.859375 
L 14.59375 45.125 
Q 17.4375 49.078125 21 51.046875 
Q 24.5625 53.03125 29.640625 53.03125 
Q 36.28125 53.03125 41.359375 49.609375 
Q 46.4375 46.1875 49.015625 39.953125 
Q 51.609375 33.734375 51.609375 26.3125 
Q 51.609375 18.359375 48.75 11.984375 
Q 45.90625 5.609375 40.453125 2.21875 
Q 35.015625 -1.171875 29 -1.171875 
Q 24.609375 -1.171875 21.109375 0.6875 
Q 17.625 2.546875 15.375 5.375 
L 15.375 -19.875 
z
M 14.546875 25.640625 
Q 14.546875 15.625 18.59375 10.84375 
Q 22.65625 6.0625 28.421875 6.0625 
Q 34.28125 6.0625 38.453125 11.015625 
Q 42.625 15.96875 42.625 26.375 
Q 42.625 36.28125 38.546875 41.203125 
Q 34.46875 46.140625 28.8125 46.140625 
Q 23.1875 46.140625 18.859375 40.890625 
Q 14.546875 35.640625 14.546875 25.640625 
z
" id="ArialMT-112"/>
     </defs>
     <g style="fill:#262626;" transform="translate(257.407812 74.048438)scale(0.15 -0.15)">
      <use xlink:href="#ArialMT-99"/>
      <use x="50" xlink:href="#ArialMT-111"/>
      <use x="105.615234" xlink:href="#ArialMT-109"/>
      <use x="188.916016" xlink:href="#ArialMT-112"/>
      <use x="244.53125" xlink:href="#ArialMT-108"/>
      <use x="266.748047" xlink:href="#ArialMT-101"/>
      <use x="322.363281" xlink:href="#ArialMT-116"/>
      <use x="350.146484" xlink:href="#ArialMT-101"/>
     </g>
    </g>
    <g id="line2d_17">
     <path d="M 215.407813 90.016406 
L 245.407813 90.016406 
" style="fill:none;stroke:#2ca02c;stroke-linecap:round;stroke-width:1.5;"/>
    </g>
    <g id="line2d_18">
     <g>
      <use style="fill:#2ca02c;stroke:#ffffff;stroke-width:0.75;" x="230.407813" xlink:href="#mf852cad45c" y="90.016406"/>
     </g>
    </g>
    <g id="text_17">
     <!-- weighted -->
     <defs>
      <path d="M 16.15625 0 
L 0.296875 51.859375 
L 9.375 51.859375 
L 17.625 21.921875 
L 20.703125 10.796875 
Q 20.90625 11.625 23.390625 21.484375 
L 31.640625 51.859375 
L 40.671875 51.859375 
L 48.4375 21.78125 
L 51.03125 11.859375 
L 54 21.875 
L 62.890625 51.859375 
L 71.4375 51.859375 
L 55.21875 0 
L 46.09375 0 
L 37.84375 31.0625 
L 35.84375 39.890625 
L 25.34375 0 
z
" id="ArialMT-119"/>
     </defs>
     <g style="fill:#262626;" transform="translate(257.407812 95.266406)scale(0.15 -0.15)">
      <use xlink:href="#ArialMT-119"/>
      <use x="72.216797" xlink:href="#ArialMT-101"/>
      <use x="127.832031" xlink:href="#ArialMT-105"/>
      <use x="150.048828" xlink:href="#ArialMT-103"/>
      <use x="205.664062" xlink:href="#ArialMT-104"/>
      <use x="261.279297" xlink:href="#ArialMT-116"/>
      <use x="289.0625" xlink:href="#ArialMT-101"/>
      <use x="344.677734" xlink:href="#ArialMT-100"/>
     </g>
    </g>
   </g>
  </g>
 </g>
 <defs>
  <clipPath id="p013573458c">
   <rect height="271.8" width="279" x="52.767969" y="7.2"/>
  </clipPath>
 </defs>
</svg>
