<?xml version="1.0" encoding="UTF-8" standalone="no"?>
<!DOCTYPE svg PUBLIC "-//W3C//DTD SVG 1.1//EN"
 "http://www.w3.org/Graphics/SVG/1.1/DTD/svg11.dtd">
<!-- Generated by graphviz version 2.40.1 (20161225.0304)
 -->
<!-- Title: Tree Pages: 1 -->
<svg width="1705pt" height="520pt"
 viewBox="0.00 0.00 1705.00 520.00" xmlns="http://www.w3.org/2000/svg" xmlns:xlink="http://www.w3.org/1999/xlink">
<g id="graph0" class="graph" transform="scale(1 1) rotate(0) translate(4 516)">
<title>Tree</title>
<polygon fill="#ffffff" stroke="transparent" points="-4,4 -4,-516 1701,-516 1701,4 -4,4"/>
<!-- 0 -->
<g id="node1" class="node">
<title>0</title>
<polygon fill="none" stroke="#000000" points="888.5,-512 669.5,-512 669.5,-429 888.5,-429 888.5,-512"/>
<text text-anchor="middle" x="779" y="-496.8" font-family="Sans-Serif" font-size="14.00" fill="#000000">AU06_r_percentile80.0 &lt;= 0.328</text>
<text text-anchor="middle" x="779" y="-481.8" font-family="Sans-Serif" font-size="14.00" fill="#000000">gini = 0.418</text>
<text text-anchor="middle" x="779" y="-466.8" font-family="Sans-Serif" font-size="14.00" fill="#000000">samples = 1259</text>
<text text-anchor="middle" x="779" y="-451.8" font-family="Sans-Serif" font-size="14.00" fill="#000000">value = [885, 374]</text>
<text text-anchor="middle" x="779" y="-436.8" font-family="Sans-Serif" font-size="14.00" fill="#000000">class = 0</text>
</g>
<!-- 1 -->
<g id="node2" class="node">
<title>1</title>
<polygon fill="none" stroke="#000000" points="729.5,-393 510.5,-393 510.5,-310 729.5,-310 729.5,-393"/>
<text text-anchor="middle" x="620" y="-377.8" font-family="Sans-Serif" font-size="14.00" fill="#000000">AU06_r_percentile80.0 &lt;= 0.218</text>
<text text-anchor="middle" x="620" y="-362.8" font-family="Sans-Serif" font-size="14.00" fill="#000000">gini = 0.143</text>
<text text-anchor="middle" x="620" y="-347.8" font-family="Sans-Serif" font-size="14.00" fill="#000000">samples = 927</text>
<text text-anchor="middle" x="620" y="-332.8" font-family="Sans-Serif" font-size="14.00" fill="#000000">value = [855, 72]</text>
<text text-anchor="middle" x="620" y="-317.8" font-family="Sans-Serif" font-size="14.00" fill="#000000">class = 0</text>
</g>
<!-- 0&#45;&gt;1 -->
<g id="edge1" class="edge">
<title>0&#45;&gt;1</title>
<path fill="none" stroke="#000000" d="M723.3895,-428.8796C710.5597,-419.2774 696.8148,-408.9903 683.6714,-399.1534"/>
<polygon fill="#000000" stroke="#000000" points="685.6823,-396.2868 675.5791,-393.0969 681.4879,-401.891 685.6823,-396.2868"/>
<text text-anchor="middle" x="679.1395" y="-414.1421" font-family="Sans-Serif" font-size="14.00" fill="#000000">True</text>
</g>
<!-- 48 -->
<g id="node15" class="node">
<title>48</title>
<polygon fill="none" stroke="#000000" points="1051.5,-393 832.5,-393 832.5,-310 1051.5,-310 1051.5,-393"/>
<text text-anchor="middle" x="942" y="-377.8" font-family="Sans-Serif" font-size="14.00" fill="#000000">AU12_r_percentile50.0 &lt;= 0.242</text>
<text text-anchor="middle" x="942" y="-362.8" font-family="Sans-Serif" font-size="14.00" fill="#000000">gini = 0.164</text>
<text text-anchor="middle" x="942" y="-347.8" font-family="Sans-Serif" font-size="14.00" fill="#000000">samples = 332</text>
<text text-anchor="middle" x="942" y="-332.8" font-family="Sans-Serif" font-size="14.00" fill="#000000">value = [30, 302]</text>
<text text-anchor="middle" x="942" y="-317.8" font-family="Sans-Serif" font-size="14.00" fill="#000000">class = 1</text>
</g>
<!-- 0&#45;&gt;48 -->
<g id="edge14" class="edge">
<title>0&#45;&gt;48</title>
<path fill="none" stroke="#000000" d="M836.0095,-428.8796C849.1621,-419.2774 863.2528,-408.9903 876.7268,-399.1534"/>
<polygon fill="#000000" stroke="#000000" points="879.0098,-401.8202 885.0227,-393.0969 874.8823,-396.1666 879.0098,-401.8202"/>
<text text-anchor="middle" x="881.1686" y="-414.0981" font-family="Sans-Serif" font-size="14.00" fill="#000000">False</text>
</g>
<!-- 2 -->
<g id="node3" class="node">
<title>2</title>
<polygon fill="none" stroke="#000000" points="382.5,-274 163.5,-274 163.5,-191 382.5,-191 382.5,-274"/>
<text text-anchor="middle" x="273" y="-258.8" font-family="Sans-Serif" font-size="14.00" fill="#000000">AU12_r_percentile80.0 &lt;= 0.529</text>
<text text-anchor="middle" x="273" y="-243.8" font-family="Sans-Serif" font-size="14.00" fill="#000000">gini = 0.06</text>
<text text-anchor="middle" x="273" y="-228.8" font-family="Sans-Serif" font-size="14.00" fill="#000000">samples = 814</text>
<text text-anchor="middle" x="273" y="-213.8" font-family="Sans-Serif" font-size="14.00" fill="#000000">value = [789, 25]</text>
<text text-anchor="middle" x="273" y="-198.8" font-family="Sans-Serif" font-size="14.00" fill="#000000">class = 0</text>
</g>
<!-- 1&#45;&gt;2 -->
<g id="edge2" class="edge">
<title>1&#45;&gt;2</title>
<path fill="none" stroke="#000000" d="M510.207,-313.8477C472.6832,-300.9793 430.5426,-286.5276 392.3058,-273.4147"/>
<polygon fill="#000000" stroke="#000000" points="393.2685,-270.0448 382.6739,-270.1115 390.9977,-276.6662 393.2685,-270.0448"/>
</g>
<!-- 31 -->
<g id="node8" class="node">
<title>31</title>
<polygon fill="none" stroke="#000000" points="805.5,-274 434.5,-274 434.5,-191 805.5,-191 805.5,-274"/>
<text text-anchor="middle" x="620" y="-258.8" font-family="Sans-Serif" font-size="14.00" fill="#000000">F0semitoneFrom27.5Hz_sma3nz_percentile50.0 &lt;= 0.58</text>
<text text-anchor="middle" x="620" y="-243.8" font-family="Sans-Serif" font-size="14.00" fill="#000000">gini = 0.486</text>
<text text-anchor="middle" x="620" y="-228.8" font-family="Sans-Serif" font-size="14.00" fill="#000000">samples = 113</text>
<text text-anchor="middle" x="620" y="-213.8" font-family="Sans-Serif" font-size="14.00" fill="#000000">value = [66, 47]</text>
<text text-anchor="middle" x="620" y="-198.8" font-family="Sans-Serif" font-size="14.00" fill="#000000">class = 0</text>
</g>
<!-- 1&#45;&gt;31 -->
<g id="edge7" class="edge">
<title>1&#45;&gt;31</title>
<path fill="none" stroke="#000000" d="M620,-309.8796C620,-301.6838 620,-292.9891 620,-284.5013"/>
<polygon fill="#000000" stroke="#000000" points="623.5001,-284.298 620,-274.2981 616.5001,-284.2981 623.5001,-284.298"/>
</g>
<!-- 3 -->
<g id="node4" class="node">
<title>3</title>
<polygon fill="none" stroke="#000000" points="206,-155 0,-155 0,-72 206,-72 206,-155"/>
<text text-anchor="middle" x="103" y="-139.8" font-family="Sans-Serif" font-size="14.00" fill="#000000">mfcc2_sma3_amean &lt;= 0.264</text>
<text text-anchor="middle" x="103" y="-124.8" font-family="Sans-Serif" font-size="14.00" fill="#000000">gini = 0.048</text>
<text text-anchor="middle" x="103" y="-109.8" font-family="Sans-Serif" font-size="14.00" fill="#000000">samples = 809</text>
<text text-anchor="middle" x="103" y="-94.8" font-family="Sans-Serif" font-size="14.00" fill="#000000">value = [789, 20]</text>
<text text-anchor="middle" x="103" y="-79.8" font-family="Sans-Serif" font-size="14.00" fill="#000000">class = 0</text>
</g>
<!-- 2&#45;&gt;3 -->
<g id="edge3" class="edge">
<title>2&#45;&gt;3</title>
<path fill="none" stroke="#000000" d="M213.5422,-190.8796C199.6954,-181.1868 184.8516,-170.7961 170.6788,-160.8752"/>
<polygon fill="#000000" stroke="#000000" points="172.6236,-157.9643 162.4242,-155.0969 168.6094,-163.6989 172.6236,-157.9643"/>
</g>
<!-- 30 -->
<g id="node7" class="node">
<title>30</title>
<polygon fill="none" stroke="#000000" points="321.5,-147.5 224.5,-147.5 224.5,-79.5 321.5,-79.5 321.5,-147.5"/>
<text text-anchor="middle" x="273" y="-132.3" font-family="Sans-Serif" font-size="14.00" fill="#000000">gini = 0.0</text>
<text text-anchor="middle" x="273" y="-117.3" font-family="Sans-Serif" font-size="14.00" fill="#000000">samples = 5</text>
<text text-anchor="middle" x="273" y="-102.3" font-family="Sans-Serif" font-size="14.00" fill="#000000">value = [0, 5]</text>
<text text-anchor="middle" x="273" y="-87.3" font-family="Sans-Serif" font-size="14.00" fill="#000000">class = 1</text>
</g>
<!-- 2&#45;&gt;30 -->
<g id="edge6" class="edge">
<title>2&#45;&gt;30</title>
<path fill="none" stroke="#000000" d="M273,-190.8796C273,-180.2134 273,-168.7021 273,-157.9015"/>
<polygon fill="#000000" stroke="#000000" points="276.5001,-157.8149 273,-147.8149 269.5001,-157.815 276.5001,-157.8149"/>
</g>
<!-- 4 -->
<g id="node5" class="node">
<title>4</title>
<polygon fill="none" stroke="#000000" points="94,-36 40,-36 40,0 94,0 94,-36"/>
<text text-anchor="middle" x="67" y="-14.3" font-family="Sans-Serif" font-size="14.00" fill="#000000">(...)</text>
</g>
<!-- 3&#45;&gt;4 -->
<g id="edge4" class="edge">
<title>3&#45;&gt;4</title>
<path fill="none" stroke="#000000" d="M87.3146,-71.8901C83.9739,-63.0279 80.525,-53.8788 77.4386,-45.6913"/>
<polygon fill="#000000" stroke="#000000" points="80.6877,-44.3878 73.8853,-36.2651 74.1376,-46.8569 80.6877,-44.3878"/>
</g>
<!-- 7 -->
<g id="node6" class="node">
<title>7</title>
<polygon fill="none" stroke="#000000" points="166,-36 112,-36 112,0 166,0 166,-36"/>
<text text-anchor="middle" x="139" y="-14.3" font-family="Sans-Serif" font-size="14.00" fill="#000000">(...)</text>
</g>
<!-- 3&#45;&gt;7 -->
<g id="edge5" class="edge">
<title>3&#45;&gt;7</title>
<path fill="none" stroke="#000000" d="M118.6854,-71.8901C122.0261,-63.0279 125.475,-53.8788 128.5614,-45.6913"/>
<polygon fill="#000000" stroke="#000000" points="131.8624,-46.8569 132.1147,-36.2651 125.3123,-44.3878 131.8624,-46.8569"/>
</g>
<!-- 32 -->
<g id="node9" class="node">
<title>32</title>
<polygon fill="none" stroke="#000000" points="536.5,-155 339.5,-155 339.5,-72 536.5,-72 536.5,-155"/>
<text text-anchor="middle" x="438" y="-139.8" font-family="Sans-Serif" font-size="14.00" fill="#000000">AU17_r_numPeaks &lt;= 0.103</text>
<text text-anchor="middle" x="438" y="-124.8" font-family="Sans-Serif" font-size="14.00" fill="#000000">gini = 0.295</text>
<text text-anchor="middle" x="438" y="-109.8" font-family="Sans-Serif" font-size="14.00" fill="#000000">samples = 78</text>
<text text-anchor="middle" x="438" y="-94.8" font-family="Sans-Serif" font-size="14.00" fill="#000000">value = [64, 14]</text>
<text text-anchor="middle" x="438" y="-79.8" font-family="Sans-Serif" font-size="14.00" fill="#000000">class = 0</text>
</g>
<!-- 31&#45;&gt;32 -->
<g id="edge8" class="edge">
<title>31&#45;&gt;32</title>
<path fill="none" stroke="#000000" d="M556.3452,-190.8796C541.3824,-181.0962 525.3323,-170.6019 510.0309,-160.5971"/>
<polygon fill="#000000" stroke="#000000" points="511.9039,-157.6401 501.6188,-155.0969 508.0731,-163.4989 511.9039,-157.6401"/>
</g>
<!-- 45 -->
<g id="node12" class="node">
<title>45</title>
<polygon fill="none" stroke="#000000" points="745.5,-155 554.5,-155 554.5,-72 745.5,-72 745.5,-155"/>
<text text-anchor="middle" x="650" y="-139.8" font-family="Sans-Serif" font-size="14.00" fill="#000000">AU20_r_stddevNorm &lt;= 0.4</text>
<text text-anchor="middle" x="650" y="-124.8" font-family="Sans-Serif" font-size="14.00" fill="#000000">gini = 0.108</text>
<text text-anchor="middle" x="650" y="-109.8" font-family="Sans-Serif" font-size="14.00" fill="#000000">samples = 35</text>
<text text-anchor="middle" x="650" y="-94.8" font-family="Sans-Serif" font-size="14.00" fill="#000000">value = [2, 33]</text>
<text text-anchor="middle" x="650" y="-79.8" font-family="Sans-Serif" font-size="14.00" fill="#000000">class = 1</text>
</g>
<!-- 31&#45;&gt;45 -->
<g id="edge11" class="edge">
<title>31&#45;&gt;45</title>
<path fill="none" stroke="#000000" d="M630.4925,-190.8796C632.5814,-182.5938 634.7988,-173.798 636.9609,-165.2216"/>
<polygon fill="#000000" stroke="#000000" points="640.4119,-165.8503 639.4627,-155.2981 633.6243,-164.1391 640.4119,-165.8503"/>
</g>
<!-- 33 -->
<g id="node10" class="node">
<title>33</title>
<polygon fill="none" stroke="#000000" points="427,-36 373,-36 373,0 427,0 427,-36"/>
<text text-anchor="middle" x="400" y="-14.3" font-family="Sans-Serif" font-size="14.00" fill="#000000">(...)</text>
</g>
<!-- 32&#45;&gt;33 -->
<g id="edge9" class="edge">
<title>32&#45;&gt;33</title>
<path fill="none" stroke="#000000" d="M421.4432,-71.8901C417.9169,-63.0279 414.2764,-53.8788 411.0185,-45.6913"/>
<polygon fill="#000000" stroke="#000000" points="414.217,-44.2626 407.2678,-36.2651 407.713,-46.8506 414.217,-44.2626"/>
</g>
<!-- 34 -->
<g id="node11" class="node">
<title>34</title>
<polygon fill="none" stroke="#000000" points="499,-36 445,-36 445,0 499,0 499,-36"/>
<text text-anchor="middle" x="472" y="-14.3" font-family="Sans-Serif" font-size="14.00" fill="#000000">(...)</text>
</g>
<!-- 32&#45;&gt;34 -->
<g id="edge10" class="edge">
<title>32&#45;&gt;34</title>
<path fill="none" stroke="#000000" d="M452.814,-71.8901C455.9691,-63.0279 459.2264,-53.8788 462.1413,-45.6913"/>
<polygon fill="#000000" stroke="#000000" points="465.4405,-46.8598 465.4972,-36.2651 458.8459,-44.512 465.4405,-46.8598"/>
</g>
<!-- 46 -->
<g id="node13" class="node">
<title>46</title>
<polygon fill="none" stroke="#000000" points="641,-36 587,-36 587,0 641,0 641,-36"/>
<text text-anchor="middle" x="614" y="-14.3" font-family="Sans-Serif" font-size="14.00" fill="#000000">(...)</text>
</g>
<!-- 45&#45;&gt;46 -->
<g id="edge12" class="edge">
<title>45&#45;&gt;46</title>
<path fill="none" stroke="#000000" d="M634.3146,-71.8901C630.9739,-63.0279 627.525,-53.8788 624.4386,-45.6913"/>
<polygon fill="#000000" stroke="#000000" points="627.6877,-44.3878 620.8853,-36.2651 621.1376,-46.8569 627.6877,-44.3878"/>
</g>
<!-- 47 -->
<g id="node14" class="node">
<title>47</title>
<polygon fill="none" stroke="#000000" points="713,-36 659,-36 659,0 713,0 713,-36"/>
<text text-anchor="middle" x="686" y="-14.3" font-family="Sans-Serif" font-size="14.00" fill="#000000">(...)</text>
</g>
<!-- 45&#45;&gt;47 -->
<g id="edge13" class="edge">
<title>45&#45;&gt;47</title>
<path fill="none" stroke="#000000" d="M665.6854,-71.8901C669.0261,-63.0279 672.475,-53.8788 675.5614,-45.6913"/>
<polygon fill="#000000" stroke="#000000" points="678.8624,-46.8569 679.1147,-36.2651 672.3123,-44.3878 678.8624,-46.8569"/>
</g>
<!-- 49 -->
<g id="node16" class="node">
<title>49</title>
<polygon fill="none" stroke="#000000" points="1057,-274 827,-274 827,-191 1057,-191 1057,-274"/>
<text text-anchor="middle" x="942" y="-258.8" font-family="Sans-Serif" font-size="14.00" fill="#000000">mfcc2V_sma3nz_amean &lt;= 0.793</text>
<text text-anchor="middle" x="942" y="-243.8" font-family="Sans-Serif" font-size="14.00" fill="#000000">gini = 0.475</text>
<text text-anchor="middle" x="942" y="-228.8" font-family="Sans-Serif" font-size="14.00" fill="#000000">samples = 54</text>
<text text-anchor="middle" x="942" y="-213.8" font-family="Sans-Serif" font-size="14.00" fill="#000000">value = [21, 33]</text>
<text text-anchor="middle" x="942" y="-198.8" font-family="Sans-Serif" font-size="14.00" fill="#000000">class = 1</text>
</g>
<!-- 48&#45;&gt;49 -->
<g id="edge15" class="edge">
<title>48&#45;&gt;49</title>
<path fill="none" stroke="#000000" d="M942,-309.8796C942,-301.6838 942,-292.9891 942,-284.5013"/>
<polygon fill="#000000" stroke="#000000" points="945.5001,-284.298 942,-274.2981 938.5001,-284.2981 945.5001,-284.298"/>
</g>
<!-- 62 -->
<g id="node23" class="node">
<title>62</title>
<polygon fill="none" stroke="#000000" points="1592,-274 1214,-274 1214,-191 1592,-191 1592,-274"/>
<text text-anchor="middle" x="1403" y="-258.8" font-family="Sans-Serif" font-size="14.00" fill="#000000">F0semitoneFrom27.5Hz_sma3nz_percentile50.0 &lt;= 0.157</text>
<text text-anchor="middle" x="1403" y="-243.8" font-family="Sans-Serif" font-size="14.00" fill="#000000">gini = 0.063</text>
<text text-anchor="middle" x="1403" y="-228.8" font-family="Sans-Serif" font-size="14.00" fill="#000000">samples = 278</text>
<text text-anchor="middle" x="1403" y="-213.8" font-family="Sans-Serif" font-size="14.00" fill="#000000">value = [9, 269]</text>
<text text-anchor="middle" x="1403" y="-198.8" font-family="Sans-Serif" font-size="14.00" fill="#000000">class = 1</text>
</g>
<!-- 48&#45;&gt;62 -->
<g id="edge22" class="edge">
<title>48&#45;&gt;62</title>
<path fill="none" stroke="#000000" d="M1051.5428,-323.2232C1105.3972,-309.3216 1171.5431,-292.247 1231.8675,-276.6752"/>
<polygon fill="#000000" stroke="#000000" points="1233.0772,-279.9777 1241.885,-274.0893 1231.3276,-273.1999 1233.0772,-279.9777"/>
</g>
<!-- 50 -->
<g id="node17" class="node">
<title>50</title>
<polygon fill="none" stroke="#000000" points="1060,-155 764,-155 764,-72 1060,-72 1060,-155"/>
<text text-anchor="middle" x="912" y="-139.8" font-family="Sans-Serif" font-size="14.00" fill="#000000">F1bandwidth_sma3nz_stddevNorm &lt;= 0.194</text>
<text text-anchor="middle" x="912" y="-124.8" font-family="Sans-Serif" font-size="14.00" fill="#000000">gini = 0.301</text>
<text text-anchor="middle" x="912" y="-109.8" font-family="Sans-Serif" font-size="14.00" fill="#000000">samples = 38</text>
<text text-anchor="middle" x="912" y="-94.8" font-family="Sans-Serif" font-size="14.00" fill="#000000">value = [7, 31]</text>
<text text-anchor="middle" x="912" y="-79.8" font-family="Sans-Serif" font-size="14.00" fill="#000000">class = 1</text>
</g>
<!-- 49&#45;&gt;50 -->
<g id="edge16" class="edge">
<title>49&#45;&gt;50</title>
<path fill="none" stroke="#000000" d="M931.5075,-190.8796C929.4186,-182.5938 927.2012,-173.798 925.0391,-165.2216"/>
<polygon fill="#000000" stroke="#000000" points="928.3757,-164.1391 922.5373,-155.2981 921.5881,-165.8503 928.3757,-164.1391"/>
</g>
<!-- 59 -->
<g id="node20" class="node">
<title>59</title>
<polygon fill="none" stroke="#000000" points="1275.5,-155 1078.5,-155 1078.5,-72 1275.5,-72 1275.5,-155"/>
<text text-anchor="middle" x="1177" y="-139.8" font-family="Sans-Serif" font-size="14.00" fill="#000000">AU10_r_numPeaks &lt;= 0.286</text>
<text text-anchor="middle" x="1177" y="-124.8" font-family="Sans-Serif" font-size="14.00" fill="#000000">gini = 0.219</text>
<text text-anchor="middle" x="1177" y="-109.8" font-family="Sans-Serif" font-size="14.00" fill="#000000">samples = 16</text>
<text text-anchor="middle" x="1177" y="-94.8" font-family="Sans-Serif" font-size="14.00" fill="#000000">value = [14, 2]</text>
<text text-anchor="middle" x="1177" y="-79.8" font-family="Sans-Serif" font-size="14.00" fill="#000000">class = 0</text>
</g>
<!-- 49&#45;&gt;59 -->
<g id="edge19" class="edge">
<title>49&#45;&gt;59</title>
<path fill="none" stroke="#000000" d="M1024.1916,-190.8796C1044.1378,-180.7791 1065.5805,-169.9209 1085.9108,-159.626"/>
<polygon fill="#000000" stroke="#000000" points="1087.5146,-162.7371 1094.8548,-155.0969 1084.3522,-156.4921 1087.5146,-162.7371"/>
</g>
<!-- 51 -->
<g id="node18" class="node">
<title>51</title>
<polygon fill="none" stroke="#000000" points="903,-36 849,-36 849,0 903,0 903,-36"/>
<text text-anchor="middle" x="876" y="-14.3" font-family="Sans-Serif" font-size="14.00" fill="#000000">(...)</text>
</g>
<!-- 50&#45;&gt;51 -->
<g id="edge17" class="edge">
<title>50&#45;&gt;51</title>
<path fill="none" stroke="#000000" d="M896.3146,-71.8901C892.9739,-63.0279 889.525,-53.8788 886.4386,-45.6913"/>
<polygon fill="#000000" stroke="#000000" points="889.6877,-44.3878 882.8853,-36.2651 883.1376,-46.8569 889.6877,-44.3878"/>
</g>
<!-- 54 -->
<g id="node19" class="node">
<title>54</title>
<polygon fill="none" stroke="#000000" points="975,-36 921,-36 921,0 975,0 975,-36"/>
<text text-anchor="middle" x="948" y="-14.3" font-family="Sans-Serif" font-size="14.00" fill="#000000">(...)</text>
</g>
<!-- 50&#45;&gt;54 -->
<g id="edge18" class="edge">
<title>50&#45;&gt;54</title>
<path fill="none" stroke="#000000" d="M927.6854,-71.8901C931.0261,-63.0279 934.475,-53.8788 937.5614,-45.6913"/>
<polygon fill="#000000" stroke="#000000" points="940.8624,-46.8569 941.1147,-36.2651 934.3123,-44.3878 940.8624,-46.8569"/>
</g>
<!-- 60 -->
<g id="node21" class="node">
<title>60</title>
<polygon fill="none" stroke="#000000" points="1168,-36 1114,-36 1114,0 1168,0 1168,-36"/>
<text text-anchor="middle" x="1141" y="-14.3" font-family="Sans-Serif" font-size="14.00" fill="#000000">(...)</text>
</g>
<!-- 59&#45;&gt;60 -->
<g id="edge20" class="edge">
<title>59&#45;&gt;60</title>
<path fill="none" stroke="#000000" d="M1161.3146,-71.8901C1157.9739,-63.0279 1154.525,-53.8788 1151.4386,-45.6913"/>
<polygon fill="#000000" stroke="#000000" points="1154.6877,-44.3878 1147.8853,-36.2651 1148.1376,-46.8569 1154.6877,-44.3878"/>
</g>
<!-- 61 -->
<g id="node22" class="node">
<title>61</title>
<polygon fill="none" stroke="#000000" points="1240,-36 1186,-36 1186,0 1240,0 1240,-36"/>
<text text-anchor="middle" x="1213" y="-14.3" font-family="Sans-Serif" font-size="14.00" fill="#000000">(...)</text>
</g>
<!-- 59&#45;&gt;61 -->
<g id="edge21" class="edge">
<title>59&#45;&gt;61</title>
<path fill="none" stroke="#000000" d="M1192.6854,-71.8901C1196.0261,-63.0279 1199.475,-53.8788 1202.5614,-45.6913"/>
<polygon fill="#000000" stroke="#000000" points="1205.8624,-46.8569 1206.1147,-36.2651 1199.3123,-44.3878 1205.8624,-46.8569"/>
</g>
<!-- 63 -->
<g id="node24" class="node">
<title>63</title>
<polygon fill="none" stroke="#000000" points="1512.5,-155 1293.5,-155 1293.5,-72 1512.5,-72 1512.5,-155"/>
<text text-anchor="middle" x="1403" y="-139.8" font-family="Sans-Serif" font-size="14.00" fill="#000000">AU10_r_percentile80.0 &lt;= 0.512</text>
<text text-anchor="middle" x="1403" y="-124.8" font-family="Sans-Serif" font-size="14.00" fill="#000000">gini = 0.49</text>
<text text-anchor="middle" x="1403" y="-109.8" font-family="Sans-Serif" font-size="14.00" fill="#000000">samples = 14</text>
<text text-anchor="middle" x="1403" y="-94.8" font-family="Sans-Serif" font-size="14.00" fill="#000000">value = [8, 6]</text>
<text text-anchor="middle" x="1403" y="-79.8" font-family="Sans-Serif" font-size="14.00" fill="#000000">class = 0</text>
</g>
<!-- 62&#45;&gt;63 -->
<g id="edge23" class="edge">
<title>62&#45;&gt;63</title>
<path fill="none" stroke="#000000" d="M1403,-190.8796C1403,-182.6838 1403,-173.9891 1403,-165.5013"/>
<polygon fill="#000000" stroke="#000000" points="1406.5001,-165.298 1403,-155.2981 1399.5001,-165.2981 1406.5001,-165.298"/>
</g>
<!-- 66 -->
<g id="node27" class="node">
<title>66</title>
<polygon fill="none" stroke="#000000" points="1697,-155 1531,-155 1531,-72 1697,-72 1697,-155"/>
<text text-anchor="middle" x="1614" y="-139.8" font-family="Sans-Serif" font-size="14.00" fill="#000000">AU10_r_mean &lt;= 0.068</text>
<text text-anchor="middle" x="1614" y="-124.8" font-family="Sans-Serif" font-size="14.00" fill="#000000">gini = 0.008</text>
<text text-anchor="middle" x="1614" y="-109.8" font-family="Sans-Serif" font-size="14.00" fill="#000000">samples = 264</text>
<text text-anchor="middle" x="1614" y="-94.8" font-family="Sans-Serif" font-size="14.00" fill="#000000">value = [1, 263]</text>
<text text-anchor="middle" x="1614" y="-79.8" font-family="Sans-Serif" font-size="14.00" fill="#000000">class = 1</text>
</g>
<!-- 62&#45;&gt;66 -->
<g id="edge26" class="edge">
<title>62&#45;&gt;66</title>
<path fill="none" stroke="#000000" d="M1476.7976,-190.8796C1494.4658,-180.915 1513.4418,-170.2129 1531.4763,-160.0418"/>
<polygon fill="#000000" stroke="#000000" points="1533.2532,-163.058 1540.2441,-155.0969 1529.8145,-156.9608 1533.2532,-163.058"/>
</g>
<!-- 64 -->
<g id="node25" class="node">
<title>64</title>
<polygon fill="none" stroke="#000000" points="1394,-36 1340,-36 1340,0 1394,0 1394,-36"/>
<text text-anchor="middle" x="1367" y="-14.3" font-family="Sans-Serif" font-size="14.00" fill="#000000">(...)</text>
</g>
<!-- 63&#45;&gt;64 -->
<g id="edge24" class="edge">
<title>63&#45;&gt;64</title>
<path fill="none" stroke="#000000" d="M1387.3146,-71.8901C1383.9739,-63.0279 1380.525,-53.8788 1377.4386,-45.6913"/>
<polygon fill="#000000" stroke="#000000" points="1380.6877,-44.3878 1373.8853,-36.2651 1374.1376,-46.8569 1380.6877,-44.3878"/>
</g>
<!-- 65 -->
<g id="node26" class="node">
<title>65</title>
<polygon fill="none" stroke="#000000" points="1466,-36 1412,-36 1412,0 1466,0 1466,-36"/>
<text text-anchor="middle" x="1439" y="-14.3" font-family="Sans-Serif" font-size="14.00" fill="#000000">(...)</text>
</g>
<!-- 63&#45;&gt;65 -->
<g id="edge25" class="edge">
<title>63&#45;&gt;65</title>
<path fill="none" stroke="#000000" d="M1418.6854,-71.8901C1422.0261,-63.0279 1425.475,-53.8788 1428.5614,-45.6913"/>
<polygon fill="#000000" stroke="#000000" points="1431.8624,-46.8569 1432.1147,-36.2651 1425.3123,-44.3878 1431.8624,-46.8569"/>
</g>
<!-- 67 -->
<g id="node28" class="node">
<title>67</title>
<polygon fill="none" stroke="#000000" points="1605,-36 1551,-36 1551,0 1605,0 1605,-36"/>
<text text-anchor="middle" x="1578" y="-14.3" font-family="Sans-Serif" font-size="14.00" fill="#000000">(...)</text>
</g>
<!-- 66&#45;&gt;67 -->
<g id="edge27" class="edge">
<title>66&#45;&gt;67</title>
<path fill="none" stroke="#000000" d="M1598.3146,-71.8901C1594.9739,-63.0279 1591.525,-53.8788 1588.4386,-45.6913"/>
<polygon fill="#000000" stroke="#000000" points="1591.6877,-44.3878 1584.8853,-36.2651 1585.1376,-46.8569 1591.6877,-44.3878"/>
</g>
<!-- 68 -->
<g id="node29" class="node">
<title>68</title>
<polygon fill="none" stroke="#000000" points="1677,-36 1623,-36 1623,0 1677,0 1677,-36"/>
<text text-anchor="middle" x="1650" y="-14.3" font-family="Sans-Serif" font-size="14.00" fill="#000000">(...)</text>
</g>
<!-- 66&#45;&gt;68 -->
<g id="edge28" class="edge">
<title>66&#45;&gt;68</title>
<path fill="none" stroke="#000000" d="M1629.6854,-71.8901C1633.0261,-63.0279 1636.475,-53.8788 1639.5614,-45.6913"/>
<polygon fill="#000000" stroke="#000000" points="1642.8624,-46.8569 1643.1147,-36.2651 1636.3123,-44.3878 1642.8624,-46.8569"/>
</g>
</g>
</svg>
