<?xml version="1.0" encoding="utf-8" standalone="no"?>
<!DOCTYPE svg PUBLIC "-//W3C//DTD SVG 1.1//EN"
  "http://www.w3.org/Graphics/SVG/1.1/DTD/svg11.dtd">
<!-- Created with matplotlib (https://matplotlib.org/) -->
<svg height="324.635938pt" version="1.1" viewBox="0 0 353.928693 324.635938" width="353.928693pt" xmlns="http://www.w3.org/2000/svg" xmlns:xlink="http://www.w3.org/1999/xlink">
 <defs>
  <style type="text/css">
*{stroke-linecap:butt;stroke-linejoin:round;}
  </style>
 </defs>
 <g id="figure_1">
  <g id="patch_1">
   <path d="M 0 324.635938 
L 353.928693 324.635938 
L 353.928693 0 
L 0 0 
z
" style="fill:#ffffff;"/>
  </g>
  <g id="axes_1">
   <g id="patch_2">
    <path d="M 65.283594 279 
L 344.283594 279 
L 344.283594 7.2 
L 65.283594 7.2 
z
" style="fill:#ffffff;"/>
   </g>
   <g id="matplotlib.axis_1">
    <g id="xtick_1">
     <g id="text_1">
      <!-- 0 -->
      <defs>
       <path d="M 4.15625 35.296875 
Q 4.15625 48 6.765625 55.734375 
Q 9.375 63.484375 14.515625 67.671875 
Q 19.671875 71.875 27.484375 71.875 
Q 33.25 71.875 37.59375 69.546875 
Q 41.9375 67.234375 44.765625 62.859375 
Q 47.609375 58.5 49.21875 52.21875 
Q 50.828125 45.953125 50.828125 35.296875 
Q 50.828125 22.703125 48.234375 14.96875 
Q 45.65625 7.234375 40.5 3 
Q 35.359375 -1.21875 27.484375 -1.21875 
Q 17.140625 -1.21875 11.234375 6.203125 
Q 4.15625 15.140625 4.15625 35.296875 
z
M 13.1875 35.296875 
Q 13.1875 17.671875 17.3125 11.828125 
Q 21.4375 6 27.484375 6 
Q 33.546875 6 37.671875 11.859375 
Q 41.796875 17.71875 41.796875 35.296875 
Q 41.796875 52.984375 37.671875 58.78125 
Q 33.546875 64.59375 27.390625 64.59375 
Q 21.34375 64.59375 17.71875 59.46875 
Q 13.1875 52.9375 13.1875 35.296875 
z
" id="ArialMT-48"/>
      </defs>
      <g style="fill:#262626;" transform="translate(68.565093 296.736719)scale(0.15 -0.15)">
       <use xlink:href="#ArialMT-48"/>
      </g>
     </g>
    </g>
    <g id="xtick_2">
     <g id="text_2">
      <!-- 20 -->
      <defs>
       <path d="M 50.34375 8.453125 
L 50.34375 0 
L 3.03125 0 
Q 2.9375 3.171875 4.046875 6.109375 
Q 5.859375 10.9375 9.828125 15.625 
Q 13.8125 20.3125 21.34375 26.46875 
Q 33.015625 36.03125 37.109375 41.625 
Q 41.21875 47.21875 41.21875 52.203125 
Q 41.21875 57.421875 37.46875 61 
Q 33.734375 64.59375 27.734375 64.59375 
Q 21.390625 64.59375 17.578125 60.78125 
Q 13.765625 56.984375 13.71875 50.25 
L 4.6875 51.171875 
Q 5.609375 61.28125 11.65625 66.578125 
Q 17.71875 71.875 27.9375 71.875 
Q 38.234375 71.875 44.234375 66.15625 
Q 50.25 60.453125 50.25 52 
Q 50.25 47.703125 48.484375 43.546875 
Q 46.734375 39.40625 42.65625 34.8125 
Q 38.578125 30.21875 29.109375 22.21875 
Q 21.1875 15.578125 18.9375 13.203125 
Q 16.703125 10.84375 15.234375 8.453125 
z
" id="ArialMT-50"/>
      </defs>
      <g style="fill:#262626;" transform="translate(116.690547 296.736719)scale(0.15 -0.15)">
       <use xlink:href="#ArialMT-50"/>
       <use x="55.615234" xlink:href="#ArialMT-48"/>
      </g>
     </g>
    </g>
    <g id="xtick_3">
     <g id="text_3">
      <!-- 40 -->
      <defs>
       <path d="M 32.328125 0 
L 32.328125 17.140625 
L 1.265625 17.140625 
L 1.265625 25.203125 
L 33.9375 71.578125 
L 41.109375 71.578125 
L 41.109375 25.203125 
L 50.78125 25.203125 
L 50.78125 17.140625 
L 41.109375 17.140625 
L 41.109375 0 
z
M 32.328125 25.203125 
L 32.328125 57.46875 
L 9.90625 25.203125 
z
" id="ArialMT-52"/>
      </defs>
      <g style="fill:#262626;" transform="translate(168.986705 296.736719)scale(0.15 -0.15)">
       <use xlink:href="#ArialMT-52"/>
       <use x="55.615234" xlink:href="#ArialMT-48"/>
      </g>
     </g>
    </g>
    <g id="xtick_4">
     <g id="text_4">
      <!-- 60 -->
      <defs>
       <path d="M 49.75 54.046875 
L 41.015625 53.375 
Q 39.84375 58.546875 37.703125 60.890625 
Q 34.125 64.65625 28.90625 64.65625 
Q 24.703125 64.65625 21.53125 62.3125 
Q 17.390625 59.28125 14.984375 53.46875 
Q 12.59375 47.65625 12.5 36.921875 
Q 15.671875 41.75 20.265625 44.09375 
Q 24.859375 46.4375 29.890625 46.4375 
Q 38.671875 46.4375 44.84375 39.96875 
Q 51.03125 33.5 51.03125 23.25 
Q 51.03125 16.5 48.125 10.71875 
Q 45.21875 4.9375 40.140625 1.859375 
Q 35.0625 -1.21875 28.609375 -1.21875 
Q 17.625 -1.21875 10.6875 6.859375 
Q 3.765625 14.9375 3.765625 33.5 
Q 3.765625 54.25 11.421875 63.671875 
Q 18.109375 71.875 29.4375 71.875 
Q 37.890625 71.875 43.28125 67.140625 
Q 48.6875 62.40625 49.75 54.046875 
z
M 13.875 23.1875 
Q 13.875 18.65625 15.796875 14.5 
Q 17.71875 10.359375 21.1875 8.171875 
Q 24.65625 6 28.46875 6 
Q 34.03125 6 38.03125 10.484375 
Q 42.046875 14.984375 42.046875 22.703125 
Q 42.046875 30.125 38.078125 34.390625 
Q 34.125 38.671875 28.125 38.671875 
Q 22.171875 38.671875 18.015625 34.390625 
Q 13.875 30.125 13.875 23.1875 
z
" id="ArialMT-54"/>
      </defs>
      <g style="fill:#262626;" transform="translate(221.282862 296.736719)scale(0.15 -0.15)">
       <use xlink:href="#ArialMT-54"/>
       <use x="55.615234" xlink:href="#ArialMT-48"/>
      </g>
     </g>
    </g>
    <g id="xtick_5">
     <g id="text_5">
      <!-- 80 -->
      <defs>
       <path d="M 17.671875 38.8125 
Q 12.203125 40.828125 9.5625 44.53125 
Q 6.9375 48.25 6.9375 53.421875 
Q 6.9375 61.234375 12.546875 66.546875 
Q 18.171875 71.875 27.484375 71.875 
Q 36.859375 71.875 42.578125 66.421875 
Q 48.296875 60.984375 48.296875 53.171875 
Q 48.296875 48.1875 45.671875 44.5 
Q 43.0625 40.828125 37.75 38.8125 
Q 44.34375 36.671875 47.78125 31.875 
Q 51.21875 27.09375 51.21875 20.453125 
Q 51.21875 11.28125 44.71875 5.03125 
Q 38.234375 -1.21875 27.640625 -1.21875 
Q 17.046875 -1.21875 10.546875 5.046875 
Q 4.046875 11.328125 4.046875 20.703125 
Q 4.046875 27.6875 7.59375 32.390625 
Q 11.140625 37.109375 17.671875 38.8125 
z
M 15.921875 53.71875 
Q 15.921875 48.640625 19.1875 45.40625 
Q 22.46875 42.1875 27.6875 42.1875 
Q 32.765625 42.1875 36.015625 45.375 
Q 39.265625 48.578125 39.265625 53.21875 
Q 39.265625 58.0625 35.90625 61.359375 
Q 32.5625 64.65625 27.59375 64.65625 
Q 22.5625 64.65625 19.234375 61.421875 
Q 15.921875 58.203125 15.921875 53.71875 
z
M 13.09375 20.65625 
Q 13.09375 16.890625 14.875 13.375 
Q 16.65625 9.859375 20.171875 7.921875 
Q 23.6875 6 27.734375 6 
Q 34.03125 6 38.125 10.046875 
Q 42.234375 14.109375 42.234375 20.359375 
Q 42.234375 26.703125 38.015625 30.859375 
Q 33.796875 35.015625 27.4375 35.015625 
Q 21.234375 35.015625 17.15625 30.90625 
Q 13.09375 26.8125 13.09375 20.65625 
z
" id="ArialMT-56"/>
      </defs>
      <g style="fill:#262626;" transform="translate(273.57902 296.736719)scale(0.15 -0.15)">
       <use xlink:href="#ArialMT-56"/>
       <use x="55.615234" xlink:href="#ArialMT-48"/>
      </g>
     </g>
    </g>
    <g id="xtick_6">
     <g id="text_6">
      <!-- 100 -->
      <defs>
       <path d="M 37.25 0 
L 28.46875 0 
L 28.46875 56 
Q 25.296875 52.984375 20.140625 49.953125 
Q 14.984375 46.921875 10.890625 45.40625 
L 10.890625 53.90625 
Q 18.265625 57.375 23.78125 62.296875 
Q 29.296875 67.234375 31.59375 71.875 
L 37.25 71.875 
z
" id="ArialMT-49"/>
      </defs>
      <g style="fill:#262626;" transform="translate(321.704474 296.736719)scale(0.15 -0.15)">
       <use xlink:href="#ArialMT-49"/>
       <use x="55.615234" xlink:href="#ArialMT-48"/>
       <use x="111.230469" xlink:href="#ArialMT-48"/>
      </g>
     </g>
    </g>
    <g id="text_7">
     <!-- k -->
     <defs>
      <path d="M 6.640625 0 
L 6.640625 71.578125 
L 15.4375 71.578125 
L 15.4375 30.765625 
L 36.234375 51.859375 
L 47.609375 51.859375 
L 27.78125 32.625 
L 49.609375 0 
L 38.765625 0 
L 21.625 26.515625 
L 15.4375 20.5625 
L 15.4375 0 
z
" id="ArialMT-107"/>
     </defs>
     <g style="fill:#262626;" transform="translate(201.033594 314.454688)scale(0.15 -0.15)">
      <use xlink:href="#ArialMT-107"/>
     </g>
    </g>
   </g>
   <g id="matplotlib.axis_2">
    <g id="ytick_1">
     <g id="line2d_1">
      <path clip-path="url(#pcb15c5b100)" d="M 65.283594 268.282958 
L 344.283594 268.282958 
" style="fill:none;stroke:#cccccc;stroke-linecap:round;stroke-width:0.8;"/>
     </g>
     <g id="text_8">
      <!-- 0 -->
      <g style="fill:#262626;" transform="translate(49.942188 273.651318)scale(0.15 -0.15)">
       <use xlink:href="#ArialMT-48"/>
      </g>
     </g>
    </g>
    <g id="ytick_2">
     <g id="line2d_2">
      <path clip-path="url(#pcb15c5b100)" d="M 65.283594 218.836105 
L 344.283594 218.836105 
" style="fill:none;stroke:#cccccc;stroke-linecap:round;stroke-width:0.8;"/>
     </g>
     <g id="text_9">
      <!-- 500 -->
      <defs>
       <path d="M 4.15625 18.75 
L 13.375 19.53125 
Q 14.40625 12.796875 18.140625 9.390625 
Q 21.875 6 27.15625 6 
Q 33.5 6 37.890625 10.78125 
Q 42.28125 15.578125 42.28125 23.484375 
Q 42.28125 31 38.0625 35.34375 
Q 33.84375 39.703125 27 39.703125 
Q 22.75 39.703125 19.328125 37.765625 
Q 15.921875 35.84375 13.96875 32.765625 
L 5.71875 33.84375 
L 12.640625 70.609375 
L 48.25 70.609375 
L 48.25 62.203125 
L 19.671875 62.203125 
L 15.828125 42.96875 
Q 22.265625 47.46875 29.34375 47.46875 
Q 38.71875 47.46875 45.15625 40.96875 
Q 51.609375 34.46875 51.609375 24.265625 
Q 51.609375 14.546875 45.953125 7.46875 
Q 39.0625 -1.21875 27.15625 -1.21875 
Q 17.390625 -1.21875 11.203125 4.25 
Q 5.03125 9.71875 4.15625 18.75 
z
" id="ArialMT-53"/>
      </defs>
      <g style="fill:#262626;" transform="translate(33.259375 224.204465)scale(0.15 -0.15)">
       <use xlink:href="#ArialMT-53"/>
       <use x="55.615234" xlink:href="#ArialMT-48"/>
       <use x="111.230469" xlink:href="#ArialMT-48"/>
      </g>
     </g>
    </g>
    <g id="ytick_3">
     <g id="line2d_3">
      <path clip-path="url(#pcb15c5b100)" d="M 65.283594 169.389252 
L 344.283594 169.389252 
" style="fill:none;stroke:#cccccc;stroke-linecap:round;stroke-width:0.8;"/>
     </g>
     <g id="text_10">
      <!-- 1000 -->
      <g style="fill:#262626;" transform="translate(24.917969 174.757612)scale(0.15 -0.15)">
       <use xlink:href="#ArialMT-49"/>
       <use x="55.615234" xlink:href="#ArialMT-48"/>
       <use x="111.230469" xlink:href="#ArialMT-48"/>
       <use x="166.845703" xlink:href="#ArialMT-48"/>
      </g>
     </g>
    </g>
    <g id="ytick_4">
     <g id="line2d_4">
      <path clip-path="url(#pcb15c5b100)" d="M 65.283594 119.942399 
L 344.283594 119.942399 
" style="fill:none;stroke:#cccccc;stroke-linecap:round;stroke-width:0.8;"/>
     </g>
     <g id="text_11">
      <!-- 1500 -->
      <g style="fill:#262626;" transform="translate(24.917969 125.310759)scale(0.15 -0.15)">
       <use xlink:href="#ArialMT-49"/>
       <use x="55.615234" xlink:href="#ArialMT-53"/>
       <use x="111.230469" xlink:href="#ArialMT-48"/>
       <use x="166.845703" xlink:href="#ArialMT-48"/>
      </g>
     </g>
    </g>
    <g id="ytick_5">
     <g id="line2d_5">
      <path clip-path="url(#pcb15c5b100)" d="M 65.283594 70.495546 
L 344.283594 70.495546 
" style="fill:none;stroke:#cccccc;stroke-linecap:round;stroke-width:0.8;"/>
     </g>
     <g id="text_12">
      <!-- 2000 -->
      <g style="fill:#262626;" transform="translate(24.917969 75.863906)scale(0.15 -0.15)">
       <use xlink:href="#ArialMT-50"/>
       <use x="55.615234" xlink:href="#ArialMT-48"/>
       <use x="111.230469" xlink:href="#ArialMT-48"/>
       <use x="166.845703" xlink:href="#ArialMT-48"/>
      </g>
     </g>
    </g>
    <g id="ytick_6">
     <g id="line2d_6">
      <path clip-path="url(#pcb15c5b100)" d="M 65.283594 21.048693 
L 344.283594 21.048693 
" style="fill:none;stroke:#cccccc;stroke-linecap:round;stroke-width:0.8;"/>
     </g>
     <g id="text_13">
      <!-- 2500 -->
      <g style="fill:#262626;" transform="translate(24.917969 26.417053)scale(0.15 -0.15)">
       <use xlink:href="#ArialMT-50"/>
       <use x="55.615234" xlink:href="#ArialMT-53"/>
       <use x="111.230469" xlink:href="#ArialMT-48"/>
       <use x="166.845703" xlink:href="#ArialMT-48"/>
      </g>
     </g>
    </g>
    <g id="text_14">
     <!-- Between-Cluster Variation -->
     <defs>
      <path d="M 7.328125 0 
L 7.328125 71.578125 
L 34.1875 71.578125 
Q 42.390625 71.578125 47.34375 69.40625 
Q 52.296875 67.234375 55.09375 62.71875 
Q 57.90625 58.203125 57.90625 53.265625 
Q 57.90625 48.6875 55.421875 44.625 
Q 52.9375 40.578125 47.90625 38.09375 
Q 54.390625 36.1875 57.875 31.59375 
Q 61.375 27 61.375 20.75 
Q 61.375 15.71875 59.25 11.390625 
Q 57.125 7.078125 54 4.734375 
Q 50.875 2.390625 46.15625 1.1875 
Q 41.453125 0 34.625 0 
z
M 16.796875 41.5 
L 32.28125 41.5 
Q 38.578125 41.5 41.3125 42.328125 
Q 44.921875 43.40625 46.75 45.890625 
Q 48.578125 48.390625 48.578125 52.15625 
Q 48.578125 55.71875 46.875 58.421875 
Q 45.171875 61.140625 41.984375 62.140625 
Q 38.8125 63.140625 31.109375 63.140625 
L 16.796875 63.140625 
z
M 16.796875 8.453125 
L 34.625 8.453125 
Q 39.203125 8.453125 41.0625 8.796875 
Q 44.34375 9.375 46.53125 10.734375 
Q 48.734375 12.109375 50.140625 14.71875 
Q 51.5625 17.328125 51.5625 20.75 
Q 51.5625 24.75 49.515625 27.703125 
Q 47.46875 30.671875 43.828125 31.859375 
Q 40.1875 33.0625 33.34375 33.0625 
L 16.796875 33.0625 
z
" id="ArialMT-66"/>
      <path d="M 42.09375 16.703125 
L 51.171875 15.578125 
Q 49.03125 7.625 43.21875 3.21875 
Q 37.40625 -1.171875 28.375 -1.171875 
Q 17 -1.171875 10.328125 5.828125 
Q 3.65625 12.84375 3.65625 25.484375 
Q 3.65625 38.578125 10.390625 45.796875 
Q 17.140625 53.03125 27.875 53.03125 
Q 38.28125 53.03125 44.875 45.953125 
Q 51.46875 38.875 51.46875 26.03125 
Q 51.46875 25.25 51.421875 23.6875 
L 12.75 23.6875 
Q 13.234375 15.140625 17.578125 10.59375 
Q 21.921875 6.0625 28.421875 6.0625 
Q 33.25 6.0625 36.671875 8.59375 
Q 40.09375 11.140625 42.09375 16.703125 
z
M 13.234375 30.90625 
L 42.1875 30.90625 
Q 41.609375 37.453125 38.875 40.71875 
Q 34.671875 45.796875 27.984375 45.796875 
Q 21.921875 45.796875 17.796875 41.75 
Q 13.671875 37.703125 13.234375 30.90625 
z
" id="ArialMT-101"/>
      <path d="M 25.78125 7.859375 
L 27.046875 0.09375 
Q 23.34375 -0.6875 20.40625 -0.6875 
Q 15.625 -0.6875 12.984375 0.828125 
Q 10.359375 2.34375 9.28125 4.8125 
Q 8.203125 7.28125 8.203125 15.1875 
L 8.203125 45.015625 
L 1.765625 45.015625 
L 1.765625 51.859375 
L 8.203125 51.859375 
L 8.203125 64.703125 
L 16.9375 69.96875 
L 16.9375 51.859375 
L 25.78125 51.859375 
L 25.78125 45.015625 
L 16.9375 45.015625 
L 16.9375 14.703125 
Q 16.9375 10.9375 17.40625 9.859375 
Q 17.875 8.796875 18.921875 8.15625 
Q 19.96875 7.515625 21.921875 7.515625 
Q 23.390625 7.515625 25.78125 7.859375 
z
" id="ArialMT-116"/>
      <path d="M 16.15625 0 
L 0.296875 51.859375 
L 9.375 51.859375 
L 17.625 21.921875 
L 20.703125 10.796875 
Q 20.90625 11.625 23.390625 21.484375 
L 31.640625 51.859375 
L 40.671875 51.859375 
L 48.4375 21.78125 
L 51.03125 11.859375 
L 54 21.875 
L 62.890625 51.859375 
L 71.4375 51.859375 
L 55.21875 0 
L 46.09375 0 
L 37.84375 31.0625 
L 35.84375 39.890625 
L 25.34375 0 
z
" id="ArialMT-119"/>
      <path d="M 6.59375 0 
L 6.59375 51.859375 
L 14.5 51.859375 
L 14.5 44.484375 
Q 20.21875 53.03125 31 53.03125 
Q 35.6875 53.03125 39.625 51.34375 
Q 43.5625 49.65625 45.515625 46.921875 
Q 47.46875 44.1875 48.25 40.4375 
Q 48.734375 37.984375 48.734375 31.890625 
L 48.734375 0 
L 39.9375 0 
L 39.9375 31.546875 
Q 39.9375 36.921875 38.90625 39.578125 
Q 37.890625 42.234375 35.28125 43.8125 
Q 32.671875 45.40625 29.15625 45.40625 
Q 23.53125 45.40625 19.453125 41.84375 
Q 15.375 38.28125 15.375 28.328125 
L 15.375 0 
z
" id="ArialMT-110"/>
      <path d="M 3.171875 21.484375 
L 3.171875 30.328125 
L 30.171875 30.328125 
L 30.171875 21.484375 
z
" id="ArialMT-45"/>
      <path d="M 58.796875 25.09375 
L 68.265625 22.703125 
Q 65.28125 11.03125 57.546875 4.90625 
Q 49.8125 -1.21875 38.625 -1.21875 
Q 27.046875 -1.21875 19.796875 3.484375 
Q 12.546875 8.203125 8.765625 17.140625 
Q 4.984375 26.078125 4.984375 36.328125 
Q 4.984375 47.515625 9.25 55.828125 
Q 13.53125 64.15625 21.40625 68.46875 
Q 29.296875 72.796875 38.765625 72.796875 
Q 49.515625 72.796875 56.828125 67.328125 
Q 64.15625 61.859375 67.046875 51.953125 
L 57.71875 49.75 
Q 55.21875 57.5625 50.484375 61.125 
Q 45.75 64.703125 38.578125 64.703125 
Q 30.328125 64.703125 24.78125 60.734375 
Q 19.234375 56.78125 16.984375 50.109375 
Q 14.75 43.453125 14.75 36.375 
Q 14.75 27.25 17.40625 20.4375 
Q 20.0625 13.625 25.671875 10.25 
Q 31.296875 6.890625 37.84375 6.890625 
Q 45.796875 6.890625 51.3125 11.46875 
Q 56.84375 16.0625 58.796875 25.09375 
z
" id="ArialMT-67"/>
      <path d="M 6.390625 0 
L 6.390625 71.578125 
L 15.1875 71.578125 
L 15.1875 0 
z
" id="ArialMT-108"/>
      <path d="M 40.578125 0 
L 40.578125 7.625 
Q 34.515625 -1.171875 24.125 -1.171875 
Q 19.53125 -1.171875 15.546875 0.578125 
Q 11.578125 2.34375 9.640625 5 
Q 7.71875 7.671875 6.9375 11.53125 
Q 6.390625 14.109375 6.390625 19.734375 
L 6.390625 51.859375 
L 15.1875 51.859375 
L 15.1875 23.09375 
Q 15.1875 16.21875 15.71875 13.8125 
Q 16.546875 10.359375 19.234375 8.375 
Q 21.921875 6.390625 25.875 6.390625 
Q 29.828125 6.390625 33.296875 8.421875 
Q 36.765625 10.453125 38.203125 13.9375 
Q 39.65625 17.4375 39.65625 24.078125 
L 39.65625 51.859375 
L 48.4375 51.859375 
L 48.4375 0 
z
" id="ArialMT-117"/>
      <path d="M 3.078125 15.484375 
L 11.765625 16.84375 
Q 12.5 11.625 15.84375 8.84375 
Q 19.1875 6.0625 25.203125 6.0625 
Q 31.25 6.0625 34.171875 8.515625 
Q 37.109375 10.984375 37.109375 14.3125 
Q 37.109375 17.28125 34.515625 19 
Q 32.71875 20.171875 25.53125 21.96875 
Q 15.875 24.421875 12.140625 26.203125 
Q 8.40625 27.984375 6.46875 31.125 
Q 4.546875 34.28125 4.546875 38.09375 
Q 4.546875 41.546875 6.125 44.5 
Q 7.71875 47.46875 10.453125 49.421875 
Q 12.5 50.921875 16.03125 51.96875 
Q 19.578125 53.03125 23.640625 53.03125 
Q 29.734375 53.03125 34.34375 51.265625 
Q 38.96875 49.515625 41.15625 46.5 
Q 43.359375 43.5 44.1875 38.484375 
L 35.59375 37.3125 
Q 35.015625 41.3125 32.203125 43.546875 
Q 29.390625 45.796875 24.265625 45.796875 
Q 18.21875 45.796875 15.625 43.796875 
Q 13.03125 41.796875 13.03125 39.109375 
Q 13.03125 37.40625 14.109375 36.03125 
Q 15.1875 34.625 17.484375 33.6875 
Q 18.796875 33.203125 25.25 31.453125 
Q 34.578125 28.953125 38.25 27.359375 
Q 41.9375 25.78125 44.03125 22.75 
Q 46.140625 19.734375 46.140625 15.234375 
Q 46.140625 10.84375 43.578125 6.953125 
Q 41.015625 3.078125 36.171875 0.953125 
Q 31.34375 -1.171875 25.25 -1.171875 
Q 15.140625 -1.171875 9.84375 3.03125 
Q 4.546875 7.234375 3.078125 15.484375 
z
" id="ArialMT-115"/>
      <path d="M 6.5 0 
L 6.5 51.859375 
L 14.40625 51.859375 
L 14.40625 44 
Q 17.4375 49.515625 20 51.265625 
Q 22.5625 53.03125 25.640625 53.03125 
Q 30.078125 53.03125 34.671875 50.203125 
L 31.640625 42.046875 
Q 28.421875 43.953125 25.203125 43.953125 
Q 22.3125 43.953125 20.015625 42.21875 
Q 17.71875 40.484375 16.75 37.40625 
Q 15.28125 32.71875 15.28125 27.15625 
L 15.28125 0 
z
" id="ArialMT-114"/>
      <path id="ArialMT-32"/>
      <path d="M 28.171875 0 
L 0.4375 71.578125 
L 10.6875 71.578125 
L 29.296875 19.578125 
Q 31.546875 13.328125 33.0625 7.859375 
Q 34.71875 13.71875 36.921875 19.578125 
L 56.25 71.578125 
L 65.921875 71.578125 
L 37.890625 0 
z
" id="ArialMT-86"/>
      <path d="M 40.4375 6.390625 
Q 35.546875 2.25 31.03125 0.53125 
Q 26.515625 -1.171875 21.34375 -1.171875 
Q 12.796875 -1.171875 8.203125 3 
Q 3.609375 7.171875 3.609375 13.671875 
Q 3.609375 17.484375 5.34375 20.625 
Q 7.078125 23.78125 9.890625 25.6875 
Q 12.703125 27.59375 16.21875 28.5625 
Q 18.796875 29.25 24.03125 29.890625 
Q 34.671875 31.15625 39.703125 32.90625 
Q 39.75 34.71875 39.75 35.203125 
Q 39.75 40.578125 37.25 42.78125 
Q 33.890625 45.75 27.25 45.75 
Q 21.046875 45.75 18.09375 43.578125 
Q 15.140625 41.40625 13.71875 35.890625 
L 5.125 37.0625 
Q 6.296875 42.578125 8.984375 45.96875 
Q 11.671875 49.359375 16.75 51.1875 
Q 21.828125 53.03125 28.515625 53.03125 
Q 35.15625 53.03125 39.296875 51.46875 
Q 43.453125 49.90625 45.40625 47.53125 
Q 47.359375 45.171875 48.140625 41.546875 
Q 48.578125 39.3125 48.578125 33.453125 
L 48.578125 21.734375 
Q 48.578125 9.46875 49.140625 6.21875 
Q 49.703125 2.984375 51.375 0 
L 42.1875 0 
Q 40.828125 2.734375 40.4375 6.390625 
z
M 39.703125 26.03125 
Q 34.90625 24.078125 25.34375 22.703125 
Q 19.921875 21.921875 17.671875 20.9375 
Q 15.4375 19.96875 14.203125 18.09375 
Q 12.984375 16.21875 12.984375 13.921875 
Q 12.984375 10.40625 15.640625 8.0625 
Q 18.3125 5.71875 23.4375 5.71875 
Q 28.515625 5.71875 32.46875 7.9375 
Q 36.421875 10.15625 38.28125 14.015625 
Q 39.703125 17 39.703125 22.796875 
z
" id="ArialMT-97"/>
      <path d="M 6.640625 61.46875 
L 6.640625 71.578125 
L 15.4375 71.578125 
L 15.4375 61.46875 
z
M 6.640625 0 
L 6.640625 51.859375 
L 15.4375 51.859375 
L 15.4375 0 
z
" id="ArialMT-105"/>
      <path d="M 3.328125 25.921875 
Q 3.328125 40.328125 11.328125 47.265625 
Q 18.015625 53.03125 27.640625 53.03125 
Q 38.328125 53.03125 45.109375 46.015625 
Q 51.90625 39.015625 51.90625 26.65625 
Q 51.90625 16.65625 48.90625 10.90625 
Q 45.90625 5.171875 40.15625 2 
Q 34.421875 -1.171875 27.640625 -1.171875 
Q 16.75 -1.171875 10.03125 5.8125 
Q 3.328125 12.796875 3.328125 25.921875 
z
M 12.359375 25.921875 
Q 12.359375 15.96875 16.703125 11.015625 
Q 21.046875 6.0625 27.640625 6.0625 
Q 34.1875 6.0625 38.53125 11.03125 
Q 42.875 16.015625 42.875 26.21875 
Q 42.875 35.84375 38.5 40.796875 
Q 34.125 45.75 27.640625 45.75 
Q 21.046875 45.75 16.703125 40.8125 
Q 12.359375 35.890625 12.359375 25.921875 
z
" id="ArialMT-111"/>
     </defs>
     <g style="fill:#262626;" transform="translate(17.936719 230.2125)rotate(-90)scale(0.15 -0.15)">
      <use xlink:href="#ArialMT-66"/>
      <use x="66.699219" xlink:href="#ArialMT-101"/>
      <use x="122.314453" xlink:href="#ArialMT-116"/>
      <use x="150.097656" xlink:href="#ArialMT-119"/>
      <use x="222.314453" xlink:href="#ArialMT-101"/>
      <use x="277.929688" xlink:href="#ArialMT-101"/>
      <use x="333.544922" xlink:href="#ArialMT-110"/>
      <use x="389.160156" xlink:href="#ArialMT-45"/>
      <use x="422.460938" xlink:href="#ArialMT-67"/>
      <use x="494.677734" xlink:href="#ArialMT-108"/>
      <use x="516.894531" xlink:href="#ArialMT-117"/>
      <use x="572.509766" xlink:href="#ArialMT-115"/>
      <use x="622.509766" xlink:href="#ArialMT-116"/>
      <use x="650.292969" xlink:href="#ArialMT-101"/>
      <use x="705.908203" xlink:href="#ArialMT-114"/>
      <use x="739.208984" xlink:href="#ArialMT-32"/>
      <use x="766.992188" xlink:href="#ArialMT-86"/>
      <use x="833.582031" xlink:href="#ArialMT-97"/>
      <use x="889.197266" xlink:href="#ArialMT-114"/>
      <use x="922.498047" xlink:href="#ArialMT-105"/>
      <use x="944.714844" xlink:href="#ArialMT-97"/>
      <use x="1000.330078" xlink:href="#ArialMT-116"/>
      <use x="1028.113281" xlink:href="#ArialMT-105"/>
      <use x="1050.330078" xlink:href="#ArialMT-111"/>
      <use x="1105.945312" xlink:href="#ArialMT-110"/>
     </g>
    </g>
   </g>
   <g id="line2d_7">
    <path clip-path="url(#pcb15c5b100)" d="M 77.965412 266.645455 
L 80.58022 265.194706 
L 83.195028 263.888685 
L 85.809836 262.370774 
L 88.424643 261.275726 
L 91.039451 259.881549 
L 93.654259 258.455621 
L 96.269067 256.964366 
L 98.883875 255.9885 
L 101.498683 254.806767 
L 104.113491 253.579506 
L 106.728299 252.792296 
L 109.343106 251.468595 
L 111.957914 250.738125 
L 114.572722 249.826551 
L 117.18753 248.610825 
L 119.802338 247.558423 
L 122.417146 246.497597 
L 125.031954 245.844679 
L 127.646762 244.768194 
L 130.261569 244.010295 
L 132.876377 243.010077 
L 135.491185 241.713234 
L 138.105993 240.772365 
L 140.720801 239.58718 
L 143.335609 238.688406 
L 145.950417 237.509877 
L 148.565224 236.700594 
L 151.180032 235.724007 
L 153.79484 234.89869 
L 156.409648 234.171076 
L 159.024456 233.1203 
L 161.639264 232.306197 
L 164.254072 231.587842 
L 166.86888 230.785094 
L 169.483687 230.204595 
L 172.098495 228.324755 
L 174.713303 227.475006 
L 177.328111 226.723909 
L 179.942919 226.07787 
L 182.557727 224.728372 
L 185.172535 223.670268 
L 187.787343 223.095731 
L 190.40215 222.378206 
L 193.016958 221.642362 
L 195.631766 221.133051 
L 198.246574 220.913933 
L 200.861382 220.224832 
L 203.47619 219.647888 
L 206.090998 218.849623 
L 208.705806 218.168573 
L 211.320613 216.982141 
L 213.935421 215.957175 
L 216.550229 215.293581 
L 219.165037 213.823724 
L 221.779845 213.064217 
L 224.394653 212.470394 
L 227.009461 211.449796 
L 229.624269 207.895797 
L 232.239076 207.461116 
L 234.853884 205.640965 
L 237.468692 205.184184 
L 240.0835 204.372636 
L 242.698308 203.359654 
L 245.313116 201.139471 
L 247.927924 200.944791 
L 250.542732 200.358397 
L 253.157539 200.024668 
L 255.772347 199.254618 
L 258.387155 198.640548 
L 261.001963 197.756533 
L 263.616771 196.978332 
L 266.231579 196.375208 
L 268.846387 195.0606 
L 271.461194 194.376074 
L 274.076002 194.010827 
L 276.69081 193.570821 
L 279.305618 192.231772 
L 281.920426 191.886324 
L 284.535234 191.290155 
L 287.150042 190.657 
L 289.76485 190.11515 
L 292.379657 189.368995 
L 294.994465 188.464774 
L 297.609273 188.057101 
L 300.224081 187.380837 
L 302.838889 185.715753 
L 305.453697 185.551484 
L 308.068505 184.920044 
L 310.683313 184.135839 
L 313.29812 183.668903 
L 315.912928 183.232184 
L 318.527736 182.548137 
L 321.142544 182.02853 
L 323.757352 180.998754 
L 326.37216 180.585806 
L 328.986968 180.15287 
L 331.601776 179.552473 
" style="fill:none;stroke:#1f77b4;stroke-linecap:round;stroke-width:1.5;"/>
    <defs>
     <path d="M 0 3 
C 0.795609 3 1.55874 2.683901 2.12132 2.12132 
C 2.683901 1.55874 3 0.795609 3 0 
C 3 -0.795609 2.683901 -1.55874 2.12132 -2.12132 
C 1.55874 -2.683901 0.795609 -3 0 -3 
C -0.795609 -3 -1.55874 -2.683901 -2.12132 -2.12132 
C -2.683901 -1.55874 -3 -0.795609 -3 0 
C -3 0.795609 -2.683901 1.55874 -2.12132 2.12132 
C -1.55874 2.683901 -0.795609 3 0 3 
z
" id="mb950557719" style="stroke:#ffffff;stroke-width:0.75;"/>
    </defs>
    <g clip-path="url(#pcb15c5b100)">
     <use style="fill:#1f77b4;stroke:#ffffff;stroke-width:0.75;" x="77.965412" xlink:href="#mb950557719" y="266.645455"/>
     <use style="fill:#1f77b4;stroke:#ffffff;stroke-width:0.75;" x="80.58022" xlink:href="#mb950557719" y="265.194706"/>
     <use style="fill:#1f77b4;stroke:#ffffff;stroke-width:0.75;" x="83.195028" xlink:href="#mb950557719" y="263.888685"/>
     <use style="fill:#1f77b4;stroke:#ffffff;stroke-width:0.75;" x="85.809836" xlink:href="#mb950557719" y="262.370774"/>
     <use style="fill:#1f77b4;stroke:#ffffff;stroke-width:0.75;" x="88.424643" xlink:href="#mb950557719" y="261.275726"/>
     <use style="fill:#1f77b4;stroke:#ffffff;stroke-width:0.75;" x="91.039451" xlink:href="#mb950557719" y="259.881549"/>
     <use style="fill:#1f77b4;stroke:#ffffff;stroke-width:0.75;" x="93.654259" xlink:href="#mb950557719" y="258.455621"/>
     <use style="fill:#1f77b4;stroke:#ffffff;stroke-width:0.75;" x="96.269067" xlink:href="#mb950557719" y="256.964366"/>
     <use style="fill:#1f77b4;stroke:#ffffff;stroke-width:0.75;" x="98.883875" xlink:href="#mb950557719" y="255.9885"/>
     <use style="fill:#1f77b4;stroke:#ffffff;stroke-width:0.75;" x="101.498683" xlink:href="#mb950557719" y="254.806767"/>
     <use style="fill:#1f77b4;stroke:#ffffff;stroke-width:0.75;" x="104.113491" xlink:href="#mb950557719" y="253.579506"/>
     <use style="fill:#1f77b4;stroke:#ffffff;stroke-width:0.75;" x="106.728299" xlink:href="#mb950557719" y="252.792296"/>
     <use style="fill:#1f77b4;stroke:#ffffff;stroke-width:0.75;" x="109.343106" xlink:href="#mb950557719" y="251.468595"/>
     <use style="fill:#1f77b4;stroke:#ffffff;stroke-width:0.75;" x="111.957914" xlink:href="#mb950557719" y="250.738125"/>
     <use style="fill:#1f77b4;stroke:#ffffff;stroke-width:0.75;" x="114.572722" xlink:href="#mb950557719" y="249.826551"/>
     <use style="fill:#1f77b4;stroke:#ffffff;stroke-width:0.75;" x="117.18753" xlink:href="#mb950557719" y="248.610825"/>
     <use style="fill:#1f77b4;stroke:#ffffff;stroke-width:0.75;" x="119.802338" xlink:href="#mb950557719" y="247.558423"/>
     <use style="fill:#1f77b4;stroke:#ffffff;stroke-width:0.75;" x="122.417146" xlink:href="#mb950557719" y="246.497597"/>
     <use style="fill:#1f77b4;stroke:#ffffff;stroke-width:0.75;" x="125.031954" xlink:href="#mb950557719" y="245.844679"/>
     <use style="fill:#1f77b4;stroke:#ffffff;stroke-width:0.75;" x="127.646762" xlink:href="#mb950557719" y="244.768194"/>
     <use style="fill:#1f77b4;stroke:#ffffff;stroke-width:0.75;" x="130.261569" xlink:href="#mb950557719" y="244.010295"/>
     <use style="fill:#1f77b4;stroke:#ffffff;stroke-width:0.75;" x="132.876377" xlink:href="#mb950557719" y="243.010077"/>
     <use style="fill:#1f77b4;stroke:#ffffff;stroke-width:0.75;" x="135.491185" xlink:href="#mb950557719" y="241.713234"/>
     <use style="fill:#1f77b4;stroke:#ffffff;stroke-width:0.75;" x="138.105993" xlink:href="#mb950557719" y="240.772365"/>
     <use style="fill:#1f77b4;stroke:#ffffff;stroke-width:0.75;" x="140.720801" xlink:href="#mb950557719" y="239.58718"/>
     <use style="fill:#1f77b4;stroke:#ffffff;stroke-width:0.75;" x="143.335609" xlink:href="#mb950557719" y="238.688406"/>
     <use style="fill:#1f77b4;stroke:#ffffff;stroke-width:0.75;" x="145.950417" xlink:href="#mb950557719" y="237.509877"/>
     <use style="fill:#1f77b4;stroke:#ffffff;stroke-width:0.75;" x="148.565224" xlink:href="#mb950557719" y="236.700594"/>
     <use style="fill:#1f77b4;stroke:#ffffff;stroke-width:0.75;" x="151.180032" xlink:href="#mb950557719" y="235.724007"/>
     <use style="fill:#1f77b4;stroke:#ffffff;stroke-width:0.75;" x="153.79484" xlink:href="#mb950557719" y="234.89869"/>
     <use style="fill:#1f77b4;stroke:#ffffff;stroke-width:0.75;" x="156.409648" xlink:href="#mb950557719" y="234.171076"/>
     <use style="fill:#1f77b4;stroke:#ffffff;stroke-width:0.75;" x="159.024456" xlink:href="#mb950557719" y="233.1203"/>
     <use style="fill:#1f77b4;stroke:#ffffff;stroke-width:0.75;" x="161.639264" xlink:href="#mb950557719" y="232.306197"/>
     <use style="fill:#1f77b4;stroke:#ffffff;stroke-width:0.75;" x="164.254072" xlink:href="#mb950557719" y="231.587842"/>
     <use style="fill:#1f77b4;stroke:#ffffff;stroke-width:0.75;" x="166.86888" xlink:href="#mb950557719" y="230.785094"/>
     <use style="fill:#1f77b4;stroke:#ffffff;stroke-width:0.75;" x="169.483687" xlink:href="#mb950557719" y="230.204595"/>
     <use style="fill:#1f77b4;stroke:#ffffff;stroke-width:0.75;" x="172.098495" xlink:href="#mb950557719" y="228.324755"/>
     <use style="fill:#1f77b4;stroke:#ffffff;stroke-width:0.75;" x="174.713303" xlink:href="#mb950557719" y="227.475006"/>
     <use style="fill:#1f77b4;stroke:#ffffff;stroke-width:0.75;" x="177.328111" xlink:href="#mb950557719" y="226.723909"/>
     <use style="fill:#1f77b4;stroke:#ffffff;stroke-width:0.75;" x="179.942919" xlink:href="#mb950557719" y="226.07787"/>
     <use style="fill:#1f77b4;stroke:#ffffff;stroke-width:0.75;" x="182.557727" xlink:href="#mb950557719" y="224.728372"/>
     <use style="fill:#1f77b4;stroke:#ffffff;stroke-width:0.75;" x="185.172535" xlink:href="#mb950557719" y="223.670268"/>
     <use style="fill:#1f77b4;stroke:#ffffff;stroke-width:0.75;" x="187.787343" xlink:href="#mb950557719" y="223.095731"/>
     <use style="fill:#1f77b4;stroke:#ffffff;stroke-width:0.75;" x="190.40215" xlink:href="#mb950557719" y="222.378206"/>
     <use style="fill:#1f77b4;stroke:#ffffff;stroke-width:0.75;" x="193.016958" xlink:href="#mb950557719" y="221.642362"/>
     <use style="fill:#1f77b4;stroke:#ffffff;stroke-width:0.75;" x="195.631766" xlink:href="#mb950557719" y="221.133051"/>
     <use style="fill:#1f77b4;stroke:#ffffff;stroke-width:0.75;" x="198.246574" xlink:href="#mb950557719" y="220.913933"/>
     <use style="fill:#1f77b4;stroke:#ffffff;stroke-width:0.75;" x="200.861382" xlink:href="#mb950557719" y="220.224832"/>
     <use style="fill:#1f77b4;stroke:#ffffff;stroke-width:0.75;" x="203.47619" xlink:href="#mb950557719" y="219.647888"/>
     <use style="fill:#1f77b4;stroke:#ffffff;stroke-width:0.75;" x="206.090998" xlink:href="#mb950557719" y="218.849623"/>
     <use style="fill:#1f77b4;stroke:#ffffff;stroke-width:0.75;" x="208.705806" xlink:href="#mb950557719" y="218.168573"/>
     <use style="fill:#1f77b4;stroke:#ffffff;stroke-width:0.75;" x="211.320613" xlink:href="#mb950557719" y="216.982141"/>
     <use style="fill:#1f77b4;stroke:#ffffff;stroke-width:0.75;" x="213.935421" xlink:href="#mb950557719" y="215.957175"/>
     <use style="fill:#1f77b4;stroke:#ffffff;stroke-width:0.75;" x="216.550229" xlink:href="#mb950557719" y="215.293581"/>
     <use style="fill:#1f77b4;stroke:#ffffff;stroke-width:0.75;" x="219.165037" xlink:href="#mb950557719" y="213.823724"/>
     <use style="fill:#1f77b4;stroke:#ffffff;stroke-width:0.75;" x="221.779845" xlink:href="#mb950557719" y="213.064217"/>
     <use style="fill:#1f77b4;stroke:#ffffff;stroke-width:0.75;" x="224.394653" xlink:href="#mb950557719" y="212.470394"/>
     <use style="fill:#1f77b4;stroke:#ffffff;stroke-width:0.75;" x="227.009461" xlink:href="#mb950557719" y="211.449796"/>
     <use style="fill:#1f77b4;stroke:#ffffff;stroke-width:0.75;" x="229.624269" xlink:href="#mb950557719" y="207.895797"/>
     <use style="fill:#1f77b4;stroke:#ffffff;stroke-width:0.75;" x="232.239076" xlink:href="#mb950557719" y="207.461116"/>
     <use style="fill:#1f77b4;stroke:#ffffff;stroke-width:0.75;" x="234.853884" xlink:href="#mb950557719" y="205.640965"/>
     <use style="fill:#1f77b4;stroke:#ffffff;stroke-width:0.75;" x="237.468692" xlink:href="#mb950557719" y="205.184184"/>
     <use style="fill:#1f77b4;stroke:#ffffff;stroke-width:0.75;" x="240.0835" xlink:href="#mb950557719" y="204.372636"/>
     <use style="fill:#1f77b4;stroke:#ffffff;stroke-width:0.75;" x="242.698308" xlink:href="#mb950557719" y="203.359654"/>
     <use style="fill:#1f77b4;stroke:#ffffff;stroke-width:0.75;" x="245.313116" xlink:href="#mb950557719" y="201.139471"/>
     <use style="fill:#1f77b4;stroke:#ffffff;stroke-width:0.75;" x="247.927924" xlink:href="#mb950557719" y="200.944791"/>
     <use style="fill:#1f77b4;stroke:#ffffff;stroke-width:0.75;" x="250.542732" xlink:href="#mb950557719" y="200.358397"/>
     <use style="fill:#1f77b4;stroke:#ffffff;stroke-width:0.75;" x="253.157539" xlink:href="#mb950557719" y="200.024668"/>
     <use style="fill:#1f77b4;stroke:#ffffff;stroke-width:0.75;" x="255.772347" xlink:href="#mb950557719" y="199.254618"/>
     <use style="fill:#1f77b4;stroke:#ffffff;stroke-width:0.75;" x="258.387155" xlink:href="#mb950557719" y="198.640548"/>
     <use style="fill:#1f77b4;stroke:#ffffff;stroke-width:0.75;" x="261.001963" xlink:href="#mb950557719" y="197.756533"/>
     <use style="fill:#1f77b4;stroke:#ffffff;stroke-width:0.75;" x="263.616771" xlink:href="#mb950557719" y="196.978332"/>
     <use style="fill:#1f77b4;stroke:#ffffff;stroke-width:0.75;" x="266.231579" xlink:href="#mb950557719" y="196.375208"/>
     <use style="fill:#1f77b4;stroke:#ffffff;stroke-width:0.75;" x="268.846387" xlink:href="#mb950557719" y="195.0606"/>
     <use style="fill:#1f77b4;stroke:#ffffff;stroke-width:0.75;" x="271.461194" xlink:href="#mb950557719" y="194.376074"/>
     <use style="fill:#1f77b4;stroke:#ffffff;stroke-width:0.75;" x="274.076002" xlink:href="#mb950557719" y="194.010827"/>
     <use style="fill:#1f77b4;stroke:#ffffff;stroke-width:0.75;" x="276.69081" xlink:href="#mb950557719" y="193.570821"/>
     <use style="fill:#1f77b4;stroke:#ffffff;stroke-width:0.75;" x="279.305618" xlink:href="#mb950557719" y="192.231772"/>
     <use style="fill:#1f77b4;stroke:#ffffff;stroke-width:0.75;" x="281.920426" xlink:href="#mb950557719" y="191.886324"/>
     <use style="fill:#1f77b4;stroke:#ffffff;stroke-width:0.75;" x="284.535234" xlink:href="#mb950557719" y="191.290155"/>
     <use style="fill:#1f77b4;stroke:#ffffff;stroke-width:0.75;" x="287.150042" xlink:href="#mb950557719" y="190.657"/>
     <use style="fill:#1f77b4;stroke:#ffffff;stroke-width:0.75;" x="289.76485" xlink:href="#mb950557719" y="190.11515"/>
     <use style="fill:#1f77b4;stroke:#ffffff;stroke-width:0.75;" x="292.379657" xlink:href="#mb950557719" y="189.368995"/>
     <use style="fill:#1f77b4;stroke:#ffffff;stroke-width:0.75;" x="294.994465" xlink:href="#mb950557719" y="188.464774"/>
     <use style="fill:#1f77b4;stroke:#ffffff;stroke-width:0.75;" x="297.609273" xlink:href="#mb950557719" y="188.057101"/>
     <use style="fill:#1f77b4;stroke:#ffffff;stroke-width:0.75;" x="300.224081" xlink:href="#mb950557719" y="187.380837"/>
     <use style="fill:#1f77b4;stroke:#ffffff;stroke-width:0.75;" x="302.838889" xlink:href="#mb950557719" y="185.715753"/>
     <use style="fill:#1f77b4;stroke:#ffffff;stroke-width:0.75;" x="305.453697" xlink:href="#mb950557719" y="185.551484"/>
     <use style="fill:#1f77b4;stroke:#ffffff;stroke-width:0.75;" x="308.068505" xlink:href="#mb950557719" y="184.920044"/>
     <use style="fill:#1f77b4;stroke:#ffffff;stroke-width:0.75;" x="310.683313" xlink:href="#mb950557719" y="184.135839"/>
     <use style="fill:#1f77b4;stroke:#ffffff;stroke-width:0.75;" x="313.29812" xlink:href="#mb950557719" y="183.668903"/>
     <use style="fill:#1f77b4;stroke:#ffffff;stroke-width:0.75;" x="315.912928" xlink:href="#mb950557719" y="183.232184"/>
     <use style="fill:#1f77b4;stroke:#ffffff;stroke-width:0.75;" x="318.527736" xlink:href="#mb950557719" y="182.548137"/>
     <use style="fill:#1f77b4;stroke:#ffffff;stroke-width:0.75;" x="321.142544" xlink:href="#mb950557719" y="182.02853"/>
     <use style="fill:#1f77b4;stroke:#ffffff;stroke-width:0.75;" x="323.757352" xlink:href="#mb950557719" y="180.998754"/>
     <use style="fill:#1f77b4;stroke:#ffffff;stroke-width:0.75;" x="326.37216" xlink:href="#mb950557719" y="180.585806"/>
     <use style="fill:#1f77b4;stroke:#ffffff;stroke-width:0.75;" x="328.986968" xlink:href="#mb950557719" y="180.15287"/>
     <use style="fill:#1f77b4;stroke:#ffffff;stroke-width:0.75;" x="331.601776" xlink:href="#mb950557719" y="179.552473"/>
    </g>
   </g>
   <g id="line2d_8">
    <path clip-path="url(#pcb15c5b100)" d="M 77.965412 215.363871 
L 80.58022 191.624161 
L 83.195028 180.632584 
L 85.809836 178.043258 
L 88.424643 174.955991 
L 91.039451 172.617649 
L 93.654259 170.142353 
L 96.269067 168.940544 
L 98.883875 166.406253 
L 101.498683 165.513926 
L 104.113491 154.244119 
L 106.728299 152.071844 
L 109.343106 142.714381 
L 111.957914 141.437742 
L 114.572722 140.16526 
L 117.18753 138.166586 
L 119.802338 136.384464 
L 122.417146 131.394097 
L 125.031954 128.033251 
L 127.646762 115.877132 
L 130.261569 115.117726 
L 132.876377 113.915029 
L 135.491185 112.315803 
L 138.105993 110.308151 
L 140.720801 109.473133 
L 143.335609 105.513389 
L 145.950417 104.634398 
L 148.565224 103.821609 
L 151.180032 103.144779 
L 153.79484 101.769396 
L 156.409648 101.159127 
L 159.024456 100.377942 
L 161.639264 99.308342 
L 164.254072 98.460889 
L 166.86888 97.384444 
L 169.483687 95.854635 
L 172.098495 95.083849 
L 174.713303 88.261908 
L 177.328111 87.618702 
L 179.942919 86.086278 
L 182.557727 80.816489 
L 185.172535 80.044947 
L 187.787343 77.248164 
L 190.40215 76.128648 
L 193.016958 73.515954 
L 195.631766 72.419171 
L 198.246574 71.124663 
L 200.861382 70.185051 
L 203.47619 69.542117 
L 206.090998 68.816741 
L 208.705806 67.505248 
L 211.320613 65.082309 
L 213.935421 63.53443 
L 216.550229 62.090927 
L 219.165037 61.383407 
L 221.779845 60.227978 
L 224.394653 56.823051 
L 227.009461 55.36636 
L 229.624269 53.362459 
L 232.239076 52.562102 
L 234.853884 49.399829 
L 237.468692 48.976157 
L 240.0835 48.423193 
L 242.698308 47.73029 
L 245.313116 47.224222 
L 247.927924 45.871782 
L 250.542732 45.228752 
L 253.157539 44.836667 
L 255.772347 44.213505 
L 258.387155 41.713547 
L 261.001963 40.697562 
L 263.616771 39.339201 
L 266.231579 38.002403 
L 268.846387 37.527036 
L 271.461194 36.26128 
L 274.076002 35.59425 
L 276.69081 35.129476 
L 279.305618 33.0505 
L 281.920426 32.229468 
L 284.535234 31.511181 
L 287.150042 30.956935 
L 289.76485 29.45482 
L 292.379657 29.052626 
L 294.994465 28.295812 
L 297.609273 27.246993 
L 300.224081 26.44475 
L 302.838889 25.869173 
L 305.453697 25.067674 
L 308.068505 24.551029 
L 310.683313 24.136821 
L 313.29812 23.717572 
L 315.912928 23.119834 
L 318.527736 22.501799 
L 321.142544 21.9038 
L 323.757352 21.447191 
L 326.37216 20.489562 
L 328.986968 19.99417 
L 331.601776 19.554545 
" style="fill:none;stroke:#ff7f0e;stroke-linecap:round;stroke-width:1.5;"/>
    <defs>
     <path d="M 0 3 
C 0.795609 3 1.55874 2.683901 2.12132 2.12132 
C 2.683901 1.55874 3 0.795609 3 0 
C 3 -0.795609 2.683901 -1.55874 2.12132 -2.12132 
C 1.55874 -2.683901 0.795609 -3 0 -3 
C -0.795609 -3 -1.55874 -2.683901 -2.12132 -2.12132 
C -2.683901 -1.55874 -3 -0.795609 -3 0 
C -3 0.795609 -2.683901 1.55874 -2.12132 2.12132 
C -1.55874 2.683901 -0.795609 3 0 3 
z
" id="me905457d37" style="stroke:#ffffff;stroke-width:0.75;"/>
    </defs>
    <g clip-path="url(#pcb15c5b100)">
     <use style="fill:#ff7f0e;stroke:#ffffff;stroke-width:0.75;" x="77.965412" xlink:href="#me905457d37" y="215.363871"/>
     <use style="fill:#ff7f0e;stroke:#ffffff;stroke-width:0.75;" x="80.58022" xlink:href="#me905457d37" y="191.624161"/>
     <use style="fill:#ff7f0e;stroke:#ffffff;stroke-width:0.75;" x="83.195028" xlink:href="#me905457d37" y="180.632584"/>
     <use style="fill:#ff7f0e;stroke:#ffffff;stroke-width:0.75;" x="85.809836" xlink:href="#me905457d37" y="178.043258"/>
     <use style="fill:#ff7f0e;stroke:#ffffff;stroke-width:0.75;" x="88.424643" xlink:href="#me905457d37" y="174.955991"/>
     <use style="fill:#ff7f0e;stroke:#ffffff;stroke-width:0.75;" x="91.039451" xlink:href="#me905457d37" y="172.617649"/>
     <use style="fill:#ff7f0e;stroke:#ffffff;stroke-width:0.75;" x="93.654259" xlink:href="#me905457d37" y="170.142353"/>
     <use style="fill:#ff7f0e;stroke:#ffffff;stroke-width:0.75;" x="96.269067" xlink:href="#me905457d37" y="168.940544"/>
     <use style="fill:#ff7f0e;stroke:#ffffff;stroke-width:0.75;" x="98.883875" xlink:href="#me905457d37" y="166.406253"/>
     <use style="fill:#ff7f0e;stroke:#ffffff;stroke-width:0.75;" x="101.498683" xlink:href="#me905457d37" y="165.513926"/>
     <use style="fill:#ff7f0e;stroke:#ffffff;stroke-width:0.75;" x="104.113491" xlink:href="#me905457d37" y="154.244119"/>
     <use style="fill:#ff7f0e;stroke:#ffffff;stroke-width:0.75;" x="106.728299" xlink:href="#me905457d37" y="152.071844"/>
     <use style="fill:#ff7f0e;stroke:#ffffff;stroke-width:0.75;" x="109.343106" xlink:href="#me905457d37" y="142.714381"/>
     <use style="fill:#ff7f0e;stroke:#ffffff;stroke-width:0.75;" x="111.957914" xlink:href="#me905457d37" y="141.437742"/>
     <use style="fill:#ff7f0e;stroke:#ffffff;stroke-width:0.75;" x="114.572722" xlink:href="#me905457d37" y="140.16526"/>
     <use style="fill:#ff7f0e;stroke:#ffffff;stroke-width:0.75;" x="117.18753" xlink:href="#me905457d37" y="138.166586"/>
     <use style="fill:#ff7f0e;stroke:#ffffff;stroke-width:0.75;" x="119.802338" xlink:href="#me905457d37" y="136.384464"/>
     <use style="fill:#ff7f0e;stroke:#ffffff;stroke-width:0.75;" x="122.417146" xlink:href="#me905457d37" y="131.394097"/>
     <use style="fill:#ff7f0e;stroke:#ffffff;stroke-width:0.75;" x="125.031954" xlink:href="#me905457d37" y="128.033251"/>
     <use style="fill:#ff7f0e;stroke:#ffffff;stroke-width:0.75;" x="127.646762" xlink:href="#me905457d37" y="115.877132"/>
     <use style="fill:#ff7f0e;stroke:#ffffff;stroke-width:0.75;" x="130.261569" xlink:href="#me905457d37" y="115.117726"/>
     <use style="fill:#ff7f0e;stroke:#ffffff;stroke-width:0.75;" x="132.876377" xlink:href="#me905457d37" y="113.915029"/>
     <use style="fill:#ff7f0e;stroke:#ffffff;stroke-width:0.75;" x="135.491185" xlink:href="#me905457d37" y="112.315803"/>
     <use style="fill:#ff7f0e;stroke:#ffffff;stroke-width:0.75;" x="138.105993" xlink:href="#me905457d37" y="110.308151"/>
     <use style="fill:#ff7f0e;stroke:#ffffff;stroke-width:0.75;" x="140.720801" xlink:href="#me905457d37" y="109.473133"/>
     <use style="fill:#ff7f0e;stroke:#ffffff;stroke-width:0.75;" x="143.335609" xlink:href="#me905457d37" y="105.513389"/>
     <use style="fill:#ff7f0e;stroke:#ffffff;stroke-width:0.75;" x="145.950417" xlink:href="#me905457d37" y="104.634398"/>
     <use style="fill:#ff7f0e;stroke:#ffffff;stroke-width:0.75;" x="148.565224" xlink:href="#me905457d37" y="103.821609"/>
     <use style="fill:#ff7f0e;stroke:#ffffff;stroke-width:0.75;" x="151.180032" xlink:href="#me905457d37" y="103.144779"/>
     <use style="fill:#ff7f0e;stroke:#ffffff;stroke-width:0.75;" x="153.79484" xlink:href="#me905457d37" y="101.769396"/>
     <use style="fill:#ff7f0e;stroke:#ffffff;stroke-width:0.75;" x="156.409648" xlink:href="#me905457d37" y="101.159127"/>
     <use style="fill:#ff7f0e;stroke:#ffffff;stroke-width:0.75;" x="159.024456" xlink:href="#me905457d37" y="100.377942"/>
     <use style="fill:#ff7f0e;stroke:#ffffff;stroke-width:0.75;" x="161.639264" xlink:href="#me905457d37" y="99.308342"/>
     <use style="fill:#ff7f0e;stroke:#ffffff;stroke-width:0.75;" x="164.254072" xlink:href="#me905457d37" y="98.460889"/>
     <use style="fill:#ff7f0e;stroke:#ffffff;stroke-width:0.75;" x="166.86888" xlink:href="#me905457d37" y="97.384444"/>
     <use style="fill:#ff7f0e;stroke:#ffffff;stroke-width:0.75;" x="169.483687" xlink:href="#me905457d37" y="95.854635"/>
     <use style="fill:#ff7f0e;stroke:#ffffff;stroke-width:0.75;" x="172.098495" xlink:href="#me905457d37" y="95.083849"/>
     <use style="fill:#ff7f0e;stroke:#ffffff;stroke-width:0.75;" x="174.713303" xlink:href="#me905457d37" y="88.261908"/>
     <use style="fill:#ff7f0e;stroke:#ffffff;stroke-width:0.75;" x="177.328111" xlink:href="#me905457d37" y="87.618702"/>
     <use style="fill:#ff7f0e;stroke:#ffffff;stroke-width:0.75;" x="179.942919" xlink:href="#me905457d37" y="86.086278"/>
     <use style="fill:#ff7f0e;stroke:#ffffff;stroke-width:0.75;" x="182.557727" xlink:href="#me905457d37" y="80.816489"/>
     <use style="fill:#ff7f0e;stroke:#ffffff;stroke-width:0.75;" x="185.172535" xlink:href="#me905457d37" y="80.044947"/>
     <use style="fill:#ff7f0e;stroke:#ffffff;stroke-width:0.75;" x="187.787343" xlink:href="#me905457d37" y="77.248164"/>
     <use style="fill:#ff7f0e;stroke:#ffffff;stroke-width:0.75;" x="190.40215" xlink:href="#me905457d37" y="76.128648"/>
     <use style="fill:#ff7f0e;stroke:#ffffff;stroke-width:0.75;" x="193.016958" xlink:href="#me905457d37" y="73.515954"/>
     <use style="fill:#ff7f0e;stroke:#ffffff;stroke-width:0.75;" x="195.631766" xlink:href="#me905457d37" y="72.419171"/>
     <use style="fill:#ff7f0e;stroke:#ffffff;stroke-width:0.75;" x="198.246574" xlink:href="#me905457d37" y="71.124663"/>
     <use style="fill:#ff7f0e;stroke:#ffffff;stroke-width:0.75;" x="200.861382" xlink:href="#me905457d37" y="70.185051"/>
     <use style="fill:#ff7f0e;stroke:#ffffff;stroke-width:0.75;" x="203.47619" xlink:href="#me905457d37" y="69.542117"/>
     <use style="fill:#ff7f0e;stroke:#ffffff;stroke-width:0.75;" x="206.090998" xlink:href="#me905457d37" y="68.816741"/>
     <use style="fill:#ff7f0e;stroke:#ffffff;stroke-width:0.75;" x="208.705806" xlink:href="#me905457d37" y="67.505248"/>
     <use style="fill:#ff7f0e;stroke:#ffffff;stroke-width:0.75;" x="211.320613" xlink:href="#me905457d37" y="65.082309"/>
     <use style="fill:#ff7f0e;stroke:#ffffff;stroke-width:0.75;" x="213.935421" xlink:href="#me905457d37" y="63.53443"/>
     <use style="fill:#ff7f0e;stroke:#ffffff;stroke-width:0.75;" x="216.550229" xlink:href="#me905457d37" y="62.090927"/>
     <use style="fill:#ff7f0e;stroke:#ffffff;stroke-width:0.75;" x="219.165037" xlink:href="#me905457d37" y="61.383407"/>
     <use style="fill:#ff7f0e;stroke:#ffffff;stroke-width:0.75;" x="221.779845" xlink:href="#me905457d37" y="60.227978"/>
     <use style="fill:#ff7f0e;stroke:#ffffff;stroke-width:0.75;" x="224.394653" xlink:href="#me905457d37" y="56.823051"/>
     <use style="fill:#ff7f0e;stroke:#ffffff;stroke-width:0.75;" x="227.009461" xlink:href="#me905457d37" y="55.36636"/>
     <use style="fill:#ff7f0e;stroke:#ffffff;stroke-width:0.75;" x="229.624269" xlink:href="#me905457d37" y="53.362459"/>
     <use style="fill:#ff7f0e;stroke:#ffffff;stroke-width:0.75;" x="232.239076" xlink:href="#me905457d37" y="52.562102"/>
     <use style="fill:#ff7f0e;stroke:#ffffff;stroke-width:0.75;" x="234.853884" xlink:href="#me905457d37" y="49.399829"/>
     <use style="fill:#ff7f0e;stroke:#ffffff;stroke-width:0.75;" x="237.468692" xlink:href="#me905457d37" y="48.976157"/>
     <use style="fill:#ff7f0e;stroke:#ffffff;stroke-width:0.75;" x="240.0835" xlink:href="#me905457d37" y="48.423193"/>
     <use style="fill:#ff7f0e;stroke:#ffffff;stroke-width:0.75;" x="242.698308" xlink:href="#me905457d37" y="47.73029"/>
     <use style="fill:#ff7f0e;stroke:#ffffff;stroke-width:0.75;" x="245.313116" xlink:href="#me905457d37" y="47.224222"/>
     <use style="fill:#ff7f0e;stroke:#ffffff;stroke-width:0.75;" x="247.927924" xlink:href="#me905457d37" y="45.871782"/>
     <use style="fill:#ff7f0e;stroke:#ffffff;stroke-width:0.75;" x="250.542732" xlink:href="#me905457d37" y="45.228752"/>
     <use style="fill:#ff7f0e;stroke:#ffffff;stroke-width:0.75;" x="253.157539" xlink:href="#me905457d37" y="44.836667"/>
     <use style="fill:#ff7f0e;stroke:#ffffff;stroke-width:0.75;" x="255.772347" xlink:href="#me905457d37" y="44.213505"/>
     <use style="fill:#ff7f0e;stroke:#ffffff;stroke-width:0.75;" x="258.387155" xlink:href="#me905457d37" y="41.713547"/>
     <use style="fill:#ff7f0e;stroke:#ffffff;stroke-width:0.75;" x="261.001963" xlink:href="#me905457d37" y="40.697562"/>
     <use style="fill:#ff7f0e;stroke:#ffffff;stroke-width:0.75;" x="263.616771" xlink:href="#me905457d37" y="39.339201"/>
     <use style="fill:#ff7f0e;stroke:#ffffff;stroke-width:0.75;" x="266.231579" xlink:href="#me905457d37" y="38.002403"/>
     <use style="fill:#ff7f0e;stroke:#ffffff;stroke-width:0.75;" x="268.846387" xlink:href="#me905457d37" y="37.527036"/>
     <use style="fill:#ff7f0e;stroke:#ffffff;stroke-width:0.75;" x="271.461194" xlink:href="#me905457d37" y="36.26128"/>
     <use style="fill:#ff7f0e;stroke:#ffffff;stroke-width:0.75;" x="274.076002" xlink:href="#me905457d37" y="35.59425"/>
     <use style="fill:#ff7f0e;stroke:#ffffff;stroke-width:0.75;" x="276.69081" xlink:href="#me905457d37" y="35.129476"/>
     <use style="fill:#ff7f0e;stroke:#ffffff;stroke-width:0.75;" x="279.305618" xlink:href="#me905457d37" y="33.0505"/>
     <use style="fill:#ff7f0e;stroke:#ffffff;stroke-width:0.75;" x="281.920426" xlink:href="#me905457d37" y="32.229468"/>
     <use style="fill:#ff7f0e;stroke:#ffffff;stroke-width:0.75;" x="284.535234" xlink:href="#me905457d37" y="31.511181"/>
     <use style="fill:#ff7f0e;stroke:#ffffff;stroke-width:0.75;" x="287.150042" xlink:href="#me905457d37" y="30.956935"/>
     <use style="fill:#ff7f0e;stroke:#ffffff;stroke-width:0.75;" x="289.76485" xlink:href="#me905457d37" y="29.45482"/>
     <use style="fill:#ff7f0e;stroke:#ffffff;stroke-width:0.75;" x="292.379657" xlink:href="#me905457d37" y="29.052626"/>
     <use style="fill:#ff7f0e;stroke:#ffffff;stroke-width:0.75;" x="294.994465" xlink:href="#me905457d37" y="28.295812"/>
     <use style="fill:#ff7f0e;stroke:#ffffff;stroke-width:0.75;" x="297.609273" xlink:href="#me905457d37" y="27.246993"/>
     <use style="fill:#ff7f0e;stroke:#ffffff;stroke-width:0.75;" x="300.224081" xlink:href="#me905457d37" y="26.44475"/>
     <use style="fill:#ff7f0e;stroke:#ffffff;stroke-width:0.75;" x="302.838889" xlink:href="#me905457d37" y="25.869173"/>
     <use style="fill:#ff7f0e;stroke:#ffffff;stroke-width:0.75;" x="305.453697" xlink:href="#me905457d37" y="25.067674"/>
     <use style="fill:#ff7f0e;stroke:#ffffff;stroke-width:0.75;" x="308.068505" xlink:href="#me905457d37" y="24.551029"/>
     <use style="fill:#ff7f0e;stroke:#ffffff;stroke-width:0.75;" x="310.683313" xlink:href="#me905457d37" y="24.136821"/>
     <use style="fill:#ff7f0e;stroke:#ffffff;stroke-width:0.75;" x="313.29812" xlink:href="#me905457d37" y="23.717572"/>
     <use style="fill:#ff7f0e;stroke:#ffffff;stroke-width:0.75;" x="315.912928" xlink:href="#me905457d37" y="23.119834"/>
     <use style="fill:#ff7f0e;stroke:#ffffff;stroke-width:0.75;" x="318.527736" xlink:href="#me905457d37" y="22.501799"/>
     <use style="fill:#ff7f0e;stroke:#ffffff;stroke-width:0.75;" x="321.142544" xlink:href="#me905457d37" y="21.9038"/>
     <use style="fill:#ff7f0e;stroke:#ffffff;stroke-width:0.75;" x="323.757352" xlink:href="#me905457d37" y="21.447191"/>
     <use style="fill:#ff7f0e;stroke:#ffffff;stroke-width:0.75;" x="326.37216" xlink:href="#me905457d37" y="20.489562"/>
     <use style="fill:#ff7f0e;stroke:#ffffff;stroke-width:0.75;" x="328.986968" xlink:href="#me905457d37" y="19.99417"/>
     <use style="fill:#ff7f0e;stroke:#ffffff;stroke-width:0.75;" x="331.601776" xlink:href="#me905457d37" y="19.554545"/>
    </g>
   </g>
   <g id="line2d_9">
    <path clip-path="url(#pcb15c5b100)" d="M 77.965412 265.561501 
L 80.58022 264.256173 
L 83.195028 259.306642 
L 85.809836 258.238169 
L 88.424643 224.93585 
L 91.039451 223.294752 
L 93.654259 221.080339 
L 96.269067 218.183101 
L 98.883875 215.938791 
L 101.498683 214.924185 
L 104.113491 195.963602 
L 106.728299 192.555828 
L 109.343106 191.498215 
L 111.957914 179.522552 
L 114.572722 178.831335 
L 117.18753 178.172817 
L 119.802338 177.000721 
L 122.417146 176.408588 
L 125.031954 168.133475 
L 127.646762 167.306176 
L 130.261569 166.502965 
L 132.876377 165.795445 
L 135.491185 162.300532 
L 138.105993 161.792131 
L 140.720801 160.539996 
L 143.335609 159.796504 
L 145.950417 157.673648 
L 148.565224 156.939341 
L 151.180032 155.904585 
L 153.79484 155.282315 
L 156.409648 154.343461 
L 159.024456 148.393879 
L 161.639264 147.929105 
L 164.254072 147.316039 
L 166.86888 140.357867 
L 169.483687 133.634963 
L 172.098495 132.954291 
L 174.713303 131.432944 
L 177.328111 129.502862 
L 179.942919 128.996794 
L 182.557727 128.484625 
L 185.172535 128.065376 
L 187.787343 127.608766 
L 190.40215 126.913814 
L 193.016958 125.685496 
L 195.631766 124.517564 
L 198.246574 123.97963 
L 200.861382 122.946967 
L 203.47619 121.092567 
L 206.090998 119.386313 
L 208.705806 107.696995 
L 211.320613 107.226665 
L 213.935421 106.710019 
L 216.550229 106.070406 
L 219.165037 105.24406 
L 221.779845 104.798782 
L 224.394653 104.175864 
L 227.009461 103.490971 
L 229.624269 101.930243 
L 232.239076 101.545211 
L 234.853884 101.124111 
L 237.468692 94.425782 
L 240.0835 93.648948 
L 242.698308 93.150848 
L 245.313116 92.457513 
L 247.927924 91.499637 
L 250.542732 90.153592 
L 253.157539 89.711359 
L 255.772347 89.359402 
L 258.387155 88.876005 
L 261.001963 88.167362 
L 263.616771 87.820991 
L 266.231579 76.373382 
L 268.846387 73.443732 
L 271.461194 73.04551 
L 274.076002 72.558873 
L 276.69081 72.034688 
L 279.305618 71.72187 
L 281.920426 62.968376 
L 284.535234 62.488673 
L 287.150042 61.57731 
L 289.76485 58.484778 
L 292.379657 57.887346 
L 294.994465 57.147027 
L 297.609273 56.819019 
L 300.224081 55.867772 
L 302.838889 55.296436 
L 305.453697 54.307515 
L 308.068505 53.998718 
L 310.683313 52.614077 
L 313.29812 51.897777 
L 315.912928 51.505268 
L 318.527736 51.231389 
L 321.142544 49.169509 
L 323.757352 47.773663 
L 326.37216 46.640411 
L 328.986968 45.784189 
L 331.601776 45.287601 
" style="fill:none;stroke:#2ca02c;stroke-linecap:round;stroke-width:1.5;"/>
    <defs>
     <path d="M 0 3 
C 0.795609 3 1.55874 2.683901 2.12132 2.12132 
C 2.683901 1.55874 3 0.795609 3 0 
C 3 -0.795609 2.683901 -1.55874 2.12132 -2.12132 
C 1.55874 -2.683901 0.795609 -3 0 -3 
C -0.795609 -3 -1.55874 -2.683901 -2.12132 -2.12132 
C -2.683901 -1.55874 -3 -0.795609 -3 0 
C -3 0.795609 -2.683901 1.55874 -2.12132 2.12132 
C -1.55874 2.683901 -0.795609 3 0 3 
z
" id="mdf89c73ce9" style="stroke:#ffffff;stroke-width:0.75;"/>
    </defs>
    <g clip-path="url(#pcb15c5b100)">
     <use style="fill:#2ca02c;stroke:#ffffff;stroke-width:0.75;" x="77.965412" xlink:href="#mdf89c73ce9" y="265.561501"/>
     <use style="fill:#2ca02c;stroke:#ffffff;stroke-width:0.75;" x="80.58022" xlink:href="#mdf89c73ce9" y="264.256173"/>
     <use style="fill:#2ca02c;stroke:#ffffff;stroke-width:0.75;" x="83.195028" xlink:href="#mdf89c73ce9" y="259.306642"/>
     <use style="fill:#2ca02c;stroke:#ffffff;stroke-width:0.75;" x="85.809836" xlink:href="#mdf89c73ce9" y="258.238169"/>
     <use style="fill:#2ca02c;stroke:#ffffff;stroke-width:0.75;" x="88.424643" xlink:href="#mdf89c73ce9" y="224.93585"/>
     <use style="fill:#2ca02c;stroke:#ffffff;stroke-width:0.75;" x="91.039451" xlink:href="#mdf89c73ce9" y="223.294752"/>
     <use style="fill:#2ca02c;stroke:#ffffff;stroke-width:0.75;" x="93.654259" xlink:href="#mdf89c73ce9" y="221.080339"/>
     <use style="fill:#2ca02c;stroke:#ffffff;stroke-width:0.75;" x="96.269067" xlink:href="#mdf89c73ce9" y="218.183101"/>
     <use style="fill:#2ca02c;stroke:#ffffff;stroke-width:0.75;" x="98.883875" xlink:href="#mdf89c73ce9" y="215.938791"/>
     <use style="fill:#2ca02c;stroke:#ffffff;stroke-width:0.75;" x="101.498683" xlink:href="#mdf89c73ce9" y="214.924185"/>
     <use style="fill:#2ca02c;stroke:#ffffff;stroke-width:0.75;" x="104.113491" xlink:href="#mdf89c73ce9" y="195.963602"/>
     <use style="fill:#2ca02c;stroke:#ffffff;stroke-width:0.75;" x="106.728299" xlink:href="#mdf89c73ce9" y="192.555828"/>
     <use style="fill:#2ca02c;stroke:#ffffff;stroke-width:0.75;" x="109.343106" xlink:href="#mdf89c73ce9" y="191.498215"/>
     <use style="fill:#2ca02c;stroke:#ffffff;stroke-width:0.75;" x="111.957914" xlink:href="#mdf89c73ce9" y="179.522552"/>
     <use style="fill:#2ca02c;stroke:#ffffff;stroke-width:0.75;" x="114.572722" xlink:href="#mdf89c73ce9" y="178.831335"/>
     <use style="fill:#2ca02c;stroke:#ffffff;stroke-width:0.75;" x="117.18753" xlink:href="#mdf89c73ce9" y="178.172817"/>
     <use style="fill:#2ca02c;stroke:#ffffff;stroke-width:0.75;" x="119.802338" xlink:href="#mdf89c73ce9" y="177.000721"/>
     <use style="fill:#2ca02c;stroke:#ffffff;stroke-width:0.75;" x="122.417146" xlink:href="#mdf89c73ce9" y="176.408588"/>
     <use style="fill:#2ca02c;stroke:#ffffff;stroke-width:0.75;" x="125.031954" xlink:href="#mdf89c73ce9" y="168.133475"/>
     <use style="fill:#2ca02c;stroke:#ffffff;stroke-width:0.75;" x="127.646762" xlink:href="#mdf89c73ce9" y="167.306176"/>
     <use style="fill:#2ca02c;stroke:#ffffff;stroke-width:0.75;" x="130.261569" xlink:href="#mdf89c73ce9" y="166.502965"/>
     <use style="fill:#2ca02c;stroke:#ffffff;stroke-width:0.75;" x="132.876377" xlink:href="#mdf89c73ce9" y="165.795445"/>
     <use style="fill:#2ca02c;stroke:#ffffff;stroke-width:0.75;" x="135.491185" xlink:href="#mdf89c73ce9" y="162.300532"/>
     <use style="fill:#2ca02c;stroke:#ffffff;stroke-width:0.75;" x="138.105993" xlink:href="#mdf89c73ce9" y="161.792131"/>
     <use style="fill:#2ca02c;stroke:#ffffff;stroke-width:0.75;" x="140.720801" xlink:href="#mdf89c73ce9" y="160.539996"/>
     <use style="fill:#2ca02c;stroke:#ffffff;stroke-width:0.75;" x="143.335609" xlink:href="#mdf89c73ce9" y="159.796504"/>
     <use style="fill:#2ca02c;stroke:#ffffff;stroke-width:0.75;" x="145.950417" xlink:href="#mdf89c73ce9" y="157.673648"/>
     <use style="fill:#2ca02c;stroke:#ffffff;stroke-width:0.75;" x="148.565224" xlink:href="#mdf89c73ce9" y="156.939341"/>
     <use style="fill:#2ca02c;stroke:#ffffff;stroke-width:0.75;" x="151.180032" xlink:href="#mdf89c73ce9" y="155.904585"/>
     <use style="fill:#2ca02c;stroke:#ffffff;stroke-width:0.75;" x="153.79484" xlink:href="#mdf89c73ce9" y="155.282315"/>
     <use style="fill:#2ca02c;stroke:#ffffff;stroke-width:0.75;" x="156.409648" xlink:href="#mdf89c73ce9" y="154.343461"/>
     <use style="fill:#2ca02c;stroke:#ffffff;stroke-width:0.75;" x="159.024456" xlink:href="#mdf89c73ce9" y="148.393879"/>
     <use style="fill:#2ca02c;stroke:#ffffff;stroke-width:0.75;" x="161.639264" xlink:href="#mdf89c73ce9" y="147.929105"/>
     <use style="fill:#2ca02c;stroke:#ffffff;stroke-width:0.75;" x="164.254072" xlink:href="#mdf89c73ce9" y="147.316039"/>
     <use style="fill:#2ca02c;stroke:#ffffff;stroke-width:0.75;" x="166.86888" xlink:href="#mdf89c73ce9" y="140.357867"/>
     <use style="fill:#2ca02c;stroke:#ffffff;stroke-width:0.75;" x="169.483687" xlink:href="#mdf89c73ce9" y="133.634963"/>
     <use style="fill:#2ca02c;stroke:#ffffff;stroke-width:0.75;" x="172.098495" xlink:href="#mdf89c73ce9" y="132.954291"/>
     <use style="fill:#2ca02c;stroke:#ffffff;stroke-width:0.75;" x="174.713303" xlink:href="#mdf89c73ce9" y="131.432944"/>
     <use style="fill:#2ca02c;stroke:#ffffff;stroke-width:0.75;" x="177.328111" xlink:href="#mdf89c73ce9" y="129.502862"/>
     <use style="fill:#2ca02c;stroke:#ffffff;stroke-width:0.75;" x="179.942919" xlink:href="#mdf89c73ce9" y="128.996794"/>
     <use style="fill:#2ca02c;stroke:#ffffff;stroke-width:0.75;" x="182.557727" xlink:href="#mdf89c73ce9" y="128.484625"/>
     <use style="fill:#2ca02c;stroke:#ffffff;stroke-width:0.75;" x="185.172535" xlink:href="#mdf89c73ce9" y="128.065376"/>
     <use style="fill:#2ca02c;stroke:#ffffff;stroke-width:0.75;" x="187.787343" xlink:href="#mdf89c73ce9" y="127.608766"/>
     <use style="fill:#2ca02c;stroke:#ffffff;stroke-width:0.75;" x="190.40215" xlink:href="#mdf89c73ce9" y="126.913814"/>
     <use style="fill:#2ca02c;stroke:#ffffff;stroke-width:0.75;" x="193.016958" xlink:href="#mdf89c73ce9" y="125.685496"/>
     <use style="fill:#2ca02c;stroke:#ffffff;stroke-width:0.75;" x="195.631766" xlink:href="#mdf89c73ce9" y="124.517564"/>
     <use style="fill:#2ca02c;stroke:#ffffff;stroke-width:0.75;" x="198.246574" xlink:href="#mdf89c73ce9" y="123.97963"/>
     <use style="fill:#2ca02c;stroke:#ffffff;stroke-width:0.75;" x="200.861382" xlink:href="#mdf89c73ce9" y="122.946967"/>
     <use style="fill:#2ca02c;stroke:#ffffff;stroke-width:0.75;" x="203.47619" xlink:href="#mdf89c73ce9" y="121.092567"/>
     <use style="fill:#2ca02c;stroke:#ffffff;stroke-width:0.75;" x="206.090998" xlink:href="#mdf89c73ce9" y="119.386313"/>
     <use style="fill:#2ca02c;stroke:#ffffff;stroke-width:0.75;" x="208.705806" xlink:href="#mdf89c73ce9" y="107.696995"/>
     <use style="fill:#2ca02c;stroke:#ffffff;stroke-width:0.75;" x="211.320613" xlink:href="#mdf89c73ce9" y="107.226665"/>
     <use style="fill:#2ca02c;stroke:#ffffff;stroke-width:0.75;" x="213.935421" xlink:href="#mdf89c73ce9" y="106.710019"/>
     <use style="fill:#2ca02c;stroke:#ffffff;stroke-width:0.75;" x="216.550229" xlink:href="#mdf89c73ce9" y="106.070406"/>
     <use style="fill:#2ca02c;stroke:#ffffff;stroke-width:0.75;" x="219.165037" xlink:href="#mdf89c73ce9" y="105.24406"/>
     <use style="fill:#2ca02c;stroke:#ffffff;stroke-width:0.75;" x="221.779845" xlink:href="#mdf89c73ce9" y="104.798782"/>
     <use style="fill:#2ca02c;stroke:#ffffff;stroke-width:0.75;" x="224.394653" xlink:href="#mdf89c73ce9" y="104.175864"/>
     <use style="fill:#2ca02c;stroke:#ffffff;stroke-width:0.75;" x="227.009461" xlink:href="#mdf89c73ce9" y="103.490971"/>
     <use style="fill:#2ca02c;stroke:#ffffff;stroke-width:0.75;" x="229.624269" xlink:href="#mdf89c73ce9" y="101.930243"/>
     <use style="fill:#2ca02c;stroke:#ffffff;stroke-width:0.75;" x="232.239076" xlink:href="#mdf89c73ce9" y="101.545211"/>
     <use style="fill:#2ca02c;stroke:#ffffff;stroke-width:0.75;" x="234.853884" xlink:href="#mdf89c73ce9" y="101.124111"/>
     <use style="fill:#2ca02c;stroke:#ffffff;stroke-width:0.75;" x="237.468692" xlink:href="#mdf89c73ce9" y="94.425782"/>
     <use style="fill:#2ca02c;stroke:#ffffff;stroke-width:0.75;" x="240.0835" xlink:href="#mdf89c73ce9" y="93.648948"/>
     <use style="fill:#2ca02c;stroke:#ffffff;stroke-width:0.75;" x="242.698308" xlink:href="#mdf89c73ce9" y="93.150848"/>
     <use style="fill:#2ca02c;stroke:#ffffff;stroke-width:0.75;" x="245.313116" xlink:href="#mdf89c73ce9" y="92.457513"/>
     <use style="fill:#2ca02c;stroke:#ffffff;stroke-width:0.75;" x="247.927924" xlink:href="#mdf89c73ce9" y="91.499637"/>
     <use style="fill:#2ca02c;stroke:#ffffff;stroke-width:0.75;" x="250.542732" xlink:href="#mdf89c73ce9" y="90.153592"/>
     <use style="fill:#2ca02c;stroke:#ffffff;stroke-width:0.75;" x="253.157539" xlink:href="#mdf89c73ce9" y="89.711359"/>
     <use style="fill:#2ca02c;stroke:#ffffff;stroke-width:0.75;" x="255.772347" xlink:href="#mdf89c73ce9" y="89.359402"/>
     <use style="fill:#2ca02c;stroke:#ffffff;stroke-width:0.75;" x="258.387155" xlink:href="#mdf89c73ce9" y="88.876005"/>
     <use style="fill:#2ca02c;stroke:#ffffff;stroke-width:0.75;" x="261.001963" xlink:href="#mdf89c73ce9" y="88.167362"/>
     <use style="fill:#2ca02c;stroke:#ffffff;stroke-width:0.75;" x="263.616771" xlink:href="#mdf89c73ce9" y="87.820991"/>
     <use style="fill:#2ca02c;stroke:#ffffff;stroke-width:0.75;" x="266.231579" xlink:href="#mdf89c73ce9" y="76.373382"/>
     <use style="fill:#2ca02c;stroke:#ffffff;stroke-width:0.75;" x="268.846387" xlink:href="#mdf89c73ce9" y="73.443732"/>
     <use style="fill:#2ca02c;stroke:#ffffff;stroke-width:0.75;" x="271.461194" xlink:href="#mdf89c73ce9" y="73.04551"/>
     <use style="fill:#2ca02c;stroke:#ffffff;stroke-width:0.75;" x="274.076002" xlink:href="#mdf89c73ce9" y="72.558873"/>
     <use style="fill:#2ca02c;stroke:#ffffff;stroke-width:0.75;" x="276.69081" xlink:href="#mdf89c73ce9" y="72.034688"/>
     <use style="fill:#2ca02c;stroke:#ffffff;stroke-width:0.75;" x="279.305618" xlink:href="#mdf89c73ce9" y="71.72187"/>
     <use style="fill:#2ca02c;stroke:#ffffff;stroke-width:0.75;" x="281.920426" xlink:href="#mdf89c73ce9" y="62.968376"/>
     <use style="fill:#2ca02c;stroke:#ffffff;stroke-width:0.75;" x="284.535234" xlink:href="#mdf89c73ce9" y="62.488673"/>
     <use style="fill:#2ca02c;stroke:#ffffff;stroke-width:0.75;" x="287.150042" xlink:href="#mdf89c73ce9" y="61.57731"/>
     <use style="fill:#2ca02c;stroke:#ffffff;stroke-width:0.75;" x="289.76485" xlink:href="#mdf89c73ce9" y="58.484778"/>
     <use style="fill:#2ca02c;stroke:#ffffff;stroke-width:0.75;" x="292.379657" xlink:href="#mdf89c73ce9" y="57.887346"/>
     <use style="fill:#2ca02c;stroke:#ffffff;stroke-width:0.75;" x="294.994465" xlink:href="#mdf89c73ce9" y="57.147027"/>
     <use style="fill:#2ca02c;stroke:#ffffff;stroke-width:0.75;" x="297.609273" xlink:href="#mdf89c73ce9" y="56.819019"/>
     <use style="fill:#2ca02c;stroke:#ffffff;stroke-width:0.75;" x="300.224081" xlink:href="#mdf89c73ce9" y="55.867772"/>
     <use style="fill:#2ca02c;stroke:#ffffff;stroke-width:0.75;" x="302.838889" xlink:href="#mdf89c73ce9" y="55.296436"/>
     <use style="fill:#2ca02c;stroke:#ffffff;stroke-width:0.75;" x="305.453697" xlink:href="#mdf89c73ce9" y="54.307515"/>
     <use style="fill:#2ca02c;stroke:#ffffff;stroke-width:0.75;" x="308.068505" xlink:href="#mdf89c73ce9" y="53.998718"/>
     <use style="fill:#2ca02c;stroke:#ffffff;stroke-width:0.75;" x="310.683313" xlink:href="#mdf89c73ce9" y="52.614077"/>
     <use style="fill:#2ca02c;stroke:#ffffff;stroke-width:0.75;" x="313.29812" xlink:href="#mdf89c73ce9" y="51.897777"/>
     <use style="fill:#2ca02c;stroke:#ffffff;stroke-width:0.75;" x="315.912928" xlink:href="#mdf89c73ce9" y="51.505268"/>
     <use style="fill:#2ca02c;stroke:#ffffff;stroke-width:0.75;" x="318.527736" xlink:href="#mdf89c73ce9" y="51.231389"/>
     <use style="fill:#2ca02c;stroke:#ffffff;stroke-width:0.75;" x="321.142544" xlink:href="#mdf89c73ce9" y="49.169509"/>
     <use style="fill:#2ca02c;stroke:#ffffff;stroke-width:0.75;" x="323.757352" xlink:href="#mdf89c73ce9" y="47.773663"/>
     <use style="fill:#2ca02c;stroke:#ffffff;stroke-width:0.75;" x="326.37216" xlink:href="#mdf89c73ce9" y="46.640411"/>
     <use style="fill:#2ca02c;stroke:#ffffff;stroke-width:0.75;" x="328.986968" xlink:href="#mdf89c73ce9" y="45.784189"/>
     <use style="fill:#2ca02c;stroke:#ffffff;stroke-width:0.75;" x="331.601776" xlink:href="#mdf89c73ce9" y="45.287601"/>
    </g>
   </g>
   <g id="line2d_10"/>
   <g id="line2d_11"/>
   <g id="line2d_12"/>
   <g id="line2d_13"/>
   <g id="patch_3">
    <path d="M 65.283594 279 
L 344.283594 279 
" style="fill:none;stroke:#cccccc;stroke-linecap:square;stroke-linejoin:miter;stroke-width:0.8;"/>
   </g>
   <g id="legend_1">
    <g id="patch_4">
     <path d="M 224.923438 104.423438 
L 333.783594 104.423438 
Q 336.783594 104.423438 336.783594 101.423438 
L 336.783594 17.7 
Q 336.783594 14.7 333.783594 14.7 
L 224.923438 14.7 
Q 221.923438 14.7 221.923438 17.7 
L 221.923438 101.423438 
Q 221.923438 104.423438 224.923438 104.423438 
z
" style="fill:#ffffff;opacity:0.8;stroke:#cccccc;stroke-linejoin:miter;"/>
    </g>
    <g id="text_15">
     <!-- Method -->
     <defs>
      <path d="M 7.421875 0 
L 7.421875 71.578125 
L 21.6875 71.578125 
L 38.625 20.90625 
Q 40.96875 13.8125 42.046875 10.296875 
Q 43.265625 14.203125 45.84375 21.78125 
L 62.984375 71.578125 
L 75.734375 71.578125 
L 75.734375 0 
L 66.609375 0 
L 66.609375 59.90625 
L 45.796875 0 
L 37.25 0 
L 16.546875 60.9375 
L 16.546875 0 
z
" id="ArialMT-77"/>
      <path d="M 6.59375 0 
L 6.59375 71.578125 
L 15.375 71.578125 
L 15.375 45.90625 
Q 21.53125 53.03125 30.90625 53.03125 
Q 36.671875 53.03125 40.921875 50.75 
Q 45.171875 48.484375 47 44.484375 
Q 48.828125 40.484375 48.828125 32.859375 
L 48.828125 0 
L 40.046875 0 
L 40.046875 32.859375 
Q 40.046875 39.453125 37.1875 42.453125 
Q 34.328125 45.453125 29.109375 45.453125 
Q 25.203125 45.453125 21.75 43.421875 
Q 18.3125 41.40625 16.84375 37.9375 
Q 15.375 34.46875 15.375 28.375 
L 15.375 0 
z
" id="ArialMT-104"/>
      <path d="M 40.234375 0 
L 40.234375 6.546875 
Q 35.296875 -1.171875 25.734375 -1.171875 
Q 19.53125 -1.171875 14.328125 2.25 
Q 9.125 5.671875 6.265625 11.796875 
Q 3.421875 17.921875 3.421875 25.875 
Q 3.421875 33.640625 6 39.96875 
Q 8.59375 46.296875 13.765625 49.65625 
Q 18.953125 53.03125 25.34375 53.03125 
Q 30.03125 53.03125 33.6875 51.046875 
Q 37.359375 49.078125 39.65625 45.90625 
L 39.65625 71.578125 
L 48.390625 71.578125 
L 48.390625 0 
z
M 12.453125 25.875 
Q 12.453125 15.921875 16.640625 10.984375 
Q 20.84375 6.0625 26.5625 6.0625 
Q 32.328125 6.0625 36.34375 10.765625 
Q 40.375 15.484375 40.375 25.140625 
Q 40.375 35.796875 36.265625 40.765625 
Q 32.171875 45.75 26.171875 45.75 
Q 20.3125 45.75 16.375 40.96875 
Q 12.453125 36.1875 12.453125 25.875 
z
" id="ArialMT-100"/>
     </defs>
     <g style="fill:#262626;" transform="translate(254.339844 31.436719)scale(0.15 -0.15)">
      <use xlink:href="#ArialMT-77"/>
      <use x="83.300781" xlink:href="#ArialMT-101"/>
      <use x="138.916016" xlink:href="#ArialMT-116"/>
      <use x="166.699219" xlink:href="#ArialMT-104"/>
      <use x="222.314453" xlink:href="#ArialMT-111"/>
      <use x="277.929688" xlink:href="#ArialMT-100"/>
     </g>
    </g>
    <g id="line2d_14">
     <path d="M 227.923438 47.404688 
L 257.923438 47.404688 
" style="fill:none;stroke:#1f77b4;stroke-linecap:round;stroke-width:1.5;"/>
    </g>
    <g id="line2d_15">
     <g>
      <use style="fill:#1f77b4;stroke:#ffffff;stroke-width:0.75;" x="242.923438" xlink:href="#mb950557719" y="47.404688"/>
     </g>
    </g>
    <g id="text_16">
     <!-- single -->
     <defs>
      <path d="M 4.984375 -4.296875 
L 13.53125 -5.5625 
Q 14.0625 -9.515625 16.5 -11.328125 
Q 19.78125 -13.765625 25.4375 -13.765625 
Q 31.546875 -13.765625 34.859375 -11.328125 
Q 38.1875 -8.890625 39.359375 -4.5 
Q 40.046875 -1.8125 39.984375 6.78125 
Q 34.234375 0 25.640625 0 
Q 14.9375 0 9.078125 7.71875 
Q 3.21875 15.4375 3.21875 26.21875 
Q 3.21875 33.640625 5.90625 39.90625 
Q 8.59375 46.1875 13.6875 49.609375 
Q 18.796875 53.03125 25.6875 53.03125 
Q 34.859375 53.03125 40.828125 45.609375 
L 40.828125 51.859375 
L 48.921875 51.859375 
L 48.921875 7.03125 
Q 48.921875 -5.078125 46.453125 -10.125 
Q 44 -15.1875 38.640625 -18.109375 
Q 33.296875 -21.046875 25.484375 -21.046875 
Q 16.21875 -21.046875 10.5 -16.875 
Q 4.78125 -12.703125 4.984375 -4.296875 
z
M 12.25 26.859375 
Q 12.25 16.65625 16.296875 11.96875 
Q 20.359375 7.28125 26.46875 7.28125 
Q 32.515625 7.28125 36.609375 11.9375 
Q 40.71875 16.609375 40.71875 26.5625 
Q 40.71875 36.078125 36.5 40.90625 
Q 32.28125 45.75 26.3125 45.75 
Q 20.453125 45.75 16.34375 40.984375 
Q 12.25 36.234375 12.25 26.859375 
z
" id="ArialMT-103"/>
     </defs>
     <g style="fill:#262626;" transform="translate(269.923438 52.654688)scale(0.15 -0.15)">
      <use xlink:href="#ArialMT-115"/>
      <use x="50" xlink:href="#ArialMT-105"/>
      <use x="72.216797" xlink:href="#ArialMT-110"/>
      <use x="127.832031" xlink:href="#ArialMT-103"/>
      <use x="183.447266" xlink:href="#ArialMT-108"/>
      <use x="205.664062" xlink:href="#ArialMT-101"/>
     </g>
    </g>
    <g id="line2d_16">
     <path d="M 227.923438 68.798438 
L 257.923438 68.798438 
" style="fill:none;stroke:#ff7f0e;stroke-linecap:round;stroke-width:1.5;"/>
    </g>
    <g id="line2d_17">
     <g>
      <use style="fill:#ff7f0e;stroke:#ffffff;stroke-width:0.75;" x="242.923438" xlink:href="#me905457d37" y="68.798438"/>
     </g>
    </g>
    <g id="text_17">
     <!-- complete -->
     <defs>
      <path d="M 40.4375 19 
L 49.078125 17.875 
Q 47.65625 8.9375 41.8125 3.875 
Q 35.984375 -1.171875 27.484375 -1.171875 
Q 16.84375 -1.171875 10.375 5.78125 
Q 3.90625 12.75 3.90625 25.734375 
Q 3.90625 34.125 6.6875 40.421875 
Q 9.46875 46.734375 15.15625 49.875 
Q 20.84375 53.03125 27.546875 53.03125 
Q 35.984375 53.03125 41.359375 48.75 
Q 46.734375 44.484375 48.25 36.625 
L 39.703125 35.296875 
Q 38.484375 40.53125 35.375 43.15625 
Q 32.28125 45.796875 27.875 45.796875 
Q 21.234375 45.796875 17.078125 41.03125 
Q 12.9375 36.28125 12.9375 25.984375 
Q 12.9375 15.53125 16.9375 10.796875 
Q 20.953125 6.0625 27.390625 6.0625 
Q 32.5625 6.0625 36.03125 9.234375 
Q 39.5 12.40625 40.4375 19 
z
" id="ArialMT-99"/>
      <path d="M 6.59375 0 
L 6.59375 51.859375 
L 14.453125 51.859375 
L 14.453125 44.578125 
Q 16.890625 48.390625 20.9375 50.703125 
Q 25 53.03125 30.171875 53.03125 
Q 35.9375 53.03125 39.625 50.640625 
Q 43.3125 48.25 44.828125 43.953125 
Q 50.984375 53.03125 60.84375 53.03125 
Q 68.5625 53.03125 72.703125 48.75 
Q 76.859375 44.484375 76.859375 35.59375 
L 76.859375 0 
L 68.109375 0 
L 68.109375 32.671875 
Q 68.109375 37.9375 67.25 40.25 
Q 66.40625 42.578125 64.15625 43.984375 
Q 61.921875 45.40625 58.890625 45.40625 
Q 53.421875 45.40625 49.796875 41.765625 
Q 46.1875 38.140625 46.1875 30.125 
L 46.1875 0 
L 37.40625 0 
L 37.40625 33.6875 
Q 37.40625 39.546875 35.25 42.46875 
Q 33.109375 45.40625 28.21875 45.40625 
Q 24.515625 45.40625 21.359375 43.453125 
Q 18.21875 41.5 16.796875 37.734375 
Q 15.375 33.984375 15.375 26.90625 
L 15.375 0 
z
" id="ArialMT-109"/>
      <path d="M 6.59375 -19.875 
L 6.59375 51.859375 
L 14.59375 51.859375 
L 14.59375 45.125 
Q 17.4375 49.078125 21 51.046875 
Q 24.5625 53.03125 29.640625 53.03125 
Q 36.28125 53.03125 41.359375 49.609375 
Q 46.4375 46.1875 49.015625 39.953125 
Q 51.609375 33.734375 51.609375 26.3125 
Q 51.609375 18.359375 48.75 11.984375 
Q 45.90625 5.609375 40.453125 2.21875 
Q 35.015625 -1.171875 29 -1.171875 
Q 24.609375 -1.171875 21.109375 0.6875 
Q 17.625 2.546875 15.375 5.375 
L 15.375 -19.875 
z
M 14.546875 25.640625 
Q 14.546875 15.625 18.59375 10.84375 
Q 22.65625 6.0625 28.421875 6.0625 
Q 34.28125 6.0625 38.453125 11.015625 
Q 42.625 15.96875 42.625 26.375 
Q 42.625 36.28125 38.546875 41.203125 
Q 34.46875 46.140625 28.8125 46.140625 
Q 23.1875 46.140625 18.859375 40.890625 
Q 14.546875 35.640625 14.546875 25.640625 
z
" id="ArialMT-112"/>
     </defs>
     <g style="fill:#262626;" transform="translate(269.923438 74.048438)scale(0.15 -0.15)">
      <use xlink:href="#ArialMT-99"/>
      <use x="50" xlink:href="#ArialMT-111"/>
      <use x="105.615234" xlink:href="#ArialMT-109"/>
      <use x="188.916016" xlink:href="#ArialMT-112"/>
      <use x="244.53125" xlink:href="#ArialMT-108"/>
      <use x="266.748047" xlink:href="#ArialMT-101"/>
      <use x="322.363281" xlink:href="#ArialMT-116"/>
      <use x="350.146484" xlink:href="#ArialMT-101"/>
     </g>
    </g>
    <g id="line2d_18">
     <path d="M 227.923438 90.016406 
L 257.923438 90.016406 
" style="fill:none;stroke:#2ca02c;stroke-linecap:round;stroke-width:1.5;"/>
    </g>
    <g id="line2d_19">
     <g>
      <use style="fill:#2ca02c;stroke:#ffffff;stroke-width:0.75;" x="242.923438" xlink:href="#mdf89c73ce9" y="90.016406"/>
     </g>
    </g>
    <g id="text_18">
     <!-- weighted -->
     <g style="fill:#262626;" transform="translate(269.923438 95.266406)scale(0.15 -0.15)">
      <use xlink:href="#ArialMT-119"/>
      <use x="72.216797" xlink:href="#ArialMT-101"/>
      <use x="127.832031" xlink:href="#ArialMT-105"/>
      <use x="150.048828" xlink:href="#ArialMT-103"/>
      <use x="205.664062" xlink:href="#ArialMT-104"/>
      <use x="261.279297" xlink:href="#ArialMT-116"/>
      <use x="289.0625" xlink:href="#ArialMT-101"/>
      <use x="344.677734" xlink:href="#ArialMT-100"/>
     </g>
    </g>
   </g>
  </g>
 </g>
 <defs>
  <clipPath id="pcb15c5b100">
   <rect height="271.8" width="279" x="65.283594" y="7.2"/>
  </clipPath>
 </defs>
</svg>
