<?xml version="1.0" encoding="utf-8" standalone="no"?>
<!DOCTYPE svg PUBLIC "-//W3C//DTD SVG 1.1//EN"
  "http://www.w3.org/Graphics/SVG/1.1/DTD/svg11.dtd">
<!-- Created with matplotlib (https://matplotlib.org/) -->
<svg height="324.635938pt" version="1.1" viewBox="0 0 345.587287 324.635938" width="345.587287pt" xmlns="http://www.w3.org/2000/svg" xmlns:xlink="http://www.w3.org/1999/xlink">
 <defs>
  <style type="text/css">
*{stroke-linecap:butt;stroke-linejoin:round;}
  </style>
 </defs>
 <g id="figure_1">
  <g id="patch_1">
   <path d="M 0 324.635938 
L 345.587287 324.635938 
L 345.587287 0 
L 0 0 
z
" style="fill:#ffffff;"/>
  </g>
  <g id="axes_1">
   <g id="patch_2">
    <path d="M 56.942188 279 
L 335.942187 279 
L 335.942187 7.2 
L 56.942188 7.2 
z
" style="fill:#ffffff;"/>
   </g>
   <g id="matplotlib.axis_1">
    <g id="xtick_1">
     <g id="text_1">
      <!-- 0 -->
      <defs>
       <path d="M 4.15625 35.296875 
Q 4.15625 48 6.765625 55.734375 
Q 9.375 63.484375 14.515625 67.671875 
Q 19.671875 71.875 27.484375 71.875 
Q 33.25 71.875 37.59375 69.546875 
Q 41.9375 67.234375 44.765625 62.859375 
Q 47.609375 58.5 49.21875 52.21875 
Q 50.828125 45.953125 50.828125 35.296875 
Q 50.828125 22.703125 48.234375 14.96875 
Q 45.65625 7.234375 40.5 3 
Q 35.359375 -1.21875 27.484375 -1.21875 
Q 17.140625 -1.21875 11.234375 6.203125 
Q 4.15625 15.140625 4.15625 35.296875 
z
M 13.1875 35.296875 
Q 13.1875 17.671875 17.3125 11.828125 
Q 21.4375 6 27.484375 6 
Q 33.546875 6 37.671875 11.859375 
Q 41.796875 17.71875 41.796875 35.296875 
Q 41.796875 52.984375 37.671875 58.78125 
Q 33.546875 64.59375 27.390625 64.59375 
Q 21.34375 64.59375 17.71875 59.46875 
Q 13.1875 52.9375 13.1875 35.296875 
z
" id="ArialMT-48"/>
      </defs>
      <g style="fill:#262626;" transform="translate(60.223687 296.736719)scale(0.15 -0.15)">
       <use xlink:href="#ArialMT-48"/>
      </g>
     </g>
    </g>
    <g id="xtick_2">
     <g id="text_2">
      <!-- 20 -->
      <defs>
       <path d="M 50.34375 8.453125 
L 50.34375 0 
L 3.03125 0 
Q 2.9375 3.171875 4.046875 6.109375 
Q 5.859375 10.9375 9.828125 15.625 
Q 13.8125 20.3125 21.34375 26.46875 
Q 33.015625 36.03125 37.109375 41.625 
Q 41.21875 47.21875 41.21875 52.203125 
Q 41.21875 57.421875 37.46875 61 
Q 33.734375 64.59375 27.734375 64.59375 
Q 21.390625 64.59375 17.578125 60.78125 
Q 13.765625 56.984375 13.71875 50.25 
L 4.6875 51.171875 
Q 5.609375 61.28125 11.65625 66.578125 
Q 17.71875 71.875 27.9375 71.875 
Q 38.234375 71.875 44.234375 66.15625 
Q 50.25 60.453125 50.25 52 
Q 50.25 47.703125 48.484375 43.546875 
Q 46.734375 39.40625 42.65625 34.8125 
Q 38.578125 30.21875 29.109375 22.21875 
Q 21.1875 15.578125 18.9375 13.203125 
Q 16.703125 10.84375 15.234375 8.453125 
z
" id="ArialMT-50"/>
      </defs>
      <g style="fill:#262626;" transform="translate(108.349141 296.736719)scale(0.15 -0.15)">
       <use xlink:href="#ArialMT-50"/>
       <use x="55.615234" xlink:href="#ArialMT-48"/>
      </g>
     </g>
    </g>
    <g id="xtick_3">
     <g id="text_3">
      <!-- 40 -->
      <defs>
       <path d="M 32.328125 0 
L 32.328125 17.140625 
L 1.265625 17.140625 
L 1.265625 25.203125 
L 33.9375 71.578125 
L 41.109375 71.578125 
L 41.109375 25.203125 
L 50.78125 25.203125 
L 50.78125 17.140625 
L 41.109375 17.140625 
L 41.109375 0 
z
M 32.328125 25.203125 
L 32.328125 57.46875 
L 9.90625 25.203125 
z
" id="ArialMT-52"/>
      </defs>
      <g style="fill:#262626;" transform="translate(160.645299 296.736719)scale(0.15 -0.15)">
       <use xlink:href="#ArialMT-52"/>
       <use x="55.615234" xlink:href="#ArialMT-48"/>
      </g>
     </g>
    </g>
    <g id="xtick_4">
     <g id="text_4">
      <!-- 60 -->
      <defs>
       <path d="M 49.75 54.046875 
L 41.015625 53.375 
Q 39.84375 58.546875 37.703125 60.890625 
Q 34.125 64.65625 28.90625 64.65625 
Q 24.703125 64.65625 21.53125 62.3125 
Q 17.390625 59.28125 14.984375 53.46875 
Q 12.59375 47.65625 12.5 36.921875 
Q 15.671875 41.75 20.265625 44.09375 
Q 24.859375 46.4375 29.890625 46.4375 
Q 38.671875 46.4375 44.84375 39.96875 
Q 51.03125 33.5 51.03125 23.25 
Q 51.03125 16.5 48.125 10.71875 
Q 45.21875 4.9375 40.140625 1.859375 
Q 35.0625 -1.21875 28.609375 -1.21875 
Q 17.625 -1.21875 10.6875 6.859375 
Q 3.765625 14.9375 3.765625 33.5 
Q 3.765625 54.25 11.421875 63.671875 
Q 18.109375 71.875 29.4375 71.875 
Q 37.890625 71.875 43.28125 67.140625 
Q 48.6875 62.40625 49.75 54.046875 
z
M 13.875 23.1875 
Q 13.875 18.65625 15.796875 14.5 
Q 17.71875 10.359375 21.1875 8.171875 
Q 24.65625 6 28.46875 6 
Q 34.03125 6 38.03125 10.484375 
Q 42.046875 14.984375 42.046875 22.703125 
Q 42.046875 30.125 38.078125 34.390625 
Q 34.125 38.671875 28.125 38.671875 
Q 22.171875 38.671875 18.015625 34.390625 
Q 13.875 30.125 13.875 23.1875 
z
" id="ArialMT-54"/>
      </defs>
      <g style="fill:#262626;" transform="translate(212.941456 296.736719)scale(0.15 -0.15)">
       <use xlink:href="#ArialMT-54"/>
       <use x="55.615234" xlink:href="#ArialMT-48"/>
      </g>
     </g>
    </g>
    <g id="xtick_5">
     <g id="text_5">
      <!-- 80 -->
      <defs>
       <path d="M 17.671875 38.8125 
Q 12.203125 40.828125 9.5625 44.53125 
Q 6.9375 48.25 6.9375 53.421875 
Q 6.9375 61.234375 12.546875 66.546875 
Q 18.171875 71.875 27.484375 71.875 
Q 36.859375 71.875 42.578125 66.421875 
Q 48.296875 60.984375 48.296875 53.171875 
Q 48.296875 48.1875 45.671875 44.5 
Q 43.0625 40.828125 37.75 38.8125 
Q 44.34375 36.671875 47.78125 31.875 
Q 51.21875 27.09375 51.21875 20.453125 
Q 51.21875 11.28125 44.71875 5.03125 
Q 38.234375 -1.21875 27.640625 -1.21875 
Q 17.046875 -1.21875 10.546875 5.046875 
Q 4.046875 11.328125 4.046875 20.703125 
Q 4.046875 27.6875 7.59375 32.390625 
Q 11.140625 37.109375 17.671875 38.8125 
z
M 15.921875 53.71875 
Q 15.921875 48.640625 19.1875 45.40625 
Q 22.46875 42.1875 27.6875 42.1875 
Q 32.765625 42.1875 36.015625 45.375 
Q 39.265625 48.578125 39.265625 53.21875 
Q 39.265625 58.0625 35.90625 61.359375 
Q 32.5625 64.65625 27.59375 64.65625 
Q 22.5625 64.65625 19.234375 61.421875 
Q 15.921875 58.203125 15.921875 53.71875 
z
M 13.09375 20.65625 
Q 13.09375 16.890625 14.875 13.375 
Q 16.65625 9.859375 20.171875 7.921875 
Q 23.6875 6 27.734375 6 
Q 34.03125 6 38.125 10.046875 
Q 42.234375 14.109375 42.234375 20.359375 
Q 42.234375 26.703125 38.015625 30.859375 
Q 33.796875 35.015625 27.4375 35.015625 
Q 21.234375 35.015625 17.15625 30.90625 
Q 13.09375 26.8125 13.09375 20.65625 
z
" id="ArialMT-56"/>
      </defs>
      <g style="fill:#262626;" transform="translate(265.237613 296.736719)scale(0.15 -0.15)">
       <use xlink:href="#ArialMT-56"/>
       <use x="55.615234" xlink:href="#ArialMT-48"/>
      </g>
     </g>
    </g>
    <g id="xtick_6">
     <g id="text_6">
      <!-- 100 -->
      <defs>
       <path d="M 37.25 0 
L 28.46875 0 
L 28.46875 56 
Q 25.296875 52.984375 20.140625 49.953125 
Q 14.984375 46.921875 10.890625 45.40625 
L 10.890625 53.90625 
Q 18.265625 57.375 23.78125 62.296875 
Q 29.296875 67.234375 31.59375 71.875 
L 37.25 71.875 
z
" id="ArialMT-49"/>
      </defs>
      <g style="fill:#262626;" transform="translate(313.363068 296.736719)scale(0.15 -0.15)">
       <use xlink:href="#ArialMT-49"/>
       <use x="55.615234" xlink:href="#ArialMT-48"/>
       <use x="111.230469" xlink:href="#ArialMT-48"/>
      </g>
     </g>
    </g>
    <g id="text_7">
     <!-- k -->
     <defs>
      <path d="M 6.640625 0 
L 6.640625 71.578125 
L 15.4375 71.578125 
L 15.4375 30.765625 
L 36.234375 51.859375 
L 47.609375 51.859375 
L 27.78125 32.625 
L 49.609375 0 
L 38.765625 0 
L 21.625 26.515625 
L 15.4375 20.5625 
L 15.4375 0 
z
" id="ArialMT-107"/>
     </defs>
     <g style="fill:#262626;" transform="translate(192.692187 314.454688)scale(0.15 -0.15)">
      <use xlink:href="#ArialMT-107"/>
     </g>
    </g>
   </g>
   <g id="matplotlib.axis_2">
    <g id="ytick_1">
     <g id="line2d_1">
      <path clip-path="url(#pc615a44e97)" d="M 56.942188 229.125099 
L 335.942187 229.125099 
" style="fill:none;stroke:#cccccc;stroke-linecap:round;stroke-width:0.8;"/>
     </g>
     <g id="text_8">
      <!-- 50 -->
      <defs>
       <path d="M 4.15625 18.75 
L 13.375 19.53125 
Q 14.40625 12.796875 18.140625 9.390625 
Q 21.875 6 27.15625 6 
Q 33.5 6 37.890625 10.78125 
Q 42.28125 15.578125 42.28125 23.484375 
Q 42.28125 31 38.0625 35.34375 
Q 33.84375 39.703125 27 39.703125 
Q 22.75 39.703125 19.328125 37.765625 
Q 15.921875 35.84375 13.96875 32.765625 
L 5.71875 33.84375 
L 12.640625 70.609375 
L 48.25 70.609375 
L 48.25 62.203125 
L 19.671875 62.203125 
L 15.828125 42.96875 
Q 22.265625 47.46875 29.34375 47.46875 
Q 38.71875 47.46875 45.15625 40.96875 
Q 51.609375 34.46875 51.609375 24.265625 
Q 51.609375 14.546875 45.953125 7.46875 
Q 39.0625 -1.21875 27.15625 -1.21875 
Q 17.390625 -1.21875 11.203125 4.25 
Q 5.03125 9.71875 4.15625 18.75 
z
" id="ArialMT-53"/>
      </defs>
      <g style="fill:#262626;" transform="translate(33.259375 234.493459)scale(0.15 -0.15)">
       <use xlink:href="#ArialMT-53"/>
       <use x="55.615234" xlink:href="#ArialMT-48"/>
      </g>
     </g>
    </g>
    <g id="ytick_2">
     <g id="line2d_2">
      <path clip-path="url(#pc615a44e97)" d="M 56.942188 172.700163 
L 335.942187 172.700163 
" style="fill:none;stroke:#cccccc;stroke-linecap:round;stroke-width:0.8;"/>
     </g>
     <g id="text_9">
      <!-- 100 -->
      <g style="fill:#262626;" transform="translate(24.917969 178.068522)scale(0.15 -0.15)">
       <use xlink:href="#ArialMT-49"/>
       <use x="55.615234" xlink:href="#ArialMT-48"/>
       <use x="111.230469" xlink:href="#ArialMT-48"/>
      </g>
     </g>
    </g>
    <g id="ytick_3">
     <g id="line2d_3">
      <path clip-path="url(#pc615a44e97)" d="M 56.942188 116.275226 
L 335.942187 116.275226 
" style="fill:none;stroke:#cccccc;stroke-linecap:round;stroke-width:0.8;"/>
     </g>
     <g id="text_10">
      <!-- 150 -->
      <g style="fill:#262626;" transform="translate(24.917969 121.643586)scale(0.15 -0.15)">
       <use xlink:href="#ArialMT-49"/>
       <use x="55.615234" xlink:href="#ArialMT-53"/>
       <use x="111.230469" xlink:href="#ArialMT-48"/>
      </g>
     </g>
    </g>
    <g id="ytick_4">
     <g id="line2d_4">
      <path clip-path="url(#pc615a44e97)" d="M 56.942188 59.85029 
L 335.942187 59.85029 
" style="fill:none;stroke:#cccccc;stroke-linecap:round;stroke-width:0.8;"/>
     </g>
     <g id="text_11">
      <!-- 200 -->
      <g style="fill:#262626;" transform="translate(24.917969 65.218649)scale(0.15 -0.15)">
       <use xlink:href="#ArialMT-50"/>
       <use x="55.615234" xlink:href="#ArialMT-48"/>
       <use x="111.230469" xlink:href="#ArialMT-48"/>
      </g>
     </g>
    </g>
    <g id="text_12">
     <!-- CH Index -->
     <defs>
      <path d="M 58.796875 25.09375 
L 68.265625 22.703125 
Q 65.28125 11.03125 57.546875 4.90625 
Q 49.8125 -1.21875 38.625 -1.21875 
Q 27.046875 -1.21875 19.796875 3.484375 
Q 12.546875 8.203125 8.765625 17.140625 
Q 4.984375 26.078125 4.984375 36.328125 
Q 4.984375 47.515625 9.25 55.828125 
Q 13.53125 64.15625 21.40625 68.46875 
Q 29.296875 72.796875 38.765625 72.796875 
Q 49.515625 72.796875 56.828125 67.328125 
Q 64.15625 61.859375 67.046875 51.953125 
L 57.71875 49.75 
Q 55.21875 57.5625 50.484375 61.125 
Q 45.75 64.703125 38.578125 64.703125 
Q 30.328125 64.703125 24.78125 60.734375 
Q 19.234375 56.78125 16.984375 50.109375 
Q 14.75 43.453125 14.75 36.375 
Q 14.75 27.25 17.40625 20.4375 
Q 20.0625 13.625 25.671875 10.25 
Q 31.296875 6.890625 37.84375 6.890625 
Q 45.796875 6.890625 51.3125 11.46875 
Q 56.84375 16.0625 58.796875 25.09375 
z
" id="ArialMT-67"/>
      <path d="M 8.015625 0 
L 8.015625 71.578125 
L 17.484375 71.578125 
L 17.484375 42.1875 
L 54.6875 42.1875 
L 54.6875 71.578125 
L 64.15625 71.578125 
L 64.15625 0 
L 54.6875 0 
L 54.6875 33.734375 
L 17.484375 33.734375 
L 17.484375 0 
z
" id="ArialMT-72"/>
      <path id="ArialMT-32"/>
      <path d="M 9.328125 0 
L 9.328125 71.578125 
L 18.796875 71.578125 
L 18.796875 0 
z
" id="ArialMT-73"/>
      <path d="M 6.59375 0 
L 6.59375 51.859375 
L 14.5 51.859375 
L 14.5 44.484375 
Q 20.21875 53.03125 31 53.03125 
Q 35.6875 53.03125 39.625 51.34375 
Q 43.5625 49.65625 45.515625 46.921875 
Q 47.46875 44.1875 48.25 40.4375 
Q 48.734375 37.984375 48.734375 31.890625 
L 48.734375 0 
L 39.9375 0 
L 39.9375 31.546875 
Q 39.9375 36.921875 38.90625 39.578125 
Q 37.890625 42.234375 35.28125 43.8125 
Q 32.671875 45.40625 29.15625 45.40625 
Q 23.53125 45.40625 19.453125 41.84375 
Q 15.375 38.28125 15.375 28.328125 
L 15.375 0 
z
" id="ArialMT-110"/>
      <path d="M 40.234375 0 
L 40.234375 6.546875 
Q 35.296875 -1.171875 25.734375 -1.171875 
Q 19.53125 -1.171875 14.328125 2.25 
Q 9.125 5.671875 6.265625 11.796875 
Q 3.421875 17.921875 3.421875 25.875 
Q 3.421875 33.640625 6 39.96875 
Q 8.59375 46.296875 13.765625 49.65625 
Q 18.953125 53.03125 25.34375 53.03125 
Q 30.03125 53.03125 33.6875 51.046875 
Q 37.359375 49.078125 39.65625 45.90625 
L 39.65625 71.578125 
L 48.390625 71.578125 
L 48.390625 0 
z
M 12.453125 25.875 
Q 12.453125 15.921875 16.640625 10.984375 
Q 20.84375 6.0625 26.5625 6.0625 
Q 32.328125 6.0625 36.34375 10.765625 
Q 40.375 15.484375 40.375 25.140625 
Q 40.375 35.796875 36.265625 40.765625 
Q 32.171875 45.75 26.171875 45.75 
Q 20.3125 45.75 16.375 40.96875 
Q 12.453125 36.1875 12.453125 25.875 
z
" id="ArialMT-100"/>
      <path d="M 42.09375 16.703125 
L 51.171875 15.578125 
Q 49.03125 7.625 43.21875 3.21875 
Q 37.40625 -1.171875 28.375 -1.171875 
Q 17 -1.171875 10.328125 5.828125 
Q 3.65625 12.84375 3.65625 25.484375 
Q 3.65625 38.578125 10.390625 45.796875 
Q 17.140625 53.03125 27.875 53.03125 
Q 38.28125 53.03125 44.875 45.953125 
Q 51.46875 38.875 51.46875 26.03125 
Q 51.46875 25.25 51.421875 23.6875 
L 12.75 23.6875 
Q 13.234375 15.140625 17.578125 10.59375 
Q 21.921875 6.0625 28.421875 6.0625 
Q 33.25 6.0625 36.671875 8.59375 
Q 40.09375 11.140625 42.09375 16.703125 
z
M 13.234375 30.90625 
L 42.1875 30.90625 
Q 41.609375 37.453125 38.875 40.71875 
Q 34.671875 45.796875 27.984375 45.796875 
Q 21.921875 45.796875 17.796875 41.75 
Q 13.671875 37.703125 13.234375 30.90625 
z
" id="ArialMT-101"/>
      <path d="M 0.734375 0 
L 19.671875 26.953125 
L 2.15625 51.859375 
L 13.140625 51.859375 
L 21.09375 39.703125 
Q 23.34375 36.234375 24.703125 33.890625 
Q 26.859375 37.109375 28.65625 39.59375 
L 37.40625 51.859375 
L 47.90625 51.859375 
L 29.984375 27.4375 
L 49.265625 0 
L 38.484375 0 
L 27.828125 16.109375 
L 25 20.453125 
L 11.375 0 
z
" id="ArialMT-120"/>
     </defs>
     <g style="fill:#262626;" transform="translate(17.936719 174.362109)rotate(-90)scale(0.15 -0.15)">
      <use xlink:href="#ArialMT-67"/>
      <use x="72.216797" xlink:href="#ArialMT-72"/>
      <use x="144.433594" xlink:href="#ArialMT-32"/>
      <use x="172.216797" xlink:href="#ArialMT-73"/>
      <use x="200" xlink:href="#ArialMT-110"/>
      <use x="255.615234" xlink:href="#ArialMT-100"/>
      <use x="311.230469" xlink:href="#ArialMT-101"/>
      <use x="366.845703" xlink:href="#ArialMT-120"/>
     </g>
    </g>
   </g>
   <g id="line2d_5">
    <path clip-path="url(#pc615a44e97)" d="M 69.624006 19.554545 
L 72.238814 72.551419 
L 74.853621 114.088382 
L 77.468429 140.969933 
L 80.083237 159.270149 
L 82.698045 171.960931 
L 85.312853 182.237791 
L 87.927661 189.988783 
L 90.542469 196.740447 
L 93.157277 202.109604 
L 95.772084 207.436246 
L 98.386892 211.603448 
L 101.0017 215.563295 
L 103.616508 218.924679 
L 106.231316 221.886913 
L 108.846124 224.467333 
L 111.460932 226.785215 
L 114.07574 229.07926 
L 116.690547 231.01767 
L 119.305355 233.030502 
L 121.920163 234.615716 
L 124.534971 235.895421 
L 127.149779 237.510066 
L 129.764587 238.810019 
L 132.379395 240.247662 
L 134.994202 241.406582 
L 137.60901 242.641097 
L 140.223818 243.568546 
L 142.838626 244.546488 
L 145.453434 245.505453 
L 148.068242 246.370826 
L 150.68305 247.145778 
L 153.297858 248.002509 
L 155.912665 248.515933 
L 158.527473 249.441348 
L 161.142281 249.988279 
L 163.757089 250.62437 
L 166.371897 251.28611 
L 168.986705 251.87562 
L 171.601513 252.400963 
L 174.216321 252.881088 
L 176.831128 253.380153 
L 179.445936 253.876867 
L 182.060744 254.308949 
L 184.675552 254.734268 
L 187.29036 255.12517 
L 189.905168 255.315003 
L 192.519976 255.78691 
L 195.134784 256.371356 
L 197.749591 256.647958 
L 200.364399 257.286348 
L 202.979207 257.614361 
L 205.594015 258.033402 
L 208.208823 258.062466 
L 210.823631 258.264681 
L 213.438439 258.743894 
L 216.053247 258.972114 
L 218.668054 259.237587 
L 221.282862 259.684246 
L 223.89767 259.839169 
L 226.512478 260.172865 
L 229.127286 260.359724 
L 231.742094 260.661458 
L 234.356902 260.834135 
L 236.97171 261.17228 
L 239.586517 261.438664 
L 242.201325 261.684473 
L 244.816133 261.934526 
L 247.430941 262.132663 
L 250.045749 262.393841 
L 252.660557 262.624955 
L 255.275365 262.753774 
L 257.890173 262.934883 
L 260.50498 263.095142 
L 263.119788 263.237645 
L 265.734596 263.540166 
L 268.349404 263.669959 
L 270.964212 263.751579 
L 273.57902 263.878527 
L 276.193828 264.12605 
L 278.808635 264.295229 
L 281.423443 264.384479 
L 284.038251 264.525152 
L 286.653059 264.729469 
L 289.267867 264.868975 
L 291.882675 264.987395 
L 294.497483 265.234122 
L 297.112291 265.283792 
L 299.727098 265.419716 
L 302.341906 265.561845 
L 304.956714 265.712262 
L 307.571522 265.927382 
L 310.18633 266.079514 
L 312.801138 266.184824 
L 315.415946 266.332895 
L 318.030754 266.432187 
L 320.645561 266.573438 
L 323.260369 266.645455 
" style="fill:none;stroke:#4e79a7;stroke-linecap:round;stroke-width:1.5;"/>
    <defs>
     <path d="M 0 3 
C 0.795609 3 1.55874 2.683901 2.12132 2.12132 
C 2.683901 1.55874 3 0.795609 3 0 
C 3 -0.795609 2.683901 -1.55874 2.12132 -2.12132 
C 1.55874 -2.683901 0.795609 -3 0 -3 
C -0.795609 -3 -1.55874 -2.683901 -2.12132 -2.12132 
C -2.683901 -1.55874 -3 -0.795609 -3 0 
C -3 0.795609 -2.683901 1.55874 -2.12132 2.12132 
C -1.55874 2.683901 -0.795609 3 0 3 
z
" id="me4550abcf7" style="stroke:#ffffff;stroke-width:0.75;"/>
    </defs>
    <g clip-path="url(#pc615a44e97)">
     <use style="fill:#4e79a7;stroke:#ffffff;stroke-width:0.75;" x="69.624006" xlink:href="#me4550abcf7" y="19.554545"/>
     <use style="fill:#4e79a7;stroke:#ffffff;stroke-width:0.75;" x="72.238814" xlink:href="#me4550abcf7" y="72.551419"/>
     <use style="fill:#4e79a7;stroke:#ffffff;stroke-width:0.75;" x="74.853621" xlink:href="#me4550abcf7" y="114.088382"/>
     <use style="fill:#4e79a7;stroke:#ffffff;stroke-width:0.75;" x="77.468429" xlink:href="#me4550abcf7" y="140.969933"/>
     <use style="fill:#4e79a7;stroke:#ffffff;stroke-width:0.75;" x="80.083237" xlink:href="#me4550abcf7" y="159.270149"/>
     <use style="fill:#4e79a7;stroke:#ffffff;stroke-width:0.75;" x="82.698045" xlink:href="#me4550abcf7" y="171.960931"/>
     <use style="fill:#4e79a7;stroke:#ffffff;stroke-width:0.75;" x="85.312853" xlink:href="#me4550abcf7" y="182.237791"/>
     <use style="fill:#4e79a7;stroke:#ffffff;stroke-width:0.75;" x="87.927661" xlink:href="#me4550abcf7" y="189.988783"/>
     <use style="fill:#4e79a7;stroke:#ffffff;stroke-width:0.75;" x="90.542469" xlink:href="#me4550abcf7" y="196.740447"/>
     <use style="fill:#4e79a7;stroke:#ffffff;stroke-width:0.75;" x="93.157277" xlink:href="#me4550abcf7" y="202.109604"/>
     <use style="fill:#4e79a7;stroke:#ffffff;stroke-width:0.75;" x="95.772084" xlink:href="#me4550abcf7" y="207.436246"/>
     <use style="fill:#4e79a7;stroke:#ffffff;stroke-width:0.75;" x="98.386892" xlink:href="#me4550abcf7" y="211.603448"/>
     <use style="fill:#4e79a7;stroke:#ffffff;stroke-width:0.75;" x="101.0017" xlink:href="#me4550abcf7" y="215.563295"/>
     <use style="fill:#4e79a7;stroke:#ffffff;stroke-width:0.75;" x="103.616508" xlink:href="#me4550abcf7" y="218.924679"/>
     <use style="fill:#4e79a7;stroke:#ffffff;stroke-width:0.75;" x="106.231316" xlink:href="#me4550abcf7" y="221.886913"/>
     <use style="fill:#4e79a7;stroke:#ffffff;stroke-width:0.75;" x="108.846124" xlink:href="#me4550abcf7" y="224.467333"/>
     <use style="fill:#4e79a7;stroke:#ffffff;stroke-width:0.75;" x="111.460932" xlink:href="#me4550abcf7" y="226.785215"/>
     <use style="fill:#4e79a7;stroke:#ffffff;stroke-width:0.75;" x="114.07574" xlink:href="#me4550abcf7" y="229.07926"/>
     <use style="fill:#4e79a7;stroke:#ffffff;stroke-width:0.75;" x="116.690547" xlink:href="#me4550abcf7" y="231.01767"/>
     <use style="fill:#4e79a7;stroke:#ffffff;stroke-width:0.75;" x="119.305355" xlink:href="#me4550abcf7" y="233.030502"/>
     <use style="fill:#4e79a7;stroke:#ffffff;stroke-width:0.75;" x="121.920163" xlink:href="#me4550abcf7" y="234.615716"/>
     <use style="fill:#4e79a7;stroke:#ffffff;stroke-width:0.75;" x="124.534971" xlink:href="#me4550abcf7" y="235.895421"/>
     <use style="fill:#4e79a7;stroke:#ffffff;stroke-width:0.75;" x="127.149779" xlink:href="#me4550abcf7" y="237.510066"/>
     <use style="fill:#4e79a7;stroke:#ffffff;stroke-width:0.75;" x="129.764587" xlink:href="#me4550abcf7" y="238.810019"/>
     <use style="fill:#4e79a7;stroke:#ffffff;stroke-width:0.75;" x="132.379395" xlink:href="#me4550abcf7" y="240.247662"/>
     <use style="fill:#4e79a7;stroke:#ffffff;stroke-width:0.75;" x="134.994202" xlink:href="#me4550abcf7" y="241.406582"/>
     <use style="fill:#4e79a7;stroke:#ffffff;stroke-width:0.75;" x="137.60901" xlink:href="#me4550abcf7" y="242.641097"/>
     <use style="fill:#4e79a7;stroke:#ffffff;stroke-width:0.75;" x="140.223818" xlink:href="#me4550abcf7" y="243.568546"/>
     <use style="fill:#4e79a7;stroke:#ffffff;stroke-width:0.75;" x="142.838626" xlink:href="#me4550abcf7" y="244.546488"/>
     <use style="fill:#4e79a7;stroke:#ffffff;stroke-width:0.75;" x="145.453434" xlink:href="#me4550abcf7" y="245.505453"/>
     <use style="fill:#4e79a7;stroke:#ffffff;stroke-width:0.75;" x="148.068242" xlink:href="#me4550abcf7" y="246.370826"/>
     <use style="fill:#4e79a7;stroke:#ffffff;stroke-width:0.75;" x="150.68305" xlink:href="#me4550abcf7" y="247.145778"/>
     <use style="fill:#4e79a7;stroke:#ffffff;stroke-width:0.75;" x="153.297858" xlink:href="#me4550abcf7" y="248.002509"/>
     <use style="fill:#4e79a7;stroke:#ffffff;stroke-width:0.75;" x="155.912665" xlink:href="#me4550abcf7" y="248.515933"/>
     <use style="fill:#4e79a7;stroke:#ffffff;stroke-width:0.75;" x="158.527473" xlink:href="#me4550abcf7" y="249.441348"/>
     <use style="fill:#4e79a7;stroke:#ffffff;stroke-width:0.75;" x="161.142281" xlink:href="#me4550abcf7" y="249.988279"/>
     <use style="fill:#4e79a7;stroke:#ffffff;stroke-width:0.75;" x="163.757089" xlink:href="#me4550abcf7" y="250.62437"/>
     <use style="fill:#4e79a7;stroke:#ffffff;stroke-width:0.75;" x="166.371897" xlink:href="#me4550abcf7" y="251.28611"/>
     <use style="fill:#4e79a7;stroke:#ffffff;stroke-width:0.75;" x="168.986705" xlink:href="#me4550abcf7" y="251.87562"/>
     <use style="fill:#4e79a7;stroke:#ffffff;stroke-width:0.75;" x="171.601513" xlink:href="#me4550abcf7" y="252.400963"/>
     <use style="fill:#4e79a7;stroke:#ffffff;stroke-width:0.75;" x="174.216321" xlink:href="#me4550abcf7" y="252.881088"/>
     <use style="fill:#4e79a7;stroke:#ffffff;stroke-width:0.75;" x="176.831128" xlink:href="#me4550abcf7" y="253.380153"/>
     <use style="fill:#4e79a7;stroke:#ffffff;stroke-width:0.75;" x="179.445936" xlink:href="#me4550abcf7" y="253.876867"/>
     <use style="fill:#4e79a7;stroke:#ffffff;stroke-width:0.75;" x="182.060744" xlink:href="#me4550abcf7" y="254.308949"/>
     <use style="fill:#4e79a7;stroke:#ffffff;stroke-width:0.75;" x="184.675552" xlink:href="#me4550abcf7" y="254.734268"/>
     <use style="fill:#4e79a7;stroke:#ffffff;stroke-width:0.75;" x="187.29036" xlink:href="#me4550abcf7" y="255.12517"/>
     <use style="fill:#4e79a7;stroke:#ffffff;stroke-width:0.75;" x="189.905168" xlink:href="#me4550abcf7" y="255.315003"/>
     <use style="fill:#4e79a7;stroke:#ffffff;stroke-width:0.75;" x="192.519976" xlink:href="#me4550abcf7" y="255.78691"/>
     <use style="fill:#4e79a7;stroke:#ffffff;stroke-width:0.75;" x="195.134784" xlink:href="#me4550abcf7" y="256.371356"/>
     <use style="fill:#4e79a7;stroke:#ffffff;stroke-width:0.75;" x="197.749591" xlink:href="#me4550abcf7" y="256.647958"/>
     <use style="fill:#4e79a7;stroke:#ffffff;stroke-width:0.75;" x="200.364399" xlink:href="#me4550abcf7" y="257.286348"/>
     <use style="fill:#4e79a7;stroke:#ffffff;stroke-width:0.75;" x="202.979207" xlink:href="#me4550abcf7" y="257.614361"/>
     <use style="fill:#4e79a7;stroke:#ffffff;stroke-width:0.75;" x="205.594015" xlink:href="#me4550abcf7" y="258.033402"/>
     <use style="fill:#4e79a7;stroke:#ffffff;stroke-width:0.75;" x="208.208823" xlink:href="#me4550abcf7" y="258.062466"/>
     <use style="fill:#4e79a7;stroke:#ffffff;stroke-width:0.75;" x="210.823631" xlink:href="#me4550abcf7" y="258.264681"/>
     <use style="fill:#4e79a7;stroke:#ffffff;stroke-width:0.75;" x="213.438439" xlink:href="#me4550abcf7" y="258.743894"/>
     <use style="fill:#4e79a7;stroke:#ffffff;stroke-width:0.75;" x="216.053247" xlink:href="#me4550abcf7" y="258.972114"/>
     <use style="fill:#4e79a7;stroke:#ffffff;stroke-width:0.75;" x="218.668054" xlink:href="#me4550abcf7" y="259.237587"/>
     <use style="fill:#4e79a7;stroke:#ffffff;stroke-width:0.75;" x="221.282862" xlink:href="#me4550abcf7" y="259.684246"/>
     <use style="fill:#4e79a7;stroke:#ffffff;stroke-width:0.75;" x="223.89767" xlink:href="#me4550abcf7" y="259.839169"/>
     <use style="fill:#4e79a7;stroke:#ffffff;stroke-width:0.75;" x="226.512478" xlink:href="#me4550abcf7" y="260.172865"/>
     <use style="fill:#4e79a7;stroke:#ffffff;stroke-width:0.75;" x="229.127286" xlink:href="#me4550abcf7" y="260.359724"/>
     <use style="fill:#4e79a7;stroke:#ffffff;stroke-width:0.75;" x="231.742094" xlink:href="#me4550abcf7" y="260.661458"/>
     <use style="fill:#4e79a7;stroke:#ffffff;stroke-width:0.75;" x="234.356902" xlink:href="#me4550abcf7" y="260.834135"/>
     <use style="fill:#4e79a7;stroke:#ffffff;stroke-width:0.75;" x="236.97171" xlink:href="#me4550abcf7" y="261.17228"/>
     <use style="fill:#4e79a7;stroke:#ffffff;stroke-width:0.75;" x="239.586517" xlink:href="#me4550abcf7" y="261.438664"/>
     <use style="fill:#4e79a7;stroke:#ffffff;stroke-width:0.75;" x="242.201325" xlink:href="#me4550abcf7" y="261.684473"/>
     <use style="fill:#4e79a7;stroke:#ffffff;stroke-width:0.75;" x="244.816133" xlink:href="#me4550abcf7" y="261.934526"/>
     <use style="fill:#4e79a7;stroke:#ffffff;stroke-width:0.75;" x="247.430941" xlink:href="#me4550abcf7" y="262.132663"/>
     <use style="fill:#4e79a7;stroke:#ffffff;stroke-width:0.75;" x="250.045749" xlink:href="#me4550abcf7" y="262.393841"/>
     <use style="fill:#4e79a7;stroke:#ffffff;stroke-width:0.75;" x="252.660557" xlink:href="#me4550abcf7" y="262.624955"/>
     <use style="fill:#4e79a7;stroke:#ffffff;stroke-width:0.75;" x="255.275365" xlink:href="#me4550abcf7" y="262.753774"/>
     <use style="fill:#4e79a7;stroke:#ffffff;stroke-width:0.75;" x="257.890173" xlink:href="#me4550abcf7" y="262.934883"/>
     <use style="fill:#4e79a7;stroke:#ffffff;stroke-width:0.75;" x="260.50498" xlink:href="#me4550abcf7" y="263.095142"/>
     <use style="fill:#4e79a7;stroke:#ffffff;stroke-width:0.75;" x="263.119788" xlink:href="#me4550abcf7" y="263.237645"/>
     <use style="fill:#4e79a7;stroke:#ffffff;stroke-width:0.75;" x="265.734596" xlink:href="#me4550abcf7" y="263.540166"/>
     <use style="fill:#4e79a7;stroke:#ffffff;stroke-width:0.75;" x="268.349404" xlink:href="#me4550abcf7" y="263.669959"/>
     <use style="fill:#4e79a7;stroke:#ffffff;stroke-width:0.75;" x="270.964212" xlink:href="#me4550abcf7" y="263.751579"/>
     <use style="fill:#4e79a7;stroke:#ffffff;stroke-width:0.75;" x="273.57902" xlink:href="#me4550abcf7" y="263.878527"/>
     <use style="fill:#4e79a7;stroke:#ffffff;stroke-width:0.75;" x="276.193828" xlink:href="#me4550abcf7" y="264.12605"/>
     <use style="fill:#4e79a7;stroke:#ffffff;stroke-width:0.75;" x="278.808635" xlink:href="#me4550abcf7" y="264.295229"/>
     <use style="fill:#4e79a7;stroke:#ffffff;stroke-width:0.75;" x="281.423443" xlink:href="#me4550abcf7" y="264.384479"/>
     <use style="fill:#4e79a7;stroke:#ffffff;stroke-width:0.75;" x="284.038251" xlink:href="#me4550abcf7" y="264.525152"/>
     <use style="fill:#4e79a7;stroke:#ffffff;stroke-width:0.75;" x="286.653059" xlink:href="#me4550abcf7" y="264.729469"/>
     <use style="fill:#4e79a7;stroke:#ffffff;stroke-width:0.75;" x="289.267867" xlink:href="#me4550abcf7" y="264.868975"/>
     <use style="fill:#4e79a7;stroke:#ffffff;stroke-width:0.75;" x="291.882675" xlink:href="#me4550abcf7" y="264.987395"/>
     <use style="fill:#4e79a7;stroke:#ffffff;stroke-width:0.75;" x="294.497483" xlink:href="#me4550abcf7" y="265.234122"/>
     <use style="fill:#4e79a7;stroke:#ffffff;stroke-width:0.75;" x="297.112291" xlink:href="#me4550abcf7" y="265.283792"/>
     <use style="fill:#4e79a7;stroke:#ffffff;stroke-width:0.75;" x="299.727098" xlink:href="#me4550abcf7" y="265.419716"/>
     <use style="fill:#4e79a7;stroke:#ffffff;stroke-width:0.75;" x="302.341906" xlink:href="#me4550abcf7" y="265.561845"/>
     <use style="fill:#4e79a7;stroke:#ffffff;stroke-width:0.75;" x="304.956714" xlink:href="#me4550abcf7" y="265.712262"/>
     <use style="fill:#4e79a7;stroke:#ffffff;stroke-width:0.75;" x="307.571522" xlink:href="#me4550abcf7" y="265.927382"/>
     <use style="fill:#4e79a7;stroke:#ffffff;stroke-width:0.75;" x="310.18633" xlink:href="#me4550abcf7" y="266.079514"/>
     <use style="fill:#4e79a7;stroke:#ffffff;stroke-width:0.75;" x="312.801138" xlink:href="#me4550abcf7" y="266.184824"/>
     <use style="fill:#4e79a7;stroke:#ffffff;stroke-width:0.75;" x="315.415946" xlink:href="#me4550abcf7" y="266.332895"/>
     <use style="fill:#4e79a7;stroke:#ffffff;stroke-width:0.75;" x="318.030754" xlink:href="#me4550abcf7" y="266.432187"/>
     <use style="fill:#4e79a7;stroke:#ffffff;stroke-width:0.75;" x="320.645561" xlink:href="#me4550abcf7" y="266.573438"/>
     <use style="fill:#4e79a7;stroke:#ffffff;stroke-width:0.75;" x="323.260369" xlink:href="#me4550abcf7" y="266.645455"/>
    </g>
   </g>
   <g id="patch_3">
    <path d="M 56.942187 279 
L 335.942188 279 
" style="fill:none;stroke:#cccccc;stroke-linecap:square;stroke-linejoin:miter;stroke-width:0.8;"/>
   </g>
  </g>
 </g>
 <defs>
  <clipPath id="pc615a44e97">
   <rect height="271.8" width="279" x="56.942188" y="7.2"/>
  </clipPath>
 </defs>
</svg>
