<?xml version="1.0" encoding="utf-8" standalone="no"?>
<!DOCTYPE svg PUBLIC "-//W3C//DTD SVG 1.1//EN"
  "http://www.w3.org/Graphics/SVG/1.1/DTD/svg11.dtd">
<!-- Created with matplotlib (https://matplotlib.org/) -->
<svg height="324.635938pt" version="1.1" viewBox="0 0 341.413068 324.635938" width="341.413068pt" xmlns="http://www.w3.org/2000/svg" xmlns:xlink="http://www.w3.org/1999/xlink">
 <defs>
  <style type="text/css">
*{stroke-linecap:butt;stroke-linejoin:round;}
  </style>
 </defs>
 <g id="figure_1">
  <g id="patch_1">
   <path d="M 0 324.635938 
L 341.413068 324.635938 
L 341.413068 0 
L 0 0 
z
" style="fill:#ffffff;"/>
  </g>
  <g id="axes_1">
   <g id="patch_2">
    <path d="M 52.767969 279 
L 331.767969 279 
L 331.767969 7.2 
L 52.767969 7.2 
z
" style="fill:#ffffff;"/>
   </g>
   <g id="matplotlib.axis_1">
    <g id="xtick_1">
     <g id="text_1">
      <!-- 0 -->
      <defs>
       <path d="M 4.15625 35.296875 
Q 4.15625 48 6.765625 55.734375 
Q 9.375 63.484375 14.515625 67.671875 
Q 19.671875 71.875 27.484375 71.875 
Q 33.25 71.875 37.59375 69.546875 
Q 41.9375 67.234375 44.765625 62.859375 
Q 47.609375 58.5 49.21875 52.21875 
Q 50.828125 45.953125 50.828125 35.296875 
Q 50.828125 22.703125 48.234375 14.96875 
Q 45.65625 7.234375 40.5 3 
Q 35.359375 -1.21875 27.484375 -1.21875 
Q 17.140625 -1.21875 11.234375 6.203125 
Q 4.15625 15.140625 4.15625 35.296875 
z
M 13.1875 35.296875 
Q 13.1875 17.671875 17.3125 11.828125 
Q 21.4375 6 27.484375 6 
Q 33.546875 6 37.671875 11.859375 
Q 41.796875 17.71875 41.796875 35.296875 
Q 41.796875 52.984375 37.671875 58.78125 
Q 33.546875 64.59375 27.390625 64.59375 
Q 21.34375 64.59375 17.71875 59.46875 
Q 13.1875 52.9375 13.1875 35.296875 
z
" id="ArialMT-48"/>
      </defs>
      <g style="fill:#262626;" transform="translate(56.049468 296.736719)scale(0.15 -0.15)">
       <use xlink:href="#ArialMT-48"/>
      </g>
     </g>
    </g>
    <g id="xtick_2">
     <g id="text_2">
      <!-- 20 -->
      <defs>
       <path d="M 50.34375 8.453125 
L 50.34375 0 
L 3.03125 0 
Q 2.9375 3.171875 4.046875 6.109375 
Q 5.859375 10.9375 9.828125 15.625 
Q 13.8125 20.3125 21.34375 26.46875 
Q 33.015625 36.03125 37.109375 41.625 
Q 41.21875 47.21875 41.21875 52.203125 
Q 41.21875 57.421875 37.46875 61 
Q 33.734375 64.59375 27.734375 64.59375 
Q 21.390625 64.59375 17.578125 60.78125 
Q 13.765625 56.984375 13.71875 50.25 
L 4.6875 51.171875 
Q 5.609375 61.28125 11.65625 66.578125 
Q 17.71875 71.875 27.9375 71.875 
Q 38.234375 71.875 44.234375 66.15625 
Q 50.25 60.453125 50.25 52 
Q 50.25 47.703125 48.484375 43.546875 
Q 46.734375 39.40625 42.65625 34.8125 
Q 38.578125 30.21875 29.109375 22.21875 
Q 21.1875 15.578125 18.9375 13.203125 
Q 16.703125 10.84375 15.234375 8.453125 
z
" id="ArialMT-50"/>
      </defs>
      <g style="fill:#262626;" transform="translate(104.174922 296.736719)scale(0.15 -0.15)">
       <use xlink:href="#ArialMT-50"/>
       <use x="55.615234" xlink:href="#ArialMT-48"/>
      </g>
     </g>
    </g>
    <g id="xtick_3">
     <g id="text_3">
      <!-- 40 -->
      <defs>
       <path d="M 32.328125 0 
L 32.328125 17.140625 
L 1.265625 17.140625 
L 1.265625 25.203125 
L 33.9375 71.578125 
L 41.109375 71.578125 
L 41.109375 25.203125 
L 50.78125 25.203125 
L 50.78125 17.140625 
L 41.109375 17.140625 
L 41.109375 0 
z
M 32.328125 25.203125 
L 32.328125 57.46875 
L 9.90625 25.203125 
z
" id="ArialMT-52"/>
      </defs>
      <g style="fill:#262626;" transform="translate(156.47108 296.736719)scale(0.15 -0.15)">
       <use xlink:href="#ArialMT-52"/>
       <use x="55.615234" xlink:href="#ArialMT-48"/>
      </g>
     </g>
    </g>
    <g id="xtick_4">
     <g id="text_4">
      <!-- 60 -->
      <defs>
       <path d="M 49.75 54.046875 
L 41.015625 53.375 
Q 39.84375 58.546875 37.703125 60.890625 
Q 34.125 64.65625 28.90625 64.65625 
Q 24.703125 64.65625 21.53125 62.3125 
Q 17.390625 59.28125 14.984375 53.46875 
Q 12.59375 47.65625 12.5 36.921875 
Q 15.671875 41.75 20.265625 44.09375 
Q 24.859375 46.4375 29.890625 46.4375 
Q 38.671875 46.4375 44.84375 39.96875 
Q 51.03125 33.5 51.03125 23.25 
Q 51.03125 16.5 48.125 10.71875 
Q 45.21875 4.9375 40.140625 1.859375 
Q 35.0625 -1.21875 28.609375 -1.21875 
Q 17.625 -1.21875 10.6875 6.859375 
Q 3.765625 14.9375 3.765625 33.5 
Q 3.765625 54.25 11.421875 63.671875 
Q 18.109375 71.875 29.4375 71.875 
Q 37.890625 71.875 43.28125 67.140625 
Q 48.6875 62.40625 49.75 54.046875 
z
M 13.875 23.1875 
Q 13.875 18.65625 15.796875 14.5 
Q 17.71875 10.359375 21.1875 8.171875 
Q 24.65625 6 28.46875 6 
Q 34.03125 6 38.03125 10.484375 
Q 42.046875 14.984375 42.046875 22.703125 
Q 42.046875 30.125 38.078125 34.390625 
Q 34.125 38.671875 28.125 38.671875 
Q 22.171875 38.671875 18.015625 34.390625 
Q 13.875 30.125 13.875 23.1875 
z
" id="ArialMT-54"/>
      </defs>
      <g style="fill:#262626;" transform="translate(208.767237 296.736719)scale(0.15 -0.15)">
       <use xlink:href="#ArialMT-54"/>
       <use x="55.615234" xlink:href="#ArialMT-48"/>
      </g>
     </g>
    </g>
    <g id="xtick_5">
     <g id="text_5">
      <!-- 80 -->
      <defs>
       <path d="M 17.671875 38.8125 
Q 12.203125 40.828125 9.5625 44.53125 
Q 6.9375 48.25 6.9375 53.421875 
Q 6.9375 61.234375 12.546875 66.546875 
Q 18.171875 71.875 27.484375 71.875 
Q 36.859375 71.875 42.578125 66.421875 
Q 48.296875 60.984375 48.296875 53.171875 
Q 48.296875 48.1875 45.671875 44.5 
Q 43.0625 40.828125 37.75 38.8125 
Q 44.34375 36.671875 47.78125 31.875 
Q 51.21875 27.09375 51.21875 20.453125 
Q 51.21875 11.28125 44.71875 5.03125 
Q 38.234375 -1.21875 27.640625 -1.21875 
Q 17.046875 -1.21875 10.546875 5.046875 
Q 4.046875 11.328125 4.046875 20.703125 
Q 4.046875 27.6875 7.59375 32.390625 
Q 11.140625 37.109375 17.671875 38.8125 
z
M 15.921875 53.71875 
Q 15.921875 48.640625 19.1875 45.40625 
Q 22.46875 42.1875 27.6875 42.1875 
Q 32.765625 42.1875 36.015625 45.375 
Q 39.265625 48.578125 39.265625 53.21875 
Q 39.265625 58.0625 35.90625 61.359375 
Q 32.5625 64.65625 27.59375 64.65625 
Q 22.5625 64.65625 19.234375 61.421875 
Q 15.921875 58.203125 15.921875 53.71875 
z
M 13.09375 20.65625 
Q 13.09375 16.890625 14.875 13.375 
Q 16.65625 9.859375 20.171875 7.921875 
Q 23.6875 6 27.734375 6 
Q 34.03125 6 38.125 10.046875 
Q 42.234375 14.109375 42.234375 20.359375 
Q 42.234375 26.703125 38.015625 30.859375 
Q 33.796875 35.015625 27.4375 35.015625 
Q 21.234375 35.015625 17.15625 30.90625 
Q 13.09375 26.8125 13.09375 20.65625 
z
" id="ArialMT-56"/>
      </defs>
      <g style="fill:#262626;" transform="translate(261.063395 296.736719)scale(0.15 -0.15)">
       <use xlink:href="#ArialMT-56"/>
       <use x="55.615234" xlink:href="#ArialMT-48"/>
      </g>
     </g>
    </g>
    <g id="xtick_6">
     <g id="text_6">
      <!-- 100 -->
      <defs>
       <path d="M 37.25 0 
L 28.46875 0 
L 28.46875 56 
Q 25.296875 52.984375 20.140625 49.953125 
Q 14.984375 46.921875 10.890625 45.40625 
L 10.890625 53.90625 
Q 18.265625 57.375 23.78125 62.296875 
Q 29.296875 67.234375 31.59375 71.875 
L 37.25 71.875 
z
" id="ArialMT-49"/>
      </defs>
      <g style="fill:#262626;" transform="translate(309.188849 296.736719)scale(0.15 -0.15)">
       <use xlink:href="#ArialMT-49"/>
       <use x="55.615234" xlink:href="#ArialMT-48"/>
       <use x="111.230469" xlink:href="#ArialMT-48"/>
      </g>
     </g>
    </g>
    <g id="text_7">
     <!-- k -->
     <defs>
      <path d="M 6.640625 0 
L 6.640625 71.578125 
L 15.4375 71.578125 
L 15.4375 30.765625 
L 36.234375 51.859375 
L 47.609375 51.859375 
L 27.78125 32.625 
L 49.609375 0 
L 38.765625 0 
L 21.625 26.515625 
L 15.4375 20.5625 
L 15.4375 0 
z
" id="ArialMT-107"/>
     </defs>
     <g style="fill:#262626;" transform="translate(188.517969 314.454688)scale(0.15 -0.15)">
      <use xlink:href="#ArialMT-107"/>
     </g>
    </g>
   </g>
   <g id="matplotlib.axis_2">
    <g id="ytick_1">
     <g id="line2d_1">
      <path clip-path="url(#pe5f86a08ca)" d="M 52.767969 231.577434 
L 331.767969 231.577434 
" style="fill:none;stroke:#cccccc;stroke-linecap:round;stroke-width:0.8;"/>
     </g>
     <g id="text_8">
      <!-- 0.0 -->
      <defs>
       <path d="M 9.078125 0 
L 9.078125 10.015625 
L 19.09375 10.015625 
L 19.09375 0 
z
" id="ArialMT-46"/>
      </defs>
      <g style="fill:#262626;" transform="translate(24.917969 236.945794)scale(0.15 -0.15)">
       <use xlink:href="#ArialMT-48"/>
       <use x="55.615234" xlink:href="#ArialMT-46"/>
       <use x="83.398438" xlink:href="#ArialMT-48"/>
      </g>
     </g>
    </g>
    <g id="ytick_2">
     <g id="line2d_2">
      <path clip-path="url(#pe5f86a08ca)" d="M 52.767969 182.03333 
L 331.767969 182.03333 
" style="fill:none;stroke:#cccccc;stroke-linecap:round;stroke-width:0.8;"/>
     </g>
     <g id="text_9">
      <!-- 0.1 -->
      <g style="fill:#262626;" transform="translate(24.917969 187.40169)scale(0.15 -0.15)">
       <use xlink:href="#ArialMT-48"/>
       <use x="55.615234" xlink:href="#ArialMT-46"/>
       <use x="83.398438" xlink:href="#ArialMT-49"/>
      </g>
     </g>
    </g>
    <g id="ytick_3">
     <g id="line2d_3">
      <path clip-path="url(#pe5f86a08ca)" d="M 52.767969 132.489226 
L 331.767969 132.489226 
" style="fill:none;stroke:#cccccc;stroke-linecap:round;stroke-width:0.8;"/>
     </g>
     <g id="text_10">
      <!-- 0.2 -->
      <g style="fill:#262626;" transform="translate(24.917969 137.857586)scale(0.15 -0.15)">
       <use xlink:href="#ArialMT-48"/>
       <use x="55.615234" xlink:href="#ArialMT-46"/>
       <use x="83.398438" xlink:href="#ArialMT-50"/>
      </g>
     </g>
    </g>
    <g id="ytick_4">
     <g id="line2d_4">
      <path clip-path="url(#pe5f86a08ca)" d="M 52.767969 82.945123 
L 331.767969 82.945123 
" style="fill:none;stroke:#cccccc;stroke-linecap:round;stroke-width:0.8;"/>
     </g>
     <g id="text_11">
      <!-- 0.3 -->
      <defs>
       <path d="M 4.203125 18.890625 
L 12.984375 20.0625 
Q 14.5 12.59375 18.140625 9.296875 
Q 21.78125 6 27 6 
Q 33.203125 6 37.46875 10.296875 
Q 41.75 14.59375 41.75 20.953125 
Q 41.75 27 37.796875 30.921875 
Q 33.84375 34.859375 27.734375 34.859375 
Q 25.25 34.859375 21.53125 33.890625 
L 22.515625 41.609375 
Q 23.390625 41.5 23.921875 41.5 
Q 29.546875 41.5 34.03125 44.421875 
Q 38.53125 47.359375 38.53125 53.46875 
Q 38.53125 58.296875 35.25 61.46875 
Q 31.984375 64.65625 26.8125 64.65625 
Q 21.6875 64.65625 18.265625 61.421875 
Q 14.84375 58.203125 13.875 51.765625 
L 5.078125 53.328125 
Q 6.6875 62.15625 12.390625 67.015625 
Q 18.109375 71.875 26.609375 71.875 
Q 32.46875 71.875 37.390625 69.359375 
Q 42.328125 66.84375 44.9375 62.5 
Q 47.5625 58.15625 47.5625 53.265625 
Q 47.5625 48.640625 45.0625 44.828125 
Q 42.578125 41.015625 37.703125 38.765625 
Q 44.046875 37.3125 47.5625 32.6875 
Q 51.078125 28.078125 51.078125 21.140625 
Q 51.078125 11.765625 44.234375 5.25 
Q 37.40625 -1.265625 26.953125 -1.265625 
Q 17.53125 -1.265625 11.296875 4.34375 
Q 5.078125 9.96875 4.203125 18.890625 
z
" id="ArialMT-51"/>
      </defs>
      <g style="fill:#262626;" transform="translate(24.917969 88.313482)scale(0.15 -0.15)">
       <use xlink:href="#ArialMT-48"/>
       <use x="55.615234" xlink:href="#ArialMT-46"/>
       <use x="83.398438" xlink:href="#ArialMT-51"/>
      </g>
     </g>
    </g>
    <g id="ytick_5">
     <g id="line2d_5">
      <path clip-path="url(#pe5f86a08ca)" d="M 52.767969 33.401019 
L 331.767969 33.401019 
" style="fill:none;stroke:#cccccc;stroke-linecap:round;stroke-width:0.8;"/>
     </g>
     <g id="text_12">
      <!-- 0.4 -->
      <g style="fill:#262626;" transform="translate(24.917969 38.769378)scale(0.15 -0.15)">
       <use xlink:href="#ArialMT-48"/>
       <use x="55.615234" xlink:href="#ArialMT-46"/>
       <use x="83.398438" xlink:href="#ArialMT-52"/>
      </g>
     </g>
    </g>
    <g id="text_13">
     <!-- Silhouette Score -->
     <defs>
      <path d="M 4.5 23 
L 13.421875 23.78125 
Q 14.0625 18.40625 16.375 14.96875 
Q 18.703125 11.53125 23.578125 9.40625 
Q 28.46875 7.28125 34.578125 7.28125 
Q 39.984375 7.28125 44.140625 8.890625 
Q 48.296875 10.5 50.3125 13.296875 
Q 52.34375 16.109375 52.34375 19.4375 
Q 52.34375 22.796875 50.390625 25.3125 
Q 48.4375 27.828125 43.953125 29.546875 
Q 41.0625 30.671875 31.203125 33.03125 
Q 21.34375 35.40625 17.390625 37.5 
Q 12.25 40.1875 9.734375 44.15625 
Q 7.234375 48.140625 7.234375 53.078125 
Q 7.234375 58.5 10.296875 63.203125 
Q 13.375 67.921875 19.28125 70.359375 
Q 25.203125 72.796875 32.421875 72.796875 
Q 40.375 72.796875 46.453125 70.234375 
Q 52.546875 67.671875 55.8125 62.6875 
Q 59.078125 57.71875 59.328125 51.421875 
L 50.25 50.734375 
Q 49.515625 57.515625 45.28125 60.984375 
Q 41.0625 64.453125 32.8125 64.453125 
Q 24.21875 64.453125 20.28125 61.296875 
Q 16.359375 58.15625 16.359375 53.71875 
Q 16.359375 49.859375 19.140625 47.359375 
Q 21.875 44.875 33.421875 42.265625 
Q 44.96875 39.65625 49.265625 37.703125 
Q 55.515625 34.8125 58.484375 30.390625 
Q 61.46875 25.984375 61.46875 20.21875 
Q 61.46875 14.5 58.203125 9.4375 
Q 54.9375 4.390625 48.796875 1.578125 
Q 42.671875 -1.21875 35.015625 -1.21875 
Q 25.296875 -1.21875 18.71875 1.609375 
Q 12.15625 4.4375 8.421875 10.125 
Q 4.6875 15.828125 4.5 23 
z
" id="ArialMT-83"/>
      <path d="M 6.640625 61.46875 
L 6.640625 71.578125 
L 15.4375 71.578125 
L 15.4375 61.46875 
z
M 6.640625 0 
L 6.640625 51.859375 
L 15.4375 51.859375 
L 15.4375 0 
z
" id="ArialMT-105"/>
      <path d="M 6.390625 0 
L 6.390625 71.578125 
L 15.1875 71.578125 
L 15.1875 0 
z
" id="ArialMT-108"/>
      <path d="M 6.59375 0 
L 6.59375 71.578125 
L 15.375 71.578125 
L 15.375 45.90625 
Q 21.53125 53.03125 30.90625 53.03125 
Q 36.671875 53.03125 40.921875 50.75 
Q 45.171875 48.484375 47 44.484375 
Q 48.828125 40.484375 48.828125 32.859375 
L 48.828125 0 
L 40.046875 0 
L 40.046875 32.859375 
Q 40.046875 39.453125 37.1875 42.453125 
Q 34.328125 45.453125 29.109375 45.453125 
Q 25.203125 45.453125 21.75 43.421875 
Q 18.3125 41.40625 16.84375 37.9375 
Q 15.375 34.46875 15.375 28.375 
L 15.375 0 
z
" id="ArialMT-104"/>
      <path d="M 3.328125 25.921875 
Q 3.328125 40.328125 11.328125 47.265625 
Q 18.015625 53.03125 27.640625 53.03125 
Q 38.328125 53.03125 45.109375 46.015625 
Q 51.90625 39.015625 51.90625 26.65625 
Q 51.90625 16.65625 48.90625 10.90625 
Q 45.90625 5.171875 40.15625 2 
Q 34.421875 -1.171875 27.640625 -1.171875 
Q 16.75 -1.171875 10.03125 5.8125 
Q 3.328125 12.796875 3.328125 25.921875 
z
M 12.359375 25.921875 
Q 12.359375 15.96875 16.703125 11.015625 
Q 21.046875 6.0625 27.640625 6.0625 
Q 34.1875 6.0625 38.53125 11.03125 
Q 42.875 16.015625 42.875 26.21875 
Q 42.875 35.84375 38.5 40.796875 
Q 34.125 45.75 27.640625 45.75 
Q 21.046875 45.75 16.703125 40.8125 
Q 12.359375 35.890625 12.359375 25.921875 
z
" id="ArialMT-111"/>
      <path d="M 40.578125 0 
L 40.578125 7.625 
Q 34.515625 -1.171875 24.125 -1.171875 
Q 19.53125 -1.171875 15.546875 0.578125 
Q 11.578125 2.34375 9.640625 5 
Q 7.71875 7.671875 6.9375 11.53125 
Q 6.390625 14.109375 6.390625 19.734375 
L 6.390625 51.859375 
L 15.1875 51.859375 
L 15.1875 23.09375 
Q 15.1875 16.21875 15.71875 13.8125 
Q 16.546875 10.359375 19.234375 8.375 
Q 21.921875 6.390625 25.875 6.390625 
Q 29.828125 6.390625 33.296875 8.421875 
Q 36.765625 10.453125 38.203125 13.9375 
Q 39.65625 17.4375 39.65625 24.078125 
L 39.65625 51.859375 
L 48.4375 51.859375 
L 48.4375 0 
z
" id="ArialMT-117"/>
      <path d="M 42.09375 16.703125 
L 51.171875 15.578125 
Q 49.03125 7.625 43.21875 3.21875 
Q 37.40625 -1.171875 28.375 -1.171875 
Q 17 -1.171875 10.328125 5.828125 
Q 3.65625 12.84375 3.65625 25.484375 
Q 3.65625 38.578125 10.390625 45.796875 
Q 17.140625 53.03125 27.875 53.03125 
Q 38.28125 53.03125 44.875 45.953125 
Q 51.46875 38.875 51.46875 26.03125 
Q 51.46875 25.25 51.421875 23.6875 
L 12.75 23.6875 
Q 13.234375 15.140625 17.578125 10.59375 
Q 21.921875 6.0625 28.421875 6.0625 
Q 33.25 6.0625 36.671875 8.59375 
Q 40.09375 11.140625 42.09375 16.703125 
z
M 13.234375 30.90625 
L 42.1875 30.90625 
Q 41.609375 37.453125 38.875 40.71875 
Q 34.671875 45.796875 27.984375 45.796875 
Q 21.921875 45.796875 17.796875 41.75 
Q 13.671875 37.703125 13.234375 30.90625 
z
" id="ArialMT-101"/>
      <path d="M 25.78125 7.859375 
L 27.046875 0.09375 
Q 23.34375 -0.6875 20.40625 -0.6875 
Q 15.625 -0.6875 12.984375 0.828125 
Q 10.359375 2.34375 9.28125 4.8125 
Q 8.203125 7.28125 8.203125 15.1875 
L 8.203125 45.015625 
L 1.765625 45.015625 
L 1.765625 51.859375 
L 8.203125 51.859375 
L 8.203125 64.703125 
L 16.9375 69.96875 
L 16.9375 51.859375 
L 25.78125 51.859375 
L 25.78125 45.015625 
L 16.9375 45.015625 
L 16.9375 14.703125 
Q 16.9375 10.9375 17.40625 9.859375 
Q 17.875 8.796875 18.921875 8.15625 
Q 19.96875 7.515625 21.921875 7.515625 
Q 23.390625 7.515625 25.78125 7.859375 
z
" id="ArialMT-116"/>
      <path id="ArialMT-32"/>
      <path d="M 40.4375 19 
L 49.078125 17.875 
Q 47.65625 8.9375 41.8125 3.875 
Q 35.984375 -1.171875 27.484375 -1.171875 
Q 16.84375 -1.171875 10.375 5.78125 
Q 3.90625 12.75 3.90625 25.734375 
Q 3.90625 34.125 6.6875 40.421875 
Q 9.46875 46.734375 15.15625 49.875 
Q 20.84375 53.03125 27.546875 53.03125 
Q 35.984375 53.03125 41.359375 48.75 
Q 46.734375 44.484375 48.25 36.625 
L 39.703125 35.296875 
Q 38.484375 40.53125 35.375 43.15625 
Q 32.28125 45.796875 27.875 45.796875 
Q 21.234375 45.796875 17.078125 41.03125 
Q 12.9375 36.28125 12.9375 25.984375 
Q 12.9375 15.53125 16.9375 10.796875 
Q 20.953125 6.0625 27.390625 6.0625 
Q 32.5625 6.0625 36.03125 9.234375 
Q 39.5 12.40625 40.4375 19 
z
" id="ArialMT-99"/>
      <path d="M 6.5 0 
L 6.5 51.859375 
L 14.40625 51.859375 
L 14.40625 44 
Q 17.4375 49.515625 20 51.265625 
Q 22.5625 53.03125 25.640625 53.03125 
Q 30.078125 53.03125 34.671875 50.203125 
L 31.640625 42.046875 
Q 28.421875 43.953125 25.203125 43.953125 
Q 22.3125 43.953125 20.015625 42.21875 
Q 17.71875 40.484375 16.75 37.40625 
Q 15.28125 32.71875 15.28125 27.15625 
L 15.28125 0 
z
" id="ArialMT-114"/>
     </defs>
     <g style="fill:#262626;" transform="translate(17.936719 198.13125)rotate(-90)scale(0.15 -0.15)">
      <use xlink:href="#ArialMT-83"/>
      <use x="66.699219" xlink:href="#ArialMT-105"/>
      <use x="88.916016" xlink:href="#ArialMT-108"/>
      <use x="111.132812" xlink:href="#ArialMT-104"/>
      <use x="166.748047" xlink:href="#ArialMT-111"/>
      <use x="222.363281" xlink:href="#ArialMT-117"/>
      <use x="277.978516" xlink:href="#ArialMT-101"/>
      <use x="333.59375" xlink:href="#ArialMT-116"/>
      <use x="361.376953" xlink:href="#ArialMT-116"/>
      <use x="389.160156" xlink:href="#ArialMT-101"/>
      <use x="444.775391" xlink:href="#ArialMT-32"/>
      <use x="472.558594" xlink:href="#ArialMT-83"/>
      <use x="539.257812" xlink:href="#ArialMT-99"/>
      <use x="589.257812" xlink:href="#ArialMT-111"/>
      <use x="644.873047" xlink:href="#ArialMT-114"/>
      <use x="678.173828" xlink:href="#ArialMT-101"/>
     </g>
    </g>
   </g>
   <g id="line2d_6">
    <path clip-path="url(#pe5f86a08ca)" d="M 65.449787 19.554545 
L 68.064595 32.243462 
L 70.679403 76.310234 
L 73.294211 83.267361 
L 75.909018 94.761966 
L 78.523826 97.221458 
L 81.138634 100.626348 
L 83.753442 101.658952 
L 86.36825 110.5482 
L 88.983058 115.829428 
L 91.597866 119.227949 
L 94.212674 136.171341 
L 96.827481 136.307266 
L 99.442289 151.909193 
L 102.057097 154.584159 
L 104.671905 156.046941 
L 107.286713 156.381128 
L 109.901521 157.051273 
L 112.516329 165.898422 
L 115.131137 166.408122 
L 117.745944 166.846292 
L 120.360752 167.208969 
L 122.97556 167.301758 
L 125.590368 171.001436 
L 128.205176 171.941951 
L 130.819984 172.423397 
L 133.434792 172.481176 
L 136.049599 173.421243 
L 138.664407 174.634131 
L 141.279215 178.610636 
L 143.894023 184.736939 
L 146.508831 184.639934 
L 149.123639 184.930381 
L 151.738447 188.122585 
L 154.353255 188.136949 
L 156.968062 196.767653 
L 159.58287 200.964225 
L 162.197678 201.08173 
L 164.812486 205.553694 
L 167.427294 207.110305 
L 170.042102 207.482007 
L 172.65691 207.187878 
L 175.271718 212.447402 
L 177.886525 214.687844 
L 180.501333 214.716383 
L 183.116141 215.673629 
L 185.730949 216.477701 
L 188.345757 218.207863 
L 190.960565 221.020692 
L 193.575373 221.070671 
L 196.190181 221.200418 
L 198.804988 221.065897 
L 201.419796 220.93553 
L 204.034604 220.89832 
L 206.649412 220.430396 
L 209.26422 220.659601 
L 211.879028 228.913168 
L 214.493836 228.607231 
L 217.108644 227.163728 
L 219.723451 227.33743 
L 222.338259 226.745362 
L 224.953067 229.465319 
L 227.567875 230.896862 
L 230.182683 231.009711 
L 232.797491 230.167951 
L 235.412299 232.16145 
L 238.027107 233.450349 
L 240.641914 233.774188 
L 243.256722 237.018743 
L 245.87153 237.556895 
L 248.486338 237.660376 
L 251.101146 237.507966 
L 253.715954 242.793796 
L 256.330762 242.238524 
L 258.945569 242.30695 
L 261.560377 247.523602 
L 264.175185 253.886628 
L 266.789993 253.800121 
L 269.404801 255.444333 
L 272.019609 255.473447 
L 274.634417 255.62839 
L 277.249225 255.641901 
L 279.864032 255.628782 
L 282.47884 255.384456 
L 285.093648 255.576053 
L 287.708456 255.653969 
L 290.323264 254.863642 
L 292.938072 255.078163 
L 295.55288 255.044261 
L 298.167688 254.884933 
L 300.782495 256.892704 
L 303.397303 258.24559 
L 306.012111 258.168411 
L 308.626919 259.713966 
L 311.241727 259.534051 
L 313.856535 260.949189 
L 316.471343 266.617813 
L 319.086151 266.645455 
" style="fill:none;stroke:#1f77b4;stroke-linecap:round;stroke-width:1.5;"/>
    <defs>
     <path d="M 0 3 
C 0.795609 3 1.55874 2.683901 2.12132 2.12132 
C 2.683901 1.55874 3 0.795609 3 0 
C 3 -0.795609 2.683901 -1.55874 2.12132 -2.12132 
C 1.55874 -2.683901 0.795609 -3 0 -3 
C -0.795609 -3 -1.55874 -2.683901 -2.12132 -2.12132 
C -2.683901 -1.55874 -3 -0.795609 -3 0 
C -3 0.795609 -2.683901 1.55874 -2.12132 2.12132 
C -1.55874 2.683901 -0.795609 3 0 3 
z
" id="m1ec11a6b84" style="stroke:#ffffff;stroke-width:0.75;"/>
    </defs>
    <g clip-path="url(#pe5f86a08ca)">
     <use style="fill:#1f77b4;stroke:#ffffff;stroke-width:0.75;" x="65.449787" xlink:href="#m1ec11a6b84" y="19.554545"/>
     <use style="fill:#1f77b4;stroke:#ffffff;stroke-width:0.75;" x="68.064595" xlink:href="#m1ec11a6b84" y="32.243462"/>
     <use style="fill:#1f77b4;stroke:#ffffff;stroke-width:0.75;" x="70.679403" xlink:href="#m1ec11a6b84" y="76.310234"/>
     <use style="fill:#1f77b4;stroke:#ffffff;stroke-width:0.75;" x="73.294211" xlink:href="#m1ec11a6b84" y="83.267361"/>
     <use style="fill:#1f77b4;stroke:#ffffff;stroke-width:0.75;" x="75.909018" xlink:href="#m1ec11a6b84" y="94.761966"/>
     <use style="fill:#1f77b4;stroke:#ffffff;stroke-width:0.75;" x="78.523826" xlink:href="#m1ec11a6b84" y="97.221458"/>
     <use style="fill:#1f77b4;stroke:#ffffff;stroke-width:0.75;" x="81.138634" xlink:href="#m1ec11a6b84" y="100.626348"/>
     <use style="fill:#1f77b4;stroke:#ffffff;stroke-width:0.75;" x="83.753442" xlink:href="#m1ec11a6b84" y="101.658952"/>
     <use style="fill:#1f77b4;stroke:#ffffff;stroke-width:0.75;" x="86.36825" xlink:href="#m1ec11a6b84" y="110.5482"/>
     <use style="fill:#1f77b4;stroke:#ffffff;stroke-width:0.75;" x="88.983058" xlink:href="#m1ec11a6b84" y="115.829428"/>
     <use style="fill:#1f77b4;stroke:#ffffff;stroke-width:0.75;" x="91.597866" xlink:href="#m1ec11a6b84" y="119.227949"/>
     <use style="fill:#1f77b4;stroke:#ffffff;stroke-width:0.75;" x="94.212674" xlink:href="#m1ec11a6b84" y="136.171341"/>
     <use style="fill:#1f77b4;stroke:#ffffff;stroke-width:0.75;" x="96.827481" xlink:href="#m1ec11a6b84" y="136.307266"/>
     <use style="fill:#1f77b4;stroke:#ffffff;stroke-width:0.75;" x="99.442289" xlink:href="#m1ec11a6b84" y="151.909193"/>
     <use style="fill:#1f77b4;stroke:#ffffff;stroke-width:0.75;" x="102.057097" xlink:href="#m1ec11a6b84" y="154.584159"/>
     <use style="fill:#1f77b4;stroke:#ffffff;stroke-width:0.75;" x="104.671905" xlink:href="#m1ec11a6b84" y="156.046941"/>
     <use style="fill:#1f77b4;stroke:#ffffff;stroke-width:0.75;" x="107.286713" xlink:href="#m1ec11a6b84" y="156.381128"/>
     <use style="fill:#1f77b4;stroke:#ffffff;stroke-width:0.75;" x="109.901521" xlink:href="#m1ec11a6b84" y="157.051273"/>
     <use style="fill:#1f77b4;stroke:#ffffff;stroke-width:0.75;" x="112.516329" xlink:href="#m1ec11a6b84" y="165.898422"/>
     <use style="fill:#1f77b4;stroke:#ffffff;stroke-width:0.75;" x="115.131137" xlink:href="#m1ec11a6b84" y="166.408122"/>
     <use style="fill:#1f77b4;stroke:#ffffff;stroke-width:0.75;" x="117.745944" xlink:href="#m1ec11a6b84" y="166.846292"/>
     <use style="fill:#1f77b4;stroke:#ffffff;stroke-width:0.75;" x="120.360752" xlink:href="#m1ec11a6b84" y="167.208969"/>
     <use style="fill:#1f77b4;stroke:#ffffff;stroke-width:0.75;" x="122.97556" xlink:href="#m1ec11a6b84" y="167.301758"/>
     <use style="fill:#1f77b4;stroke:#ffffff;stroke-width:0.75;" x="125.590368" xlink:href="#m1ec11a6b84" y="171.001436"/>
     <use style="fill:#1f77b4;stroke:#ffffff;stroke-width:0.75;" x="128.205176" xlink:href="#m1ec11a6b84" y="171.941951"/>
     <use style="fill:#1f77b4;stroke:#ffffff;stroke-width:0.75;" x="130.819984" xlink:href="#m1ec11a6b84" y="172.423397"/>
     <use style="fill:#1f77b4;stroke:#ffffff;stroke-width:0.75;" x="133.434792" xlink:href="#m1ec11a6b84" y="172.481176"/>
     <use style="fill:#1f77b4;stroke:#ffffff;stroke-width:0.75;" x="136.049599" xlink:href="#m1ec11a6b84" y="173.421243"/>
     <use style="fill:#1f77b4;stroke:#ffffff;stroke-width:0.75;" x="138.664407" xlink:href="#m1ec11a6b84" y="174.634131"/>
     <use style="fill:#1f77b4;stroke:#ffffff;stroke-width:0.75;" x="141.279215" xlink:href="#m1ec11a6b84" y="178.610636"/>
     <use style="fill:#1f77b4;stroke:#ffffff;stroke-width:0.75;" x="143.894023" xlink:href="#m1ec11a6b84" y="184.736939"/>
     <use style="fill:#1f77b4;stroke:#ffffff;stroke-width:0.75;" x="146.508831" xlink:href="#m1ec11a6b84" y="184.639934"/>
     <use style="fill:#1f77b4;stroke:#ffffff;stroke-width:0.75;" x="149.123639" xlink:href="#m1ec11a6b84" y="184.930381"/>
     <use style="fill:#1f77b4;stroke:#ffffff;stroke-width:0.75;" x="151.738447" xlink:href="#m1ec11a6b84" y="188.122585"/>
     <use style="fill:#1f77b4;stroke:#ffffff;stroke-width:0.75;" x="154.353255" xlink:href="#m1ec11a6b84" y="188.136949"/>
     <use style="fill:#1f77b4;stroke:#ffffff;stroke-width:0.75;" x="156.968062" xlink:href="#m1ec11a6b84" y="196.767653"/>
     <use style="fill:#1f77b4;stroke:#ffffff;stroke-width:0.75;" x="159.58287" xlink:href="#m1ec11a6b84" y="200.964225"/>
     <use style="fill:#1f77b4;stroke:#ffffff;stroke-width:0.75;" x="162.197678" xlink:href="#m1ec11a6b84" y="201.08173"/>
     <use style="fill:#1f77b4;stroke:#ffffff;stroke-width:0.75;" x="164.812486" xlink:href="#m1ec11a6b84" y="205.553694"/>
     <use style="fill:#1f77b4;stroke:#ffffff;stroke-width:0.75;" x="167.427294" xlink:href="#m1ec11a6b84" y="207.110305"/>
     <use style="fill:#1f77b4;stroke:#ffffff;stroke-width:0.75;" x="170.042102" xlink:href="#m1ec11a6b84" y="207.482007"/>
     <use style="fill:#1f77b4;stroke:#ffffff;stroke-width:0.75;" x="172.65691" xlink:href="#m1ec11a6b84" y="207.187878"/>
     <use style="fill:#1f77b4;stroke:#ffffff;stroke-width:0.75;" x="175.271718" xlink:href="#m1ec11a6b84" y="212.447402"/>
     <use style="fill:#1f77b4;stroke:#ffffff;stroke-width:0.75;" x="177.886525" xlink:href="#m1ec11a6b84" y="214.687844"/>
     <use style="fill:#1f77b4;stroke:#ffffff;stroke-width:0.75;" x="180.501333" xlink:href="#m1ec11a6b84" y="214.716383"/>
     <use style="fill:#1f77b4;stroke:#ffffff;stroke-width:0.75;" x="183.116141" xlink:href="#m1ec11a6b84" y="215.673629"/>
     <use style="fill:#1f77b4;stroke:#ffffff;stroke-width:0.75;" x="185.730949" xlink:href="#m1ec11a6b84" y="216.477701"/>
     <use style="fill:#1f77b4;stroke:#ffffff;stroke-width:0.75;" x="188.345757" xlink:href="#m1ec11a6b84" y="218.207863"/>
     <use style="fill:#1f77b4;stroke:#ffffff;stroke-width:0.75;" x="190.960565" xlink:href="#m1ec11a6b84" y="221.020692"/>
     <use style="fill:#1f77b4;stroke:#ffffff;stroke-width:0.75;" x="193.575373" xlink:href="#m1ec11a6b84" y="221.070671"/>
     <use style="fill:#1f77b4;stroke:#ffffff;stroke-width:0.75;" x="196.190181" xlink:href="#m1ec11a6b84" y="221.200418"/>
     <use style="fill:#1f77b4;stroke:#ffffff;stroke-width:0.75;" x="198.804988" xlink:href="#m1ec11a6b84" y="221.065897"/>
     <use style="fill:#1f77b4;stroke:#ffffff;stroke-width:0.75;" x="201.419796" xlink:href="#m1ec11a6b84" y="220.93553"/>
     <use style="fill:#1f77b4;stroke:#ffffff;stroke-width:0.75;" x="204.034604" xlink:href="#m1ec11a6b84" y="220.89832"/>
     <use style="fill:#1f77b4;stroke:#ffffff;stroke-width:0.75;" x="206.649412" xlink:href="#m1ec11a6b84" y="220.430396"/>
     <use style="fill:#1f77b4;stroke:#ffffff;stroke-width:0.75;" x="209.26422" xlink:href="#m1ec11a6b84" y="220.659601"/>
     <use style="fill:#1f77b4;stroke:#ffffff;stroke-width:0.75;" x="211.879028" xlink:href="#m1ec11a6b84" y="228.913168"/>
     <use style="fill:#1f77b4;stroke:#ffffff;stroke-width:0.75;" x="214.493836" xlink:href="#m1ec11a6b84" y="228.607231"/>
     <use style="fill:#1f77b4;stroke:#ffffff;stroke-width:0.75;" x="217.108644" xlink:href="#m1ec11a6b84" y="227.163728"/>
     <use style="fill:#1f77b4;stroke:#ffffff;stroke-width:0.75;" x="219.723451" xlink:href="#m1ec11a6b84" y="227.33743"/>
     <use style="fill:#1f77b4;stroke:#ffffff;stroke-width:0.75;" x="222.338259" xlink:href="#m1ec11a6b84" y="226.745362"/>
     <use style="fill:#1f77b4;stroke:#ffffff;stroke-width:0.75;" x="224.953067" xlink:href="#m1ec11a6b84" y="229.465319"/>
     <use style="fill:#1f77b4;stroke:#ffffff;stroke-width:0.75;" x="227.567875" xlink:href="#m1ec11a6b84" y="230.896862"/>
     <use style="fill:#1f77b4;stroke:#ffffff;stroke-width:0.75;" x="230.182683" xlink:href="#m1ec11a6b84" y="231.009711"/>
     <use style="fill:#1f77b4;stroke:#ffffff;stroke-width:0.75;" x="232.797491" xlink:href="#m1ec11a6b84" y="230.167951"/>
     <use style="fill:#1f77b4;stroke:#ffffff;stroke-width:0.75;" x="235.412299" xlink:href="#m1ec11a6b84" y="232.16145"/>
     <use style="fill:#1f77b4;stroke:#ffffff;stroke-width:0.75;" x="238.027107" xlink:href="#m1ec11a6b84" y="233.450349"/>
     <use style="fill:#1f77b4;stroke:#ffffff;stroke-width:0.75;" x="240.641914" xlink:href="#m1ec11a6b84" y="233.774188"/>
     <use style="fill:#1f77b4;stroke:#ffffff;stroke-width:0.75;" x="243.256722" xlink:href="#m1ec11a6b84" y="237.018743"/>
     <use style="fill:#1f77b4;stroke:#ffffff;stroke-width:0.75;" x="245.87153" xlink:href="#m1ec11a6b84" y="237.556895"/>
     <use style="fill:#1f77b4;stroke:#ffffff;stroke-width:0.75;" x="248.486338" xlink:href="#m1ec11a6b84" y="237.660376"/>
     <use style="fill:#1f77b4;stroke:#ffffff;stroke-width:0.75;" x="251.101146" xlink:href="#m1ec11a6b84" y="237.507966"/>
     <use style="fill:#1f77b4;stroke:#ffffff;stroke-width:0.75;" x="253.715954" xlink:href="#m1ec11a6b84" y="242.793796"/>
     <use style="fill:#1f77b4;stroke:#ffffff;stroke-width:0.75;" x="256.330762" xlink:href="#m1ec11a6b84" y="242.238524"/>
     <use style="fill:#1f77b4;stroke:#ffffff;stroke-width:0.75;" x="258.945569" xlink:href="#m1ec11a6b84" y="242.30695"/>
     <use style="fill:#1f77b4;stroke:#ffffff;stroke-width:0.75;" x="261.560377" xlink:href="#m1ec11a6b84" y="247.523602"/>
     <use style="fill:#1f77b4;stroke:#ffffff;stroke-width:0.75;" x="264.175185" xlink:href="#m1ec11a6b84" y="253.886628"/>
     <use style="fill:#1f77b4;stroke:#ffffff;stroke-width:0.75;" x="266.789993" xlink:href="#m1ec11a6b84" y="253.800121"/>
     <use style="fill:#1f77b4;stroke:#ffffff;stroke-width:0.75;" x="269.404801" xlink:href="#m1ec11a6b84" y="255.444333"/>
     <use style="fill:#1f77b4;stroke:#ffffff;stroke-width:0.75;" x="272.019609" xlink:href="#m1ec11a6b84" y="255.473447"/>
     <use style="fill:#1f77b4;stroke:#ffffff;stroke-width:0.75;" x="274.634417" xlink:href="#m1ec11a6b84" y="255.62839"/>
     <use style="fill:#1f77b4;stroke:#ffffff;stroke-width:0.75;" x="277.249225" xlink:href="#m1ec11a6b84" y="255.641901"/>
     <use style="fill:#1f77b4;stroke:#ffffff;stroke-width:0.75;" x="279.864032" xlink:href="#m1ec11a6b84" y="255.628782"/>
     <use style="fill:#1f77b4;stroke:#ffffff;stroke-width:0.75;" x="282.47884" xlink:href="#m1ec11a6b84" y="255.384456"/>
     <use style="fill:#1f77b4;stroke:#ffffff;stroke-width:0.75;" x="285.093648" xlink:href="#m1ec11a6b84" y="255.576053"/>
     <use style="fill:#1f77b4;stroke:#ffffff;stroke-width:0.75;" x="287.708456" xlink:href="#m1ec11a6b84" y="255.653969"/>
     <use style="fill:#1f77b4;stroke:#ffffff;stroke-width:0.75;" x="290.323264" xlink:href="#m1ec11a6b84" y="254.863642"/>
     <use style="fill:#1f77b4;stroke:#ffffff;stroke-width:0.75;" x="292.938072" xlink:href="#m1ec11a6b84" y="255.078163"/>
     <use style="fill:#1f77b4;stroke:#ffffff;stroke-width:0.75;" x="295.55288" xlink:href="#m1ec11a6b84" y="255.044261"/>
     <use style="fill:#1f77b4;stroke:#ffffff;stroke-width:0.75;" x="298.167688" xlink:href="#m1ec11a6b84" y="254.884933"/>
     <use style="fill:#1f77b4;stroke:#ffffff;stroke-width:0.75;" x="300.782495" xlink:href="#m1ec11a6b84" y="256.892704"/>
     <use style="fill:#1f77b4;stroke:#ffffff;stroke-width:0.75;" x="303.397303" xlink:href="#m1ec11a6b84" y="258.24559"/>
     <use style="fill:#1f77b4;stroke:#ffffff;stroke-width:0.75;" x="306.012111" xlink:href="#m1ec11a6b84" y="258.168411"/>
     <use style="fill:#1f77b4;stroke:#ffffff;stroke-width:0.75;" x="308.626919" xlink:href="#m1ec11a6b84" y="259.713966"/>
     <use style="fill:#1f77b4;stroke:#ffffff;stroke-width:0.75;" x="311.241727" xlink:href="#m1ec11a6b84" y="259.534051"/>
     <use style="fill:#1f77b4;stroke:#ffffff;stroke-width:0.75;" x="313.856535" xlink:href="#m1ec11a6b84" y="260.949189"/>
     <use style="fill:#1f77b4;stroke:#ffffff;stroke-width:0.75;" x="316.471343" xlink:href="#m1ec11a6b84" y="266.617813"/>
     <use style="fill:#1f77b4;stroke:#ffffff;stroke-width:0.75;" x="319.086151" xlink:href="#m1ec11a6b84" y="266.645455"/>
    </g>
   </g>
   <g id="line2d_7">
    <path clip-path="url(#pe5f86a08ca)" d="M 65.449787 155.274458 
L 68.064595 164.184154 
L 70.679403 168.455782 
L 73.294211 169.414554 
L 75.909018 191.508313 
L 78.523826 191.12016 
L 81.138634 190.911228 
L 83.753442 190.842153 
L 86.36825 191.002642 
L 88.983058 191.121286 
L 91.597866 220.942587 
L 94.212674 220.470259 
L 96.827481 218.511626 
L 99.442289 218.298983 
L 102.057097 219.258451 
L 104.671905 219.128348 
L 107.286713 218.998461 
L 109.901521 222.641704 
L 112.516329 221.160023 
L 115.131137 215.769441 
L 117.745944 215.890786 
L 120.360752 215.634231 
L 122.97556 215.371121 
L 125.590368 215.571831 
L 128.205176 215.387303 
L 130.819984 215.115144 
L 133.434792 215.822815 
L 136.049599 215.596345 
L 138.664407 215.532687 
L 141.279215 214.995388 
L 143.894023 215.003321 
L 146.508831 214.886693 
L 149.123639 215.276485 
L 151.738447 215.247647 
L 154.353255 215.342015 
L 156.968062 216.371998 
L 159.58287 216.343548 
L 162.197678 215.693209 
L 164.812486 215.66548 
L 167.427294 215.08258 
L 170.042102 216.00719 
L 172.65691 215.974388 
L 175.271718 214.61172 
L 177.886525 214.682371 
L 180.501333 216.380433 
L 183.116141 216.081249 
L 185.730949 217.419787 
L 188.345757 217.239627 
L 190.960565 217.156887 
L 193.575373 217.275014 
L 196.190181 219.094519 
L 198.804988 219.08146 
L 201.419796 218.645275 
L 204.034604 219.130989 
L 206.649412 219.112849 
L 209.26422 218.579224 
L 211.879028 216.356459 
L 214.493836 216.4453 
L 217.108644 215.410186 
L 219.723451 215.154265 
L 222.338259 213.060027 
L 224.953067 212.969283 
L 227.567875 213.094512 
L 230.182683 213.564568 
L 232.797491 213.534052 
L 235.412299 213.013434 
L 238.027107 212.83354 
L 240.641914 212.938735 
L 243.256722 212.954137 
L 245.87153 212.923414 
L 248.486338 213.396847 
L 251.101146 213.263783 
L 253.715954 212.898833 
L 256.330762 212.74225 
L 258.945569 212.172311 
L 261.560377 212.938846 
L 264.175185 212.944792 
L 266.789993 211.712816 
L 269.404801 211.596272 
L 272.019609 212.130089 
L 274.634417 212.098465 
L 277.249225 212.474237 
L 279.864032 212.416327 
L 282.47884 212.179248 
L 285.093648 211.85836 
L 287.708456 211.703004 
L 290.323264 211.59424 
L 292.938072 211.257782 
L 295.55288 211.259303 
L 298.167688 211.223401 
L 300.782495 211.092035 
L 303.397303 211.071962 
L 306.012111 210.837743 
L 308.626919 210.641177 
L 311.241727 210.685512 
L 313.856535 210.732424 
L 316.471343 210.681391 
L 319.086151 210.652924 
" style="fill:none;stroke:#ff7f0e;stroke-linecap:round;stroke-width:1.5;"/>
    <defs>
     <path d="M 0 3 
C 0.795609 3 1.55874 2.683901 2.12132 2.12132 
C 2.683901 1.55874 3 0.795609 3 0 
C 3 -0.795609 2.683901 -1.55874 2.12132 -2.12132 
C 1.55874 -2.683901 0.795609 -3 0 -3 
C -0.795609 -3 -1.55874 -2.683901 -2.12132 -2.12132 
C -2.683901 -1.55874 -3 -0.795609 -3 0 
C -3 0.795609 -2.683901 1.55874 -2.12132 2.12132 
C -1.55874 2.683901 -0.795609 3 0 3 
z
" id="m3b6bb86fbd" style="stroke:#ffffff;stroke-width:0.75;"/>
    </defs>
    <g clip-path="url(#pe5f86a08ca)">
     <use style="fill:#ff7f0e;stroke:#ffffff;stroke-width:0.75;" x="65.449787" xlink:href="#m3b6bb86fbd" y="155.274458"/>
     <use style="fill:#ff7f0e;stroke:#ffffff;stroke-width:0.75;" x="68.064595" xlink:href="#m3b6bb86fbd" y="164.184154"/>
     <use style="fill:#ff7f0e;stroke:#ffffff;stroke-width:0.75;" x="70.679403" xlink:href="#m3b6bb86fbd" y="168.455782"/>
     <use style="fill:#ff7f0e;stroke:#ffffff;stroke-width:0.75;" x="73.294211" xlink:href="#m3b6bb86fbd" y="169.414554"/>
     <use style="fill:#ff7f0e;stroke:#ffffff;stroke-width:0.75;" x="75.909018" xlink:href="#m3b6bb86fbd" y="191.508313"/>
     <use style="fill:#ff7f0e;stroke:#ffffff;stroke-width:0.75;" x="78.523826" xlink:href="#m3b6bb86fbd" y="191.12016"/>
     <use style="fill:#ff7f0e;stroke:#ffffff;stroke-width:0.75;" x="81.138634" xlink:href="#m3b6bb86fbd" y="190.911228"/>
     <use style="fill:#ff7f0e;stroke:#ffffff;stroke-width:0.75;" x="83.753442" xlink:href="#m3b6bb86fbd" y="190.842153"/>
     <use style="fill:#ff7f0e;stroke:#ffffff;stroke-width:0.75;" x="86.36825" xlink:href="#m3b6bb86fbd" y="191.002642"/>
     <use style="fill:#ff7f0e;stroke:#ffffff;stroke-width:0.75;" x="88.983058" xlink:href="#m3b6bb86fbd" y="191.121286"/>
     <use style="fill:#ff7f0e;stroke:#ffffff;stroke-width:0.75;" x="91.597866" xlink:href="#m3b6bb86fbd" y="220.942587"/>
     <use style="fill:#ff7f0e;stroke:#ffffff;stroke-width:0.75;" x="94.212674" xlink:href="#m3b6bb86fbd" y="220.470259"/>
     <use style="fill:#ff7f0e;stroke:#ffffff;stroke-width:0.75;" x="96.827481" xlink:href="#m3b6bb86fbd" y="218.511626"/>
     <use style="fill:#ff7f0e;stroke:#ffffff;stroke-width:0.75;" x="99.442289" xlink:href="#m3b6bb86fbd" y="218.298983"/>
     <use style="fill:#ff7f0e;stroke:#ffffff;stroke-width:0.75;" x="102.057097" xlink:href="#m3b6bb86fbd" y="219.258451"/>
     <use style="fill:#ff7f0e;stroke:#ffffff;stroke-width:0.75;" x="104.671905" xlink:href="#m3b6bb86fbd" y="219.128348"/>
     <use style="fill:#ff7f0e;stroke:#ffffff;stroke-width:0.75;" x="107.286713" xlink:href="#m3b6bb86fbd" y="218.998461"/>
     <use style="fill:#ff7f0e;stroke:#ffffff;stroke-width:0.75;" x="109.901521" xlink:href="#m3b6bb86fbd" y="222.641704"/>
     <use style="fill:#ff7f0e;stroke:#ffffff;stroke-width:0.75;" x="112.516329" xlink:href="#m3b6bb86fbd" y="221.160023"/>
     <use style="fill:#ff7f0e;stroke:#ffffff;stroke-width:0.75;" x="115.131137" xlink:href="#m3b6bb86fbd" y="215.769441"/>
     <use style="fill:#ff7f0e;stroke:#ffffff;stroke-width:0.75;" x="117.745944" xlink:href="#m3b6bb86fbd" y="215.890786"/>
     <use style="fill:#ff7f0e;stroke:#ffffff;stroke-width:0.75;" x="120.360752" xlink:href="#m3b6bb86fbd" y="215.634231"/>
     <use style="fill:#ff7f0e;stroke:#ffffff;stroke-width:0.75;" x="122.97556" xlink:href="#m3b6bb86fbd" y="215.371121"/>
     <use style="fill:#ff7f0e;stroke:#ffffff;stroke-width:0.75;" x="125.590368" xlink:href="#m3b6bb86fbd" y="215.571831"/>
     <use style="fill:#ff7f0e;stroke:#ffffff;stroke-width:0.75;" x="128.205176" xlink:href="#m3b6bb86fbd" y="215.387303"/>
     <use style="fill:#ff7f0e;stroke:#ffffff;stroke-width:0.75;" x="130.819984" xlink:href="#m3b6bb86fbd" y="215.115144"/>
     <use style="fill:#ff7f0e;stroke:#ffffff;stroke-width:0.75;" x="133.434792" xlink:href="#m3b6bb86fbd" y="215.822815"/>
     <use style="fill:#ff7f0e;stroke:#ffffff;stroke-width:0.75;" x="136.049599" xlink:href="#m3b6bb86fbd" y="215.596345"/>
     <use style="fill:#ff7f0e;stroke:#ffffff;stroke-width:0.75;" x="138.664407" xlink:href="#m3b6bb86fbd" y="215.532687"/>
     <use style="fill:#ff7f0e;stroke:#ffffff;stroke-width:0.75;" x="141.279215" xlink:href="#m3b6bb86fbd" y="214.995388"/>
     <use style="fill:#ff7f0e;stroke:#ffffff;stroke-width:0.75;" x="143.894023" xlink:href="#m3b6bb86fbd" y="215.003321"/>
     <use style="fill:#ff7f0e;stroke:#ffffff;stroke-width:0.75;" x="146.508831" xlink:href="#m3b6bb86fbd" y="214.886693"/>
     <use style="fill:#ff7f0e;stroke:#ffffff;stroke-width:0.75;" x="149.123639" xlink:href="#m3b6bb86fbd" y="215.276485"/>
     <use style="fill:#ff7f0e;stroke:#ffffff;stroke-width:0.75;" x="151.738447" xlink:href="#m3b6bb86fbd" y="215.247647"/>
     <use style="fill:#ff7f0e;stroke:#ffffff;stroke-width:0.75;" x="154.353255" xlink:href="#m3b6bb86fbd" y="215.342015"/>
     <use style="fill:#ff7f0e;stroke:#ffffff;stroke-width:0.75;" x="156.968062" xlink:href="#m3b6bb86fbd" y="216.371998"/>
     <use style="fill:#ff7f0e;stroke:#ffffff;stroke-width:0.75;" x="159.58287" xlink:href="#m3b6bb86fbd" y="216.343548"/>
     <use style="fill:#ff7f0e;stroke:#ffffff;stroke-width:0.75;" x="162.197678" xlink:href="#m3b6bb86fbd" y="215.693209"/>
     <use style="fill:#ff7f0e;stroke:#ffffff;stroke-width:0.75;" x="164.812486" xlink:href="#m3b6bb86fbd" y="215.66548"/>
     <use style="fill:#ff7f0e;stroke:#ffffff;stroke-width:0.75;" x="167.427294" xlink:href="#m3b6bb86fbd" y="215.08258"/>
     <use style="fill:#ff7f0e;stroke:#ffffff;stroke-width:0.75;" x="170.042102" xlink:href="#m3b6bb86fbd" y="216.00719"/>
     <use style="fill:#ff7f0e;stroke:#ffffff;stroke-width:0.75;" x="172.65691" xlink:href="#m3b6bb86fbd" y="215.974388"/>
     <use style="fill:#ff7f0e;stroke:#ffffff;stroke-width:0.75;" x="175.271718" xlink:href="#m3b6bb86fbd" y="214.61172"/>
     <use style="fill:#ff7f0e;stroke:#ffffff;stroke-width:0.75;" x="177.886525" xlink:href="#m3b6bb86fbd" y="214.682371"/>
     <use style="fill:#ff7f0e;stroke:#ffffff;stroke-width:0.75;" x="180.501333" xlink:href="#m3b6bb86fbd" y="216.380433"/>
     <use style="fill:#ff7f0e;stroke:#ffffff;stroke-width:0.75;" x="183.116141" xlink:href="#m3b6bb86fbd" y="216.081249"/>
     <use style="fill:#ff7f0e;stroke:#ffffff;stroke-width:0.75;" x="185.730949" xlink:href="#m3b6bb86fbd" y="217.419787"/>
     <use style="fill:#ff7f0e;stroke:#ffffff;stroke-width:0.75;" x="188.345757" xlink:href="#m3b6bb86fbd" y="217.239627"/>
     <use style="fill:#ff7f0e;stroke:#ffffff;stroke-width:0.75;" x="190.960565" xlink:href="#m3b6bb86fbd" y="217.156887"/>
     <use style="fill:#ff7f0e;stroke:#ffffff;stroke-width:0.75;" x="193.575373" xlink:href="#m3b6bb86fbd" y="217.275014"/>
     <use style="fill:#ff7f0e;stroke:#ffffff;stroke-width:0.75;" x="196.190181" xlink:href="#m3b6bb86fbd" y="219.094519"/>
     <use style="fill:#ff7f0e;stroke:#ffffff;stroke-width:0.75;" x="198.804988" xlink:href="#m3b6bb86fbd" y="219.08146"/>
     <use style="fill:#ff7f0e;stroke:#ffffff;stroke-width:0.75;" x="201.419796" xlink:href="#m3b6bb86fbd" y="218.645275"/>
     <use style="fill:#ff7f0e;stroke:#ffffff;stroke-width:0.75;" x="204.034604" xlink:href="#m3b6bb86fbd" y="219.130989"/>
     <use style="fill:#ff7f0e;stroke:#ffffff;stroke-width:0.75;" x="206.649412" xlink:href="#m3b6bb86fbd" y="219.112849"/>
     <use style="fill:#ff7f0e;stroke:#ffffff;stroke-width:0.75;" x="209.26422" xlink:href="#m3b6bb86fbd" y="218.579224"/>
     <use style="fill:#ff7f0e;stroke:#ffffff;stroke-width:0.75;" x="211.879028" xlink:href="#m3b6bb86fbd" y="216.356459"/>
     <use style="fill:#ff7f0e;stroke:#ffffff;stroke-width:0.75;" x="214.493836" xlink:href="#m3b6bb86fbd" y="216.4453"/>
     <use style="fill:#ff7f0e;stroke:#ffffff;stroke-width:0.75;" x="217.108644" xlink:href="#m3b6bb86fbd" y="215.410186"/>
     <use style="fill:#ff7f0e;stroke:#ffffff;stroke-width:0.75;" x="219.723451" xlink:href="#m3b6bb86fbd" y="215.154265"/>
     <use style="fill:#ff7f0e;stroke:#ffffff;stroke-width:0.75;" x="222.338259" xlink:href="#m3b6bb86fbd" y="213.060027"/>
     <use style="fill:#ff7f0e;stroke:#ffffff;stroke-width:0.75;" x="224.953067" xlink:href="#m3b6bb86fbd" y="212.969283"/>
     <use style="fill:#ff7f0e;stroke:#ffffff;stroke-width:0.75;" x="227.567875" xlink:href="#m3b6bb86fbd" y="213.094512"/>
     <use style="fill:#ff7f0e;stroke:#ffffff;stroke-width:0.75;" x="230.182683" xlink:href="#m3b6bb86fbd" y="213.564568"/>
     <use style="fill:#ff7f0e;stroke:#ffffff;stroke-width:0.75;" x="232.797491" xlink:href="#m3b6bb86fbd" y="213.534052"/>
     <use style="fill:#ff7f0e;stroke:#ffffff;stroke-width:0.75;" x="235.412299" xlink:href="#m3b6bb86fbd" y="213.013434"/>
     <use style="fill:#ff7f0e;stroke:#ffffff;stroke-width:0.75;" x="238.027107" xlink:href="#m3b6bb86fbd" y="212.83354"/>
     <use style="fill:#ff7f0e;stroke:#ffffff;stroke-width:0.75;" x="240.641914" xlink:href="#m3b6bb86fbd" y="212.938735"/>
     <use style="fill:#ff7f0e;stroke:#ffffff;stroke-width:0.75;" x="243.256722" xlink:href="#m3b6bb86fbd" y="212.954137"/>
     <use style="fill:#ff7f0e;stroke:#ffffff;stroke-width:0.75;" x="245.87153" xlink:href="#m3b6bb86fbd" y="212.923414"/>
     <use style="fill:#ff7f0e;stroke:#ffffff;stroke-width:0.75;" x="248.486338" xlink:href="#m3b6bb86fbd" y="213.396847"/>
     <use style="fill:#ff7f0e;stroke:#ffffff;stroke-width:0.75;" x="251.101146" xlink:href="#m3b6bb86fbd" y="213.263783"/>
     <use style="fill:#ff7f0e;stroke:#ffffff;stroke-width:0.75;" x="253.715954" xlink:href="#m3b6bb86fbd" y="212.898833"/>
     <use style="fill:#ff7f0e;stroke:#ffffff;stroke-width:0.75;" x="256.330762" xlink:href="#m3b6bb86fbd" y="212.74225"/>
     <use style="fill:#ff7f0e;stroke:#ffffff;stroke-width:0.75;" x="258.945569" xlink:href="#m3b6bb86fbd" y="212.172311"/>
     <use style="fill:#ff7f0e;stroke:#ffffff;stroke-width:0.75;" x="261.560377" xlink:href="#m3b6bb86fbd" y="212.938846"/>
     <use style="fill:#ff7f0e;stroke:#ffffff;stroke-width:0.75;" x="264.175185" xlink:href="#m3b6bb86fbd" y="212.944792"/>
     <use style="fill:#ff7f0e;stroke:#ffffff;stroke-width:0.75;" x="266.789993" xlink:href="#m3b6bb86fbd" y="211.712816"/>
     <use style="fill:#ff7f0e;stroke:#ffffff;stroke-width:0.75;" x="269.404801" xlink:href="#m3b6bb86fbd" y="211.596272"/>
     <use style="fill:#ff7f0e;stroke:#ffffff;stroke-width:0.75;" x="272.019609" xlink:href="#m3b6bb86fbd" y="212.130089"/>
     <use style="fill:#ff7f0e;stroke:#ffffff;stroke-width:0.75;" x="274.634417" xlink:href="#m3b6bb86fbd" y="212.098465"/>
     <use style="fill:#ff7f0e;stroke:#ffffff;stroke-width:0.75;" x="277.249225" xlink:href="#m3b6bb86fbd" y="212.474237"/>
     <use style="fill:#ff7f0e;stroke:#ffffff;stroke-width:0.75;" x="279.864032" xlink:href="#m3b6bb86fbd" y="212.416327"/>
     <use style="fill:#ff7f0e;stroke:#ffffff;stroke-width:0.75;" x="282.47884" xlink:href="#m3b6bb86fbd" y="212.179248"/>
     <use style="fill:#ff7f0e;stroke:#ffffff;stroke-width:0.75;" x="285.093648" xlink:href="#m3b6bb86fbd" y="211.85836"/>
     <use style="fill:#ff7f0e;stroke:#ffffff;stroke-width:0.75;" x="287.708456" xlink:href="#m3b6bb86fbd" y="211.703004"/>
     <use style="fill:#ff7f0e;stroke:#ffffff;stroke-width:0.75;" x="290.323264" xlink:href="#m3b6bb86fbd" y="211.59424"/>
     <use style="fill:#ff7f0e;stroke:#ffffff;stroke-width:0.75;" x="292.938072" xlink:href="#m3b6bb86fbd" y="211.257782"/>
     <use style="fill:#ff7f0e;stroke:#ffffff;stroke-width:0.75;" x="295.55288" xlink:href="#m3b6bb86fbd" y="211.259303"/>
     <use style="fill:#ff7f0e;stroke:#ffffff;stroke-width:0.75;" x="298.167688" xlink:href="#m3b6bb86fbd" y="211.223401"/>
     <use style="fill:#ff7f0e;stroke:#ffffff;stroke-width:0.75;" x="300.782495" xlink:href="#m3b6bb86fbd" y="211.092035"/>
     <use style="fill:#ff7f0e;stroke:#ffffff;stroke-width:0.75;" x="303.397303" xlink:href="#m3b6bb86fbd" y="211.071962"/>
     <use style="fill:#ff7f0e;stroke:#ffffff;stroke-width:0.75;" x="306.012111" xlink:href="#m3b6bb86fbd" y="210.837743"/>
     <use style="fill:#ff7f0e;stroke:#ffffff;stroke-width:0.75;" x="308.626919" xlink:href="#m3b6bb86fbd" y="210.641177"/>
     <use style="fill:#ff7f0e;stroke:#ffffff;stroke-width:0.75;" x="311.241727" xlink:href="#m3b6bb86fbd" y="210.685512"/>
     <use style="fill:#ff7f0e;stroke:#ffffff;stroke-width:0.75;" x="313.856535" xlink:href="#m3b6bb86fbd" y="210.732424"/>
     <use style="fill:#ff7f0e;stroke:#ffffff;stroke-width:0.75;" x="316.471343" xlink:href="#m3b6bb86fbd" y="210.681391"/>
     <use style="fill:#ff7f0e;stroke:#ffffff;stroke-width:0.75;" x="319.086151" xlink:href="#m3b6bb86fbd" y="210.652924"/>
    </g>
   </g>
   <g id="line2d_8">
    <path clip-path="url(#pe5f86a08ca)" d="M 65.449787 67.012856 
L 68.064595 84.644711 
L 70.679403 102.835421 
L 73.294211 106.200309 
L 75.909018 200.815004 
L 78.523826 201.330659 
L 81.138634 202.461014 
L 83.753442 203.036223 
L 86.36825 202.82671 
L 88.983058 203.422845 
L 91.597866 204.394011 
L 94.212674 208.100795 
L 96.827481 208.450227 
L 99.442289 207.875594 
L 102.057097 208.010909 
L 104.671905 208.084052 
L 107.286713 209.0075 
L 109.901521 209.471531 
L 112.516329 208.106169 
L 115.131137 208.595085 
L 117.745944 209.042492 
L 120.360752 209.08225 
L 122.97556 208.605114 
L 125.590368 208.7935 
L 128.205176 211.281245 
L 130.819984 211.486403 
L 133.434792 211.444792 
L 136.049599 211.765403 
L 138.664407 212.281279 
L 141.279215 212.603027 
L 143.894023 212.735235 
L 146.508831 221.466511 
L 149.123639 221.891887 
L 151.738447 222.014937 
L 154.353255 220.312307 
L 156.968062 220.853793 
L 159.58287 221.938078 
L 162.197678 222.077696 
L 164.812486 221.901414 
L 167.427294 222.023991 
L 170.042102 222.235809 
L 172.65691 222.423957 
L 175.271718 222.529055 
L 177.886525 223.077705 
L 180.501333 223.737616 
L 183.116141 223.482883 
L 185.730949 223.995576 
L 188.345757 223.589674 
L 190.960565 224.137303 
L 193.575373 224.010866 
L 196.190181 219.23785 
L 198.804988 219.282746 
L 201.419796 219.376936 
L 204.034604 219.280572 
L 206.649412 219.280499 
L 209.26422 219.387185 
L 211.879028 219.679732 
L 214.493836 219.657837 
L 217.108644 219.484756 
L 219.723451 219.626269 
L 222.338259 220.341937 
L 224.953067 221.626447 
L 227.567875 221.553778 
L 230.182683 222.289063 
L 232.797491 222.74919 
L 235.412299 222.894832 
L 238.027107 222.474151 
L 240.641914 222.517316 
L 243.256722 222.583609 
L 245.87153 224.255748 
L 248.486338 224.100623 
L 251.101146 224.275911 
L 253.715954 219.493536 
L 256.330762 218.071117 
L 258.945569 218.38881 
L 261.560377 218.424757 
L 264.175185 218.343105 
L 266.789993 218.504889 
L 269.404801 215.058197 
L 272.019609 215.094636 
L 274.634417 214.772315 
L 277.249225 214.210837 
L 279.864032 214.347139 
L 282.47884 214.758292 
L 285.093648 214.858877 
L 287.708456 214.317768 
L 290.323264 214.147329 
L 292.938072 214.110079 
L 295.55288 214.132488 
L 298.167688 214.459326 
L 300.782495 214.282217 
L 303.397303 214.449397 
L 306.012111 214.513761 
L 308.626919 213.782483 
L 311.241727 213.449318 
L 313.856535 214.426255 
L 316.471343 215.050973 
L 319.086151 215.004488 
" style="fill:none;stroke:#2ca02c;stroke-linecap:round;stroke-width:1.5;"/>
    <defs>
     <path d="M 0 3 
C 0.795609 3 1.55874 2.683901 2.12132 2.12132 
C 2.683901 1.55874 3 0.795609 3 0 
C 3 -0.795609 2.683901 -1.55874 2.12132 -2.12132 
C 1.55874 -2.683901 0.795609 -3 0 -3 
C -0.795609 -3 -1.55874 -2.683901 -2.12132 -2.12132 
C -2.683901 -1.55874 -3 -0.795609 -3 0 
C -3 0.795609 -2.683901 1.55874 -2.12132 2.12132 
C -1.55874 2.683901 -0.795609 3 0 3 
z
" id="m58111f4a5f" style="stroke:#ffffff;stroke-width:0.75;"/>
    </defs>
    <g clip-path="url(#pe5f86a08ca)">
     <use style="fill:#2ca02c;stroke:#ffffff;stroke-width:0.75;" x="65.449787" xlink:href="#m58111f4a5f" y="67.012856"/>
     <use style="fill:#2ca02c;stroke:#ffffff;stroke-width:0.75;" x="68.064595" xlink:href="#m58111f4a5f" y="84.644711"/>
     <use style="fill:#2ca02c;stroke:#ffffff;stroke-width:0.75;" x="70.679403" xlink:href="#m58111f4a5f" y="102.835421"/>
     <use style="fill:#2ca02c;stroke:#ffffff;stroke-width:0.75;" x="73.294211" xlink:href="#m58111f4a5f" y="106.200309"/>
     <use style="fill:#2ca02c;stroke:#ffffff;stroke-width:0.75;" x="75.909018" xlink:href="#m58111f4a5f" y="200.815004"/>
     <use style="fill:#2ca02c;stroke:#ffffff;stroke-width:0.75;" x="78.523826" xlink:href="#m58111f4a5f" y="201.330659"/>
     <use style="fill:#2ca02c;stroke:#ffffff;stroke-width:0.75;" x="81.138634" xlink:href="#m58111f4a5f" y="202.461014"/>
     <use style="fill:#2ca02c;stroke:#ffffff;stroke-width:0.75;" x="83.753442" xlink:href="#m58111f4a5f" y="203.036223"/>
     <use style="fill:#2ca02c;stroke:#ffffff;stroke-width:0.75;" x="86.36825" xlink:href="#m58111f4a5f" y="202.82671"/>
     <use style="fill:#2ca02c;stroke:#ffffff;stroke-width:0.75;" x="88.983058" xlink:href="#m58111f4a5f" y="203.422845"/>
     <use style="fill:#2ca02c;stroke:#ffffff;stroke-width:0.75;" x="91.597866" xlink:href="#m58111f4a5f" y="204.394011"/>
     <use style="fill:#2ca02c;stroke:#ffffff;stroke-width:0.75;" x="94.212674" xlink:href="#m58111f4a5f" y="208.100795"/>
     <use style="fill:#2ca02c;stroke:#ffffff;stroke-width:0.75;" x="96.827481" xlink:href="#m58111f4a5f" y="208.450227"/>
     <use style="fill:#2ca02c;stroke:#ffffff;stroke-width:0.75;" x="99.442289" xlink:href="#m58111f4a5f" y="207.875594"/>
     <use style="fill:#2ca02c;stroke:#ffffff;stroke-width:0.75;" x="102.057097" xlink:href="#m58111f4a5f" y="208.010909"/>
     <use style="fill:#2ca02c;stroke:#ffffff;stroke-width:0.75;" x="104.671905" xlink:href="#m58111f4a5f" y="208.084052"/>
     <use style="fill:#2ca02c;stroke:#ffffff;stroke-width:0.75;" x="107.286713" xlink:href="#m58111f4a5f" y="209.0075"/>
     <use style="fill:#2ca02c;stroke:#ffffff;stroke-width:0.75;" x="109.901521" xlink:href="#m58111f4a5f" y="209.471531"/>
     <use style="fill:#2ca02c;stroke:#ffffff;stroke-width:0.75;" x="112.516329" xlink:href="#m58111f4a5f" y="208.106169"/>
     <use style="fill:#2ca02c;stroke:#ffffff;stroke-width:0.75;" x="115.131137" xlink:href="#m58111f4a5f" y="208.595085"/>
     <use style="fill:#2ca02c;stroke:#ffffff;stroke-width:0.75;" x="117.745944" xlink:href="#m58111f4a5f" y="209.042492"/>
     <use style="fill:#2ca02c;stroke:#ffffff;stroke-width:0.75;" x="120.360752" xlink:href="#m58111f4a5f" y="209.08225"/>
     <use style="fill:#2ca02c;stroke:#ffffff;stroke-width:0.75;" x="122.97556" xlink:href="#m58111f4a5f" y="208.605114"/>
     <use style="fill:#2ca02c;stroke:#ffffff;stroke-width:0.75;" x="125.590368" xlink:href="#m58111f4a5f" y="208.7935"/>
     <use style="fill:#2ca02c;stroke:#ffffff;stroke-width:0.75;" x="128.205176" xlink:href="#m58111f4a5f" y="211.281245"/>
     <use style="fill:#2ca02c;stroke:#ffffff;stroke-width:0.75;" x="130.819984" xlink:href="#m58111f4a5f" y="211.486403"/>
     <use style="fill:#2ca02c;stroke:#ffffff;stroke-width:0.75;" x="133.434792" xlink:href="#m58111f4a5f" y="211.444792"/>
     <use style="fill:#2ca02c;stroke:#ffffff;stroke-width:0.75;" x="136.049599" xlink:href="#m58111f4a5f" y="211.765403"/>
     <use style="fill:#2ca02c;stroke:#ffffff;stroke-width:0.75;" x="138.664407" xlink:href="#m58111f4a5f" y="212.281279"/>
     <use style="fill:#2ca02c;stroke:#ffffff;stroke-width:0.75;" x="141.279215" xlink:href="#m58111f4a5f" y="212.603027"/>
     <use style="fill:#2ca02c;stroke:#ffffff;stroke-width:0.75;" x="143.894023" xlink:href="#m58111f4a5f" y="212.735235"/>
     <use style="fill:#2ca02c;stroke:#ffffff;stroke-width:0.75;" x="146.508831" xlink:href="#m58111f4a5f" y="221.466511"/>
     <use style="fill:#2ca02c;stroke:#ffffff;stroke-width:0.75;" x="149.123639" xlink:href="#m58111f4a5f" y="221.891887"/>
     <use style="fill:#2ca02c;stroke:#ffffff;stroke-width:0.75;" x="151.738447" xlink:href="#m58111f4a5f" y="222.014937"/>
     <use style="fill:#2ca02c;stroke:#ffffff;stroke-width:0.75;" x="154.353255" xlink:href="#m58111f4a5f" y="220.312307"/>
     <use style="fill:#2ca02c;stroke:#ffffff;stroke-width:0.75;" x="156.968062" xlink:href="#m58111f4a5f" y="220.853793"/>
     <use style="fill:#2ca02c;stroke:#ffffff;stroke-width:0.75;" x="159.58287" xlink:href="#m58111f4a5f" y="221.938078"/>
     <use style="fill:#2ca02c;stroke:#ffffff;stroke-width:0.75;" x="162.197678" xlink:href="#m58111f4a5f" y="222.077696"/>
     <use style="fill:#2ca02c;stroke:#ffffff;stroke-width:0.75;" x="164.812486" xlink:href="#m58111f4a5f" y="221.901414"/>
     <use style="fill:#2ca02c;stroke:#ffffff;stroke-width:0.75;" x="167.427294" xlink:href="#m58111f4a5f" y="222.023991"/>
     <use style="fill:#2ca02c;stroke:#ffffff;stroke-width:0.75;" x="170.042102" xlink:href="#m58111f4a5f" y="222.235809"/>
     <use style="fill:#2ca02c;stroke:#ffffff;stroke-width:0.75;" x="172.65691" xlink:href="#m58111f4a5f" y="222.423957"/>
     <use style="fill:#2ca02c;stroke:#ffffff;stroke-width:0.75;" x="175.271718" xlink:href="#m58111f4a5f" y="222.529055"/>
     <use style="fill:#2ca02c;stroke:#ffffff;stroke-width:0.75;" x="177.886525" xlink:href="#m58111f4a5f" y="223.077705"/>
     <use style="fill:#2ca02c;stroke:#ffffff;stroke-width:0.75;" x="180.501333" xlink:href="#m58111f4a5f" y="223.737616"/>
     <use style="fill:#2ca02c;stroke:#ffffff;stroke-width:0.75;" x="183.116141" xlink:href="#m58111f4a5f" y="223.482883"/>
     <use style="fill:#2ca02c;stroke:#ffffff;stroke-width:0.75;" x="185.730949" xlink:href="#m58111f4a5f" y="223.995576"/>
     <use style="fill:#2ca02c;stroke:#ffffff;stroke-width:0.75;" x="188.345757" xlink:href="#m58111f4a5f" y="223.589674"/>
     <use style="fill:#2ca02c;stroke:#ffffff;stroke-width:0.75;" x="190.960565" xlink:href="#m58111f4a5f" y="224.137303"/>
     <use style="fill:#2ca02c;stroke:#ffffff;stroke-width:0.75;" x="193.575373" xlink:href="#m58111f4a5f" y="224.010866"/>
     <use style="fill:#2ca02c;stroke:#ffffff;stroke-width:0.75;" x="196.190181" xlink:href="#m58111f4a5f" y="219.23785"/>
     <use style="fill:#2ca02c;stroke:#ffffff;stroke-width:0.75;" x="198.804988" xlink:href="#m58111f4a5f" y="219.282746"/>
     <use style="fill:#2ca02c;stroke:#ffffff;stroke-width:0.75;" x="201.419796" xlink:href="#m58111f4a5f" y="219.376936"/>
     <use style="fill:#2ca02c;stroke:#ffffff;stroke-width:0.75;" x="204.034604" xlink:href="#m58111f4a5f" y="219.280572"/>
     <use style="fill:#2ca02c;stroke:#ffffff;stroke-width:0.75;" x="206.649412" xlink:href="#m58111f4a5f" y="219.280499"/>
     <use style="fill:#2ca02c;stroke:#ffffff;stroke-width:0.75;" x="209.26422" xlink:href="#m58111f4a5f" y="219.387185"/>
     <use style="fill:#2ca02c;stroke:#ffffff;stroke-width:0.75;" x="211.879028" xlink:href="#m58111f4a5f" y="219.679732"/>
     <use style="fill:#2ca02c;stroke:#ffffff;stroke-width:0.75;" x="214.493836" xlink:href="#m58111f4a5f" y="219.657837"/>
     <use style="fill:#2ca02c;stroke:#ffffff;stroke-width:0.75;" x="217.108644" xlink:href="#m58111f4a5f" y="219.484756"/>
     <use style="fill:#2ca02c;stroke:#ffffff;stroke-width:0.75;" x="219.723451" xlink:href="#m58111f4a5f" y="219.626269"/>
     <use style="fill:#2ca02c;stroke:#ffffff;stroke-width:0.75;" x="222.338259" xlink:href="#m58111f4a5f" y="220.341937"/>
     <use style="fill:#2ca02c;stroke:#ffffff;stroke-width:0.75;" x="224.953067" xlink:href="#m58111f4a5f" y="221.626447"/>
     <use style="fill:#2ca02c;stroke:#ffffff;stroke-width:0.75;" x="227.567875" xlink:href="#m58111f4a5f" y="221.553778"/>
     <use style="fill:#2ca02c;stroke:#ffffff;stroke-width:0.75;" x="230.182683" xlink:href="#m58111f4a5f" y="222.289063"/>
     <use style="fill:#2ca02c;stroke:#ffffff;stroke-width:0.75;" x="232.797491" xlink:href="#m58111f4a5f" y="222.74919"/>
     <use style="fill:#2ca02c;stroke:#ffffff;stroke-width:0.75;" x="235.412299" xlink:href="#m58111f4a5f" y="222.894832"/>
     <use style="fill:#2ca02c;stroke:#ffffff;stroke-width:0.75;" x="238.027107" xlink:href="#m58111f4a5f" y="222.474151"/>
     <use style="fill:#2ca02c;stroke:#ffffff;stroke-width:0.75;" x="240.641914" xlink:href="#m58111f4a5f" y="222.517316"/>
     <use style="fill:#2ca02c;stroke:#ffffff;stroke-width:0.75;" x="243.256722" xlink:href="#m58111f4a5f" y="222.583609"/>
     <use style="fill:#2ca02c;stroke:#ffffff;stroke-width:0.75;" x="245.87153" xlink:href="#m58111f4a5f" y="224.255748"/>
     <use style="fill:#2ca02c;stroke:#ffffff;stroke-width:0.75;" x="248.486338" xlink:href="#m58111f4a5f" y="224.100623"/>
     <use style="fill:#2ca02c;stroke:#ffffff;stroke-width:0.75;" x="251.101146" xlink:href="#m58111f4a5f" y="224.275911"/>
     <use style="fill:#2ca02c;stroke:#ffffff;stroke-width:0.75;" x="253.715954" xlink:href="#m58111f4a5f" y="219.493536"/>
     <use style="fill:#2ca02c;stroke:#ffffff;stroke-width:0.75;" x="256.330762" xlink:href="#m58111f4a5f" y="218.071117"/>
     <use style="fill:#2ca02c;stroke:#ffffff;stroke-width:0.75;" x="258.945569" xlink:href="#m58111f4a5f" y="218.38881"/>
     <use style="fill:#2ca02c;stroke:#ffffff;stroke-width:0.75;" x="261.560377" xlink:href="#m58111f4a5f" y="218.424757"/>
     <use style="fill:#2ca02c;stroke:#ffffff;stroke-width:0.75;" x="264.175185" xlink:href="#m58111f4a5f" y="218.343105"/>
     <use style="fill:#2ca02c;stroke:#ffffff;stroke-width:0.75;" x="266.789993" xlink:href="#m58111f4a5f" y="218.504889"/>
     <use style="fill:#2ca02c;stroke:#ffffff;stroke-width:0.75;" x="269.404801" xlink:href="#m58111f4a5f" y="215.058197"/>
     <use style="fill:#2ca02c;stroke:#ffffff;stroke-width:0.75;" x="272.019609" xlink:href="#m58111f4a5f" y="215.094636"/>
     <use style="fill:#2ca02c;stroke:#ffffff;stroke-width:0.75;" x="274.634417" xlink:href="#m58111f4a5f" y="214.772315"/>
     <use style="fill:#2ca02c;stroke:#ffffff;stroke-width:0.75;" x="277.249225" xlink:href="#m58111f4a5f" y="214.210837"/>
     <use style="fill:#2ca02c;stroke:#ffffff;stroke-width:0.75;" x="279.864032" xlink:href="#m58111f4a5f" y="214.347139"/>
     <use style="fill:#2ca02c;stroke:#ffffff;stroke-width:0.75;" x="282.47884" xlink:href="#m58111f4a5f" y="214.758292"/>
     <use style="fill:#2ca02c;stroke:#ffffff;stroke-width:0.75;" x="285.093648" xlink:href="#m58111f4a5f" y="214.858877"/>
     <use style="fill:#2ca02c;stroke:#ffffff;stroke-width:0.75;" x="287.708456" xlink:href="#m58111f4a5f" y="214.317768"/>
     <use style="fill:#2ca02c;stroke:#ffffff;stroke-width:0.75;" x="290.323264" xlink:href="#m58111f4a5f" y="214.147329"/>
     <use style="fill:#2ca02c;stroke:#ffffff;stroke-width:0.75;" x="292.938072" xlink:href="#m58111f4a5f" y="214.110079"/>
     <use style="fill:#2ca02c;stroke:#ffffff;stroke-width:0.75;" x="295.55288" xlink:href="#m58111f4a5f" y="214.132488"/>
     <use style="fill:#2ca02c;stroke:#ffffff;stroke-width:0.75;" x="298.167688" xlink:href="#m58111f4a5f" y="214.459326"/>
     <use style="fill:#2ca02c;stroke:#ffffff;stroke-width:0.75;" x="300.782495" xlink:href="#m58111f4a5f" y="214.282217"/>
     <use style="fill:#2ca02c;stroke:#ffffff;stroke-width:0.75;" x="303.397303" xlink:href="#m58111f4a5f" y="214.449397"/>
     <use style="fill:#2ca02c;stroke:#ffffff;stroke-width:0.75;" x="306.012111" xlink:href="#m58111f4a5f" y="214.513761"/>
     <use style="fill:#2ca02c;stroke:#ffffff;stroke-width:0.75;" x="308.626919" xlink:href="#m58111f4a5f" y="213.782483"/>
     <use style="fill:#2ca02c;stroke:#ffffff;stroke-width:0.75;" x="311.241727" xlink:href="#m58111f4a5f" y="213.449318"/>
     <use style="fill:#2ca02c;stroke:#ffffff;stroke-width:0.75;" x="313.856535" xlink:href="#m58111f4a5f" y="214.426255"/>
     <use style="fill:#2ca02c;stroke:#ffffff;stroke-width:0.75;" x="316.471343" xlink:href="#m58111f4a5f" y="215.050973"/>
     <use style="fill:#2ca02c;stroke:#ffffff;stroke-width:0.75;" x="319.086151" xlink:href="#m58111f4a5f" y="215.004488"/>
    </g>
   </g>
   <g id="line2d_9"/>
   <g id="line2d_10"/>
   <g id="line2d_11"/>
   <g id="line2d_12"/>
   <g id="patch_3">
    <path d="M 52.767969 279 
L 331.767969 279 
" style="fill:none;stroke:#cccccc;stroke-linecap:square;stroke-linejoin:miter;stroke-width:0.8;"/>
   </g>
   <g id="legend_1">
    <g id="patch_4">
     <path d="M 212.407813 104.423438 
L 321.267969 104.423438 
Q 324.267969 104.423438 324.267969 101.423438 
L 324.267969 17.7 
Q 324.267969 14.7 321.267969 14.7 
L 212.407813 14.7 
Q 209.407813 14.7 209.407813 17.7 
L 209.407813 101.423438 
Q 209.407813 104.423438 212.407813 104.423438 
z
" style="fill:#ffffff;opacity:0.8;stroke:#cccccc;stroke-linejoin:miter;"/>
    </g>
    <g id="text_14">
     <!-- Method -->
     <defs>
      <path d="M 7.421875 0 
L 7.421875 71.578125 
L 21.6875 71.578125 
L 38.625 20.90625 
Q 40.96875 13.8125 42.046875 10.296875 
Q 43.265625 14.203125 45.84375 21.78125 
L 62.984375 71.578125 
L 75.734375 71.578125 
L 75.734375 0 
L 66.609375 0 
L 66.609375 59.90625 
L 45.796875 0 
L 37.25 0 
L 16.546875 60.9375 
L 16.546875 0 
z
" id="ArialMT-77"/>
      <path d="M 40.234375 0 
L 40.234375 6.546875 
Q 35.296875 -1.171875 25.734375 -1.171875 
Q 19.53125 -1.171875 14.328125 2.25 
Q 9.125 5.671875 6.265625 11.796875 
Q 3.421875 17.921875 3.421875 25.875 
Q 3.421875 33.640625 6 39.96875 
Q 8.59375 46.296875 13.765625 49.65625 
Q 18.953125 53.03125 25.34375 53.03125 
Q 30.03125 53.03125 33.6875 51.046875 
Q 37.359375 49.078125 39.65625 45.90625 
L 39.65625 71.578125 
L 48.390625 71.578125 
L 48.390625 0 
z
M 12.453125 25.875 
Q 12.453125 15.921875 16.640625 10.984375 
Q 20.84375 6.0625 26.5625 6.0625 
Q 32.328125 6.0625 36.34375 10.765625 
Q 40.375 15.484375 40.375 25.140625 
Q 40.375 35.796875 36.265625 40.765625 
Q 32.171875 45.75 26.171875 45.75 
Q 20.3125 45.75 16.375 40.96875 
Q 12.453125 36.1875 12.453125 25.875 
z
" id="ArialMT-100"/>
     </defs>
     <g style="fill:#262626;" transform="translate(241.824219 31.436719)scale(0.15 -0.15)">
      <use xlink:href="#ArialMT-77"/>
      <use x="83.300781" xlink:href="#ArialMT-101"/>
      <use x="138.916016" xlink:href="#ArialMT-116"/>
      <use x="166.699219" xlink:href="#ArialMT-104"/>
      <use x="222.314453" xlink:href="#ArialMT-111"/>
      <use x="277.929688" xlink:href="#ArialMT-100"/>
     </g>
    </g>
    <g id="line2d_13">
     <path d="M 215.407813 47.404688 
L 245.407813 47.404688 
" style="fill:none;stroke:#1f77b4;stroke-linecap:round;stroke-width:1.5;"/>
    </g>
    <g id="line2d_14">
     <g>
      <use style="fill:#1f77b4;stroke:#ffffff;stroke-width:0.75;" x="230.407813" xlink:href="#m1ec11a6b84" y="47.404688"/>
     </g>
    </g>
    <g id="text_15">
     <!-- single -->
     <defs>
      <path d="M 3.078125 15.484375 
L 11.765625 16.84375 
Q 12.5 11.625 15.84375 8.84375 
Q 19.1875 6.0625 25.203125 6.0625 
Q 31.25 6.0625 34.171875 8.515625 
Q 37.109375 10.984375 37.109375 14.3125 
Q 37.109375 17.28125 34.515625 19 
Q 32.71875 20.171875 25.53125 21.96875 
Q 15.875 24.421875 12.140625 26.203125 
Q 8.40625 27.984375 6.46875 31.125 
Q 4.546875 34.28125 4.546875 38.09375 
Q 4.546875 41.546875 6.125 44.5 
Q 7.71875 47.46875 10.453125 49.421875 
Q 12.5 50.921875 16.03125 51.96875 
Q 19.578125 53.03125 23.640625 53.03125 
Q 29.734375 53.03125 34.34375 51.265625 
Q 38.96875 49.515625 41.15625 46.5 
Q 43.359375 43.5 44.1875 38.484375 
L 35.59375 37.3125 
Q 35.015625 41.3125 32.203125 43.546875 
Q 29.390625 45.796875 24.265625 45.796875 
Q 18.21875 45.796875 15.625 43.796875 
Q 13.03125 41.796875 13.03125 39.109375 
Q 13.03125 37.40625 14.109375 36.03125 
Q 15.1875 34.625 17.484375 33.6875 
Q 18.796875 33.203125 25.25 31.453125 
Q 34.578125 28.953125 38.25 27.359375 
Q 41.9375 25.78125 44.03125 22.75 
Q 46.140625 19.734375 46.140625 15.234375 
Q 46.140625 10.84375 43.578125 6.953125 
Q 41.015625 3.078125 36.171875 0.953125 
Q 31.34375 -1.171875 25.25 -1.171875 
Q 15.140625 -1.171875 9.84375 3.03125 
Q 4.546875 7.234375 3.078125 15.484375 
z
" id="ArialMT-115"/>
      <path d="M 6.59375 0 
L 6.59375 51.859375 
L 14.5 51.859375 
L 14.5 44.484375 
Q 20.21875 53.03125 31 53.03125 
Q 35.6875 53.03125 39.625 51.34375 
Q 43.5625 49.65625 45.515625 46.921875 
Q 47.46875 44.1875 48.25 40.4375 
Q 48.734375 37.984375 48.734375 31.890625 
L 48.734375 0 
L 39.9375 0 
L 39.9375 31.546875 
Q 39.9375 36.921875 38.90625 39.578125 
Q 37.890625 42.234375 35.28125 43.8125 
Q 32.671875 45.40625 29.15625 45.40625 
Q 23.53125 45.40625 19.453125 41.84375 
Q 15.375 38.28125 15.375 28.328125 
L 15.375 0 
z
" id="ArialMT-110"/>
      <path d="M 4.984375 -4.296875 
L 13.53125 -5.5625 
Q 14.0625 -9.515625 16.5 -11.328125 
Q 19.78125 -13.765625 25.4375 -13.765625 
Q 31.546875 -13.765625 34.859375 -11.328125 
Q 38.1875 -8.890625 39.359375 -4.5 
Q 40.046875 -1.8125 39.984375 6.78125 
Q 34.234375 0 25.640625 0 
Q 14.9375 0 9.078125 7.71875 
Q 3.21875 15.4375 3.21875 26.21875 
Q 3.21875 33.640625 5.90625 39.90625 
Q 8.59375 46.1875 13.6875 49.609375 
Q 18.796875 53.03125 25.6875 53.03125 
Q 34.859375 53.03125 40.828125 45.609375 
L 40.828125 51.859375 
L 48.921875 51.859375 
L 48.921875 7.03125 
Q 48.921875 -5.078125 46.453125 -10.125 
Q 44 -15.1875 38.640625 -18.109375 
Q 33.296875 -21.046875 25.484375 -21.046875 
Q 16.21875 -21.046875 10.5 -16.875 
Q 4.78125 -12.703125 4.984375 -4.296875 
z
M 12.25 26.859375 
Q 12.25 16.65625 16.296875 11.96875 
Q 20.359375 7.28125 26.46875 7.28125 
Q 32.515625 7.28125 36.609375 11.9375 
Q 40.71875 16.609375 40.71875 26.5625 
Q 40.71875 36.078125 36.5 40.90625 
Q 32.28125 45.75 26.3125 45.75 
Q 20.453125 45.75 16.34375 40.984375 
Q 12.25 36.234375 12.25 26.859375 
z
" id="ArialMT-103"/>
     </defs>
     <g style="fill:#262626;" transform="translate(257.407812 52.654688)scale(0.15 -0.15)">
      <use xlink:href="#ArialMT-115"/>
      <use x="50" xlink:href="#ArialMT-105"/>
      <use x="72.216797" xlink:href="#ArialMT-110"/>
      <use x="127.832031" xlink:href="#ArialMT-103"/>
      <use x="183.447266" xlink:href="#ArialMT-108"/>
      <use x="205.664062" xlink:href="#ArialMT-101"/>
     </g>
    </g>
    <g id="line2d_15">
     <path d="M 215.407813 68.798438 
L 245.407813 68.798438 
" style="fill:none;stroke:#ff7f0e;stroke-linecap:round;stroke-width:1.5;"/>
    </g>
    <g id="line2d_16">
     <g>
      <use style="fill:#ff7f0e;stroke:#ffffff;stroke-width:0.75;" x="230.407813" xlink:href="#m3b6bb86fbd" y="68.798438"/>
     </g>
    </g>
    <g id="text_16">
     <!-- complete -->
     <defs>
      <path d="M 6.59375 0 
L 6.59375 51.859375 
L 14.453125 51.859375 
L 14.453125 44.578125 
Q 16.890625 48.390625 20.9375 50.703125 
Q 25 53.03125 30.171875 53.03125 
Q 35.9375 53.03125 39.625 50.640625 
Q 43.3125 48.25 44.828125 43.953125 
Q 50.984375 53.03125 60.84375 53.03125 
Q 68.5625 53.03125 72.703125 48.75 
Q 76.859375 44.484375 76.859375 35.59375 
L 76.859375 0 
L 68.109375 0 
L 68.109375 32.671875 
Q 68.109375 37.9375 67.25 40.25 
Q 66.40625 42.578125 64.15625 43.984375 
Q 61.921875 45.40625 58.890625 45.40625 
Q 53.421875 45.40625 49.796875 41.765625 
Q 46.1875 38.140625 46.1875 30.125 
L 46.1875 0 
L 37.40625 0 
L 37.40625 33.6875 
Q 37.40625 39.546875 35.25 42.46875 
Q 33.109375 45.40625 28.21875 45.40625 
Q 24.515625 45.40625 21.359375 43.453125 
Q 18.21875 41.5 16.796875 37.734375 
Q 15.375 33.984375 15.375 26.90625 
L 15.375 0 
z
" id="ArialMT-109"/>
      <path d="M 6.59375 -19.875 
L 6.59375 51.859375 
L 14.59375 51.859375 
L 14.59375 45.125 
Q 17.4375 49.078125 21 51.046875 
Q 24.5625 53.03125 29.640625 53.03125 
Q 36.28125 53.03125 41.359375 49.609375 
Q 46.4375 46.1875 49.015625 39.953125 
Q 51.609375 33.734375 51.609375 26.3125 
Q 51.609375 18.359375 48.75 11.984375 
Q 45.90625 5.609375 40.453125 2.21875 
Q 35.015625 -1.171875 29 -1.171875 
Q 24.609375 -1.171875 21.109375 0.6875 
Q 17.625 2.546875 15.375 5.375 
L 15.375 -19.875 
z
M 14.546875 25.640625 
Q 14.546875 15.625 18.59375 10.84375 
Q 22.65625 6.0625 28.421875 6.0625 
Q 34.28125 6.0625 38.453125 11.015625 
Q 42.625 15.96875 42.625 26.375 
Q 42.625 36.28125 38.546875 41.203125 
Q 34.46875 46.140625 28.8125 46.140625 
Q 23.1875 46.140625 18.859375 40.890625 
Q 14.546875 35.640625 14.546875 25.640625 
z
" id="ArialMT-112"/>
     </defs>
     <g style="fill:#262626;" transform="translate(257.407812 74.048438)scale(0.15 -0.15)">
      <use xlink:href="#ArialMT-99"/>
      <use x="50" xlink:href="#ArialMT-111"/>
      <use x="105.615234" xlink:href="#ArialMT-109"/>
      <use x="188.916016" xlink:href="#ArialMT-112"/>
      <use x="244.53125" xlink:href="#ArialMT-108"/>
      <use x="266.748047" xlink:href="#ArialMT-101"/>
      <use x="322.363281" xlink:href="#ArialMT-116"/>
      <use x="350.146484" xlink:href="#ArialMT-101"/>
     </g>
    </g>
    <g id="line2d_17">
     <path d="M 215.407813 90.016406 
L 245.407813 90.016406 
" style="fill:none;stroke:#2ca02c;stroke-linecap:round;stroke-width:1.5;"/>
    </g>
    <g id="line2d_18">
     <g>
      <use style="fill:#2ca02c;stroke:#ffffff;stroke-width:0.75;" x="230.407813" xlink:href="#m58111f4a5f" y="90.016406"/>
     </g>
    </g>
    <g id="text_17">
     <!-- weighted -->
     <defs>
      <path d="M 16.15625 0 
L 0.296875 51.859375 
L 9.375 51.859375 
L 17.625 21.921875 
L 20.703125 10.796875 
Q 20.90625 11.625 23.390625 21.484375 
L 31.640625 51.859375 
L 40.671875 51.859375 
L 48.4375 21.78125 
L 51.03125 11.859375 
L 54 21.875 
L 62.890625 51.859375 
L 71.4375 51.859375 
L 55.21875 0 
L 46.09375 0 
L 37.84375 31.0625 
L 35.84375 39.890625 
L 25.34375 0 
z
" id="ArialMT-119"/>
     </defs>
     <g style="fill:#262626;" transform="translate(257.407812 95.266406)scale(0.15 -0.15)">
      <use xlink:href="#ArialMT-119"/>
      <use x="72.216797" xlink:href="#ArialMT-101"/>
      <use x="127.832031" xlink:href="#ArialMT-105"/>
      <use x="150.048828" xlink:href="#ArialMT-103"/>
      <use x="205.664062" xlink:href="#ArialMT-104"/>
      <use x="261.279297" xlink:href="#ArialMT-116"/>
      <use x="289.0625" xlink:href="#ArialMT-101"/>
      <use x="344.677734" xlink:href="#ArialMT-100"/>
     </g>
    </g>
   </g>
  </g>
 </g>
 <defs>
  <clipPath id="pe5f86a08ca">
   <rect height="271.8" width="279" x="52.767969" y="7.2"/>
  </clipPath>
 </defs>
</svg>
